<?xml version="1.0" encoding="utf-8" standalone="no"?>
<!DOCTYPE svg PUBLIC "-//W3C//DTD SVG 1.1//EN"
  "http://www.w3.org/Graphics/SVG/1.1/DTD/svg11.dtd">
<!-- Created with matplotlib (https://matplotlib.org/) -->
<svg height="495.524737pt" version="1.1" viewBox="0 0 729.28125 495.524737" width="729.28125pt" xmlns="http://www.w3.org/2000/svg" xmlns:xlink="http://www.w3.org/1999/xlink">
 <metadata>
  <rdf:RDF xmlns:cc="http://creativecommons.org/ns#" xmlns:dc="http://purl.org/dc/elements/1.1/" xmlns:rdf="http://www.w3.org/1999/02/22-rdf-syntax-ns#">
   <cc:Work>
    <dc:type rdf:resource="http://purl.org/dc/dcmitype/StillImage"/>
    <dc:date>2021-07-17T16:53:19.228933</dc:date>
    <dc:format>image/svg+xml</dc:format>
    <dc:creator>
     <cc:Agent>
      <dc:title>Matplotlib v3.3.4, https://matplotlib.org/</dc:title>
     </cc:Agent>
    </dc:creator>
   </cc:Work>
  </rdf:RDF>
 </metadata>
 <defs>
  <style type="text/css">*{stroke-linecap:butt;stroke-linejoin:round;}</style>
 </defs>
 <g id="figure_1">
  <g id="patch_1">
   <path d="M 0 495.524737 
L 729.28125 495.524737 
L 729.28125 0 
L 0 0 
z
" style="fill:#f0f0f0;"/>
  </g>
  <g id="axes_1">
   <g id="patch_2">
    <path d="M 95.68125 440.5555 
L 722.08125 440.5555 
L 722.08125 31.5955 
L 95.68125 31.5955 
z
" style="fill:#f0f0f0;"/>
   </g>
   <g id="matplotlib.axis_1">
    <g id="xtick_1">
     <g id="line2d_1">
      <path clip-path="url(#pb679554184)" d="M 100.379533 440.5555 
L 100.379533 31.5955 
" style="fill:none;stroke:#cbcbcb;"/>
     </g>
     <g id="line2d_2"/>
     <g id="text_1">
      <!-- 02-08 -->
      <g style="fill:#555555;" transform="translate(67.321646 471.002735)rotate(-30)scale(0.14 -0.14)">
       <defs>
        <path d="M 13.203125 34.90625 
Q 13.203125 37.5 13.25 40.640625 
Q 13.296875 43.796875 13.75 46.9375 
Q 14.203125 50.09375 15.046875 53.09375 
Q 15.90625 56.09375 17.546875 58.34375 
Q 19.203125 60.59375 21.703125 62 
Q 24.203125 63.40625 27.796875 63.40625 
Q 31.40625 63.40625 33.90625 62 
Q 36.40625 60.59375 38.046875 58.34375 
Q 39.703125 56.09375 40.546875 53.09375 
Q 41.40625 50.09375 41.84375 46.9375 
Q 42.296875 43.796875 42.34375 40.640625 
Q 42.40625 37.5 42.40625 34.90625 
Q 42.40625 30.90625 42.15625 25.953125 
Q 41.90625 21 40.546875 16.640625 
Q 39.203125 12.296875 36.203125 9.296875 
Q 33.203125 6.296875 27.796875 6.296875 
Q 22.40625 6.296875 19.40625 9.296875 
Q 16.40625 12.296875 15.046875 16.640625 
Q 13.703125 21 13.453125 25.953125 
Q 13.203125 30.90625 13.203125 34.90625 
z
M 4.203125 34.796875 
Q 4.203125 30.90625 4.390625 26.703125 
Q 4.59375 22.5 5.390625 18.5 
Q 6.203125 14.5 7.703125 10.953125 
Q 9.203125 7.40625 11.796875 4.703125 
Q 14.40625 2 18.34375 0.453125 
Q 22.296875 -1.09375 27.796875 -1.09375 
Q 33.40625 -1.09375 37.296875 0.453125 
Q 41.203125 2 43.796875 4.703125 
Q 46.40625 7.40625 47.90625 10.953125 
Q 49.40625 14.5 50.203125 18.5 
Q 51 22.5 51.203125 26.703125 
Q 51.40625 30.90625 51.40625 34.796875 
Q 51.40625 38.703125 51.203125 42.890625 
Q 51 47.09375 50.203125 51.09375 
Q 49.40625 55.09375 47.90625 58.6875 
Q 46.40625 62.296875 43.796875 65 
Q 41.203125 67.703125 37.25 69.296875 
Q 33.296875 70.90625 27.796875 70.90625 
Q 22.296875 70.90625 18.34375 69.296875 
Q 14.40625 67.703125 11.796875 65 
Q 9.203125 62.296875 7.703125 58.6875 
Q 6.203125 55.09375 5.390625 51.09375 
Q 4.59375 47.09375 4.390625 42.890625 
Q 4.203125 38.703125 4.203125 34.796875 
z
" id="HelveticaNeue-48"/>
        <path d="M 4.40625 45.796875 
L 12.90625 45.796875 
Q 12.796875 49 13.546875 52.140625 
Q 14.296875 55.296875 16 57.796875 
Q 17.703125 60.296875 20.34375 61.84375 
Q 23 63.40625 26.703125 63.40625 
Q 29.5 63.40625 32 62.5 
Q 34.5 61.59375 36.34375 59.890625 
Q 38.203125 58.203125 39.296875 55.84375 
Q 40.40625 53.5 40.40625 50.59375 
Q 40.40625 46.90625 39.25 44.09375 
Q 38.09375 41.296875 35.84375 38.890625 
Q 33.59375 36.5 30.1875 34.140625 
Q 26.796875 31.796875 22.296875 29 
Q 18.59375 26.796875 15.1875 24.296875 
Q 11.796875 21.796875 9.09375 18.5 
Q 6.40625 15.203125 4.65625 10.75 
Q 2.90625 6.296875 2.40625 0 
L 48.703125 0 
L 48.703125 7.5 
L 12.296875 7.5 
Q 12.90625 10.796875 14.84375 13.34375 
Q 16.796875 15.90625 19.546875 18.09375 
Q 22.296875 20.296875 25.59375 22.25 
Q 28.90625 24.203125 32.203125 26.203125 
Q 35.5 28.296875 38.59375 30.59375 
Q 41.703125 32.90625 44.09375 35.75 
Q 46.5 38.59375 47.953125 42.1875 
Q 49.40625 45.796875 49.40625 50.5 
Q 49.40625 55.5 47.65625 59.296875 
Q 45.90625 63.09375 42.90625 65.640625 
Q 39.90625 68.203125 35.84375 69.546875 
Q 31.796875 70.90625 27.203125 70.90625 
Q 21.59375 70.90625 17.1875 69 
Q 12.796875 67.09375 9.84375 63.75 
Q 6.90625 60.40625 5.5 55.796875 
Q 4.09375 51.203125 4.40625 45.796875 
z
" id="HelveticaNeue-50"/>
        <path d="M 5 31.796875 
L 5 23.796875 
L 33.90625 23.796875 
L 33.90625 31.796875 
z
" id="HelveticaNeue-45"/>
        <path d="M 15.5 52.5 
Q 15.5 55.203125 16.5 57.203125 
Q 17.5 59.203125 19.140625 60.59375 
Q 20.796875 62 23.09375 62.703125 
Q 25.40625 63.40625 27.90625 63.40625 
Q 33.09375 63.40625 36.4375 60.65625 
Q 39.796875 57.90625 39.796875 52.5 
Q 39.796875 47.09375 36.5 44.09375 
Q 33.203125 41.09375 28.09375 41.09375 
Q 25.5 41.09375 23.203125 41.796875 
Q 20.90625 42.5 19.203125 43.890625 
Q 17.5 45.296875 16.5 47.4375 
Q 15.5 49.59375 15.5 52.5 
z
M 6.5 52.796875 
Q 6.5 48 9.203125 43.953125 
Q 11.90625 39.90625 16.40625 38.09375 
Q 10.40625 36 7.203125 31.34375 
Q 4 26.703125 4 20.40625 
Q 4 15 5.84375 10.953125 
Q 7.703125 6.90625 10.953125 4.203125 
Q 14.203125 1.5 18.59375 0.203125 
Q 23 -1.09375 28.09375 -1.09375 
Q 33 -1.09375 37.296875 0.296875 
Q 41.59375 1.703125 44.75 4.453125 
Q 47.90625 7.203125 49.75 11.203125 
Q 51.59375 15.203125 51.59375 20.40625 
Q 51.59375 27 48.5 31.546875 
Q 45.40625 36.09375 39 38.09375 
Q 43.5 40.09375 46.140625 44.046875 
Q 48.796875 48 48.796875 52.796875 
Q 48.796875 56.203125 47.59375 59.453125 
Q 46.40625 62.703125 43.84375 65.25 
Q 41.296875 67.796875 37.1875 69.34375 
Q 33.09375 70.90625 27.296875 70.90625 
Q 23.203125 70.90625 19.453125 69.703125 
Q 15.703125 68.5 12.796875 66.203125 
Q 9.90625 63.90625 8.203125 60.546875 
Q 6.5 57.203125 6.5 52.796875 
z
M 13 20 
Q 13 23.09375 14.140625 25.59375 
Q 15.296875 28.09375 17.34375 29.890625 
Q 19.40625 31.703125 22.15625 32.640625 
Q 24.90625 33.59375 28 33.59375 
Q 31 33.59375 33.640625 32.546875 
Q 36.296875 31.5 38.296875 29.703125 
Q 40.296875 27.90625 41.4375 25.453125 
Q 42.59375 23 42.59375 20.09375 
Q 42.59375 17.09375 41.546875 14.59375 
Q 40.5 12.09375 38.546875 10.25 
Q 36.59375 8.40625 33.9375 7.34375 
Q 31.296875 6.296875 28.09375 6.296875 
Q 21.5 6.296875 17.25 9.9375 
Q 13 13.59375 13 20 
z
" id="HelveticaNeue-56"/>
       </defs>
       <use xlink:href="#HelveticaNeue-48"/>
       <use x="55.599991" xlink:href="#HelveticaNeue-50"/>
       <use x="111.199982" xlink:href="#HelveticaNeue-45"/>
       <use x="150.099976" xlink:href="#HelveticaNeue-48"/>
       <use x="205.699966" xlink:href="#HelveticaNeue-56"/>
      </g>
     </g>
    </g>
    <g id="xtick_2">
     <g id="line2d_3">
      <path clip-path="url(#pb679554184)" d="M 116.229163 440.5555 
L 116.229163 31.5955 
" style="fill:none;stroke:#cbcbcb;"/>
     </g>
     <g id="line2d_4"/>
     <g id="text_2">
      <!-- 02-22 -->
      <g style="fill:#555555;" transform="translate(83.171276 471.002735)rotate(-30)scale(0.14 -0.14)">
       <use xlink:href="#HelveticaNeue-48"/>
       <use x="55.599991" xlink:href="#HelveticaNeue-50"/>
       <use x="111.199982" xlink:href="#HelveticaNeue-45"/>
       <use x="150.099976" xlink:href="#HelveticaNeue-50"/>
       <use x="205.699966" xlink:href="#HelveticaNeue-50"/>
      </g>
     </g>
    </g>
    <g id="xtick_3">
     <g id="line2d_5">
      <path clip-path="url(#pb679554184)" d="M 132.078792 440.5555 
L 132.078792 31.5955 
" style="fill:none;stroke:#cbcbcb;"/>
     </g>
     <g id="line2d_6"/>
     <g id="text_3">
      <!-- 03-07 -->
      <g style="fill:#555555;" transform="translate(99.020905 471.002735)rotate(-30)scale(0.14 -0.14)">
       <defs>
        <path d="M 21.796875 40.5 
L 21.796875 33.296875 
Q 24.203125 33.59375 26.90625 33.59375 
Q 30.09375 33.59375 32.84375 32.75 
Q 35.59375 31.90625 37.59375 30.15625 
Q 39.59375 28.40625 40.796875 25.84375 
Q 42 23.296875 42 20 
Q 42 16.796875 40.75 14.25 
Q 39.5 11.703125 37.390625 9.953125 
Q 35.296875 8.203125 32.5 7.25 
Q 29.703125 6.296875 26.59375 6.296875 
Q 19.296875 6.296875 15.5 10.640625 
Q 11.703125 15 11.5 21.90625 
L 3 21.90625 
Q 2.90625 16.40625 4.546875 12.09375 
Q 6.203125 7.796875 9.296875 4.84375 
Q 12.40625 1.90625 16.796875 0.40625 
Q 21.203125 -1.09375 26.59375 -1.09375 
Q 31.59375 -1.09375 36.046875 0.25 
Q 40.5 1.59375 43.796875 4.296875 
Q 47.09375 7 49.046875 11.046875 
Q 51 15.09375 51 20.40625 
Q 51 26.796875 47.84375 31.5 
Q 44.703125 36.203125 38.203125 37.59375 
L 38.203125 37.796875 
Q 42.40625 39.703125 45.203125 43.390625 
Q 48 47.09375 48 51.90625 
Q 48 56.796875 46.34375 60.390625 
Q 44.703125 64 41.796875 66.296875 
Q 38.90625 68.59375 34.953125 69.75 
Q 31 70.90625 26.40625 70.90625 
Q 21.09375 70.90625 17.046875 69.203125 
Q 13 67.5 10.296875 64.5 
Q 7.59375 61.5 6.140625 57.296875 
Q 4.703125 53.09375 4.5 48 
L 13 48 
Q 13 51.09375 13.796875 53.890625 
Q 14.59375 56.703125 16.25 58.796875 
Q 17.90625 60.90625 20.453125 62.15625 
Q 23 63.40625 26.40625 63.40625 
Q 31.796875 63.40625 35.390625 60.546875 
Q 39 57.703125 39 52 
Q 39 49.203125 37.890625 47 
Q 36.796875 44.796875 34.9375 43.34375 
Q 33.09375 41.90625 30.640625 41.15625 
Q 28.203125 40.40625 25.5 40.40625 
L 23.703125 40.40625 
Q 23.203125 40.40625 22.703125 40.40625 
Q 22.296875 40.40625 21.796875 40.5 
z
" id="HelveticaNeue-51"/>
        <path d="M 50.90625 62.40625 
L 50.90625 69.703125 
L 5 69.703125 
L 5 61.703125 
L 42.203125 61.703125 
Q 36.59375 55.796875 31.75 48.796875 
Q 26.90625 41.796875 23.203125 33.9375 
Q 19.5 26.09375 17.140625 17.546875 
Q 14.796875 9 14.203125 0 
L 23.703125 0 
Q 24.203125 8.296875 26.5 17.09375 
Q 28.796875 25.90625 32.4375 34.203125 
Q 36.09375 42.5 40.796875 49.796875 
Q 45.5 57.09375 50.90625 62.40625 
z
" id="HelveticaNeue-55"/>
       </defs>
       <use xlink:href="#HelveticaNeue-48"/>
       <use x="55.599991" xlink:href="#HelveticaNeue-51"/>
       <use x="111.199982" xlink:href="#HelveticaNeue-45"/>
       <use x="150.099976" xlink:href="#HelveticaNeue-48"/>
       <use x="205.699966" xlink:href="#HelveticaNeue-55"/>
      </g>
     </g>
    </g>
    <g id="xtick_4">
     <g id="line2d_7">
      <path clip-path="url(#pb679554184)" d="M 147.928422 440.5555 
L 147.928422 31.5955 
" style="fill:none;stroke:#cbcbcb;"/>
     </g>
     <g id="line2d_8"/>
     <g id="text_4">
      <!-- 03-21 -->
      <g style="fill:#555555;" transform="translate(114.870535 471.002735)rotate(-30)scale(0.14 -0.14)">
       <defs>
        <path d="M 35.59375 0 
L 35.59375 70.90625 
L 29.09375 70.90625 
Q 28.40625 66.90625 26.5 64.296875 
Q 24.59375 61.703125 21.84375 60.203125 
Q 19.09375 58.703125 15.6875 58.140625 
Q 12.296875 57.59375 8.703125 57.59375 
L 8.703125 50.796875 
L 27.09375 50.796875 
L 27.09375 0 
z
" id="HelveticaNeue-49"/>
       </defs>
       <use xlink:href="#HelveticaNeue-48"/>
       <use x="55.599991" xlink:href="#HelveticaNeue-51"/>
       <use x="111.199982" xlink:href="#HelveticaNeue-45"/>
       <use x="150.099976" xlink:href="#HelveticaNeue-50"/>
       <use x="205.699966" xlink:href="#HelveticaNeue-49"/>
      </g>
     </g>
    </g>
    <g id="xtick_5">
     <g id="line2d_9">
      <path clip-path="url(#pb679554184)" d="M 163.778051 440.5555 
L 163.778051 31.5955 
" style="fill:none;stroke:#cbcbcb;"/>
     </g>
     <g id="line2d_10"/>
     <g id="text_5">
      <!-- 04-04 -->
      <g style="fill:#555555;" transform="translate(130.720164 471.002735)rotate(-30)scale(0.14 -0.14)">
       <defs>
        <path d="M 33.90625 24.09375 
L 10.09375 24.09375 
L 33.703125 58.796875 
L 33.90625 58.796875 
z
M 41.90625 24.09375 
L 41.90625 70.90625 
L 35.09375 70.90625 
L 2.796875 24.796875 
L 2.796875 16.59375 
L 33.90625 16.59375 
L 33.90625 0 
L 41.90625 0 
L 41.90625 16.59375 
L 51.5 16.59375 
L 51.5 24.09375 
z
" id="HelveticaNeue-52"/>
       </defs>
       <use xlink:href="#HelveticaNeue-48"/>
       <use x="55.599991" xlink:href="#HelveticaNeue-52"/>
       <use x="111.199982" xlink:href="#HelveticaNeue-45"/>
       <use x="150.099976" xlink:href="#HelveticaNeue-48"/>
       <use x="205.699966" xlink:href="#HelveticaNeue-52"/>
      </g>
     </g>
    </g>
    <g id="xtick_6">
     <g id="line2d_11">
      <path clip-path="url(#pb679554184)" d="M 179.627681 440.5555 
L 179.627681 31.5955 
" style="fill:none;stroke:#cbcbcb;"/>
     </g>
     <g id="line2d_12"/>
     <g id="text_6">
      <!-- 04-18 -->
      <g style="fill:#555555;" transform="translate(146.569794 471.002735)rotate(-30)scale(0.14 -0.14)">
       <use xlink:href="#HelveticaNeue-48"/>
       <use x="55.599991" xlink:href="#HelveticaNeue-52"/>
       <use x="111.199982" xlink:href="#HelveticaNeue-45"/>
       <use x="150.099976" xlink:href="#HelveticaNeue-49"/>
       <use x="205.699966" xlink:href="#HelveticaNeue-56"/>
      </g>
     </g>
    </g>
    <g id="xtick_7">
     <g id="line2d_13">
      <path clip-path="url(#pb679554184)" d="M 195.47731 440.5555 
L 195.47731 31.5955 
" style="fill:none;stroke:#cbcbcb;"/>
     </g>
     <g id="line2d_14"/>
     <g id="text_7">
      <!-- 05-02 -->
      <g style="fill:#555555;" transform="translate(162.419423 471.002735)rotate(-30)scale(0.14 -0.14)">
       <defs>
        <path d="M 47 62.203125 
L 47 69.703125 
L 12 69.703125 
L 5.40625 32.90625 
L 12.703125 32.5 
Q 15.203125 35.5 18.453125 37.34375 
Q 21.703125 39.203125 25.90625 39.203125 
Q 29.5 39.203125 32.453125 38 
Q 35.40625 36.796875 37.5 34.640625 
Q 39.59375 32.5 40.75 29.546875 
Q 41.90625 26.59375 41.90625 23.09375 
Q 41.90625 18.90625 40.703125 15.75 
Q 39.5 12.59375 37.453125 10.5 
Q 35.40625 8.40625 32.65625 7.34375 
Q 29.90625 6.296875 26.90625 6.296875 
Q 23.703125 6.296875 21.046875 7.25 
Q 18.40625 8.203125 16.453125 9.953125 
Q 14.5 11.703125 13.34375 14.046875 
Q 12.203125 16.40625 12 19.09375 
L 3.5 19.09375 
Q 3.59375 14.296875 5.390625 10.5 
Q 7.203125 6.703125 10.296875 4.140625 
Q 13.40625 1.59375 17.453125 0.25 
Q 21.5 -1.09375 26.09375 -1.09375 
Q 32.296875 -1.09375 36.9375 0.84375 
Q 41.59375 2.796875 44.6875 6.09375 
Q 47.796875 9.40625 49.34375 13.65625 
Q 50.90625 17.90625 50.90625 22.40625 
Q 50.90625 28.5 49.09375 33.046875 
Q 47.296875 37.59375 44.1875 40.640625 
Q 41.09375 43.703125 36.890625 45.203125 
Q 32.703125 46.703125 28 46.703125 
Q 24.40625 46.703125 20.75 45.453125 
Q 17.09375 44.203125 14.796875 41.59375 
L 14.59375 41.796875 
L 18.40625 62.203125 
z
" id="HelveticaNeue-53"/>
       </defs>
       <use xlink:href="#HelveticaNeue-48"/>
       <use x="55.599991" xlink:href="#HelveticaNeue-53"/>
       <use x="111.199982" xlink:href="#HelveticaNeue-45"/>
       <use x="150.099976" xlink:href="#HelveticaNeue-48"/>
       <use x="205.699966" xlink:href="#HelveticaNeue-50"/>
      </g>
     </g>
    </g>
    <g id="xtick_8">
     <g id="line2d_15">
      <path clip-path="url(#pb679554184)" d="M 211.326939 440.5555 
L 211.326939 31.5955 
" style="fill:none;stroke:#cbcbcb;"/>
     </g>
     <g id="line2d_16"/>
     <g id="text_8">
      <!-- 05-16 -->
      <g style="fill:#555555;" transform="translate(178.269053 471.002735)rotate(-30)scale(0.14 -0.14)">
       <defs>
        <path d="M 41.40625 52.796875 
L 49.90625 52.796875 
Q 49.09375 61.59375 43.890625 66.25 
Q 38.703125 70.90625 29.90625 70.90625 
Q 22.296875 70.90625 17.296875 67.703125 
Q 12.296875 64.5 9.296875 59.203125 
Q 6.296875 53.90625 5.046875 47.046875 
Q 3.796875 40.203125 3.796875 32.90625 
Q 3.796875 27.296875 4.640625 21.296875 
Q 5.5 15.296875 8.09375 10.296875 
Q 10.703125 5.296875 15.5 2.09375 
Q 20.296875 -1.09375 28.203125 -1.09375 
Q 34.90625 -1.09375 39.453125 1.15625 
Q 44 3.40625 46.75 6.84375 
Q 49.5 10.296875 50.703125 14.5 
Q 51.90625 18.703125 51.90625 22.59375 
Q 51.90625 27.5 50.40625 31.703125 
Q 48.90625 35.90625 46.15625 39 
Q 43.40625 42.09375 39.34375 43.84375 
Q 35.296875 45.59375 30.203125 45.59375 
Q 24.40625 45.59375 19.953125 43.390625 
Q 15.5 41.203125 12.5 36.296875 
L 12.296875 36.5 
Q 12.40625 40.59375 13.09375 45.296875 
Q 13.796875 50 15.640625 54.046875 
Q 17.5 58.09375 20.796875 60.75 
Q 24.09375 63.40625 29.5 63.40625 
Q 34.59375 63.40625 37.6875 60.5 
Q 40.796875 57.59375 41.40625 52.796875 
z
M 28.59375 38.09375 
Q 32.203125 38.09375 34.890625 36.796875 
Q 37.59375 35.5 39.390625 33.34375 
Q 41.203125 31.203125 42.046875 28.25 
Q 42.90625 25.296875 42.90625 22 
Q 42.90625 18.90625 41.953125 16.046875 
Q 41 13.203125 39.203125 11 
Q 37.40625 8.796875 34.75 7.546875 
Q 32.09375 6.296875 28.59375 6.296875 
Q 25.09375 6.296875 22.34375 7.546875 
Q 19.59375 8.796875 17.75 10.890625 
Q 15.90625 13 14.90625 15.890625 
Q 13.90625 18.796875 13.90625 22.09375 
Q 13.90625 25.40625 14.84375 28.34375 
Q 15.796875 31.296875 17.6875 33.4375 
Q 19.59375 35.59375 22.296875 36.84375 
Q 25 38.09375 28.59375 38.09375 
z
" id="HelveticaNeue-54"/>
       </defs>
       <use xlink:href="#HelveticaNeue-48"/>
       <use x="55.599991" xlink:href="#HelveticaNeue-53"/>
       <use x="111.199982" xlink:href="#HelveticaNeue-45"/>
       <use x="150.099976" xlink:href="#HelveticaNeue-49"/>
       <use x="205.699966" xlink:href="#HelveticaNeue-54"/>
      </g>
     </g>
    </g>
    <g id="xtick_9">
     <g id="line2d_17">
      <path clip-path="url(#pb679554184)" d="M 227.176569 440.5555 
L 227.176569 31.5955 
" style="fill:none;stroke:#cbcbcb;"/>
     </g>
     <g id="line2d_18"/>
     <g id="text_9">
      <!-- 05-30 -->
      <g style="fill:#555555;" transform="translate(194.118682 471.002735)rotate(-30)scale(0.14 -0.14)">
       <use xlink:href="#HelveticaNeue-48"/>
       <use x="55.599991" xlink:href="#HelveticaNeue-53"/>
       <use x="111.199982" xlink:href="#HelveticaNeue-45"/>
       <use x="150.099976" xlink:href="#HelveticaNeue-51"/>
       <use x="205.699966" xlink:href="#HelveticaNeue-48"/>
      </g>
     </g>
    </g>
    <g id="xtick_10">
     <g id="line2d_19">
      <path clip-path="url(#pb679554184)" d="M 243.026198 440.5555 
L 243.026198 31.5955 
" style="fill:none;stroke:#cbcbcb;"/>
     </g>
     <g id="line2d_20"/>
     <g id="text_10">
      <!-- 06-13 -->
      <g style="fill:#555555;" transform="translate(209.968312 471.002735)rotate(-30)scale(0.14 -0.14)">
       <use xlink:href="#HelveticaNeue-48"/>
       <use x="55.599991" xlink:href="#HelveticaNeue-54"/>
       <use x="111.199982" xlink:href="#HelveticaNeue-45"/>
       <use x="150.099976" xlink:href="#HelveticaNeue-49"/>
       <use x="205.699966" xlink:href="#HelveticaNeue-51"/>
      </g>
     </g>
    </g>
    <g id="xtick_11">
     <g id="line2d_21">
      <path clip-path="url(#pb679554184)" d="M 258.875828 440.5555 
L 258.875828 31.5955 
" style="fill:none;stroke:#cbcbcb;"/>
     </g>
     <g id="line2d_22"/>
     <g id="text_11">
      <!-- 06-27 -->
      <g style="fill:#555555;" transform="translate(225.817941 471.002735)rotate(-30)scale(0.14 -0.14)">
       <use xlink:href="#HelveticaNeue-48"/>
       <use x="55.599991" xlink:href="#HelveticaNeue-54"/>
       <use x="111.199982" xlink:href="#HelveticaNeue-45"/>
       <use x="150.099976" xlink:href="#HelveticaNeue-50"/>
       <use x="205.699966" xlink:href="#HelveticaNeue-55"/>
      </g>
     </g>
    </g>
    <g id="xtick_12">
     <g id="line2d_23">
      <path clip-path="url(#pb679554184)" d="M 274.725457 440.5555 
L 274.725457 31.5955 
" style="fill:none;stroke:#cbcbcb;"/>
     </g>
     <g id="line2d_24"/>
     <g id="text_12">
      <!-- 07-11 -->
      <g style="fill:#555555;" transform="translate(241.667571 471.002735)rotate(-30)scale(0.14 -0.14)">
       <use xlink:href="#HelveticaNeue-48"/>
       <use x="55.599991" xlink:href="#HelveticaNeue-55"/>
       <use x="111.199982" xlink:href="#HelveticaNeue-45"/>
       <use x="150.099976" xlink:href="#HelveticaNeue-49"/>
       <use x="205.699966" xlink:href="#HelveticaNeue-49"/>
      </g>
     </g>
    </g>
    <g id="xtick_13">
     <g id="line2d_25">
      <path clip-path="url(#pb679554184)" d="M 290.575087 440.5555 
L 290.575087 31.5955 
" style="fill:none;stroke:#cbcbcb;"/>
     </g>
     <g id="line2d_26"/>
     <g id="text_13">
      <!-- 07-25 -->
      <g style="fill:#555555;" transform="translate(257.5172 471.002735)rotate(-30)scale(0.14 -0.14)">
       <use xlink:href="#HelveticaNeue-48"/>
       <use x="55.599991" xlink:href="#HelveticaNeue-55"/>
       <use x="111.199982" xlink:href="#HelveticaNeue-45"/>
       <use x="150.099976" xlink:href="#HelveticaNeue-50"/>
       <use x="205.699966" xlink:href="#HelveticaNeue-53"/>
      </g>
     </g>
    </g>
    <g id="xtick_14">
     <g id="line2d_27">
      <path clip-path="url(#pb679554184)" d="M 306.424716 440.5555 
L 306.424716 31.5955 
" style="fill:none;stroke:#cbcbcb;"/>
     </g>
     <g id="line2d_28"/>
     <g id="text_14">
      <!-- 08-08 -->
      <g style="fill:#555555;" transform="translate(273.36683 471.002735)rotate(-30)scale(0.14 -0.14)">
       <use xlink:href="#HelveticaNeue-48"/>
       <use x="55.599991" xlink:href="#HelveticaNeue-56"/>
       <use x="111.199982" xlink:href="#HelveticaNeue-45"/>
       <use x="150.099976" xlink:href="#HelveticaNeue-48"/>
       <use x="205.699966" xlink:href="#HelveticaNeue-56"/>
      </g>
     </g>
    </g>
    <g id="xtick_15">
     <g id="line2d_29">
      <path clip-path="url(#pb679554184)" d="M 322.274346 440.5555 
L 322.274346 31.5955 
" style="fill:none;stroke:#cbcbcb;"/>
     </g>
     <g id="line2d_30"/>
     <g id="text_15">
      <!-- 08-22 -->
      <g style="fill:#555555;" transform="translate(289.216459 471.002735)rotate(-30)scale(0.14 -0.14)">
       <use xlink:href="#HelveticaNeue-48"/>
       <use x="55.599991" xlink:href="#HelveticaNeue-56"/>
       <use x="111.199982" xlink:href="#HelveticaNeue-45"/>
       <use x="150.099976" xlink:href="#HelveticaNeue-50"/>
       <use x="205.699966" xlink:href="#HelveticaNeue-50"/>
      </g>
     </g>
    </g>
    <g id="xtick_16">
     <g id="line2d_31">
      <path clip-path="url(#pb679554184)" d="M 338.123975 440.5555 
L 338.123975 31.5955 
" style="fill:none;stroke:#cbcbcb;"/>
     </g>
     <g id="line2d_32"/>
     <g id="text_16">
      <!-- 09-05 -->
      <g style="fill:#555555;" transform="translate(305.066089 471.002735)rotate(-30)scale(0.14 -0.14)">
       <defs>
        <path d="M 13.40625 17.09375 
L 4.90625 17.09375 
Q 5.703125 7.90625 11.59375 3.40625 
Q 17.5 -1.09375 26.40625 -1.09375 
Q 39.296875 -1.09375 45.140625 8.75 
Q 51 18.59375 51 37 
Q 51 47.09375 49.046875 53.640625 
Q 47.09375 60.203125 43.796875 64 
Q 40.5 67.796875 36.09375 69.34375 
Q 31.703125 70.90625 26.703125 70.90625 
Q 21.59375 70.90625 17.296875 69.203125 
Q 13 67.5 9.890625 64.453125 
Q 6.796875 61.40625 5.09375 57.15625 
Q 3.40625 52.90625 3.40625 47.796875 
Q 3.40625 42.59375 4.84375 38.1875 
Q 6.296875 33.796875 9.140625 30.6875 
Q 12 27.59375 16.203125 25.84375 
Q 20.40625 24.09375 25.796875 24.09375 
Q 31 24.09375 35.390625 26.75 
Q 39.796875 29.40625 42.203125 33.90625 
L 42.40625 33.703125 
Q 42 19.796875 38.09375 13.046875 
Q 34.203125 6.296875 26.40625 6.296875 
Q 21.296875 6.296875 17.59375 9.09375 
Q 13.90625 11.90625 13.40625 17.09375 
z
M 40.90625 47.203125 
Q 40.90625 44.09375 39.90625 41.25 
Q 38.90625 38.40625 37 36.25 
Q 35.09375 34.09375 32.390625 32.84375 
Q 29.703125 31.59375 26.40625 31.59375 
Q 23.296875 31.59375 20.75 32.84375 
Q 18.203125 34.09375 16.34375 36.1875 
Q 14.5 38.296875 13.453125 41 
Q 12.40625 43.703125 12.40625 46.59375 
Q 12.40625 49.90625 13.15625 52.90625 
Q 13.90625 55.90625 15.546875 58.25 
Q 17.203125 60.59375 19.84375 62 
Q 22.5 63.40625 26.296875 63.40625 
Q 29.90625 63.40625 32.59375 62.09375 
Q 35.296875 60.796875 37.140625 58.546875 
Q 39 56.296875 39.953125 53.390625 
Q 40.90625 50.5 40.90625 47.203125 
z
" id="HelveticaNeue-57"/>
       </defs>
       <use xlink:href="#HelveticaNeue-48"/>
       <use x="55.599991" xlink:href="#HelveticaNeue-57"/>
       <use x="111.199982" xlink:href="#HelveticaNeue-45"/>
       <use x="150.099976" xlink:href="#HelveticaNeue-48"/>
       <use x="205.699966" xlink:href="#HelveticaNeue-53"/>
      </g>
     </g>
    </g>
    <g id="xtick_17">
     <g id="line2d_33">
      <path clip-path="url(#pb679554184)" d="M 353.973605 440.5555 
L 353.973605 31.5955 
" style="fill:none;stroke:#cbcbcb;"/>
     </g>
     <g id="line2d_34"/>
     <g id="text_17">
      <!-- 09-19 -->
      <g style="fill:#555555;" transform="translate(320.915718 471.002735)rotate(-30)scale(0.14 -0.14)">
       <use xlink:href="#HelveticaNeue-48"/>
       <use x="55.599991" xlink:href="#HelveticaNeue-57"/>
       <use x="111.199982" xlink:href="#HelveticaNeue-45"/>
       <use x="150.099976" xlink:href="#HelveticaNeue-49"/>
       <use x="205.699966" xlink:href="#HelveticaNeue-57"/>
      </g>
     </g>
    </g>
    <g id="xtick_18">
     <g id="line2d_35">
      <path clip-path="url(#pb679554184)" d="M 369.823234 440.5555 
L 369.823234 31.5955 
" style="fill:none;stroke:#cbcbcb;"/>
     </g>
     <g id="line2d_36"/>
     <g id="text_18">
      <!-- 10-03 -->
      <g style="fill:#555555;" transform="translate(336.765348 471.002735)rotate(-30)scale(0.14 -0.14)">
       <use xlink:href="#HelveticaNeue-49"/>
       <use x="55.599991" xlink:href="#HelveticaNeue-48"/>
       <use x="111.199982" xlink:href="#HelveticaNeue-45"/>
       <use x="150.099976" xlink:href="#HelveticaNeue-48"/>
       <use x="205.699966" xlink:href="#HelveticaNeue-51"/>
      </g>
     </g>
    </g>
    <g id="xtick_19">
     <g id="line2d_37">
      <path clip-path="url(#pb679554184)" d="M 385.672864 440.5555 
L 385.672864 31.5955 
" style="fill:none;stroke:#cbcbcb;"/>
     </g>
     <g id="line2d_38"/>
     <g id="text_19">
      <!-- 10-17 -->
      <g style="fill:#555555;" transform="translate(352.614977 471.002735)rotate(-30)scale(0.14 -0.14)">
       <use xlink:href="#HelveticaNeue-49"/>
       <use x="55.599991" xlink:href="#HelveticaNeue-48"/>
       <use x="111.199982" xlink:href="#HelveticaNeue-45"/>
       <use x="150.099976" xlink:href="#HelveticaNeue-49"/>
       <use x="205.699966" xlink:href="#HelveticaNeue-55"/>
      </g>
     </g>
    </g>
    <g id="xtick_20">
     <g id="line2d_39">
      <path clip-path="url(#pb679554184)" d="M 401.522493 440.5555 
L 401.522493 31.5955 
" style="fill:none;stroke:#cbcbcb;"/>
     </g>
     <g id="line2d_40"/>
     <g id="text_20">
      <!-- 10-31 -->
      <g style="fill:#555555;" transform="translate(368.464607 471.002735)rotate(-30)scale(0.14 -0.14)">
       <use xlink:href="#HelveticaNeue-49"/>
       <use x="55.599991" xlink:href="#HelveticaNeue-48"/>
       <use x="111.199982" xlink:href="#HelveticaNeue-45"/>
       <use x="150.099976" xlink:href="#HelveticaNeue-51"/>
       <use x="205.699966" xlink:href="#HelveticaNeue-49"/>
      </g>
     </g>
    </g>
    <g id="xtick_21">
     <g id="line2d_41">
      <path clip-path="url(#pb679554184)" d="M 417.372123 440.5555 
L 417.372123 31.5955 
" style="fill:none;stroke:#cbcbcb;"/>
     </g>
     <g id="line2d_42"/>
     <g id="text_21">
      <!-- 11-14 -->
      <g style="fill:#555555;" transform="translate(384.314236 471.002735)rotate(-30)scale(0.14 -0.14)">
       <use xlink:href="#HelveticaNeue-49"/>
       <use x="55.599991" xlink:href="#HelveticaNeue-49"/>
       <use x="111.199982" xlink:href="#HelveticaNeue-45"/>
       <use x="150.099976" xlink:href="#HelveticaNeue-49"/>
       <use x="205.699966" xlink:href="#HelveticaNeue-52"/>
      </g>
     </g>
    </g>
    <g id="xtick_22">
     <g id="line2d_43">
      <path clip-path="url(#pb679554184)" d="M 433.221752 440.5555 
L 433.221752 31.5955 
" style="fill:none;stroke:#cbcbcb;"/>
     </g>
     <g id="line2d_44"/>
     <g id="text_22">
      <!-- 11-28 -->
      <g style="fill:#555555;" transform="translate(400.163866 471.002735)rotate(-30)scale(0.14 -0.14)">
       <use xlink:href="#HelveticaNeue-49"/>
       <use x="55.599991" xlink:href="#HelveticaNeue-49"/>
       <use x="111.199982" xlink:href="#HelveticaNeue-45"/>
       <use x="150.099976" xlink:href="#HelveticaNeue-50"/>
       <use x="205.699966" xlink:href="#HelveticaNeue-56"/>
      </g>
     </g>
    </g>
    <g id="xtick_23">
     <g id="line2d_45">
      <path clip-path="url(#pb679554184)" d="M 449.071382 440.5555 
L 449.071382 31.5955 
" style="fill:none;stroke:#cbcbcb;"/>
     </g>
     <g id="line2d_46"/>
     <g id="text_23">
      <!-- 12-12 -->
      <g style="fill:#555555;" transform="translate(416.013495 471.002735)rotate(-30)scale(0.14 -0.14)">
       <use xlink:href="#HelveticaNeue-49"/>
       <use x="55.599991" xlink:href="#HelveticaNeue-50"/>
       <use x="111.199982" xlink:href="#HelveticaNeue-45"/>
       <use x="150.099976" xlink:href="#HelveticaNeue-49"/>
       <use x="205.699966" xlink:href="#HelveticaNeue-50"/>
      </g>
     </g>
    </g>
    <g id="xtick_24">
     <g id="line2d_47">
      <path clip-path="url(#pb679554184)" d="M 464.921011 440.5555 
L 464.921011 31.5955 
" style="fill:none;stroke:#cbcbcb;"/>
     </g>
     <g id="line2d_48"/>
     <g id="text_24">
      <!-- 12-26 -->
      <g style="fill:#555555;" transform="translate(431.863125 471.002735)rotate(-30)scale(0.14 -0.14)">
       <use xlink:href="#HelveticaNeue-49"/>
       <use x="55.599991" xlink:href="#HelveticaNeue-50"/>
       <use x="111.199982" xlink:href="#HelveticaNeue-45"/>
       <use x="150.099976" xlink:href="#HelveticaNeue-50"/>
       <use x="205.699966" xlink:href="#HelveticaNeue-54"/>
      </g>
     </g>
    </g>
    <g id="xtick_25">
     <g id="line2d_49">
      <path clip-path="url(#pb679554184)" d="M 480.770641 440.5555 
L 480.770641 31.5955 
" style="fill:none;stroke:#cbcbcb;"/>
     </g>
     <g id="line2d_50"/>
     <g id="text_25">
      <!-- 01-09 -->
      <g style="fill:#555555;" transform="translate(447.712754 471.002735)rotate(-30)scale(0.14 -0.14)">
       <use xlink:href="#HelveticaNeue-48"/>
       <use x="55.599991" xlink:href="#HelveticaNeue-49"/>
       <use x="111.199982" xlink:href="#HelveticaNeue-45"/>
       <use x="150.099976" xlink:href="#HelveticaNeue-48"/>
       <use x="205.699966" xlink:href="#HelveticaNeue-57"/>
      </g>
     </g>
    </g>
    <g id="xtick_26">
     <g id="line2d_51">
      <path clip-path="url(#pb679554184)" d="M 496.62027 440.5555 
L 496.62027 31.5955 
" style="fill:none;stroke:#cbcbcb;"/>
     </g>
     <g id="line2d_52"/>
     <g id="text_26">
      <!-- 01-23 -->
      <g style="fill:#555555;" transform="translate(463.562384 471.002735)rotate(-30)scale(0.14 -0.14)">
       <use xlink:href="#HelveticaNeue-48"/>
       <use x="55.599991" xlink:href="#HelveticaNeue-49"/>
       <use x="111.199982" xlink:href="#HelveticaNeue-45"/>
       <use x="150.099976" xlink:href="#HelveticaNeue-50"/>
       <use x="205.699966" xlink:href="#HelveticaNeue-51"/>
      </g>
     </g>
    </g>
    <g id="xtick_27">
     <g id="line2d_53">
      <path clip-path="url(#pb679554184)" d="M 512.4699 440.5555 
L 512.4699 31.5955 
" style="fill:none;stroke:#cbcbcb;"/>
     </g>
     <g id="line2d_54"/>
     <g id="text_27">
      <!-- 02-06 -->
      <g style="fill:#555555;" transform="translate(479.412013 471.002735)rotate(-30)scale(0.14 -0.14)">
       <use xlink:href="#HelveticaNeue-48"/>
       <use x="55.599991" xlink:href="#HelveticaNeue-50"/>
       <use x="111.199982" xlink:href="#HelveticaNeue-45"/>
       <use x="150.099976" xlink:href="#HelveticaNeue-48"/>
       <use x="205.699966" xlink:href="#HelveticaNeue-54"/>
      </g>
     </g>
    </g>
    <g id="xtick_28">
     <g id="line2d_55">
      <path clip-path="url(#pb679554184)" d="M 528.319529 440.5555 
L 528.319529 31.5955 
" style="fill:none;stroke:#cbcbcb;"/>
     </g>
     <g id="line2d_56"/>
     <g id="text_28">
      <!-- 02-20 -->
      <g style="fill:#555555;" transform="translate(495.261643 471.002735)rotate(-30)scale(0.14 -0.14)">
       <use xlink:href="#HelveticaNeue-48"/>
       <use x="55.599991" xlink:href="#HelveticaNeue-50"/>
       <use x="111.199982" xlink:href="#HelveticaNeue-45"/>
       <use x="150.099976" xlink:href="#HelveticaNeue-50"/>
       <use x="205.699966" xlink:href="#HelveticaNeue-48"/>
      </g>
     </g>
    </g>
    <g id="xtick_29">
     <g id="line2d_57">
      <path clip-path="url(#pb679554184)" d="M 544.169159 440.5555 
L 544.169159 31.5955 
" style="fill:none;stroke:#cbcbcb;"/>
     </g>
     <g id="line2d_58"/>
     <g id="text_29">
      <!-- 03-06 -->
      <g style="fill:#555555;" transform="translate(511.111272 471.002735)rotate(-30)scale(0.14 -0.14)">
       <use xlink:href="#HelveticaNeue-48"/>
       <use x="55.599991" xlink:href="#HelveticaNeue-51"/>
       <use x="111.199982" xlink:href="#HelveticaNeue-45"/>
       <use x="150.099976" xlink:href="#HelveticaNeue-48"/>
       <use x="205.699966" xlink:href="#HelveticaNeue-54"/>
      </g>
     </g>
    </g>
    <g id="xtick_30">
     <g id="line2d_59">
      <path clip-path="url(#pb679554184)" d="M 560.018788 440.5555 
L 560.018788 31.5955 
" style="fill:none;stroke:#cbcbcb;"/>
     </g>
     <g id="line2d_60"/>
     <g id="text_30">
      <!-- 03-20 -->
      <g style="fill:#555555;" transform="translate(526.960902 471.002735)rotate(-30)scale(0.14 -0.14)">
       <use xlink:href="#HelveticaNeue-48"/>
       <use x="55.599991" xlink:href="#HelveticaNeue-51"/>
       <use x="111.199982" xlink:href="#HelveticaNeue-45"/>
       <use x="150.099976" xlink:href="#HelveticaNeue-50"/>
       <use x="205.699966" xlink:href="#HelveticaNeue-48"/>
      </g>
     </g>
    </g>
    <g id="xtick_31">
     <g id="line2d_61">
      <path clip-path="url(#pb679554184)" d="M 575.868418 440.5555 
L 575.868418 31.5955 
" style="fill:none;stroke:#cbcbcb;"/>
     </g>
     <g id="line2d_62"/>
     <g id="text_31">
      <!-- 04-03 -->
      <g style="fill:#555555;" transform="translate(542.810531 471.002735)rotate(-30)scale(0.14 -0.14)">
       <use xlink:href="#HelveticaNeue-48"/>
       <use x="55.599991" xlink:href="#HelveticaNeue-52"/>
       <use x="111.199982" xlink:href="#HelveticaNeue-45"/>
       <use x="150.099976" xlink:href="#HelveticaNeue-48"/>
       <use x="205.699966" xlink:href="#HelveticaNeue-51"/>
      </g>
     </g>
    </g>
    <g id="xtick_32">
     <g id="line2d_63">
      <path clip-path="url(#pb679554184)" d="M 591.718047 440.5555 
L 591.718047 31.5955 
" style="fill:none;stroke:#cbcbcb;"/>
     </g>
     <g id="line2d_64"/>
     <g id="text_32">
      <!-- 04-17 -->
      <g style="fill:#555555;" transform="translate(558.660161 471.002735)rotate(-30)scale(0.14 -0.14)">
       <use xlink:href="#HelveticaNeue-48"/>
       <use x="55.599991" xlink:href="#HelveticaNeue-52"/>
       <use x="111.199982" xlink:href="#HelveticaNeue-45"/>
       <use x="150.099976" xlink:href="#HelveticaNeue-49"/>
       <use x="205.699966" xlink:href="#HelveticaNeue-55"/>
      </g>
     </g>
    </g>
    <g id="xtick_33">
     <g id="line2d_65">
      <path clip-path="url(#pb679554184)" d="M 607.567677 440.5555 
L 607.567677 31.5955 
" style="fill:none;stroke:#cbcbcb;"/>
     </g>
     <g id="line2d_66"/>
     <g id="text_33">
      <!-- 05-01 -->
      <g style="fill:#555555;" transform="translate(574.50979 471.002735)rotate(-30)scale(0.14 -0.14)">
       <use xlink:href="#HelveticaNeue-48"/>
       <use x="55.599991" xlink:href="#HelveticaNeue-53"/>
       <use x="111.199982" xlink:href="#HelveticaNeue-45"/>
       <use x="150.099976" xlink:href="#HelveticaNeue-48"/>
       <use x="205.699966" xlink:href="#HelveticaNeue-49"/>
      </g>
     </g>
    </g>
    <g id="xtick_34">
     <g id="line2d_67">
      <path clip-path="url(#pb679554184)" d="M 623.417306 440.5555 
L 623.417306 31.5955 
" style="fill:none;stroke:#cbcbcb;"/>
     </g>
     <g id="line2d_68"/>
     <g id="text_34">
      <!-- 05-15 -->
      <g style="fill:#555555;" transform="translate(590.35942 471.002735)rotate(-30)scale(0.14 -0.14)">
       <use xlink:href="#HelveticaNeue-48"/>
       <use x="55.599991" xlink:href="#HelveticaNeue-53"/>
       <use x="111.199982" xlink:href="#HelveticaNeue-45"/>
       <use x="150.099976" xlink:href="#HelveticaNeue-49"/>
       <use x="205.699966" xlink:href="#HelveticaNeue-53"/>
      </g>
     </g>
    </g>
    <g id="xtick_35">
     <g id="line2d_69">
      <path clip-path="url(#pb679554184)" d="M 639.266936 440.5555 
L 639.266936 31.5955 
" style="fill:none;stroke:#cbcbcb;"/>
     </g>
     <g id="line2d_70"/>
     <g id="text_35">
      <!-- 05-29 -->
      <g style="fill:#555555;" transform="translate(606.209049 471.002735)rotate(-30)scale(0.14 -0.14)">
       <use xlink:href="#HelveticaNeue-48"/>
       <use x="55.599991" xlink:href="#HelveticaNeue-53"/>
       <use x="111.199982" xlink:href="#HelveticaNeue-45"/>
       <use x="150.099976" xlink:href="#HelveticaNeue-50"/>
       <use x="205.699966" xlink:href="#HelveticaNeue-57"/>
      </g>
     </g>
    </g>
    <g id="xtick_36">
     <g id="line2d_71">
      <path clip-path="url(#pb679554184)" d="M 655.116565 440.5555 
L 655.116565 31.5955 
" style="fill:none;stroke:#cbcbcb;"/>
     </g>
     <g id="line2d_72"/>
     <g id="text_36">
      <!-- 06-12 -->
      <g style="fill:#555555;" transform="translate(622.058679 471.002735)rotate(-30)scale(0.14 -0.14)">
       <use xlink:href="#HelveticaNeue-48"/>
       <use x="55.599991" xlink:href="#HelveticaNeue-54"/>
       <use x="111.199982" xlink:href="#HelveticaNeue-45"/>
       <use x="150.099976" xlink:href="#HelveticaNeue-49"/>
       <use x="205.699966" xlink:href="#HelveticaNeue-50"/>
      </g>
     </g>
    </g>
    <g id="xtick_37">
     <g id="line2d_73">
      <path clip-path="url(#pb679554184)" d="M 670.966195 440.5555 
L 670.966195 31.5955 
" style="fill:none;stroke:#cbcbcb;"/>
     </g>
     <g id="line2d_74"/>
     <g id="text_37">
      <!-- 06-26 -->
      <g style="fill:#555555;" transform="translate(637.908308 471.002735)rotate(-30)scale(0.14 -0.14)">
       <use xlink:href="#HelveticaNeue-48"/>
       <use x="55.599991" xlink:href="#HelveticaNeue-54"/>
       <use x="111.199982" xlink:href="#HelveticaNeue-45"/>
       <use x="150.099976" xlink:href="#HelveticaNeue-50"/>
       <use x="205.699966" xlink:href="#HelveticaNeue-54"/>
      </g>
     </g>
    </g>
    <g id="xtick_38">
     <g id="line2d_75">
      <path clip-path="url(#pb679554184)" d="M 686.815824 440.5555 
L 686.815824 31.5955 
" style="fill:none;stroke:#cbcbcb;"/>
     </g>
     <g id="line2d_76"/>
     <g id="text_38">
      <!-- 07-10 -->
      <g style="fill:#555555;" transform="translate(653.757938 471.002735)rotate(-30)scale(0.14 -0.14)">
       <use xlink:href="#HelveticaNeue-48"/>
       <use x="55.599991" xlink:href="#HelveticaNeue-55"/>
       <use x="111.199982" xlink:href="#HelveticaNeue-45"/>
       <use x="150.099976" xlink:href="#HelveticaNeue-49"/>
       <use x="205.699966" xlink:href="#HelveticaNeue-48"/>
      </g>
     </g>
    </g>
    <g id="xtick_39">
     <g id="line2d_77">
      <path clip-path="url(#pb679554184)" d="M 702.665454 440.5555 
L 702.665454 31.5955 
" style="fill:none;stroke:#cbcbcb;"/>
     </g>
     <g id="line2d_78"/>
     <g id="text_39">
      <!-- 07-24 -->
      <g style="fill:#555555;" transform="translate(669.607567 471.002735)rotate(-30)scale(0.14 -0.14)">
       <use xlink:href="#HelveticaNeue-48"/>
       <use x="55.599991" xlink:href="#HelveticaNeue-55"/>
       <use x="111.199982" xlink:href="#HelveticaNeue-45"/>
       <use x="150.099976" xlink:href="#HelveticaNeue-50"/>
       <use x="205.699966" xlink:href="#HelveticaNeue-52"/>
      </g>
     </g>
    </g>
    <g id="xtick_40">
     <g id="line2d_79">
      <path clip-path="url(#pb679554184)" d="M 718.515083 440.5555 
L 718.515083 31.5955 
" style="fill:none;stroke:#cbcbcb;"/>
     </g>
     <g id="line2d_80"/>
     <g id="text_40">
      <!-- 08-07 -->
      <g style="fill:#555555;" transform="translate(685.457197 471.002735)rotate(-30)scale(0.14 -0.14)">
       <use xlink:href="#HelveticaNeue-48"/>
       <use x="55.599991" xlink:href="#HelveticaNeue-56"/>
       <use x="111.199982" xlink:href="#HelveticaNeue-45"/>
       <use x="150.099976" xlink:href="#HelveticaNeue-48"/>
       <use x="205.699966" xlink:href="#HelveticaNeue-55"/>
      </g>
     </g>
    </g>
    <g id="text_41">
     <!-- Dates -->
     <g style="fill:#555555;" transform="translate(393.3225 485.960362)scale(0.12 -0.12)">
      <defs>
       <path d="M 17.296875 8 
L 17.296875 63.40625 
L 33.296875 63.40625 
Q 39.90625 63.40625 44.40625 61.546875 
Q 48.90625 59.703125 51.75 56.140625 
Q 54.59375 52.59375 55.84375 47.546875 
Q 57.09375 42.5 57.09375 36.09375 
Q 57.09375 29.5 55.75 24.84375 
Q 54.40625 20.203125 52.296875 17.09375 
Q 50.203125 14 47.546875 12.203125 
Q 44.90625 10.40625 42.203125 9.453125 
Q 39.5 8.5 37.09375 8.25 
Q 34.703125 8 33.09375 8 
z
M 7.796875 71.40625 
L 7.796875 0 
L 32.296875 0 
Q 41.203125 0 47.703125 2.5 
Q 54.203125 5 58.390625 9.75 
Q 62.59375 14.5 64.59375 21.453125 
Q 66.59375 28.40625 66.59375 37.40625 
Q 66.59375 54.59375 57.6875 63 
Q 48.796875 71.40625 32.296875 71.40625 
z
" id="HelveticaNeue-68"/>
       <path d="M 52.203125 0.203125 
Q 50 -1.09375 46.09375 -1.09375 
Q 42.796875 -1.09375 40.84375 0.75 
Q 38.90625 2.59375 38.90625 6.796875 
Q 35.40625 2.59375 30.75 0.75 
Q 26.09375 -1.09375 20.703125 -1.09375 
Q 17.203125 -1.09375 14.046875 -0.296875 
Q 10.90625 0.5 8.59375 2.203125 
Q 6.296875 3.90625 4.9375 6.65625 
Q 3.59375 9.40625 3.59375 13.296875 
Q 3.59375 17.703125 5.09375 20.5 
Q 6.59375 23.296875 9.046875 25.046875 
Q 11.5 26.796875 14.640625 27.6875 
Q 17.796875 28.59375 21.09375 29.203125 
Q 24.59375 29.90625 27.75 30.25 
Q 30.90625 30.59375 33.296875 31.25 
Q 35.703125 31.90625 37.09375 33.15625 
Q 38.5 34.40625 38.5 36.796875 
Q 38.5 39.59375 37.453125 41.296875 
Q 36.40625 43 34.75 43.890625 
Q 33.09375 44.796875 31.046875 45.09375 
Q 29 45.40625 27 45.40625 
Q 21.59375 45.40625 18 43.34375 
Q 14.40625 41.296875 14.09375 35.59375 
L 5.59375 35.59375 
Q 5.796875 40.40625 7.59375 43.703125 
Q 9.40625 47 12.40625 49.046875 
Q 15.40625 51.09375 19.25 52 
Q 23.09375 52.90625 27.5 52.90625 
Q 31 52.90625 34.453125 52.40625 
Q 37.90625 51.90625 40.703125 50.34375 
Q 43.5 48.796875 45.203125 46 
Q 46.90625 43.203125 46.90625 38.703125 
L 46.90625 12.09375 
Q 46.90625 9.09375 47.25 7.6875 
Q 47.59375 6.296875 49.59375 6.296875 
Q 50.703125 6.296875 52.203125 6.796875 
z
M 38.40625 26.703125 
Q 36.796875 25.5 34.1875 24.953125 
Q 31.59375 24.40625 28.75 24.046875 
Q 25.90625 23.703125 23 23.25 
Q 20.09375 22.796875 17.796875 21.796875 
Q 15.5 20.796875 14.046875 18.9375 
Q 12.59375 17.09375 12.59375 13.90625 
Q 12.59375 11.796875 13.4375 10.34375 
Q 14.296875 8.90625 15.640625 8 
Q 17 7.09375 18.796875 6.6875 
Q 20.59375 6.296875 22.59375 6.296875 
Q 26.796875 6.296875 29.796875 7.4375 
Q 32.796875 8.59375 34.6875 10.34375 
Q 36.59375 12.09375 37.5 14.140625 
Q 38.40625 16.203125 38.40625 18 
z
" id="HelveticaNeue-97"/>
       <path d="M 18.203125 51.703125 
L 18.203125 67.203125 
L 9.703125 67.203125 
L 9.703125 51.703125 
L 0.90625 51.703125 
L 0.90625 44.203125 
L 9.703125 44.203125 
L 9.703125 11.296875 
Q 9.703125 7.703125 10.390625 5.5 
Q 11.09375 3.296875 12.546875 2.09375 
Q 14 0.90625 16.34375 0.453125 
Q 18.703125 0 22 0 
L 28.5 0 
L 28.5 7.5 
L 24.59375 7.5 
Q 22.59375 7.5 21.34375 7.640625 
Q 20.09375 7.796875 19.390625 8.296875 
Q 18.703125 8.796875 18.453125 9.6875 
Q 18.203125 10.59375 18.203125 12.09375 
L 18.203125 44.203125 
L 28.5 44.203125 
L 28.5 51.703125 
z
" id="HelveticaNeue-116"/>
       <path d="M 42.296875 30.796875 
L 12.59375 30.796875 
Q 12.796875 33.796875 13.890625 36.4375 
Q 15 39.09375 16.890625 41.09375 
Q 18.796875 43.09375 21.4375 44.25 
Q 24.09375 45.40625 27.40625 45.40625 
Q 30.59375 45.40625 33.25 44.25 
Q 35.90625 43.09375 37.84375 41.140625 
Q 39.796875 39.203125 40.9375 36.5 
Q 42.09375 33.796875 42.296875 30.796875 
z
M 50.5 16.40625 
L 42.09375 16.40625 
Q 41 11.296875 37.546875 8.796875 
Q 34.09375 6.296875 28.703125 6.296875 
Q 24.5 6.296875 21.390625 7.6875 
Q 18.296875 9.09375 16.296875 11.4375 
Q 14.296875 13.796875 13.390625 16.84375 
Q 12.5 19.90625 12.59375 23.296875 
L 51.296875 23.296875 
Q 51.5 28 50.453125 33.203125 
Q 49.40625 38.40625 46.65625 42.796875 
Q 43.90625 47.203125 39.34375 50.046875 
Q 34.796875 52.90625 27.90625 52.90625 
Q 22.59375 52.90625 18.140625 50.90625 
Q 13.703125 48.90625 10.453125 45.296875 
Q 7.203125 41.703125 5.390625 36.796875 
Q 3.59375 31.90625 3.59375 26 
Q 3.796875 20.09375 5.34375 15.09375 
Q 6.90625 10.09375 10 6.5 
Q 13.09375 2.90625 17.640625 0.90625 
Q 22.203125 -1.09375 28.40625 -1.09375 
Q 37.203125 -1.09375 43 3.296875 
Q 48.796875 7.703125 50.5 16.40625 
z
" id="HelveticaNeue-101"/>
       <path d="M 11.59375 16.296875 
L 3.09375 16.296875 
Q 3.296875 11.5 5.09375 8.140625 
Q 6.90625 4.796875 9.90625 2.75 
Q 12.90625 0.703125 16.796875 -0.1875 
Q 20.703125 -1.09375 25 -1.09375 
Q 28.90625 -1.09375 32.84375 -0.34375 
Q 36.796875 0.40625 39.9375 2.296875 
Q 43.09375 4.203125 45.046875 7.296875 
Q 47 10.40625 47 15.09375 
Q 47 18.796875 45.546875 21.296875 
Q 44.09375 23.796875 41.75 25.4375 
Q 39.40625 27.09375 36.34375 28.09375 
Q 33.296875 29.09375 30.09375 29.796875 
Q 27.09375 30.5 24.09375 31.140625 
Q 21.09375 31.796875 18.6875 32.75 
Q 16.296875 33.703125 14.75 35.140625 
Q 13.203125 36.59375 13.203125 38.796875 
Q 13.203125 40.796875 14.203125 42.046875 
Q 15.203125 43.296875 16.796875 44.046875 
Q 18.40625 44.796875 20.34375 45.09375 
Q 22.296875 45.40625 24.203125 45.40625 
Q 26.296875 45.40625 28.34375 44.953125 
Q 30.40625 44.5 32.09375 43.5 
Q 33.796875 42.5 34.890625 40.84375 
Q 36 39.203125 36.203125 36.703125 
L 44.703125 36.703125 
Q 44.40625 41.40625 42.703125 44.546875 
Q 41 47.703125 38.140625 49.546875 
Q 35.296875 51.40625 31.59375 52.15625 
Q 27.90625 52.90625 23.5 52.90625 
Q 20.09375 52.90625 16.640625 52.046875 
Q 13.203125 51.203125 10.453125 49.453125 
Q 7.703125 47.703125 5.953125 44.890625 
Q 4.203125 42.09375 4.203125 38.203125 
Q 4.203125 33.203125 6.703125 30.390625 
Q 9.203125 27.59375 12.953125 26.046875 
Q 16.703125 24.5 21.09375 23.640625 
Q 25.5 22.796875 29.25 21.75 
Q 33 20.703125 35.5 19 
Q 38 17.296875 38 14 
Q 38 11.59375 36.796875 10.046875 
Q 35.59375 8.5 33.75 7.703125 
Q 31.90625 6.90625 29.703125 6.59375 
Q 27.5 6.296875 25.5 6.296875 
Q 22.90625 6.296875 20.453125 6.796875 
Q 18 7.296875 16.046875 8.4375 
Q 14.09375 9.59375 12.890625 11.546875 
Q 11.703125 13.5 11.59375 16.296875 
z
" id="HelveticaNeue-115"/>
      </defs>
      <use xlink:href="#HelveticaNeue-68"/>
      <use x="70.399994" xlink:href="#HelveticaNeue-97"/>
      <use x="124.099991" xlink:href="#HelveticaNeue-116"/>
      <use x="155.599976" xlink:href="#HelveticaNeue-101"/>
      <use x="209.299973" xlink:href="#HelveticaNeue-115"/>
     </g>
    </g>
   </g>
   <g id="matplotlib.axis_2">
    <g id="ytick_1">
     <g id="line2d_81">
      <path clip-path="url(#pb679554184)" d="M 95.68125 422.727049 
L 722.08125 422.727049 
" style="fill:none;stroke:#cbcbcb;"/>
     </g>
     <g id="line2d_82"/>
     <g id="text_42">
      <!-- 1 -->
      <g style="fill:#555555;" transform="translate(84.398125 427.725486)scale(0.14 -0.14)">
       <use xlink:href="#HelveticaNeue-49"/>
      </g>
     </g>
    </g>
    <g id="ytick_2">
     <g id="line2d_83">
      <path clip-path="url(#pb679554184)" d="M 95.68125 366.851113 
L 722.08125 366.851113 
" style="fill:none;stroke:#cbcbcb;"/>
     </g>
     <g id="line2d_84"/>
     <g id="text_43">
      <!-- 10 -->
      <g style="fill:#555555;" transform="translate(76.615 371.849551)scale(0.14 -0.14)">
       <use xlink:href="#HelveticaNeue-49"/>
       <use x="55.599991" xlink:href="#HelveticaNeue-48"/>
      </g>
     </g>
    </g>
    <g id="ytick_3">
     <g id="line2d_85">
      <path clip-path="url(#pb679554184)" d="M 95.68125 310.975178 
L 722.08125 310.975178 
" style="fill:none;stroke:#cbcbcb;"/>
     </g>
     <g id="line2d_86"/>
     <g id="text_44">
      <!-- 100 -->
      <g style="fill:#555555;" transform="translate(68.831875 315.973615)scale(0.14 -0.14)">
       <use xlink:href="#HelveticaNeue-49"/>
       <use x="55.599991" xlink:href="#HelveticaNeue-48"/>
       <use x="111.199982" xlink:href="#HelveticaNeue-48"/>
      </g>
     </g>
    </g>
    <g id="ytick_4">
     <g id="line2d_87">
      <path clip-path="url(#pb679554184)" d="M 95.68125 255.099242 
L 722.08125 255.099242 
" style="fill:none;stroke:#cbcbcb;"/>
     </g>
     <g id="line2d_88"/>
     <g id="text_45">
      <!-- 1,000 -->
      <g style="fill:#555555;" transform="translate(57.157188 260.09768)scale(0.14 -0.14)">
       <defs>
        <path d="M 8.296875 11.09375 
L 8.296875 0 
L 14.203125 0 
Q 14.296875 -1.203125 14.046875 -2.59375 
Q 13.796875 -4 13.09375 -5.34375 
Q 12.40625 -6.703125 11.25 -7.84375 
Q 10.09375 -9 8.40625 -9.59375 
L 8.40625 -14.59375 
Q 14.203125 -12.90625 16.796875 -8.796875 
Q 19.40625 -4.703125 19.40625 1 
L 19.40625 11.09375 
z
" id="HelveticaNeue-44"/>
       </defs>
       <use xlink:href="#HelveticaNeue-49"/>
       <use x="55.599991" xlink:href="#HelveticaNeue-44"/>
       <use x="83.399979" xlink:href="#HelveticaNeue-48"/>
       <use x="138.999969" xlink:href="#HelveticaNeue-48"/>
       <use x="194.59996" xlink:href="#HelveticaNeue-48"/>
      </g>
     </g>
    </g>
    <g id="ytick_5">
     <g id="line2d_89">
      <path clip-path="url(#pb679554184)" d="M 95.68125 199.223307 
L 722.08125 199.223307 
" style="fill:none;stroke:#cbcbcb;"/>
     </g>
     <g id="line2d_90"/>
     <g id="text_46">
      <!-- 10,000 -->
      <g style="fill:#555555;" transform="translate(49.374063 204.221744)scale(0.14 -0.14)">
       <use xlink:href="#HelveticaNeue-49"/>
       <use x="55.599991" xlink:href="#HelveticaNeue-48"/>
       <use x="111.199982" xlink:href="#HelveticaNeue-44"/>
       <use x="138.999969" xlink:href="#HelveticaNeue-48"/>
       <use x="194.59996" xlink:href="#HelveticaNeue-48"/>
       <use x="250.199951" xlink:href="#HelveticaNeue-48"/>
      </g>
     </g>
    </g>
    <g id="ytick_6">
     <g id="line2d_91">
      <path clip-path="url(#pb679554184)" d="M 95.68125 143.347371 
L 722.08125 143.347371 
" style="fill:none;stroke:#cbcbcb;"/>
     </g>
     <g id="line2d_92"/>
     <g id="text_47">
      <!-- 100,000 -->
      <g style="fill:#555555;" transform="translate(41.590938 148.345809)scale(0.14 -0.14)">
       <use xlink:href="#HelveticaNeue-49"/>
       <use x="55.599991" xlink:href="#HelveticaNeue-48"/>
       <use x="111.199982" xlink:href="#HelveticaNeue-48"/>
       <use x="166.799973" xlink:href="#HelveticaNeue-44"/>
       <use x="194.59996" xlink:href="#HelveticaNeue-48"/>
       <use x="250.199951" xlink:href="#HelveticaNeue-48"/>
       <use x="305.799942" xlink:href="#HelveticaNeue-48"/>
      </g>
     </g>
    </g>
    <g id="ytick_7">
     <g id="line2d_93">
      <path clip-path="url(#pb679554184)" d="M 95.68125 87.471436 
L 722.08125 87.471436 
" style="fill:none;stroke:#cbcbcb;"/>
     </g>
     <g id="line2d_94"/>
     <g id="text_48">
      <!-- 1,000,000 -->
      <g style="fill:#555555;" transform="translate(29.91625 92.469873)scale(0.14 -0.14)">
       <use xlink:href="#HelveticaNeue-49"/>
       <use x="55.599991" xlink:href="#HelveticaNeue-44"/>
       <use x="83.399979" xlink:href="#HelveticaNeue-48"/>
       <use x="138.999969" xlink:href="#HelveticaNeue-48"/>
       <use x="194.59996" xlink:href="#HelveticaNeue-48"/>
       <use x="250.199951" xlink:href="#HelveticaNeue-44"/>
       <use x="277.999939" xlink:href="#HelveticaNeue-48"/>
       <use x="333.59993" xlink:href="#HelveticaNeue-48"/>
       <use x="389.199921" xlink:href="#HelveticaNeue-48"/>
      </g>
     </g>
    </g>
    <g id="ytick_8">
     <g id="line2d_95">
      <path clip-path="url(#pb679554184)" d="M 95.68125 31.5955 
L 722.08125 31.5955 
" style="fill:none;stroke:#cbcbcb;"/>
     </g>
     <g id="line2d_96"/>
     <g id="text_49">
      <!-- 10,000,000 -->
      <g style="fill:#555555;" transform="translate(22.133125 36.593938)scale(0.14 -0.14)">
       <use xlink:href="#HelveticaNeue-49"/>
       <use x="55.599991" xlink:href="#HelveticaNeue-48"/>
       <use x="111.199982" xlink:href="#HelveticaNeue-44"/>
       <use x="138.999969" xlink:href="#HelveticaNeue-48"/>
       <use x="194.59996" xlink:href="#HelveticaNeue-48"/>
       <use x="250.199951" xlink:href="#HelveticaNeue-48"/>
       <use x="305.799942" xlink:href="#HelveticaNeue-44"/>
       <use x="333.59993" xlink:href="#HelveticaNeue-48"/>
       <use x="389.199921" xlink:href="#HelveticaNeue-48"/>
       <use x="444.799911" xlink:href="#HelveticaNeue-48"/>
      </g>
     </g>
    </g>
    <g id="ytick_9">
     <g id="line2d_97"/>
    </g>
    <g id="ytick_10">
     <g id="line2d_98"/>
    </g>
    <g id="ytick_11">
     <g id="line2d_99"/>
    </g>
    <g id="ytick_12">
     <g id="line2d_100"/>
    </g>
    <g id="ytick_13">
     <g id="line2d_101"/>
    </g>
    <g id="ytick_14">
     <g id="line2d_102"/>
    </g>
    <g id="ytick_15">
     <g id="line2d_103"/>
    </g>
    <g id="ytick_16">
     <g id="line2d_104"/>
    </g>
    <g id="ytick_17">
     <g id="line2d_105"/>
    </g>
    <g id="ytick_18">
     <g id="line2d_106"/>
    </g>
    <g id="ytick_19">
     <g id="line2d_107"/>
    </g>
    <g id="ytick_20">
     <g id="line2d_108"/>
    </g>
    <g id="ytick_21">
     <g id="line2d_109"/>
    </g>
    <g id="ytick_22">
     <g id="line2d_110"/>
    </g>
    <g id="ytick_23">
     <g id="line2d_111"/>
    </g>
    <g id="ytick_24">
     <g id="line2d_112"/>
    </g>
    <g id="ytick_25">
     <g id="line2d_113"/>
    </g>
    <g id="ytick_26">
     <g id="line2d_114"/>
    </g>
    <g id="ytick_27">
     <g id="line2d_115"/>
    </g>
    <g id="ytick_28">
     <g id="line2d_116"/>
    </g>
    <g id="ytick_29">
     <g id="line2d_117"/>
    </g>
    <g id="ytick_30">
     <g id="line2d_118"/>
    </g>
    <g id="ytick_31">
     <g id="line2d_119"/>
    </g>
    <g id="ytick_32">
     <g id="line2d_120"/>
    </g>
    <g id="ytick_33">
     <g id="line2d_121"/>
    </g>
    <g id="ytick_34">
     <g id="line2d_122"/>
    </g>
    <g id="ytick_35">
     <g id="line2d_123"/>
    </g>
    <g id="ytick_36">
     <g id="line2d_124"/>
    </g>
    <g id="ytick_37">
     <g id="line2d_125"/>
    </g>
    <g id="ytick_38">
     <g id="line2d_126"/>
    </g>
    <g id="ytick_39">
     <g id="line2d_127"/>
    </g>
    <g id="ytick_40">
     <g id="line2d_128"/>
    </g>
    <g id="ytick_41">
     <g id="line2d_129"/>
    </g>
    <g id="ytick_42">
     <g id="line2d_130"/>
    </g>
    <g id="ytick_43">
     <g id="line2d_131"/>
    </g>
    <g id="ytick_44">
     <g id="line2d_132"/>
    </g>
    <g id="ytick_45">
     <g id="line2d_133"/>
    </g>
    <g id="ytick_46">
     <g id="line2d_134"/>
    </g>
    <g id="ytick_47">
     <g id="line2d_135"/>
    </g>
    <g id="ytick_48">
     <g id="line2d_136"/>
    </g>
    <g id="ytick_49">
     <g id="line2d_137"/>
    </g>
    <g id="ytick_50">
     <g id="line2d_138"/>
    </g>
    <g id="ytick_51">
     <g id="line2d_139"/>
    </g>
    <g id="ytick_52">
     <g id="line2d_140"/>
    </g>
    <g id="ytick_53">
     <g id="line2d_141"/>
    </g>
    <g id="ytick_54">
     <g id="line2d_142"/>
    </g>
    <g id="ytick_55">
     <g id="line2d_143"/>
    </g>
    <g id="ytick_56">
     <g id="line2d_144"/>
    </g>
    <g id="ytick_57">
     <g id="line2d_145"/>
    </g>
    <g id="ytick_58">
     <g id="line2d_146"/>
    </g>
    <g id="ytick_59">
     <g id="line2d_147"/>
    </g>
    <g id="ytick_60">
     <g id="line2d_148"/>
    </g>
    <g id="ytick_61">
     <g id="line2d_149"/>
    </g>
    <g id="ytick_62">
     <g id="line2d_150"/>
    </g>
    <g id="ytick_63">
     <g id="line2d_151"/>
    </g>
    <g id="ytick_64">
     <g id="line2d_152"/>
    </g>
    <g id="ytick_65">
     <g id="line2d_153"/>
    </g>
    <g id="ytick_66">
     <g id="line2d_154"/>
    </g>
    <g id="ytick_67">
     <g id="line2d_155"/>
    </g>
    <g id="ytick_68">
     <g id="line2d_156"/>
    </g>
    <g id="ytick_69">
     <g id="line2d_157"/>
    </g>
    <g id="text_50">
     <!-- Confirmed Cases -->
     <g style="fill:#555555;" transform="translate(15.76875 282.6355)rotate(-90)scale(0.12 -0.12)">
      <defs>
       <path d="M 58 49.90625 
L 67.5 49.90625 
Q 66.703125 55.59375 64.09375 59.9375 
Q 61.5 64.296875 57.59375 67.1875 
Q 53.703125 70.09375 48.703125 71.59375 
Q 43.703125 73.09375 38.09375 73.09375 
Q 29.90625 73.09375 23.546875 70.140625 
Q 17.203125 67.203125 12.953125 62.09375 
Q 8.703125 57 6.5 50.140625 
Q 4.296875 43.296875 4.296875 35.5 
Q 4.296875 27.703125 6.34375 20.890625 
Q 8.40625 14.09375 12.5 9.09375 
Q 16.59375 4.09375 22.796875 1.25 
Q 29 -1.59375 37.296875 -1.59375 
Q 51 -1.59375 58.890625 5.90625 
Q 66.796875 13.40625 68.203125 26.90625 
L 58.703125 26.90625 
Q 58.40625 22.5 56.90625 18.703125 
Q 55.40625 14.90625 52.75 12.15625 
Q 50.09375 9.40625 46.4375 7.84375 
Q 42.796875 6.296875 38.09375 6.296875 
Q 31.703125 6.296875 27.09375 8.6875 
Q 22.5 11.09375 19.546875 15.140625 
Q 16.59375 19.203125 15.1875 24.640625 
Q 13.796875 30.09375 13.796875 36.203125 
Q 13.796875 41.796875 15.1875 47 
Q 16.59375 52.203125 19.546875 56.25 
Q 22.5 60.296875 27.046875 62.6875 
Q 31.59375 65.09375 38 65.09375 
Q 45.5 65.09375 50.953125 61.296875 
Q 56.40625 57.5 58 49.90625 
z
" id="HelveticaNeue-67"/>
       <path d="M 12.59375 25.796875 
Q 12.59375 30.5 13.84375 34.140625 
Q 15.09375 37.796875 17.296875 40.296875 
Q 19.5 42.796875 22.453125 44.09375 
Q 25.40625 45.40625 28.703125 45.40625 
Q 32 45.40625 34.953125 44.09375 
Q 37.90625 42.796875 40.09375 40.296875 
Q 42.296875 37.796875 43.546875 34.140625 
Q 44.796875 30.5 44.796875 25.796875 
Q 44.796875 21.09375 43.546875 17.4375 
Q 42.296875 13.796875 40.09375 11.34375 
Q 37.90625 8.90625 34.953125 7.59375 
Q 32 6.296875 28.703125 6.296875 
Q 25.40625 6.296875 22.453125 7.59375 
Q 19.5 8.90625 17.296875 11.34375 
Q 15.09375 13.796875 13.84375 17.4375 
Q 12.59375 21.09375 12.59375 25.796875 
z
M 3.59375 25.796875 
Q 3.59375 20.09375 5.1875 15.1875 
Q 6.796875 10.296875 10 6.640625 
Q 13.203125 3 17.890625 0.953125 
Q 22.59375 -1.09375 28.703125 -1.09375 
Q 34.90625 -1.09375 39.546875 0.953125 
Q 44.203125 3 47.390625 6.640625 
Q 50.59375 10.296875 52.1875 15.1875 
Q 53.796875 20.09375 53.796875 25.796875 
Q 53.796875 31.5 52.1875 36.453125 
Q 50.59375 41.40625 47.390625 45.046875 
Q 44.203125 48.703125 39.546875 50.796875 
Q 34.90625 52.90625 28.703125 52.90625 
Q 22.59375 52.90625 17.890625 50.796875 
Q 13.203125 48.703125 10 45.046875 
Q 6.796875 41.40625 5.1875 36.453125 
Q 3.59375 31.5 3.59375 25.796875 
z
" id="HelveticaNeue-111"/>
       <path d="M 6.40625 51.703125 
L 6.40625 0 
L 14.90625 0 
L 14.90625 29.203125 
Q 14.90625 32.703125 15.84375 35.640625 
Q 16.796875 38.59375 18.6875 40.796875 
Q 20.59375 43 23.4375 44.203125 
Q 26.296875 45.40625 30.203125 45.40625 
Q 35.09375 45.40625 37.890625 42.59375 
Q 40.703125 39.796875 40.703125 35 
L 40.703125 0 
L 49.203125 0 
L 49.203125 34 
Q 49.203125 38.203125 48.34375 41.640625 
Q 47.5 45.09375 45.390625 47.59375 
Q 43.296875 50.09375 39.890625 51.5 
Q 36.5 52.90625 31.40625 52.90625 
Q 19.90625 52.90625 14.59375 43.5 
L 14.40625 43.5 
L 14.40625 51.703125 
z
" id="HelveticaNeue-110"/>
       <path d="M 9.90625 44.203125 
L 9.90625 0 
L 18.40625 0 
L 18.40625 44.203125 
L 28.40625 44.203125 
L 28.40625 51.703125 
L 18.40625 51.703125 
L 18.40625 58.90625 
Q 18.40625 62.296875 20.09375 63.5 
Q 21.796875 64.703125 24.90625 64.703125 
Q 26 64.703125 27.296875 64.546875 
Q 28.59375 64.40625 29.703125 64 
L 29.703125 71.40625 
Q 28.5 71.796875 26.953125 72 
Q 25.40625 72.203125 24.203125 72.203125 
Q 17.203125 72.203125 13.546875 68.953125 
Q 9.90625 65.703125 9.90625 59.40625 
L 9.90625 51.703125 
L 1.203125 51.703125 
L 1.203125 44.203125 
z
" id="HelveticaNeue-102"/>
       <path d="M 15.40625 61 
L 15.40625 71.40625 
L 6.90625 71.40625 
L 6.90625 61 
z
M 6.90625 51.703125 
L 6.90625 0 
L 15.40625 0 
L 15.40625 51.703125 
z
" id="HelveticaNeue-105"/>
       <path d="M 6.09375 51.703125 
L 6.09375 0 
L 14.59375 0 
L 14.59375 23 
Q 14.59375 28 15.59375 31.84375 
Q 16.59375 35.703125 18.796875 38.390625 
Q 21 41.09375 24.59375 42.5 
Q 28.203125 43.90625 33.296875 43.90625 
L 33.296875 52.90625 
Q 26.40625 53.09375 21.90625 50.09375 
Q 17.40625 47.09375 14.296875 40.796875 
L 14.09375 40.796875 
L 14.09375 51.703125 
z
" id="HelveticaNeue-114"/>
       <path d="M 6.40625 51.703125 
L 6.40625 0 
L 14.90625 0 
L 14.90625 32.203125 
Q 14.90625 33.703125 15.65625 35.953125 
Q 16.40625 38.203125 18.046875 40.296875 
Q 19.703125 42.40625 22.34375 43.90625 
Q 25 45.40625 28.703125 45.40625 
Q 31.59375 45.40625 33.4375 44.546875 
Q 35.296875 43.703125 36.390625 42.140625 
Q 37.5 40.59375 37.953125 38.5 
Q 38.40625 36.40625 38.40625 33.90625 
L 38.40625 0 
L 46.90625 0 
L 46.90625 32.203125 
Q 46.90625 38.203125 50.5 41.796875 
Q 54.09375 45.40625 60.40625 45.40625 
Q 63.5 45.40625 65.453125 44.5 
Q 67.40625 43.59375 68.5 42.046875 
Q 69.59375 40.5 70 38.390625 
Q 70.40625 36.296875 70.40625 33.90625 
L 70.40625 0 
L 78.90625 0 
L 78.90625 37.90625 
Q 78.90625 41.90625 77.65625 44.75 
Q 76.40625 47.59375 74.15625 49.390625 
Q 71.90625 51.203125 68.75 52.046875 
Q 65.59375 52.90625 61.703125 52.90625 
Q 56.59375 52.90625 52.34375 50.59375 
Q 48.09375 48.296875 45.5 44.09375 
Q 43.90625 48.90625 40 50.90625 
Q 36.09375 52.90625 31.296875 52.90625 
Q 20.40625 52.90625 14.59375 44.09375 
L 14.40625 44.09375 
L 14.40625 51.703125 
z
" id="HelveticaNeue-109"/>
       <path d="M 12.59375 25.40625 
Q 12.59375 29.203125 13.390625 32.796875 
Q 14.203125 36.40625 16 39.203125 
Q 17.796875 42 20.796875 43.703125 
Q 23.796875 45.40625 28.09375 45.40625 
Q 32.5 45.40625 35.59375 43.75 
Q 38.703125 42.09375 40.640625 39.390625 
Q 42.59375 36.703125 43.5 33.140625 
Q 44.40625 29.59375 44.40625 25.796875 
Q 44.40625 22.203125 43.546875 18.703125 
Q 42.703125 15.203125 40.796875 12.453125 
Q 38.90625 9.703125 35.90625 8 
Q 32.90625 6.296875 28.59375 6.296875 
Q 24.5 6.296875 21.453125 7.890625 
Q 18.40625 9.5 16.453125 12.203125 
Q 14.5 14.90625 13.546875 18.34375 
Q 12.59375 21.796875 12.59375 25.40625 
z
M 52.59375 0 
L 52.59375 71.40625 
L 44.09375 71.40625 
L 44.09375 44.796875 
L 43.90625 44.796875 
Q 42.5 47.09375 40.453125 48.640625 
Q 38.40625 50.203125 36.09375 51.140625 
Q 33.796875 52.09375 31.5 52.5 
Q 29.203125 52.90625 27.203125 52.90625 
Q 21.296875 52.90625 16.84375 50.75 
Q 12.40625 48.59375 9.453125 44.9375 
Q 6.5 41.296875 5.046875 36.390625 
Q 3.59375 31.5 3.59375 26 
Q 3.59375 20.5 5.09375 15.59375 
Q 6.59375 10.703125 9.546875 7 
Q 12.5 3.296875 16.953125 1.09375 
Q 21.40625 -1.09375 27.40625 -1.09375 
Q 32.796875 -1.09375 37.296875 0.796875 
Q 41.796875 2.703125 43.90625 7 
L 44.09375 7 
L 44.09375 0 
z
" id="HelveticaNeue-100"/>
       <path id="HelveticaNeue-32"/>
      </defs>
      <use xlink:href="#HelveticaNeue-67"/>
      <use x="72.199982" xlink:href="#HelveticaNeue-111"/>
      <use x="129.599976" xlink:href="#HelveticaNeue-110"/>
      <use x="185.199966" xlink:href="#HelveticaNeue-102"/>
      <use x="214.799957" xlink:href="#HelveticaNeue-105"/>
      <use x="236.999954" xlink:href="#HelveticaNeue-114"/>
      <use x="270.299942" xlink:href="#HelveticaNeue-109"/>
      <use x="355.59993" xlink:href="#HelveticaNeue-101"/>
      <use x="409.299927" xlink:href="#HelveticaNeue-100"/>
      <use x="468.599915" xlink:href="#HelveticaNeue-32"/>
      <use x="496.399902" xlink:href="#HelveticaNeue-67"/>
      <use x="568.599884" xlink:href="#HelveticaNeue-97"/>
      <use x="622.299881" xlink:href="#HelveticaNeue-115"/>
      <use x="672.299866" xlink:href="#HelveticaNeue-101"/>
      <use x="725.999863" xlink:href="#HelveticaNeue-115"/>
     </g>
    </g>
   </g>
   <g id="line2d_158">
    <path clip-path="url(#pb679554184)" d="M 136.605762 496.524737 
L 136.607258 422.727049 
L 137.739374 405.906716 
L 138.87149 372.266051 
L 140.003607 372.266051 
L 141.135723 360.484422 
L 143.399956 331.455471 
L 144.532072 317.317615 
L 145.664189 310.733717 
L 146.796305 305.755154 
L 149.060538 290.975233 
L 150.192654 286.251207 
L 152.456887 272.4594 
L 154.72112 258.506569 
L 156.985353 245.733727 
L 158.117469 242.222693 
L 159.249585 236.830605 
L 160.381702 233.703389 
L 161.513818 229.388164 
L 163.778051 222.141495 
L 164.910167 220.594481 
L 166.042284 217.700535 
L 167.1744 215.444433 
L 168.306517 213.907914 
L 169.438633 212.039507 
L 171.702866 208.735966 
L 172.834982 207.681799 
L 173.967099 206.34065 
L 175.099215 205.531102 
L 176.231331 204.438866 
L 177.363448 203.671912 
L 178.495564 202.262048 
L 179.627681 201.661702 
L 183.02403 199.090206 
L 184.156146 198.857229 
L 185.288262 197.839097 
L 186.420379 197.076472 
L 187.552495 196.901629 
L 188.684612 196.150361 
L 190.948844 195.145216 
L 193.213077 194.671914 
L 194.345194 194.026778 
L 195.47731 193.555378 
L 196.609426 193.282191 
L 197.741543 192.687341 
L 200.005776 192.175596 
L 201.137892 191.790261 
L 202.270008 191.649543 
L 206.798474 190.401632 
L 207.93059 190.262009 
L 213.591172 188.026589 
L 215.855405 187.767913 
L 216.987521 187.269067 
L 222.648103 186.109537 
L 223.78022 186.029098 
L 231.705035 184.353935 
L 233.969267 183.577544 
L 241.894082 181.368528 
L 243.026198 180.499467 
L 245.290431 179.874883 
L 254.347362 175.281867 
L 256.611595 173.670032 
L 257.743712 172.406488 
L 258.875828 171.332791 
L 260.007944 169.732133 
L 262.272177 167.593505 
L 263.404294 166.852913 
L 264.53641 165.423008 
L 269.064876 160.662413 
L 270.196992 159.660055 
L 271.329108 158.312256 
L 273.593341 156.424216 
L 274.725457 155.395234 
L 275.857574 154.009855 
L 276.98969 152.809087 
L 279.253923 151.212781 
L 280.386039 150.191639 
L 281.518156 149.418411 
L 283.782389 147.509967 
L 286.046621 146.024125 
L 289.442971 143.731626 
L 290.575087 142.901826 
L 293.971436 140.957207 
L 297.367785 139.236277 
L 298.499902 138.680383 
L 300.764135 138.197312 
L 303.028367 137.74909 
L 307.556833 136.525771 
L 309.821066 136.041673 
L 310.953182 135.309195 
L 314.349531 134.430397 
L 326.802812 132.848369 
L 332.463394 132.415364 
L 333.59551 132.085268 
L 343.784557 131.507125 
L 351.709372 131.108049 
L 390.20133 129.131958 
L 393.597679 128.864755 
L 396.994028 128.649675 
L 407.183075 127.679078 
L 411.711541 127.156603 
L 413.975774 127.018528 
L 417.372123 126.495755 
L 418.504239 126.208456 
L 420.768472 125.864585 
L 430.95752 124.168671 
L 432.089636 123.759067 
L 435.485985 123.175933 
L 447.939266 120.784107 
L 453.599848 119.728166 
L 458.128313 118.877378 
L 462.656779 118.079041 
L 463.788895 118.079041 
L 464.921011 117.791472 
L 467.185244 117.480178 
L 470.581593 116.779189 
L 471.71371 116.779189 
L 472.845826 116.351515 
L 475.110059 116.028824 
L 480.770641 114.8008 
L 495.488154 112.623158 
L 500.01662 112.088819 
L 503.412969 111.721128 
L 505.677202 111.459989 
L 510.205667 111.079605 
L 512.4699 110.812287 
L 529.451646 109.569744 
L 539.640693 108.936051 
L 543.037043 108.670749 
L 566.811487 107.395561 
L 600.774979 105.350269 
L 632.474238 104.361952 
L 644.927518 104.198521 
L 646.059634 104.505084 
L 660.777147 104.402384 
L 663.04138 104.315853 
L 676.626777 104.217142 
L 677.758893 104.075789 
L 684.551592 104.075789 
L 685.683708 103.866435 
L 692.476406 103.866435 
L 693.608523 103.536339 
L 693.608523 103.536339 
" style="fill:none;stroke:#008fd5;stroke-width:4;"/>
   </g>
   <g id="line2d_159">
    <path clip-path="url(#pb679554184)" d="M 125.284258 496.524737 
L 125.286094 405.906716 
L 126.41821 405.906716 
L 127.550326 396.067452 
L 128.682443 396.067452 
L 129.814559 389.086384 
L 132.078792 362.426787 
L 134.343025 358.686073 
L 135.475141 346.639232 
L 136.607258 343.664089 
L 137.739374 329.818899 
L 138.87149 319.63047 
L 140.003607 319.63047 
L 141.135723 308.883937 
L 142.26784 302.63742 
L 143.399956 292.970873 
L 144.532072 282.298664 
L 149.060538 255.099242 
L 151.324771 245.799804 
L 152.456887 238.633351 
L 153.589003 233.078463 
L 155.853236 221.229132 
L 156.985353 216.321868 
L 158.117469 212.885323 
L 159.249585 208.789896 
L 162.645935 198.600437 
L 163.778051 195.753808 
L 164.910167 194.117054 
L 166.042284 191.724254 
L 167.1744 189.809999 
L 169.438633 186.606511 
L 170.570749 185.013702 
L 171.702866 183.675803 
L 172.834982 182.579548 
L 173.967099 181.206294 
L 175.099215 180.512932 
L 177.363448 178.663646 
L 178.495564 177.236827 
L 183.02403 174.3587 
L 184.156146 173.978459 
L 185.288262 172.856671 
L 186.420379 172.142718 
L 187.552495 171.900666 
L 190.948844 170.370276 
L 193.213077 169.753737 
L 194.345194 169.017909 
L 197.741543 167.547413 
L 200.005776 166.831188 
L 201.137892 166.309278 
L 202.270008 166.078465 
L 203.402125 165.586888 
L 204.534241 165.228519 
L 205.666358 164.998829 
L 206.798474 164.44783 
L 207.93059 164.172087 
L 213.591172 161.963216 
L 215.855405 161.431328 
L 216.987521 160.823432 
L 221.515987 159.338525 
L 224.912336 158.627218 
L 226.044453 158.081362 
L 228.308685 157.350527 
L 230.572918 156.801913 
L 235.101384 154.655893 
L 237.365617 153.83987 
L 239.629849 152.934485 
L 241.894082 151.671099 
L 243.026198 150.804169 
L 246.422548 148.731691 
L 247.554664 147.9536 
L 249.818897 145.974319 
L 250.951013 144.903409 
L 252.08313 144.015817 
L 254.347362 142.513737 
L 255.479479 141.254795 
L 256.611595 140.165631 
L 258.875828 136.511669 
L 260.007944 134.998085 
L 262.272177 133.118775 
L 263.404294 132.095797 
L 266.800643 127.766134 
L 267.932759 126.514544 
L 270.196992 124.909471 
L 271.329108 123.801323 
L 272.461225 122.851237 
L 276.98969 118.152565 
L 279.253923 116.542449 
L 280.386039 115.444787 
L 283.782389 112.944356 
L 286.046621 111.609983 
L 288.310854 110.329796 
L 290.575087 108.842434 
L 296.235669 106.24294 
L 299.632018 104.924869 
L 303.028367 104.159585 
L 307.556833 102.750007 
L 309.821066 102.299398 
L 312.085298 101.666395 
L 315.481648 100.9675 
L 318.877997 100.521716 
L 323.406462 99.844683 
L 327.934928 99.387573 
L 331.331277 99.01006 
L 332.463394 98.936581 
L 333.59551 98.643752 
L 336.991859 98.293615 
L 340.388208 97.990086 
L 344.916674 97.614482 
L 349.445139 97.231791 
L 360.766303 96.270011 
L 365.294769 95.969161 
L 374.3517 95.35232 
L 376.615933 95.14456 
L 377.748049 95.14456 
L 378.880166 94.959831 
L 382.276515 94.725039 
L 402.65461 92.662819 
L 415.10789 91.029718 
L 430.95752 88.41992 
L 432.089636 87.986164 
L 436.618102 87.274272 
L 443.4108 85.925553 
L 446.807149 85.276028 
L 450.203498 84.593339 
L 453.599848 83.967739 
L 456.996197 83.185886 
L 460.392546 82.586262 
L 462.656779 82.104341 
L 463.788895 82.104341 
L 464.921011 81.77509 
L 468.317361 81.249956 
L 470.581593 80.673535 
L 471.71371 80.673535 
L 472.845826 80.102338 
L 476.242175 79.443454 
L 481.902757 78.007109 
L 485.299106 77.351276 
L 489.827572 76.505722 
L 493.223921 76.050833 
L 497.752387 75.327539 
L 503.412969 74.615422 
L 505.677202 74.291756 
L 510.205667 73.85928 
L 512.4699 73.597182 
L 530.583762 72.244234 
L 550.961857 71.044272 
L 561.150905 70.550109 
L 565.67937 70.320656 
L 604.171328 68.090912 
L 613.228259 67.702213 
L 624.549423 67.344149 
L 644.927518 66.946548 
L 646.059634 67.372371 
L 652.852333 67.274868 
L 669.834078 67.029284 
L 676.626777 66.925133 
L 678.89101 66.865921 
L 683.419475 66.770542 
L 691.34429 66.398584 
L 693.608523 66.158028 
L 693.608523 66.158028 
" style="fill:none;stroke:#fc4f30;stroke-width:4;"/>
   </g>
   <g id="patch_3">
    <path d="M 95.68125 440.5555 
L 95.68125 31.5955 
" style="fill:none;stroke:#f0f0f0;stroke-linecap:square;stroke-linejoin:miter;stroke-width:3;"/>
   </g>
   <g id="patch_4">
    <path d="M 95.68125 440.5555 
L 722.08125 440.5555 
" style="fill:none;stroke:#f0f0f0;stroke-linecap:square;stroke-linejoin:miter;stroke-width:3;"/>
   </g>
   <g id="text_51">
    <!-- Cases of COVID-19 in Florida -->
    <g style="fill:#555555;" transform="translate(276.14655 21.5955)scale(0.2016 -0.2016)">
     <defs>
      <path d="M 13.296875 35.703125 
Q 13.296875 41.09375 14.6875 46.34375 
Q 16.09375 51.59375 19.09375 55.796875 
Q 22.09375 60 26.796875 62.546875 
Q 31.5 65.09375 38 65.09375 
Q 44.5 65.09375 49.203125 62.546875 
Q 53.90625 60 56.90625 55.796875 
Q 59.90625 51.59375 61.296875 46.34375 
Q 62.703125 41.09375 62.703125 35.703125 
Q 62.703125 30.296875 61.296875 25.046875 
Q 59.90625 19.796875 56.90625 15.59375 
Q 53.90625 11.40625 49.203125 8.84375 
Q 44.5 6.296875 38 6.296875 
Q 31.5 6.296875 26.796875 8.84375 
Q 22.09375 11.40625 19.09375 15.59375 
Q 16.09375 19.796875 14.6875 25.046875 
Q 13.296875 30.296875 13.296875 35.703125 
z
M 3.796875 35.703125 
Q 3.796875 28.40625 5.9375 21.65625 
Q 8.09375 14.90625 12.390625 9.703125 
Q 16.703125 4.5 23.09375 1.453125 
Q 29.5 -1.59375 38 -1.59375 
Q 46.5 -1.59375 52.890625 1.453125 
Q 59.296875 4.5 63.59375 9.703125 
Q 67.90625 14.90625 70.046875 21.65625 
Q 72.203125 28.40625 72.203125 35.703125 
Q 72.203125 43 70.046875 49.75 
Q 67.90625 56.5 63.59375 61.703125 
Q 59.296875 66.90625 52.890625 70 
Q 46.5 73.09375 38 73.09375 
Q 29.5 73.09375 23.09375 70 
Q 16.703125 66.90625 12.390625 61.703125 
Q 8.09375 56.5 5.9375 49.75 
Q 3.796875 43 3.796875 35.703125 
z
" id="HelveticaNeue-79"/>
      <path d="M 35.90625 0 
L 61.296875 71.40625 
L 51.40625 71.40625 
L 30.796875 9.5 
L 30.59375 9.5 
L 10.203125 71.40625 
L 0 71.40625 
L 25.09375 0 
z
" id="HelveticaNeue-86"/>
      <path d="M 8.203125 71.40625 
L 8.203125 0 
L 17.703125 0 
L 17.703125 71.40625 
z
" id="HelveticaNeue-73"/>
      <path d="M 7.796875 71.40625 
L 7.796875 0 
L 17.296875 0 
L 17.296875 32.703125 
L 50.09375 32.703125 
L 50.09375 40.703125 
L 17.296875 40.703125 
L 17.296875 63.40625 
L 54.703125 63.40625 
L 54.703125 71.40625 
z
" id="HelveticaNeue-70"/>
      <path d="M 6.90625 71.40625 
L 6.90625 0 
L 15.40625 0 
L 15.40625 71.40625 
z
" id="HelveticaNeue-108"/>
     </defs>
     <use xlink:href="#HelveticaNeue-67"/>
     <use x="72.199982" xlink:href="#HelveticaNeue-97"/>
     <use x="125.899979" xlink:href="#HelveticaNeue-115"/>
     <use x="175.899963" xlink:href="#HelveticaNeue-101"/>
     <use x="229.59996" xlink:href="#HelveticaNeue-115"/>
     <use x="279.599945" xlink:href="#HelveticaNeue-32"/>
     <use x="307.399933" xlink:href="#HelveticaNeue-111"/>
     <use x="364.799927" xlink:href="#HelveticaNeue-102"/>
     <use x="394.399918" xlink:href="#HelveticaNeue-32"/>
     <use x="422.199905" xlink:href="#HelveticaNeue-67"/>
     <use x="494.399887" xlink:href="#HelveticaNeue-79"/>
     <use x="570.399872" xlink:href="#HelveticaNeue-86"/>
     <use x="631.499863" xlink:href="#HelveticaNeue-73"/>
     <use x="657.399857" xlink:href="#HelveticaNeue-68"/>
     <use x="727.79985" xlink:href="#HelveticaNeue-45"/>
     <use x="766.699844" xlink:href="#HelveticaNeue-49"/>
     <use x="822.299835" xlink:href="#HelveticaNeue-57"/>
     <use x="877.899826" xlink:href="#HelveticaNeue-32"/>
     <use x="905.699814" xlink:href="#HelveticaNeue-105"/>
     <use x="927.899811" xlink:href="#HelveticaNeue-110"/>
     <use x="983.499802" xlink:href="#HelveticaNeue-32"/>
     <use x="1011.299789" xlink:href="#HelveticaNeue-70"/>
     <use x="1068.699783" xlink:href="#HelveticaNeue-108"/>
     <use x="1090.89978" xlink:href="#HelveticaNeue-111"/>
     <use x="1148.299774" xlink:href="#HelveticaNeue-114"/>
     <use x="1181.599762" xlink:href="#HelveticaNeue-105"/>
     <use x="1203.799759" xlink:href="#HelveticaNeue-100"/>
     <use x="1263.099747" xlink:href="#HelveticaNeue-97"/>
    </g>
   </g>
   <g id="legend_1">
    <g id="line2d_160">
     <path d="M 108.28125 49.292375 
L 136.28125 49.292375 
" style="fill:none;stroke:#008fd5;stroke-width:4;"/>
    </g>
    <g id="line2d_161"/>
    <g id="text_52">
     <!-- Total Miami-Dade Cases -->
     <g style="fill:#555555;" transform="translate(147.48125 54.192375)scale(0.14 -0.14)">
      <defs>
       <path d="M 24 63.40625 
L 24 0 
L 33.5 0 
L 33.5 63.40625 
L 57.296875 63.40625 
L 57.296875 71.40625 
L 0.203125 71.40625 
L 0.203125 63.40625 
z
" id="HelveticaNeue-84"/>
       <path d="M 8 71.40625 
L 8 0 
L 17 0 
L 17 59.40625 
L 17.203125 59.40625 
L 39.5 0 
L 47.59375 0 
L 69.90625 59.40625 
L 70.09375 59.40625 
L 70.09375 0 
L 79.09375 0 
L 79.09375 71.40625 
L 66.09375 71.40625 
L 43.5 11.40625 
L 21 71.40625 
z
" id="HelveticaNeue-77"/>
      </defs>
      <use xlink:href="#HelveticaNeue-84"/>
      <use x="46.274994" xlink:href="#HelveticaNeue-111"/>
      <use x="103.674988" xlink:href="#HelveticaNeue-116"/>
      <use x="135.174973" xlink:href="#HelveticaNeue-97"/>
      <use x="188.874969" xlink:href="#HelveticaNeue-108"/>
      <use x="211.074966" xlink:href="#HelveticaNeue-32"/>
      <use x="238.874954" xlink:href="#HelveticaNeue-77"/>
      <use x="325.974945" xlink:href="#HelveticaNeue-105"/>
      <use x="348.174942" xlink:href="#HelveticaNeue-97"/>
      <use x="401.874939" xlink:href="#HelveticaNeue-109"/>
      <use x="487.174927" xlink:href="#HelveticaNeue-105"/>
      <use x="509.374924" xlink:href="#HelveticaNeue-45"/>
      <use x="548.274918" xlink:href="#HelveticaNeue-68"/>
      <use x="618.674911" xlink:href="#HelveticaNeue-97"/>
      <use x="672.374908" xlink:href="#HelveticaNeue-100"/>
      <use x="731.674896" xlink:href="#HelveticaNeue-101"/>
      <use x="785.374893" xlink:href="#HelveticaNeue-32"/>
      <use x="813.174881" xlink:href="#HelveticaNeue-67"/>
      <use x="885.374863" xlink:href="#HelveticaNeue-97"/>
      <use x="939.07486" xlink:href="#HelveticaNeue-115"/>
      <use x="989.074844" xlink:href="#HelveticaNeue-101"/>
      <use x="1042.774841" xlink:href="#HelveticaNeue-115"/>
     </g>
    </g>
    <g id="line2d_162">
     <path d="M 108.28125 69.047687 
L 136.28125 69.047687 
" style="fill:none;stroke:#fc4f30;stroke-width:4;"/>
    </g>
    <g id="line2d_163"/>
    <g id="text_53">
     <!-- Total Florida Cases -->
     <g style="fill:#555555;" transform="translate(147.48125 73.947687)scale(0.14 -0.14)">
      <use xlink:href="#HelveticaNeue-84"/>
      <use x="46.274994" xlink:href="#HelveticaNeue-111"/>
      <use x="103.674988" xlink:href="#HelveticaNeue-116"/>
      <use x="135.174973" xlink:href="#HelveticaNeue-97"/>
      <use x="188.874969" xlink:href="#HelveticaNeue-108"/>
      <use x="211.074966" xlink:href="#HelveticaNeue-32"/>
      <use x="238.874954" xlink:href="#HelveticaNeue-70"/>
      <use x="296.274948" xlink:href="#HelveticaNeue-108"/>
      <use x="318.474945" xlink:href="#HelveticaNeue-111"/>
      <use x="375.874939" xlink:href="#HelveticaNeue-114"/>
      <use x="409.174927" xlink:href="#HelveticaNeue-105"/>
      <use x="431.374924" xlink:href="#HelveticaNeue-100"/>
      <use x="490.674911" xlink:href="#HelveticaNeue-97"/>
      <use x="544.374908" xlink:href="#HelveticaNeue-32"/>
      <use x="572.174896" xlink:href="#HelveticaNeue-67"/>
      <use x="644.374878" xlink:href="#HelveticaNeue-97"/>
      <use x="698.074875" xlink:href="#HelveticaNeue-115"/>
      <use x="748.07486" xlink:href="#HelveticaNeue-101"/>
      <use x="801.774857" xlink:href="#HelveticaNeue-115"/>
     </g>
    </g>
   </g>
  </g>
 </g>
 <defs>
  <clipPath id="pb679554184">
   <rect height="408.96" width="626.4" x="95.68125" y="31.5955"/>
  </clipPath>
 </defs>
</svg>
