<?xml version="1.0" encoding="utf-8" standalone="no"?>
<!DOCTYPE svg PUBLIC "-//W3C//DTD SVG 1.1//EN"
  "http://www.w3.org/Graphics/SVG/1.1/DTD/svg11.dtd">
<!-- Created with matplotlib (https://matplotlib.org/) -->
<svg height="475.906651pt" version="1.1" viewBox="0 0 729.55375 475.906651" width="729.55375pt" xmlns="http://www.w3.org/2000/svg" xmlns:xlink="http://www.w3.org/1999/xlink">
 <metadata>
  <rdf:RDF xmlns:cc="http://creativecommons.org/ns#" xmlns:dc="http://purl.org/dc/elements/1.1/" xmlns:rdf="http://www.w3.org/1999/02/22-rdf-syntax-ns#">
   <cc:Work>
    <dc:type rdf:resource="http://purl.org/dc/dcmitype/StillImage"/>
    <dc:date>2021-02-14T13:14:56.187467</dc:date>
    <dc:format>image/svg+xml</dc:format>
    <dc:creator>
     <cc:Agent>
      <dc:title>Matplotlib v3.3.2, https://matplotlib.org/</dc:title>
     </cc:Agent>
    </dc:creator>
   </cc:Work>
  </rdf:RDF>
 </metadata>
 <defs>
  <style type="text/css">*{stroke-linecap:butt;stroke-linejoin:round;}</style>
 </defs>
 <g id="figure_1">
  <g id="patch_1">
   <path d="M 0 475.906651 
L 729.55375 475.906651 
L 729.55375 0 
L 0 0 
z
" style="fill:#f0f0f0;"/>
  </g>
  <g id="axes_1">
   <g id="patch_2">
    <path d="M 95.95375 420 
L 722.35375 420 
L 722.35375 28.32 
L 95.95375 28.32 
z
" style="fill:#f0f0f0;"/>
   </g>
   <g id="matplotlib.axis_1">
    <g id="xtick_1">
     <g id="line2d_1">
      <path clip-path="url(#p2688dacd9f)" d="M 108.156347 420 
L 108.156347 28.32 
" style="fill:none;stroke:#cbcbcb;"/>
     </g>
     <g id="line2d_2"/>
     <g id="text_1">
      <!-- 02-19 -->
      <g transform="translate(75.188415 450.806392)rotate(-30)scale(0.14 -0.14)">
       <defs>
        <path d="M 51.65625 29.9375 
Q 51.65625 14.59375 45.921875 6.796875 
Q 40.1875 -0.984375 28.46875 -0.984375 
Q 16.9375 -0.984375 11.109375 6.609375 
Q 5.28125 14.203125 5.125 29.109375 
L 5.125 41.40625 
Q 5.125 56.734375 10.859375 64.40625 
Q 16.609375 72.078125 28.375 72.078125 
Q 40.046875 72.078125 45.78125 64.59375 
Q 51.515625 57.125 51.65625 42.234375 
z
M 39.796875 43.21875 
Q 39.796875 53.21875 37.0625 57.875 
Q 34.328125 62.546875 28.375 62.546875 
Q 22.5625 62.546875 19.828125 58.125 
Q 17.09375 53.71875 16.9375 44.34375 
L 16.9375 28.21875 
Q 16.9375 18.265625 19.71875 13.375 
Q 22.515625 8.5 28.46875 8.5 
Q 34.1875 8.5 36.921875 13.015625 
Q 39.65625 17.53125 39.796875 27.15625 
z
" id="Roboto-Medium-48"/>
        <path d="M 53.125 0 
L 5.328125 0 
L 5.328125 8.15625 
L 29 33.984375 
Q 34.125 39.703125 36.296875 43.53125 
Q 38.484375 47.359375 38.484375 51.21875 
Q 38.484375 56.296875 35.625 59.421875 
Q 32.765625 62.546875 27.9375 62.546875 
Q 22.171875 62.546875 19 59.03125 
Q 15.828125 55.515625 15.828125 49.421875 
L 3.953125 49.421875 
Q 3.953125 55.90625 6.90625 61.109375 
Q 9.859375 66.3125 15.34375 69.1875 
Q 20.84375 72.078125 28.03125 72.078125 
Q 38.375 72.078125 44.359375 66.875 
Q 50.34375 61.671875 50.34375 52.484375 
Q 50.34375 47.171875 47.34375 41.328125 
Q 44.34375 35.5 37.5 28.078125 
L 20.125 9.46875 
L 53.125 9.46875 
z
" id="Roboto-Medium-50"/>
        <path d="M 29.109375 25.4375 
L 3.46875 25.4375 
L 3.46875 35.015625 
L 29.109375 35.015625 
z
" id="Roboto-Medium-45"/>
        <path d="M 37.453125 0 
L 25.640625 0 
L 25.640625 57.078125 
L 8.203125 51.125 
L 8.203125 61.140625 
L 35.9375 71.34375 
L 37.453125 71.34375 
z
" id="Roboto-Medium-49"/>
        <path d="M 38.96875 29.734375 
Q 33.015625 23.4375 25.046875 23.4375 
Q 15.671875 23.4375 10.109375 30 
Q 4.546875 36.578125 4.546875 47.265625 
Q 4.546875 54.296875 7.375 60 
Q 10.203125 65.71875 15.421875 68.890625 
Q 20.65625 72.078125 27.546875 72.078125 
Q 38.28125 72.078125 44.578125 64.0625 
Q 50.875 56.0625 50.875 42.625 
L 50.875 39.3125 
Q 50.875 20.0625 42.1875 9.953125 
Q 33.5 -0.140625 16.265625 -0.296875 
L 14.84375 -0.296875 
L 14.84375 9.515625 
L 16.546875 9.515625 
Q 27.046875 9.671875 32.65625 14.578125 
Q 38.28125 19.484375 38.96875 29.734375 
z
M 27.546875 32.71875 
Q 31.109375 32.71875 34.234375 34.765625 
Q 37.359375 36.8125 39.0625 40.4375 
L 39.0625 45.0625 
Q 39.0625 52.9375 35.84375 57.71875 
Q 32.625 62.5 27.484375 62.5 
Q 22.359375 62.5 19.3125 58.265625 
Q 16.265625 54.046875 16.265625 47.609375 
Q 16.265625 40.921875 19.328125 36.8125 
Q 22.40625 32.71875 27.546875 32.71875 
z
" id="Roboto-Medium-57"/>
       </defs>
       <use xlink:href="#Roboto-Medium-48"/>
       <use x="56.835938" xlink:href="#Roboto-Medium-50"/>
       <use x="113.671875" xlink:href="#Roboto-Medium-45"/>
       <use x="146.484375" xlink:href="#Roboto-Medium-49"/>
       <use x="203.320312" xlink:href="#Roboto-Medium-57"/>
      </g>
     </g>
    </g>
    <g id="xtick_2">
     <g id="line2d_3">
      <path clip-path="url(#p2688dacd9f)" d="M 130.934529 420 
L 130.934529 28.32 
" style="fill:none;stroke:#cbcbcb;"/>
     </g>
     <g id="line2d_4"/>
     <g id="text_2">
      <!-- 03-04 -->
      <g transform="translate(97.966596 450.806392)rotate(-30)scale(0.14 -0.14)">
       <defs>
        <path d="M 19.046875 40.96875 
L 26.265625 40.96875 
Q 31.734375 41.015625 34.9375 43.796875 
Q 38.140625 46.578125 38.140625 51.859375 
Q 38.140625 56.9375 35.46875 59.734375 
Q 32.8125 62.546875 27.34375 62.546875 
Q 22.5625 62.546875 19.484375 59.78125 
Q 16.40625 57.03125 16.40625 52.59375 
L 4.546875 52.59375 
Q 4.546875 58.0625 7.453125 62.546875 
Q 10.359375 67.046875 15.546875 69.5625 
Q 20.75 72.078125 27.203125 72.078125 
Q 37.84375 72.078125 43.921875 66.71875 
Q 50 61.375 50 51.859375 
Q 50 47.078125 46.9375 42.84375 
Q 43.890625 38.625 39.0625 36.46875 
Q 44.921875 34.46875 47.96875 30.171875 
Q 51.03125 25.875 51.03125 19.921875 
Q 51.03125 10.359375 44.453125 4.6875 
Q 37.890625 -0.984375 27.203125 -0.984375 
Q 16.9375 -0.984375 10.390625 4.484375 
Q 3.859375 9.96875 3.859375 19.046875 
L 15.71875 19.046875 
Q 15.71875 14.359375 18.859375 11.421875 
Q 22.015625 8.5 27.34375 8.5 
Q 32.859375 8.5 36.03125 11.421875 
Q 39.203125 14.359375 39.203125 19.921875 
Q 39.203125 25.53125 35.875 28.5625 
Q 32.5625 31.59375 26.03125 31.59375 
L 19.046875 31.59375 
z
" id="Roboto-Medium-51"/>
        <path d="M 45.453125 25.34375 
L 54.296875 25.34375 
L 54.296875 15.828125 
L 45.453125 15.828125 
L 45.453125 0 
L 33.59375 0 
L 33.59375 15.828125 
L 2.875 15.828125 
L 2.546875 23.046875 
L 33.203125 71.09375 
L 45.453125 71.09375 
z
M 14.984375 25.34375 
L 33.59375 25.34375 
L 33.59375 55.03125 
L 32.71875 53.46875 
z
" id="Roboto-Medium-52"/>
       </defs>
       <use xlink:href="#Roboto-Medium-48"/>
       <use x="56.835938" xlink:href="#Roboto-Medium-51"/>
       <use x="113.671875" xlink:href="#Roboto-Medium-45"/>
       <use x="146.484375" xlink:href="#Roboto-Medium-48"/>
       <use x="203.320312" xlink:href="#Roboto-Medium-52"/>
      </g>
     </g>
    </g>
    <g id="xtick_3">
     <g id="line2d_5">
      <path clip-path="url(#p2688dacd9f)" d="M 153.712711 420 
L 153.712711 28.32 
" style="fill:none;stroke:#cbcbcb;"/>
     </g>
     <g id="line2d_6"/>
     <g id="text_3">
      <!-- 03-18 -->
      <g transform="translate(120.744778 450.806392)rotate(-30)scale(0.14 -0.14)">
       <defs>
        <path d="M 50.09375 52.34375 
Q 50.09375 47.125 47.40625 43.046875 
Q 44.734375 38.96875 40.09375 36.625 
Q 45.65625 34.03125 48.65625 29.53125 
Q 51.65625 25.046875 51.65625 19.390625 
Q 51.65625 10.015625 45.3125 4.515625 
Q 38.96875 -0.984375 28.421875 -0.984375 
Q 17.828125 -0.984375 11.453125 4.53125 
Q 5.078125 10.0625 5.078125 19.390625 
Q 5.078125 25.09375 8.109375 29.640625 
Q 11.140625 34.1875 16.609375 36.625 
Q 12.015625 38.96875 9.34375 43.046875 
Q 6.6875 47.125 6.6875 52.34375 
Q 6.6875 61.421875 12.546875 66.75 
Q 18.40625 72.078125 28.375 72.078125 
Q 38.375 72.078125 44.234375 66.75 
Q 50.09375 61.421875 50.09375 52.34375 
z
M 39.796875 19.96875 
Q 39.796875 25.25 36.640625 28.484375 
Q 33.5 31.734375 28.3125 31.734375 
Q 23.140625 31.734375 20.03125 28.515625 
Q 16.9375 25.296875 16.9375 19.96875 
Q 16.9375 14.75 19.984375 11.625 
Q 23.046875 8.5 28.421875 8.5 
Q 33.796875 8.5 36.796875 11.515625 
Q 39.796875 14.546875 39.796875 19.96875 
z
M 38.28125 51.90625 
Q 38.28125 56.546875 35.59375 59.546875 
Q 32.90625 62.546875 28.359375 62.546875 
Q 23.828125 62.546875 21.1875 59.6875 
Q 18.5625 56.84375 18.5625 51.90625 
Q 18.5625 47.015625 21.21875 44.140625 
Q 23.875 41.265625 28.40625 41.265625 
Q 32.953125 41.265625 35.609375 44.140625 
Q 38.28125 47.015625 38.28125 51.90625 
z
" id="Roboto-Medium-56"/>
       </defs>
       <use xlink:href="#Roboto-Medium-48"/>
       <use x="56.835938" xlink:href="#Roboto-Medium-51"/>
       <use x="113.671875" xlink:href="#Roboto-Medium-45"/>
       <use x="146.484375" xlink:href="#Roboto-Medium-49"/>
       <use x="203.320312" xlink:href="#Roboto-Medium-56"/>
      </g>
     </g>
    </g>
    <g id="xtick_4">
     <g id="line2d_7">
      <path clip-path="url(#p2688dacd9f)" d="M 176.490893 420 
L 176.490893 28.32 
" style="fill:none;stroke:#cbcbcb;"/>
     </g>
     <g id="line2d_8"/>
     <g id="text_4">
      <!-- 04-01 -->
      <g transform="translate(143.52296 450.806392)rotate(-30)scale(0.14 -0.14)">
       <use xlink:href="#Roboto-Medium-48"/>
       <use x="56.835938" xlink:href="#Roboto-Medium-52"/>
       <use x="113.671875" xlink:href="#Roboto-Medium-45"/>
       <use x="146.484375" xlink:href="#Roboto-Medium-48"/>
       <use x="203.320312" xlink:href="#Roboto-Medium-49"/>
      </g>
     </g>
    </g>
    <g id="xtick_5">
     <g id="line2d_9">
      <path clip-path="url(#p2688dacd9f)" d="M 199.269075 420 
L 199.269075 28.32 
" style="fill:none;stroke:#cbcbcb;"/>
     </g>
     <g id="line2d_10"/>
     <g id="text_5">
      <!-- 04-15 -->
      <g transform="translate(166.301142 450.806392)rotate(-30)scale(0.14 -0.14)">
       <defs>
        <path d="M 8.5 35.25 
L 12.359375 71.09375 
L 50.53125 71.09375 
L 50.53125 60.84375 
L 22.21875 60.84375 
L 20.265625 43.84375 
Q 25.203125 46.6875 31.390625 46.6875 
Q 41.546875 46.6875 47.1875 40.1875 
Q 52.828125 33.6875 52.828125 22.703125 
Q 52.828125 11.859375 46.578125 5.4375 
Q 40.328125 -0.984375 29.4375 -0.984375 
Q 19.671875 -0.984375 13.25 4.5625 
Q 6.84375 10.109375 6.296875 19.1875 
L 17.78125 19.1875 
Q 18.453125 14.015625 21.484375 11.25 
Q 24.515625 8.5 29.390625 8.5 
Q 34.859375 8.5 37.90625 12.40625 
Q 40.96875 16.3125 40.96875 23.046875 
Q 40.96875 29.546875 37.59375 33.328125 
Q 34.234375 37.109375 28.328125 37.109375 
Q 25.09375 37.109375 22.84375 36.25 
Q 20.609375 35.40625 17.96875 32.90625 
z
" id="Roboto-Medium-53"/>
       </defs>
       <use xlink:href="#Roboto-Medium-48"/>
       <use x="56.835938" xlink:href="#Roboto-Medium-52"/>
       <use x="113.671875" xlink:href="#Roboto-Medium-45"/>
       <use x="146.484375" xlink:href="#Roboto-Medium-49"/>
       <use x="203.320312" xlink:href="#Roboto-Medium-53"/>
      </g>
     </g>
    </g>
    <g id="xtick_6">
     <g id="line2d_11">
      <path clip-path="url(#p2688dacd9f)" d="M 222.047256 420 
L 222.047256 28.32 
" style="fill:none;stroke:#cbcbcb;"/>
     </g>
     <g id="line2d_12"/>
     <g id="text_6">
      <!-- 04-29 -->
      <g transform="translate(189.079324 450.806392)rotate(-30)scale(0.14 -0.14)">
       <use xlink:href="#Roboto-Medium-48"/>
       <use x="56.835938" xlink:href="#Roboto-Medium-52"/>
       <use x="113.671875" xlink:href="#Roboto-Medium-45"/>
       <use x="146.484375" xlink:href="#Roboto-Medium-50"/>
       <use x="203.320312" xlink:href="#Roboto-Medium-57"/>
      </g>
     </g>
    </g>
    <g id="xtick_7">
     <g id="line2d_13">
      <path clip-path="url(#p2688dacd9f)" d="M 244.825438 420 
L 244.825438 28.32 
" style="fill:none;stroke:#cbcbcb;"/>
     </g>
     <g id="line2d_14"/>
     <g id="text_7">
      <!-- 05-13 -->
      <g transform="translate(211.857505 450.806392)rotate(-30)scale(0.14 -0.14)">
       <use xlink:href="#Roboto-Medium-48"/>
       <use x="56.835938" xlink:href="#Roboto-Medium-53"/>
       <use x="113.671875" xlink:href="#Roboto-Medium-45"/>
       <use x="146.484375" xlink:href="#Roboto-Medium-49"/>
       <use x="203.320312" xlink:href="#Roboto-Medium-51"/>
      </g>
     </g>
    </g>
    <g id="xtick_8">
     <g id="line2d_15">
      <path clip-path="url(#p2688dacd9f)" d="M 267.60362 420 
L 267.60362 28.32 
" style="fill:none;stroke:#cbcbcb;"/>
     </g>
     <g id="line2d_16"/>
     <g id="text_8">
      <!-- 05-27 -->
      <g transform="translate(234.635687 450.806392)rotate(-30)scale(0.14 -0.14)">
       <defs>
        <path d="M 52.640625 64.5 
L 24.21875 0 
L 11.765625 0 
L 40.140625 61.578125 
L 3.375 61.578125 
L 3.375 71.09375 
L 52.640625 71.09375 
z
" id="Roboto-Medium-55"/>
       </defs>
       <use xlink:href="#Roboto-Medium-48"/>
       <use x="56.835938" xlink:href="#Roboto-Medium-53"/>
       <use x="113.671875" xlink:href="#Roboto-Medium-45"/>
       <use x="146.484375" xlink:href="#Roboto-Medium-50"/>
       <use x="203.320312" xlink:href="#Roboto-Medium-55"/>
      </g>
     </g>
    </g>
    <g id="xtick_9">
     <g id="line2d_17">
      <path clip-path="url(#p2688dacd9f)" d="M 290.381802 420 
L 290.381802 28.32 
" style="fill:none;stroke:#cbcbcb;"/>
     </g>
     <g id="line2d_18"/>
     <g id="text_9">
      <!-- 06-10 -->
      <g transform="translate(257.413869 450.806392)rotate(-30)scale(0.14 -0.14)">
       <defs>
        <path d="M 42.234375 71.4375 
L 42.234375 61.625 
L 40.765625 61.625 
Q 30.8125 61.46875 24.84375 56.140625 
Q 18.890625 50.828125 17.78125 41.0625 
Q 23.484375 47.078125 32.375 47.078125 
Q 41.796875 47.078125 47.234375 40.4375 
Q 52.6875 33.796875 52.6875 23.296875 
Q 52.6875 12.453125 46.3125 5.734375 
Q 39.9375 -0.984375 29.59375 -0.984375 
Q 18.953125 -0.984375 12.328125 6.875 
Q 5.71875 14.75 5.71875 27.484375 
L 5.71875 31.546875 
Q 5.71875 50.25 14.8125 60.84375 
Q 23.921875 71.4375 41.015625 71.4375 
z
M 29.5 37.5 
Q 25.59375 37.5 22.34375 35.296875 
Q 19.09375 33.109375 17.578125 29.4375 
L 17.578125 25.828125 
Q 17.578125 17.921875 20.890625 13.25 
Q 24.21875 8.59375 29.484375 8.59375 
Q 34.765625 8.59375 37.84375 12.546875 
Q 40.921875 16.5 40.921875 22.9375 
Q 40.921875 29.390625 37.796875 33.4375 
Q 34.671875 37.5 29.5 37.5 
z
" id="Roboto-Medium-54"/>
       </defs>
       <use xlink:href="#Roboto-Medium-48"/>
       <use x="56.835938" xlink:href="#Roboto-Medium-54"/>
       <use x="113.671875" xlink:href="#Roboto-Medium-45"/>
       <use x="146.484375" xlink:href="#Roboto-Medium-49"/>
       <use x="203.320312" xlink:href="#Roboto-Medium-48"/>
      </g>
     </g>
    </g>
    <g id="xtick_10">
     <g id="line2d_19">
      <path clip-path="url(#p2688dacd9f)" d="M 313.159984 420 
L 313.159984 28.32 
" style="fill:none;stroke:#cbcbcb;"/>
     </g>
     <g id="line2d_20"/>
     <g id="text_10">
      <!-- 06-24 -->
      <g transform="translate(280.192051 450.806392)rotate(-30)scale(0.14 -0.14)">
       <use xlink:href="#Roboto-Medium-48"/>
       <use x="56.835938" xlink:href="#Roboto-Medium-54"/>
       <use x="113.671875" xlink:href="#Roboto-Medium-45"/>
       <use x="146.484375" xlink:href="#Roboto-Medium-50"/>
       <use x="203.320312" xlink:href="#Roboto-Medium-52"/>
      </g>
     </g>
    </g>
    <g id="xtick_11">
     <g id="line2d_21">
      <path clip-path="url(#p2688dacd9f)" d="M 335.938166 420 
L 335.938166 28.32 
" style="fill:none;stroke:#cbcbcb;"/>
     </g>
     <g id="line2d_22"/>
     <g id="text_11">
      <!-- 07-08 -->
      <g transform="translate(302.970233 450.806392)rotate(-30)scale(0.14 -0.14)">
       <use xlink:href="#Roboto-Medium-48"/>
       <use x="56.835938" xlink:href="#Roboto-Medium-55"/>
       <use x="113.671875" xlink:href="#Roboto-Medium-45"/>
       <use x="146.484375" xlink:href="#Roboto-Medium-48"/>
       <use x="203.320312" xlink:href="#Roboto-Medium-56"/>
      </g>
     </g>
    </g>
    <g id="xtick_12">
     <g id="line2d_23">
      <path clip-path="url(#p2688dacd9f)" d="M 358.716347 420 
L 358.716347 28.32 
" style="fill:none;stroke:#cbcbcb;"/>
     </g>
     <g id="line2d_24"/>
     <g id="text_12">
      <!-- 07-22 -->
      <g transform="translate(325.748415 450.806392)rotate(-30)scale(0.14 -0.14)">
       <use xlink:href="#Roboto-Medium-48"/>
       <use x="56.835938" xlink:href="#Roboto-Medium-55"/>
       <use x="113.671875" xlink:href="#Roboto-Medium-45"/>
       <use x="146.484375" xlink:href="#Roboto-Medium-50"/>
       <use x="203.320312" xlink:href="#Roboto-Medium-50"/>
      </g>
     </g>
    </g>
    <g id="xtick_13">
     <g id="line2d_25">
      <path clip-path="url(#p2688dacd9f)" d="M 381.494529 420 
L 381.494529 28.32 
" style="fill:none;stroke:#cbcbcb;"/>
     </g>
     <g id="line2d_26"/>
     <g id="text_13">
      <!-- 08-05 -->
      <g transform="translate(348.526596 450.806392)rotate(-30)scale(0.14 -0.14)">
       <use xlink:href="#Roboto-Medium-48"/>
       <use x="56.835938" xlink:href="#Roboto-Medium-56"/>
       <use x="113.671875" xlink:href="#Roboto-Medium-45"/>
       <use x="146.484375" xlink:href="#Roboto-Medium-48"/>
       <use x="203.320312" xlink:href="#Roboto-Medium-53"/>
      </g>
     </g>
    </g>
    <g id="xtick_14">
     <g id="line2d_27">
      <path clip-path="url(#p2688dacd9f)" d="M 404.272711 420 
L 404.272711 28.32 
" style="fill:none;stroke:#cbcbcb;"/>
     </g>
     <g id="line2d_28"/>
     <g id="text_14">
      <!-- 08-19 -->
      <g transform="translate(371.304778 450.806392)rotate(-30)scale(0.14 -0.14)">
       <use xlink:href="#Roboto-Medium-48"/>
       <use x="56.835938" xlink:href="#Roboto-Medium-56"/>
       <use x="113.671875" xlink:href="#Roboto-Medium-45"/>
       <use x="146.484375" xlink:href="#Roboto-Medium-49"/>
       <use x="203.320312" xlink:href="#Roboto-Medium-57"/>
      </g>
     </g>
    </g>
    <g id="xtick_15">
     <g id="line2d_29">
      <path clip-path="url(#p2688dacd9f)" d="M 427.050893 420 
L 427.050893 28.32 
" style="fill:none;stroke:#cbcbcb;"/>
     </g>
     <g id="line2d_30"/>
     <g id="text_15">
      <!-- 09-02 -->
      <g transform="translate(394.08296 450.806392)rotate(-30)scale(0.14 -0.14)">
       <use xlink:href="#Roboto-Medium-48"/>
       <use x="56.835938" xlink:href="#Roboto-Medium-57"/>
       <use x="113.671875" xlink:href="#Roboto-Medium-45"/>
       <use x="146.484375" xlink:href="#Roboto-Medium-48"/>
       <use x="203.320312" xlink:href="#Roboto-Medium-50"/>
      </g>
     </g>
    </g>
    <g id="xtick_16">
     <g id="line2d_31">
      <path clip-path="url(#p2688dacd9f)" d="M 449.829075 420 
L 449.829075 28.32 
" style="fill:none;stroke:#cbcbcb;"/>
     </g>
     <g id="line2d_32"/>
     <g id="text_16">
      <!-- 09-16 -->
      <g transform="translate(416.861142 450.806392)rotate(-30)scale(0.14 -0.14)">
       <use xlink:href="#Roboto-Medium-48"/>
       <use x="56.835938" xlink:href="#Roboto-Medium-57"/>
       <use x="113.671875" xlink:href="#Roboto-Medium-45"/>
       <use x="146.484375" xlink:href="#Roboto-Medium-49"/>
       <use x="203.320312" xlink:href="#Roboto-Medium-54"/>
      </g>
     </g>
    </g>
    <g id="xtick_17">
     <g id="line2d_33">
      <path clip-path="url(#p2688dacd9f)" d="M 472.607256 420 
L 472.607256 28.32 
" style="fill:none;stroke:#cbcbcb;"/>
     </g>
     <g id="line2d_34"/>
     <g id="text_17">
      <!-- 09-30 -->
      <g transform="translate(439.639324 450.806392)rotate(-30)scale(0.14 -0.14)">
       <use xlink:href="#Roboto-Medium-48"/>
       <use x="56.835938" xlink:href="#Roboto-Medium-57"/>
       <use x="113.671875" xlink:href="#Roboto-Medium-45"/>
       <use x="146.484375" xlink:href="#Roboto-Medium-51"/>
       <use x="203.320312" xlink:href="#Roboto-Medium-48"/>
      </g>
     </g>
    </g>
    <g id="xtick_18">
     <g id="line2d_35">
      <path clip-path="url(#p2688dacd9f)" d="M 495.385438 420 
L 495.385438 28.32 
" style="fill:none;stroke:#cbcbcb;"/>
     </g>
     <g id="line2d_36"/>
     <g id="text_18">
      <!-- 10-14 -->
      <g transform="translate(462.417505 450.806392)rotate(-30)scale(0.14 -0.14)">
       <use xlink:href="#Roboto-Medium-49"/>
       <use x="56.835938" xlink:href="#Roboto-Medium-48"/>
       <use x="113.671875" xlink:href="#Roboto-Medium-45"/>
       <use x="146.484375" xlink:href="#Roboto-Medium-49"/>
       <use x="203.320312" xlink:href="#Roboto-Medium-52"/>
      </g>
     </g>
    </g>
    <g id="xtick_19">
     <g id="line2d_37">
      <path clip-path="url(#p2688dacd9f)" d="M 518.16362 420 
L 518.16362 28.32 
" style="fill:none;stroke:#cbcbcb;"/>
     </g>
     <g id="line2d_38"/>
     <g id="text_19">
      <!-- 10-28 -->
      <g transform="translate(485.195687 450.806392)rotate(-30)scale(0.14 -0.14)">
       <use xlink:href="#Roboto-Medium-49"/>
       <use x="56.835938" xlink:href="#Roboto-Medium-48"/>
       <use x="113.671875" xlink:href="#Roboto-Medium-45"/>
       <use x="146.484375" xlink:href="#Roboto-Medium-50"/>
       <use x="203.320312" xlink:href="#Roboto-Medium-56"/>
      </g>
     </g>
    </g>
    <g id="xtick_20">
     <g id="line2d_39">
      <path clip-path="url(#p2688dacd9f)" d="M 540.941802 420 
L 540.941802 28.32 
" style="fill:none;stroke:#cbcbcb;"/>
     </g>
     <g id="line2d_40"/>
     <g id="text_20">
      <!-- 11-11 -->
      <g transform="translate(507.973869 450.806392)rotate(-30)scale(0.14 -0.14)">
       <use xlink:href="#Roboto-Medium-49"/>
       <use x="56.835938" xlink:href="#Roboto-Medium-49"/>
       <use x="113.671875" xlink:href="#Roboto-Medium-45"/>
       <use x="146.484375" xlink:href="#Roboto-Medium-49"/>
       <use x="203.320312" xlink:href="#Roboto-Medium-49"/>
      </g>
     </g>
    </g>
    <g id="xtick_21">
     <g id="line2d_41">
      <path clip-path="url(#p2688dacd9f)" d="M 563.719984 420 
L 563.719984 28.32 
" style="fill:none;stroke:#cbcbcb;"/>
     </g>
     <g id="line2d_42"/>
     <g id="text_21">
      <!-- 11-25 -->
      <g transform="translate(530.752051 450.806392)rotate(-30)scale(0.14 -0.14)">
       <use xlink:href="#Roboto-Medium-49"/>
       <use x="56.835938" xlink:href="#Roboto-Medium-49"/>
       <use x="113.671875" xlink:href="#Roboto-Medium-45"/>
       <use x="146.484375" xlink:href="#Roboto-Medium-50"/>
       <use x="203.320312" xlink:href="#Roboto-Medium-53"/>
      </g>
     </g>
    </g>
    <g id="xtick_22">
     <g id="line2d_43">
      <path clip-path="url(#p2688dacd9f)" d="M 586.498166 420 
L 586.498166 28.32 
" style="fill:none;stroke:#cbcbcb;"/>
     </g>
     <g id="line2d_44"/>
     <g id="text_22">
      <!-- 12-09 -->
      <g transform="translate(553.530233 450.806392)rotate(-30)scale(0.14 -0.14)">
       <use xlink:href="#Roboto-Medium-49"/>
       <use x="56.835938" xlink:href="#Roboto-Medium-50"/>
       <use x="113.671875" xlink:href="#Roboto-Medium-45"/>
       <use x="146.484375" xlink:href="#Roboto-Medium-48"/>
       <use x="203.320312" xlink:href="#Roboto-Medium-57"/>
      </g>
     </g>
    </g>
    <g id="xtick_23">
     <g id="line2d_45">
      <path clip-path="url(#p2688dacd9f)" d="M 609.276347 420 
L 609.276347 28.32 
" style="fill:none;stroke:#cbcbcb;"/>
     </g>
     <g id="line2d_46"/>
     <g id="text_23">
      <!-- 12-23 -->
      <g transform="translate(576.308415 450.806392)rotate(-30)scale(0.14 -0.14)">
       <use xlink:href="#Roboto-Medium-49"/>
       <use x="56.835938" xlink:href="#Roboto-Medium-50"/>
       <use x="113.671875" xlink:href="#Roboto-Medium-45"/>
       <use x="146.484375" xlink:href="#Roboto-Medium-50"/>
       <use x="203.320312" xlink:href="#Roboto-Medium-51"/>
      </g>
     </g>
    </g>
    <g id="xtick_24">
     <g id="line2d_47">
      <path clip-path="url(#p2688dacd9f)" d="M 632.054529 420 
L 632.054529 28.32 
" style="fill:none;stroke:#cbcbcb;"/>
     </g>
     <g id="line2d_48"/>
     <g id="text_24">
      <!-- 01-06 -->
      <g transform="translate(599.086596 450.806392)rotate(-30)scale(0.14 -0.14)">
       <use xlink:href="#Roboto-Medium-48"/>
       <use x="56.835938" xlink:href="#Roboto-Medium-49"/>
       <use x="113.671875" xlink:href="#Roboto-Medium-45"/>
       <use x="146.484375" xlink:href="#Roboto-Medium-48"/>
       <use x="203.320312" xlink:href="#Roboto-Medium-54"/>
      </g>
     </g>
    </g>
    <g id="xtick_25">
     <g id="line2d_49">
      <path clip-path="url(#p2688dacd9f)" d="M 654.832711 420 
L 654.832711 28.32 
" style="fill:none;stroke:#cbcbcb;"/>
     </g>
     <g id="line2d_50"/>
     <g id="text_25">
      <!-- 01-20 -->
      <g transform="translate(621.864778 450.806392)rotate(-30)scale(0.14 -0.14)">
       <use xlink:href="#Roboto-Medium-48"/>
       <use x="56.835938" xlink:href="#Roboto-Medium-49"/>
       <use x="113.671875" xlink:href="#Roboto-Medium-45"/>
       <use x="146.484375" xlink:href="#Roboto-Medium-50"/>
       <use x="203.320312" xlink:href="#Roboto-Medium-48"/>
      </g>
     </g>
    </g>
    <g id="xtick_26">
     <g id="line2d_51">
      <path clip-path="url(#p2688dacd9f)" d="M 677.610893 420 
L 677.610893 28.32 
" style="fill:none;stroke:#cbcbcb;"/>
     </g>
     <g id="line2d_52"/>
     <g id="text_26">
      <!-- 02-03 -->
      <g transform="translate(644.64296 450.806392)rotate(-30)scale(0.14 -0.14)">
       <use xlink:href="#Roboto-Medium-48"/>
       <use x="56.835938" xlink:href="#Roboto-Medium-50"/>
       <use x="113.671875" xlink:href="#Roboto-Medium-45"/>
       <use x="146.484375" xlink:href="#Roboto-Medium-48"/>
       <use x="203.320312" xlink:href="#Roboto-Medium-51"/>
      </g>
     </g>
    </g>
    <g id="xtick_27">
     <g id="line2d_53">
      <path clip-path="url(#p2688dacd9f)" d="M 700.389075 420 
L 700.389075 28.32 
" style="fill:none;stroke:#cbcbcb;"/>
     </g>
     <g id="line2d_54"/>
     <g id="text_27">
      <!-- 02-17 -->
      <g transform="translate(667.421142 450.806392)rotate(-30)scale(0.14 -0.14)">
       <use xlink:href="#Roboto-Medium-48"/>
       <use x="56.835938" xlink:href="#Roboto-Medium-50"/>
       <use x="113.671875" xlink:href="#Roboto-Medium-45"/>
       <use x="146.484375" xlink:href="#Roboto-Medium-49"/>
       <use x="203.320312" xlink:href="#Roboto-Medium-55"/>
      </g>
     </g>
    </g>
    <g id="text_28">
     <!-- Dates -->
     <g transform="translate(393.7225 466.269151)scale(0.12 -0.12)">
      <defs>
       <path d="M 8.25 0 
L 8.25 71.09375 
L 28.328125 71.09375 
Q 37.59375 71.09375 44.71875 66.984375 
Q 51.859375 62.890625 55.734375 55.3125 
Q 59.625 47.75 59.671875 37.9375 
L 59.671875 33.40625 
Q 59.671875 23.34375 55.78125 15.765625 
Q 51.90625 8.203125 44.703125 4.140625 
Q 37.5 0.09375 27.9375 0 
z
M 17.625 63.375 
L 17.625 7.671875 
L 27.484375 7.671875 
Q 38.328125 7.671875 44.359375 14.40625 
Q 50.390625 21.140625 50.390625 33.59375 
L 50.390625 37.75 
Q 50.390625 49.859375 44.703125 56.5625 
Q 39.015625 63.28125 28.5625 63.375 
z
" id="Roboto-Regular-68"/>
       <path d="M 39.453125 0 
Q 38.671875 1.5625 38.1875 5.5625 
Q 31.890625 -0.984375 23.140625 -0.984375 
Q 15.328125 -0.984375 10.328125 3.4375 
Q 5.328125 7.859375 5.328125 14.65625 
Q 5.328125 22.90625 11.59375 27.46875 
Q 17.875 32.03125 29.25 32.03125 
L 38.03125 32.03125 
L 38.03125 36.1875 
Q 38.03125 40.921875 35.203125 43.71875 
Q 32.375 46.53125 26.859375 46.53125 
Q 22.015625 46.53125 18.75 44.09375 
Q 15.484375 41.65625 15.484375 38.1875 
L 6.390625 38.1875 
Q 6.390625 42.140625 9.203125 45.828125 
Q 12.015625 49.515625 16.8125 51.65625 
Q 21.625 53.8125 27.390625 53.8125 
Q 36.53125 53.8125 41.703125 49.234375 
Q 46.875 44.671875 47.078125 36.671875 
L 47.078125 12.359375 
Q 47.078125 5.078125 48.921875 0.78125 
L 48.921875 0 
z
M 24.46875 6.890625 
Q 28.71875 6.890625 32.515625 9.078125 
Q 36.328125 11.28125 38.03125 14.796875 
L 38.03125 25.640625 
L 30.953125 25.640625 
Q 14.359375 25.640625 14.359375 15.921875 
Q 14.359375 11.671875 17.1875 9.28125 
Q 20.015625 6.890625 24.46875 6.890625 
z
" id="Roboto-Regular-97"/>
       <path d="M 19.09375 65.625 
L 19.09375 52.828125 
L 28.953125 52.828125 
L 28.953125 45.84375 
L 19.09375 45.84375 
L 19.09375 13.09375 
Q 19.09375 9.90625 20.40625 8.3125 
Q 21.734375 6.734375 24.90625 6.734375 
Q 26.46875 6.734375 29.203125 7.328125 
L 29.203125 0 
Q 25.640625 -0.984375 22.265625 -0.984375 
Q 16.21875 -0.984375 13.140625 2.671875 
Q 10.0625 6.34375 10.0625 13.09375 
L 10.0625 45.84375 
L 0.4375 45.84375 
L 0.4375 52.828125 
L 10.0625 52.828125 
L 10.0625 65.625 
z
" id="Roboto-Regular-116"/>
       <path d="M 28.765625 -0.984375 
Q 18.015625 -0.984375 11.28125 6.078125 
Q 4.546875 13.140625 4.546875 24.953125 
L 4.546875 26.609375 
Q 4.546875 34.46875 7.546875 40.640625 
Q 10.546875 46.828125 15.9375 50.3125 
Q 21.34375 53.8125 27.640625 53.8125 
Q 37.9375 53.8125 43.640625 47.015625 
Q 49.359375 40.234375 49.359375 27.59375 
L 49.359375 23.828125 
L 13.578125 23.828125 
Q 13.765625 16.015625 18.140625 11.203125 
Q 22.515625 6.390625 29.25 6.390625 
Q 34.03125 6.390625 37.34375 8.34375 
Q 40.671875 10.296875 43.171875 13.53125 
L 48.6875 9.234375 
Q 42.046875 -0.984375 28.765625 -0.984375 
z
M 27.640625 46.390625 
Q 22.171875 46.390625 18.453125 42.40625 
Q 14.75 38.421875 13.875 31.25 
L 40.328125 31.25 
L 40.328125 31.9375 
Q 39.9375 38.8125 36.609375 42.59375 
Q 33.296875 46.390625 27.640625 46.390625 
z
" id="Roboto-Regular-101"/>
       <path d="M 37.59375 14.015625 
Q 37.59375 17.671875 34.828125 19.703125 
Q 32.078125 21.734375 25.21875 23.1875 
Q 18.359375 24.65625 14.328125 26.703125 
Q 10.296875 28.765625 8.375 31.59375 
Q 6.453125 34.421875 6.453125 38.328125 
Q 6.453125 44.828125 11.9375 49.3125 
Q 17.4375 53.8125 25.984375 53.8125 
Q 34.96875 53.8125 40.546875 49.171875 
Q 46.140625 44.53125 46.140625 37.3125 
L 37.0625 37.3125 
Q 37.0625 41.015625 33.90625 43.703125 
Q 30.765625 46.390625 25.984375 46.390625 
Q 21.046875 46.390625 18.265625 44.234375 
Q 15.484375 42.09375 15.484375 38.625 
Q 15.484375 35.359375 18.0625 33.6875 
Q 20.65625 32.03125 27.421875 30.515625 
Q 34.1875 29 38.375 26.90625 
Q 42.578125 24.8125 44.59375 21.84375 
Q 46.625 18.890625 46.625 14.65625 
Q 46.625 7.5625 40.953125 3.28125 
Q 35.296875 -0.984375 26.265625 -0.984375 
Q 19.921875 -0.984375 15.03125 1.265625 
Q 10.15625 3.515625 7.390625 7.546875 
Q 4.640625 11.578125 4.640625 16.265625 
L 13.671875 16.265625 
Q 13.921875 11.71875 17.3125 9.046875 
Q 20.703125 6.390625 26.265625 6.390625 
Q 31.390625 6.390625 34.484375 8.46875 
Q 37.59375 10.546875 37.59375 14.015625 
z
" id="Roboto-Regular-115"/>
      </defs>
      <use xlink:href="#Roboto-Regular-68"/>
      <use x="65.576172" xlink:href="#Roboto-Regular-97"/>
      <use x="119.970703" xlink:href="#Roboto-Regular-116"/>
      <use x="152.636719" xlink:href="#Roboto-Regular-101"/>
      <use x="205.615234" xlink:href="#Roboto-Regular-115"/>
     </g>
    </g>
   </g>
   <g id="matplotlib.axis_2">
    <g id="ytick_1">
     <g id="line2d_55">
      <path clip-path="url(#p2688dacd9f)" d="M 95.95375 403.234541 
L 722.35375 403.234541 
" style="fill:none;stroke:#cbcbcb;"/>
     </g>
     <g id="line2d_56"/>
     <g id="text_29">
      <!-- 1 -->
      <g transform="translate(84.495625 408.484541)scale(0.14 -0.14)">
       <use xlink:href="#Roboto-Medium-49"/>
      </g>
     </g>
    </g>
    <g id="ytick_2">
     <g id="line2d_57">
      <path clip-path="url(#p2688dacd9f)" d="M 95.95375 349.675321 
L 722.35375 349.675321 
" style="fill:none;stroke:#cbcbcb;"/>
     </g>
     <g id="line2d_58"/>
     <g id="text_30">
      <!-- 10 -->
      <g transform="translate(76.5375 354.925321)scale(0.14 -0.14)">
       <use xlink:href="#Roboto-Medium-49"/>
       <use x="56.835938" xlink:href="#Roboto-Medium-48"/>
      </g>
     </g>
    </g>
    <g id="ytick_3">
     <g id="line2d_59">
      <path clip-path="url(#p2688dacd9f)" d="M 95.95375 296.116101 
L 722.35375 296.116101 
" style="fill:none;stroke:#cbcbcb;"/>
     </g>
     <g id="line2d_60"/>
     <g id="text_31">
      <!-- 100 -->
      <g transform="translate(68.579375 301.366101)scale(0.14 -0.14)">
       <use xlink:href="#Roboto-Medium-49"/>
       <use x="56.835938" xlink:href="#Roboto-Medium-48"/>
       <use x="113.671875" xlink:href="#Roboto-Medium-48"/>
      </g>
     </g>
    </g>
    <g id="ytick_4">
     <g id="line2d_61">
      <path clip-path="url(#p2688dacd9f)" d="M 95.95375 242.556881 
L 722.35375 242.556881 
" style="fill:none;stroke:#cbcbcb;"/>
     </g>
     <g id="line2d_62"/>
     <g id="text_32">
      <!-- 1,000 -->
      <g transform="translate(57.545625 247.806881)scale(0.14 -0.14)">
       <defs>
        <path d="M 7.765625 -16.015625 
L 1.375 -12.203125 
Q 4.203125 -7.765625 5.25 -4.46875 
Q 6.296875 -1.171875 6.34375 2.25 
L 6.34375 11.46875 
L 17.046875 11.46875 
L 17 2.9375 
Q 16.9375 -2.25 14.375 -7.4375 
Q 11.8125 -12.640625 7.765625 -16.015625 
z
" id="Roboto-Medium-44"/>
       </defs>
       <use xlink:href="#Roboto-Medium-49"/>
       <use x="56.835938" xlink:href="#Roboto-Medium-44"/>
       <use x="78.808594" xlink:href="#Roboto-Medium-48"/>
       <use x="135.644531" xlink:href="#Roboto-Medium-48"/>
       <use x="192.480469" xlink:href="#Roboto-Medium-48"/>
      </g>
     </g>
    </g>
    <g id="ytick_5">
     <g id="line2d_63">
      <path clip-path="url(#p2688dacd9f)" d="M 95.95375 188.99766 
L 722.35375 188.99766 
" style="fill:none;stroke:#cbcbcb;"/>
     </g>
     <g id="line2d_64"/>
     <g id="text_33">
      <!-- 10,000 -->
      <g transform="translate(49.5875 194.24766)scale(0.14 -0.14)">
       <use xlink:href="#Roboto-Medium-49"/>
       <use x="56.835938" xlink:href="#Roboto-Medium-48"/>
       <use x="113.671875" xlink:href="#Roboto-Medium-44"/>
       <use x="135.644531" xlink:href="#Roboto-Medium-48"/>
       <use x="192.480469" xlink:href="#Roboto-Medium-48"/>
       <use x="249.316406" xlink:href="#Roboto-Medium-48"/>
      </g>
     </g>
    </g>
    <g id="ytick_6">
     <g id="line2d_65">
      <path clip-path="url(#p2688dacd9f)" d="M 95.95375 135.43844 
L 722.35375 135.43844 
" style="fill:none;stroke:#cbcbcb;"/>
     </g>
     <g id="line2d_66"/>
     <g id="text_34">
      <!-- 100,000 -->
      <g transform="translate(41.629375 140.68844)scale(0.14 -0.14)">
       <use xlink:href="#Roboto-Medium-49"/>
       <use x="56.835938" xlink:href="#Roboto-Medium-48"/>
       <use x="113.671875" xlink:href="#Roboto-Medium-48"/>
       <use x="170.507812" xlink:href="#Roboto-Medium-44"/>
       <use x="192.480469" xlink:href="#Roboto-Medium-48"/>
       <use x="249.316406" xlink:href="#Roboto-Medium-48"/>
       <use x="306.152344" xlink:href="#Roboto-Medium-48"/>
      </g>
     </g>
    </g>
    <g id="ytick_7">
     <g id="line2d_67">
      <path clip-path="url(#p2688dacd9f)" d="M 95.95375 81.87922 
L 722.35375 81.87922 
" style="fill:none;stroke:#cbcbcb;"/>
     </g>
     <g id="line2d_68"/>
     <g id="text_35">
      <!-- 1,000,000 -->
      <g transform="translate(30.595625 87.12922)scale(0.14 -0.14)">
       <use xlink:href="#Roboto-Medium-49"/>
       <use x="56.835938" xlink:href="#Roboto-Medium-44"/>
       <use x="78.808594" xlink:href="#Roboto-Medium-48"/>
       <use x="135.644531" xlink:href="#Roboto-Medium-48"/>
       <use x="192.480469" xlink:href="#Roboto-Medium-48"/>
       <use x="249.316406" xlink:href="#Roboto-Medium-44"/>
       <use x="271.289062" xlink:href="#Roboto-Medium-48"/>
       <use x="328.125" xlink:href="#Roboto-Medium-48"/>
       <use x="384.960938" xlink:href="#Roboto-Medium-48"/>
      </g>
     </g>
    </g>
    <g id="ytick_8">
     <g id="line2d_69">
      <path clip-path="url(#p2688dacd9f)" d="M 95.95375 28.32 
L 722.35375 28.32 
" style="fill:none;stroke:#cbcbcb;"/>
     </g>
     <g id="line2d_70"/>
     <g id="text_36">
      <!-- 10,000,000 -->
      <g transform="translate(22.6375 33.57)scale(0.14 -0.14)">
       <use xlink:href="#Roboto-Medium-49"/>
       <use x="56.835938" xlink:href="#Roboto-Medium-48"/>
       <use x="113.671875" xlink:href="#Roboto-Medium-44"/>
       <use x="135.644531" xlink:href="#Roboto-Medium-48"/>
       <use x="192.480469" xlink:href="#Roboto-Medium-48"/>
       <use x="249.316406" xlink:href="#Roboto-Medium-48"/>
       <use x="306.152344" xlink:href="#Roboto-Medium-44"/>
       <use x="328.125" xlink:href="#Roboto-Medium-48"/>
       <use x="384.960938" xlink:href="#Roboto-Medium-48"/>
       <use x="441.796875" xlink:href="#Roboto-Medium-48"/>
      </g>
     </g>
    </g>
    <g id="ytick_9">
     <g id="line2d_71"/>
    </g>
    <g id="ytick_10">
     <g id="line2d_72"/>
    </g>
    <g id="ytick_11">
     <g id="line2d_73"/>
    </g>
    <g id="ytick_12">
     <g id="line2d_74"/>
    </g>
    <g id="ytick_13">
     <g id="line2d_75"/>
    </g>
    <g id="ytick_14">
     <g id="line2d_76"/>
    </g>
    <g id="ytick_15">
     <g id="line2d_77"/>
    </g>
    <g id="ytick_16">
     <g id="line2d_78"/>
    </g>
    <g id="ytick_17">
     <g id="line2d_79"/>
    </g>
    <g id="ytick_18">
     <g id="line2d_80"/>
    </g>
    <g id="ytick_19">
     <g id="line2d_81"/>
    </g>
    <g id="ytick_20">
     <g id="line2d_82"/>
    </g>
    <g id="ytick_21">
     <g id="line2d_83"/>
    </g>
    <g id="ytick_22">
     <g id="line2d_84"/>
    </g>
    <g id="ytick_23">
     <g id="line2d_85"/>
    </g>
    <g id="ytick_24">
     <g id="line2d_86"/>
    </g>
    <g id="ytick_25">
     <g id="line2d_87"/>
    </g>
    <g id="ytick_26">
     <g id="line2d_88"/>
    </g>
    <g id="ytick_27">
     <g id="line2d_89"/>
    </g>
    <g id="ytick_28">
     <g id="line2d_90"/>
    </g>
    <g id="ytick_29">
     <g id="line2d_91"/>
    </g>
    <g id="ytick_30">
     <g id="line2d_92"/>
    </g>
    <g id="ytick_31">
     <g id="line2d_93"/>
    </g>
    <g id="ytick_32">
     <g id="line2d_94"/>
    </g>
    <g id="ytick_33">
     <g id="line2d_95"/>
    </g>
    <g id="ytick_34">
     <g id="line2d_96"/>
    </g>
    <g id="ytick_35">
     <g id="line2d_97"/>
    </g>
    <g id="ytick_36">
     <g id="line2d_98"/>
    </g>
    <g id="ytick_37">
     <g id="line2d_99"/>
    </g>
    <g id="ytick_38">
     <g id="line2d_100"/>
    </g>
    <g id="ytick_39">
     <g id="line2d_101"/>
    </g>
    <g id="ytick_40">
     <g id="line2d_102"/>
    </g>
    <g id="ytick_41">
     <g id="line2d_103"/>
    </g>
    <g id="ytick_42">
     <g id="line2d_104"/>
    </g>
    <g id="ytick_43">
     <g id="line2d_105"/>
    </g>
    <g id="ytick_44">
     <g id="line2d_106"/>
    </g>
    <g id="ytick_45">
     <g id="line2d_107"/>
    </g>
    <g id="ytick_46">
     <g id="line2d_108"/>
    </g>
    <g id="ytick_47">
     <g id="line2d_109"/>
    </g>
    <g id="ytick_48">
     <g id="line2d_110"/>
    </g>
    <g id="ytick_49">
     <g id="line2d_111"/>
    </g>
    <g id="ytick_50">
     <g id="line2d_112"/>
    </g>
    <g id="ytick_51">
     <g id="line2d_113"/>
    </g>
    <g id="ytick_52">
     <g id="line2d_114"/>
    </g>
    <g id="ytick_53">
     <g id="line2d_115"/>
    </g>
    <g id="ytick_54">
     <g id="line2d_116"/>
    </g>
    <g id="ytick_55">
     <g id="line2d_117"/>
    </g>
    <g id="ytick_56">
     <g id="line2d_118"/>
    </g>
    <g id="ytick_57">
     <g id="line2d_119"/>
    </g>
    <g id="ytick_58">
     <g id="line2d_120"/>
    </g>
    <g id="ytick_59">
     <g id="line2d_121"/>
    </g>
    <g id="ytick_60">
     <g id="line2d_122"/>
    </g>
    <g id="ytick_61">
     <g id="line2d_123"/>
    </g>
    <g id="ytick_62">
     <g id="line2d_124"/>
    </g>
    <g id="ytick_63">
     <g id="line2d_125"/>
    </g>
    <g id="ytick_64">
     <g id="line2d_126"/>
    </g>
    <g id="ytick_65">
     <g id="line2d_127"/>
    </g>
    <g id="ytick_66">
     <g id="line2d_128"/>
    </g>
    <g id="ytick_67">
     <g id="line2d_129"/>
    </g>
    <g id="ytick_68">
     <g id="line2d_130"/>
    </g>
    <g id="ytick_69">
     <g id="line2d_131"/>
    </g>
    <g id="text_37">
     <!-- Confirmed Cases -->
     <g transform="translate(16.2 270.209062)rotate(-90)scale(0.12 -0.12)">
      <defs>
       <path d="M 60.546875 22.5625 
Q 59.234375 11.28125 52.21875 5.140625 
Q 45.21875 -0.984375 33.59375 -0.984375 
Q 21 -0.984375 13.40625 8.046875 
Q 5.8125 17.09375 5.8125 32.234375 
L 5.8125 39.0625 
Q 5.8125 48.96875 9.34375 56.484375 
Q 12.890625 64.015625 19.375 68.046875 
Q 25.875 72.078125 34.421875 72.078125 
Q 45.75 72.078125 52.578125 65.75 
Q 59.421875 59.421875 60.546875 48.25 
L 51.125 48.25 
Q 49.90625 56.734375 45.828125 60.546875 
Q 41.75 64.359375 34.421875 64.359375 
Q 25.4375 64.359375 20.328125 57.71875 
Q 15.234375 51.078125 15.234375 38.8125 
L 15.234375 31.9375 
Q 15.234375 20.359375 20.0625 13.515625 
Q 24.90625 6.6875 33.59375 6.6875 
Q 41.40625 6.6875 45.578125 10.21875 
Q 49.75 13.765625 51.125 22.5625 
z
" id="Roboto-Regular-67"/>
       <path d="M 4.4375 26.90625 
Q 4.4375 34.671875 7.484375 40.875 
Q 10.546875 47.078125 15.984375 50.4375 
Q 21.4375 53.8125 28.421875 53.8125 
Q 39.203125 53.8125 45.875 46.34375 
Q 52.546875 38.875 52.546875 26.46875 
L 52.546875 25.828125 
Q 52.546875 18.109375 49.578125 11.984375 
Q 46.625 5.859375 41.125 2.4375 
Q 35.640625 -0.984375 28.515625 -0.984375 
Q 17.78125 -0.984375 11.109375 6.484375 
Q 4.4375 13.96875 4.4375 26.265625 
z
M 13.53125 25.828125 
Q 13.53125 17.046875 17.609375 11.71875 
Q 21.6875 6.390625 28.515625 6.390625 
Q 35.40625 6.390625 39.453125 11.78125 
Q 43.5 17.1875 43.5 26.90625 
Q 43.5 35.59375 39.375 40.984375 
Q 35.25 46.390625 28.421875 46.390625 
Q 21.734375 46.390625 17.625 41.0625 
Q 13.53125 35.75 13.53125 25.828125 
z
" id="Roboto-Regular-111"/>
       <path d="M 15.375 52.828125 
L 15.671875 46.1875 
Q 21.734375 53.8125 31.5 53.8125 
Q 48.25 53.8125 48.390625 34.90625 
L 48.390625 0 
L 39.359375 0 
L 39.359375 34.96875 
Q 39.3125 40.671875 36.75 43.40625 
Q 34.1875 46.140625 28.765625 46.140625 
Q 24.359375 46.140625 21.03125 43.796875 
Q 17.71875 41.453125 15.875 37.640625 
L 15.875 0 
L 6.84375 0 
L 6.84375 52.828125 
z
" id="Roboto-Regular-110"/>
       <path d="M 11.28125 0 
L 11.28125 45.84375 
L 2.9375 45.84375 
L 2.9375 52.828125 
L 11.28125 52.828125 
L 11.28125 58.25 
Q 11.28125 66.75 15.8125 71.390625 
Q 20.359375 76.03125 28.65625 76.03125 
Q 31.78125 76.03125 34.859375 75.203125 
L 34.375 67.875 
Q 32.078125 68.3125 29.5 68.3125 
Q 25.09375 68.3125 22.703125 65.75 
Q 20.3125 63.1875 20.3125 58.40625 
L 20.3125 52.828125 
L 31.59375 52.828125 
L 31.59375 45.84375 
L 20.3125 45.84375 
L 20.3125 0 
z
" id="Roboto-Regular-102"/>
       <path d="M 16.65625 0 
L 7.625 0 
L 7.625 52.828125 
L 16.65625 52.828125 
z
M 6.890625 66.84375 
Q 6.890625 69.046875 8.234375 70.5625 
Q 9.578125 72.078125 12.203125 72.078125 
Q 14.84375 72.078125 16.203125 70.5625 
Q 17.578125 69.046875 17.578125 66.84375 
Q 17.578125 64.65625 16.203125 63.1875 
Q 14.84375 61.71875 12.203125 61.71875 
Q 9.578125 61.71875 8.234375 63.1875 
Q 6.890625 64.65625 6.890625 66.84375 
z
" id="Roboto-Regular-105"/>
       <path d="M 32.375 44.734375 
Q 30.328125 45.0625 27.9375 45.0625 
Q 19.046875 45.0625 15.875 37.5 
L 15.875 0 
L 6.84375 0 
L 6.84375 52.828125 
L 15.625 52.828125 
L 15.765625 46.734375 
Q 20.21875 53.8125 28.375 53.8125 
Q 31 53.8125 32.375 53.125 
z
" id="Roboto-Regular-114"/>
       <path d="M 15.328125 52.828125 
L 15.578125 46.96875 
Q 21.390625 53.8125 31.25 53.8125 
Q 42.328125 53.8125 46.34375 45.3125 
Q 48.96875 49.125 53.1875 51.46875 
Q 57.421875 53.8125 63.1875 53.8125 
Q 80.5625 53.8125 80.859375 35.40625 
L 80.859375 0 
L 71.828125 0 
L 71.828125 34.859375 
Q 71.828125 40.53125 69.234375 43.328125 
Q 66.65625 46.140625 60.546875 46.140625 
Q 55.515625 46.140625 52.1875 43.140625 
Q 48.875 40.140625 48.34375 35.0625 
L 48.34375 0 
L 39.265625 0 
L 39.265625 34.625 
Q 39.265625 46.140625 27.984375 46.140625 
Q 19.09375 46.140625 15.828125 38.578125 
L 15.828125 0 
L 6.78125 0 
L 6.78125 52.828125 
z
" id="Roboto-Regular-109"/>
       <path d="M 4.640625 26.859375 
Q 4.640625 39.015625 10.390625 46.40625 
Q 16.15625 53.8125 25.484375 53.8125 
Q 34.765625 53.8125 40.1875 47.46875 
L 40.1875 75 
L 49.21875 75 
L 49.21875 0 
L 40.921875 0 
L 40.484375 5.671875 
Q 35.0625 -0.984375 25.390625 -0.984375 
Q 16.21875 -0.984375 10.421875 6.53125 
Q 4.640625 14.0625 4.640625 26.171875 
z
M 13.671875 25.828125 
Q 13.671875 16.84375 17.375 11.765625 
Q 21.09375 6.6875 27.640625 6.6875 
Q 36.234375 6.6875 40.1875 14.40625 
L 40.1875 38.671875 
Q 36.140625 46.140625 27.734375 46.140625 
Q 21.09375 46.140625 17.375 41.015625 
Q 13.671875 35.890625 13.671875 25.828125 
z
" id="Roboto-Regular-100"/>
       <path id="Roboto-Regular-32"/>
      </defs>
      <use xlink:href="#Roboto-Regular-67"/>
      <use x="65.087891" xlink:href="#Roboto-Regular-111"/>
      <use x="122.119141" xlink:href="#Roboto-Regular-110"/>
      <use x="177.294922" xlink:href="#Roboto-Regular-102"/>
      <use x="212.011719" xlink:href="#Roboto-Regular-105"/>
      <use x="236.279297" xlink:href="#Roboto-Regular-114"/>
      <use x="270.117188" xlink:href="#Roboto-Regular-109"/>
      <use x="357.763672" xlink:href="#Roboto-Regular-101"/>
      <use x="410.742188" xlink:href="#Roboto-Regular-100"/>
      <use x="467.138672" xlink:href="#Roboto-Regular-32"/>
      <use x="491.894531" xlink:href="#Roboto-Regular-67"/>
      <use x="556.982422" xlink:href="#Roboto-Regular-97"/>
      <use x="611.376953" xlink:href="#Roboto-Regular-115"/>
      <use x="662.939453" xlink:href="#Roboto-Regular-101"/>
      <use x="715.917969" xlink:href="#Roboto-Regular-115"/>
     </g>
    </g>
   </g>
   <g id="line2d_132">
    <path clip-path="url(#p2688dacd9f)" d="M 142.321382 476.906651 
L 142.32362 403.234541 
L 143.950633 387.111609 
L 145.577646 354.865745 
L 147.204659 354.865745 
L 148.831672 343.572604 
L 150.458685 330.30146 
L 152.085698 315.747244 
L 153.712711 302.195569 
L 155.339724 295.884651 
L 156.966737 291.112508 
L 160.220763 276.945389 
L 161.847776 272.417229 
L 165.101802 259.197256 
L 168.355828 245.822934 
L 171.609854 233.579676 
L 173.236867 230.214216 
L 174.86388 225.045694 
L 176.490893 222.048137 
L 178.117906 217.911829 
L 181.371932 210.96562 
L 182.998945 209.482748 
L 184.625958 206.70879 
L 186.252971 204.54623 
L 187.879984 203.073417 
L 189.506997 201.282478 
L 192.761023 198.115908 
L 194.388036 197.105449 
L 196.015049 195.819906 
L 197.642062 195.043923 
L 199.269075 193.996973 
L 200.896088 193.261818 
L 202.523101 191.91041 
L 204.150114 191.334955 
L 209.031153 188.870078 
L 210.658166 188.646761 
L 212.285179 187.670842 
L 213.912192 186.939838 
L 215.539205 186.772244 
L 217.166218 186.052125 
L 220.420244 185.088654 
L 223.674269 184.634977 
L 225.301282 184.016589 
L 226.928295 183.564734 
L 228.555308 183.302874 
L 230.182321 182.732687 
L 233.436347 182.242161 
L 235.06336 181.872802 
L 236.690373 181.737919 
L 243.198425 180.541748 
L 244.825438 180.407914 
L 252.960503 178.265179 
L 256.214529 178.017228 
L 257.841542 177.539064 
L 265.976607 176.427611 
L 267.60362 176.350507 
L 278.992711 174.744799 
L 282.246737 174.000599 
L 293.635828 171.883173 
L 295.262841 171.050144 
L 298.516867 170.451457 
L 311.532971 166.048875 
L 314.786997 164.50387 
L 316.41401 163.292714 
L 318.041023 162.263535 
L 319.668036 160.729243 
L 322.922062 158.679286 
L 324.549075 157.969401 
L 326.176088 156.598782 
L 327.803101 155.44586 
L 331.057127 152.995675 
L 334.311153 151.074771 
L 335.938166 149.782855 
L 337.565179 148.941914 
L 340.819205 146.986778 
L 342.446218 145.658838 
L 344.073231 144.507856 
L 347.327256 142.977736 
L 348.954269 141.998933 
L 350.581282 141.257764 
L 353.835308 139.428447 
L 357.089334 138.004211 
L 361.970373 135.806763 
L 363.597386 135.011368 
L 368.478425 133.147376 
L 373.359464 131.4978 
L 374.986477 130.964954 
L 378.240503 130.501912 
L 381.494529 130.072274 
L 388.002581 128.899676 
L 391.256607 128.435649 
L 392.88362 127.733541 
L 397.764659 126.891179 
L 415.661802 125.374746 
L 423.796867 124.959694 
L 425.42388 124.643284 
L 440.066997 124.089112 
L 451.456088 123.706582 
L 506.774529 121.812423 
L 511.655568 121.556299 
L 516.536607 121.350137 
L 531.179724 120.419783 
L 537.687776 119.91897 
L 540.941802 119.78662 
L 545.822841 119.285522 
L 547.449854 119.010135 
L 550.70388 118.680521 
L 565.346997 117.054923 
L 566.97401 116.662302 
L 571.855049 116.103345 
L 593.006218 113.405396 
L 610.90336 111.21778 
L 612.530373 111.21778 
L 614.157386 110.942134 
L 617.411412 110.643747 
L 622.292451 109.971822 
L 623.919464 109.971822 
L 625.546477 109.56188 
L 628.800503 109.252569 
L 636.935568 108.075461 
L 659.71375 105.835551 
L 687.372971 103.995745 
L 693.881023 103.612651 
L 693.881023 103.612651 
" style="fill:none;stroke:#008fd5;stroke-width:4;"/>
   </g>
   <g id="line2d_133">
    <path clip-path="url(#p2688dacd9f)" d="M 126.050763 476.906651 
L 126.05349 387.111609 
L 127.680503 387.111609 
L 129.307516 377.680299 
L 130.934529 377.680299 
L 132.561542 370.988677 
L 135.815568 345.434435 
L 139.069594 341.848817 
L 140.696607 330.30146 
L 142.32362 327.449672 
L 143.950633 314.178528 
L 145.577646 304.412529 
L 147.204659 304.412529 
L 148.831672 294.111567 
L 150.458685 288.124041 
L 152.085698 278.858287 
L 153.712711 268.628566 
L 155.339724 261.972648 
L 156.966737 255.878178 
L 158.59375 248.818309 
L 160.220763 242.556881 
L 161.847776 237.893415 
L 163.474789 233.643013 
L 165.101802 226.773695 
L 166.728815 221.449122 
L 168.355828 215.515984 
L 169.982841 210.091085 
L 171.609854 205.387285 
L 173.236867 202.093226 
L 174.86388 198.167602 
L 179.744919 188.400616 
L 181.371932 185.672013 
L 182.998945 184.103122 
L 184.625958 181.809531 
L 186.252971 179.974645 
L 187.879984 178.520248 
L 191.13401 175.377212 
L 192.761023 174.094784 
L 194.388036 173.043981 
L 196.015049 171.727665 
L 197.642062 171.063051 
L 199.269075 170.108176 
L 200.896088 169.29044 
L 202.523101 167.922779 
L 209.031153 165.163984 
L 210.658166 164.799509 
L 212.285179 163.724232 
L 213.912192 163.039881 
L 215.539205 162.807865 
L 220.420244 161.340927 
L 223.674269 160.749951 
L 225.301282 160.044632 
L 230.182321 158.635105 
L 233.436347 157.948576 
L 235.06336 157.448306 
L 236.690373 157.227062 
L 238.317386 156.755868 
L 239.944399 156.412357 
L 241.571412 156.19219 
L 243.198425 155.664037 
L 244.825438 155.399726 
L 252.960503 153.282439 
L 256.214529 152.772604 
L 257.841542 152.189912 
L 264.349594 150.766573 
L 269.230633 150.084757 
L 270.857646 149.561533 
L 274.111672 148.861 
L 277.365698 148.335132 
L 283.87375 146.278091 
L 287.127776 145.495902 
L 290.381802 144.628055 
L 293.635828 143.417052 
L 295.262841 142.586066 
L 300.14388 140.599517 
L 301.770893 139.853687 
L 303.397906 138.968841 
L 306.651932 136.929962 
L 308.278945 136.079172 
L 311.532971 134.63937 
L 313.159984 133.432626 
L 314.786997 132.38862 
L 318.041023 128.886159 
L 319.668036 127.435331 
L 322.922062 125.63394 
L 324.549075 124.653377 
L 326.176088 123.219522 
L 327.803101 121.949689 
L 329.430114 120.503229 
L 331.057127 119.303532 
L 334.311153 117.765008 
L 335.938166 116.702806 
L 337.565179 115.792112 
L 339.192192 114.676515 
L 340.819205 113.709845 
L 342.446218 112.351911 
L 344.073231 111.288255 
L 347.327256 109.744898 
L 348.954269 108.692747 
L 353.835308 106.295988 
L 357.089334 105.01694 
L 360.34336 103.789832 
L 363.597386 102.364139 
L 371.732451 99.872424 
L 376.61349 98.609003 
L 381.494529 97.875449 
L 388.002581 96.524315 
L 391.256607 96.092389 
L 394.510633 95.485631 
L 399.391672 94.815713 
L 404.272711 94.388413 
L 410.780763 93.73945 
L 417.288815 93.301294 
L 422.169854 92.939433 
L 423.796867 92.869 
L 425.42388 92.588312 
L 430.304919 92.252693 
L 435.185958 91.961749 
L 441.69401 91.601718 
L 448.202062 91.234894 
L 464.472192 90.312991 
L 470.980244 90.024614 
L 483.996347 89.433349 
L 487.250373 89.234203 
L 488.877386 89.234203 
L 490.504399 89.057133 
L 495.385438 88.832076 
L 524.671672 86.855359 
L 542.568815 85.28997 
L 565.346997 82.788379 
L 566.97401 82.372607 
L 573.482062 81.690231 
L 583.24414 80.397432 
L 588.125179 79.774838 
L 593.006218 79.120455 
L 597.887256 78.520793 
L 602.768295 77.771357 
L 607.649334 77.196594 
L 610.90336 76.734654 
L 612.530373 76.734654 
L 614.157386 76.419055 
L 619.038425 75.915694 
L 622.292451 75.363173 
L 623.919464 75.363173 
L 625.546477 74.815659 
L 630.427516 74.184093 
L 638.562581 72.807301 
L 645.070633 71.969298 
L 648.324659 71.532963 
L 664.594789 69.98199 
L 669.475828 69.55624 
L 672.729854 69.245994 
L 679.237906 68.831449 
L 682.491932 68.580218 
L 693.881023 67.925359 
L 693.881023 67.925359 
" style="fill:none;stroke:#fc4f30;stroke-width:4;"/>
   </g>
   <g id="patch_3">
    <path d="M 95.95375 420 
L 95.95375 28.32 
" style="fill:none;stroke:#f0f0f0;stroke-linecap:square;stroke-linejoin:miter;stroke-width:3;"/>
   </g>
   <g id="patch_4">
    <path d="M 722.35375 420 
L 722.35375 28.32 
" style="fill:none;stroke:#f0f0f0;stroke-linecap:square;stroke-linejoin:miter;stroke-width:3;"/>
   </g>
   <g id="patch_5">
    <path d="M 95.95375 420 
L 722.35375 420 
" style="fill:none;stroke:#f0f0f0;stroke-linecap:square;stroke-linejoin:miter;stroke-width:3;"/>
   </g>
   <g id="patch_6">
    <path d="M 95.95375 28.32 
L 722.35375 28.32 
" style="fill:none;stroke:#f0f0f0;stroke-linecap:square;stroke-linejoin:miter;stroke-width:3;"/>
   </g>
   <g id="text_38">
    <!-- Cases of COVID-19 in Florida -->
    <g transform="translate(279.988 22.32)scale(0.2016 -0.2016)">
     <defs>
      <path d="M 62.9375 33.25 
Q 62.9375 22.796875 59.421875 15.015625 
Q 55.90625 7.234375 49.453125 3.125 
Q 43.015625 -0.984375 34.421875 -0.984375 
Q 26.03125 -0.984375 19.53125 3.140625 
Q 13.03125 7.28125 9.4375 14.921875 
Q 5.859375 22.5625 5.765625 32.625 
L 5.765625 37.75 
Q 5.765625 48 9.328125 55.859375 
Q 12.890625 63.71875 19.40625 67.890625 
Q 25.921875 72.078125 34.328125 72.078125 
Q 42.875 72.078125 49.390625 67.9375 
Q 55.90625 63.8125 59.421875 55.96875 
Q 62.9375 48.140625 62.9375 37.75 
z
M 53.609375 37.84375 
Q 53.609375 50.484375 48.53125 57.25 
Q 43.453125 64.015625 34.328125 64.015625 
Q 25.4375 64.015625 20.328125 57.25 
Q 15.234375 50.484375 15.09375 38.484375 
L 15.09375 33.25 
Q 15.09375 21 20.234375 13.984375 
Q 25.390625 6.984375 34.421875 6.984375 
Q 43.5 6.984375 48.484375 13.59375 
Q 53.46875 20.21875 53.609375 32.5625 
z
" id="Roboto-Regular-79"/>
      <path d="M 31.78125 12.453125 
L 52.09375 71.09375 
L 62.359375 71.09375 
L 35.984375 0 
L 27.6875 0 
L 1.375 71.09375 
L 11.578125 71.09375 
z
" id="Roboto-Regular-86"/>
      <path d="M 18.3125 0 
L 8.9375 0 
L 8.9375 71.09375 
L 18.3125 71.09375 
z
" id="Roboto-Regular-73"/>
      <path d="M 25.640625 26.515625 
L 1.8125 26.515625 
L 1.8125 33.890625 
L 25.640625 33.890625 
z
" id="Roboto-Regular-45"/>
      <path d="M 35.59375 0 
L 26.515625 0 
L 26.515625 60.203125 
L 8.296875 53.515625 
L 8.296875 61.71875 
L 34.1875 71.4375 
L 35.59375 71.4375 
z
" id="Roboto-Regular-49"/>
      <path d="M 40.53125 31.25 
Q 37.703125 27.875 33.765625 25.828125 
Q 29.828125 23.78125 25.140625 23.78125 
Q 19 23.78125 14.421875 26.796875 
Q 9.859375 29.828125 7.375 35.328125 
Q 4.890625 40.828125 4.890625 47.46875 
Q 4.890625 54.59375 7.59375 60.296875 
Q 10.296875 66.015625 15.28125 69.046875 
Q 20.265625 72.078125 26.90625 72.078125 
Q 37.453125 72.078125 43.53125 64.1875 
Q 49.609375 56.296875 49.609375 42.671875 
L 49.609375 40.046875 
Q 49.609375 19.28125 41.40625 9.734375 
Q 33.203125 0.203125 16.65625 -0.046875 
L 14.890625 -0.046875 
L 14.890625 7.5625 
L 16.796875 7.5625 
Q 27.984375 7.765625 33.984375 13.40625 
Q 39.984375 19.046875 40.53125 31.25 
z
M 26.609375 31.25 
Q 31.15625 31.25 34.984375 34.03125 
Q 38.8125 36.8125 40.578125 40.921875 
L 40.578125 44.53125 
Q 40.578125 53.421875 36.71875 58.984375 
Q 32.859375 64.546875 26.953125 64.546875 
Q 21 64.546875 17.375 59.984375 
Q 13.765625 55.421875 13.765625 47.953125 
Q 13.765625 40.671875 17.25 35.953125 
Q 20.75 31.25 26.609375 31.25 
z
" id="Roboto-Regular-57"/>
      <path d="M 47.46875 31.390625 
L 17.625 31.390625 
L 17.625 0 
L 8.25 0 
L 8.25 71.09375 
L 52.296875 71.09375 
L 52.296875 63.375 
L 17.625 63.375 
L 17.625 39.0625 
L 47.46875 39.0625 
z
" id="Roboto-Regular-70"/>
      <path d="M 16.65625 0 
L 7.625 0 
L 7.625 75 
L 16.65625 75 
z
" id="Roboto-Regular-108"/>
     </defs>
     <use xlink:href="#Roboto-Regular-67"/>
     <use x="65.087891" xlink:href="#Roboto-Regular-97"/>
     <use x="119.482422" xlink:href="#Roboto-Regular-115"/>
     <use x="171.044922" xlink:href="#Roboto-Regular-101"/>
     <use x="224.023438" xlink:href="#Roboto-Regular-115"/>
     <use x="275.585938" xlink:href="#Roboto-Regular-32"/>
     <use x="300.341797" xlink:href="#Roboto-Regular-111"/>
     <use x="357.373047" xlink:href="#Roboto-Regular-102"/>
     <use x="392.089844" xlink:href="#Roboto-Regular-32"/>
     <use x="416.845703" xlink:href="#Roboto-Regular-67"/>
     <use x="481.933594" xlink:href="#Roboto-Regular-79"/>
     <use x="550.683594" xlink:href="#Roboto-Regular-86"/>
     <use x="614.306641" xlink:href="#Roboto-Regular-73"/>
     <use x="641.503906" xlink:href="#Roboto-Regular-68"/>
     <use x="707.080078" xlink:href="#Roboto-Regular-45"/>
     <use x="734.667969" xlink:href="#Roboto-Regular-49"/>
     <use x="790.820312" xlink:href="#Roboto-Regular-57"/>
     <use x="846.972656" xlink:href="#Roboto-Regular-32"/>
     <use x="871.728516" xlink:href="#Roboto-Regular-105"/>
     <use x="895.996094" xlink:href="#Roboto-Regular-110"/>
     <use x="951.171875" xlink:href="#Roboto-Regular-32"/>
     <use x="975.927734" xlink:href="#Roboto-Regular-70"/>
     <use x="1031.201172" xlink:href="#Roboto-Regular-108"/>
     <use x="1055.46875" xlink:href="#Roboto-Regular-111"/>
     <use x="1112.5" xlink:href="#Roboto-Regular-114"/>
     <use x="1146.337891" xlink:href="#Roboto-Regular-105"/>
     <use x="1170.605469" xlink:href="#Roboto-Regular-100"/>
     <use x="1227.001953" xlink:href="#Roboto-Regular-97"/>
    </g>
   </g>
   <g id="legend_1">
    <g id="patch_7">
     <path d="M 105.75375 80.2075 
L 304.37 80.2075 
Q 307.17 80.2075 307.17 77.4075 
L 307.17 38.12 
Q 307.17 35.32 304.37 35.32 
L 105.75375 35.32 
Q 102.95375 35.32 102.95375 38.12 
L 102.95375 77.4075 
Q 102.95375 80.2075 105.75375 80.2075 
z
" style="fill:#f0f0f0;opacity:0.8;stroke:#cccccc;stroke-linejoin:miter;stroke-width:0.5;"/>
    </g>
    <g id="line2d_134">
     <path d="M 108.55375 46.52 
L 136.55375 46.52 
" style="fill:none;stroke:#008fd5;stroke-width:4;"/>
    </g>
    <g id="line2d_135"/>
    <g id="text_39">
     <!-- Total Miami-Dade Cases -->
     <g transform="translate(147.75375 51.42)scale(0.14 -0.14)">
      <defs>
       <path d="M 58.59375 61.140625 
L 36.421875 61.140625 
L 36.421875 0 
L 24.171875 0 
L 24.171875 61.140625 
L 2.203125 61.140625 
L 2.203125 71.09375 
L 58.59375 71.09375 
z
" id="Roboto-Medium-84"/>
       <path d="M 3.859375 26.90625 
Q 3.859375 34.671875 6.9375 40.890625 
Q 10.015625 47.125 15.578125 50.46875 
Q 21.140625 53.8125 28.375 53.8125 
Q 39.0625 53.8125 45.71875 46.921875 
Q 52.390625 40.046875 52.9375 28.65625 
L 52.984375 25.875 
Q 52.984375 18.0625 49.96875 11.90625 
Q 46.96875 5.765625 41.375 2.390625 
Q 35.796875 -0.984375 28.46875 -0.984375 
Q 17.28125 -0.984375 10.5625 6.46875 
Q 3.859375 13.921875 3.859375 26.3125 
z
M 15.71875 25.875 
Q 15.71875 17.71875 19.09375 13.109375 
Q 22.46875 8.5 28.46875 8.5 
Q 34.46875 8.5 37.8125 13.1875 
Q 41.15625 17.875 41.15625 26.90625 
Q 41.15625 34.90625 37.71875 39.59375 
Q 34.28125 44.28125 28.375 44.28125 
Q 22.5625 44.28125 19.140625 39.671875 
Q 15.71875 35.0625 15.71875 25.875 
z
" id="Roboto-Medium-111"/>
       <path d="M 20.953125 65.671875 
L 20.953125 52.828125 
L 30.28125 52.828125 
L 30.28125 44.046875 
L 20.953125 44.046875 
L 20.953125 14.546875 
Q 20.953125 11.53125 22.140625 10.1875 
Q 23.34375 8.84375 26.421875 8.84375 
Q 28.46875 8.84375 30.5625 9.328125 
L 30.5625 0.140625 
Q 26.515625 -0.984375 22.75 -0.984375 
Q 9.078125 -0.984375 9.078125 14.109375 
L 9.078125 44.046875 
L 0.390625 44.046875 
L 0.390625 52.828125 
L 9.078125 52.828125 
L 9.078125 65.671875 
z
" id="Roboto-Medium-116"/>
       <path d="M 37.640625 0 
Q 36.859375 1.515625 36.28125 4.9375 
Q 30.609375 -0.984375 22.40625 -0.984375 
Q 14.453125 -0.984375 9.421875 3.5625 
Q 4.390625 8.109375 4.390625 14.796875 
Q 4.390625 23.25 10.65625 27.765625 
Q 16.9375 32.28125 28.609375 32.28125 
L 35.890625 32.28125 
L 35.890625 35.75 
Q 35.890625 39.84375 33.59375 42.3125 
Q 31.296875 44.78125 26.609375 44.78125 
Q 22.5625 44.78125 19.96875 42.75 
Q 17.390625 40.71875 17.390625 37.59375 
L 5.515625 37.59375 
Q 5.515625 41.9375 8.390625 45.71875 
Q 11.28125 49.515625 16.234375 51.65625 
Q 21.1875 53.8125 27.296875 53.8125 
Q 36.578125 53.8125 42.09375 49.140625 
Q 47.609375 44.484375 47.75 36.03125 
L 47.75 12.203125 
Q 47.75 5.078125 49.75 0.828125 
L 49.75 0 
z
M 24.609375 8.546875 
Q 28.125 8.546875 31.21875 10.25 
Q 34.328125 11.96875 35.890625 14.84375 
L 35.890625 24.8125 
L 29.5 24.8125 
Q 22.90625 24.8125 19.578125 22.515625 
Q 16.265625 20.21875 16.265625 16.015625 
Q 16.265625 12.59375 18.53125 10.5625 
Q 20.796875 8.546875 24.609375 8.546875 
z
" id="Roboto-Medium-97"/>
       <path d="M 18.703125 0 
L 6.84375 0 
L 6.84375 75 
L 18.703125 75 
z
" id="Roboto-Medium-108"/>
       <path id="Roboto-Medium-32"/>
       <path d="M 23.25 71.09375 
L 43.75 16.609375 
L 64.203125 71.09375 
L 80.171875 71.09375 
L 80.171875 0 
L 67.875 0 
L 67.875 23.4375 
L 69.09375 54.78125 
L 48.09375 0 
L 39.265625 0 
L 18.3125 54.734375 
L 19.53125 23.4375 
L 19.53125 0 
L 7.234375 0 
L 7.234375 71.09375 
z
" id="Roboto-Medium-77"/>
       <path d="M 18.703125 0 
L 6.84375 0 
L 6.84375 52.828125 
L 18.703125 52.828125 
z
M 6.109375 66.546875 
Q 6.109375 69.28125 7.84375 71.09375 
Q 9.578125 72.90625 12.796875 72.90625 
Q 16.015625 72.90625 17.765625 71.09375 
Q 19.53125 69.28125 19.53125 66.546875 
Q 19.53125 63.875 17.765625 62.078125 
Q 16.015625 60.296875 12.796875 60.296875 
Q 9.578125 60.296875 7.84375 62.078125 
Q 6.109375 63.875 6.109375 66.546875 
z
" id="Roboto-Medium-105"/>
       <path d="M 17.234375 52.828125 
L 17.578125 47.3125 
Q 23.140625 53.8125 32.8125 53.8125 
Q 43.40625 53.8125 47.3125 45.703125 
Q 53.078125 53.8125 63.53125 53.8125 
Q 72.265625 53.8125 76.53125 48.96875 
Q 80.8125 44.140625 80.90625 34.71875 
L 80.90625 0 
L 69.046875 0 
L 69.046875 34.375 
Q 69.046875 39.40625 66.84375 41.75 
Q 64.65625 44.09375 59.578125 44.09375 
Q 55.515625 44.09375 52.953125 41.921875 
Q 50.390625 39.75 49.359375 36.234375 
L 49.421875 0 
L 37.546875 0 
L 37.546875 34.765625 
Q 37.3125 44.09375 28.03125 44.09375 
Q 20.90625 44.09375 17.921875 38.28125 
L 17.921875 0 
L 6.0625 0 
L 6.0625 52.828125 
z
" id="Roboto-Medium-109"/>
       <path d="M 7.234375 0 
L 7.234375 71.09375 
L 28.21875 71.09375 
Q 37.640625 71.09375 44.9375 66.890625 
Q 52.25 62.703125 56.25 54.984375 
Q 60.25 47.265625 60.25 37.3125 
L 60.25 33.734375 
Q 60.25 23.640625 56.21875 15.96875 
Q 52.203125 8.296875 44.75 4.140625 
Q 37.3125 0 27.6875 0 
z
M 19.578125 61.140625 
L 19.578125 9.859375 
L 27.640625 9.859375 
Q 37.359375 9.859375 42.546875 15.9375 
Q 47.75 22.015625 47.859375 33.40625 
L 47.859375 37.359375 
Q 47.859375 48.921875 42.828125 55.03125 
Q 37.796875 61.140625 28.21875 61.140625 
z
" id="Roboto-Medium-68"/>
       <path d="M 3.859375 26.8125 
Q 3.859375 39.015625 9.515625 46.40625 
Q 15.1875 53.8125 24.703125 53.8125 
Q 33.109375 53.8125 38.28125 47.953125 
L 38.28125 75 
L 50.140625 75 
L 50.140625 0 
L 39.40625 0 
L 38.8125 5.46875 
Q 33.5 -0.984375 24.609375 -0.984375 
Q 15.328125 -0.984375 9.59375 6.484375 
Q 3.859375 13.96875 3.859375 26.8125 
z
M 15.71875 25.78125 
Q 15.71875 17.71875 18.8125 13.203125 
Q 21.921875 8.6875 27.640625 8.6875 
Q 34.90625 8.6875 38.28125 15.1875 
L 38.28125 37.75 
Q 35.015625 44.09375 27.734375 44.09375 
Q 21.96875 44.09375 18.84375 39.53125 
Q 15.71875 34.96875 15.71875 25.78125 
z
" id="Roboto-Medium-100"/>
       <path d="M 29.34375 -0.984375 
Q 18.0625 -0.984375 11.046875 6.125 
Q 4.046875 13.234375 4.046875 25.046875 
L 4.046875 26.515625 
Q 4.046875 34.421875 7.09375 40.640625 
Q 10.15625 46.875 15.671875 50.34375 
Q 21.1875 53.8125 27.984375 53.8125 
Q 38.765625 53.8125 44.640625 46.921875 
Q 50.53125 40.046875 50.53125 27.4375 
L 50.53125 22.65625 
L 16.015625 22.65625 
Q 16.546875 16.109375 20.375 12.296875 
Q 24.21875 8.5 30.03125 8.5 
Q 38.1875 8.5 43.3125 15.09375 
L 49.703125 8.984375 
Q 46.53125 4.25 41.234375 1.625 
Q 35.9375 -0.984375 29.34375 -0.984375 
z
M 27.9375 44.28125 
Q 23.046875 44.28125 20.046875 40.859375 
Q 17.046875 37.453125 16.21875 31.34375 
L 38.8125 31.34375 
L 38.8125 32.234375 
Q 38.421875 38.1875 35.640625 41.234375 
Q 32.859375 44.28125 27.9375 44.28125 
z
" id="Roboto-Medium-101"/>
       <path d="M 61.46875 23.140625 
Q 60.40625 11.765625 53.078125 5.390625 
Q 45.75 -0.984375 33.59375 -0.984375 
Q 25.09375 -0.984375 18.625 3.046875 
Q 12.15625 7.078125 8.640625 14.5 
Q 5.125 21.921875 4.984375 31.734375 
L 4.984375 38.375 
Q 4.984375 48.4375 8.546875 56.09375 
Q 12.109375 63.765625 18.765625 67.921875 
Q 25.4375 72.078125 34.1875 72.078125 
Q 45.953125 72.078125 53.125 65.671875 
Q 60.296875 59.28125 61.46875 47.609375 
L 49.171875 47.609375 
Q 48.296875 55.28125 44.703125 58.671875 
Q 41.109375 62.0625 34.1875 62.0625 
Q 26.125 62.0625 21.796875 56.171875 
Q 17.484375 50.296875 17.390625 38.921875 
L 17.390625 32.625 
Q 17.390625 21.09375 21.515625 15.03125 
Q 25.640625 8.984375 33.59375 8.984375 
Q 40.875 8.984375 44.53125 12.25 
Q 48.1875 15.53125 49.171875 23.140625 
z
" id="Roboto-Medium-67"/>
       <path d="M 35.6875 14.359375 
Q 35.6875 17.53125 33.078125 19.1875 
Q 30.46875 20.84375 24.40625 22.109375 
Q 18.359375 23.390625 14.3125 25.34375 
Q 5.421875 29.640625 5.421875 37.796875 
Q 5.421875 44.625 11.171875 49.21875 
Q 16.9375 53.8125 25.828125 53.8125 
Q 35.296875 53.8125 41.125 49.125 
Q 46.96875 44.4375 46.96875 36.96875 
L 35.109375 36.96875 
Q 35.109375 40.375 32.5625 42.640625 
Q 30.03125 44.921875 25.828125 44.921875 
Q 21.921875 44.921875 19.453125 43.109375 
Q 17 41.3125 17 38.28125 
Q 17 35.546875 19.28125 34.03125 
Q 21.578125 32.515625 28.5625 30.96875 
Q 35.546875 29.4375 39.515625 27.3125 
Q 43.5 25.203125 45.421875 22.21875 
Q 47.359375 19.234375 47.359375 14.984375 
Q 47.359375 7.859375 41.453125 3.4375 
Q 35.546875 -0.984375 25.984375 -0.984375 
Q 19.484375 -0.984375 14.40625 1.359375 
Q 9.328125 3.71875 6.484375 7.8125 
Q 3.65625 11.921875 3.65625 16.65625 
L 15.1875 16.65625 
Q 15.4375 12.453125 18.359375 10.171875 
Q 21.296875 7.90625 26.125 7.90625 
Q 30.8125 7.90625 33.25 9.6875 
Q 35.6875 11.46875 35.6875 14.359375 
z
" id="Roboto-Medium-115"/>
      </defs>
      <use xlink:href="#Roboto-Medium-84"/>
      <use x="60.693359" xlink:href="#Roboto-Medium-111"/>
      <use x="117.626953" xlink:href="#Roboto-Medium-116"/>
      <use x="150.878906" xlink:href="#Roboto-Medium-97"/>
      <use x="204.980469" xlink:href="#Roboto-Medium-108"/>
      <use x="230.517578" xlink:href="#Roboto-Medium-32"/>
      <use x="255.419922" xlink:href="#Roboto-Medium-77"/>
      <use x="342.96875" xlink:href="#Roboto-Medium-105"/>
      <use x="368.505859" xlink:href="#Roboto-Medium-97"/>
      <use x="422.607422" xlink:href="#Roboto-Medium-109"/>
      <use x="509.619141" xlink:href="#Roboto-Medium-105"/>
      <use x="535.15625" xlink:href="#Roboto-Medium-45"/>
      <use x="567.96875" xlink:href="#Roboto-Medium-68"/>
      <use x="633.300781" xlink:href="#Roboto-Medium-97"/>
      <use x="687.402344" xlink:href="#Roboto-Medium-100"/>
      <use x="743.847656" xlink:href="#Roboto-Medium-101"/>
      <use x="797.509766" xlink:href="#Roboto-Medium-32"/>
      <use x="822.412109" xlink:href="#Roboto-Medium-67"/>
      <use x="887.695312" xlink:href="#Roboto-Medium-97"/>
      <use x="941.796875" xlink:href="#Roboto-Medium-115"/>
      <use x="993.408203" xlink:href="#Roboto-Medium-101"/>
      <use x="1047.070312" xlink:href="#Roboto-Medium-115"/>
     </g>
    </g>
    <g id="line2d_136">
     <path d="M 108.55375 66.86375 
L 136.55375 66.86375 
" style="fill:none;stroke:#fc4f30;stroke-width:4;"/>
    </g>
    <g id="line2d_137"/>
    <g id="text_40">
     <!-- Total Florida Cases -->
     <g transform="translate(147.75375 71.76375)scale(0.14 -0.14)">
      <defs>
       <path d="M 48.1875 30.125 
L 19.578125 30.125 
L 19.578125 0 
L 7.234375 0 
L 7.234375 71.09375 
L 52.390625 71.09375 
L 52.390625 61.140625 
L 19.578125 61.140625 
L 19.578125 39.984375 
L 48.1875 39.984375 
z
" id="Roboto-Medium-70"/>
       <path d="M 33.734375 42 
Q 31.390625 42.390625 28.90625 42.390625 
Q 20.75 42.390625 17.921875 36.140625 
L 17.921875 0 
L 6.0625 0 
L 6.0625 52.828125 
L 17.390625 52.828125 
L 17.671875 46.921875 
Q 21.96875 53.8125 29.59375 53.8125 
Q 32.125 53.8125 33.796875 53.125 
z
" id="Roboto-Medium-114"/>
      </defs>
      <use xlink:href="#Roboto-Medium-84"/>
      <use x="60.693359" xlink:href="#Roboto-Medium-111"/>
      <use x="117.626953" xlink:href="#Roboto-Medium-116"/>
      <use x="150.878906" xlink:href="#Roboto-Medium-97"/>
      <use x="204.980469" xlink:href="#Roboto-Medium-108"/>
      <use x="230.517578" xlink:href="#Roboto-Medium-32"/>
      <use x="255.419922" xlink:href="#Roboto-Medium-70"/>
      <use x="310.351562" xlink:href="#Roboto-Medium-108"/>
      <use x="335.888672" xlink:href="#Roboto-Medium-111"/>
      <use x="392.822266" xlink:href="#Roboto-Medium-114"/>
      <use x="427.978516" xlink:href="#Roboto-Medium-105"/>
      <use x="453.515625" xlink:href="#Roboto-Medium-100"/>
      <use x="509.960938" xlink:href="#Roboto-Medium-97"/>
      <use x="564.0625" xlink:href="#Roboto-Medium-32"/>
      <use x="588.964844" xlink:href="#Roboto-Medium-67"/>
      <use x="654.248047" xlink:href="#Roboto-Medium-97"/>
      <use x="708.349609" xlink:href="#Roboto-Medium-115"/>
      <use x="759.960938" xlink:href="#Roboto-Medium-101"/>
      <use x="813.623047" xlink:href="#Roboto-Medium-115"/>
     </g>
    </g>
   </g>
  </g>
 </g>
 <defs>
  <clipPath id="p2688dacd9f">
   <rect height="391.68" width="626.4" x="95.95375" y="28.32"/>
  </clipPath>
 </defs>
</svg>
