<?xml version="1.0" encoding="utf-8" standalone="no"?>
<!DOCTYPE svg PUBLIC "-//W3C//DTD SVG 1.1//EN"
  "http://www.w3.org/Graphics/SVG/1.1/DTD/svg11.dtd">
<!-- Created with matplotlib (https://matplotlib.org/) -->
<svg height="475.906651pt" version="1.1" viewBox="0 0 729.55375 475.906651" width="729.55375pt" xmlns="http://www.w3.org/2000/svg" xmlns:xlink="http://www.w3.org/1999/xlink">
 <metadata>
  <rdf:RDF xmlns:cc="http://creativecommons.org/ns#" xmlns:dc="http://purl.org/dc/elements/1.1/" xmlns:rdf="http://www.w3.org/1999/02/22-rdf-syntax-ns#">
   <cc:Work>
    <dc:type rdf:resource="http://purl.org/dc/dcmitype/StillImage"/>
    <dc:date>2021-02-21T14:27:34.386454</dc:date>
    <dc:format>image/svg+xml</dc:format>
    <dc:creator>
     <cc:Agent>
      <dc:title>Matplotlib v3.3.4, https://matplotlib.org/</dc:title>
     </cc:Agent>
    </dc:creator>
   </cc:Work>
  </rdf:RDF>
 </metadata>
 <defs>
  <style type="text/css">*{stroke-linecap:butt;stroke-linejoin:round;}</style>
 </defs>
 <g id="figure_1">
  <g id="patch_1">
   <path d="M 0 475.906651 
L 729.55375 475.906651 
L 729.55375 0 
L 0 0 
z
" style="fill:#f0f0f0;"/>
  </g>
  <g id="axes_1">
   <g id="patch_2">
    <path d="M 95.95375 420 
L 722.35375 420 
L 722.35375 28.32 
L 95.95375 28.32 
z
" style="fill:#f0f0f0;"/>
   </g>
   <g id="matplotlib.axis_1">
    <g id="xtick_1">
     <g id="line2d_1">
      <path clip-path="url(#pa52cf4c3e6)" d="M 118.046034 420 
L 118.046034 28.32 
" style="fill:none;stroke:#cbcbcb;"/>
     </g>
     <g id="line2d_2"/>
     <g id="text_1">
      <!-- 02-25 -->
      <g transform="translate(85.078101 450.806392)rotate(-30)scale(0.14 -0.14)">
       <defs>
        <path d="M 51.65625 29.9375 
Q 51.65625 14.59375 45.921875 6.796875 
Q 40.1875 -0.984375 28.46875 -0.984375 
Q 16.9375 -0.984375 11.109375 6.609375 
Q 5.28125 14.203125 5.125 29.109375 
L 5.125 41.40625 
Q 5.125 56.734375 10.859375 64.40625 
Q 16.609375 72.078125 28.375 72.078125 
Q 40.046875 72.078125 45.78125 64.59375 
Q 51.515625 57.125 51.65625 42.234375 
z
M 39.796875 43.21875 
Q 39.796875 53.21875 37.0625 57.875 
Q 34.328125 62.546875 28.375 62.546875 
Q 22.5625 62.546875 19.828125 58.125 
Q 17.09375 53.71875 16.9375 44.34375 
L 16.9375 28.21875 
Q 16.9375 18.265625 19.71875 13.375 
Q 22.515625 8.5 28.46875 8.5 
Q 34.1875 8.5 36.921875 13.015625 
Q 39.65625 17.53125 39.796875 27.15625 
z
" id="Roboto-Medium-48"/>
        <path d="M 53.125 0 
L 5.328125 0 
L 5.328125 8.15625 
L 29 33.984375 
Q 34.125 39.703125 36.296875 43.53125 
Q 38.484375 47.359375 38.484375 51.21875 
Q 38.484375 56.296875 35.625 59.421875 
Q 32.765625 62.546875 27.9375 62.546875 
Q 22.171875 62.546875 19 59.03125 
Q 15.828125 55.515625 15.828125 49.421875 
L 3.953125 49.421875 
Q 3.953125 55.90625 6.90625 61.109375 
Q 9.859375 66.3125 15.34375 69.1875 
Q 20.84375 72.078125 28.03125 72.078125 
Q 38.375 72.078125 44.359375 66.875 
Q 50.34375 61.671875 50.34375 52.484375 
Q 50.34375 47.171875 47.34375 41.328125 
Q 44.34375 35.5 37.5 28.078125 
L 20.125 9.46875 
L 53.125 9.46875 
z
" id="Roboto-Medium-50"/>
        <path d="M 29.109375 25.4375 
L 3.46875 25.4375 
L 3.46875 35.015625 
L 29.109375 35.015625 
z
" id="Roboto-Medium-45"/>
        <path d="M 8.5 35.25 
L 12.359375 71.09375 
L 50.53125 71.09375 
L 50.53125 60.84375 
L 22.21875 60.84375 
L 20.265625 43.84375 
Q 25.203125 46.6875 31.390625 46.6875 
Q 41.546875 46.6875 47.1875 40.1875 
Q 52.828125 33.6875 52.828125 22.703125 
Q 52.828125 11.859375 46.578125 5.4375 
Q 40.328125 -0.984375 29.4375 -0.984375 
Q 19.671875 -0.984375 13.25 4.5625 
Q 6.84375 10.109375 6.296875 19.1875 
L 17.78125 19.1875 
Q 18.453125 14.015625 21.484375 11.25 
Q 24.515625 8.5 29.390625 8.5 
Q 34.859375 8.5 37.90625 12.40625 
Q 40.96875 16.3125 40.96875 23.046875 
Q 40.96875 29.546875 37.59375 33.328125 
Q 34.234375 37.109375 28.328125 37.109375 
Q 25.09375 37.109375 22.84375 36.25 
Q 20.609375 35.40625 17.96875 32.90625 
z
" id="Roboto-Medium-53"/>
       </defs>
       <use xlink:href="#Roboto-Medium-48"/>
       <use x="56.835938" xlink:href="#Roboto-Medium-50"/>
       <use x="113.671875" xlink:href="#Roboto-Medium-45"/>
       <use x="146.484375" xlink:href="#Roboto-Medium-50"/>
       <use x="203.320312" xlink:href="#Roboto-Medium-53"/>
      </g>
     </g>
    </g>
    <g id="xtick_2">
     <g id="line2d_3">
      <path clip-path="url(#pa52cf4c3e6)" d="M 140.377585 420 
L 140.377585 28.32 
" style="fill:none;stroke:#cbcbcb;"/>
     </g>
     <g id="line2d_4"/>
     <g id="text_2">
      <!-- 03-10 -->
      <g transform="translate(107.409652 450.806392)rotate(-30)scale(0.14 -0.14)">
       <defs>
        <path d="M 19.046875 40.96875 
L 26.265625 40.96875 
Q 31.734375 41.015625 34.9375 43.796875 
Q 38.140625 46.578125 38.140625 51.859375 
Q 38.140625 56.9375 35.46875 59.734375 
Q 32.8125 62.546875 27.34375 62.546875 
Q 22.5625 62.546875 19.484375 59.78125 
Q 16.40625 57.03125 16.40625 52.59375 
L 4.546875 52.59375 
Q 4.546875 58.0625 7.453125 62.546875 
Q 10.359375 67.046875 15.546875 69.5625 
Q 20.75 72.078125 27.203125 72.078125 
Q 37.84375 72.078125 43.921875 66.71875 
Q 50 61.375 50 51.859375 
Q 50 47.078125 46.9375 42.84375 
Q 43.890625 38.625 39.0625 36.46875 
Q 44.921875 34.46875 47.96875 30.171875 
Q 51.03125 25.875 51.03125 19.921875 
Q 51.03125 10.359375 44.453125 4.6875 
Q 37.890625 -0.984375 27.203125 -0.984375 
Q 16.9375 -0.984375 10.390625 4.484375 
Q 3.859375 9.96875 3.859375 19.046875 
L 15.71875 19.046875 
Q 15.71875 14.359375 18.859375 11.421875 
Q 22.015625 8.5 27.34375 8.5 
Q 32.859375 8.5 36.03125 11.421875 
Q 39.203125 14.359375 39.203125 19.921875 
Q 39.203125 25.53125 35.875 28.5625 
Q 32.5625 31.59375 26.03125 31.59375 
L 19.046875 31.59375 
z
" id="Roboto-Medium-51"/>
        <path d="M 37.453125 0 
L 25.640625 0 
L 25.640625 57.078125 
L 8.203125 51.125 
L 8.203125 61.140625 
L 35.9375 71.34375 
L 37.453125 71.34375 
z
" id="Roboto-Medium-49"/>
       </defs>
       <use xlink:href="#Roboto-Medium-48"/>
       <use x="56.835938" xlink:href="#Roboto-Medium-51"/>
       <use x="113.671875" xlink:href="#Roboto-Medium-45"/>
       <use x="146.484375" xlink:href="#Roboto-Medium-49"/>
       <use x="203.320312" xlink:href="#Roboto-Medium-48"/>
      </g>
     </g>
    </g>
    <g id="xtick_3">
     <g id="line2d_5">
      <path clip-path="url(#pa52cf4c3e6)" d="M 162.709136 420 
L 162.709136 28.32 
" style="fill:none;stroke:#cbcbcb;"/>
     </g>
     <g id="line2d_6"/>
     <g id="text_3">
      <!-- 03-24 -->
      <g transform="translate(129.741203 450.806392)rotate(-30)scale(0.14 -0.14)">
       <defs>
        <path d="M 45.453125 25.34375 
L 54.296875 25.34375 
L 54.296875 15.828125 
L 45.453125 15.828125 
L 45.453125 0 
L 33.59375 0 
L 33.59375 15.828125 
L 2.875 15.828125 
L 2.546875 23.046875 
L 33.203125 71.09375 
L 45.453125 71.09375 
z
M 14.984375 25.34375 
L 33.59375 25.34375 
L 33.59375 55.03125 
L 32.71875 53.46875 
z
" id="Roboto-Medium-52"/>
       </defs>
       <use xlink:href="#Roboto-Medium-48"/>
       <use x="56.835938" xlink:href="#Roboto-Medium-51"/>
       <use x="113.671875" xlink:href="#Roboto-Medium-45"/>
       <use x="146.484375" xlink:href="#Roboto-Medium-50"/>
       <use x="203.320312" xlink:href="#Roboto-Medium-52"/>
      </g>
     </g>
    </g>
    <g id="xtick_4">
     <g id="line2d_7">
      <path clip-path="url(#pa52cf4c3e6)" d="M 185.040687 420 
L 185.040687 28.32 
" style="fill:none;stroke:#cbcbcb;"/>
     </g>
     <g id="line2d_8"/>
     <g id="text_4">
      <!-- 04-07 -->
      <g transform="translate(152.072754 450.806392)rotate(-30)scale(0.14 -0.14)">
       <defs>
        <path d="M 52.640625 64.5 
L 24.21875 0 
L 11.765625 0 
L 40.140625 61.578125 
L 3.375 61.578125 
L 3.375 71.09375 
L 52.640625 71.09375 
z
" id="Roboto-Medium-55"/>
       </defs>
       <use xlink:href="#Roboto-Medium-48"/>
       <use x="56.835938" xlink:href="#Roboto-Medium-52"/>
       <use x="113.671875" xlink:href="#Roboto-Medium-45"/>
       <use x="146.484375" xlink:href="#Roboto-Medium-48"/>
       <use x="203.320312" xlink:href="#Roboto-Medium-55"/>
      </g>
     </g>
    </g>
    <g id="xtick_5">
     <g id="line2d_9">
      <path clip-path="url(#pa52cf4c3e6)" d="M 207.372237 420 
L 207.372237 28.32 
" style="fill:none;stroke:#cbcbcb;"/>
     </g>
     <g id="line2d_10"/>
     <g id="text_5">
      <!-- 04-21 -->
      <g transform="translate(174.404305 450.806392)rotate(-30)scale(0.14 -0.14)">
       <use xlink:href="#Roboto-Medium-48"/>
       <use x="56.835938" xlink:href="#Roboto-Medium-52"/>
       <use x="113.671875" xlink:href="#Roboto-Medium-45"/>
       <use x="146.484375" xlink:href="#Roboto-Medium-50"/>
       <use x="203.320312" xlink:href="#Roboto-Medium-49"/>
      </g>
     </g>
    </g>
    <g id="xtick_6">
     <g id="line2d_11">
      <path clip-path="url(#pa52cf4c3e6)" d="M 229.703788 420 
L 229.703788 28.32 
" style="fill:none;stroke:#cbcbcb;"/>
     </g>
     <g id="line2d_12"/>
     <g id="text_6">
      <!-- 05-05 -->
      <g transform="translate(196.735855 450.806392)rotate(-30)scale(0.14 -0.14)">
       <use xlink:href="#Roboto-Medium-48"/>
       <use x="56.835938" xlink:href="#Roboto-Medium-53"/>
       <use x="113.671875" xlink:href="#Roboto-Medium-45"/>
       <use x="146.484375" xlink:href="#Roboto-Medium-48"/>
       <use x="203.320312" xlink:href="#Roboto-Medium-53"/>
      </g>
     </g>
    </g>
    <g id="xtick_7">
     <g id="line2d_13">
      <path clip-path="url(#pa52cf4c3e6)" d="M 252.035339 420 
L 252.035339 28.32 
" style="fill:none;stroke:#cbcbcb;"/>
     </g>
     <g id="line2d_14"/>
     <g id="text_7">
      <!-- 05-19 -->
      <g transform="translate(219.067406 450.806392)rotate(-30)scale(0.14 -0.14)">
       <defs>
        <path d="M 38.96875 29.734375 
Q 33.015625 23.4375 25.046875 23.4375 
Q 15.671875 23.4375 10.109375 30 
Q 4.546875 36.578125 4.546875 47.265625 
Q 4.546875 54.296875 7.375 60 
Q 10.203125 65.71875 15.421875 68.890625 
Q 20.65625 72.078125 27.546875 72.078125 
Q 38.28125 72.078125 44.578125 64.0625 
Q 50.875 56.0625 50.875 42.625 
L 50.875 39.3125 
Q 50.875 20.0625 42.1875 9.953125 
Q 33.5 -0.140625 16.265625 -0.296875 
L 14.84375 -0.296875 
L 14.84375 9.515625 
L 16.546875 9.515625 
Q 27.046875 9.671875 32.65625 14.578125 
Q 38.28125 19.484375 38.96875 29.734375 
z
M 27.546875 32.71875 
Q 31.109375 32.71875 34.234375 34.765625 
Q 37.359375 36.8125 39.0625 40.4375 
L 39.0625 45.0625 
Q 39.0625 52.9375 35.84375 57.71875 
Q 32.625 62.5 27.484375 62.5 
Q 22.359375 62.5 19.3125 58.265625 
Q 16.265625 54.046875 16.265625 47.609375 
Q 16.265625 40.921875 19.328125 36.8125 
Q 22.40625 32.71875 27.546875 32.71875 
z
" id="Roboto-Medium-57"/>
       </defs>
       <use xlink:href="#Roboto-Medium-48"/>
       <use x="56.835938" xlink:href="#Roboto-Medium-53"/>
       <use x="113.671875" xlink:href="#Roboto-Medium-45"/>
       <use x="146.484375" xlink:href="#Roboto-Medium-49"/>
       <use x="203.320312" xlink:href="#Roboto-Medium-57"/>
      </g>
     </g>
    </g>
    <g id="xtick_8">
     <g id="line2d_15">
      <path clip-path="url(#pa52cf4c3e6)" d="M 274.36689 420 
L 274.36689 28.32 
" style="fill:none;stroke:#cbcbcb;"/>
     </g>
     <g id="line2d_16"/>
     <g id="text_8">
      <!-- 06-02 -->
      <g transform="translate(241.398957 450.806392)rotate(-30)scale(0.14 -0.14)">
       <defs>
        <path d="M 42.234375 71.4375 
L 42.234375 61.625 
L 40.765625 61.625 
Q 30.8125 61.46875 24.84375 56.140625 
Q 18.890625 50.828125 17.78125 41.0625 
Q 23.484375 47.078125 32.375 47.078125 
Q 41.796875 47.078125 47.234375 40.4375 
Q 52.6875 33.796875 52.6875 23.296875 
Q 52.6875 12.453125 46.3125 5.734375 
Q 39.9375 -0.984375 29.59375 -0.984375 
Q 18.953125 -0.984375 12.328125 6.875 
Q 5.71875 14.75 5.71875 27.484375 
L 5.71875 31.546875 
Q 5.71875 50.25 14.8125 60.84375 
Q 23.921875 71.4375 41.015625 71.4375 
z
M 29.5 37.5 
Q 25.59375 37.5 22.34375 35.296875 
Q 19.09375 33.109375 17.578125 29.4375 
L 17.578125 25.828125 
Q 17.578125 17.921875 20.890625 13.25 
Q 24.21875 8.59375 29.484375 8.59375 
Q 34.765625 8.59375 37.84375 12.546875 
Q 40.921875 16.5 40.921875 22.9375 
Q 40.921875 29.390625 37.796875 33.4375 
Q 34.671875 37.5 29.5 37.5 
z
" id="Roboto-Medium-54"/>
       </defs>
       <use xlink:href="#Roboto-Medium-48"/>
       <use x="56.835938" xlink:href="#Roboto-Medium-54"/>
       <use x="113.671875" xlink:href="#Roboto-Medium-45"/>
       <use x="146.484375" xlink:href="#Roboto-Medium-48"/>
       <use x="203.320312" xlink:href="#Roboto-Medium-50"/>
      </g>
     </g>
    </g>
    <g id="xtick_9">
     <g id="line2d_17">
      <path clip-path="url(#pa52cf4c3e6)" d="M 296.698441 420 
L 296.698441 28.32 
" style="fill:none;stroke:#cbcbcb;"/>
     </g>
     <g id="line2d_18"/>
     <g id="text_9">
      <!-- 06-16 -->
      <g transform="translate(263.730508 450.806392)rotate(-30)scale(0.14 -0.14)">
       <use xlink:href="#Roboto-Medium-48"/>
       <use x="56.835938" xlink:href="#Roboto-Medium-54"/>
       <use x="113.671875" xlink:href="#Roboto-Medium-45"/>
       <use x="146.484375" xlink:href="#Roboto-Medium-49"/>
       <use x="203.320312" xlink:href="#Roboto-Medium-54"/>
      </g>
     </g>
    </g>
    <g id="xtick_10">
     <g id="line2d_19">
      <path clip-path="url(#pa52cf4c3e6)" d="M 319.029991 420 
L 319.029991 28.32 
" style="fill:none;stroke:#cbcbcb;"/>
     </g>
     <g id="line2d_20"/>
     <g id="text_10">
      <!-- 06-30 -->
      <g transform="translate(286.062059 450.806392)rotate(-30)scale(0.14 -0.14)">
       <use xlink:href="#Roboto-Medium-48"/>
       <use x="56.835938" xlink:href="#Roboto-Medium-54"/>
       <use x="113.671875" xlink:href="#Roboto-Medium-45"/>
       <use x="146.484375" xlink:href="#Roboto-Medium-51"/>
       <use x="203.320312" xlink:href="#Roboto-Medium-48"/>
      </g>
     </g>
    </g>
    <g id="xtick_11">
     <g id="line2d_21">
      <path clip-path="url(#pa52cf4c3e6)" d="M 341.361542 420 
L 341.361542 28.32 
" style="fill:none;stroke:#cbcbcb;"/>
     </g>
     <g id="line2d_22"/>
     <g id="text_11">
      <!-- 07-14 -->
      <g transform="translate(308.393609 450.806392)rotate(-30)scale(0.14 -0.14)">
       <use xlink:href="#Roboto-Medium-48"/>
       <use x="56.835938" xlink:href="#Roboto-Medium-55"/>
       <use x="113.671875" xlink:href="#Roboto-Medium-45"/>
       <use x="146.484375" xlink:href="#Roboto-Medium-49"/>
       <use x="203.320312" xlink:href="#Roboto-Medium-52"/>
      </g>
     </g>
    </g>
    <g id="xtick_12">
     <g id="line2d_23">
      <path clip-path="url(#pa52cf4c3e6)" d="M 363.693093 420 
L 363.693093 28.32 
" style="fill:none;stroke:#cbcbcb;"/>
     </g>
     <g id="line2d_24"/>
     <g id="text_12">
      <!-- 07-28 -->
      <g transform="translate(330.72516 450.806392)rotate(-30)scale(0.14 -0.14)">
       <defs>
        <path d="M 50.09375 52.34375 
Q 50.09375 47.125 47.40625 43.046875 
Q 44.734375 38.96875 40.09375 36.625 
Q 45.65625 34.03125 48.65625 29.53125 
Q 51.65625 25.046875 51.65625 19.390625 
Q 51.65625 10.015625 45.3125 4.515625 
Q 38.96875 -0.984375 28.421875 -0.984375 
Q 17.828125 -0.984375 11.453125 4.53125 
Q 5.078125 10.0625 5.078125 19.390625 
Q 5.078125 25.09375 8.109375 29.640625 
Q 11.140625 34.1875 16.609375 36.625 
Q 12.015625 38.96875 9.34375 43.046875 
Q 6.6875 47.125 6.6875 52.34375 
Q 6.6875 61.421875 12.546875 66.75 
Q 18.40625 72.078125 28.375 72.078125 
Q 38.375 72.078125 44.234375 66.75 
Q 50.09375 61.421875 50.09375 52.34375 
z
M 39.796875 19.96875 
Q 39.796875 25.25 36.640625 28.484375 
Q 33.5 31.734375 28.3125 31.734375 
Q 23.140625 31.734375 20.03125 28.515625 
Q 16.9375 25.296875 16.9375 19.96875 
Q 16.9375 14.75 19.984375 11.625 
Q 23.046875 8.5 28.421875 8.5 
Q 33.796875 8.5 36.796875 11.515625 
Q 39.796875 14.546875 39.796875 19.96875 
z
M 38.28125 51.90625 
Q 38.28125 56.546875 35.59375 59.546875 
Q 32.90625 62.546875 28.359375 62.546875 
Q 23.828125 62.546875 21.1875 59.6875 
Q 18.5625 56.84375 18.5625 51.90625 
Q 18.5625 47.015625 21.21875 44.140625 
Q 23.875 41.265625 28.40625 41.265625 
Q 32.953125 41.265625 35.609375 44.140625 
Q 38.28125 47.015625 38.28125 51.90625 
z
" id="Roboto-Medium-56"/>
       </defs>
       <use xlink:href="#Roboto-Medium-48"/>
       <use x="56.835938" xlink:href="#Roboto-Medium-55"/>
       <use x="113.671875" xlink:href="#Roboto-Medium-45"/>
       <use x="146.484375" xlink:href="#Roboto-Medium-50"/>
       <use x="203.320312" xlink:href="#Roboto-Medium-56"/>
      </g>
     </g>
    </g>
    <g id="xtick_13">
     <g id="line2d_25">
      <path clip-path="url(#pa52cf4c3e6)" d="M 386.024644 420 
L 386.024644 28.32 
" style="fill:none;stroke:#cbcbcb;"/>
     </g>
     <g id="line2d_26"/>
     <g id="text_13">
      <!-- 08-11 -->
      <g transform="translate(353.056711 450.806392)rotate(-30)scale(0.14 -0.14)">
       <use xlink:href="#Roboto-Medium-48"/>
       <use x="56.835938" xlink:href="#Roboto-Medium-56"/>
       <use x="113.671875" xlink:href="#Roboto-Medium-45"/>
       <use x="146.484375" xlink:href="#Roboto-Medium-49"/>
       <use x="203.320312" xlink:href="#Roboto-Medium-49"/>
      </g>
     </g>
    </g>
    <g id="xtick_14">
     <g id="line2d_27">
      <path clip-path="url(#pa52cf4c3e6)" d="M 408.356195 420 
L 408.356195 28.32 
" style="fill:none;stroke:#cbcbcb;"/>
     </g>
     <g id="line2d_28"/>
     <g id="text_14">
      <!-- 08-25 -->
      <g transform="translate(375.388262 450.806392)rotate(-30)scale(0.14 -0.14)">
       <use xlink:href="#Roboto-Medium-48"/>
       <use x="56.835938" xlink:href="#Roboto-Medium-56"/>
       <use x="113.671875" xlink:href="#Roboto-Medium-45"/>
       <use x="146.484375" xlink:href="#Roboto-Medium-50"/>
       <use x="203.320312" xlink:href="#Roboto-Medium-53"/>
      </g>
     </g>
    </g>
    <g id="xtick_15">
     <g id="line2d_29">
      <path clip-path="url(#pa52cf4c3e6)" d="M 430.687745 420 
L 430.687745 28.32 
" style="fill:none;stroke:#cbcbcb;"/>
     </g>
     <g id="line2d_30"/>
     <g id="text_15">
      <!-- 09-08 -->
      <g transform="translate(397.719813 450.806392)rotate(-30)scale(0.14 -0.14)">
       <use xlink:href="#Roboto-Medium-48"/>
       <use x="56.835938" xlink:href="#Roboto-Medium-57"/>
       <use x="113.671875" xlink:href="#Roboto-Medium-45"/>
       <use x="146.484375" xlink:href="#Roboto-Medium-48"/>
       <use x="203.320312" xlink:href="#Roboto-Medium-56"/>
      </g>
     </g>
    </g>
    <g id="xtick_16">
     <g id="line2d_31">
      <path clip-path="url(#pa52cf4c3e6)" d="M 453.019296 420 
L 453.019296 28.32 
" style="fill:none;stroke:#cbcbcb;"/>
     </g>
     <g id="line2d_32"/>
     <g id="text_16">
      <!-- 09-22 -->
      <g transform="translate(420.051363 450.806392)rotate(-30)scale(0.14 -0.14)">
       <use xlink:href="#Roboto-Medium-48"/>
       <use x="56.835938" xlink:href="#Roboto-Medium-57"/>
       <use x="113.671875" xlink:href="#Roboto-Medium-45"/>
       <use x="146.484375" xlink:href="#Roboto-Medium-50"/>
       <use x="203.320312" xlink:href="#Roboto-Medium-50"/>
      </g>
     </g>
    </g>
    <g id="xtick_17">
     <g id="line2d_33">
      <path clip-path="url(#pa52cf4c3e6)" d="M 475.350847 420 
L 475.350847 28.32 
" style="fill:none;stroke:#cbcbcb;"/>
     </g>
     <g id="line2d_34"/>
     <g id="text_17">
      <!-- 10-06 -->
      <g transform="translate(442.382914 450.806392)rotate(-30)scale(0.14 -0.14)">
       <use xlink:href="#Roboto-Medium-49"/>
       <use x="56.835938" xlink:href="#Roboto-Medium-48"/>
       <use x="113.671875" xlink:href="#Roboto-Medium-45"/>
       <use x="146.484375" xlink:href="#Roboto-Medium-48"/>
       <use x="203.320312" xlink:href="#Roboto-Medium-54"/>
      </g>
     </g>
    </g>
    <g id="xtick_18">
     <g id="line2d_35">
      <path clip-path="url(#pa52cf4c3e6)" d="M 497.682398 420 
L 497.682398 28.32 
" style="fill:none;stroke:#cbcbcb;"/>
     </g>
     <g id="line2d_36"/>
     <g id="text_18">
      <!-- 10-20 -->
      <g transform="translate(464.714465 450.806392)rotate(-30)scale(0.14 -0.14)">
       <use xlink:href="#Roboto-Medium-49"/>
       <use x="56.835938" xlink:href="#Roboto-Medium-48"/>
       <use x="113.671875" xlink:href="#Roboto-Medium-45"/>
       <use x="146.484375" xlink:href="#Roboto-Medium-50"/>
       <use x="203.320312" xlink:href="#Roboto-Medium-48"/>
      </g>
     </g>
    </g>
    <g id="xtick_19">
     <g id="line2d_37">
      <path clip-path="url(#pa52cf4c3e6)" d="M 520.013949 420 
L 520.013949 28.32 
" style="fill:none;stroke:#cbcbcb;"/>
     </g>
     <g id="line2d_38"/>
     <g id="text_19">
      <!-- 11-03 -->
      <g transform="translate(487.046016 450.806392)rotate(-30)scale(0.14 -0.14)">
       <use xlink:href="#Roboto-Medium-49"/>
       <use x="56.835938" xlink:href="#Roboto-Medium-49"/>
       <use x="113.671875" xlink:href="#Roboto-Medium-45"/>
       <use x="146.484375" xlink:href="#Roboto-Medium-48"/>
       <use x="203.320312" xlink:href="#Roboto-Medium-51"/>
      </g>
     </g>
    </g>
    <g id="xtick_20">
     <g id="line2d_39">
      <path clip-path="url(#pa52cf4c3e6)" d="M 542.345499 420 
L 542.345499 28.32 
" style="fill:none;stroke:#cbcbcb;"/>
     </g>
     <g id="line2d_40"/>
     <g id="text_20">
      <!-- 11-17 -->
      <g transform="translate(509.377567 450.806392)rotate(-30)scale(0.14 -0.14)">
       <use xlink:href="#Roboto-Medium-49"/>
       <use x="56.835938" xlink:href="#Roboto-Medium-49"/>
       <use x="113.671875" xlink:href="#Roboto-Medium-45"/>
       <use x="146.484375" xlink:href="#Roboto-Medium-49"/>
       <use x="203.320312" xlink:href="#Roboto-Medium-55"/>
      </g>
     </g>
    </g>
    <g id="xtick_21">
     <g id="line2d_41">
      <path clip-path="url(#pa52cf4c3e6)" d="M 564.67705 420 
L 564.67705 28.32 
" style="fill:none;stroke:#cbcbcb;"/>
     </g>
     <g id="line2d_42"/>
     <g id="text_21">
      <!-- 12-01 -->
      <g transform="translate(531.709117 450.806392)rotate(-30)scale(0.14 -0.14)">
       <use xlink:href="#Roboto-Medium-49"/>
       <use x="56.835938" xlink:href="#Roboto-Medium-50"/>
       <use x="113.671875" xlink:href="#Roboto-Medium-45"/>
       <use x="146.484375" xlink:href="#Roboto-Medium-48"/>
       <use x="203.320312" xlink:href="#Roboto-Medium-49"/>
      </g>
     </g>
    </g>
    <g id="xtick_22">
     <g id="line2d_43">
      <path clip-path="url(#pa52cf4c3e6)" d="M 587.008601 420 
L 587.008601 28.32 
" style="fill:none;stroke:#cbcbcb;"/>
     </g>
     <g id="line2d_44"/>
     <g id="text_22">
      <!-- 12-15 -->
      <g transform="translate(554.040668 450.806392)rotate(-30)scale(0.14 -0.14)">
       <use xlink:href="#Roboto-Medium-49"/>
       <use x="56.835938" xlink:href="#Roboto-Medium-50"/>
       <use x="113.671875" xlink:href="#Roboto-Medium-45"/>
       <use x="146.484375" xlink:href="#Roboto-Medium-49"/>
       <use x="203.320312" xlink:href="#Roboto-Medium-53"/>
      </g>
     </g>
    </g>
    <g id="xtick_23">
     <g id="line2d_45">
      <path clip-path="url(#pa52cf4c3e6)" d="M 609.340152 420 
L 609.340152 28.32 
" style="fill:none;stroke:#cbcbcb;"/>
     </g>
     <g id="line2d_46"/>
     <g id="text_23">
      <!-- 12-29 -->
      <g transform="translate(576.372219 450.806392)rotate(-30)scale(0.14 -0.14)">
       <use xlink:href="#Roboto-Medium-49"/>
       <use x="56.835938" xlink:href="#Roboto-Medium-50"/>
       <use x="113.671875" xlink:href="#Roboto-Medium-45"/>
       <use x="146.484375" xlink:href="#Roboto-Medium-50"/>
       <use x="203.320312" xlink:href="#Roboto-Medium-57"/>
      </g>
     </g>
    </g>
    <g id="xtick_24">
     <g id="line2d_47">
      <path clip-path="url(#pa52cf4c3e6)" d="M 631.671703 420 
L 631.671703 28.32 
" style="fill:none;stroke:#cbcbcb;"/>
     </g>
     <g id="line2d_48"/>
     <g id="text_24">
      <!-- 01-12 -->
      <g transform="translate(598.70377 450.806392)rotate(-30)scale(0.14 -0.14)">
       <use xlink:href="#Roboto-Medium-48"/>
       <use x="56.835938" xlink:href="#Roboto-Medium-49"/>
       <use x="113.671875" xlink:href="#Roboto-Medium-45"/>
       <use x="146.484375" xlink:href="#Roboto-Medium-49"/>
       <use x="203.320312" xlink:href="#Roboto-Medium-50"/>
      </g>
     </g>
    </g>
    <g id="xtick_25">
     <g id="line2d_49">
      <path clip-path="url(#pa52cf4c3e6)" d="M 654.003253 420 
L 654.003253 28.32 
" style="fill:none;stroke:#cbcbcb;"/>
     </g>
     <g id="line2d_50"/>
     <g id="text_25">
      <!-- 01-26 -->
      <g transform="translate(621.035321 450.806392)rotate(-30)scale(0.14 -0.14)">
       <use xlink:href="#Roboto-Medium-48"/>
       <use x="56.835938" xlink:href="#Roboto-Medium-49"/>
       <use x="113.671875" xlink:href="#Roboto-Medium-45"/>
       <use x="146.484375" xlink:href="#Roboto-Medium-50"/>
       <use x="203.320312" xlink:href="#Roboto-Medium-54"/>
      </g>
     </g>
    </g>
    <g id="xtick_26">
     <g id="line2d_51">
      <path clip-path="url(#pa52cf4c3e6)" d="M 676.334804 420 
L 676.334804 28.32 
" style="fill:none;stroke:#cbcbcb;"/>
     </g>
     <g id="line2d_52"/>
     <g id="text_26">
      <!-- 02-09 -->
      <g transform="translate(643.366871 450.806392)rotate(-30)scale(0.14 -0.14)">
       <use xlink:href="#Roboto-Medium-48"/>
       <use x="56.835938" xlink:href="#Roboto-Medium-50"/>
       <use x="113.671875" xlink:href="#Roboto-Medium-45"/>
       <use x="146.484375" xlink:href="#Roboto-Medium-48"/>
       <use x="203.320312" xlink:href="#Roboto-Medium-57"/>
      </g>
     </g>
    </g>
    <g id="xtick_27">
     <g id="line2d_53">
      <path clip-path="url(#pa52cf4c3e6)" d="M 698.666355 420 
L 698.666355 28.32 
" style="fill:none;stroke:#cbcbcb;"/>
     </g>
     <g id="line2d_54"/>
     <g id="text_27">
      <!-- 02-23 -->
      <g transform="translate(665.698422 450.806392)rotate(-30)scale(0.14 -0.14)">
       <use xlink:href="#Roboto-Medium-48"/>
       <use x="56.835938" xlink:href="#Roboto-Medium-50"/>
       <use x="113.671875" xlink:href="#Roboto-Medium-45"/>
       <use x="146.484375" xlink:href="#Roboto-Medium-50"/>
       <use x="203.320312" xlink:href="#Roboto-Medium-51"/>
      </g>
     </g>
    </g>
    <g id="xtick_28">
     <g id="line2d_55">
      <path clip-path="url(#pa52cf4c3e6)" d="M 720.997906 420 
L 720.997906 28.32 
" style="fill:none;stroke:#cbcbcb;"/>
     </g>
     <g id="line2d_56"/>
     <g id="text_28">
      <!-- 03-09 -->
      <g transform="translate(688.029973 450.806392)rotate(-30)scale(0.14 -0.14)">
       <use xlink:href="#Roboto-Medium-48"/>
       <use x="56.835938" xlink:href="#Roboto-Medium-51"/>
       <use x="113.671875" xlink:href="#Roboto-Medium-45"/>
       <use x="146.484375" xlink:href="#Roboto-Medium-48"/>
       <use x="203.320312" xlink:href="#Roboto-Medium-57"/>
      </g>
     </g>
    </g>
    <g id="text_29">
     <!-- Dates -->
     <g transform="translate(393.7225 466.269151)scale(0.12 -0.12)">
      <defs>
       <path d="M 8.25 0 
L 8.25 71.09375 
L 28.328125 71.09375 
Q 37.59375 71.09375 44.71875 66.984375 
Q 51.859375 62.890625 55.734375 55.3125 
Q 59.625 47.75 59.671875 37.9375 
L 59.671875 33.40625 
Q 59.671875 23.34375 55.78125 15.765625 
Q 51.90625 8.203125 44.703125 4.140625 
Q 37.5 0.09375 27.9375 0 
z
M 17.625 63.375 
L 17.625 7.671875 
L 27.484375 7.671875 
Q 38.328125 7.671875 44.359375 14.40625 
Q 50.390625 21.140625 50.390625 33.59375 
L 50.390625 37.75 
Q 50.390625 49.859375 44.703125 56.5625 
Q 39.015625 63.28125 28.5625 63.375 
z
" id="Roboto-Regular-68"/>
       <path d="M 39.453125 0 
Q 38.671875 1.5625 38.1875 5.5625 
Q 31.890625 -0.984375 23.140625 -0.984375 
Q 15.328125 -0.984375 10.328125 3.4375 
Q 5.328125 7.859375 5.328125 14.65625 
Q 5.328125 22.90625 11.59375 27.46875 
Q 17.875 32.03125 29.25 32.03125 
L 38.03125 32.03125 
L 38.03125 36.1875 
Q 38.03125 40.921875 35.203125 43.71875 
Q 32.375 46.53125 26.859375 46.53125 
Q 22.015625 46.53125 18.75 44.09375 
Q 15.484375 41.65625 15.484375 38.1875 
L 6.390625 38.1875 
Q 6.390625 42.140625 9.203125 45.828125 
Q 12.015625 49.515625 16.8125 51.65625 
Q 21.625 53.8125 27.390625 53.8125 
Q 36.53125 53.8125 41.703125 49.234375 
Q 46.875 44.671875 47.078125 36.671875 
L 47.078125 12.359375 
Q 47.078125 5.078125 48.921875 0.78125 
L 48.921875 0 
z
M 24.46875 6.890625 
Q 28.71875 6.890625 32.515625 9.078125 
Q 36.328125 11.28125 38.03125 14.796875 
L 38.03125 25.640625 
L 30.953125 25.640625 
Q 14.359375 25.640625 14.359375 15.921875 
Q 14.359375 11.671875 17.1875 9.28125 
Q 20.015625 6.890625 24.46875 6.890625 
z
" id="Roboto-Regular-97"/>
       <path d="M 19.09375 65.625 
L 19.09375 52.828125 
L 28.953125 52.828125 
L 28.953125 45.84375 
L 19.09375 45.84375 
L 19.09375 13.09375 
Q 19.09375 9.90625 20.40625 8.3125 
Q 21.734375 6.734375 24.90625 6.734375 
Q 26.46875 6.734375 29.203125 7.328125 
L 29.203125 0 
Q 25.640625 -0.984375 22.265625 -0.984375 
Q 16.21875 -0.984375 13.140625 2.671875 
Q 10.0625 6.34375 10.0625 13.09375 
L 10.0625 45.84375 
L 0.4375 45.84375 
L 0.4375 52.828125 
L 10.0625 52.828125 
L 10.0625 65.625 
z
" id="Roboto-Regular-116"/>
       <path d="M 28.765625 -0.984375 
Q 18.015625 -0.984375 11.28125 6.078125 
Q 4.546875 13.140625 4.546875 24.953125 
L 4.546875 26.609375 
Q 4.546875 34.46875 7.546875 40.640625 
Q 10.546875 46.828125 15.9375 50.3125 
Q 21.34375 53.8125 27.640625 53.8125 
Q 37.9375 53.8125 43.640625 47.015625 
Q 49.359375 40.234375 49.359375 27.59375 
L 49.359375 23.828125 
L 13.578125 23.828125 
Q 13.765625 16.015625 18.140625 11.203125 
Q 22.515625 6.390625 29.25 6.390625 
Q 34.03125 6.390625 37.34375 8.34375 
Q 40.671875 10.296875 43.171875 13.53125 
L 48.6875 9.234375 
Q 42.046875 -0.984375 28.765625 -0.984375 
z
M 27.640625 46.390625 
Q 22.171875 46.390625 18.453125 42.40625 
Q 14.75 38.421875 13.875 31.25 
L 40.328125 31.25 
L 40.328125 31.9375 
Q 39.9375 38.8125 36.609375 42.59375 
Q 33.296875 46.390625 27.640625 46.390625 
z
" id="Roboto-Regular-101"/>
       <path d="M 37.59375 14.015625 
Q 37.59375 17.671875 34.828125 19.703125 
Q 32.078125 21.734375 25.21875 23.1875 
Q 18.359375 24.65625 14.328125 26.703125 
Q 10.296875 28.765625 8.375 31.59375 
Q 6.453125 34.421875 6.453125 38.328125 
Q 6.453125 44.828125 11.9375 49.3125 
Q 17.4375 53.8125 25.984375 53.8125 
Q 34.96875 53.8125 40.546875 49.171875 
Q 46.140625 44.53125 46.140625 37.3125 
L 37.0625 37.3125 
Q 37.0625 41.015625 33.90625 43.703125 
Q 30.765625 46.390625 25.984375 46.390625 
Q 21.046875 46.390625 18.265625 44.234375 
Q 15.484375 42.09375 15.484375 38.625 
Q 15.484375 35.359375 18.0625 33.6875 
Q 20.65625 32.03125 27.421875 30.515625 
Q 34.1875 29 38.375 26.90625 
Q 42.578125 24.8125 44.59375 21.84375 
Q 46.625 18.890625 46.625 14.65625 
Q 46.625 7.5625 40.953125 3.28125 
Q 35.296875 -0.984375 26.265625 -0.984375 
Q 19.921875 -0.984375 15.03125 1.265625 
Q 10.15625 3.515625 7.390625 7.546875 
Q 4.640625 11.578125 4.640625 16.265625 
L 13.671875 16.265625 
Q 13.921875 11.71875 17.3125 9.046875 
Q 20.703125 6.390625 26.265625 6.390625 
Q 31.390625 6.390625 34.484375 8.46875 
Q 37.59375 10.546875 37.59375 14.015625 
z
" id="Roboto-Regular-115"/>
      </defs>
      <use xlink:href="#Roboto-Regular-68"/>
      <use x="65.576172" xlink:href="#Roboto-Regular-97"/>
      <use x="119.970703" xlink:href="#Roboto-Regular-116"/>
      <use x="152.636719" xlink:href="#Roboto-Regular-101"/>
      <use x="205.615234" xlink:href="#Roboto-Regular-115"/>
     </g>
    </g>
   </g>
   <g id="matplotlib.axis_2">
    <g id="ytick_1">
     <g id="line2d_57">
      <path clip-path="url(#pa52cf4c3e6)" d="M 95.95375 403.209308 
L 722.35375 403.209308 
" style="fill:none;stroke:#cbcbcb;"/>
     </g>
     <g id="line2d_58"/>
     <g id="text_30">
      <!-- 1 -->
      <g transform="translate(84.495625 408.459308)scale(0.14 -0.14)">
       <use xlink:href="#Roboto-Medium-49"/>
      </g>
     </g>
    </g>
    <g id="ytick_2">
     <g id="line2d_59">
      <path clip-path="url(#pa52cf4c3e6)" d="M 95.95375 349.653693 
L 722.35375 349.653693 
" style="fill:none;stroke:#cbcbcb;"/>
     </g>
     <g id="line2d_60"/>
     <g id="text_31">
      <!-- 10 -->
      <g transform="translate(76.5375 354.903693)scale(0.14 -0.14)">
       <use xlink:href="#Roboto-Medium-49"/>
       <use x="56.835938" xlink:href="#Roboto-Medium-48"/>
      </g>
     </g>
    </g>
    <g id="ytick_3">
     <g id="line2d_61">
      <path clip-path="url(#pa52cf4c3e6)" d="M 95.95375 296.098077 
L 722.35375 296.098077 
" style="fill:none;stroke:#cbcbcb;"/>
     </g>
     <g id="line2d_62"/>
     <g id="text_32">
      <!-- 100 -->
      <g transform="translate(68.579375 301.348077)scale(0.14 -0.14)">
       <use xlink:href="#Roboto-Medium-49"/>
       <use x="56.835938" xlink:href="#Roboto-Medium-48"/>
       <use x="113.671875" xlink:href="#Roboto-Medium-48"/>
      </g>
     </g>
    </g>
    <g id="ytick_4">
     <g id="line2d_63">
      <path clip-path="url(#pa52cf4c3e6)" d="M 95.95375 242.542462 
L 722.35375 242.542462 
" style="fill:none;stroke:#cbcbcb;"/>
     </g>
     <g id="line2d_64"/>
     <g id="text_33">
      <!-- 1,000 -->
      <g transform="translate(57.545625 247.792462)scale(0.14 -0.14)">
       <defs>
        <path d="M 7.765625 -16.015625 
L 1.375 -12.203125 
Q 4.203125 -7.765625 5.25 -4.46875 
Q 6.296875 -1.171875 6.34375 2.25 
L 6.34375 11.46875 
L 17.046875 11.46875 
L 17 2.9375 
Q 16.9375 -2.25 14.375 -7.4375 
Q 11.8125 -12.640625 7.765625 -16.015625 
z
" id="Roboto-Medium-44"/>
       </defs>
       <use xlink:href="#Roboto-Medium-49"/>
       <use x="56.835938" xlink:href="#Roboto-Medium-44"/>
       <use x="78.808594" xlink:href="#Roboto-Medium-48"/>
       <use x="135.644531" xlink:href="#Roboto-Medium-48"/>
       <use x="192.480469" xlink:href="#Roboto-Medium-48"/>
      </g>
     </g>
    </g>
    <g id="ytick_5">
     <g id="line2d_65">
      <path clip-path="url(#pa52cf4c3e6)" d="M 95.95375 188.986846 
L 722.35375 188.986846 
" style="fill:none;stroke:#cbcbcb;"/>
     </g>
     <g id="line2d_66"/>
     <g id="text_34">
      <!-- 10,000 -->
      <g transform="translate(49.5875 194.236846)scale(0.14 -0.14)">
       <use xlink:href="#Roboto-Medium-49"/>
       <use x="56.835938" xlink:href="#Roboto-Medium-48"/>
       <use x="113.671875" xlink:href="#Roboto-Medium-44"/>
       <use x="135.644531" xlink:href="#Roboto-Medium-48"/>
       <use x="192.480469" xlink:href="#Roboto-Medium-48"/>
       <use x="249.316406" xlink:href="#Roboto-Medium-48"/>
      </g>
     </g>
    </g>
    <g id="ytick_6">
     <g id="line2d_67">
      <path clip-path="url(#pa52cf4c3e6)" d="M 95.95375 135.431231 
L 722.35375 135.431231 
" style="fill:none;stroke:#cbcbcb;"/>
     </g>
     <g id="line2d_68"/>
     <g id="text_35">
      <!-- 100,000 -->
      <g transform="translate(41.629375 140.681231)scale(0.14 -0.14)">
       <use xlink:href="#Roboto-Medium-49"/>
       <use x="56.835938" xlink:href="#Roboto-Medium-48"/>
       <use x="113.671875" xlink:href="#Roboto-Medium-48"/>
       <use x="170.507812" xlink:href="#Roboto-Medium-44"/>
       <use x="192.480469" xlink:href="#Roboto-Medium-48"/>
       <use x="249.316406" xlink:href="#Roboto-Medium-48"/>
       <use x="306.152344" xlink:href="#Roboto-Medium-48"/>
      </g>
     </g>
    </g>
    <g id="ytick_7">
     <g id="line2d_69">
      <path clip-path="url(#pa52cf4c3e6)" d="M 95.95375 81.875615 
L 722.35375 81.875615 
" style="fill:none;stroke:#cbcbcb;"/>
     </g>
     <g id="line2d_70"/>
     <g id="text_36">
      <!-- 1,000,000 -->
      <g transform="translate(30.595625 87.125615)scale(0.14 -0.14)">
       <use xlink:href="#Roboto-Medium-49"/>
       <use x="56.835938" xlink:href="#Roboto-Medium-44"/>
       <use x="78.808594" xlink:href="#Roboto-Medium-48"/>
       <use x="135.644531" xlink:href="#Roboto-Medium-48"/>
       <use x="192.480469" xlink:href="#Roboto-Medium-48"/>
       <use x="249.316406" xlink:href="#Roboto-Medium-44"/>
       <use x="271.289062" xlink:href="#Roboto-Medium-48"/>
       <use x="328.125" xlink:href="#Roboto-Medium-48"/>
       <use x="384.960938" xlink:href="#Roboto-Medium-48"/>
      </g>
     </g>
    </g>
    <g id="ytick_8">
     <g id="line2d_71">
      <path clip-path="url(#pa52cf4c3e6)" d="M 95.95375 28.32 
L 722.35375 28.32 
" style="fill:none;stroke:#cbcbcb;"/>
     </g>
     <g id="line2d_72"/>
     <g id="text_37">
      <!-- 10,000,000 -->
      <g transform="translate(22.6375 33.57)scale(0.14 -0.14)">
       <use xlink:href="#Roboto-Medium-49"/>
       <use x="56.835938" xlink:href="#Roboto-Medium-48"/>
       <use x="113.671875" xlink:href="#Roboto-Medium-44"/>
       <use x="135.644531" xlink:href="#Roboto-Medium-48"/>
       <use x="192.480469" xlink:href="#Roboto-Medium-48"/>
       <use x="249.316406" xlink:href="#Roboto-Medium-48"/>
       <use x="306.152344" xlink:href="#Roboto-Medium-44"/>
       <use x="328.125" xlink:href="#Roboto-Medium-48"/>
       <use x="384.960938" xlink:href="#Roboto-Medium-48"/>
       <use x="441.796875" xlink:href="#Roboto-Medium-48"/>
      </g>
     </g>
    </g>
    <g id="ytick_9">
     <g id="line2d_73"/>
    </g>
    <g id="ytick_10">
     <g id="line2d_74"/>
    </g>
    <g id="ytick_11">
     <g id="line2d_75"/>
    </g>
    <g id="ytick_12">
     <g id="line2d_76"/>
    </g>
    <g id="ytick_13">
     <g id="line2d_77"/>
    </g>
    <g id="ytick_14">
     <g id="line2d_78"/>
    </g>
    <g id="ytick_15">
     <g id="line2d_79"/>
    </g>
    <g id="ytick_16">
     <g id="line2d_80"/>
    </g>
    <g id="ytick_17">
     <g id="line2d_81"/>
    </g>
    <g id="ytick_18">
     <g id="line2d_82"/>
    </g>
    <g id="ytick_19">
     <g id="line2d_83"/>
    </g>
    <g id="ytick_20">
     <g id="line2d_84"/>
    </g>
    <g id="ytick_21">
     <g id="line2d_85"/>
    </g>
    <g id="ytick_22">
     <g id="line2d_86"/>
    </g>
    <g id="ytick_23">
     <g id="line2d_87"/>
    </g>
    <g id="ytick_24">
     <g id="line2d_88"/>
    </g>
    <g id="ytick_25">
     <g id="line2d_89"/>
    </g>
    <g id="ytick_26">
     <g id="line2d_90"/>
    </g>
    <g id="ytick_27">
     <g id="line2d_91"/>
    </g>
    <g id="ytick_28">
     <g id="line2d_92"/>
    </g>
    <g id="ytick_29">
     <g id="line2d_93"/>
    </g>
    <g id="ytick_30">
     <g id="line2d_94"/>
    </g>
    <g id="ytick_31">
     <g id="line2d_95"/>
    </g>
    <g id="ytick_32">
     <g id="line2d_96"/>
    </g>
    <g id="ytick_33">
     <g id="line2d_97"/>
    </g>
    <g id="ytick_34">
     <g id="line2d_98"/>
    </g>
    <g id="ytick_35">
     <g id="line2d_99"/>
    </g>
    <g id="ytick_36">
     <g id="line2d_100"/>
    </g>
    <g id="ytick_37">
     <g id="line2d_101"/>
    </g>
    <g id="ytick_38">
     <g id="line2d_102"/>
    </g>
    <g id="ytick_39">
     <g id="line2d_103"/>
    </g>
    <g id="ytick_40">
     <g id="line2d_104"/>
    </g>
    <g id="ytick_41">
     <g id="line2d_105"/>
    </g>
    <g id="ytick_42">
     <g id="line2d_106"/>
    </g>
    <g id="ytick_43">
     <g id="line2d_107"/>
    </g>
    <g id="ytick_44">
     <g id="line2d_108"/>
    </g>
    <g id="ytick_45">
     <g id="line2d_109"/>
    </g>
    <g id="ytick_46">
     <g id="line2d_110"/>
    </g>
    <g id="ytick_47">
     <g id="line2d_111"/>
    </g>
    <g id="ytick_48">
     <g id="line2d_112"/>
    </g>
    <g id="ytick_49">
     <g id="line2d_113"/>
    </g>
    <g id="ytick_50">
     <g id="line2d_114"/>
    </g>
    <g id="ytick_51">
     <g id="line2d_115"/>
    </g>
    <g id="ytick_52">
     <g id="line2d_116"/>
    </g>
    <g id="ytick_53">
     <g id="line2d_117"/>
    </g>
    <g id="ytick_54">
     <g id="line2d_118"/>
    </g>
    <g id="ytick_55">
     <g id="line2d_119"/>
    </g>
    <g id="ytick_56">
     <g id="line2d_120"/>
    </g>
    <g id="ytick_57">
     <g id="line2d_121"/>
    </g>
    <g id="ytick_58">
     <g id="line2d_122"/>
    </g>
    <g id="ytick_59">
     <g id="line2d_123"/>
    </g>
    <g id="ytick_60">
     <g id="line2d_124"/>
    </g>
    <g id="ytick_61">
     <g id="line2d_125"/>
    </g>
    <g id="ytick_62">
     <g id="line2d_126"/>
    </g>
    <g id="ytick_63">
     <g id="line2d_127"/>
    </g>
    <g id="ytick_64">
     <g id="line2d_128"/>
    </g>
    <g id="ytick_65">
     <g id="line2d_129"/>
    </g>
    <g id="ytick_66">
     <g id="line2d_130"/>
    </g>
    <g id="ytick_67">
     <g id="line2d_131"/>
    </g>
    <g id="ytick_68">
     <g id="line2d_132"/>
    </g>
    <g id="ytick_69">
     <g id="line2d_133"/>
    </g>
    <g id="text_38">
     <!-- Confirmed Cases -->
     <g transform="translate(16.2 270.209062)rotate(-90)scale(0.12 -0.12)">
      <defs>
       <path d="M 60.546875 22.5625 
Q 59.234375 11.28125 52.21875 5.140625 
Q 45.21875 -0.984375 33.59375 -0.984375 
Q 21 -0.984375 13.40625 8.046875 
Q 5.8125 17.09375 5.8125 32.234375 
L 5.8125 39.0625 
Q 5.8125 48.96875 9.34375 56.484375 
Q 12.890625 64.015625 19.375 68.046875 
Q 25.875 72.078125 34.421875 72.078125 
Q 45.75 72.078125 52.578125 65.75 
Q 59.421875 59.421875 60.546875 48.25 
L 51.125 48.25 
Q 49.90625 56.734375 45.828125 60.546875 
Q 41.75 64.359375 34.421875 64.359375 
Q 25.4375 64.359375 20.328125 57.71875 
Q 15.234375 51.078125 15.234375 38.8125 
L 15.234375 31.9375 
Q 15.234375 20.359375 20.0625 13.515625 
Q 24.90625 6.6875 33.59375 6.6875 
Q 41.40625 6.6875 45.578125 10.21875 
Q 49.75 13.765625 51.125 22.5625 
z
" id="Roboto-Regular-67"/>
       <path d="M 4.4375 26.90625 
Q 4.4375 34.671875 7.484375 40.875 
Q 10.546875 47.078125 15.984375 50.4375 
Q 21.4375 53.8125 28.421875 53.8125 
Q 39.203125 53.8125 45.875 46.34375 
Q 52.546875 38.875 52.546875 26.46875 
L 52.546875 25.828125 
Q 52.546875 18.109375 49.578125 11.984375 
Q 46.625 5.859375 41.125 2.4375 
Q 35.640625 -0.984375 28.515625 -0.984375 
Q 17.78125 -0.984375 11.109375 6.484375 
Q 4.4375 13.96875 4.4375 26.265625 
z
M 13.53125 25.828125 
Q 13.53125 17.046875 17.609375 11.71875 
Q 21.6875 6.390625 28.515625 6.390625 
Q 35.40625 6.390625 39.453125 11.78125 
Q 43.5 17.1875 43.5 26.90625 
Q 43.5 35.59375 39.375 40.984375 
Q 35.25 46.390625 28.421875 46.390625 
Q 21.734375 46.390625 17.625 41.0625 
Q 13.53125 35.75 13.53125 25.828125 
z
" id="Roboto-Regular-111"/>
       <path d="M 15.375 52.828125 
L 15.671875 46.1875 
Q 21.734375 53.8125 31.5 53.8125 
Q 48.25 53.8125 48.390625 34.90625 
L 48.390625 0 
L 39.359375 0 
L 39.359375 34.96875 
Q 39.3125 40.671875 36.75 43.40625 
Q 34.1875 46.140625 28.765625 46.140625 
Q 24.359375 46.140625 21.03125 43.796875 
Q 17.71875 41.453125 15.875 37.640625 
L 15.875 0 
L 6.84375 0 
L 6.84375 52.828125 
z
" id="Roboto-Regular-110"/>
       <path d="M 11.28125 0 
L 11.28125 45.84375 
L 2.9375 45.84375 
L 2.9375 52.828125 
L 11.28125 52.828125 
L 11.28125 58.25 
Q 11.28125 66.75 15.8125 71.390625 
Q 20.359375 76.03125 28.65625 76.03125 
Q 31.78125 76.03125 34.859375 75.203125 
L 34.375 67.875 
Q 32.078125 68.3125 29.5 68.3125 
Q 25.09375 68.3125 22.703125 65.75 
Q 20.3125 63.1875 20.3125 58.40625 
L 20.3125 52.828125 
L 31.59375 52.828125 
L 31.59375 45.84375 
L 20.3125 45.84375 
L 20.3125 0 
z
" id="Roboto-Regular-102"/>
       <path d="M 16.65625 0 
L 7.625 0 
L 7.625 52.828125 
L 16.65625 52.828125 
z
M 6.890625 66.84375 
Q 6.890625 69.046875 8.234375 70.5625 
Q 9.578125 72.078125 12.203125 72.078125 
Q 14.84375 72.078125 16.203125 70.5625 
Q 17.578125 69.046875 17.578125 66.84375 
Q 17.578125 64.65625 16.203125 63.1875 
Q 14.84375 61.71875 12.203125 61.71875 
Q 9.578125 61.71875 8.234375 63.1875 
Q 6.890625 64.65625 6.890625 66.84375 
z
" id="Roboto-Regular-105"/>
       <path d="M 32.375 44.734375 
Q 30.328125 45.0625 27.9375 45.0625 
Q 19.046875 45.0625 15.875 37.5 
L 15.875 0 
L 6.84375 0 
L 6.84375 52.828125 
L 15.625 52.828125 
L 15.765625 46.734375 
Q 20.21875 53.8125 28.375 53.8125 
Q 31 53.8125 32.375 53.125 
z
" id="Roboto-Regular-114"/>
       <path d="M 15.328125 52.828125 
L 15.578125 46.96875 
Q 21.390625 53.8125 31.25 53.8125 
Q 42.328125 53.8125 46.34375 45.3125 
Q 48.96875 49.125 53.1875 51.46875 
Q 57.421875 53.8125 63.1875 53.8125 
Q 80.5625 53.8125 80.859375 35.40625 
L 80.859375 0 
L 71.828125 0 
L 71.828125 34.859375 
Q 71.828125 40.53125 69.234375 43.328125 
Q 66.65625 46.140625 60.546875 46.140625 
Q 55.515625 46.140625 52.1875 43.140625 
Q 48.875 40.140625 48.34375 35.0625 
L 48.34375 0 
L 39.265625 0 
L 39.265625 34.625 
Q 39.265625 46.140625 27.984375 46.140625 
Q 19.09375 46.140625 15.828125 38.578125 
L 15.828125 0 
L 6.78125 0 
L 6.78125 52.828125 
z
" id="Roboto-Regular-109"/>
       <path d="M 4.640625 26.859375 
Q 4.640625 39.015625 10.390625 46.40625 
Q 16.15625 53.8125 25.484375 53.8125 
Q 34.765625 53.8125 40.1875 47.46875 
L 40.1875 75 
L 49.21875 75 
L 49.21875 0 
L 40.921875 0 
L 40.484375 5.671875 
Q 35.0625 -0.984375 25.390625 -0.984375 
Q 16.21875 -0.984375 10.421875 6.53125 
Q 4.640625 14.0625 4.640625 26.171875 
z
M 13.671875 25.828125 
Q 13.671875 16.84375 17.375 11.765625 
Q 21.09375 6.6875 27.640625 6.6875 
Q 36.234375 6.6875 40.1875 14.40625 
L 40.1875 38.671875 
Q 36.140625 46.140625 27.734375 46.140625 
Q 21.09375 46.140625 17.375 41.015625 
Q 13.671875 35.890625 13.671875 25.828125 
z
" id="Roboto-Regular-100"/>
       <path id="Roboto-Regular-32"/>
      </defs>
      <use xlink:href="#Roboto-Regular-67"/>
      <use x="65.087891" xlink:href="#Roboto-Regular-111"/>
      <use x="122.119141" xlink:href="#Roboto-Regular-110"/>
      <use x="177.294922" xlink:href="#Roboto-Regular-102"/>
      <use x="212.011719" xlink:href="#Roboto-Regular-105"/>
      <use x="236.279297" xlink:href="#Roboto-Regular-114"/>
      <use x="270.117188" xlink:href="#Roboto-Regular-109"/>
      <use x="357.763672" xlink:href="#Roboto-Regular-101"/>
      <use x="410.742188" xlink:href="#Roboto-Regular-100"/>
      <use x="467.138672" xlink:href="#Roboto-Regular-32"/>
      <use x="491.894531" xlink:href="#Roboto-Regular-67"/>
      <use x="556.982422" xlink:href="#Roboto-Regular-97"/>
      <use x="611.376953" xlink:href="#Roboto-Regular-115"/>
      <use x="662.939453" xlink:href="#Roboto-Regular-101"/>
      <use x="715.917969" xlink:href="#Roboto-Regular-115"/>
     </g>
    </g>
   </g>
   <g id="line2d_134">
    <path clip-path="url(#pa52cf4c3e6)" d="M 141.970501 476.906651 
L 141.972696 403.209308 
L 143.567807 387.087462 
L 145.162917 354.843768 
L 146.758028 354.843768 
L 148.353139 343.551386 
L 149.94825 330.281136 
L 153.138471 302.177136 
L 154.733582 295.866644 
L 156.328693 291.094822 
L 159.518914 276.928656 
L 161.114025 272.400801 
L 164.304247 259.181717 
L 167.494468 245.808295 
L 170.68469 233.565862 
L 172.2798 230.200628 
L 173.874911 225.032454 
L 175.470022 222.035099 
L 177.065133 217.899069 
L 180.255354 210.953328 
L 181.850465 209.470555 
L 183.445576 206.696784 
L 185.040687 204.53437 
L 186.635797 203.061656 
L 188.230908 201.270838 
L 191.42113 198.10448 
L 193.01624 197.094089 
L 194.611351 195.808633 
L 196.206462 195.032702 
L 197.801573 193.985823 
L 199.396684 193.250717 
L 200.991794 191.8994 
L 202.586905 191.323984 
L 207.372237 188.859273 
L 208.967348 188.635971 
L 210.562459 187.660118 
L 212.15757 186.929162 
L 213.75268 186.761579 
L 215.347791 186.041509 
L 218.538013 185.078104 
L 221.728234 184.624456 
L 223.323345 184.00611 
L 224.918456 183.554286 
L 226.513567 183.292443 
L 228.108677 182.722295 
L 231.298899 182.231801 
L 232.89401 181.862468 
L 234.489121 181.727593 
L 240.869564 180.531503 
L 242.464674 180.397678 
L 250.440228 178.255087 
L 253.63045 178.007153 
L 255.225561 177.529022 
L 263.201114 176.417643 
L 264.796225 176.340544 
L 275.962001 174.734945 
L 279.152222 173.990795 
L 290.317998 171.873511 
L 291.913108 171.040538 
L 295.10333 170.441891 
L 307.864216 166.039606 
L 311.054438 164.494704 
L 312.649548 163.28363 
L 314.244659 162.254521 
L 315.83977 160.720332 
L 319.029991 158.670513 
L 320.625102 157.960675 
L 322.220213 156.590149 
L 323.815324 155.437305 
L 327.005545 152.987284 
L 330.195767 151.066509 
L 331.790878 149.77468 
L 333.385988 148.933796 
L 336.57621 146.978791 
L 338.171321 145.650941 
L 339.766431 144.500037 
L 342.956653 142.97002 
L 344.551764 141.991282 
L 346.146875 141.250163 
L 349.337096 139.420969 
L 352.527318 137.996829 
L 357.31265 135.799529 
L 358.907761 135.004188 
L 363.693093 133.140321 
L 368.478425 131.490855 
L 370.073536 130.958045 
L 373.263758 130.495035 
L 376.453979 130.065426 
L 382.834422 128.892907 
L 386.024644 128.428911 
L 387.619755 127.72685 
L 392.405087 126.884545 
L 409.951305 125.368214 
L 417.926859 124.95319 
L 419.52197 124.636801 
L 433.877967 124.082666 
L 445.043742 123.700163 
L 499.277509 121.806131 
L 504.062841 121.550024 
L 508.848173 121.343875 
L 523.20417 120.413584 
L 529.584613 119.912805 
L 532.774835 119.780464 
L 537.560167 119.2794 
L 539.155278 119.004031 
L 542.345499 118.67444 
L 556.701496 117.048951 
L 558.296607 116.656356 
L 563.081939 116.097437 
L 583.818379 113.39967 
L 601.364598 111.212201 
L 602.959709 111.212201 
L 604.55482 110.936573 
L 607.745041 110.638206 
L 612.530373 109.966327 
L 614.125484 109.966327 
L 615.720595 109.556413 
L 618.910816 109.247122 
L 626.88637 108.070093 
L 649.217921 105.830334 
L 676.334804 103.990652 
L 689.09569 103.349459 
L 693.881023 103.121576 
L 693.881023 103.121576 
" style="fill:none;stroke:#008fd5;stroke-width:4;"/>
   </g>
   <g id="line2d_135">
    <path clip-path="url(#pa52cf4c3e6)" d="M 126.018914 476.906651 
L 126.021588 387.087462 
L 127.616699 387.087462 
L 129.21181 377.656786 
L 130.80692 377.656786 
L 132.402031 370.965615 
L 135.592253 345.413092 
L 138.782474 341.827716 
L 140.377585 330.281136 
L 141.972696 327.42954 
L 143.567807 314.159289 
L 145.162917 304.393947 
L 146.758028 304.393947 
L 148.353139 294.093678 
L 149.94825 288.106556 
L 151.54336 278.841425 
L 153.138471 268.612393 
L 154.733582 261.956923 
L 156.328693 255.862863 
L 157.923803 248.803469 
L 159.518914 242.542462 
L 161.114025 237.87931 
L 162.709136 233.629195 
L 164.304247 226.760338 
L 165.899357 221.436124 
L 167.494468 215.503385 
L 169.089579 210.078852 
L 170.68469 205.375368 
L 172.2798 202.08153 
L 173.874911 198.15617 
L 178.660244 188.389843 
L 180.255354 185.661423 
L 181.850465 184.092637 
L 183.445576 181.799201 
L 185.040687 179.964438 
L 186.635797 178.510139 
L 189.826019 175.367314 
L 191.42113 174.084973 
L 193.01624 173.034241 
L 194.611351 171.718014 
L 196.206462 171.053444 
L 197.801573 170.098633 
L 199.396684 169.280952 
L 200.991794 167.913383 
L 207.372237 165.154774 
L 208.967348 164.790324 
L 210.562459 163.715119 
L 212.15757 163.030814 
L 213.75268 162.798814 
L 218.538013 161.331975 
L 221.728234 160.741038 
L 223.323345 160.035767 
L 228.108677 158.626335 
L 231.298899 157.939852 
L 232.89401 157.439615 
L 234.489121 157.218387 
L 236.084231 156.747224 
L 237.679342 156.403736 
L 239.274453 156.183584 
L 240.869564 155.655466 
L 242.464674 155.391173 
L 250.440228 153.274029 
L 253.63045 152.764228 
L 255.225561 152.181576 
L 261.606004 150.758332 
L 266.391336 150.076562 
L 267.986447 149.553373 
L 271.176668 148.852888 
L 274.36689 148.327055 
L 280.747333 146.270152 
L 283.937554 145.488015 
L 287.127776 144.620227 
L 290.317998 143.409306 
L 291.913108 142.578375 
L 296.698441 140.59196 
L 298.293551 139.846181 
L 299.888662 138.961394 
L 303.078884 136.922653 
L 304.673994 136.071919 
L 307.864216 134.632215 
L 309.459327 133.425552 
L 311.054438 132.381616 
L 314.244659 128.87939 
L 315.83977 127.42866 
L 319.029991 125.627391 
L 320.625102 124.646893 
L 322.220213 123.213135 
L 323.815324 121.943388 
L 325.410434 120.497025 
L 327.005545 119.297409 
L 330.195767 117.758988 
L 331.790878 116.696857 
L 333.385988 115.786225 
L 334.981099 114.670703 
L 336.57621 113.704098 
L 338.171321 112.346256 
L 339.766431 111.282671 
L 342.956653 109.739418 
L 344.551764 108.687338 
L 349.337096 106.29074 
L 352.527318 105.011778 
L 355.717539 103.784753 
L 358.907761 102.359156 
L 366.883315 99.867609 
L 371.668647 98.604273 
L 376.453979 97.870768 
L 382.834422 96.519724 
L 386.024644 96.087828 
L 389.214865 95.481111 
L 394.000198 94.811238 
L 398.78553 94.383966 
L 405.165973 93.735047 
L 411.546416 93.29692 
L 416.331748 92.935084 
L 417.926859 92.864656 
L 419.52197 92.583987 
L 424.307302 92.24839 
L 429.092635 91.957466 
L 435.473078 91.597459 
L 441.853521 91.23066 
L 457.804629 90.308818 
L 464.185072 90.020461 
L 476.945958 89.429236 
L 480.136179 89.230103 
L 481.73129 89.230103 
L 483.326401 89.053045 
L 488.111733 88.828003 
L 516.823727 86.85142 
L 534.369946 85.286135 
L 556.701496 82.784713 
L 558.296607 82.368969 
L 564.67705 81.686639 
L 574.247715 80.393927 
L 579.033047 79.771375 
L 583.818379 79.117036 
L 588.603712 78.517415 
L 593.389044 77.768029 
L 598.174376 77.193305 
L 601.364598 76.731396 
L 602.959709 76.731396 
L 604.55482 76.415818 
L 609.340152 75.912491 
L 612.530373 75.360007 
L 614.125484 75.360007 
L 615.720595 74.812529 
L 620.505927 74.181006 
L 628.481481 72.804307 
L 634.861924 71.96636 
L 638.052146 71.530055 
L 654.003253 69.979186 
L 658.788586 69.553464 
L 661.978807 69.243239 
L 668.35925 68.828722 
L 671.549472 68.577508 
L 693.881023 67.395475 
L 693.881023 67.395475 
" style="fill:none;stroke:#fc4f30;stroke-width:4;"/>
   </g>
   <g id="patch_3">
    <path d="M 95.95375 420 
L 95.95375 28.32 
" style="fill:none;stroke:#f0f0f0;stroke-linecap:square;stroke-linejoin:miter;stroke-width:3;"/>
   </g>
   <g id="patch_4">
    <path d="M 722.35375 420 
L 722.35375 28.32 
" style="fill:none;stroke:#f0f0f0;stroke-linecap:square;stroke-linejoin:miter;stroke-width:3;"/>
   </g>
   <g id="patch_5">
    <path d="M 95.95375 420 
L 722.35375 420 
" style="fill:none;stroke:#f0f0f0;stroke-linecap:square;stroke-linejoin:miter;stroke-width:3;"/>
   </g>
   <g id="patch_6">
    <path d="M 95.95375 28.32 
L 722.35375 28.32 
" style="fill:none;stroke:#f0f0f0;stroke-linecap:square;stroke-linejoin:miter;stroke-width:3;"/>
   </g>
   <g id="text_39">
    <!-- Cases of COVID-19 in Florida -->
    <g transform="translate(279.988 22.32)scale(0.2016 -0.2016)">
     <defs>
      <path d="M 62.9375 33.25 
Q 62.9375 22.796875 59.421875 15.015625 
Q 55.90625 7.234375 49.453125 3.125 
Q 43.015625 -0.984375 34.421875 -0.984375 
Q 26.03125 -0.984375 19.53125 3.140625 
Q 13.03125 7.28125 9.4375 14.921875 
Q 5.859375 22.5625 5.765625 32.625 
L 5.765625 37.75 
Q 5.765625 48 9.328125 55.859375 
Q 12.890625 63.71875 19.40625 67.890625 
Q 25.921875 72.078125 34.328125 72.078125 
Q 42.875 72.078125 49.390625 67.9375 
Q 55.90625 63.8125 59.421875 55.96875 
Q 62.9375 48.140625 62.9375 37.75 
z
M 53.609375 37.84375 
Q 53.609375 50.484375 48.53125 57.25 
Q 43.453125 64.015625 34.328125 64.015625 
Q 25.4375 64.015625 20.328125 57.25 
Q 15.234375 50.484375 15.09375 38.484375 
L 15.09375 33.25 
Q 15.09375 21 20.234375 13.984375 
Q 25.390625 6.984375 34.421875 6.984375 
Q 43.5 6.984375 48.484375 13.59375 
Q 53.46875 20.21875 53.609375 32.5625 
z
" id="Roboto-Regular-79"/>
      <path d="M 31.78125 12.453125 
L 52.09375 71.09375 
L 62.359375 71.09375 
L 35.984375 0 
L 27.6875 0 
L 1.375 71.09375 
L 11.578125 71.09375 
z
" id="Roboto-Regular-86"/>
      <path d="M 18.3125 0 
L 8.9375 0 
L 8.9375 71.09375 
L 18.3125 71.09375 
z
" id="Roboto-Regular-73"/>
      <path d="M 25.640625 26.515625 
L 1.8125 26.515625 
L 1.8125 33.890625 
L 25.640625 33.890625 
z
" id="Roboto-Regular-45"/>
      <path d="M 35.59375 0 
L 26.515625 0 
L 26.515625 60.203125 
L 8.296875 53.515625 
L 8.296875 61.71875 
L 34.1875 71.4375 
L 35.59375 71.4375 
z
" id="Roboto-Regular-49"/>
      <path d="M 40.53125 31.25 
Q 37.703125 27.875 33.765625 25.828125 
Q 29.828125 23.78125 25.140625 23.78125 
Q 19 23.78125 14.421875 26.796875 
Q 9.859375 29.828125 7.375 35.328125 
Q 4.890625 40.828125 4.890625 47.46875 
Q 4.890625 54.59375 7.59375 60.296875 
Q 10.296875 66.015625 15.28125 69.046875 
Q 20.265625 72.078125 26.90625 72.078125 
Q 37.453125 72.078125 43.53125 64.1875 
Q 49.609375 56.296875 49.609375 42.671875 
L 49.609375 40.046875 
Q 49.609375 19.28125 41.40625 9.734375 
Q 33.203125 0.203125 16.65625 -0.046875 
L 14.890625 -0.046875 
L 14.890625 7.5625 
L 16.796875 7.5625 
Q 27.984375 7.765625 33.984375 13.40625 
Q 39.984375 19.046875 40.53125 31.25 
z
M 26.609375 31.25 
Q 31.15625 31.25 34.984375 34.03125 
Q 38.8125 36.8125 40.578125 40.921875 
L 40.578125 44.53125 
Q 40.578125 53.421875 36.71875 58.984375 
Q 32.859375 64.546875 26.953125 64.546875 
Q 21 64.546875 17.375 59.984375 
Q 13.765625 55.421875 13.765625 47.953125 
Q 13.765625 40.671875 17.25 35.953125 
Q 20.75 31.25 26.609375 31.25 
z
" id="Roboto-Regular-57"/>
      <path d="M 47.46875 31.390625 
L 17.625 31.390625 
L 17.625 0 
L 8.25 0 
L 8.25 71.09375 
L 52.296875 71.09375 
L 52.296875 63.375 
L 17.625 63.375 
L 17.625 39.0625 
L 47.46875 39.0625 
z
" id="Roboto-Regular-70"/>
      <path d="M 16.65625 0 
L 7.625 0 
L 7.625 75 
L 16.65625 75 
z
" id="Roboto-Regular-108"/>
     </defs>
     <use xlink:href="#Roboto-Regular-67"/>
     <use x="65.087891" xlink:href="#Roboto-Regular-97"/>
     <use x="119.482422" xlink:href="#Roboto-Regular-115"/>
     <use x="171.044922" xlink:href="#Roboto-Regular-101"/>
     <use x="224.023438" xlink:href="#Roboto-Regular-115"/>
     <use x="275.585938" xlink:href="#Roboto-Regular-32"/>
     <use x="300.341797" xlink:href="#Roboto-Regular-111"/>
     <use x="357.373047" xlink:href="#Roboto-Regular-102"/>
     <use x="392.089844" xlink:href="#Roboto-Regular-32"/>
     <use x="416.845703" xlink:href="#Roboto-Regular-67"/>
     <use x="481.933594" xlink:href="#Roboto-Regular-79"/>
     <use x="550.683594" xlink:href="#Roboto-Regular-86"/>
     <use x="614.306641" xlink:href="#Roboto-Regular-73"/>
     <use x="641.503906" xlink:href="#Roboto-Regular-68"/>
     <use x="707.080078" xlink:href="#Roboto-Regular-45"/>
     <use x="734.667969" xlink:href="#Roboto-Regular-49"/>
     <use x="790.820312" xlink:href="#Roboto-Regular-57"/>
     <use x="846.972656" xlink:href="#Roboto-Regular-32"/>
     <use x="871.728516" xlink:href="#Roboto-Regular-105"/>
     <use x="895.996094" xlink:href="#Roboto-Regular-110"/>
     <use x="951.171875" xlink:href="#Roboto-Regular-32"/>
     <use x="975.927734" xlink:href="#Roboto-Regular-70"/>
     <use x="1031.201172" xlink:href="#Roboto-Regular-108"/>
     <use x="1055.46875" xlink:href="#Roboto-Regular-111"/>
     <use x="1112.5" xlink:href="#Roboto-Regular-114"/>
     <use x="1146.337891" xlink:href="#Roboto-Regular-105"/>
     <use x="1170.605469" xlink:href="#Roboto-Regular-100"/>
     <use x="1227.001953" xlink:href="#Roboto-Regular-97"/>
    </g>
   </g>
   <g id="legend_1">
    <g id="patch_7">
     <path d="M 105.75375 80.2075 
L 304.37 80.2075 
Q 307.17 80.2075 307.17 77.4075 
L 307.17 38.12 
Q 307.17 35.32 304.37 35.32 
L 105.75375 35.32 
Q 102.95375 35.32 102.95375 38.12 
L 102.95375 77.4075 
Q 102.95375 80.2075 105.75375 80.2075 
z
" style="fill:#f0f0f0;opacity:0.8;stroke:#cccccc;stroke-linejoin:miter;stroke-width:0.5;"/>
    </g>
    <g id="line2d_136">
     <path d="M 108.55375 46.52 
L 136.55375 46.52 
" style="fill:none;stroke:#008fd5;stroke-width:4;"/>
    </g>
    <g id="line2d_137"/>
    <g id="text_40">
     <!-- Total Miami-Dade Cases -->
     <g transform="translate(147.75375 51.42)scale(0.14 -0.14)">
      <defs>
       <path d="M 58.59375 61.140625 
L 36.421875 61.140625 
L 36.421875 0 
L 24.171875 0 
L 24.171875 61.140625 
L 2.203125 61.140625 
L 2.203125 71.09375 
L 58.59375 71.09375 
z
" id="Roboto-Medium-84"/>
       <path d="M 3.859375 26.90625 
Q 3.859375 34.671875 6.9375 40.890625 
Q 10.015625 47.125 15.578125 50.46875 
Q 21.140625 53.8125 28.375 53.8125 
Q 39.0625 53.8125 45.71875 46.921875 
Q 52.390625 40.046875 52.9375 28.65625 
L 52.984375 25.875 
Q 52.984375 18.0625 49.96875 11.90625 
Q 46.96875 5.765625 41.375 2.390625 
Q 35.796875 -0.984375 28.46875 -0.984375 
Q 17.28125 -0.984375 10.5625 6.46875 
Q 3.859375 13.921875 3.859375 26.3125 
z
M 15.71875 25.875 
Q 15.71875 17.71875 19.09375 13.109375 
Q 22.46875 8.5 28.46875 8.5 
Q 34.46875 8.5 37.8125 13.1875 
Q 41.15625 17.875 41.15625 26.90625 
Q 41.15625 34.90625 37.71875 39.59375 
Q 34.28125 44.28125 28.375 44.28125 
Q 22.5625 44.28125 19.140625 39.671875 
Q 15.71875 35.0625 15.71875 25.875 
z
" id="Roboto-Medium-111"/>
       <path d="M 20.953125 65.671875 
L 20.953125 52.828125 
L 30.28125 52.828125 
L 30.28125 44.046875 
L 20.953125 44.046875 
L 20.953125 14.546875 
Q 20.953125 11.53125 22.140625 10.1875 
Q 23.34375 8.84375 26.421875 8.84375 
Q 28.46875 8.84375 30.5625 9.328125 
L 30.5625 0.140625 
Q 26.515625 -0.984375 22.75 -0.984375 
Q 9.078125 -0.984375 9.078125 14.109375 
L 9.078125 44.046875 
L 0.390625 44.046875 
L 0.390625 52.828125 
L 9.078125 52.828125 
L 9.078125 65.671875 
z
" id="Roboto-Medium-116"/>
       <path d="M 37.640625 0 
Q 36.859375 1.515625 36.28125 4.9375 
Q 30.609375 -0.984375 22.40625 -0.984375 
Q 14.453125 -0.984375 9.421875 3.5625 
Q 4.390625 8.109375 4.390625 14.796875 
Q 4.390625 23.25 10.65625 27.765625 
Q 16.9375 32.28125 28.609375 32.28125 
L 35.890625 32.28125 
L 35.890625 35.75 
Q 35.890625 39.84375 33.59375 42.3125 
Q 31.296875 44.78125 26.609375 44.78125 
Q 22.5625 44.78125 19.96875 42.75 
Q 17.390625 40.71875 17.390625 37.59375 
L 5.515625 37.59375 
Q 5.515625 41.9375 8.390625 45.71875 
Q 11.28125 49.515625 16.234375 51.65625 
Q 21.1875 53.8125 27.296875 53.8125 
Q 36.578125 53.8125 42.09375 49.140625 
Q 47.609375 44.484375 47.75 36.03125 
L 47.75 12.203125 
Q 47.75 5.078125 49.75 0.828125 
L 49.75 0 
z
M 24.609375 8.546875 
Q 28.125 8.546875 31.21875 10.25 
Q 34.328125 11.96875 35.890625 14.84375 
L 35.890625 24.8125 
L 29.5 24.8125 
Q 22.90625 24.8125 19.578125 22.515625 
Q 16.265625 20.21875 16.265625 16.015625 
Q 16.265625 12.59375 18.53125 10.5625 
Q 20.796875 8.546875 24.609375 8.546875 
z
" id="Roboto-Medium-97"/>
       <path d="M 18.703125 0 
L 6.84375 0 
L 6.84375 75 
L 18.703125 75 
z
" id="Roboto-Medium-108"/>
       <path id="Roboto-Medium-32"/>
       <path d="M 23.25 71.09375 
L 43.75 16.609375 
L 64.203125 71.09375 
L 80.171875 71.09375 
L 80.171875 0 
L 67.875 0 
L 67.875 23.4375 
L 69.09375 54.78125 
L 48.09375 0 
L 39.265625 0 
L 18.3125 54.734375 
L 19.53125 23.4375 
L 19.53125 0 
L 7.234375 0 
L 7.234375 71.09375 
z
" id="Roboto-Medium-77"/>
       <path d="M 18.703125 0 
L 6.84375 0 
L 6.84375 52.828125 
L 18.703125 52.828125 
z
M 6.109375 66.546875 
Q 6.109375 69.28125 7.84375 71.09375 
Q 9.578125 72.90625 12.796875 72.90625 
Q 16.015625 72.90625 17.765625 71.09375 
Q 19.53125 69.28125 19.53125 66.546875 
Q 19.53125 63.875 17.765625 62.078125 
Q 16.015625 60.296875 12.796875 60.296875 
Q 9.578125 60.296875 7.84375 62.078125 
Q 6.109375 63.875 6.109375 66.546875 
z
" id="Roboto-Medium-105"/>
       <path d="M 17.234375 52.828125 
L 17.578125 47.3125 
Q 23.140625 53.8125 32.8125 53.8125 
Q 43.40625 53.8125 47.3125 45.703125 
Q 53.078125 53.8125 63.53125 53.8125 
Q 72.265625 53.8125 76.53125 48.96875 
Q 80.8125 44.140625 80.90625 34.71875 
L 80.90625 0 
L 69.046875 0 
L 69.046875 34.375 
Q 69.046875 39.40625 66.84375 41.75 
Q 64.65625 44.09375 59.578125 44.09375 
Q 55.515625 44.09375 52.953125 41.921875 
Q 50.390625 39.75 49.359375 36.234375 
L 49.421875 0 
L 37.546875 0 
L 37.546875 34.765625 
Q 37.3125 44.09375 28.03125 44.09375 
Q 20.90625 44.09375 17.921875 38.28125 
L 17.921875 0 
L 6.0625 0 
L 6.0625 52.828125 
z
" id="Roboto-Medium-109"/>
       <path d="M 7.234375 0 
L 7.234375 71.09375 
L 28.21875 71.09375 
Q 37.640625 71.09375 44.9375 66.890625 
Q 52.25 62.703125 56.25 54.984375 
Q 60.25 47.265625 60.25 37.3125 
L 60.25 33.734375 
Q 60.25 23.640625 56.21875 15.96875 
Q 52.203125 8.296875 44.75 4.140625 
Q 37.3125 0 27.6875 0 
z
M 19.578125 61.140625 
L 19.578125 9.859375 
L 27.640625 9.859375 
Q 37.359375 9.859375 42.546875 15.9375 
Q 47.75 22.015625 47.859375 33.40625 
L 47.859375 37.359375 
Q 47.859375 48.921875 42.828125 55.03125 
Q 37.796875 61.140625 28.21875 61.140625 
z
" id="Roboto-Medium-68"/>
       <path d="M 3.859375 26.8125 
Q 3.859375 39.015625 9.515625 46.40625 
Q 15.1875 53.8125 24.703125 53.8125 
Q 33.109375 53.8125 38.28125 47.953125 
L 38.28125 75 
L 50.140625 75 
L 50.140625 0 
L 39.40625 0 
L 38.8125 5.46875 
Q 33.5 -0.984375 24.609375 -0.984375 
Q 15.328125 -0.984375 9.59375 6.484375 
Q 3.859375 13.96875 3.859375 26.8125 
z
M 15.71875 25.78125 
Q 15.71875 17.71875 18.8125 13.203125 
Q 21.921875 8.6875 27.640625 8.6875 
Q 34.90625 8.6875 38.28125 15.1875 
L 38.28125 37.75 
Q 35.015625 44.09375 27.734375 44.09375 
Q 21.96875 44.09375 18.84375 39.53125 
Q 15.71875 34.96875 15.71875 25.78125 
z
" id="Roboto-Medium-100"/>
       <path d="M 29.34375 -0.984375 
Q 18.0625 -0.984375 11.046875 6.125 
Q 4.046875 13.234375 4.046875 25.046875 
L 4.046875 26.515625 
Q 4.046875 34.421875 7.09375 40.640625 
Q 10.15625 46.875 15.671875 50.34375 
Q 21.1875 53.8125 27.984375 53.8125 
Q 38.765625 53.8125 44.640625 46.921875 
Q 50.53125 40.046875 50.53125 27.4375 
L 50.53125 22.65625 
L 16.015625 22.65625 
Q 16.546875 16.109375 20.375 12.296875 
Q 24.21875 8.5 30.03125 8.5 
Q 38.1875 8.5 43.3125 15.09375 
L 49.703125 8.984375 
Q 46.53125 4.25 41.234375 1.625 
Q 35.9375 -0.984375 29.34375 -0.984375 
z
M 27.9375 44.28125 
Q 23.046875 44.28125 20.046875 40.859375 
Q 17.046875 37.453125 16.21875 31.34375 
L 38.8125 31.34375 
L 38.8125 32.234375 
Q 38.421875 38.1875 35.640625 41.234375 
Q 32.859375 44.28125 27.9375 44.28125 
z
" id="Roboto-Medium-101"/>
       <path d="M 61.46875 23.140625 
Q 60.40625 11.765625 53.078125 5.390625 
Q 45.75 -0.984375 33.59375 -0.984375 
Q 25.09375 -0.984375 18.625 3.046875 
Q 12.15625 7.078125 8.640625 14.5 
Q 5.125 21.921875 4.984375 31.734375 
L 4.984375 38.375 
Q 4.984375 48.4375 8.546875 56.09375 
Q 12.109375 63.765625 18.765625 67.921875 
Q 25.4375 72.078125 34.1875 72.078125 
Q 45.953125 72.078125 53.125 65.671875 
Q 60.296875 59.28125 61.46875 47.609375 
L 49.171875 47.609375 
Q 48.296875 55.28125 44.703125 58.671875 
Q 41.109375 62.0625 34.1875 62.0625 
Q 26.125 62.0625 21.796875 56.171875 
Q 17.484375 50.296875 17.390625 38.921875 
L 17.390625 32.625 
Q 17.390625 21.09375 21.515625 15.03125 
Q 25.640625 8.984375 33.59375 8.984375 
Q 40.875 8.984375 44.53125 12.25 
Q 48.1875 15.53125 49.171875 23.140625 
z
" id="Roboto-Medium-67"/>
       <path d="M 35.6875 14.359375 
Q 35.6875 17.53125 33.078125 19.1875 
Q 30.46875 20.84375 24.40625 22.109375 
Q 18.359375 23.390625 14.3125 25.34375 
Q 5.421875 29.640625 5.421875 37.796875 
Q 5.421875 44.625 11.171875 49.21875 
Q 16.9375 53.8125 25.828125 53.8125 
Q 35.296875 53.8125 41.125 49.125 
Q 46.96875 44.4375 46.96875 36.96875 
L 35.109375 36.96875 
Q 35.109375 40.375 32.5625 42.640625 
Q 30.03125 44.921875 25.828125 44.921875 
Q 21.921875 44.921875 19.453125 43.109375 
Q 17 41.3125 17 38.28125 
Q 17 35.546875 19.28125 34.03125 
Q 21.578125 32.515625 28.5625 30.96875 
Q 35.546875 29.4375 39.515625 27.3125 
Q 43.5 25.203125 45.421875 22.21875 
Q 47.359375 19.234375 47.359375 14.984375 
Q 47.359375 7.859375 41.453125 3.4375 
Q 35.546875 -0.984375 25.984375 -0.984375 
Q 19.484375 -0.984375 14.40625 1.359375 
Q 9.328125 3.71875 6.484375 7.8125 
Q 3.65625 11.921875 3.65625 16.65625 
L 15.1875 16.65625 
Q 15.4375 12.453125 18.359375 10.171875 
Q 21.296875 7.90625 26.125 7.90625 
Q 30.8125 7.90625 33.25 9.6875 
Q 35.6875 11.46875 35.6875 14.359375 
z
" id="Roboto-Medium-115"/>
      </defs>
      <use xlink:href="#Roboto-Medium-84"/>
      <use x="60.693359" xlink:href="#Roboto-Medium-111"/>
      <use x="117.626953" xlink:href="#Roboto-Medium-116"/>
      <use x="150.878906" xlink:href="#Roboto-Medium-97"/>
      <use x="204.980469" xlink:href="#Roboto-Medium-108"/>
      <use x="230.517578" xlink:href="#Roboto-Medium-32"/>
      <use x="255.419922" xlink:href="#Roboto-Medium-77"/>
      <use x="342.96875" xlink:href="#Roboto-Medium-105"/>
      <use x="368.505859" xlink:href="#Roboto-Medium-97"/>
      <use x="422.607422" xlink:href="#Roboto-Medium-109"/>
      <use x="509.619141" xlink:href="#Roboto-Medium-105"/>
      <use x="535.15625" xlink:href="#Roboto-Medium-45"/>
      <use x="567.96875" xlink:href="#Roboto-Medium-68"/>
      <use x="633.300781" xlink:href="#Roboto-Medium-97"/>
      <use x="687.402344" xlink:href="#Roboto-Medium-100"/>
      <use x="743.847656" xlink:href="#Roboto-Medium-101"/>
      <use x="797.509766" xlink:href="#Roboto-Medium-32"/>
      <use x="822.412109" xlink:href="#Roboto-Medium-67"/>
      <use x="887.695312" xlink:href="#Roboto-Medium-97"/>
      <use x="941.796875" xlink:href="#Roboto-Medium-115"/>
      <use x="993.408203" xlink:href="#Roboto-Medium-101"/>
      <use x="1047.070312" xlink:href="#Roboto-Medium-115"/>
     </g>
    </g>
    <g id="line2d_138">
     <path d="M 108.55375 66.86375 
L 136.55375 66.86375 
" style="fill:none;stroke:#fc4f30;stroke-width:4;"/>
    </g>
    <g id="line2d_139"/>
    <g id="text_41">
     <!-- Total Florida Cases -->
     <g transform="translate(147.75375 71.76375)scale(0.14 -0.14)">
      <defs>
       <path d="M 48.1875 30.125 
L 19.578125 30.125 
L 19.578125 0 
L 7.234375 0 
L 7.234375 71.09375 
L 52.390625 71.09375 
L 52.390625 61.140625 
L 19.578125 61.140625 
L 19.578125 39.984375 
L 48.1875 39.984375 
z
" id="Roboto-Medium-70"/>
       <path d="M 33.734375 42 
Q 31.390625 42.390625 28.90625 42.390625 
Q 20.75 42.390625 17.921875 36.140625 
L 17.921875 0 
L 6.0625 0 
L 6.0625 52.828125 
L 17.390625 52.828125 
L 17.671875 46.921875 
Q 21.96875 53.8125 29.59375 53.8125 
Q 32.125 53.8125 33.796875 53.125 
z
" id="Roboto-Medium-114"/>
      </defs>
      <use xlink:href="#Roboto-Medium-84"/>
      <use x="60.693359" xlink:href="#Roboto-Medium-111"/>
      <use x="117.626953" xlink:href="#Roboto-Medium-116"/>
      <use x="150.878906" xlink:href="#Roboto-Medium-97"/>
      <use x="204.980469" xlink:href="#Roboto-Medium-108"/>
      <use x="230.517578" xlink:href="#Roboto-Medium-32"/>
      <use x="255.419922" xlink:href="#Roboto-Medium-70"/>
      <use x="310.351562" xlink:href="#Roboto-Medium-108"/>
      <use x="335.888672" xlink:href="#Roboto-Medium-111"/>
      <use x="392.822266" xlink:href="#Roboto-Medium-114"/>
      <use x="427.978516" xlink:href="#Roboto-Medium-105"/>
      <use x="453.515625" xlink:href="#Roboto-Medium-100"/>
      <use x="509.960938" xlink:href="#Roboto-Medium-97"/>
      <use x="564.0625" xlink:href="#Roboto-Medium-32"/>
      <use x="588.964844" xlink:href="#Roboto-Medium-67"/>
      <use x="654.248047" xlink:href="#Roboto-Medium-97"/>
      <use x="708.349609" xlink:href="#Roboto-Medium-115"/>
      <use x="759.960938" xlink:href="#Roboto-Medium-101"/>
      <use x="813.623047" xlink:href="#Roboto-Medium-115"/>
     </g>
    </g>
   </g>
  </g>
 </g>
 <defs>
  <clipPath id="pa52cf4c3e6">
   <rect height="391.68" width="626.4" x="95.95375" y="28.32"/>
  </clipPath>
 </defs>
</svg>
