<?xml version="1.0" encoding="utf-8" standalone="no"?>
<!DOCTYPE svg PUBLIC "-//W3C//DTD SVG 1.1//EN"
  "http://www.w3.org/Graphics/SVG/1.1/DTD/svg11.dtd">
<!-- Created with matplotlib (https://matplotlib.org/) -->
<svg height="323.655201pt" version="1.1" viewBox="0 0 445.520179 323.655201" width="445.520179pt" xmlns="http://www.w3.org/2000/svg" xmlns:xlink="http://www.w3.org/1999/xlink">
 <metadata>
  <rdf:RDF xmlns:cc="http://creativecommons.org/ns#" xmlns:dc="http://purl.org/dc/elements/1.1/" xmlns:rdf="http://www.w3.org/1999/02/22-rdf-syntax-ns#">
   <cc:Work>
    <dc:type rdf:resource="http://purl.org/dc/dcmitype/StillImage"/>
    <dc:date>2021-07-26T21:10:39.520983</dc:date>
    <dc:format>image/svg+xml</dc:format>
    <dc:creator>
     <cc:Agent>
      <dc:title>Matplotlib v3.3.4, https://matplotlib.org/</dc:title>
     </cc:Agent>
    </dc:creator>
   </cc:Work>
  </rdf:RDF>
 </metadata>
 <defs>
  <style type="text/css">*{stroke-linecap:butt;stroke-linejoin:round;}</style>
 </defs>
 <g id="figure_1">
  <g id="patch_1">
   <path d="M 0 323.655201 
L 445.520179 323.655201 
L 445.520179 0 
L 0 0 
z
" style="fill:#ffffff;"/>
  </g>
  <g id="axes_1">
   <g id="patch_2">
    <path d="M 50.90875 268.065982 
L 438.320179 268.065982 
L 438.320179 28.203125 
L 50.90875 28.203125 
z
" style="fill:#ffffff;"/>
   </g>
   <g id="matplotlib.axis_1">
    <g id="xtick_1">
     <g id="line2d_1">
      <defs>
       <path d="M 0 0 
L 0 3.5 
" id="mdbb2bcc30e" style="stroke:#555555;stroke-width:0.8;"/>
      </defs>
      <g>
       <use style="fill:#555555;stroke:#555555;stroke-width:0.8;" x="50.90875" xlink:href="#mdbb2bcc30e" y="268.065982"/>
      </g>
     </g>
    </g>
    <g id="xtick_2">
     <g id="line2d_2">
      <g>
       <use style="fill:#555555;stroke:#555555;stroke-width:0.8;" x="64.160248" xlink:href="#mdbb2bcc30e" y="268.065982"/>
      </g>
     </g>
     <g id="text_1">
      <!-- Apr -->
      <g style="fill:#555555;" transform="translate(53.929857 284.348795)scale(0.13 -0.13)">
       <defs>
        <path d="M 20.09375 29.5 
L 32.203125 62.796875 
L 32.40625 62.796875 
L 44.296875 29.5 
z
M 27.203125 71.40625 
L -0.59375 0 
L 9.09375 0 
L 17.09375 21.5 
L 47.296875 21.5 
L 55.09375 0 
L 65.59375 0 
L 37.703125 71.40625 
z
" id="HelveticaNeue-65"/>
        <path d="M 6.703125 51.703125 
L 6.703125 -19.703125 
L 15.203125 -19.703125 
L 15.203125 6.90625 
L 15.40625 6.90625 
Q 16.796875 4.59375 18.84375 3.046875 
Q 20.90625 1.5 23.203125 0.59375 
Q 25.5 -0.296875 27.84375 -0.6875 
Q 30.203125 -1.09375 32.09375 -1.09375 
Q 38 -1.09375 42.453125 1 
Q 46.90625 3.09375 49.84375 6.75 
Q 52.796875 10.40625 54.25 15.296875 
Q 55.703125 20.203125 55.703125 25.703125 
Q 55.703125 31.203125 54.203125 36.09375 
Q 52.703125 41 49.75 44.75 
Q 46.796875 48.5 42.34375 50.703125 
Q 37.90625 52.90625 31.90625 52.90625 
Q 26.5 52.90625 22 50.953125 
Q 17.5 49 15.40625 44.703125 
L 15.203125 44.703125 
L 15.203125 51.703125 
z
M 46.703125 26.296875 
Q 46.703125 22.5 45.890625 18.890625 
Q 45.09375 15.296875 43.296875 12.5 
Q 41.5 9.703125 38.546875 8 
Q 35.59375 6.296875 31.203125 6.296875 
Q 26.796875 6.296875 23.6875 7.9375 
Q 20.59375 9.59375 18.640625 12.296875 
Q 16.703125 15 15.796875 18.546875 
Q 14.90625 22.09375 14.90625 25.90625 
Q 14.90625 29.5 15.75 33 
Q 16.59375 36.5 18.5 39.25 
Q 20.40625 42 23.40625 43.703125 
Q 26.40625 45.40625 30.703125 45.40625 
Q 34.796875 45.40625 37.84375 43.796875 
Q 40.90625 42.203125 42.84375 39.5 
Q 44.796875 36.796875 45.75 33.34375 
Q 46.703125 29.90625 46.703125 26.296875 
z
" id="HelveticaNeue-112"/>
        <path d="M 6.09375 51.703125 
L 6.09375 0 
L 14.59375 0 
L 14.59375 23 
Q 14.59375 28 15.59375 31.84375 
Q 16.59375 35.703125 18.796875 38.390625 
Q 21 41.09375 24.59375 42.5 
Q 28.203125 43.90625 33.296875 43.90625 
L 33.296875 52.90625 
Q 26.40625 53.09375 21.90625 50.09375 
Q 17.40625 47.09375 14.296875 40.796875 
L 14.09375 40.796875 
L 14.09375 51.703125 
z
" id="HelveticaNeue-114"/>
       </defs>
       <use xlink:href="#HelveticaNeue-65"/>
       <use x="64.799988" xlink:href="#HelveticaNeue-112"/>
       <use x="124.099976" xlink:href="#HelveticaNeue-114"/>
      </g>
     </g>
    </g>
    <g id="xtick_3">
     <g id="line2d_3">
      <g>
       <use style="fill:#555555;stroke:#555555;stroke-width:0.8;" x="135.094734" xlink:href="#mdbb2bcc30e" y="268.065982"/>
      </g>
     </g>
     <g id="text_2">
      <!-- Jul -->
      <g style="fill:#555555;" transform="translate(126.664031 284.348795)scale(0.13 -0.13)">
       <defs>
        <path d="M 44.09375 17.796875 
L 44.09375 71.40625 
L 34.59375 71.40625 
L 34.59375 19.203125 
Q 34.59375 13.296875 32.140625 9.796875 
Q 29.703125 6.296875 23.203125 6.296875 
Q 19.703125 6.296875 17.453125 7.34375 
Q 15.203125 8.40625 13.953125 10.296875 
Q 12.703125 12.203125 12.203125 14.796875 
Q 11.703125 17.40625 11.703125 20.5 
L 11.703125 23.5 
L 2.203125 23.5 
L 2.203125 19.09375 
Q 2.203125 8.90625 7.59375 3.65625 
Q 13 -1.59375 23 -1.59375 
Q 29 -1.59375 33.046875 0.046875 
Q 37.09375 1.703125 39.546875 4.453125 
Q 42 7.203125 43.046875 10.703125 
Q 44.09375 14.203125 44.09375 17.796875 
z
" id="HelveticaNeue-74"/>
        <path d="M 49.203125 0 
L 49.203125 51.703125 
L 40.703125 51.703125 
L 40.703125 22.5 
Q 40.703125 19 39.75 16.046875 
Q 38.796875 13.09375 36.890625 10.890625 
Q 35 8.703125 32.140625 7.5 
Q 29.296875 6.296875 25.40625 6.296875 
Q 20.5 6.296875 17.703125 9.09375 
Q 14.90625 11.90625 14.90625 16.703125 
L 14.90625 51.703125 
L 6.40625 51.703125 
L 6.40625 17.703125 
Q 6.40625 13.5 7.25 10.046875 
Q 8.09375 6.59375 10.1875 4.09375 
Q 12.296875 1.59375 15.6875 0.25 
Q 19.09375 -1.09375 24.203125 -1.09375 
Q 29.90625 -1.09375 34.09375 1.15625 
Q 38.296875 3.40625 41 8.203125 
L 41.203125 8.203125 
L 41.203125 0 
z
" id="HelveticaNeue-117"/>
        <path d="M 6.90625 71.40625 
L 6.90625 0 
L 15.40625 0 
L 15.40625 71.40625 
z
" id="HelveticaNeue-108"/>
       </defs>
       <use xlink:href="#HelveticaNeue-74"/>
       <use x="51.899994" xlink:href="#HelveticaNeue-117"/>
       <use x="107.499985" xlink:href="#HelveticaNeue-108"/>
      </g>
     </g>
    </g>
    <g id="xtick_4">
     <g id="line2d_4">
      <g>
       <use style="fill:#555555;stroke:#555555;stroke-width:0.8;" x="206.808721" xlink:href="#mdbb2bcc30e" y="268.065982"/>
      </g>
     </g>
     <g id="text_3">
      <!-- Oct -->
      <g style="fill:#555555;" transform="translate(196.330518 284.348795)scale(0.13 -0.13)">
       <defs>
        <path d="M 13.296875 35.703125 
Q 13.296875 41.09375 14.6875 46.34375 
Q 16.09375 51.59375 19.09375 55.796875 
Q 22.09375 60 26.796875 62.546875 
Q 31.5 65.09375 38 65.09375 
Q 44.5 65.09375 49.203125 62.546875 
Q 53.90625 60 56.90625 55.796875 
Q 59.90625 51.59375 61.296875 46.34375 
Q 62.703125 41.09375 62.703125 35.703125 
Q 62.703125 30.296875 61.296875 25.046875 
Q 59.90625 19.796875 56.90625 15.59375 
Q 53.90625 11.40625 49.203125 8.84375 
Q 44.5 6.296875 38 6.296875 
Q 31.5 6.296875 26.796875 8.84375 
Q 22.09375 11.40625 19.09375 15.59375 
Q 16.09375 19.796875 14.6875 25.046875 
Q 13.296875 30.296875 13.296875 35.703125 
z
M 3.796875 35.703125 
Q 3.796875 28.40625 5.9375 21.65625 
Q 8.09375 14.90625 12.390625 9.703125 
Q 16.703125 4.5 23.09375 1.453125 
Q 29.5 -1.59375 38 -1.59375 
Q 46.5 -1.59375 52.890625 1.453125 
Q 59.296875 4.5 63.59375 9.703125 
Q 67.90625 14.90625 70.046875 21.65625 
Q 72.203125 28.40625 72.203125 35.703125 
Q 72.203125 43 70.046875 49.75 
Q 67.90625 56.5 63.59375 61.703125 
Q 59.296875 66.90625 52.890625 70 
Q 46.5 73.09375 38 73.09375 
Q 29.5 73.09375 23.09375 70 
Q 16.703125 66.90625 12.390625 61.703125 
Q 8.09375 56.5 5.9375 49.75 
Q 3.796875 43 3.796875 35.703125 
z
" id="HelveticaNeue-79"/>
        <path d="M 41.5 35.09375 
L 50.296875 35.09375 
Q 49.796875 39.703125 47.890625 43.046875 
Q 46 46.40625 43.046875 48.59375 
Q 40.09375 50.796875 36.25 51.84375 
Q 32.40625 52.90625 28 52.90625 
Q 21.90625 52.90625 17.296875 50.75 
Q 12.703125 48.59375 9.640625 44.84375 
Q 6.59375 41.09375 5.09375 36.046875 
Q 3.59375 31 3.59375 25.203125 
Q 3.59375 19.40625 5.140625 14.546875 
Q 6.703125 9.703125 9.75 6.203125 
Q 12.796875 2.703125 17.34375 0.796875 
Q 21.90625 -1.09375 27.796875 -1.09375 
Q 37.703125 -1.09375 43.453125 4.09375 
Q 49.203125 9.296875 50.59375 18.90625 
L 41.90625 18.90625 
Q 41.09375 12.90625 37.546875 9.59375 
Q 34 6.296875 27.703125 6.296875 
Q 23.703125 6.296875 20.796875 7.890625 
Q 17.90625 9.5 16.09375 12.140625 
Q 14.296875 14.796875 13.4375 18.1875 
Q 12.59375 21.59375 12.59375 25.203125 
Q 12.59375 29.09375 13.390625 32.75 
Q 14.203125 36.40625 16.046875 39.203125 
Q 17.90625 42 21 43.703125 
Q 24.09375 45.40625 28.703125 45.40625 
Q 34.09375 45.40625 37.296875 42.703125 
Q 40.5 40 41.5 35.09375 
z
" id="HelveticaNeue-99"/>
        <path d="M 18.203125 51.703125 
L 18.203125 67.203125 
L 9.703125 67.203125 
L 9.703125 51.703125 
L 0.90625 51.703125 
L 0.90625 44.203125 
L 9.703125 44.203125 
L 9.703125 11.296875 
Q 9.703125 7.703125 10.390625 5.5 
Q 11.09375 3.296875 12.546875 2.09375 
Q 14 0.90625 16.34375 0.453125 
Q 18.703125 0 22 0 
L 28.5 0 
L 28.5 7.5 
L 24.59375 7.5 
Q 22.59375 7.5 21.34375 7.640625 
Q 20.09375 7.796875 19.390625 8.296875 
Q 18.703125 8.796875 18.453125 9.6875 
Q 18.203125 10.59375 18.203125 12.09375 
L 18.203125 44.203125 
L 28.5 44.203125 
L 28.5 51.703125 
z
" id="HelveticaNeue-116"/>
       </defs>
       <use xlink:href="#HelveticaNeue-79"/>
       <use x="75.999985" xlink:href="#HelveticaNeue-99"/>
       <use x="129.699982" xlink:href="#HelveticaNeue-116"/>
      </g>
     </g>
    </g>
    <g id="xtick_5">
     <g id="line2d_5">
      <g>
       <use style="fill:#555555;stroke:#555555;stroke-width:0.8;" x="278.522708" xlink:href="#mdbb2bcc30e" y="268.065982"/>
      </g>
     </g>
     <g id="text_4">
      <!-- Jan -->
      <g style="fill:#555555;" transform="translate(268.044505 284.348795)scale(0.13 -0.13)">
       <defs>
        <path d="M 52.203125 0.203125 
Q 50 -1.09375 46.09375 -1.09375 
Q 42.796875 -1.09375 40.84375 0.75 
Q 38.90625 2.59375 38.90625 6.796875 
Q 35.40625 2.59375 30.75 0.75 
Q 26.09375 -1.09375 20.703125 -1.09375 
Q 17.203125 -1.09375 14.046875 -0.296875 
Q 10.90625 0.5 8.59375 2.203125 
Q 6.296875 3.90625 4.9375 6.65625 
Q 3.59375 9.40625 3.59375 13.296875 
Q 3.59375 17.703125 5.09375 20.5 
Q 6.59375 23.296875 9.046875 25.046875 
Q 11.5 26.796875 14.640625 27.6875 
Q 17.796875 28.59375 21.09375 29.203125 
Q 24.59375 29.90625 27.75 30.25 
Q 30.90625 30.59375 33.296875 31.25 
Q 35.703125 31.90625 37.09375 33.15625 
Q 38.5 34.40625 38.5 36.796875 
Q 38.5 39.59375 37.453125 41.296875 
Q 36.40625 43 34.75 43.890625 
Q 33.09375 44.796875 31.046875 45.09375 
Q 29 45.40625 27 45.40625 
Q 21.59375 45.40625 18 43.34375 
Q 14.40625 41.296875 14.09375 35.59375 
L 5.59375 35.59375 
Q 5.796875 40.40625 7.59375 43.703125 
Q 9.40625 47 12.40625 49.046875 
Q 15.40625 51.09375 19.25 52 
Q 23.09375 52.90625 27.5 52.90625 
Q 31 52.90625 34.453125 52.40625 
Q 37.90625 51.90625 40.703125 50.34375 
Q 43.5 48.796875 45.203125 46 
Q 46.90625 43.203125 46.90625 38.703125 
L 46.90625 12.09375 
Q 46.90625 9.09375 47.25 7.6875 
Q 47.59375 6.296875 49.59375 6.296875 
Q 50.703125 6.296875 52.203125 6.796875 
z
M 38.40625 26.703125 
Q 36.796875 25.5 34.1875 24.953125 
Q 31.59375 24.40625 28.75 24.046875 
Q 25.90625 23.703125 23 23.25 
Q 20.09375 22.796875 17.796875 21.796875 
Q 15.5 20.796875 14.046875 18.9375 
Q 12.59375 17.09375 12.59375 13.90625 
Q 12.59375 11.796875 13.4375 10.34375 
Q 14.296875 8.90625 15.640625 8 
Q 17 7.09375 18.796875 6.6875 
Q 20.59375 6.296875 22.59375 6.296875 
Q 26.796875 6.296875 29.796875 7.4375 
Q 32.796875 8.59375 34.6875 10.34375 
Q 36.59375 12.09375 37.5 14.140625 
Q 38.40625 16.203125 38.40625 18 
z
" id="HelveticaNeue-97"/>
        <path d="M 6.40625 51.703125 
L 6.40625 0 
L 14.90625 0 
L 14.90625 29.203125 
Q 14.90625 32.703125 15.84375 35.640625 
Q 16.796875 38.59375 18.6875 40.796875 
Q 20.59375 43 23.4375 44.203125 
Q 26.296875 45.40625 30.203125 45.40625 
Q 35.09375 45.40625 37.890625 42.59375 
Q 40.703125 39.796875 40.703125 35 
L 40.703125 0 
L 49.203125 0 
L 49.203125 34 
Q 49.203125 38.203125 48.34375 41.640625 
Q 47.5 45.09375 45.390625 47.59375 
Q 43.296875 50.09375 39.890625 51.5 
Q 36.5 52.90625 31.40625 52.90625 
Q 19.90625 52.90625 14.59375 43.5 
L 14.40625 43.5 
L 14.40625 51.703125 
z
" id="HelveticaNeue-110"/>
       </defs>
       <use xlink:href="#HelveticaNeue-74"/>
       <use x="51.899994" xlink:href="#HelveticaNeue-97"/>
       <use x="105.599991" xlink:href="#HelveticaNeue-110"/>
      </g>
      <!-- 2021 -->
      <g style="fill:#555555;" transform="translate(264.068333 298.049576)scale(0.13 -0.13)">
       <defs>
        <path d="M 4.40625 45.796875 
L 12.90625 45.796875 
Q 12.796875 49 13.546875 52.140625 
Q 14.296875 55.296875 16 57.796875 
Q 17.703125 60.296875 20.34375 61.84375 
Q 23 63.40625 26.703125 63.40625 
Q 29.5 63.40625 32 62.5 
Q 34.5 61.59375 36.34375 59.890625 
Q 38.203125 58.203125 39.296875 55.84375 
Q 40.40625 53.5 40.40625 50.59375 
Q 40.40625 46.90625 39.25 44.09375 
Q 38.09375 41.296875 35.84375 38.890625 
Q 33.59375 36.5 30.1875 34.140625 
Q 26.796875 31.796875 22.296875 29 
Q 18.59375 26.796875 15.1875 24.296875 
Q 11.796875 21.796875 9.09375 18.5 
Q 6.40625 15.203125 4.65625 10.75 
Q 2.90625 6.296875 2.40625 0 
L 48.703125 0 
L 48.703125 7.5 
L 12.296875 7.5 
Q 12.90625 10.796875 14.84375 13.34375 
Q 16.796875 15.90625 19.546875 18.09375 
Q 22.296875 20.296875 25.59375 22.25 
Q 28.90625 24.203125 32.203125 26.203125 
Q 35.5 28.296875 38.59375 30.59375 
Q 41.703125 32.90625 44.09375 35.75 
Q 46.5 38.59375 47.953125 42.1875 
Q 49.40625 45.796875 49.40625 50.5 
Q 49.40625 55.5 47.65625 59.296875 
Q 45.90625 63.09375 42.90625 65.640625 
Q 39.90625 68.203125 35.84375 69.546875 
Q 31.796875 70.90625 27.203125 70.90625 
Q 21.59375 70.90625 17.1875 69 
Q 12.796875 67.09375 9.84375 63.75 
Q 6.90625 60.40625 5.5 55.796875 
Q 4.09375 51.203125 4.40625 45.796875 
z
" id="HelveticaNeue-50"/>
        <path d="M 13.203125 34.90625 
Q 13.203125 37.5 13.25 40.640625 
Q 13.296875 43.796875 13.75 46.9375 
Q 14.203125 50.09375 15.046875 53.09375 
Q 15.90625 56.09375 17.546875 58.34375 
Q 19.203125 60.59375 21.703125 62 
Q 24.203125 63.40625 27.796875 63.40625 
Q 31.40625 63.40625 33.90625 62 
Q 36.40625 60.59375 38.046875 58.34375 
Q 39.703125 56.09375 40.546875 53.09375 
Q 41.40625 50.09375 41.84375 46.9375 
Q 42.296875 43.796875 42.34375 40.640625 
Q 42.40625 37.5 42.40625 34.90625 
Q 42.40625 30.90625 42.15625 25.953125 
Q 41.90625 21 40.546875 16.640625 
Q 39.203125 12.296875 36.203125 9.296875 
Q 33.203125 6.296875 27.796875 6.296875 
Q 22.40625 6.296875 19.40625 9.296875 
Q 16.40625 12.296875 15.046875 16.640625 
Q 13.703125 21 13.453125 25.953125 
Q 13.203125 30.90625 13.203125 34.90625 
z
M 4.203125 34.796875 
Q 4.203125 30.90625 4.390625 26.703125 
Q 4.59375 22.5 5.390625 18.5 
Q 6.203125 14.5 7.703125 10.953125 
Q 9.203125 7.40625 11.796875 4.703125 
Q 14.40625 2 18.34375 0.453125 
Q 22.296875 -1.09375 27.796875 -1.09375 
Q 33.40625 -1.09375 37.296875 0.453125 
Q 41.203125 2 43.796875 4.703125 
Q 46.40625 7.40625 47.90625 10.953125 
Q 49.40625 14.5 50.203125 18.5 
Q 51 22.5 51.203125 26.703125 
Q 51.40625 30.90625 51.40625 34.796875 
Q 51.40625 38.703125 51.203125 42.890625 
Q 51 47.09375 50.203125 51.09375 
Q 49.40625 55.09375 47.90625 58.6875 
Q 46.40625 62.296875 43.796875 65 
Q 41.203125 67.703125 37.25 69.296875 
Q 33.296875 70.90625 27.796875 70.90625 
Q 22.296875 70.90625 18.34375 69.296875 
Q 14.40625 67.703125 11.796875 65 
Q 9.203125 62.296875 7.703125 58.6875 
Q 6.203125 55.09375 5.390625 51.09375 
Q 4.59375 47.09375 4.390625 42.890625 
Q 4.203125 38.703125 4.203125 34.796875 
z
" id="HelveticaNeue-48"/>
        <path d="M 35.59375 0 
L 35.59375 70.90625 
L 29.09375 70.90625 
Q 28.40625 66.90625 26.5 64.296875 
Q 24.59375 61.703125 21.84375 60.203125 
Q 19.09375 58.703125 15.6875 58.140625 
Q 12.296875 57.59375 8.703125 57.59375 
L 8.703125 50.796875 
L 27.09375 50.796875 
L 27.09375 0 
z
" id="HelveticaNeue-49"/>
       </defs>
       <use xlink:href="#HelveticaNeue-50"/>
       <use x="55.599991" xlink:href="#HelveticaNeue-48"/>
       <use x="111.199982" xlink:href="#HelveticaNeue-50"/>
       <use x="166.799973" xlink:href="#HelveticaNeue-49"/>
      </g>
     </g>
    </g>
    <g id="xtick_6">
     <g id="line2d_6">
      <g>
       <use style="fill:#555555;stroke:#555555;stroke-width:0.8;" x="348.677695" xlink:href="#mdbb2bcc30e" y="268.065982"/>
      </g>
     </g>
     <g id="text_5">
      <!-- Apr -->
      <g style="fill:#555555;" transform="translate(338.447304 284.348795)scale(0.13 -0.13)">
       <use xlink:href="#HelveticaNeue-65"/>
       <use x="64.799988" xlink:href="#HelveticaNeue-112"/>
       <use x="124.099976" xlink:href="#HelveticaNeue-114"/>
      </g>
     </g>
    </g>
    <g id="xtick_7">
     <g id="line2d_7">
      <g>
       <use style="fill:#555555;stroke:#555555;stroke-width:0.8;" x="419.612182" xlink:href="#mdbb2bcc30e" y="268.065982"/>
      </g>
     </g>
     <g id="text_6">
      <!-- Jul -->
      <g style="fill:#555555;" transform="translate(411.181479 284.348795)scale(0.13 -0.13)">
       <use xlink:href="#HelveticaNeue-74"/>
       <use x="51.899994" xlink:href="#HelveticaNeue-117"/>
       <use x="107.499985" xlink:href="#HelveticaNeue-108"/>
      </g>
     </g>
    </g>
    <g id="xtick_8">
     <g id="line2d_8">
      <g>
       <use style="fill:#555555;stroke:#555555;stroke-width:0.8;" x="438.320179" xlink:href="#mdbb2bcc30e" y="268.065982"/>
      </g>
     </g>
    </g>
    <g id="xtick_9">
     <g id="line2d_9">
      <defs>
       <path d="M 0 0 
L 0 2 
" id="md76ab02cdd" style="stroke:#555555;stroke-width:0.6;"/>
      </defs>
      <g>
       <use style="fill:#555555;stroke:#555555;stroke-width:0.6;" x="87.545243" xlink:href="#md76ab02cdd" y="268.065982"/>
      </g>
     </g>
    </g>
    <g id="xtick_10">
     <g id="line2d_10">
      <g>
       <use style="fill:#555555;stroke:#555555;stroke-width:0.6;" x="111.709739" xlink:href="#md76ab02cdd" y="268.065982"/>
      </g>
     </g>
    </g>
    <g id="xtick_11">
     <g id="line2d_11">
      <g>
       <use style="fill:#555555;stroke:#555555;stroke-width:0.6;" x="159.25923" xlink:href="#md76ab02cdd" y="268.065982"/>
      </g>
     </g>
    </g>
    <g id="xtick_12">
     <g id="line2d_12">
      <g>
       <use style="fill:#555555;stroke:#555555;stroke-width:0.6;" x="183.423726" xlink:href="#md76ab02cdd" y="268.065982"/>
      </g>
     </g>
    </g>
    <g id="xtick_13">
     <g id="line2d_13">
      <g>
       <use style="fill:#555555;stroke:#555555;stroke-width:0.6;" x="230.973217" xlink:href="#md76ab02cdd" y="268.065982"/>
      </g>
     </g>
    </g>
    <g id="xtick_14">
     <g id="line2d_14">
      <g>
       <use style="fill:#555555;stroke:#555555;stroke-width:0.6;" x="254.358212" xlink:href="#md76ab02cdd" y="268.065982"/>
      </g>
     </g>
    </g>
    <g id="xtick_15">
     <g id="line2d_15">
      <g>
       <use style="fill:#555555;stroke:#555555;stroke-width:0.6;" x="302.687204" xlink:href="#md76ab02cdd" y="268.065982"/>
      </g>
     </g>
    </g>
    <g id="xtick_16">
     <g id="line2d_16">
      <g>
       <use style="fill:#555555;stroke:#555555;stroke-width:0.6;" x="324.5132" xlink:href="#md76ab02cdd" y="268.065982"/>
      </g>
     </g>
    </g>
    <g id="xtick_17">
     <g id="line2d_17">
      <g>
       <use style="fill:#555555;stroke:#555555;stroke-width:0.6;" x="372.062691" xlink:href="#md76ab02cdd" y="268.065982"/>
      </g>
     </g>
    </g>
    <g id="xtick_18">
     <g id="line2d_18">
      <g>
       <use style="fill:#555555;stroke:#555555;stroke-width:0.6;" x="396.227186" xlink:href="#md76ab02cdd" y="268.065982"/>
      </g>
     </g>
    </g>
    <g id="text_7">
     <!-- date -->
     <g style="fill:#555555;" transform="translate(231.731261 313.893795)scale(0.13 -0.13)">
      <defs>
       <path d="M 12.59375 25.40625 
Q 12.59375 29.203125 13.390625 32.796875 
Q 14.203125 36.40625 16 39.203125 
Q 17.796875 42 20.796875 43.703125 
Q 23.796875 45.40625 28.09375 45.40625 
Q 32.5 45.40625 35.59375 43.75 
Q 38.703125 42.09375 40.640625 39.390625 
Q 42.59375 36.703125 43.5 33.140625 
Q 44.40625 29.59375 44.40625 25.796875 
Q 44.40625 22.203125 43.546875 18.703125 
Q 42.703125 15.203125 40.796875 12.453125 
Q 38.90625 9.703125 35.90625 8 
Q 32.90625 6.296875 28.59375 6.296875 
Q 24.5 6.296875 21.453125 7.890625 
Q 18.40625 9.5 16.453125 12.203125 
Q 14.5 14.90625 13.546875 18.34375 
Q 12.59375 21.796875 12.59375 25.40625 
z
M 52.59375 0 
L 52.59375 71.40625 
L 44.09375 71.40625 
L 44.09375 44.796875 
L 43.90625 44.796875 
Q 42.5 47.09375 40.453125 48.640625 
Q 38.40625 50.203125 36.09375 51.140625 
Q 33.796875 52.09375 31.5 52.5 
Q 29.203125 52.90625 27.203125 52.90625 
Q 21.296875 52.90625 16.84375 50.75 
Q 12.40625 48.59375 9.453125 44.9375 
Q 6.5 41.296875 5.046875 36.390625 
Q 3.59375 31.5 3.59375 26 
Q 3.59375 20.5 5.09375 15.59375 
Q 6.59375 10.703125 9.546875 7 
Q 12.5 3.296875 16.953125 1.09375 
Q 21.40625 -1.09375 27.40625 -1.09375 
Q 32.796875 -1.09375 37.296875 0.796875 
Q 41.796875 2.703125 43.90625 7 
L 44.09375 7 
L 44.09375 0 
z
" id="HelveticaNeue-100"/>
       <path d="M 42.296875 30.796875 
L 12.59375 30.796875 
Q 12.796875 33.796875 13.890625 36.4375 
Q 15 39.09375 16.890625 41.09375 
Q 18.796875 43.09375 21.4375 44.25 
Q 24.09375 45.40625 27.40625 45.40625 
Q 30.59375 45.40625 33.25 44.25 
Q 35.90625 43.09375 37.84375 41.140625 
Q 39.796875 39.203125 40.9375 36.5 
Q 42.09375 33.796875 42.296875 30.796875 
z
M 50.5 16.40625 
L 42.09375 16.40625 
Q 41 11.296875 37.546875 8.796875 
Q 34.09375 6.296875 28.703125 6.296875 
Q 24.5 6.296875 21.390625 7.6875 
Q 18.296875 9.09375 16.296875 11.4375 
Q 14.296875 13.796875 13.390625 16.84375 
Q 12.5 19.90625 12.59375 23.296875 
L 51.296875 23.296875 
Q 51.5 28 50.453125 33.203125 
Q 49.40625 38.40625 46.65625 42.796875 
Q 43.90625 47.203125 39.34375 50.046875 
Q 34.796875 52.90625 27.90625 52.90625 
Q 22.59375 52.90625 18.140625 50.90625 
Q 13.703125 48.90625 10.453125 45.296875 
Q 7.203125 41.703125 5.390625 36.796875 
Q 3.59375 31.90625 3.59375 26 
Q 3.796875 20.09375 5.34375 15.09375 
Q 6.90625 10.09375 10 6.5 
Q 13.09375 2.90625 17.640625 0.90625 
Q 22.203125 -1.09375 28.40625 -1.09375 
Q 37.203125 -1.09375 43 3.296875 
Q 48.796875 7.703125 50.5 16.40625 
z
" id="HelveticaNeue-101"/>
      </defs>
      <use xlink:href="#HelveticaNeue-100"/>
      <use x="59.299988" xlink:href="#HelveticaNeue-97"/>
      <use x="112.999985" xlink:href="#HelveticaNeue-116"/>
      <use x="144.499969" xlink:href="#HelveticaNeue-101"/>
     </g>
    </g>
   </g>
   <g id="matplotlib.axis_2">
    <g id="ytick_1">
     <g id="line2d_19">
      <defs>
       <path d="M 0 0 
L -3.5 0 
" id="m8418823a5a" style="stroke:#555555;stroke-width:0.8;"/>
      </defs>
      <g>
       <use style="fill:#555555;stroke:#555555;stroke-width:0.8;" x="50.90875" xlink:href="#m8418823a5a" y="240.847715"/>
      </g>
     </g>
     <g id="text_8">
      <!-- −5000 -->
      <g style="fill:#555555;" transform="translate(7.2 245.489122)scale(0.13 -0.13)">
       <defs>
        <path d="M 4.796875 28.703125 
L 4.796875 21.90625 
L 55.203125 21.90625 
L 55.203125 28.703125 
z
" id="HelveticaNeue-8722"/>
        <path d="M 47 62.203125 
L 47 69.703125 
L 12 69.703125 
L 5.40625 32.90625 
L 12.703125 32.5 
Q 15.203125 35.5 18.453125 37.34375 
Q 21.703125 39.203125 25.90625 39.203125 
Q 29.5 39.203125 32.453125 38 
Q 35.40625 36.796875 37.5 34.640625 
Q 39.59375 32.5 40.75 29.546875 
Q 41.90625 26.59375 41.90625 23.09375 
Q 41.90625 18.90625 40.703125 15.75 
Q 39.5 12.59375 37.453125 10.5 
Q 35.40625 8.40625 32.65625 7.34375 
Q 29.90625 6.296875 26.90625 6.296875 
Q 23.703125 6.296875 21.046875 7.25 
Q 18.40625 8.203125 16.453125 9.953125 
Q 14.5 11.703125 13.34375 14.046875 
Q 12.203125 16.40625 12 19.09375 
L 3.5 19.09375 
Q 3.59375 14.296875 5.390625 10.5 
Q 7.203125 6.703125 10.296875 4.140625 
Q 13.40625 1.59375 17.453125 0.25 
Q 21.5 -1.09375 26.09375 -1.09375 
Q 32.296875 -1.09375 36.9375 0.84375 
Q 41.59375 2.796875 44.6875 6.09375 
Q 47.796875 9.40625 49.34375 13.65625 
Q 50.90625 17.90625 50.90625 22.40625 
Q 50.90625 28.5 49.09375 33.046875 
Q 47.296875 37.59375 44.1875 40.640625 
Q 41.09375 43.703125 36.890625 45.203125 
Q 32.703125 46.703125 28 46.703125 
Q 24.40625 46.703125 20.75 45.453125 
Q 17.09375 44.203125 14.796875 41.59375 
L 14.59375 41.796875 
L 18.40625 62.203125 
z
" id="HelveticaNeue-53"/>
       </defs>
       <use xlink:href="#HelveticaNeue-8722"/>
       <use x="59.999985" xlink:href="#HelveticaNeue-53"/>
       <use x="115.599976" xlink:href="#HelveticaNeue-48"/>
       <use x="171.199966" xlink:href="#HelveticaNeue-48"/>
       <use x="226.799957" xlink:href="#HelveticaNeue-48"/>
      </g>
     </g>
    </g>
    <g id="ytick_2">
     <g id="line2d_20">
      <g>
       <use style="fill:#555555;stroke:#555555;stroke-width:0.8;" x="50.90875" xlink:href="#m8418823a5a" y="209.496044"/>
      </g>
     </g>
     <g id="text_9">
      <!-- −2500 -->
      <g style="fill:#555555;" transform="translate(7.2 214.137451)scale(0.13 -0.13)">
       <use xlink:href="#HelveticaNeue-8722"/>
       <use x="59.999985" xlink:href="#HelveticaNeue-50"/>
       <use x="115.599976" xlink:href="#HelveticaNeue-53"/>
       <use x="171.199966" xlink:href="#HelveticaNeue-48"/>
       <use x="226.799957" xlink:href="#HelveticaNeue-48"/>
      </g>
     </g>
    </g>
    <g id="ytick_3">
     <g id="line2d_21">
      <g>
       <use style="fill:#555555;stroke:#555555;stroke-width:0.8;" x="50.90875" xlink:href="#m8418823a5a" y="178.144373"/>
      </g>
     </g>
     <g id="text_10">
      <!-- 0 -->
      <g style="fill:#555555;" transform="translate(36.681563 182.785779)scale(0.13 -0.13)">
       <use xlink:href="#HelveticaNeue-48"/>
      </g>
     </g>
    </g>
    <g id="ytick_4">
     <g id="line2d_22">
      <g>
       <use style="fill:#555555;stroke:#555555;stroke-width:0.8;" x="50.90875" xlink:href="#m8418823a5a" y="146.792702"/>
      </g>
     </g>
     <g id="text_11">
      <!-- 2500 -->
      <g style="fill:#555555;" transform="translate(15 151.434108)scale(0.13 -0.13)">
       <use xlink:href="#HelveticaNeue-50"/>
       <use x="55.599991" xlink:href="#HelveticaNeue-53"/>
       <use x="111.199982" xlink:href="#HelveticaNeue-48"/>
       <use x="166.799973" xlink:href="#HelveticaNeue-48"/>
      </g>
     </g>
    </g>
    <g id="ytick_5">
     <g id="line2d_23">
      <g>
       <use style="fill:#555555;stroke:#555555;stroke-width:0.8;" x="50.90875" xlink:href="#m8418823a5a" y="115.441031"/>
      </g>
     </g>
     <g id="text_12">
      <!-- 5000 -->
      <g style="fill:#555555;" transform="translate(15 120.082437)scale(0.13 -0.13)">
       <use xlink:href="#HelveticaNeue-53"/>
       <use x="55.599991" xlink:href="#HelveticaNeue-48"/>
       <use x="111.199982" xlink:href="#HelveticaNeue-48"/>
       <use x="166.799973" xlink:href="#HelveticaNeue-48"/>
      </g>
     </g>
    </g>
    <g id="ytick_6">
     <g id="line2d_24">
      <g>
       <use style="fill:#555555;stroke:#555555;stroke-width:0.8;" x="50.90875" xlink:href="#m8418823a5a" y="84.08936"/>
      </g>
     </g>
     <g id="text_13">
      <!-- 7500 -->
      <g style="fill:#555555;" transform="translate(15 88.730766)scale(0.13 -0.13)">
       <defs>
        <path d="M 50.90625 62.40625 
L 50.90625 69.703125 
L 5 69.703125 
L 5 61.703125 
L 42.203125 61.703125 
Q 36.59375 55.796875 31.75 48.796875 
Q 26.90625 41.796875 23.203125 33.9375 
Q 19.5 26.09375 17.140625 17.546875 
Q 14.796875 9 14.203125 0 
L 23.703125 0 
Q 24.203125 8.296875 26.5 17.09375 
Q 28.796875 25.90625 32.4375 34.203125 
Q 36.09375 42.5 40.796875 49.796875 
Q 45.5 57.09375 50.90625 62.40625 
z
" id="HelveticaNeue-55"/>
       </defs>
       <use xlink:href="#HelveticaNeue-55"/>
       <use x="55.599991" xlink:href="#HelveticaNeue-53"/>
       <use x="111.199982" xlink:href="#HelveticaNeue-48"/>
       <use x="166.799973" xlink:href="#HelveticaNeue-48"/>
      </g>
     </g>
    </g>
    <g id="ytick_7">
     <g id="line2d_25">
      <g>
       <use style="fill:#555555;stroke:#555555;stroke-width:0.8;" x="50.90875" xlink:href="#m8418823a5a" y="52.737689"/>
      </g>
     </g>
     <g id="text_14">
      <!-- 10000 -->
      <g style="fill:#555555;" transform="translate(7.772813 57.379095)scale(0.13 -0.13)">
       <use xlink:href="#HelveticaNeue-49"/>
       <use x="55.599991" xlink:href="#HelveticaNeue-48"/>
       <use x="111.199982" xlink:href="#HelveticaNeue-48"/>
       <use x="166.799973" xlink:href="#HelveticaNeue-48"/>
       <use x="222.399963" xlink:href="#HelveticaNeue-48"/>
      </g>
     </g>
    </g>
   </g>
   <g id="line2d_26">
    <path clip-path="url(#pa3ccacebe8)" d="M 51.68825 178.018966 
L 53.24725 177.71799 
L 54.026749 177.843397 
L 54.806249 177.855938 
L 55.585749 177.567502 
L 56.365249 177.417014 
L 57.144749 177.52988 
L 59.483248 176.087704 
L 60.262748 175.435589 
L 61.042248 174.984125 
L 61.821748 173.755139 
L 62.601248 175.27256 
L 63.380748 172.83967 
L 64.160248 174.482498 
L 64.939747 172.250259 
L 65.719247 172.149934 
L 66.498747 171.547982 
L 67.278247 174.933962 
L 68.057747 171.560522 
L 68.837247 172.438369 
L 69.616747 173.943249 
L 70.396246 172.664101 
L 71.175746 173.103024 
L 71.955246 172.400747 
L 72.734746 174.382173 
L 73.514246 173.115565 
L 74.293746 174.971584 
L 75.073246 173.692436 
L 75.852745 174.89634 
L 76.632245 171.89912 
L 77.411745 175.372885 
L 78.191245 174.269307 
L 78.970745 174.344551 
L 79.750245 173.140646 
L 80.529745 176.927928 
L 81.309244 172.689182 
L 82.088744 173.905627 
L 82.868244 177.15366 
L 83.647744 173.805302 
L 84.427244 175.397967 
L 85.206744 174.871259 
L 85.986244 176.940469 
L 86.765743 176.426302 
L 87.545243 174.068656 
L 88.324743 175.096991 
L 89.104243 176.351058 
L 89.883743 174.168981 
L 90.663243 176.489005 
L 91.442743 176.300895 
L 92.222242 175.46067 
L 93.001742 177.15366 
L 93.781242 175.924675 
L 95.340242 176.137866 
L 96.119742 175.410507 
L 96.899242 177.103498 
L 97.678741 174.70823 
L 98.458241 174.770933 
L 99.237741 173.692436 
L 100.017241 174.482498 
L 100.796741 175.560995 
L 101.576241 177.166201 
L 102.355741 176.990632 
L 103.13524 173.968331 
L 103.91474 176.20057 
L 104.69424 175.987378 
L 105.47374 176.250732 
L 106.25324 175.686402 
L 107.81224 177.429555 
L 108.591739 175.999919 
L 109.371239 175.071909 
L 110.150739 175.824349 
L 110.930239 175.962297 
L 111.709739 176.40122 
L 112.489239 177.078416 
L 113.268739 175.234938 
L 114.048238 174.093737 
L 114.827738 174.670608 
L 115.607238 175.096991 
L 116.386738 175.034287 
L 117.166238 175.523373 
L 117.945738 175.335263 
L 118.725237 174.419795 
L 119.504737 174.745852 
L 120.284237 174.081197 
L 121.063737 168.600924 
L 121.843237 174.582823 
L 122.622737 174.632986 
L 123.402237 171.32225 
L 124.181736 171.472738 
L 124.961236 170.858245 
L 125.740736 171.598144 
L 126.520236 169.315743 
L 127.299736 169.240499 
L 128.079236 172.513613 
L 128.858736 170.833163 
L 129.638235 166.142953 
L 130.417735 167.045882 
L 131.197235 158.932069 
L 131.976735 161.01382 
L 132.756235 151.156855 
L 133.535735 159.233045 
L 134.315235 158.104385 
L 135.094734 163.83547 
L 135.874234 149.250673 
L 136.653734 152.486166 
L 137.433234 147.821037 
L 138.212734 149.526568 
L 138.992234 153.301309 
L 139.771734 152.235352 
L 140.551233 141.575784 
L 141.330733 153.226065 
L 142.110233 148.297582 
L 142.889733 146.454104 
L 143.669233 133.298943 
L 144.448733 137.148928 
L 145.228233 151.934376 
L 146.007732 146.617133 
L 146.787232 139.167976 
L 147.566732 147.520061 
L 148.346232 138.528402 
L 149.125732 137.863746 
L 149.905232 143.068124 
L 150.684732 146.516807 
L 151.464231 143.18099 
L 152.243731 143.996133 
L 153.023231 135.982646 
L 153.802731 135.205124 
L 154.582231 141.763894 
L 155.361731 146.040262 
L 156.141231 140.058363 
L 156.92073 143.143368 
L 157.70023 143.3691 
L 158.47973 146.215831 
L 159.25923 143.720238 
L 160.03873 159.546562 
L 160.81823 166.180575 
L 161.59773 164.161528 
L 162.377229 163.220978 
L 163.156729 156.474098 
L 163.936229 156.423935 
L 164.715729 155.470845 
L 165.495229 162.543782 
L 166.274729 163.572116 
L 167.054229 159.245586 
L 167.833728 126.213465 
L 168.613228 156.662208 
L 169.392728 157.101132 
L 170.172228 156.260907 
L 170.951728 166.857772 
L 171.731228 169.127633 
L 172.510728 166.055169 
L 173.290227 164.312016 
L 174.069727 164.738399 
L 174.849227 163.810389 
L 175.628727 166.744906 
L 177.187727 170.293915 
L 177.967227 168.450436 
L 178.746726 168.738872 
L 179.526226 170.344077 
L 180.305726 169.854991 
L 181.085226 170.369159 
L 181.864726 171.610685 
L 182.644226 173.742599 
L 183.423726 151.194477 
L 184.203225 173.868005 
L 184.982725 170.895867 
L 185.762225 171.986905 
L 186.541725 171.259546 
L 187.321225 173.817843 
L 188.100725 174.70823 
L 188.880225 173.266053 
L 189.659724 173.040321 
L 190.439224 172.363125 
L 191.218724 172.112312 
L 191.998224 172.939996 
L 192.777724 174.432335 
L 193.557224 175.473211 
L 194.336724 173.266053 
L 195.116223 172.388206 
L 195.895723 172.526154 
L 196.675223 173.316216 
L 197.454723 171.422575 
L 198.234223 173.567029 
L 199.013723 174.733311 
L 199.793223 173.604651 
L 200.572722 173.567029 
L 201.352222 173.228431 
L 202.131722 171.836417 
L 202.911222 173.516866 
L 203.690722 174.607905 
L 204.470222 177.642746 
L 205.249722 170.369159 
L 206.029221 174.206603 
L 206.808721 172.099771 
L 207.588221 171.761173 
L 208.367721 172.062149 
L 209.926721 175.724024 
L 210.706221 172.488532 
L 211.48572 172.739345 
L 212.26522 172.613938 
L 213.04472 173.240972 
L 213.82422 178.144373 
L 214.60372 165.528461 
L 215.38322 174.645527 
L 216.16272 172.626479 
L 216.942219 172.701723 
L 217.721719 171.397494 
L 218.501219 171.497819 
L 219.280719 171.196843 
L 220.839719 173.479244 
L 221.619219 171.121599 
L 222.398718 173.654814 
L 223.178218 167.447183 
L 223.957718 171.623226 
L 224.737218 170.419321 
L 225.516718 174.269307 
L 226.296218 170.858245 
L 227.075718 169.027307 
L 227.855217 168.789034 
L 228.634717 169.704503 
L 229.414217 167.070963 
L 230.193717 173.893087 
L 230.973217 166.63204 
L 231.752717 166.255819 
L 232.532217 167.121126 
L 233.311716 169.416068 
L 234.091216 160.6376 
L 235.650216 168.011513 
L 236.429716 156.69983 
L 237.209216 171.585604 
L 237.988716 173.20335 
L 238.768215 169.140173 
L 239.547715 163.032868 
L 240.327215 154.618079 
L 241.106715 163.2586 
L 241.886215 148.234879 
L 242.665715 165.478298 
L 243.445215 154.542835 
L 244.224714 157.013347 
L 245.004214 153.752773 
L 245.783714 151.921835 
L 246.563214 153.815476 
L 247.342714 156.248366 
L 248.122214 159.345911 
L 248.901713 154.919055 
L 249.681213 151.558156 
L 250.460713 178.144373 
L 251.240213 131.091785 
L 252.019713 159.759753 
L 252.799213 152.76206 
L 253.578713 153.539582 
L 254.358212 151.269721 
L 255.137712 149.38862 
L 255.917212 149.877706 
L 256.696712 146.729999 
L 258.255712 153.075577 
L 259.035212 152.887467 
L 259.814711 154.931596 
L 260.594211 151.457831 
L 261.373711 150.053276 
L 262.153211 151.558156 
L 262.932711 152.323137 
L 263.712211 148.109472 
L 265.27121 151.056529 
L 266.83021 145.764367 
L 267.60971 147.281788 
L 268.38921 148.272501 
L 269.16871 152.824764 
L 269.94821 149.338458 
L 270.727709 148.987319 
L 271.507209 150.015654 
L 272.286709 149.263214 
L 273.066209 178.144373 
L 273.845709 135.794536 
L 274.625209 157.527514 
L 275.404709 152.348218 
L 276.184208 142.716985 
L 276.963708 143.682616 
L 277.743208 141.31243 
L 278.522708 178.144373 
L 279.302208 111.503261 
L 280.081708 158.743959 
L 280.861208 146.479185 
L 281.640707 136.170756 
L 282.420207 138.816837 
L 283.199707 135.844698 
L 283.979207 135.004474 
L 284.758707 144.221865 
L 285.538207 148.711424 
L 286.317707 151.884213 
L 287.097206 141.174483 
L 287.876706 145.939937 
L 288.656206 146.391401 
L 289.435706 144.472678 
L 290.215206 147.946444 
L 290.994706 147.996606 
L 291.774206 155.019381 
L 292.553705 154.63062 
L 293.333205 149.463864 
L 294.112705 151.144314 
L 294.892205 149.313376 
L 295.671705 148.874453 
L 296.451205 156.035175 
L 297.230705 152.686816 
L 298.789704 159.057476 
L 299.569204 153.012874 
L 300.348704 152.93763 
L 301.128204 146.729999 
L 301.907704 159.609265 
L 302.687204 161.803882 
L 303.466703 154.329644 
L 304.246203 162.719351 
L 305.025703 159.998026 
L 305.805203 144.071377 
L 306.584703 159.709591 
L 308.143703 160.963657 
L 308.923202 159.910241 
L 311.261702 157.540055 
L 312.041202 157.07605 
L 313.600202 171.610685 
L 314.379701 161.39004 
L 315.159201 160.612519 
L 315.938701 167.898647 
L 316.718201 158.706337 
L 317.497701 158.781581 
L 318.277201 163.998499 
L 319.056701 165.678949 
L 319.8362 162.593944 
L 320.6157 164.801102 
L 321.3952 160.286461 
L 322.1747 164.236772 
L 322.9542 164.098824 
L 323.7337 159.32083 
L 324.5132 175.197316 
L 325.292699 153.614826 
L 326.072199 154.718405 
L 326.851699 162.531241 
L 327.631199 160.26138 
L 328.410699 166.055169 
L 329.190199 164.750939 
L 329.969699 167.346858 
L 330.749198 164.437423 
L 331.528698 164.261853 
L 332.308198 163.421628 
L 333.087698 163.233518 
L 333.867198 162.5187 
L 334.646698 168.726331 
L 335.426198 169.365905 
L 336.205697 162.180102 
L 336.985197 166.092791 
L 338.544197 162.656648 
L 339.323697 162.155021 
L 340.103197 166.857772 
L 340.882697 168.32503 
L 341.662196 162.355672 
L 342.441696 164.876346 
L 343.221196 162.443456 
L 344.000696 162.267887 
L 344.780196 161.778801 
L 345.559696 164.826183 
L 346.339196 167.233992 
L 347.118695 162.092318 
L 347.898195 165.89214 
L 348.677695 158.355198 
L 349.457195 160.123433 
L 350.236695 160.436949 
L 351.795695 167.986432 
L 352.575194 159.13272 
L 353.354694 164.851265 
L 354.134194 154.166615 
L 354.913694 158.066763 
L 355.693194 158.39282 
L 356.472694 163.597198 
L 357.252194 173.278594 
L 358.031693 148.99986 
L 358.811193 163.195896 
L 359.590693 160.048189 
L 360.370193 159.784835 
L 361.149693 160.035648 
L 361.929193 156.072797 
L 362.708693 166.519174 
L 363.488192 161.264633 
L 364.267692 163.998499 
L 365.047192 163.572116 
L 365.826692 164.913968 
L 366.606192 159.383533 
L 367.385692 167.133666 
L 368.165192 168.538221 
L 368.944691 164.888887 
L 369.724191 166.682202 
L 370.503691 165.026834 
L 371.283191 166.506633 
L 372.062691 163.810389 
L 372.842191 168.287408 
L 373.621691 169.052389 
L 374.40119 168.32503 
L 375.18069 168.914441 
L 375.96019 168.626006 
L 376.73969 169.227958 
L 377.51919 167.798322 
L 378.29869 169.867532 
L 379.078189 171.51036 
L 379.857689 169.679422 
L 380.637189 171.51036 
L 381.416689 168.425355 
L 382.975689 169.980398 
L 383.755189 171.51036 
L 384.534688 172.325503 
L 385.314188 171.196843 
L 386.093688 171.861498 
L 386.873188 171.384953 
L 387.652688 173.002699 
L 388.432188 169.07747 
L 389.211688 172.338044 
L 389.991187 173.178268 
L 390.770687 175.034287 
L 391.550187 174.244225 
L 392.329687 172.576316 
L 393.109187 173.541948 
L 393.888687 178.144373 
L 395.447686 178.144373 
L 396.227186 164.349638 
L 397.006686 175.435589 
L 397.786186 174.545201 
L 398.565686 257.163125 
L 399.345186 178.144373 
L 403.242685 178.144373 
L 404.022185 151.783888 
L 404.801685 178.144373 
L 408.699184 178.144373 
L 409.478684 155.847065 
L 410.258184 178.144373 
L 414.155683 178.144373 
L 414.935183 152.611572 
L 415.714683 178.144373 
L 419.612182 178.144373 
L 420.391682 141.400215 
L 421.171182 178.144373 
L 425.068681 178.144373 
L 425.848181 123.329111 
L 426.627681 178.144373 
L 430.52518 178.144373 
L 431.30468 90.748455 
L 432.08418 178.144373 
L 435.981679 178.144373 
L 436.761179 39.105982 
L 437.540679 178.144373 
L 438.320179 178.144373 
L 438.320179 178.144373 
" style="fill:none;stroke:#000000;stroke-dasharray:1.5,2.475;stroke-dashoffset:0;stroke-opacity:0.5;stroke-width:1.5;"/>
   </g>
   <g id="line2d_27">
    <path clip-path="url(#pa3ccacebe8)" d="M 50.90875 177.89356 
L 54.026749 177.768153 
L 55.585749 177.580043 
L 57.144749 177.178742 
L 58.703749 176.463924 
L 61.042248 174.996665 
L 61.821748 174.645527 
L 64.160248 173.228431 
L 64.939747 173.190809 
L 65.719247 172.789508 
L 67.278247 172.676642 
L 69.616747 172.965077 
L 70.396246 172.939996 
L 73.514246 173.805302 
L 74.293746 173.755139 
L 75.073246 174.018493 
L 75.852745 174.018493 
L 76.632245 174.1439 
L 77.411745 173.980871 
L 78.191245 174.319469 
L 78.970745 174.206603 
L 80.529745 174.557742 
L 81.309244 174.582823 
L 83.647744 174.996665 
L 84.427244 175.46067 
L 85.206744 175.523373 
L 85.986244 175.360345 
L 86.765743 175.598617 
L 87.545243 175.448129 
L 88.324743 175.535914 
L 89.883743 175.473211 
L 90.663243 175.83689 
L 93.001742 176.21311 
L 93.781242 176.100244 
L 94.560742 176.162948 
L 95.340242 176.062622 
L 98.458241 175.021747 
L 101.576241 175.573536 
L 103.13524 175.987378 
L 104.69424 175.912134 
L 105.47374 176.037541 
L 106.25324 176.300895 
L 108.591739 176.100244 
L 110.150739 176.137866 
L 116.386738 174.946503 
L 117.166238 175.021747 
L 117.945738 174.933962 
L 118.725237 174.181522 
L 120.284237 173.592111 
L 121.843237 172.764426 
L 122.622737 172.325503 
L 123.402237 172.024527 
L 124.181736 171.911661 
L 124.961236 171.159221 
L 125.740736 170.820623 
L 126.520236 170.732838 
L 128.079236 169.666881 
L 129.638235 166.732365 
L 131.197235 161.841504 
L 131.976735 159.872619 
L 132.756235 159.233045 
L 133.535735 157.514974 
L 134.315235 156.737452 
L 135.094734 155.182409 
L 135.874234 154.342184 
L 136.653734 153.037955 
L 137.433234 152.022161 
L 138.212734 149.789922 
L 138.992234 149.990573 
L 139.771734 149.514027 
L 140.551233 149.225592 
L 141.330733 147.281788 
L 142.110233 144.999386 
L 142.889733 144.284568 
L 143.669233 144.372353 
L 144.448733 142.99288 
L 145.228233 143.143368 
L 146.007732 142.792229 
L 146.787232 143.130827 
L 147.566732 143.155908 
L 148.346232 142.340765 
L 149.125732 142.115033 
L 149.905232 142.729525 
L 150.684732 141.851679 
L 151.464231 141.425296 
L 153.023231 141.187023 
L 153.802731 140.534908 
L 154.582231 140.723019 
L 155.361731 141.061617 
L 156.141231 142.403468 
L 156.92073 143.419262 
L 157.70023 145.388147 
L 158.47973 148.234879 
L 160.03873 155.470845 
L 160.81823 158.029141 
L 161.59773 159.621806 
L 162.377229 160.499653 
L 163.156729 160.198677 
L 163.936229 159.671969 
L 164.715729 159.308289 
L 165.495229 155.709117 
L 167.054229 153.953424 
L 167.833728 153.364012 
L 168.613228 153.815476 
L 169.392728 155.433223 
L 170.172228 157.866112 
L 170.951728 162.644107 
L 171.731228 164.01104 
L 173.290227 165.804355 
L 174.069727 165.841977 
L 174.849227 166.105331 
L 175.628727 166.682202 
L 177.967227 169.039848 
L 180.305726 170.369159 
L 181.085226 168.751412 
L 181.864726 168.751412 
L 182.644226 168.475518 
L 183.423726 168.563302 
L 184.203225 168.814116 
L 184.982725 169.466231 
L 185.762225 170.281374 
L 186.541725 172.726804 
L 187.321225 172.814589 
L 188.100725 173.065402 
L 190.439224 173.115565 
L 193.557224 173.479244 
L 194.336724 173.516866 
L 195.895723 173.002699 
L 196.675223 172.927455 
L 197.454723 173.040321 
L 199.013723 173.416541 
L 199.793223 173.303675 
L 202.131722 173.780221 
L 202.911222 173.629733 
L 203.690722 173.755139 
L 205.249722 173.529407 
L 206.808721 172.939996 
L 207.588221 172.802048 
L 208.367721 173.128106 
L 209.147221 173.103024 
L 210.706221 173.328756 
L 211.48572 173.880546 
L 212.26522 173.077943 
L 213.04472 172.864752 
L 214.60372 172.726804 
L 216.16272 172.27534 
L 216.942219 171.648307 
L 217.721719 172.225178 
L 219.280719 171.936742 
L 220.060219 172.099771 
L 220.839719 171.761173 
L 221.619219 171.648307 
L 222.398718 171.410034 
L 223.178218 171.472738 
L 224.737218 171.096517 
L 225.516718 170.645053 
L 226.296218 170.732838 
L 227.075718 170.068183 
L 227.855217 170.155967 
L 228.634717 169.403527 
L 229.414217 168.939523 
L 230.193717 168.638546 
L 230.973217 168.52568 
L 231.752717 167.472264 
L 232.532217 166.795068 
L 233.311716 165.967384 
L 234.091216 164.813643 
L 234.870716 165.014293 
L 235.650216 165.678949 
L 236.429716 166.155494 
L 237.209216 166.845231 
L 238.768215 165.164781 
L 240.327215 161.716097 
L 241.106715 159.308289 
L 241.886215 157.866112 
L 242.665715 156.913021 
L 243.445215 156.411395 
L 244.224714 155.257653 
L 245.004214 155.621333 
L 245.783714 154.931596 
L 246.563214 155.132247 
L 247.342714 154.806189 
L 248.122214 157.43973 
L 248.901713 155.897227 
L 249.681213 156.110419 
L 250.460713 155.408141 
L 251.240213 154.480132 
L 252.799213 153.13828 
L 253.578713 150.554903 
L 254.358212 151.771347 
L 255.137712 150.416955 
L 255.917212 150.228845 
L 256.696712 150.203764 
L 258.255712 151.407668 
L 259.035212 151.708644 
L 259.814711 152.19773 
L 260.594211 152.285515 
L 262.153211 151.081611 
L 265.27121 148.937156 
L 266.05071 148.360286 
L 266.83021 148.686343 
L 268.38921 148.749046 
L 269.94821 149.57673 
L 270.727709 152.812223 
L 271.507209 152.360759 
L 272.286709 153.13828 
L 273.066209 153.652448 
L 273.845709 152.874926 
L 274.625209 151.533075 
L 275.404709 149.639434 
L 276.184208 149.38862 
L 276.963708 147.231625 
L 277.743208 146.855405 
L 278.522708 146.303616 
L 279.302208 145.513554 
L 280.081708 144.460138 
L 280.861208 143.055583 
L 281.640707 138.69143 
L 282.420207 141.12432 
L 283.199707 139.920416 
L 283.979207 141.049076 
L 286.317707 145.300363 
L 287.097206 146.203291 
L 287.876706 146.366319 
L 288.656206 146.240913 
L 289.435706 146.842865 
L 290.215206 148.648721 
L 291.774206 150.479659 
L 292.553705 151.144314 
L 293.333205 151.144314 
L 294.112705 151.658481 
L 294.892205 151.432749 
L 295.671705 151.796429 
L 296.451205 153.13828 
L 298.010204 154.45505 
L 298.789704 154.154074 
L 299.569204 154.204237 
L 300.348704 154.981759 
L 301.128204 155.00684 
L 301.907704 155.784361 
L 302.687204 157.07605 
L 303.466703 156.599505 
L 304.246203 157.477352 
L 305.025703 157.201457 
L 305.805203 157.101132 
L 306.584703 157.790868 
L 307.364203 157.841031 
L 308.143703 158.19217 
L 308.923202 159.534021 
L 309.702702 159.082557 
L 310.482202 159.258126 
L 311.261702 160.474571 
L 312.820702 161.879126 
L 313.600202 163.183356 
L 314.379701 163.484332 
L 315.159201 163.384006 
L 315.938701 162.957624 
L 316.718201 162.280428 
L 317.497701 162.481078 
L 318.277201 162.970164 
L 319.056701 162.481078 
L 319.8362 163.108112 
L 320.6157 163.572116 
L 321.3952 163.020327 
L 322.1747 163.935796 
L 322.9542 163.308762 
L 323.7337 162.242806 
L 324.5132 162.042155 
L 325.292699 161.252093 
L 326.072199 161.176849 
L 326.851699 161.691016 
L 327.631199 161.502906 
L 328.410699 163.183356 
L 329.190199 164.437423 
L 330.749198 164.838724 
L 331.528698 164.312016 
L 335.426198 165.453217 
L 336.205697 165.315269 
L 337.764697 164.525207 
L 338.544197 164.462504 
L 339.323697 164.612992 
L 340.882697 164.512667 
L 341.662196 164.374719 
L 342.441696 164.048662 
L 343.221196 163.584657 
L 344.000696 163.484332 
L 344.780196 163.584657 
L 345.559696 163.83547 
L 347.118695 163.195896 
L 348.677695 162.255346 
L 349.457195 162.280428 
L 350.236695 162.180102 
L 351.016195 162.33059 
L 351.795695 162.054696 
L 352.575194 161.565609 
L 353.354694 160.838251 
L 354.134194 160.349165 
L 354.913694 160.938576 
L 355.693194 160.386787 
L 356.472694 160.474571 
L 357.252194 161.126686 
L 358.031693 161.126686 
L 358.811193 160.963657 
L 359.590693 159.960404 
L 360.370193 159.396074 
L 361.149693 160.712844 
L 361.929193 160.976198 
L 362.708693 161.628313 
L 363.488192 162.443456 
L 364.267692 162.619026 
L 365.047192 163.64736 
L 365.826692 163.960877 
L 367.385692 165.026834 
L 369.724191 166.092791 
L 370.503691 166.08025 
L 371.283191 166.193116 
L 375.18069 168.651087 
L 375.96019 168.789034 
L 379.078189 169.842451 
L 379.857689 169.880073 
L 383.755189 170.732838 
L 385.314188 171.623226 
L 386.873188 171.585604 
L 387.652688 171.660848 
L 389.211688 172.513613 
L 390.770687 173.077943 
L 391.550187 174.068656 
L 393.109187 175.535914 
L 393.888687 174.720771 
L 395.447686 174.607905 
L 396.227186 183.173181 
L 397.786186 188.227071 
L 398.565686 189.543841 
L 399.345186 190.446769 
L 400.124686 188.854104 
L 400.904185 186.546621 
L 401.683685 175.347804 
L 402.463185 174.444876 
L 403.242685 173.780221 
L 404.022185 173.529407 
L 404.801685 173.780221 
L 405.581185 174.444876 
L 406.360684 175.347804 
L 407.140184 175.774187 
L 407.919684 175.021747 
L 408.699184 174.444876 
L 409.478684 174.231685 
L 410.258184 174.444876 
L 411.037684 175.021747 
L 411.817183 175.774187 
L 412.596683 175.435589 
L 413.376183 174.557742 
L 414.155683 173.905627 
L 414.935183 173.667355 
L 415.714683 173.905627 
L 416.494183 174.557742 
L 417.273682 175.435589 
L 419.612182 172.049608 
L 420.391682 171.71101 
L 421.171182 172.049608 
L 421.950682 172.990158 
L 422.730181 174.244225 
L 424.289181 170.456943 
L 425.068681 169.052389 
L 425.848181 168.538221 
L 426.627681 169.052389 
L 427.407181 170.456943 
L 428.18668 172.312962 
L 429.74568 165.879599 
L 430.52518 163.659901 
L 431.30468 162.832217 
L 432.08418 163.659901 
L 432.86368 165.879599 
L 433.643179 168.851738 
L 435.202179 158.631093 
L 435.981679 155.094625 
L 436.761179 150.88096 
L 437.540679 147.557683 
L 438.320179 144.936683 
L 438.320179 144.936683 
" style="fill:none;stroke:#b3220f;stroke-linecap:square;stroke-width:1.5;"/>
   </g>
   <g id="patch_3">
    <path d="M 50.90875 268.065982 
L 50.90875 28.203125 
" style="fill:none;stroke:#555555;stroke-linecap:square;stroke-linejoin:miter;"/>
   </g>
   <g id="patch_4">
    <path d="M 50.90875 268.065982 
L 438.320179 268.065982 
" style="fill:none;stroke:#555555;stroke-linecap:square;stroke-linejoin:miter;"/>
   </g>
   <g id="text_15">
    <!-- Miami-Dade | New Cases per Day as of [2021-07-25] -->
    <g style="fill:#555555;" transform="translate(79.562121 18.203125)scale(0.14 -0.14)">
     <defs>
      <path d="M 8 71.40625 
L 8 0 
L 17 0 
L 17 59.40625 
L 17.203125 59.40625 
L 39.5 0 
L 47.59375 0 
L 69.90625 59.40625 
L 70.09375 59.40625 
L 70.09375 0 
L 79.09375 0 
L 79.09375 71.40625 
L 66.09375 71.40625 
L 43.5 11.40625 
L 21 71.40625 
z
" id="HelveticaNeue-77"/>
      <path d="M 15.40625 61 
L 15.40625 71.40625 
L 6.90625 71.40625 
L 6.90625 61 
z
M 6.90625 51.703125 
L 6.90625 0 
L 15.40625 0 
L 15.40625 51.703125 
z
" id="HelveticaNeue-105"/>
      <path d="M 6.40625 51.703125 
L 6.40625 0 
L 14.90625 0 
L 14.90625 32.203125 
Q 14.90625 33.703125 15.65625 35.953125 
Q 16.40625 38.203125 18.046875 40.296875 
Q 19.703125 42.40625 22.34375 43.90625 
Q 25 45.40625 28.703125 45.40625 
Q 31.59375 45.40625 33.4375 44.546875 
Q 35.296875 43.703125 36.390625 42.140625 
Q 37.5 40.59375 37.953125 38.5 
Q 38.40625 36.40625 38.40625 33.90625 
L 38.40625 0 
L 46.90625 0 
L 46.90625 32.203125 
Q 46.90625 38.203125 50.5 41.796875 
Q 54.09375 45.40625 60.40625 45.40625 
Q 63.5 45.40625 65.453125 44.5 
Q 67.40625 43.59375 68.5 42.046875 
Q 69.59375 40.5 70 38.390625 
Q 70.40625 36.296875 70.40625 33.90625 
L 70.40625 0 
L 78.90625 0 
L 78.90625 37.90625 
Q 78.90625 41.90625 77.65625 44.75 
Q 76.40625 47.59375 74.15625 49.390625 
Q 71.90625 51.203125 68.75 52.046875 
Q 65.59375 52.90625 61.703125 52.90625 
Q 56.59375 52.90625 52.34375 50.59375 
Q 48.09375 48.296875 45.5 44.09375 
Q 43.90625 48.90625 40 50.90625 
Q 36.09375 52.90625 31.296875 52.90625 
Q 20.40625 52.90625 14.59375 44.09375 
L 14.40625 44.09375 
L 14.40625 51.703125 
z
" id="HelveticaNeue-109"/>
      <path d="M 5 31.796875 
L 5 23.796875 
L 33.90625 23.796875 
L 33.90625 31.796875 
z
" id="HelveticaNeue-45"/>
      <path d="M 17.296875 8 
L 17.296875 63.40625 
L 33.296875 63.40625 
Q 39.90625 63.40625 44.40625 61.546875 
Q 48.90625 59.703125 51.75 56.140625 
Q 54.59375 52.59375 55.84375 47.546875 
Q 57.09375 42.5 57.09375 36.09375 
Q 57.09375 29.5 55.75 24.84375 
Q 54.40625 20.203125 52.296875 17.09375 
Q 50.203125 14 47.546875 12.203125 
Q 44.90625 10.40625 42.203125 9.453125 
Q 39.5 8.5 37.09375 8.25 
Q 34.703125 8 33.09375 8 
z
M 7.796875 71.40625 
L 7.796875 0 
L 32.296875 0 
Q 41.203125 0 47.703125 2.5 
Q 54.203125 5 58.390625 9.75 
Q 62.59375 14.5 64.59375 21.453125 
Q 66.59375 28.40625 66.59375 37.40625 
Q 66.59375 54.59375 57.6875 63 
Q 48.796875 71.40625 32.296875 71.40625 
z
" id="HelveticaNeue-68"/>
      <path id="HelveticaNeue-32"/>
      <path d="M 7.703125 78.59375 
L 7.703125 -21.296875 
L 14.5 -21.296875 
L 14.5 78.59375 
z
" id="HelveticaNeue-124"/>
      <path d="M 7.703125 71.40625 
L 7.703125 0 
L 16.703125 0 
L 16.703125 57.296875 
L 16.90625 57.296875 
L 54.203125 0 
L 64.59375 0 
L 64.59375 71.40625 
L 55.59375 71.40625 
L 55.59375 13.5 
L 55.40625 13.5 
L 17.796875 71.40625 
z
" id="HelveticaNeue-78"/>
      <path d="M 57.59375 0 
L 74.09375 51.703125 
L 65.296875 51.703125 
L 53.703125 9.40625 
L 53.5 9.40625 
L 42.703125 51.703125 
L 33.40625 51.703125 
L 23 9.40625 
L 22.796875 9.40625 
L 11.09375 51.703125 
L 1.703125 51.703125 
L 18.296875 0 
L 27.5 0 
L 37.90625 41.09375 
L 38.09375 41.09375 
L 48.59375 0 
z
" id="HelveticaNeue-119"/>
      <path d="M 58 49.90625 
L 67.5 49.90625 
Q 66.703125 55.59375 64.09375 59.9375 
Q 61.5 64.296875 57.59375 67.1875 
Q 53.703125 70.09375 48.703125 71.59375 
Q 43.703125 73.09375 38.09375 73.09375 
Q 29.90625 73.09375 23.546875 70.140625 
Q 17.203125 67.203125 12.953125 62.09375 
Q 8.703125 57 6.5 50.140625 
Q 4.296875 43.296875 4.296875 35.5 
Q 4.296875 27.703125 6.34375 20.890625 
Q 8.40625 14.09375 12.5 9.09375 
Q 16.59375 4.09375 22.796875 1.25 
Q 29 -1.59375 37.296875 -1.59375 
Q 51 -1.59375 58.890625 5.90625 
Q 66.796875 13.40625 68.203125 26.90625 
L 58.703125 26.90625 
Q 58.40625 22.5 56.90625 18.703125 
Q 55.40625 14.90625 52.75 12.15625 
Q 50.09375 9.40625 46.4375 7.84375 
Q 42.796875 6.296875 38.09375 6.296875 
Q 31.703125 6.296875 27.09375 8.6875 
Q 22.5 11.09375 19.546875 15.140625 
Q 16.59375 19.203125 15.1875 24.640625 
Q 13.796875 30.09375 13.796875 36.203125 
Q 13.796875 41.796875 15.1875 47 
Q 16.59375 52.203125 19.546875 56.25 
Q 22.5 60.296875 27.046875 62.6875 
Q 31.59375 65.09375 38 65.09375 
Q 45.5 65.09375 50.953125 61.296875 
Q 56.40625 57.5 58 49.90625 
z
" id="HelveticaNeue-67"/>
      <path d="M 11.59375 16.296875 
L 3.09375 16.296875 
Q 3.296875 11.5 5.09375 8.140625 
Q 6.90625 4.796875 9.90625 2.75 
Q 12.90625 0.703125 16.796875 -0.1875 
Q 20.703125 -1.09375 25 -1.09375 
Q 28.90625 -1.09375 32.84375 -0.34375 
Q 36.796875 0.40625 39.9375 2.296875 
Q 43.09375 4.203125 45.046875 7.296875 
Q 47 10.40625 47 15.09375 
Q 47 18.796875 45.546875 21.296875 
Q 44.09375 23.796875 41.75 25.4375 
Q 39.40625 27.09375 36.34375 28.09375 
Q 33.296875 29.09375 30.09375 29.796875 
Q 27.09375 30.5 24.09375 31.140625 
Q 21.09375 31.796875 18.6875 32.75 
Q 16.296875 33.703125 14.75 35.140625 
Q 13.203125 36.59375 13.203125 38.796875 
Q 13.203125 40.796875 14.203125 42.046875 
Q 15.203125 43.296875 16.796875 44.046875 
Q 18.40625 44.796875 20.34375 45.09375 
Q 22.296875 45.40625 24.203125 45.40625 
Q 26.296875 45.40625 28.34375 44.953125 
Q 30.40625 44.5 32.09375 43.5 
Q 33.796875 42.5 34.890625 40.84375 
Q 36 39.203125 36.203125 36.703125 
L 44.703125 36.703125 
Q 44.40625 41.40625 42.703125 44.546875 
Q 41 47.703125 38.140625 49.546875 
Q 35.296875 51.40625 31.59375 52.15625 
Q 27.90625 52.90625 23.5 52.90625 
Q 20.09375 52.90625 16.640625 52.046875 
Q 13.203125 51.203125 10.453125 49.453125 
Q 7.703125 47.703125 5.953125 44.890625 
Q 4.203125 42.09375 4.203125 38.203125 
Q 4.203125 33.203125 6.703125 30.390625 
Q 9.203125 27.59375 12.953125 26.046875 
Q 16.703125 24.5 21.09375 23.640625 
Q 25.5 22.796875 29.25 21.75 
Q 33 20.703125 35.5 19 
Q 38 17.296875 38 14 
Q 38 11.59375 36.796875 10.046875 
Q 35.59375 8.5 33.75 7.703125 
Q 31.90625 6.90625 29.703125 6.59375 
Q 27.5 6.296875 25.5 6.296875 
Q 22.90625 6.296875 20.453125 6.796875 
Q 18 7.296875 16.046875 8.4375 
Q 14.09375 9.59375 12.890625 11.546875 
Q 11.703125 13.5 11.59375 16.296875 
z
" id="HelveticaNeue-115"/>
      <path d="M 26.703125 -6.90625 
Q 25.203125 -10.703125 23.75 -13.296875 
Q 22.296875 -15.90625 20.546875 -17.546875 
Q 18.796875 -19.203125 16.640625 -19.953125 
Q 14.5 -20.703125 11.703125 -20.703125 
Q 10.203125 -20.703125 8.703125 -20.5 
Q 7.203125 -20.296875 5.796875 -19.796875 
L 5.796875 -12 
Q 6.90625 -12.5 8.34375 -12.84375 
Q 9.796875 -13.203125 10.796875 -13.203125 
Q 13.40625 -13.203125 15.15625 -11.953125 
Q 16.90625 -10.703125 17.796875 -8.40625 
L 21.296875 0.296875 
L 0.796875 51.703125 
L 10.40625 51.703125 
L 25.5 9.40625 
L 25.703125 9.40625 
L 40.203125 51.703125 
L 49.203125 51.703125 
z
" id="HelveticaNeue-121"/>
      <path d="M 12.59375 25.796875 
Q 12.59375 30.5 13.84375 34.140625 
Q 15.09375 37.796875 17.296875 40.296875 
Q 19.5 42.796875 22.453125 44.09375 
Q 25.40625 45.40625 28.703125 45.40625 
Q 32 45.40625 34.953125 44.09375 
Q 37.90625 42.796875 40.09375 40.296875 
Q 42.296875 37.796875 43.546875 34.140625 
Q 44.796875 30.5 44.796875 25.796875 
Q 44.796875 21.09375 43.546875 17.4375 
Q 42.296875 13.796875 40.09375 11.34375 
Q 37.90625 8.90625 34.953125 7.59375 
Q 32 6.296875 28.703125 6.296875 
Q 25.40625 6.296875 22.453125 7.59375 
Q 19.5 8.90625 17.296875 11.34375 
Q 15.09375 13.796875 13.84375 17.4375 
Q 12.59375 21.09375 12.59375 25.796875 
z
M 3.59375 25.796875 
Q 3.59375 20.09375 5.1875 15.1875 
Q 6.796875 10.296875 10 6.640625 
Q 13.203125 3 17.890625 0.953125 
Q 22.59375 -1.09375 28.703125 -1.09375 
Q 34.90625 -1.09375 39.546875 0.953125 
Q 44.203125 3 47.390625 6.640625 
Q 50.59375 10.296875 52.1875 15.1875 
Q 53.796875 20.09375 53.796875 25.796875 
Q 53.796875 31.5 52.1875 36.453125 
Q 50.59375 41.40625 47.390625 45.046875 
Q 44.203125 48.703125 39.546875 50.796875 
Q 34.90625 52.90625 28.703125 52.90625 
Q 22.59375 52.90625 17.890625 50.796875 
Q 13.203125 48.703125 10 45.046875 
Q 6.796875 41.40625 5.1875 36.453125 
Q 3.59375 31.5 3.59375 25.796875 
z
" id="HelveticaNeue-111"/>
      <path d="M 9.90625 44.203125 
L 9.90625 0 
L 18.40625 0 
L 18.40625 44.203125 
L 28.40625 44.203125 
L 28.40625 51.703125 
L 18.40625 51.703125 
L 18.40625 58.90625 
Q 18.40625 62.296875 20.09375 63.5 
Q 21.796875 64.703125 24.90625 64.703125 
Q 26 64.703125 27.296875 64.546875 
Q 28.59375 64.40625 29.703125 64 
L 29.703125 71.40625 
Q 28.5 71.796875 26.953125 72 
Q 25.40625 72.203125 24.203125 72.203125 
Q 17.203125 72.203125 13.546875 68.953125 
Q 9.90625 65.703125 9.90625 59.40625 
L 9.90625 51.703125 
L 1.203125 51.703125 
L 1.203125 44.203125 
z
" id="HelveticaNeue-102"/>
      <path d="M 25.90625 66.296875 
L 25.90625 73.09375 
L 7.203125 73.09375 
L 7.203125 -19.703125 
L 25.90625 -19.703125 
L 25.90625 -12.90625 
L 15.203125 -12.90625 
L 15.203125 66.296875 
z
" id="HelveticaNeue-91"/>
      <path d="M 0 -12.90625 
L 0 -19.703125 
L 18.703125 -19.703125 
L 18.703125 73.09375 
L 0 73.09375 
L 0 66.296875 
L 10.703125 66.296875 
L 10.703125 -12.90625 
z
" id="HelveticaNeue-93"/>
     </defs>
     <use xlink:href="#HelveticaNeue-77"/>
     <use x="87.099991" xlink:href="#HelveticaNeue-105"/>
     <use x="109.299988" xlink:href="#HelveticaNeue-97"/>
     <use x="162.999985" xlink:href="#HelveticaNeue-109"/>
     <use x="248.299973" xlink:href="#HelveticaNeue-105"/>
     <use x="270.499969" xlink:href="#HelveticaNeue-45"/>
     <use x="309.399963" xlink:href="#HelveticaNeue-68"/>
     <use x="379.799957" xlink:href="#HelveticaNeue-97"/>
     <use x="433.499954" xlink:href="#HelveticaNeue-100"/>
     <use x="492.799942" xlink:href="#HelveticaNeue-101"/>
     <use x="546.499939" xlink:href="#HelveticaNeue-32"/>
     <use x="574.299927" xlink:href="#HelveticaNeue-124"/>
     <use x="596.499924" xlink:href="#HelveticaNeue-32"/>
     <use x="624.299911" xlink:href="#HelveticaNeue-78"/>
     <use x="696.499893" xlink:href="#HelveticaNeue-101"/>
     <use x="750.19989" xlink:href="#HelveticaNeue-119"/>
     <use x="825.999878" xlink:href="#HelveticaNeue-32"/>
     <use x="853.799866" xlink:href="#HelveticaNeue-67"/>
     <use x="925.999847" xlink:href="#HelveticaNeue-97"/>
     <use x="979.699844" xlink:href="#HelveticaNeue-115"/>
     <use x="1029.699829" xlink:href="#HelveticaNeue-101"/>
     <use x="1083.399826" xlink:href="#HelveticaNeue-115"/>
     <use x="1133.399811" xlink:href="#HelveticaNeue-32"/>
     <use x="1161.199799" xlink:href="#HelveticaNeue-112"/>
     <use x="1220.499786" xlink:href="#HelveticaNeue-101"/>
     <use x="1274.199783" xlink:href="#HelveticaNeue-114"/>
     <use x="1307.499771" xlink:href="#HelveticaNeue-32"/>
     <use x="1335.299759" xlink:href="#HelveticaNeue-68"/>
     <use x="1405.699753" xlink:href="#HelveticaNeue-97"/>
     <use x="1459.39975" xlink:href="#HelveticaNeue-121"/>
     <use x="1509.399734" xlink:href="#HelveticaNeue-32"/>
     <use x="1537.199722" xlink:href="#HelveticaNeue-97"/>
     <use x="1590.899719" xlink:href="#HelveticaNeue-115"/>
     <use x="1640.899704" xlink:href="#HelveticaNeue-32"/>
     <use x="1668.699692" xlink:href="#HelveticaNeue-111"/>
     <use x="1726.099686" xlink:href="#HelveticaNeue-102"/>
     <use x="1755.699677" xlink:href="#HelveticaNeue-32"/>
     <use x="1783.499664" xlink:href="#HelveticaNeue-91"/>
     <use x="1809.399658" xlink:href="#HelveticaNeue-50"/>
     <use x="1864.999649" xlink:href="#HelveticaNeue-48"/>
     <use x="1920.59964" xlink:href="#HelveticaNeue-50"/>
     <use x="1976.199631" xlink:href="#HelveticaNeue-49"/>
     <use x="2031.799622" xlink:href="#HelveticaNeue-45"/>
     <use x="2070.699615" xlink:href="#HelveticaNeue-48"/>
     <use x="2126.299606" xlink:href="#HelveticaNeue-55"/>
     <use x="2181.899597" xlink:href="#HelveticaNeue-45"/>
     <use x="2220.799591" xlink:href="#HelveticaNeue-50"/>
     <use x="2276.399582" xlink:href="#HelveticaNeue-53"/>
     <use x="2331.999573" xlink:href="#HelveticaNeue-93"/>
    </g>
   </g>
   <g id="legend_1">
    <g id="line2d_28">
     <path d="M 304.255647 44.635937 
L 330.255647 44.635937 
" style="fill:none;stroke:#000000;stroke-dasharray:1.5,2.475;stroke-dashoffset:0;stroke-opacity:0.5;stroke-width:1.5;"/>
    </g>
    <g id="line2d_29"/>
    <g id="text_16">
     <!-- Actual -->
     <g style="fill:#555555;" transform="translate(340.655647 49.185937)scale(0.13 -0.13)">
      <use xlink:href="#HelveticaNeue-65"/>
      <use x="64.799988" xlink:href="#HelveticaNeue-99"/>
      <use x="118.499985" xlink:href="#HelveticaNeue-116"/>
      <use x="149.999969" xlink:href="#HelveticaNeue-117"/>
      <use x="205.59996" xlink:href="#HelveticaNeue-97"/>
      <use x="259.299957" xlink:href="#HelveticaNeue-108"/>
     </g>
    </g>
    <g id="line2d_30">
     <path d="M 304.255647 62.980156 
L 330.255647 62.980156 
" style="fill:none;stroke:#b3220f;stroke-linecap:square;stroke-width:1.5;"/>
    </g>
    <g id="line2d_31"/>
    <g id="text_17">
     <!-- 7-Day Average -->
     <g style="fill:#555555;" transform="translate(340.655647 67.530156)scale(0.13 -0.13)">
      <defs>
       <path d="M 29.703125 0 
L 48.59375 51.703125 
L 39.703125 51.703125 
L 25.59375 8.59375 
L 25.40625 8.59375 
L 10.90625 51.703125 
L 1.40625 51.703125 
L 20.59375 0 
z
" id="HelveticaNeue-118"/>
       <path d="M 51 4.40625 
L 51 51.703125 
L 43 51.703125 
L 43 44.296875 
L 42.90625 44.296875 
Q 40.59375 48.59375 36.5 50.75 
Q 32.40625 52.90625 27.5 52.90625 
Q 20.796875 52.90625 16.1875 50.34375 
Q 11.59375 47.796875 8.796875 43.84375 
Q 6 39.90625 4.796875 35.046875 
Q 3.59375 30.203125 3.59375 25.59375 
Q 3.59375 20.296875 5.046875 15.546875 
Q 6.5 10.796875 9.390625 7.25 
Q 12.296875 3.703125 16.59375 1.59375 
Q 20.90625 -0.5 26.703125 -0.5 
Q 31.703125 -0.5 36.140625 1.75 
Q 40.59375 4 42.796875 8.796875 
L 43 8.796875 
L 43 5.40625 
Q 43 1.09375 42.140625 -2.5 
Q 41.296875 -6.09375 39.390625 -8.640625 
Q 37.5 -11.203125 34.59375 -12.640625 
Q 31.703125 -14.09375 27.5 -14.09375 
Q 25.40625 -14.09375 23.09375 -13.640625 
Q 20.796875 -13.203125 18.84375 -12.203125 
Q 16.90625 -11.203125 15.546875 -9.59375 
Q 14.203125 -8 14.09375 -5.703125 
L 5.59375 -5.703125 
Q 5.796875 -9.90625 7.796875 -12.796875 
Q 9.796875 -15.703125 12.84375 -17.5 
Q 15.90625 -19.296875 19.65625 -20.09375 
Q 23.40625 -20.90625 27 -20.90625 
Q 39.40625 -20.90625 45.203125 -14.59375 
Q 51 -8.296875 51 4.40625 
z
M 27.203125 6.90625 
Q 23 6.90625 20.203125 8.65625 
Q 17.40625 10.40625 15.703125 13.25 
Q 14 16.09375 13.296875 19.59375 
Q 12.59375 23.09375 12.59375 26.59375 
Q 12.59375 30.296875 13.4375 33.6875 
Q 14.296875 37.09375 16.140625 39.6875 
Q 18 42.296875 20.890625 43.84375 
Q 23.796875 45.40625 27.90625 45.40625 
Q 31.90625 45.40625 34.703125 43.796875 
Q 37.5 42.203125 39.25 39.546875 
Q 41 36.90625 41.796875 33.59375 
Q 42.59375 30.296875 42.59375 26.90625 
Q 42.59375 23.296875 41.75 19.6875 
Q 40.90625 16.09375 39.09375 13.25 
Q 37.296875 10.40625 34.34375 8.65625 
Q 31.40625 6.90625 27.203125 6.90625 
z
" id="HelveticaNeue-103"/>
      </defs>
      <use xlink:href="#HelveticaNeue-55"/>
      <use x="55.599991" xlink:href="#HelveticaNeue-45"/>
      <use x="94.499985" xlink:href="#HelveticaNeue-68"/>
      <use x="164.899979" xlink:href="#HelveticaNeue-97"/>
      <use x="218.599976" xlink:href="#HelveticaNeue-121"/>
      <use x="268.59996" xlink:href="#HelveticaNeue-32"/>
      <use x="296.399948" xlink:href="#HelveticaNeue-65"/>
      <use x="359.449936" xlink:href="#HelveticaNeue-118"/>
      <use x="409.449921" xlink:href="#HelveticaNeue-101"/>
      <use x="463.149918" xlink:href="#HelveticaNeue-114"/>
      <use x="496.449905" xlink:href="#HelveticaNeue-97"/>
      <use x="550.149902" xlink:href="#HelveticaNeue-103"/>
      <use x="607.549896" xlink:href="#HelveticaNeue-101"/>
     </g>
    </g>
   </g>
  </g>
 </g>
 <defs>
  <clipPath id="pa3ccacebe8">
   <rect height="239.862857" width="387.411429" x="50.90875" y="28.203125"/>
  </clipPath>
 </defs>
</svg>
