<?xml version="1.0" encoding="utf-8" standalone="no"?>
<!DOCTYPE svg PUBLIC "-//W3C//DTD SVG 1.1//EN"
  "http://www.w3.org/Graphics/SVG/1.1/DTD/svg11.dtd">
<!-- Created with matplotlib (https://matplotlib.org/) -->
<svg height="323.655201pt" version="1.1" viewBox="0 0 444.671073 323.655201" width="444.671073pt" xmlns="http://www.w3.org/2000/svg" xmlns:xlink="http://www.w3.org/1999/xlink">
 <metadata>
  <rdf:RDF xmlns:cc="http://creativecommons.org/ns#" xmlns:dc="http://purl.org/dc/elements/1.1/" xmlns:rdf="http://www.w3.org/1999/02/22-rdf-syntax-ns#">
   <cc:Work>
    <dc:type rdf:resource="http://purl.org/dc/dcmitype/StillImage"/>
    <dc:date>2021-03-06T12:34:43.640915</dc:date>
    <dc:format>image/svg+xml</dc:format>
    <dc:creator>
     <cc:Agent>
      <dc:title>Matplotlib v3.3.4, https://matplotlib.org/</dc:title>
     </cc:Agent>
    </dc:creator>
   </cc:Work>
  </rdf:RDF>
 </metadata>
 <defs>
  <style type="text/css">*{stroke-linecap:butt;stroke-linejoin:round;}</style>
 </defs>
 <g id="figure_1">
  <g id="patch_1">
   <path d="M 0 323.655201 
L 444.671073 323.655201 
L 444.671073 0 
L 0 0 
z
" style="fill:#ffffff;"/>
  </g>
  <g id="axes_1">
   <g id="patch_2">
    <path d="M 43.10875 268.065982 
L 430.520179 268.065982 
L 430.520179 28.203125 
L 43.10875 28.203125 
z
" style="fill:#ffffff;"/>
   </g>
   <g id="matplotlib.axis_1">
    <g id="xtick_1">
     <g id="line2d_1">
      <defs>
       <path d="M 0 0 
L 0 3.5 
" id="m8325f05b1f" style="stroke:#555555;stroke-width:0.8;"/>
      </defs>
      <g>
       <use style="fill:#555555;stroke:#555555;stroke-width:0.8;" x="43.10875" xlink:href="#m8325f05b1f" y="268.065982"/>
      </g>
     </g>
    </g>
    <g id="xtick_2">
     <g id="line2d_2">
      <g>
       <use style="fill:#555555;stroke:#555555;stroke-width:0.8;" x="61.660847" xlink:href="#m8325f05b1f" y="268.065982"/>
      </g>
     </g>
     <g id="text_1">
      <!-- Apr -->
      <g style="fill:#555555;" transform="translate(51.430456 284.348795)scale(0.13 -0.13)">
       <defs>
        <path d="M 20.09375 29.5 
L 32.203125 62.796875 
L 32.40625 62.796875 
L 44.296875 29.5 
z
M 27.203125 71.40625 
L -0.59375 0 
L 9.09375 0 
L 17.09375 21.5 
L 47.296875 21.5 
L 55.09375 0 
L 65.59375 0 
L 37.703125 71.40625 
z
" id="HelveticaNeue-65"/>
        <path d="M 6.703125 51.703125 
L 6.703125 -19.703125 
L 15.203125 -19.703125 
L 15.203125 6.90625 
L 15.40625 6.90625 
Q 16.796875 4.59375 18.84375 3.046875 
Q 20.90625 1.5 23.203125 0.59375 
Q 25.5 -0.296875 27.84375 -0.6875 
Q 30.203125 -1.09375 32.09375 -1.09375 
Q 38 -1.09375 42.453125 1 
Q 46.90625 3.09375 49.84375 6.75 
Q 52.796875 10.40625 54.25 15.296875 
Q 55.703125 20.203125 55.703125 25.703125 
Q 55.703125 31.203125 54.203125 36.09375 
Q 52.703125 41 49.75 44.75 
Q 46.796875 48.5 42.34375 50.703125 
Q 37.90625 52.90625 31.90625 52.90625 
Q 26.5 52.90625 22 50.953125 
Q 17.5 49 15.40625 44.703125 
L 15.203125 44.703125 
L 15.203125 51.703125 
z
M 46.703125 26.296875 
Q 46.703125 22.5 45.890625 18.890625 
Q 45.09375 15.296875 43.296875 12.5 
Q 41.5 9.703125 38.546875 8 
Q 35.59375 6.296875 31.203125 6.296875 
Q 26.796875 6.296875 23.6875 7.9375 
Q 20.59375 9.59375 18.640625 12.296875 
Q 16.703125 15 15.796875 18.546875 
Q 14.90625 22.09375 14.90625 25.90625 
Q 14.90625 29.5 15.75 33 
Q 16.59375 36.5 18.5 39.25 
Q 20.40625 42 23.40625 43.703125 
Q 26.40625 45.40625 30.703125 45.40625 
Q 34.796875 45.40625 37.84375 43.796875 
Q 40.90625 42.203125 42.84375 39.5 
Q 44.796875 36.796875 45.75 33.34375 
Q 46.703125 29.90625 46.703125 26.296875 
z
" id="HelveticaNeue-112"/>
        <path d="M 6.09375 51.703125 
L 6.09375 0 
L 14.59375 0 
L 14.59375 23 
Q 14.59375 28 15.59375 31.84375 
Q 16.59375 35.703125 18.796875 38.390625 
Q 21 41.09375 24.59375 42.5 
Q 28.203125 43.90625 33.296875 43.90625 
L 33.296875 52.90625 
Q 26.40625 53.09375 21.90625 50.09375 
Q 17.40625 47.09375 14.296875 40.796875 
L 14.09375 40.796875 
L 14.09375 51.703125 
z
" id="HelveticaNeue-114"/>
       </defs>
       <use xlink:href="#HelveticaNeue-65"/>
       <use x="64.799988" xlink:href="#HelveticaNeue-112"/>
       <use x="124.099976" xlink:href="#HelveticaNeue-114"/>
      </g>
     </g>
    </g>
    <g id="xtick_3">
     <g id="line2d_3">
      <g>
       <use style="fill:#555555;stroke:#555555;stroke-width:0.8;" x="94.399841" xlink:href="#m8325f05b1f" y="268.065982"/>
      </g>
     </g>
     <g id="text_2">
      <!-- May -->
      <g style="fill:#555555;" transform="translate(81.998044 284.348795)scale(0.13 -0.13)">
       <defs>
        <path d="M 8 71.40625 
L 8 0 
L 17 0 
L 17 59.40625 
L 17.203125 59.40625 
L 39.5 0 
L 47.59375 0 
L 69.90625 59.40625 
L 70.09375 59.40625 
L 70.09375 0 
L 79.09375 0 
L 79.09375 71.40625 
L 66.09375 71.40625 
L 43.5 11.40625 
L 21 71.40625 
z
" id="HelveticaNeue-77"/>
        <path d="M 52.203125 0.203125 
Q 50 -1.09375 46.09375 -1.09375 
Q 42.796875 -1.09375 40.84375 0.75 
Q 38.90625 2.59375 38.90625 6.796875 
Q 35.40625 2.59375 30.75 0.75 
Q 26.09375 -1.09375 20.703125 -1.09375 
Q 17.203125 -1.09375 14.046875 -0.296875 
Q 10.90625 0.5 8.59375 2.203125 
Q 6.296875 3.90625 4.9375 6.65625 
Q 3.59375 9.40625 3.59375 13.296875 
Q 3.59375 17.703125 5.09375 20.5 
Q 6.59375 23.296875 9.046875 25.046875 
Q 11.5 26.796875 14.640625 27.6875 
Q 17.796875 28.59375 21.09375 29.203125 
Q 24.59375 29.90625 27.75 30.25 
Q 30.90625 30.59375 33.296875 31.25 
Q 35.703125 31.90625 37.09375 33.15625 
Q 38.5 34.40625 38.5 36.796875 
Q 38.5 39.59375 37.453125 41.296875 
Q 36.40625 43 34.75 43.890625 
Q 33.09375 44.796875 31.046875 45.09375 
Q 29 45.40625 27 45.40625 
Q 21.59375 45.40625 18 43.34375 
Q 14.40625 41.296875 14.09375 35.59375 
L 5.59375 35.59375 
Q 5.796875 40.40625 7.59375 43.703125 
Q 9.40625 47 12.40625 49.046875 
Q 15.40625 51.09375 19.25 52 
Q 23.09375 52.90625 27.5 52.90625 
Q 31 52.90625 34.453125 52.40625 
Q 37.90625 51.90625 40.703125 50.34375 
Q 43.5 48.796875 45.203125 46 
Q 46.90625 43.203125 46.90625 38.703125 
L 46.90625 12.09375 
Q 46.90625 9.09375 47.25 7.6875 
Q 47.59375 6.296875 49.59375 6.296875 
Q 50.703125 6.296875 52.203125 6.796875 
z
M 38.40625 26.703125 
Q 36.796875 25.5 34.1875 24.953125 
Q 31.59375 24.40625 28.75 24.046875 
Q 25.90625 23.703125 23 23.25 
Q 20.09375 22.796875 17.796875 21.796875 
Q 15.5 20.796875 14.046875 18.9375 
Q 12.59375 17.09375 12.59375 13.90625 
Q 12.59375 11.796875 13.4375 10.34375 
Q 14.296875 8.90625 15.640625 8 
Q 17 7.09375 18.796875 6.6875 
Q 20.59375 6.296875 22.59375 6.296875 
Q 26.796875 6.296875 29.796875 7.4375 
Q 32.796875 8.59375 34.6875 10.34375 
Q 36.59375 12.09375 37.5 14.140625 
Q 38.40625 16.203125 38.40625 18 
z
" id="HelveticaNeue-97"/>
        <path d="M 26.703125 -6.90625 
Q 25.203125 -10.703125 23.75 -13.296875 
Q 22.296875 -15.90625 20.546875 -17.546875 
Q 18.796875 -19.203125 16.640625 -19.953125 
Q 14.5 -20.703125 11.703125 -20.703125 
Q 10.203125 -20.703125 8.703125 -20.5 
Q 7.203125 -20.296875 5.796875 -19.796875 
L 5.796875 -12 
Q 6.90625 -12.5 8.34375 -12.84375 
Q 9.796875 -13.203125 10.796875 -13.203125 
Q 13.40625 -13.203125 15.15625 -11.953125 
Q 16.90625 -10.703125 17.796875 -8.40625 
L 21.296875 0.296875 
L 0.796875 51.703125 
L 10.40625 51.703125 
L 25.5 9.40625 
L 25.703125 9.40625 
L 40.203125 51.703125 
L 49.203125 51.703125 
z
" id="HelveticaNeue-121"/>
       </defs>
       <use xlink:href="#HelveticaNeue-77"/>
       <use x="87.099991" xlink:href="#HelveticaNeue-97"/>
       <use x="140.799988" xlink:href="#HelveticaNeue-121"/>
      </g>
     </g>
    </g>
    <g id="xtick_4">
     <g id="line2d_4">
      <g>
       <use style="fill:#555555;stroke:#555555;stroke-width:0.8;" x="128.230134" xlink:href="#m8325f05b1f" y="268.065982"/>
      </g>
     </g>
     <g id="text_3">
      <!-- Jun -->
      <g style="fill:#555555;" transform="translate(117.629041 284.348795)scale(0.13 -0.13)">
       <defs>
        <path d="M 44.09375 17.796875 
L 44.09375 71.40625 
L 34.59375 71.40625 
L 34.59375 19.203125 
Q 34.59375 13.296875 32.140625 9.796875 
Q 29.703125 6.296875 23.203125 6.296875 
Q 19.703125 6.296875 17.453125 7.34375 
Q 15.203125 8.40625 13.953125 10.296875 
Q 12.703125 12.203125 12.203125 14.796875 
Q 11.703125 17.40625 11.703125 20.5 
L 11.703125 23.5 
L 2.203125 23.5 
L 2.203125 19.09375 
Q 2.203125 8.90625 7.59375 3.65625 
Q 13 -1.59375 23 -1.59375 
Q 29 -1.59375 33.046875 0.046875 
Q 37.09375 1.703125 39.546875 4.453125 
Q 42 7.203125 43.046875 10.703125 
Q 44.09375 14.203125 44.09375 17.796875 
z
" id="HelveticaNeue-74"/>
        <path d="M 49.203125 0 
L 49.203125 51.703125 
L 40.703125 51.703125 
L 40.703125 22.5 
Q 40.703125 19 39.75 16.046875 
Q 38.796875 13.09375 36.890625 10.890625 
Q 35 8.703125 32.140625 7.5 
Q 29.296875 6.296875 25.40625 6.296875 
Q 20.5 6.296875 17.703125 9.09375 
Q 14.90625 11.90625 14.90625 16.703125 
L 14.90625 51.703125 
L 6.40625 51.703125 
L 6.40625 17.703125 
Q 6.40625 13.5 7.25 10.046875 
Q 8.09375 6.59375 10.1875 4.09375 
Q 12.296875 1.59375 15.6875 0.25 
Q 19.09375 -1.09375 24.203125 -1.09375 
Q 29.90625 -1.09375 34.09375 1.15625 
Q 38.296875 3.40625 41 8.203125 
L 41.203125 8.203125 
L 41.203125 0 
z
" id="HelveticaNeue-117"/>
        <path d="M 6.40625 51.703125 
L 6.40625 0 
L 14.90625 0 
L 14.90625 29.203125 
Q 14.90625 32.703125 15.84375 35.640625 
Q 16.796875 38.59375 18.6875 40.796875 
Q 20.59375 43 23.4375 44.203125 
Q 26.296875 45.40625 30.203125 45.40625 
Q 35.09375 45.40625 37.890625 42.59375 
Q 40.703125 39.796875 40.703125 35 
L 40.703125 0 
L 49.203125 0 
L 49.203125 34 
Q 49.203125 38.203125 48.34375 41.640625 
Q 47.5 45.09375 45.390625 47.59375 
Q 43.296875 50.09375 39.890625 51.5 
Q 36.5 52.90625 31.40625 52.90625 
Q 19.90625 52.90625 14.59375 43.5 
L 14.40625 43.5 
L 14.40625 51.703125 
z
" id="HelveticaNeue-110"/>
       </defs>
       <use xlink:href="#HelveticaNeue-74"/>
       <use x="51.899994" xlink:href="#HelveticaNeue-117"/>
       <use x="107.499985" xlink:href="#HelveticaNeue-110"/>
      </g>
     </g>
    </g>
    <g id="xtick_5">
     <g id="line2d_5">
      <g>
       <use style="fill:#555555;stroke:#555555;stroke-width:0.8;" x="160.969128" xlink:href="#m8325f05b1f" y="268.065982"/>
      </g>
     </g>
     <g id="text_4">
      <!-- Jul -->
      <g style="fill:#555555;" transform="translate(152.538425 284.348795)scale(0.13 -0.13)">
       <defs>
        <path d="M 6.90625 71.40625 
L 6.90625 0 
L 15.40625 0 
L 15.40625 71.40625 
z
" id="HelveticaNeue-108"/>
       </defs>
       <use xlink:href="#HelveticaNeue-74"/>
       <use x="51.899994" xlink:href="#HelveticaNeue-117"/>
       <use x="107.499985" xlink:href="#HelveticaNeue-108"/>
      </g>
     </g>
    </g>
    <g id="xtick_6">
     <g id="line2d_6">
      <g>
       <use style="fill:#555555;stroke:#555555;stroke-width:0.8;" x="194.799422" xlink:href="#m8325f05b1f" y="268.065982"/>
      </g>
     </g>
     <g id="text_5">
      <!-- Aug -->
      <g style="fill:#555555;" transform="translate(183.242625 284.348795)scale(0.13 -0.13)">
       <defs>
        <path d="M 51 4.40625 
L 51 51.703125 
L 43 51.703125 
L 43 44.296875 
L 42.90625 44.296875 
Q 40.59375 48.59375 36.5 50.75 
Q 32.40625 52.90625 27.5 52.90625 
Q 20.796875 52.90625 16.1875 50.34375 
Q 11.59375 47.796875 8.796875 43.84375 
Q 6 39.90625 4.796875 35.046875 
Q 3.59375 30.203125 3.59375 25.59375 
Q 3.59375 20.296875 5.046875 15.546875 
Q 6.5 10.796875 9.390625 7.25 
Q 12.296875 3.703125 16.59375 1.59375 
Q 20.90625 -0.5 26.703125 -0.5 
Q 31.703125 -0.5 36.140625 1.75 
Q 40.59375 4 42.796875 8.796875 
L 43 8.796875 
L 43 5.40625 
Q 43 1.09375 42.140625 -2.5 
Q 41.296875 -6.09375 39.390625 -8.640625 
Q 37.5 -11.203125 34.59375 -12.640625 
Q 31.703125 -14.09375 27.5 -14.09375 
Q 25.40625 -14.09375 23.09375 -13.640625 
Q 20.796875 -13.203125 18.84375 -12.203125 
Q 16.90625 -11.203125 15.546875 -9.59375 
Q 14.203125 -8 14.09375 -5.703125 
L 5.59375 -5.703125 
Q 5.796875 -9.90625 7.796875 -12.796875 
Q 9.796875 -15.703125 12.84375 -17.5 
Q 15.90625 -19.296875 19.65625 -20.09375 
Q 23.40625 -20.90625 27 -20.90625 
Q 39.40625 -20.90625 45.203125 -14.59375 
Q 51 -8.296875 51 4.40625 
z
M 27.203125 6.90625 
Q 23 6.90625 20.203125 8.65625 
Q 17.40625 10.40625 15.703125 13.25 
Q 14 16.09375 13.296875 19.59375 
Q 12.59375 23.09375 12.59375 26.59375 
Q 12.59375 30.296875 13.4375 33.6875 
Q 14.296875 37.09375 16.140625 39.6875 
Q 18 42.296875 20.890625 43.84375 
Q 23.796875 45.40625 27.90625 45.40625 
Q 31.90625 45.40625 34.703125 43.796875 
Q 37.5 42.203125 39.25 39.546875 
Q 41 36.90625 41.796875 33.59375 
Q 42.59375 30.296875 42.59375 26.90625 
Q 42.59375 23.296875 41.75 19.6875 
Q 40.90625 16.09375 39.09375 13.25 
Q 37.296875 10.40625 34.34375 8.65625 
Q 31.40625 6.90625 27.203125 6.90625 
z
" id="HelveticaNeue-103"/>
       </defs>
       <use xlink:href="#HelveticaNeue-65"/>
       <use x="64.799988" xlink:href="#HelveticaNeue-117"/>
       <use x="120.399979" xlink:href="#HelveticaNeue-103"/>
      </g>
     </g>
    </g>
    <g id="xtick_7">
     <g id="line2d_7">
      <g>
       <use style="fill:#555555;stroke:#555555;stroke-width:0.8;" x="228.629716" xlink:href="#m8325f05b1f" y="268.065982"/>
      </g>
     </g>
     <g id="text_6">
      <!-- Sep -->
      <g style="fill:#555555;" transform="translate(217.072919 284.56817)scale(0.13 -0.13)">
       <defs>
        <path d="M 49.09375 50.5 
L 58.09375 50.5 
Q 57.90625 56.40625 55.84375 60.65625 
Q 53.796875 64.90625 50.25 67.703125 
Q 46.703125 70.5 42 71.796875 
Q 37.296875 73.09375 31.796875 73.09375 
Q 26.90625 73.09375 22.25 71.84375 
Q 17.59375 70.59375 13.9375 68.046875 
Q 10.296875 65.5 8.09375 61.546875 
Q 5.90625 57.59375 5.90625 52.203125 
Q 5.90625 47.296875 7.84375 44.046875 
Q 9.796875 40.796875 13.046875 38.75 
Q 16.296875 36.703125 20.390625 35.453125 
Q 24.5 34.203125 28.75 33.25 
Q 33 32.296875 37.09375 31.390625 
Q 41.203125 30.5 44.453125 29.046875 
Q 47.703125 27.59375 49.640625 25.296875 
Q 51.59375 23 51.59375 19.296875 
Q 51.59375 15.40625 50 12.90625 
Q 48.40625 10.40625 45.796875 8.953125 
Q 43.203125 7.5 39.953125 6.890625 
Q 36.703125 6.296875 33.5 6.296875 
Q 29.5 6.296875 25.703125 7.296875 
Q 21.90625 8.296875 19.046875 10.390625 
Q 16.203125 12.5 14.453125 15.75 
Q 12.703125 19 12.703125 23.5 
L 3.703125 23.5 
Q 3.703125 17 6.046875 12.25 
Q 8.40625 7.5 12.453125 4.453125 
Q 16.5 1.40625 21.84375 -0.09375 
Q 27.203125 -1.59375 33.203125 -1.59375 
Q 38.09375 -1.59375 43.046875 -0.4375 
Q 48 0.703125 52 3.25 
Q 56 5.796875 58.546875 9.84375 
Q 61.09375 13.90625 61.09375 19.59375 
Q 61.09375 24.90625 59.140625 28.40625 
Q 57.203125 31.90625 53.953125 34.203125 
Q 50.703125 36.5 46.59375 37.84375 
Q 42.5 39.203125 38.25 40.203125 
Q 34 41.203125 29.890625 42.046875 
Q 25.796875 42.90625 22.546875 44.203125 
Q 19.296875 45.5 17.34375 47.546875 
Q 15.40625 49.59375 15.40625 52.90625 
Q 15.40625 56.40625 16.75 58.75 
Q 18.09375 61.09375 20.34375 62.5 
Q 22.59375 63.90625 25.5 64.5 
Q 28.40625 65.09375 31.40625 65.09375 
Q 38.796875 65.09375 43.546875 61.640625 
Q 48.296875 58.203125 49.09375 50.5 
z
" id="HelveticaNeue-83"/>
        <path d="M 42.296875 30.796875 
L 12.59375 30.796875 
Q 12.796875 33.796875 13.890625 36.4375 
Q 15 39.09375 16.890625 41.09375 
Q 18.796875 43.09375 21.4375 44.25 
Q 24.09375 45.40625 27.40625 45.40625 
Q 30.59375 45.40625 33.25 44.25 
Q 35.90625 43.09375 37.84375 41.140625 
Q 39.796875 39.203125 40.9375 36.5 
Q 42.09375 33.796875 42.296875 30.796875 
z
M 50.5 16.40625 
L 42.09375 16.40625 
Q 41 11.296875 37.546875 8.796875 
Q 34.09375 6.296875 28.703125 6.296875 
Q 24.5 6.296875 21.390625 7.6875 
Q 18.296875 9.09375 16.296875 11.4375 
Q 14.296875 13.796875 13.390625 16.84375 
Q 12.5 19.90625 12.59375 23.296875 
L 51.296875 23.296875 
Q 51.5 28 50.453125 33.203125 
Q 49.40625 38.40625 46.65625 42.796875 
Q 43.90625 47.203125 39.34375 50.046875 
Q 34.796875 52.90625 27.90625 52.90625 
Q 22.59375 52.90625 18.140625 50.90625 
Q 13.703125 48.90625 10.453125 45.296875 
Q 7.203125 41.703125 5.390625 36.796875 
Q 3.59375 31.90625 3.59375 26 
Q 3.796875 20.09375 5.34375 15.09375 
Q 6.90625 10.09375 10 6.5 
Q 13.09375 2.90625 17.640625 0.90625 
Q 22.203125 -1.09375 28.40625 -1.09375 
Q 37.203125 -1.09375 43 3.296875 
Q 48.796875 7.703125 50.5 16.40625 
z
" id="HelveticaNeue-101"/>
       </defs>
       <use xlink:href="#HelveticaNeue-83"/>
       <use x="64.799988" xlink:href="#HelveticaNeue-101"/>
       <use x="118.499985" xlink:href="#HelveticaNeue-112"/>
      </g>
     </g>
    </g>
    <g id="xtick_8">
     <g id="line2d_8">
      <g>
       <use style="fill:#555555;stroke:#555555;stroke-width:0.8;" x="261.36871" xlink:href="#m8325f05b1f" y="268.065982"/>
      </g>
     </g>
     <g id="text_7">
      <!-- Oct -->
      <g style="fill:#555555;" transform="translate(250.890507 284.348795)scale(0.13 -0.13)">
       <defs>
        <path d="M 13.296875 35.703125 
Q 13.296875 41.09375 14.6875 46.34375 
Q 16.09375 51.59375 19.09375 55.796875 
Q 22.09375 60 26.796875 62.546875 
Q 31.5 65.09375 38 65.09375 
Q 44.5 65.09375 49.203125 62.546875 
Q 53.90625 60 56.90625 55.796875 
Q 59.90625 51.59375 61.296875 46.34375 
Q 62.703125 41.09375 62.703125 35.703125 
Q 62.703125 30.296875 61.296875 25.046875 
Q 59.90625 19.796875 56.90625 15.59375 
Q 53.90625 11.40625 49.203125 8.84375 
Q 44.5 6.296875 38 6.296875 
Q 31.5 6.296875 26.796875 8.84375 
Q 22.09375 11.40625 19.09375 15.59375 
Q 16.09375 19.796875 14.6875 25.046875 
Q 13.296875 30.296875 13.296875 35.703125 
z
M 3.796875 35.703125 
Q 3.796875 28.40625 5.9375 21.65625 
Q 8.09375 14.90625 12.390625 9.703125 
Q 16.703125 4.5 23.09375 1.453125 
Q 29.5 -1.59375 38 -1.59375 
Q 46.5 -1.59375 52.890625 1.453125 
Q 59.296875 4.5 63.59375 9.703125 
Q 67.90625 14.90625 70.046875 21.65625 
Q 72.203125 28.40625 72.203125 35.703125 
Q 72.203125 43 70.046875 49.75 
Q 67.90625 56.5 63.59375 61.703125 
Q 59.296875 66.90625 52.890625 70 
Q 46.5 73.09375 38 73.09375 
Q 29.5 73.09375 23.09375 70 
Q 16.703125 66.90625 12.390625 61.703125 
Q 8.09375 56.5 5.9375 49.75 
Q 3.796875 43 3.796875 35.703125 
z
" id="HelveticaNeue-79"/>
        <path d="M 41.5 35.09375 
L 50.296875 35.09375 
Q 49.796875 39.703125 47.890625 43.046875 
Q 46 46.40625 43.046875 48.59375 
Q 40.09375 50.796875 36.25 51.84375 
Q 32.40625 52.90625 28 52.90625 
Q 21.90625 52.90625 17.296875 50.75 
Q 12.703125 48.59375 9.640625 44.84375 
Q 6.59375 41.09375 5.09375 36.046875 
Q 3.59375 31 3.59375 25.203125 
Q 3.59375 19.40625 5.140625 14.546875 
Q 6.703125 9.703125 9.75 6.203125 
Q 12.796875 2.703125 17.34375 0.796875 
Q 21.90625 -1.09375 27.796875 -1.09375 
Q 37.703125 -1.09375 43.453125 4.09375 
Q 49.203125 9.296875 50.59375 18.90625 
L 41.90625 18.90625 
Q 41.09375 12.90625 37.546875 9.59375 
Q 34 6.296875 27.703125 6.296875 
Q 23.703125 6.296875 20.796875 7.890625 
Q 17.90625 9.5 16.09375 12.140625 
Q 14.296875 14.796875 13.4375 18.1875 
Q 12.59375 21.59375 12.59375 25.203125 
Q 12.59375 29.09375 13.390625 32.75 
Q 14.203125 36.40625 16.046875 39.203125 
Q 17.90625 42 21 43.703125 
Q 24.09375 45.40625 28.703125 45.40625 
Q 34.09375 45.40625 37.296875 42.703125 
Q 40.5 40 41.5 35.09375 
z
" id="HelveticaNeue-99"/>
        <path d="M 18.203125 51.703125 
L 18.203125 67.203125 
L 9.703125 67.203125 
L 9.703125 51.703125 
L 0.90625 51.703125 
L 0.90625 44.203125 
L 9.703125 44.203125 
L 9.703125 11.296875 
Q 9.703125 7.703125 10.390625 5.5 
Q 11.09375 3.296875 12.546875 2.09375 
Q 14 0.90625 16.34375 0.453125 
Q 18.703125 0 22 0 
L 28.5 0 
L 28.5 7.5 
L 24.59375 7.5 
Q 22.59375 7.5 21.34375 7.640625 
Q 20.09375 7.796875 19.390625 8.296875 
Q 18.703125 8.796875 18.453125 9.6875 
Q 18.203125 10.59375 18.203125 12.09375 
L 18.203125 44.203125 
L 28.5 44.203125 
L 28.5 51.703125 
z
" id="HelveticaNeue-116"/>
       </defs>
       <use xlink:href="#HelveticaNeue-79"/>
       <use x="75.999985" xlink:href="#HelveticaNeue-99"/>
       <use x="129.699982" xlink:href="#HelveticaNeue-116"/>
      </g>
     </g>
    </g>
    <g id="xtick_9">
     <g id="line2d_9">
      <g>
       <use style="fill:#555555;stroke:#555555;stroke-width:0.8;" x="295.199004" xlink:href="#m8325f05b1f" y="268.065982"/>
      </g>
     </g>
     <g id="text_8">
      <!-- Nov -->
      <g style="fill:#555555;" transform="translate(283.524394 284.348795)scale(0.13 -0.13)">
       <defs>
        <path d="M 7.703125 71.40625 
L 7.703125 0 
L 16.703125 0 
L 16.703125 57.296875 
L 16.90625 57.296875 
L 54.203125 0 
L 64.59375 0 
L 64.59375 71.40625 
L 55.59375 71.40625 
L 55.59375 13.5 
L 55.40625 13.5 
L 17.796875 71.40625 
z
" id="HelveticaNeue-78"/>
        <path d="M 12.59375 25.796875 
Q 12.59375 30.5 13.84375 34.140625 
Q 15.09375 37.796875 17.296875 40.296875 
Q 19.5 42.796875 22.453125 44.09375 
Q 25.40625 45.40625 28.703125 45.40625 
Q 32 45.40625 34.953125 44.09375 
Q 37.90625 42.796875 40.09375 40.296875 
Q 42.296875 37.796875 43.546875 34.140625 
Q 44.796875 30.5 44.796875 25.796875 
Q 44.796875 21.09375 43.546875 17.4375 
Q 42.296875 13.796875 40.09375 11.34375 
Q 37.90625 8.90625 34.953125 7.59375 
Q 32 6.296875 28.703125 6.296875 
Q 25.40625 6.296875 22.453125 7.59375 
Q 19.5 8.90625 17.296875 11.34375 
Q 15.09375 13.796875 13.84375 17.4375 
Q 12.59375 21.09375 12.59375 25.796875 
z
M 3.59375 25.796875 
Q 3.59375 20.09375 5.1875 15.1875 
Q 6.796875 10.296875 10 6.640625 
Q 13.203125 3 17.890625 0.953125 
Q 22.59375 -1.09375 28.703125 -1.09375 
Q 34.90625 -1.09375 39.546875 0.953125 
Q 44.203125 3 47.390625 6.640625 
Q 50.59375 10.296875 52.1875 15.1875 
Q 53.796875 20.09375 53.796875 25.796875 
Q 53.796875 31.5 52.1875 36.453125 
Q 50.59375 41.40625 47.390625 45.046875 
Q 44.203125 48.703125 39.546875 50.796875 
Q 34.90625 52.90625 28.703125 52.90625 
Q 22.59375 52.90625 17.890625 50.796875 
Q 13.203125 48.703125 10 45.046875 
Q 6.796875 41.40625 5.1875 36.453125 
Q 3.59375 31.5 3.59375 25.796875 
z
" id="HelveticaNeue-111"/>
        <path d="M 29.703125 0 
L 48.59375 51.703125 
L 39.703125 51.703125 
L 25.59375 8.59375 
L 25.40625 8.59375 
L 10.90625 51.703125 
L 1.40625 51.703125 
L 20.59375 0 
z
" id="HelveticaNeue-118"/>
       </defs>
       <use xlink:href="#HelveticaNeue-78"/>
       <use x="72.199982" xlink:href="#HelveticaNeue-111"/>
       <use x="129.599976" xlink:href="#HelveticaNeue-118"/>
      </g>
     </g>
    </g>
    <g id="xtick_10">
     <g id="line2d_10">
      <g>
       <use style="fill:#555555;stroke:#555555;stroke-width:0.8;" x="327.937997" xlink:href="#m8325f05b1f" y="268.065982"/>
      </g>
     </g>
     <g id="text_9">
      <!-- Dec -->
      <g style="fill:#555555;" transform="translate(316.380185 284.348795)scale(0.13 -0.13)">
       <defs>
        <path d="M 17.296875 8 
L 17.296875 63.40625 
L 33.296875 63.40625 
Q 39.90625 63.40625 44.40625 61.546875 
Q 48.90625 59.703125 51.75 56.140625 
Q 54.59375 52.59375 55.84375 47.546875 
Q 57.09375 42.5 57.09375 36.09375 
Q 57.09375 29.5 55.75 24.84375 
Q 54.40625 20.203125 52.296875 17.09375 
Q 50.203125 14 47.546875 12.203125 
Q 44.90625 10.40625 42.203125 9.453125 
Q 39.5 8.5 37.09375 8.25 
Q 34.703125 8 33.09375 8 
z
M 7.796875 71.40625 
L 7.796875 0 
L 32.296875 0 
Q 41.203125 0 47.703125 2.5 
Q 54.203125 5 58.390625 9.75 
Q 62.59375 14.5 64.59375 21.453125 
Q 66.59375 28.40625 66.59375 37.40625 
Q 66.59375 54.59375 57.6875 63 
Q 48.796875 71.40625 32.296875 71.40625 
z
" id="HelveticaNeue-68"/>
       </defs>
       <use xlink:href="#HelveticaNeue-68"/>
       <use x="70.399994" xlink:href="#HelveticaNeue-101"/>
       <use x="124.099991" xlink:href="#HelveticaNeue-99"/>
      </g>
     </g>
    </g>
    <g id="xtick_11">
     <g id="line2d_11">
      <g>
       <use style="fill:#555555;stroke:#555555;stroke-width:0.8;" x="361.768291" xlink:href="#m8325f05b1f" y="268.065982"/>
      </g>
     </g>
     <g id="text_10">
      <!-- Jan -->
      <g style="fill:#555555;" transform="translate(351.290088 284.348795)scale(0.13 -0.13)">
       <use xlink:href="#HelveticaNeue-74"/>
       <use x="51.899994" xlink:href="#HelveticaNeue-97"/>
       <use x="105.599991" xlink:href="#HelveticaNeue-110"/>
      </g>
      <!-- 2021 -->
      <g style="fill:#555555;" transform="translate(347.313916 298.049576)scale(0.13 -0.13)">
       <defs>
        <path d="M 4.40625 45.796875 
L 12.90625 45.796875 
Q 12.796875 49 13.546875 52.140625 
Q 14.296875 55.296875 16 57.796875 
Q 17.703125 60.296875 20.34375 61.84375 
Q 23 63.40625 26.703125 63.40625 
Q 29.5 63.40625 32 62.5 
Q 34.5 61.59375 36.34375 59.890625 
Q 38.203125 58.203125 39.296875 55.84375 
Q 40.40625 53.5 40.40625 50.59375 
Q 40.40625 46.90625 39.25 44.09375 
Q 38.09375 41.296875 35.84375 38.890625 
Q 33.59375 36.5 30.1875 34.140625 
Q 26.796875 31.796875 22.296875 29 
Q 18.59375 26.796875 15.1875 24.296875 
Q 11.796875 21.796875 9.09375 18.5 
Q 6.40625 15.203125 4.65625 10.75 
Q 2.90625 6.296875 2.40625 0 
L 48.703125 0 
L 48.703125 7.5 
L 12.296875 7.5 
Q 12.90625 10.796875 14.84375 13.34375 
Q 16.796875 15.90625 19.546875 18.09375 
Q 22.296875 20.296875 25.59375 22.25 
Q 28.90625 24.203125 32.203125 26.203125 
Q 35.5 28.296875 38.59375 30.59375 
Q 41.703125 32.90625 44.09375 35.75 
Q 46.5 38.59375 47.953125 42.1875 
Q 49.40625 45.796875 49.40625 50.5 
Q 49.40625 55.5 47.65625 59.296875 
Q 45.90625 63.09375 42.90625 65.640625 
Q 39.90625 68.203125 35.84375 69.546875 
Q 31.796875 70.90625 27.203125 70.90625 
Q 21.59375 70.90625 17.1875 69 
Q 12.796875 67.09375 9.84375 63.75 
Q 6.90625 60.40625 5.5 55.796875 
Q 4.09375 51.203125 4.40625 45.796875 
z
" id="HelveticaNeue-50"/>
        <path d="M 13.203125 34.90625 
Q 13.203125 37.5 13.25 40.640625 
Q 13.296875 43.796875 13.75 46.9375 
Q 14.203125 50.09375 15.046875 53.09375 
Q 15.90625 56.09375 17.546875 58.34375 
Q 19.203125 60.59375 21.703125 62 
Q 24.203125 63.40625 27.796875 63.40625 
Q 31.40625 63.40625 33.90625 62 
Q 36.40625 60.59375 38.046875 58.34375 
Q 39.703125 56.09375 40.546875 53.09375 
Q 41.40625 50.09375 41.84375 46.9375 
Q 42.296875 43.796875 42.34375 40.640625 
Q 42.40625 37.5 42.40625 34.90625 
Q 42.40625 30.90625 42.15625 25.953125 
Q 41.90625 21 40.546875 16.640625 
Q 39.203125 12.296875 36.203125 9.296875 
Q 33.203125 6.296875 27.796875 6.296875 
Q 22.40625 6.296875 19.40625 9.296875 
Q 16.40625 12.296875 15.046875 16.640625 
Q 13.703125 21 13.453125 25.953125 
Q 13.203125 30.90625 13.203125 34.90625 
z
M 4.203125 34.796875 
Q 4.203125 30.90625 4.390625 26.703125 
Q 4.59375 22.5 5.390625 18.5 
Q 6.203125 14.5 7.703125 10.953125 
Q 9.203125 7.40625 11.796875 4.703125 
Q 14.40625 2 18.34375 0.453125 
Q 22.296875 -1.09375 27.796875 -1.09375 
Q 33.40625 -1.09375 37.296875 0.453125 
Q 41.203125 2 43.796875 4.703125 
Q 46.40625 7.40625 47.90625 10.953125 
Q 49.40625 14.5 50.203125 18.5 
Q 51 22.5 51.203125 26.703125 
Q 51.40625 30.90625 51.40625 34.796875 
Q 51.40625 38.703125 51.203125 42.890625 
Q 51 47.09375 50.203125 51.09375 
Q 49.40625 55.09375 47.90625 58.6875 
Q 46.40625 62.296875 43.796875 65 
Q 41.203125 67.703125 37.25 69.296875 
Q 33.296875 70.90625 27.796875 70.90625 
Q 22.296875 70.90625 18.34375 69.296875 
Q 14.40625 67.703125 11.796875 65 
Q 9.203125 62.296875 7.703125 58.6875 
Q 6.203125 55.09375 5.390625 51.09375 
Q 4.59375 47.09375 4.390625 42.890625 
Q 4.203125 38.703125 4.203125 34.796875 
z
" id="HelveticaNeue-48"/>
        <path d="M 35.59375 0 
L 35.59375 70.90625 
L 29.09375 70.90625 
Q 28.40625 66.90625 26.5 64.296875 
Q 24.59375 61.703125 21.84375 60.203125 
Q 19.09375 58.703125 15.6875 58.140625 
Q 12.296875 57.59375 8.703125 57.59375 
L 8.703125 50.796875 
L 27.09375 50.796875 
L 27.09375 0 
z
" id="HelveticaNeue-49"/>
       </defs>
       <use xlink:href="#HelveticaNeue-50"/>
       <use x="55.599991" xlink:href="#HelveticaNeue-48"/>
       <use x="111.199982" xlink:href="#HelveticaNeue-50"/>
       <use x="166.799973" xlink:href="#HelveticaNeue-49"/>
      </g>
     </g>
    </g>
    <g id="xtick_12">
     <g id="line2d_12">
      <g>
       <use style="fill:#555555;stroke:#555555;stroke-width:0.8;" x="395.598585" xlink:href="#m8325f05b1f" y="268.065982"/>
      </g>
     </g>
     <g id="text_11">
      <!-- Feb -->
      <g style="fill:#555555;" transform="translate(384.522179 284.348795)scale(0.13 -0.13)">
       <defs>
        <path d="M 7.796875 71.40625 
L 7.796875 0 
L 17.296875 0 
L 17.296875 32.703125 
L 50.09375 32.703125 
L 50.09375 40.703125 
L 17.296875 40.703125 
L 17.296875 63.40625 
L 54.703125 63.40625 
L 54.703125 71.40625 
z
" id="HelveticaNeue-70"/>
        <path d="M 6.703125 71.40625 
L 6.703125 0 
L 15.203125 0 
L 15.203125 6.90625 
L 15.40625 6.90625 
Q 16.796875 4.59375 18.84375 3.046875 
Q 20.90625 1.5 23.203125 0.59375 
Q 25.5 -0.296875 27.84375 -0.6875 
Q 30.203125 -1.09375 32.09375 -1.09375 
Q 38 -1.09375 42.453125 1 
Q 46.90625 3.09375 49.84375 6.75 
Q 52.796875 10.40625 54.25 15.296875 
Q 55.703125 20.203125 55.703125 25.703125 
Q 55.703125 31.203125 54.203125 36.09375 
Q 52.703125 41 49.75 44.75 
Q 46.796875 48.5 42.34375 50.703125 
Q 37.90625 52.90625 31.90625 52.90625 
Q 26.5 52.90625 22 50.953125 
Q 17.5 49 15.40625 44.703125 
L 15.203125 44.703125 
L 15.203125 71.40625 
z
M 46.703125 26.296875 
Q 46.703125 22.5 45.890625 18.890625 
Q 45.09375 15.296875 43.296875 12.5 
Q 41.5 9.703125 38.546875 8 
Q 35.59375 6.296875 31.203125 6.296875 
Q 26.796875 6.296875 23.6875 7.9375 
Q 20.59375 9.59375 18.640625 12.296875 
Q 16.703125 15 15.796875 18.546875 
Q 14.90625 22.09375 14.90625 25.90625 
Q 14.90625 29.5 15.75 33 
Q 16.59375 36.5 18.5 39.25 
Q 20.40625 42 23.40625 43.703125 
Q 26.40625 45.40625 30.703125 45.40625 
Q 34.796875 45.40625 37.84375 43.796875 
Q 40.90625 42.203125 42.84375 39.5 
Q 44.796875 36.796875 45.75 33.34375 
Q 46.703125 29.90625 46.703125 26.296875 
z
" id="HelveticaNeue-98"/>
       </defs>
       <use xlink:href="#HelveticaNeue-70"/>
       <use x="57.399994" xlink:href="#HelveticaNeue-101"/>
       <use x="111.099991" xlink:href="#HelveticaNeue-98"/>
      </g>
     </g>
    </g>
    <g id="xtick_13">
     <g id="line2d_13">
      <g>
       <use style="fill:#555555;stroke:#555555;stroke-width:0.8;" x="426.154979" xlink:href="#m8325f05b1f" y="268.065982"/>
      </g>
     </g>
     <g id="text_12">
      <!-- Mar -->
      <g style="fill:#555555;" transform="translate(414.838886 284.348795)scale(0.13 -0.13)">
       <use xlink:href="#HelveticaNeue-77"/>
       <use x="87.099991" xlink:href="#HelveticaNeue-97"/>
       <use x="140.799988" xlink:href="#HelveticaNeue-114"/>
      </g>
     </g>
    </g>
    <g id="xtick_14">
     <g id="line2d_14">
      <g>
       <use style="fill:#555555;stroke:#555555;stroke-width:0.8;" x="430.520179" xlink:href="#m8325f05b1f" y="268.065982"/>
      </g>
     </g>
    </g>
    <g id="xtick_15">
     <g id="line2d_15">
      <defs>
       <path d="M 0 0 
L 0 2 
" id="mcc77f24f29" style="stroke:#555555;stroke-width:0.6;"/>
      </defs>
      <g>
       <use style="fill:#555555;stroke:#555555;stroke-width:0.6;" x="44.20005" xlink:href="#mcc77f24f29" y="268.065982"/>
      </g>
     </g>
    </g>
    <g id="xtick_16">
     <g id="line2d_16">
      <g>
       <use style="fill:#555555;stroke:#555555;stroke-width:0.6;" x="51.839148" xlink:href="#mcc77f24f29" y="268.065982"/>
      </g>
     </g>
    </g>
    <g id="xtick_17">
     <g id="line2d_17">
      <g>
       <use style="fill:#555555;stroke:#555555;stroke-width:0.6;" x="59.478247" xlink:href="#mcc77f24f29" y="268.065982"/>
      </g>
     </g>
    </g>
    <g id="xtick_18">
     <g id="line2d_18">
      <g>
       <use style="fill:#555555;stroke:#555555;stroke-width:0.6;" x="67.117346" xlink:href="#mcc77f24f29" y="268.065982"/>
      </g>
     </g>
    </g>
    <g id="xtick_19">
     <g id="line2d_19">
      <g>
       <use style="fill:#555555;stroke:#555555;stroke-width:0.6;" x="74.756444" xlink:href="#mcc77f24f29" y="268.065982"/>
      </g>
     </g>
    </g>
    <g id="xtick_20">
     <g id="line2d_20">
      <g>
       <use style="fill:#555555;stroke:#555555;stroke-width:0.6;" x="82.395543" xlink:href="#mcc77f24f29" y="268.065982"/>
      </g>
     </g>
    </g>
    <g id="xtick_21">
     <g id="line2d_21">
      <g>
       <use style="fill:#555555;stroke:#555555;stroke-width:0.6;" x="90.034641" xlink:href="#mcc77f24f29" y="268.065982"/>
      </g>
     </g>
    </g>
    <g id="xtick_22">
     <g id="line2d_22">
      <g>
       <use style="fill:#555555;stroke:#555555;stroke-width:0.6;" x="97.67374" xlink:href="#mcc77f24f29" y="268.065982"/>
      </g>
     </g>
    </g>
    <g id="xtick_23">
     <g id="line2d_23">
      <g>
       <use style="fill:#555555;stroke:#555555;stroke-width:0.6;" x="105.312839" xlink:href="#mcc77f24f29" y="268.065982"/>
      </g>
     </g>
    </g>
    <g id="xtick_24">
     <g id="line2d_24">
      <g>
       <use style="fill:#555555;stroke:#555555;stroke-width:0.6;" x="112.951937" xlink:href="#mcc77f24f29" y="268.065982"/>
      </g>
     </g>
    </g>
    <g id="xtick_25">
     <g id="line2d_25">
      <g>
       <use style="fill:#555555;stroke:#555555;stroke-width:0.6;" x="120.591036" xlink:href="#mcc77f24f29" y="268.065982"/>
      </g>
     </g>
    </g>
    <g id="xtick_26">
     <g id="line2d_26">
      <g>
       <use style="fill:#555555;stroke:#555555;stroke-width:0.6;" x="135.869233" xlink:href="#mcc77f24f29" y="268.065982"/>
      </g>
     </g>
    </g>
    <g id="xtick_27">
     <g id="line2d_27">
      <g>
       <use style="fill:#555555;stroke:#555555;stroke-width:0.6;" x="143.508331" xlink:href="#mcc77f24f29" y="268.065982"/>
      </g>
     </g>
    </g>
    <g id="xtick_28">
     <g id="line2d_28">
      <g>
       <use style="fill:#555555;stroke:#555555;stroke-width:0.6;" x="151.14743" xlink:href="#mcc77f24f29" y="268.065982"/>
      </g>
     </g>
    </g>
    <g id="xtick_29">
     <g id="line2d_29">
      <g>
       <use style="fill:#555555;stroke:#555555;stroke-width:0.6;" x="158.786529" xlink:href="#mcc77f24f29" y="268.065982"/>
      </g>
     </g>
    </g>
    <g id="xtick_30">
     <g id="line2d_30">
      <g>
       <use style="fill:#555555;stroke:#555555;stroke-width:0.6;" x="166.425627" xlink:href="#mcc77f24f29" y="268.065982"/>
      </g>
     </g>
    </g>
    <g id="xtick_31">
     <g id="line2d_31">
      <g>
       <use style="fill:#555555;stroke:#555555;stroke-width:0.6;" x="174.064726" xlink:href="#mcc77f24f29" y="268.065982"/>
      </g>
     </g>
    </g>
    <g id="xtick_32">
     <g id="line2d_32">
      <g>
       <use style="fill:#555555;stroke:#555555;stroke-width:0.6;" x="181.703824" xlink:href="#mcc77f24f29" y="268.065982"/>
      </g>
     </g>
    </g>
    <g id="xtick_33">
     <g id="line2d_33">
      <g>
       <use style="fill:#555555;stroke:#555555;stroke-width:0.6;" x="189.342923" xlink:href="#mcc77f24f29" y="268.065982"/>
      </g>
     </g>
    </g>
    <g id="xtick_34">
     <g id="line2d_34">
      <g>
       <use style="fill:#555555;stroke:#555555;stroke-width:0.6;" x="196.982022" xlink:href="#mcc77f24f29" y="268.065982"/>
      </g>
     </g>
    </g>
    <g id="xtick_35">
     <g id="line2d_35">
      <g>
       <use style="fill:#555555;stroke:#555555;stroke-width:0.6;" x="204.62112" xlink:href="#mcc77f24f29" y="268.065982"/>
      </g>
     </g>
    </g>
    <g id="xtick_36">
     <g id="line2d_36">
      <g>
       <use style="fill:#555555;stroke:#555555;stroke-width:0.6;" x="212.260219" xlink:href="#mcc77f24f29" y="268.065982"/>
      </g>
     </g>
    </g>
    <g id="xtick_37">
     <g id="line2d_37">
      <g>
       <use style="fill:#555555;stroke:#555555;stroke-width:0.6;" x="219.899317" xlink:href="#mcc77f24f29" y="268.065982"/>
      </g>
     </g>
    </g>
    <g id="xtick_38">
     <g id="line2d_38">
      <g>
       <use style="fill:#555555;stroke:#555555;stroke-width:0.6;" x="227.538416" xlink:href="#mcc77f24f29" y="268.065982"/>
      </g>
     </g>
    </g>
    <g id="xtick_39">
     <g id="line2d_39">
      <g>
       <use style="fill:#555555;stroke:#555555;stroke-width:0.6;" x="235.177515" xlink:href="#mcc77f24f29" y="268.065982"/>
      </g>
     </g>
    </g>
    <g id="xtick_40">
     <g id="line2d_40">
      <g>
       <use style="fill:#555555;stroke:#555555;stroke-width:0.6;" x="242.816613" xlink:href="#mcc77f24f29" y="268.065982"/>
      </g>
     </g>
    </g>
    <g id="xtick_41">
     <g id="line2d_41">
      <g>
       <use style="fill:#555555;stroke:#555555;stroke-width:0.6;" x="250.455712" xlink:href="#mcc77f24f29" y="268.065982"/>
      </g>
     </g>
    </g>
    <g id="xtick_42">
     <g id="line2d_42">
      <g>
       <use style="fill:#555555;stroke:#555555;stroke-width:0.6;" x="258.09481" xlink:href="#mcc77f24f29" y="268.065982"/>
      </g>
     </g>
    </g>
    <g id="xtick_43">
     <g id="line2d_43">
      <g>
       <use style="fill:#555555;stroke:#555555;stroke-width:0.6;" x="265.733909" xlink:href="#mcc77f24f29" y="268.065982"/>
      </g>
     </g>
    </g>
    <g id="xtick_44">
     <g id="line2d_44">
      <g>
       <use style="fill:#555555;stroke:#555555;stroke-width:0.6;" x="273.373008" xlink:href="#mcc77f24f29" y="268.065982"/>
      </g>
     </g>
    </g>
    <g id="xtick_45">
     <g id="line2d_45">
      <g>
       <use style="fill:#555555;stroke:#555555;stroke-width:0.6;" x="281.012106" xlink:href="#mcc77f24f29" y="268.065982"/>
      </g>
     </g>
    </g>
    <g id="xtick_46">
     <g id="line2d_46">
      <g>
       <use style="fill:#555555;stroke:#555555;stroke-width:0.6;" x="288.651205" xlink:href="#mcc77f24f29" y="268.065982"/>
      </g>
     </g>
    </g>
    <g id="xtick_47">
     <g id="line2d_47">
      <g>
       <use style="fill:#555555;stroke:#555555;stroke-width:0.6;" x="296.290303" xlink:href="#mcc77f24f29" y="268.065982"/>
      </g>
     </g>
    </g>
    <g id="xtick_48">
     <g id="line2d_48">
      <g>
       <use style="fill:#555555;stroke:#555555;stroke-width:0.6;" x="303.929402" xlink:href="#mcc77f24f29" y="268.065982"/>
      </g>
     </g>
    </g>
    <g id="xtick_49">
     <g id="line2d_49">
      <g>
       <use style="fill:#555555;stroke:#555555;stroke-width:0.6;" x="311.568501" xlink:href="#mcc77f24f29" y="268.065982"/>
      </g>
     </g>
    </g>
    <g id="xtick_50">
     <g id="line2d_50">
      <g>
       <use style="fill:#555555;stroke:#555555;stroke-width:0.6;" x="319.207599" xlink:href="#mcc77f24f29" y="268.065982"/>
      </g>
     </g>
    </g>
    <g id="xtick_51">
     <g id="line2d_51">
      <g>
       <use style="fill:#555555;stroke:#555555;stroke-width:0.6;" x="326.846698" xlink:href="#mcc77f24f29" y="268.065982"/>
      </g>
     </g>
    </g>
    <g id="xtick_52">
     <g id="line2d_52">
      <g>
       <use style="fill:#555555;stroke:#555555;stroke-width:0.6;" x="334.485796" xlink:href="#mcc77f24f29" y="268.065982"/>
      </g>
     </g>
    </g>
    <g id="xtick_53">
     <g id="line2d_53">
      <g>
       <use style="fill:#555555;stroke:#555555;stroke-width:0.6;" x="342.124895" xlink:href="#mcc77f24f29" y="268.065982"/>
      </g>
     </g>
    </g>
    <g id="xtick_54">
     <g id="line2d_54">
      <g>
       <use style="fill:#555555;stroke:#555555;stroke-width:0.6;" x="349.763993" xlink:href="#mcc77f24f29" y="268.065982"/>
      </g>
     </g>
    </g>
    <g id="xtick_55">
     <g id="line2d_55">
      <g>
       <use style="fill:#555555;stroke:#555555;stroke-width:0.6;" x="357.403092" xlink:href="#mcc77f24f29" y="268.065982"/>
      </g>
     </g>
    </g>
    <g id="xtick_56">
     <g id="line2d_56">
      <g>
       <use style="fill:#555555;stroke:#555555;stroke-width:0.6;" x="365.042191" xlink:href="#mcc77f24f29" y="268.065982"/>
      </g>
     </g>
    </g>
    <g id="xtick_57">
     <g id="line2d_57">
      <g>
       <use style="fill:#555555;stroke:#555555;stroke-width:0.6;" x="372.681289" xlink:href="#mcc77f24f29" y="268.065982"/>
      </g>
     </g>
    </g>
    <g id="xtick_58">
     <g id="line2d_58">
      <g>
       <use style="fill:#555555;stroke:#555555;stroke-width:0.6;" x="380.320388" xlink:href="#mcc77f24f29" y="268.065982"/>
      </g>
     </g>
    </g>
    <g id="xtick_59">
     <g id="line2d_59">
      <g>
       <use style="fill:#555555;stroke:#555555;stroke-width:0.6;" x="387.959486" xlink:href="#mcc77f24f29" y="268.065982"/>
      </g>
     </g>
    </g>
    <g id="xtick_60">
     <g id="line2d_60">
      <g>
       <use style="fill:#555555;stroke:#555555;stroke-width:0.6;" x="403.237684" xlink:href="#mcc77f24f29" y="268.065982"/>
      </g>
     </g>
    </g>
    <g id="xtick_61">
     <g id="line2d_61">
      <g>
       <use style="fill:#555555;stroke:#555555;stroke-width:0.6;" x="410.876782" xlink:href="#mcc77f24f29" y="268.065982"/>
      </g>
     </g>
    </g>
    <g id="xtick_62">
     <g id="line2d_62">
      <g>
       <use style="fill:#555555;stroke:#555555;stroke-width:0.6;" x="418.515881" xlink:href="#mcc77f24f29" y="268.065982"/>
      </g>
     </g>
    </g>
    <g id="text_13">
     <!-- date -->
     <g style="fill:#555555;" transform="translate(223.931261 313.893795)scale(0.13 -0.13)">
      <defs>
       <path d="M 12.59375 25.40625 
Q 12.59375 29.203125 13.390625 32.796875 
Q 14.203125 36.40625 16 39.203125 
Q 17.796875 42 20.796875 43.703125 
Q 23.796875 45.40625 28.09375 45.40625 
Q 32.5 45.40625 35.59375 43.75 
Q 38.703125 42.09375 40.640625 39.390625 
Q 42.59375 36.703125 43.5 33.140625 
Q 44.40625 29.59375 44.40625 25.796875 
Q 44.40625 22.203125 43.546875 18.703125 
Q 42.703125 15.203125 40.796875 12.453125 
Q 38.90625 9.703125 35.90625 8 
Q 32.90625 6.296875 28.59375 6.296875 
Q 24.5 6.296875 21.453125 7.890625 
Q 18.40625 9.5 16.453125 12.203125 
Q 14.5 14.90625 13.546875 18.34375 
Q 12.59375 21.796875 12.59375 25.40625 
z
M 52.59375 0 
L 52.59375 71.40625 
L 44.09375 71.40625 
L 44.09375 44.796875 
L 43.90625 44.796875 
Q 42.5 47.09375 40.453125 48.640625 
Q 38.40625 50.203125 36.09375 51.140625 
Q 33.796875 52.09375 31.5 52.5 
Q 29.203125 52.90625 27.203125 52.90625 
Q 21.296875 52.90625 16.84375 50.75 
Q 12.40625 48.59375 9.453125 44.9375 
Q 6.5 41.296875 5.046875 36.390625 
Q 3.59375 31.5 3.59375 26 
Q 3.59375 20.5 5.09375 15.59375 
Q 6.59375 10.703125 9.546875 7 
Q 12.5 3.296875 16.953125 1.09375 
Q 21.40625 -1.09375 27.40625 -1.09375 
Q 32.796875 -1.09375 37.296875 0.796875 
Q 41.796875 2.703125 43.90625 7 
L 44.09375 7 
L 44.09375 0 
z
" id="HelveticaNeue-100"/>
      </defs>
      <use xlink:href="#HelveticaNeue-100"/>
      <use x="59.299988" xlink:href="#HelveticaNeue-97"/>
      <use x="112.999985" xlink:href="#HelveticaNeue-116"/>
      <use x="144.499969" xlink:href="#HelveticaNeue-101"/>
     </g>
    </g>
   </g>
   <g id="matplotlib.axis_2">
    <g id="ytick_1">
     <g id="line2d_63">
      <defs>
       <path d="M 0 0 
L -3.5 0 
" id="m705557c0f0" style="stroke:#555555;stroke-width:0.8;"/>
      </defs>
      <g>
       <use style="fill:#555555;stroke:#555555;stroke-width:0.8;" x="43.10875" xlink:href="#m705557c0f0" y="257.163125"/>
      </g>
     </g>
     <g id="text_14">
      <!-- 0 -->
      <g style="fill:#555555;" transform="translate(28.881563 261.804531)scale(0.13 -0.13)">
       <use xlink:href="#HelveticaNeue-48"/>
      </g>
     </g>
    </g>
    <g id="ytick_2">
     <g id="line2d_64">
      <g>
       <use style="fill:#555555;stroke:#555555;stroke-width:0.8;" x="43.10875" xlink:href="#m705557c0f0" y="216.128661"/>
      </g>
     </g>
     <g id="text_15">
      <!-- 1000 -->
      <g style="fill:#555555;" transform="translate(7.2 220.770067)scale(0.13 -0.13)">
       <use xlink:href="#HelveticaNeue-49"/>
       <use x="55.599991" xlink:href="#HelveticaNeue-48"/>
       <use x="111.199982" xlink:href="#HelveticaNeue-48"/>
       <use x="166.799973" xlink:href="#HelveticaNeue-48"/>
      </g>
     </g>
    </g>
    <g id="ytick_3">
     <g id="line2d_65">
      <g>
       <use style="fill:#555555;stroke:#555555;stroke-width:0.8;" x="43.10875" xlink:href="#m705557c0f0" y="175.094197"/>
      </g>
     </g>
     <g id="text_16">
      <!-- 2000 -->
      <g style="fill:#555555;" transform="translate(7.2 179.735603)scale(0.13 -0.13)">
       <use xlink:href="#HelveticaNeue-50"/>
       <use x="55.599991" xlink:href="#HelveticaNeue-48"/>
       <use x="111.199982" xlink:href="#HelveticaNeue-48"/>
       <use x="166.799973" xlink:href="#HelveticaNeue-48"/>
      </g>
     </g>
    </g>
    <g id="ytick_4">
     <g id="line2d_66">
      <g>
       <use style="fill:#555555;stroke:#555555;stroke-width:0.8;" x="43.10875" xlink:href="#m705557c0f0" y="134.059732"/>
      </g>
     </g>
     <g id="text_17">
      <!-- 3000 -->
      <g style="fill:#555555;" transform="translate(7.2 138.701139)scale(0.13 -0.13)">
       <defs>
        <path d="M 21.796875 40.5 
L 21.796875 33.296875 
Q 24.203125 33.59375 26.90625 33.59375 
Q 30.09375 33.59375 32.84375 32.75 
Q 35.59375 31.90625 37.59375 30.15625 
Q 39.59375 28.40625 40.796875 25.84375 
Q 42 23.296875 42 20 
Q 42 16.796875 40.75 14.25 
Q 39.5 11.703125 37.390625 9.953125 
Q 35.296875 8.203125 32.5 7.25 
Q 29.703125 6.296875 26.59375 6.296875 
Q 19.296875 6.296875 15.5 10.640625 
Q 11.703125 15 11.5 21.90625 
L 3 21.90625 
Q 2.90625 16.40625 4.546875 12.09375 
Q 6.203125 7.796875 9.296875 4.84375 
Q 12.40625 1.90625 16.796875 0.40625 
Q 21.203125 -1.09375 26.59375 -1.09375 
Q 31.59375 -1.09375 36.046875 0.25 
Q 40.5 1.59375 43.796875 4.296875 
Q 47.09375 7 49.046875 11.046875 
Q 51 15.09375 51 20.40625 
Q 51 26.796875 47.84375 31.5 
Q 44.703125 36.203125 38.203125 37.59375 
L 38.203125 37.796875 
Q 42.40625 39.703125 45.203125 43.390625 
Q 48 47.09375 48 51.90625 
Q 48 56.796875 46.34375 60.390625 
Q 44.703125 64 41.796875 66.296875 
Q 38.90625 68.59375 34.953125 69.75 
Q 31 70.90625 26.40625 70.90625 
Q 21.09375 70.90625 17.046875 69.203125 
Q 13 67.5 10.296875 64.5 
Q 7.59375 61.5 6.140625 57.296875 
Q 4.703125 53.09375 4.5 48 
L 13 48 
Q 13 51.09375 13.796875 53.890625 
Q 14.59375 56.703125 16.25 58.796875 
Q 17.90625 60.90625 20.453125 62.15625 
Q 23 63.40625 26.40625 63.40625 
Q 31.796875 63.40625 35.390625 60.546875 
Q 39 57.703125 39 52 
Q 39 49.203125 37.890625 47 
Q 36.796875 44.796875 34.9375 43.34375 
Q 33.09375 41.90625 30.640625 41.15625 
Q 28.203125 40.40625 25.5 40.40625 
L 23.703125 40.40625 
Q 23.203125 40.40625 22.703125 40.40625 
Q 22.296875 40.40625 21.796875 40.5 
z
" id="HelveticaNeue-51"/>
       </defs>
       <use xlink:href="#HelveticaNeue-51"/>
       <use x="55.599991" xlink:href="#HelveticaNeue-48"/>
       <use x="111.199982" xlink:href="#HelveticaNeue-48"/>
       <use x="166.799973" xlink:href="#HelveticaNeue-48"/>
      </g>
     </g>
    </g>
    <g id="ytick_5">
     <g id="line2d_67">
      <g>
       <use style="fill:#555555;stroke:#555555;stroke-width:0.8;" x="43.10875" xlink:href="#m705557c0f0" y="93.025268"/>
      </g>
     </g>
     <g id="text_18">
      <!-- 4000 -->
      <g style="fill:#555555;" transform="translate(7.2 97.666674)scale(0.13 -0.13)">
       <defs>
        <path d="M 33.90625 24.09375 
L 10.09375 24.09375 
L 33.703125 58.796875 
L 33.90625 58.796875 
z
M 41.90625 24.09375 
L 41.90625 70.90625 
L 35.09375 70.90625 
L 2.796875 24.796875 
L 2.796875 16.59375 
L 33.90625 16.59375 
L 33.90625 0 
L 41.90625 0 
L 41.90625 16.59375 
L 51.5 16.59375 
L 51.5 24.09375 
z
" id="HelveticaNeue-52"/>
       </defs>
       <use xlink:href="#HelveticaNeue-52"/>
       <use x="55.599991" xlink:href="#HelveticaNeue-48"/>
       <use x="111.199982" xlink:href="#HelveticaNeue-48"/>
       <use x="166.799973" xlink:href="#HelveticaNeue-48"/>
      </g>
     </g>
    </g>
    <g id="ytick_6">
     <g id="line2d_68">
      <g>
       <use style="fill:#555555;stroke:#555555;stroke-width:0.8;" x="43.10875" xlink:href="#m705557c0f0" y="51.990804"/>
      </g>
     </g>
     <g id="text_19">
      <!-- 5000 -->
      <g style="fill:#555555;" transform="translate(7.2 56.63221)scale(0.13 -0.13)">
       <defs>
        <path d="M 47 62.203125 
L 47 69.703125 
L 12 69.703125 
L 5.40625 32.90625 
L 12.703125 32.5 
Q 15.203125 35.5 18.453125 37.34375 
Q 21.703125 39.203125 25.90625 39.203125 
Q 29.5 39.203125 32.453125 38 
Q 35.40625 36.796875 37.5 34.640625 
Q 39.59375 32.5 40.75 29.546875 
Q 41.90625 26.59375 41.90625 23.09375 
Q 41.90625 18.90625 40.703125 15.75 
Q 39.5 12.59375 37.453125 10.5 
Q 35.40625 8.40625 32.65625 7.34375 
Q 29.90625 6.296875 26.90625 6.296875 
Q 23.703125 6.296875 21.046875 7.25 
Q 18.40625 8.203125 16.453125 9.953125 
Q 14.5 11.703125 13.34375 14.046875 
Q 12.203125 16.40625 12 19.09375 
L 3.5 19.09375 
Q 3.59375 14.296875 5.390625 10.5 
Q 7.203125 6.703125 10.296875 4.140625 
Q 13.40625 1.59375 17.453125 0.25 
Q 21.5 -1.09375 26.09375 -1.09375 
Q 32.296875 -1.09375 36.9375 0.84375 
Q 41.59375 2.796875 44.6875 6.09375 
Q 47.796875 9.40625 49.34375 13.65625 
Q 50.90625 17.90625 50.90625 22.40625 
Q 50.90625 28.5 49.09375 33.046875 
Q 47.296875 37.59375 44.1875 40.640625 
Q 41.09375 43.703125 36.890625 45.203125 
Q 32.703125 46.703125 28 46.703125 
Q 24.40625 46.703125 20.75 45.453125 
Q 17.09375 44.203125 14.796875 41.59375 
L 14.59375 41.796875 
L 18.40625 62.203125 
z
" id="HelveticaNeue-53"/>
       </defs>
       <use xlink:href="#HelveticaNeue-53"/>
       <use x="55.599991" xlink:href="#HelveticaNeue-48"/>
       <use x="111.199982" xlink:href="#HelveticaNeue-48"/>
       <use x="166.799973" xlink:href="#HelveticaNeue-48"/>
      </g>
     </g>
    </g>
   </g>
   <g id="line2d_69">
    <path clip-path="url(#pd3d99c66ee)" d="M 44.20005 256.75278 
L 45.29135 256.342436 
L 46.382649 255.767953 
L 47.473949 256.178298 
L 48.565249 256.219332 
L 49.656549 255.27554 
L 50.747849 254.783126 
L 51.839148 255.152436 
L 55.113048 250.433473 
L 56.204348 248.299681 
L 57.295647 246.82244 
L 58.386947 242.801063 
L 59.478247 247.766233 
L 60.569547 239.805547 
L 61.660847 245.181061 
L 62.752146 237.876927 
L 63.843446 237.548651 
L 64.934746 235.578997 
L 66.026046 246.658302 
L 67.117346 235.620031 
L 68.208645 238.492444 
L 69.299945 243.416579 
L 70.391245 239.231064 
L 71.482545 240.66727 
L 72.573845 238.36934 
L 73.665144 244.852786 
L 74.756444 240.708305 
L 75.847744 246.781406 
L 76.939044 242.59589 
L 78.030344 246.535199 
L 79.121643 236.727962 
L 80.212943 248.094508 
L 81.304243 244.483476 
L 82.395543 244.729682 
L 83.486843 240.790374 
L 84.578142 253.182782 
L 85.669442 239.313133 
L 86.760742 243.293476 
L 87.852042 253.921402 
L 88.943342 242.9652 
L 90.034641 248.176577 
L 91.125941 246.45313 
L 92.217241 253.223816 
L 93.308541 251.541403 
L 94.399841 243.826924 
L 95.49114 247.19175 
L 96.58244 251.295197 
L 97.67374 244.1552 
L 98.76504 251.746576 
L 99.85634 251.131059 
L 100.947639 248.38175 
L 102.038939 253.921402 
L 103.130239 249.900025 
L 104.221539 250.351404 
L 105.312839 250.597611 
L 106.404138 248.217612 
L 107.495438 253.757264 
L 108.586738 245.919682 
L 109.678038 246.124854 
L 110.769338 242.59589 
L 111.860637 245.181061 
L 112.951937 248.710025 
L 114.043237 253.962437 
L 115.134537 253.387954 
L 116.225837 243.498648 
L 117.317136 250.802783 
L 118.408436 250.105197 
L 119.499736 250.966921 
L 120.591036 249.12037 
L 122.773635 254.824161 
L 123.864935 250.146232 
L 124.956235 247.109681 
L 126.047535 249.571749 
L 127.138835 250.023128 
L 128.230134 251.459334 
L 129.321434 253.675196 
L 130.412734 247.643129 
L 131.504034 243.908993 
L 132.595334 245.796578 
L 133.686633 247.19175 
L 134.777933 246.986578 
L 135.869233 248.586922 
L 136.960533 247.971405 
L 138.051832 244.975889 
L 139.143132 246.042785 
L 140.234432 243.867959 
L 141.325732 225.935898 
L 142.417032 245.509337 
L 143.508331 245.673475 
L 144.599631 234.840376 
L 145.690931 235.33279 
L 146.782231 233.322101 
L 147.873531 235.743135 
L 148.96483 228.274862 
L 150.05613 228.028655 
L 151.14743 238.738651 
L 152.23873 233.240032 
L 153.33003 217.893143 
L 154.421329 220.847624 
L 155.512629 194.298326 
L 156.603929 201.110047 
L 157.695229 168.856958 
L 158.786529 195.283153 
L 159.877828 191.590051 
L 160.969128 210.342801 
L 162.060428 162.619719 
L 163.151728 173.206611 
L 164.243028 157.941791 
L 165.334327 163.522478 
L 166.425627 175.873851 
L 167.516927 172.385922 
L 168.608227 137.506627 
L 169.699527 175.627645 
L 170.790826 159.5011 
L 171.882126 153.469034 
L 172.973426 110.423881 
L 174.064726 123.021461 
L 175.156026 171.401095 
L 176.247325 154.002482 
L 177.338625 129.62801 
L 178.429925 156.956963 
L 179.521225 127.535253 
L 180.612525 125.360426 
L 181.703824 142.389729 
L 182.795124 153.674206 
L 183.886424 142.759039 
L 184.977724 145.426279 
L 186.069024 119.205256 
L 187.160323 116.66112 
L 188.251623 138.122144 
L 189.342923 152.114897 
L 190.434223 132.541457 
L 191.525523 142.635935 
L 192.616822 143.374556 
L 193.708122 152.689379 
L 194.799422 144.523521 
L 195.890722 196.309015 
L 196.982022 218.016246 
L 198.073321 211.409697 
L 199.164621 208.332113 
L 200.255921 186.255571 
L 201.347221 186.091433 
L 202.438521 182.972814 
L 203.52982 206.116252 
L 204.62112 209.481078 
L 205.71242 195.324187 
L 206.80372 87.239409 
L 207.89502 186.871088 
L 208.986319 188.307294 
L 210.077619 185.557985 
L 211.168919 220.232107 
L 212.260219 227.659345 
L 213.351519 217.605901 
L 214.442818 211.902111 
L 215.534118 213.297283 
L 216.625418 210.260732 
L 217.716718 219.862797 
L 219.899317 231.47555 
L 220.990617 225.443484 
L 222.081917 226.387277 
L 223.173217 231.639688 
L 224.264517 230.039344 
L 225.355816 231.721757 
L 226.447116 235.784169 
L 227.538416 242.760028 
L 228.629716 168.980061 
L 229.721016 243.170373 
L 230.812315 233.445205 
L 231.903615 237.015203 
L 232.994915 234.635204 
L 234.086215 243.006235 
L 235.177515 245.919682 
L 236.268814 241.200718 
L 237.360114 240.462098 
L 238.451414 238.246237 
L 239.542714 237.425548 
L 240.634014 240.133822 
L 241.725313 245.016924 
L 242.816613 248.422784 
L 243.907913 241.200718 
L 244.999213 238.328306 
L 246.090513 238.779685 
L 247.181812 241.364856 
L 248.273112 235.168652 
L 249.364412 242.185546 
L 250.455712 246.001751 
L 251.547012 242.308649 
L 252.638311 242.185546 
L 253.729611 241.077615 
L 254.820911 236.522789 
L 255.912211 242.021408 
L 257.003511 245.591406 
L 258.09481 255.521746 
L 259.18611 231.721757 
L 260.27741 244.278303 
L 261.36871 237.384513 
L 262.46001 236.276583 
L 263.551309 237.26141 
L 264.642609 243.662786 
L 265.733909 249.243473 
L 266.825209 238.656582 
L 267.916509 239.477271 
L 269.007808 239.066926 
L 270.099108 241.118649 
L 271.190408 257.163125 
L 272.281708 215.882454 
L 273.373008 245.714509 
L 274.464307 239.107961 
L 275.555607 239.354168 
L 276.646907 235.086583 
L 277.738207 235.414859 
L 278.829507 234.430032 
L 281.012106 241.898304 
L 282.103406 234.183825 
L 283.194706 242.472787 
L 284.286006 222.160727 
L 285.377305 235.825204 
L 286.468605 231.885895 
L 287.559905 244.483476 
L 288.651205 233.322101 
L 289.742505 227.33107 
L 290.833804 226.551415 
L 291.925104 229.546931 
L 293.016404 220.929693 
L 294.107704 243.252442 
L 295.199004 219.493487 
L 296.290303 218.262453 
L 297.381603 221.093831 
L 298.472903 228.603138 
L 299.564203 199.879013 
L 301.746802 224.007278 
L 302.838102 186.994191 
L 303.929402 235.7021 
L 305.020702 240.995546 
L 306.112002 227.70038 
L 307.203301 207.716596 
L 308.294601 180.18247 
L 309.385901 208.455216 
L 310.477201 159.295928 
L 311.568501 215.718316 
L 312.6598 179.936263 
L 313.7511 188.020053 
L 314.8424 177.351092 
L 315.9337 171.36006 
L 317.024999 177.556264 
L 318.116299 185.51695 
L 319.207599 195.652463 
L 320.298899 181.167297 
L 321.390199 170.170061 
L 322.481498 257.163125 
L 323.572798 103.201815 
L 324.664098 197.0066 
L 325.755398 174.109369 
L 326.846698 176.653506 
L 327.937997 169.226268 
L 329.029297 163.071099 
L 330.120597 164.671443 
L 331.211897 154.371792 
L 332.303197 165.327994 
L 333.394496 175.135231 
L 334.485796 174.519714 
L 335.577096 181.208332 
L 336.668396 169.841785 
L 337.759696 165.245925 
L 338.850995 170.170061 
L 339.942295 172.673163 
L 341.033595 158.885583 
L 343.216195 168.528682 
L 345.398794 151.212138 
L 346.490094 156.177309 
L 347.581394 159.419031 
L 348.672694 174.314542 
L 349.763993 162.906961 
L 350.855293 161.757996 
L 351.946593 165.122822 
L 353.037893 162.660754 
L 354.129193 257.163125 
L 355.220492 118.589739 
L 356.311792 189.702466 
L 357.403092 172.755232 
L 358.494392 141.240764 
L 359.585692 144.400417 
L 360.676991 136.644904 
L 361.768291 257.163125 
L 362.859591 39.105982 
L 363.950891 193.682809 
L 365.042191 153.551103 
L 366.13349 119.820773 
L 367.22479 128.479045 
L 368.31609 118.753877 
L 369.40739 116.004568 
L 370.49869 146.164899 
L 371.589989 160.855237 
L 372.681289 171.236957 
L 373.772589 136.193524 
L 374.863889 151.786621 
L 375.955189 153.263862 
L 377.046488 146.985589 
L 378.137788 158.352135 
L 379.229088 158.516273 
L 380.320388 181.495573 
L 381.411688 180.223505 
L 382.502987 163.317305 
L 383.594287 168.815924 
L 384.685587 162.824892 
L 385.776887 161.388686 
L 386.868187 184.819365 
L 387.959486 173.863163 
L 390.142086 194.70867 
L 391.233386 174.930059 
L 392.324686 174.683852 
L 393.415985 154.371792 
L 394.507285 196.514187 
L 395.598585 203.695218 
L 396.689885 179.238677 
L 397.781185 206.690734 
L 398.872484 197.786255 
L 399.963784 145.672486 
L 401.055084 196.842463 
L 402.146384 199.099358 
L 403.237684 200.945909 
L 404.328983 197.499014 
L 407.602883 189.7435 
L 408.694183 188.225225 
L 409.785482 210.835215 
L 410.876782 235.784169 
L 411.968082 202.341081 
L 413.059382 199.796944 
L 414.150682 223.637968 
L 415.241981 193.559705 
L 416.333281 193.805912 
L 417.424581 210.876249 
L 418.515881 216.374868 
L 419.607181 206.280389 
L 420.69848 213.502455 
L 421.78978 198.730048 
L 422.88108 211.655904 
L 423.97238 211.204525 
L 425.06368 195.570394 
L 426.154979 247.520026 
L 427.246279 176.899713 
L 428.337579 180.510746 
L 429.428879 206.075217 
L 430.520179 198.647979 
L 430.520179 198.647979 
" style="fill:none;stroke:#000000;stroke-dasharray:1.5,2.475;stroke-dashoffset:0;stroke-opacity:0.5;stroke-width:1.5;"/>
   </g>
   <g id="line2d_70">
    <path clip-path="url(#pd3d99c66ee)" d="M 43.10875 256.342436 
L 46.382649 256.137263 
L 48.565249 255.685884 
L 49.656549 255.316574 
L 50.747849 254.824161 
L 51.839148 254.003471 
L 52.930448 252.936575 
L 54.021748 251.664507 
L 55.113048 249.982094 
L 56.204348 248.668991 
L 57.295647 246.863474 
L 58.386947 245.714509 
L 61.660847 241.077615 
L 62.752146 240.954512 
L 63.843446 239.641409 
L 64.934746 239.395202 
L 66.026046 239.272099 
L 69.299945 240.215891 
L 70.391245 240.133822 
L 71.482545 240.790374 
L 72.573845 241.693132 
L 73.665144 241.939339 
L 74.756444 242.9652 
L 75.847744 242.801063 
L 76.939044 243.662786 
L 78.030344 243.662786 
L 79.121643 244.073131 
L 80.212943 243.539683 
L 81.304243 244.647613 
L 82.395543 244.278303 
L 84.578142 245.427268 
L 85.669442 245.509337 
L 86.760742 246.001751 
L 87.852042 246.617268 
L 88.943342 246.863474 
L 90.034641 248.38175 
L 91.125941 248.586922 
L 92.217241 248.053474 
L 93.308541 248.833129 
L 94.399841 248.340715 
L 95.49114 248.627956 
L 96.58244 248.463819 
L 97.67374 248.422784 
L 98.76504 249.612784 
L 99.85634 250.064163 
L 100.947639 250.187266 
L 102.038939 250.843818 
L 103.130239 250.474507 
L 104.221539 250.67968 
L 105.312839 250.351404 
L 108.586738 247.520026 
L 109.678038 246.945543 
L 112.951937 247.971405 
L 115.134537 249.612784 
L 116.225837 250.105197 
L 118.408436 249.85899 
L 119.499736 250.269335 
L 120.591036 251.131059 
L 121.682336 250.843818 
L 122.773635 250.720714 
L 123.864935 250.474507 
L 124.956235 250.474507 
L 126.047535 250.597611 
L 128.230134 249.530715 
L 129.321434 249.161404 
L 132.595334 247.273819 
L 133.686633 246.781406 
L 134.777933 246.699337 
L 135.869233 246.945543 
L 136.960533 246.658302 
L 138.051832 244.196234 
L 140.234432 242.267614 
L 141.325732 240.708305 
L 142.417032 239.55934 
L 143.508331 238.123134 
L 144.599631 237.138306 
L 145.690931 236.768996 
L 146.782231 234.306928 
L 147.873531 233.198998 
L 148.96483 232.911757 
L 151.14743 229.423827 
L 153.33003 219.821763 
L 154.421329 211.286594 
L 155.512629 203.818322 
L 156.603929 197.375911 
L 157.695229 195.283153 
L 158.786529 189.661431 
L 159.877828 187.117295 
L 160.969128 182.029021 
L 162.060428 179.279712 
L 163.151728 175.012128 
L 164.243028 171.688336 
L 165.334327 164.384201 
L 166.425627 165.040753 
L 167.516927 163.481443 
L 168.608227 162.537651 
L 169.699527 156.177309 
L 170.790826 148.709036 
L 171.882126 146.370072 
L 172.973426 146.657313 
L 174.064726 142.143522 
L 175.156026 142.635935 
L 176.247325 141.48697 
L 177.338625 142.594901 
L 178.429925 142.67697 
L 179.521225 140.00973 
L 180.612525 139.271109 
L 181.703824 141.281798 
L 182.795124 138.409386 
L 183.886424 137.014214 
L 186.069024 136.234559 
L 187.160323 134.100767 
L 188.251623 134.716284 
L 189.342923 135.824214 
L 190.434223 140.214902 
L 191.525523 143.538694 
L 192.616822 149.981104 
L 193.708122 159.295928 
L 195.890722 182.972814 
L 196.982022 191.343844 
L 198.073321 196.555221 
L 199.164621 199.427634 
L 200.255921 198.442807 
L 201.347221 196.719359 
L 202.438521 195.52936 
L 203.52982 183.752469 
L 205.71242 178.007644 
L 206.80372 176.079024 
L 207.89502 177.556264 
L 208.986319 182.84971 
L 210.077619 190.810396 
L 211.168919 206.444527 
L 212.260219 210.917284 
L 214.442818 216.785212 
L 215.534118 216.908316 
L 216.625418 217.770039 
L 217.716718 219.657625 
L 220.990617 227.372104 
L 224.264517 231.721757 
L 225.355816 226.428311 
L 226.447116 226.428311 
L 227.538416 225.525553 
L 228.629716 225.812794 
L 229.721016 226.633484 
L 230.812315 228.767276 
L 231.903615 231.434516 
L 232.994915 239.436236 
L 234.086215 239.723478 
L 235.177515 240.544167 
L 236.268814 240.585201 
L 237.360114 240.790374 
L 238.451414 240.708305 
L 241.725313 241.734166 
L 243.907913 242.021408 
L 244.999213 241.077615 
L 246.090513 240.338995 
L 247.181812 240.092788 
L 248.273112 240.462098 
L 249.364412 241.200718 
L 250.455712 241.693132 
L 251.547012 241.323822 
L 252.638311 241.734166 
L 253.729611 241.816235 
L 254.820911 242.883131 
L 255.912211 242.390718 
L 257.003511 242.801063 
L 258.09481 242.513821 
L 259.18611 242.062442 
L 260.27741 240.913477 
L 261.36871 240.133822 
L 262.46001 239.682443 
L 263.551309 240.749339 
L 264.642609 240.66727 
L 266.825209 241.405891 
L 267.916509 243.211407 
L 269.007808 240.585201 
L 270.099108 239.887616 
L 271.190408 239.723478 
L 272.281708 239.436236 
L 273.373008 238.779685 
L 274.464307 237.958996 
L 275.555607 235.907273 
L 276.646907 237.794858 
L 277.738207 237.220375 
L 278.829507 236.851065 
L 279.920806 237.384513 
L 281.012106 236.276583 
L 282.103406 235.907273 
L 283.194706 235.127618 
L 284.286006 235.33279 
L 285.377305 234.59417 
L 286.468605 234.101756 
L 287.559905 232.624515 
L 288.651205 232.911757 
L 289.742505 230.73693 
L 290.833804 231.024171 
L 291.925104 228.562103 
L 293.016404 227.043828 
L 294.107704 226.059001 
L 295.199004 225.689691 
L 296.290303 222.242796 
L 297.381603 220.026935 
L 298.472903 217.31866 
L 299.564203 213.54349 
L 300.655503 214.200041 
L 301.746802 216.374868 
L 302.838102 217.934177 
L 303.929402 220.191073 
L 306.112002 214.692455 
L 308.294601 203.407977 
L 309.385901 195.52936 
L 310.477201 190.810396 
L 311.568501 187.691777 
L 312.6598 186.050399 
L 313.7511 182.275228 
L 314.8424 183.465227 
L 315.9337 181.208332 
L 317.024999 181.864883 
L 318.116299 180.797987 
L 319.207599 189.415225 
L 320.298899 184.367985 
L 321.390199 185.065571 
L 322.481498 182.767641 
L 323.572798 179.731091 
L 325.755398 175.340403 
L 326.846698 166.887304 
L 327.937997 170.867647 
L 329.029297 166.435925 
L 330.120597 165.820408 
L 331.211897 165.738339 
L 333.394496 169.677647 
L 334.485796 170.662474 
L 335.577096 172.262819 
L 336.668396 172.55006 
L 337.759696 170.416268 
L 339.942295 166.928338 
L 341.033595 165.65627 
L 344.307494 159.706272 
L 345.398794 160.773169 
L 346.490094 160.978341 
L 347.581394 160.978341 
L 348.672694 162.209375 
L 349.763993 163.686616 
L 350.855293 174.273507 
L 351.946593 172.796267 
L 353.037893 175.340403 
L 354.129193 177.022816 
L 355.220492 174.47868 
L 356.311792 170.087992 
L 357.403092 163.891788 
L 358.494392 163.071099 
L 359.585692 156.013171 
L 360.676991 154.782137 
L 361.768291 152.97662 
L 362.859591 150.391449 
L 363.950891 146.944554 
L 365.042191 142.348694 
L 366.13349 128.068701 
L 367.22479 136.029387 
L 368.31609 132.090078 
L 369.40739 135.78318 
L 372.681289 149.693863 
L 373.772589 152.648345 
L 374.863889 153.181793 
L 375.955189 152.771448 
L 377.046488 154.741102 
L 378.137788 160.650065 
L 380.320388 166.641097 
L 381.411688 168.815924 
L 382.502987 168.815924 
L 383.594287 170.498337 
L 384.685587 169.759716 
L 385.776887 170.949716 
L 386.868187 175.340403 
L 389.050786 179.649022 
L 390.142086 178.664195 
L 391.233386 178.828333 
L 392.324686 181.37247 
L 393.415985 181.454539 
L 394.507285 183.998675 
L 395.598585 188.225225 
L 396.689885 186.665915 
L 397.781185 189.538328 
L 398.872484 188.63557 
L 399.963784 188.307294 
L 401.055084 190.56419 
L 402.146384 190.728327 
L 403.237684 191.877292 
L 404.328983 196.26798 
L 405.420283 194.790739 
L 406.511583 195.365222 
L 407.602883 199.345565 
L 409.785482 203.941425 
L 410.876782 208.209009 
L 411.968082 209.193836 
L 413.059382 208.865561 
L 414.150682 207.470389 
L 415.241981 205.254528 
L 416.333281 205.911079 
L 417.424581 207.511423 
L 418.515881 205.911079 
L 419.607181 207.962802 
L 420.69848 209.481078 
L 421.78978 207.675561 
L 422.88108 210.671077 
L 423.97238 208.619354 
L 425.06368 205.131424 
L 426.154979 204.474873 
L 427.246279 201.889702 
L 428.337579 199.75591 
L 429.428879 199.222462 
L 430.520179 192.492809 
L 430.520179 192.492809 
" style="fill:none;stroke:#b3220f;stroke-linecap:square;stroke-width:1.5;"/>
   </g>
   <g id="patch_3">
    <path d="M 43.10875 268.065982 
L 43.10875 28.203125 
" style="fill:none;stroke:#555555;stroke-linecap:square;stroke-linejoin:miter;"/>
   </g>
   <g id="patch_4">
    <path d="M 43.10875 268.065982 
L 430.520179 268.065982 
" style="fill:none;stroke:#555555;stroke-linecap:square;stroke-linejoin:miter;"/>
   </g>
   <g id="text_20">
    <!-- Miami-Dade | New Cases per Day as of [2021-03-05] -->
    <g style="fill:#555555;" transform="translate(71.762121 18.203125)scale(0.14 -0.14)">
     <defs>
      <path d="M 15.40625 61 
L 15.40625 71.40625 
L 6.90625 71.40625 
L 6.90625 61 
z
M 6.90625 51.703125 
L 6.90625 0 
L 15.40625 0 
L 15.40625 51.703125 
z
" id="HelveticaNeue-105"/>
      <path d="M 6.40625 51.703125 
L 6.40625 0 
L 14.90625 0 
L 14.90625 32.203125 
Q 14.90625 33.703125 15.65625 35.953125 
Q 16.40625 38.203125 18.046875 40.296875 
Q 19.703125 42.40625 22.34375 43.90625 
Q 25 45.40625 28.703125 45.40625 
Q 31.59375 45.40625 33.4375 44.546875 
Q 35.296875 43.703125 36.390625 42.140625 
Q 37.5 40.59375 37.953125 38.5 
Q 38.40625 36.40625 38.40625 33.90625 
L 38.40625 0 
L 46.90625 0 
L 46.90625 32.203125 
Q 46.90625 38.203125 50.5 41.796875 
Q 54.09375 45.40625 60.40625 45.40625 
Q 63.5 45.40625 65.453125 44.5 
Q 67.40625 43.59375 68.5 42.046875 
Q 69.59375 40.5 70 38.390625 
Q 70.40625 36.296875 70.40625 33.90625 
L 70.40625 0 
L 78.90625 0 
L 78.90625 37.90625 
Q 78.90625 41.90625 77.65625 44.75 
Q 76.40625 47.59375 74.15625 49.390625 
Q 71.90625 51.203125 68.75 52.046875 
Q 65.59375 52.90625 61.703125 52.90625 
Q 56.59375 52.90625 52.34375 50.59375 
Q 48.09375 48.296875 45.5 44.09375 
Q 43.90625 48.90625 40 50.90625 
Q 36.09375 52.90625 31.296875 52.90625 
Q 20.40625 52.90625 14.59375 44.09375 
L 14.40625 44.09375 
L 14.40625 51.703125 
z
" id="HelveticaNeue-109"/>
      <path d="M 5 31.796875 
L 5 23.796875 
L 33.90625 23.796875 
L 33.90625 31.796875 
z
" id="HelveticaNeue-45"/>
      <path id="HelveticaNeue-32"/>
      <path d="M 7.703125 78.59375 
L 7.703125 -21.296875 
L 14.5 -21.296875 
L 14.5 78.59375 
z
" id="HelveticaNeue-124"/>
      <path d="M 57.59375 0 
L 74.09375 51.703125 
L 65.296875 51.703125 
L 53.703125 9.40625 
L 53.5 9.40625 
L 42.703125 51.703125 
L 33.40625 51.703125 
L 23 9.40625 
L 22.796875 9.40625 
L 11.09375 51.703125 
L 1.703125 51.703125 
L 18.296875 0 
L 27.5 0 
L 37.90625 41.09375 
L 38.09375 41.09375 
L 48.59375 0 
z
" id="HelveticaNeue-119"/>
      <path d="M 58 49.90625 
L 67.5 49.90625 
Q 66.703125 55.59375 64.09375 59.9375 
Q 61.5 64.296875 57.59375 67.1875 
Q 53.703125 70.09375 48.703125 71.59375 
Q 43.703125 73.09375 38.09375 73.09375 
Q 29.90625 73.09375 23.546875 70.140625 
Q 17.203125 67.203125 12.953125 62.09375 
Q 8.703125 57 6.5 50.140625 
Q 4.296875 43.296875 4.296875 35.5 
Q 4.296875 27.703125 6.34375 20.890625 
Q 8.40625 14.09375 12.5 9.09375 
Q 16.59375 4.09375 22.796875 1.25 
Q 29 -1.59375 37.296875 -1.59375 
Q 51 -1.59375 58.890625 5.90625 
Q 66.796875 13.40625 68.203125 26.90625 
L 58.703125 26.90625 
Q 58.40625 22.5 56.90625 18.703125 
Q 55.40625 14.90625 52.75 12.15625 
Q 50.09375 9.40625 46.4375 7.84375 
Q 42.796875 6.296875 38.09375 6.296875 
Q 31.703125 6.296875 27.09375 8.6875 
Q 22.5 11.09375 19.546875 15.140625 
Q 16.59375 19.203125 15.1875 24.640625 
Q 13.796875 30.09375 13.796875 36.203125 
Q 13.796875 41.796875 15.1875 47 
Q 16.59375 52.203125 19.546875 56.25 
Q 22.5 60.296875 27.046875 62.6875 
Q 31.59375 65.09375 38 65.09375 
Q 45.5 65.09375 50.953125 61.296875 
Q 56.40625 57.5 58 49.90625 
z
" id="HelveticaNeue-67"/>
      <path d="M 11.59375 16.296875 
L 3.09375 16.296875 
Q 3.296875 11.5 5.09375 8.140625 
Q 6.90625 4.796875 9.90625 2.75 
Q 12.90625 0.703125 16.796875 -0.1875 
Q 20.703125 -1.09375 25 -1.09375 
Q 28.90625 -1.09375 32.84375 -0.34375 
Q 36.796875 0.40625 39.9375 2.296875 
Q 43.09375 4.203125 45.046875 7.296875 
Q 47 10.40625 47 15.09375 
Q 47 18.796875 45.546875 21.296875 
Q 44.09375 23.796875 41.75 25.4375 
Q 39.40625 27.09375 36.34375 28.09375 
Q 33.296875 29.09375 30.09375 29.796875 
Q 27.09375 30.5 24.09375 31.140625 
Q 21.09375 31.796875 18.6875 32.75 
Q 16.296875 33.703125 14.75 35.140625 
Q 13.203125 36.59375 13.203125 38.796875 
Q 13.203125 40.796875 14.203125 42.046875 
Q 15.203125 43.296875 16.796875 44.046875 
Q 18.40625 44.796875 20.34375 45.09375 
Q 22.296875 45.40625 24.203125 45.40625 
Q 26.296875 45.40625 28.34375 44.953125 
Q 30.40625 44.5 32.09375 43.5 
Q 33.796875 42.5 34.890625 40.84375 
Q 36 39.203125 36.203125 36.703125 
L 44.703125 36.703125 
Q 44.40625 41.40625 42.703125 44.546875 
Q 41 47.703125 38.140625 49.546875 
Q 35.296875 51.40625 31.59375 52.15625 
Q 27.90625 52.90625 23.5 52.90625 
Q 20.09375 52.90625 16.640625 52.046875 
Q 13.203125 51.203125 10.453125 49.453125 
Q 7.703125 47.703125 5.953125 44.890625 
Q 4.203125 42.09375 4.203125 38.203125 
Q 4.203125 33.203125 6.703125 30.390625 
Q 9.203125 27.59375 12.953125 26.046875 
Q 16.703125 24.5 21.09375 23.640625 
Q 25.5 22.796875 29.25 21.75 
Q 33 20.703125 35.5 19 
Q 38 17.296875 38 14 
Q 38 11.59375 36.796875 10.046875 
Q 35.59375 8.5 33.75 7.703125 
Q 31.90625 6.90625 29.703125 6.59375 
Q 27.5 6.296875 25.5 6.296875 
Q 22.90625 6.296875 20.453125 6.796875 
Q 18 7.296875 16.046875 8.4375 
Q 14.09375 9.59375 12.890625 11.546875 
Q 11.703125 13.5 11.59375 16.296875 
z
" id="HelveticaNeue-115"/>
      <path d="M 9.90625 44.203125 
L 9.90625 0 
L 18.40625 0 
L 18.40625 44.203125 
L 28.40625 44.203125 
L 28.40625 51.703125 
L 18.40625 51.703125 
L 18.40625 58.90625 
Q 18.40625 62.296875 20.09375 63.5 
Q 21.796875 64.703125 24.90625 64.703125 
Q 26 64.703125 27.296875 64.546875 
Q 28.59375 64.40625 29.703125 64 
L 29.703125 71.40625 
Q 28.5 71.796875 26.953125 72 
Q 25.40625 72.203125 24.203125 72.203125 
Q 17.203125 72.203125 13.546875 68.953125 
Q 9.90625 65.703125 9.90625 59.40625 
L 9.90625 51.703125 
L 1.203125 51.703125 
L 1.203125 44.203125 
z
" id="HelveticaNeue-102"/>
      <path d="M 25.90625 66.296875 
L 25.90625 73.09375 
L 7.203125 73.09375 
L 7.203125 -19.703125 
L 25.90625 -19.703125 
L 25.90625 -12.90625 
L 15.203125 -12.90625 
L 15.203125 66.296875 
z
" id="HelveticaNeue-91"/>
      <path d="M 0 -12.90625 
L 0 -19.703125 
L 18.703125 -19.703125 
L 18.703125 73.09375 
L 0 73.09375 
L 0 66.296875 
L 10.703125 66.296875 
L 10.703125 -12.90625 
z
" id="HelveticaNeue-93"/>
     </defs>
     <use xlink:href="#HelveticaNeue-77"/>
     <use x="87.099991" xlink:href="#HelveticaNeue-105"/>
     <use x="109.299988" xlink:href="#HelveticaNeue-97"/>
     <use x="162.999985" xlink:href="#HelveticaNeue-109"/>
     <use x="248.299973" xlink:href="#HelveticaNeue-105"/>
     <use x="270.499969" xlink:href="#HelveticaNeue-45"/>
     <use x="309.399963" xlink:href="#HelveticaNeue-68"/>
     <use x="379.799957" xlink:href="#HelveticaNeue-97"/>
     <use x="433.499954" xlink:href="#HelveticaNeue-100"/>
     <use x="492.799942" xlink:href="#HelveticaNeue-101"/>
     <use x="546.499939" xlink:href="#HelveticaNeue-32"/>
     <use x="574.299927" xlink:href="#HelveticaNeue-124"/>
     <use x="596.499924" xlink:href="#HelveticaNeue-32"/>
     <use x="624.299911" xlink:href="#HelveticaNeue-78"/>
     <use x="696.499893" xlink:href="#HelveticaNeue-101"/>
     <use x="750.19989" xlink:href="#HelveticaNeue-119"/>
     <use x="825.999878" xlink:href="#HelveticaNeue-32"/>
     <use x="853.799866" xlink:href="#HelveticaNeue-67"/>
     <use x="925.999847" xlink:href="#HelveticaNeue-97"/>
     <use x="979.699844" xlink:href="#HelveticaNeue-115"/>
     <use x="1029.699829" xlink:href="#HelveticaNeue-101"/>
     <use x="1083.399826" xlink:href="#HelveticaNeue-115"/>
     <use x="1133.399811" xlink:href="#HelveticaNeue-32"/>
     <use x="1161.199799" xlink:href="#HelveticaNeue-112"/>
     <use x="1220.499786" xlink:href="#HelveticaNeue-101"/>
     <use x="1274.199783" xlink:href="#HelveticaNeue-114"/>
     <use x="1307.499771" xlink:href="#HelveticaNeue-32"/>
     <use x="1335.299759" xlink:href="#HelveticaNeue-68"/>
     <use x="1405.699753" xlink:href="#HelveticaNeue-97"/>
     <use x="1459.39975" xlink:href="#HelveticaNeue-121"/>
     <use x="1509.399734" xlink:href="#HelveticaNeue-32"/>
     <use x="1537.199722" xlink:href="#HelveticaNeue-97"/>
     <use x="1590.899719" xlink:href="#HelveticaNeue-115"/>
     <use x="1640.899704" xlink:href="#HelveticaNeue-32"/>
     <use x="1668.699692" xlink:href="#HelveticaNeue-111"/>
     <use x="1726.099686" xlink:href="#HelveticaNeue-102"/>
     <use x="1755.699677" xlink:href="#HelveticaNeue-32"/>
     <use x="1783.499664" xlink:href="#HelveticaNeue-91"/>
     <use x="1809.399658" xlink:href="#HelveticaNeue-50"/>
     <use x="1864.999649" xlink:href="#HelveticaNeue-48"/>
     <use x="1920.59964" xlink:href="#HelveticaNeue-50"/>
     <use x="1976.199631" xlink:href="#HelveticaNeue-49"/>
     <use x="2031.799622" xlink:href="#HelveticaNeue-45"/>
     <use x="2070.699615" xlink:href="#HelveticaNeue-48"/>
     <use x="2126.299606" xlink:href="#HelveticaNeue-51"/>
     <use x="2181.899597" xlink:href="#HelveticaNeue-45"/>
     <use x="2220.799591" xlink:href="#HelveticaNeue-48"/>
     <use x="2276.399582" xlink:href="#HelveticaNeue-53"/>
     <use x="2331.999573" xlink:href="#HelveticaNeue-93"/>
    </g>
   </g>
   <g id="legend_1">
    <g id="line2d_71">
     <path d="M 54.80875 44.635937 
L 80.80875 44.635937 
" style="fill:none;stroke:#000000;stroke-dasharray:1.5,2.475;stroke-dashoffset:0;stroke-opacity:0.5;stroke-width:1.5;"/>
    </g>
    <g id="line2d_72"/>
    <g id="text_21">
     <!-- Actual -->
     <g style="fill:#555555;" transform="translate(91.20875 49.185937)scale(0.13 -0.13)">
      <use xlink:href="#HelveticaNeue-65"/>
      <use x="64.799988" xlink:href="#HelveticaNeue-99"/>
      <use x="118.499985" xlink:href="#HelveticaNeue-116"/>
      <use x="149.999969" xlink:href="#HelveticaNeue-117"/>
      <use x="205.59996" xlink:href="#HelveticaNeue-97"/>
      <use x="259.299957" xlink:href="#HelveticaNeue-108"/>
     </g>
    </g>
    <g id="line2d_73">
     <path d="M 54.80875 62.980156 
L 80.80875 62.980156 
" style="fill:none;stroke:#b3220f;stroke-linecap:square;stroke-width:1.5;"/>
    </g>
    <g id="line2d_74"/>
    <g id="text_22">
     <!-- 7-Day Average -->
     <g style="fill:#555555;" transform="translate(91.20875 67.530156)scale(0.13 -0.13)">
      <defs>
       <path d="M 50.90625 62.40625 
L 50.90625 69.703125 
L 5 69.703125 
L 5 61.703125 
L 42.203125 61.703125 
Q 36.59375 55.796875 31.75 48.796875 
Q 26.90625 41.796875 23.203125 33.9375 
Q 19.5 26.09375 17.140625 17.546875 
Q 14.796875 9 14.203125 0 
L 23.703125 0 
Q 24.203125 8.296875 26.5 17.09375 
Q 28.796875 25.90625 32.4375 34.203125 
Q 36.09375 42.5 40.796875 49.796875 
Q 45.5 57.09375 50.90625 62.40625 
z
" id="HelveticaNeue-55"/>
      </defs>
      <use xlink:href="#HelveticaNeue-55"/>
      <use x="55.599991" xlink:href="#HelveticaNeue-45"/>
      <use x="94.499985" xlink:href="#HelveticaNeue-68"/>
      <use x="164.899979" xlink:href="#HelveticaNeue-97"/>
      <use x="218.599976" xlink:href="#HelveticaNeue-121"/>
      <use x="268.59996" xlink:href="#HelveticaNeue-32"/>
      <use x="296.399948" xlink:href="#HelveticaNeue-65"/>
      <use x="359.449936" xlink:href="#HelveticaNeue-118"/>
      <use x="409.449921" xlink:href="#HelveticaNeue-101"/>
      <use x="463.149918" xlink:href="#HelveticaNeue-114"/>
      <use x="496.449905" xlink:href="#HelveticaNeue-97"/>
      <use x="550.149902" xlink:href="#HelveticaNeue-103"/>
      <use x="607.549896" xlink:href="#HelveticaNeue-101"/>
     </g>
    </g>
   </g>
  </g>
 </g>
 <defs>
  <clipPath id="pd3d99c66ee">
   <rect height="239.862857" width="387.411429" x="43.10875" y="28.203125"/>
  </clipPath>
 </defs>
</svg>
