<?xml version="1.0" encoding="utf-8" standalone="no"?>
<!DOCTYPE svg PUBLIC "-//W3C//DTD SVG 1.1//EN"
  "http://www.w3.org/Graphics/SVG/1.1/DTD/svg11.dtd">
<!-- Created with matplotlib (https://matplotlib.org/) -->
<svg height="323.655201pt" version="1.1" viewBox="0 0 449.098129 323.655201" width="449.098129pt" xmlns="http://www.w3.org/2000/svg" xmlns:xlink="http://www.w3.org/1999/xlink">
 <metadata>
  <rdf:RDF xmlns:cc="http://creativecommons.org/ns#" xmlns:dc="http://purl.org/dc/elements/1.1/" xmlns:rdf="http://www.w3.org/1999/02/22-rdf-syntax-ns#">
   <cc:Work>
    <dc:type rdf:resource="http://purl.org/dc/dcmitype/StillImage"/>
    <dc:date>2021-07-07T23:33:29.157934</dc:date>
    <dc:format>image/svg+xml</dc:format>
    <dc:creator>
     <cc:Agent>
      <dc:title>Matplotlib v3.3.4, https://matplotlib.org/</dc:title>
     </cc:Agent>
    </dc:creator>
   </cc:Work>
  </rdf:RDF>
 </metadata>
 <defs>
  <style type="text/css">*{stroke-linecap:butt;stroke-linejoin:round;}</style>
 </defs>
 <g id="figure_1">
  <g id="patch_1">
   <path d="M 0 323.655201 
L 449.098129 323.655201 
L 449.098129 0 
L 0 0 
z
" style="fill:#ffffff;"/>
  </g>
  <g id="axes_1">
   <g id="patch_2">
    <path d="M 50.90875 268.065982 
L 438.320179 268.065982 
L 438.320179 28.203125 
L 50.90875 28.203125 
z
" style="fill:#ffffff;"/>
   </g>
   <g id="matplotlib.axis_1">
    <g id="xtick_1">
     <g id="line2d_1">
      <defs>
       <path d="M 0 0 
L 0 3.5 
" id="me0c5e13119" style="stroke:#555555;stroke-width:0.8;"/>
      </defs>
      <g>
       <use style="fill:#555555;stroke:#555555;stroke-width:0.8;" x="50.90875" xlink:href="#me0c5e13119" y="268.065982"/>
      </g>
     </g>
    </g>
    <g id="xtick_2">
     <g id="line2d_2">
      <g>
       <use style="fill:#555555;stroke:#555555;stroke-width:0.8;" x="64.658216" xlink:href="#me0c5e13119" y="268.065982"/>
      </g>
     </g>
     <g id="text_1">
      <!-- Apr -->
      <g style="fill:#555555;" transform="translate(54.427826 284.348795)scale(0.13 -0.13)">
       <defs>
        <path d="M 20.09375 29.5 
L 32.203125 62.796875 
L 32.40625 62.796875 
L 44.296875 29.5 
z
M 27.203125 71.40625 
L -0.59375 0 
L 9.09375 0 
L 17.09375 21.5 
L 47.296875 21.5 
L 55.09375 0 
L 65.59375 0 
L 37.703125 71.40625 
z
" id="HelveticaNeue-65"/>
        <path d="M 6.703125 51.703125 
L 6.703125 -19.703125 
L 15.203125 -19.703125 
L 15.203125 6.90625 
L 15.40625 6.90625 
Q 16.796875 4.59375 18.84375 3.046875 
Q 20.90625 1.5 23.203125 0.59375 
Q 25.5 -0.296875 27.84375 -0.6875 
Q 30.203125 -1.09375 32.09375 -1.09375 
Q 38 -1.09375 42.453125 1 
Q 46.90625 3.09375 49.84375 6.75 
Q 52.796875 10.40625 54.25 15.296875 
Q 55.703125 20.203125 55.703125 25.703125 
Q 55.703125 31.203125 54.203125 36.09375 
Q 52.703125 41 49.75 44.75 
Q 46.796875 48.5 42.34375 50.703125 
Q 37.90625 52.90625 31.90625 52.90625 
Q 26.5 52.90625 22 50.953125 
Q 17.5 49 15.40625 44.703125 
L 15.203125 44.703125 
L 15.203125 51.703125 
z
M 46.703125 26.296875 
Q 46.703125 22.5 45.890625 18.890625 
Q 45.09375 15.296875 43.296875 12.5 
Q 41.5 9.703125 38.546875 8 
Q 35.59375 6.296875 31.203125 6.296875 
Q 26.796875 6.296875 23.6875 7.9375 
Q 20.59375 9.59375 18.640625 12.296875 
Q 16.703125 15 15.796875 18.546875 
Q 14.90625 22.09375 14.90625 25.90625 
Q 14.90625 29.5 15.75 33 
Q 16.59375 36.5 18.5 39.25 
Q 20.40625 42 23.40625 43.703125 
Q 26.40625 45.40625 30.703125 45.40625 
Q 34.796875 45.40625 37.84375 43.796875 
Q 40.90625 42.203125 42.84375 39.5 
Q 44.796875 36.796875 45.75 33.34375 
Q 46.703125 29.90625 46.703125 26.296875 
z
" id="HelveticaNeue-112"/>
        <path d="M 6.09375 51.703125 
L 6.09375 0 
L 14.59375 0 
L 14.59375 23 
Q 14.59375 28 15.59375 31.84375 
Q 16.59375 35.703125 18.796875 38.390625 
Q 21 41.09375 24.59375 42.5 
Q 28.203125 43.90625 33.296875 43.90625 
L 33.296875 52.90625 
Q 26.40625 53.09375 21.90625 50.09375 
Q 17.40625 47.09375 14.296875 40.796875 
L 14.09375 40.796875 
L 14.09375 51.703125 
z
" id="HelveticaNeue-114"/>
       </defs>
       <use xlink:href="#HelveticaNeue-65"/>
       <use x="64.799988" xlink:href="#HelveticaNeue-112"/>
       <use x="124.099976" xlink:href="#HelveticaNeue-114"/>
      </g>
     </g>
    </g>
    <g id="xtick_3">
     <g id="line2d_3">
      <g>
       <use style="fill:#555555;stroke:#555555;stroke-width:0.8;" x="138.2583" xlink:href="#me0c5e13119" y="268.065982"/>
      </g>
     </g>
     <g id="text_2">
      <!-- Jul -->
      <g style="fill:#555555;" transform="translate(129.827597 284.348795)scale(0.13 -0.13)">
       <defs>
        <path d="M 44.09375 17.796875 
L 44.09375 71.40625 
L 34.59375 71.40625 
L 34.59375 19.203125 
Q 34.59375 13.296875 32.140625 9.796875 
Q 29.703125 6.296875 23.203125 6.296875 
Q 19.703125 6.296875 17.453125 7.34375 
Q 15.203125 8.40625 13.953125 10.296875 
Q 12.703125 12.203125 12.203125 14.796875 
Q 11.703125 17.40625 11.703125 20.5 
L 11.703125 23.5 
L 2.203125 23.5 
L 2.203125 19.09375 
Q 2.203125 8.90625 7.59375 3.65625 
Q 13 -1.59375 23 -1.59375 
Q 29 -1.59375 33.046875 0.046875 
Q 37.09375 1.703125 39.546875 4.453125 
Q 42 7.203125 43.046875 10.703125 
Q 44.09375 14.203125 44.09375 17.796875 
z
" id="HelveticaNeue-74"/>
        <path d="M 49.203125 0 
L 49.203125 51.703125 
L 40.703125 51.703125 
L 40.703125 22.5 
Q 40.703125 19 39.75 16.046875 
Q 38.796875 13.09375 36.890625 10.890625 
Q 35 8.703125 32.140625 7.5 
Q 29.296875 6.296875 25.40625 6.296875 
Q 20.5 6.296875 17.703125 9.09375 
Q 14.90625 11.90625 14.90625 16.703125 
L 14.90625 51.703125 
L 6.40625 51.703125 
L 6.40625 17.703125 
Q 6.40625 13.5 7.25 10.046875 
Q 8.09375 6.59375 10.1875 4.09375 
Q 12.296875 1.59375 15.6875 0.25 
Q 19.09375 -1.09375 24.203125 -1.09375 
Q 29.90625 -1.09375 34.09375 1.15625 
Q 38.296875 3.40625 41 8.203125 
L 41.203125 8.203125 
L 41.203125 0 
z
" id="HelveticaNeue-117"/>
        <path d="M 6.90625 71.40625 
L 6.90625 0 
L 15.40625 0 
L 15.40625 71.40625 
z
" id="HelveticaNeue-108"/>
       </defs>
       <use xlink:href="#HelveticaNeue-74"/>
       <use x="51.899994" xlink:href="#HelveticaNeue-117"/>
       <use x="107.499985" xlink:href="#HelveticaNeue-108"/>
      </g>
     </g>
    </g>
    <g id="xtick_4">
     <g id="line2d_4">
      <g>
       <use style="fill:#555555;stroke:#555555;stroke-width:0.8;" x="212.667175" xlink:href="#me0c5e13119" y="268.065982"/>
      </g>
     </g>
     <g id="text_3">
      <!-- Oct -->
      <g style="fill:#555555;" transform="translate(202.188972 284.348795)scale(0.13 -0.13)">
       <defs>
        <path d="M 13.296875 35.703125 
Q 13.296875 41.09375 14.6875 46.34375 
Q 16.09375 51.59375 19.09375 55.796875 
Q 22.09375 60 26.796875 62.546875 
Q 31.5 65.09375 38 65.09375 
Q 44.5 65.09375 49.203125 62.546875 
Q 53.90625 60 56.90625 55.796875 
Q 59.90625 51.59375 61.296875 46.34375 
Q 62.703125 41.09375 62.703125 35.703125 
Q 62.703125 30.296875 61.296875 25.046875 
Q 59.90625 19.796875 56.90625 15.59375 
Q 53.90625 11.40625 49.203125 8.84375 
Q 44.5 6.296875 38 6.296875 
Q 31.5 6.296875 26.796875 8.84375 
Q 22.09375 11.40625 19.09375 15.59375 
Q 16.09375 19.796875 14.6875 25.046875 
Q 13.296875 30.296875 13.296875 35.703125 
z
M 3.796875 35.703125 
Q 3.796875 28.40625 5.9375 21.65625 
Q 8.09375 14.90625 12.390625 9.703125 
Q 16.703125 4.5 23.09375 1.453125 
Q 29.5 -1.59375 38 -1.59375 
Q 46.5 -1.59375 52.890625 1.453125 
Q 59.296875 4.5 63.59375 9.703125 
Q 67.90625 14.90625 70.046875 21.65625 
Q 72.203125 28.40625 72.203125 35.703125 
Q 72.203125 43 70.046875 49.75 
Q 67.90625 56.5 63.59375 61.703125 
Q 59.296875 66.90625 52.890625 70 
Q 46.5 73.09375 38 73.09375 
Q 29.5 73.09375 23.09375 70 
Q 16.703125 66.90625 12.390625 61.703125 
Q 8.09375 56.5 5.9375 49.75 
Q 3.796875 43 3.796875 35.703125 
z
" id="HelveticaNeue-79"/>
        <path d="M 41.5 35.09375 
L 50.296875 35.09375 
Q 49.796875 39.703125 47.890625 43.046875 
Q 46 46.40625 43.046875 48.59375 
Q 40.09375 50.796875 36.25 51.84375 
Q 32.40625 52.90625 28 52.90625 
Q 21.90625 52.90625 17.296875 50.75 
Q 12.703125 48.59375 9.640625 44.84375 
Q 6.59375 41.09375 5.09375 36.046875 
Q 3.59375 31 3.59375 25.203125 
Q 3.59375 19.40625 5.140625 14.546875 
Q 6.703125 9.703125 9.75 6.203125 
Q 12.796875 2.703125 17.34375 0.796875 
Q 21.90625 -1.09375 27.796875 -1.09375 
Q 37.703125 -1.09375 43.453125 4.09375 
Q 49.203125 9.296875 50.59375 18.90625 
L 41.90625 18.90625 
Q 41.09375 12.90625 37.546875 9.59375 
Q 34 6.296875 27.703125 6.296875 
Q 23.703125 6.296875 20.796875 7.890625 
Q 17.90625 9.5 16.09375 12.140625 
Q 14.296875 14.796875 13.4375 18.1875 
Q 12.59375 21.59375 12.59375 25.203125 
Q 12.59375 29.09375 13.390625 32.75 
Q 14.203125 36.40625 16.046875 39.203125 
Q 17.90625 42 21 43.703125 
Q 24.09375 45.40625 28.703125 45.40625 
Q 34.09375 45.40625 37.296875 42.703125 
Q 40.5 40 41.5 35.09375 
z
" id="HelveticaNeue-99"/>
        <path d="M 18.203125 51.703125 
L 18.203125 67.203125 
L 9.703125 67.203125 
L 9.703125 51.703125 
L 0.90625 51.703125 
L 0.90625 44.203125 
L 9.703125 44.203125 
L 9.703125 11.296875 
Q 9.703125 7.703125 10.390625 5.5 
Q 11.09375 3.296875 12.546875 2.09375 
Q 14 0.90625 16.34375 0.453125 
Q 18.703125 0 22 0 
L 28.5 0 
L 28.5 7.5 
L 24.59375 7.5 
Q 22.59375 7.5 21.34375 7.640625 
Q 20.09375 7.796875 19.390625 8.296875 
Q 18.703125 8.796875 18.453125 9.6875 
Q 18.203125 10.59375 18.203125 12.09375 
L 18.203125 44.203125 
L 28.5 44.203125 
L 28.5 51.703125 
z
" id="HelveticaNeue-116"/>
       </defs>
       <use xlink:href="#HelveticaNeue-79"/>
       <use x="75.999985" xlink:href="#HelveticaNeue-99"/>
       <use x="129.699982" xlink:href="#HelveticaNeue-116"/>
      </g>
     </g>
    </g>
    <g id="xtick_5">
     <g id="line2d_5">
      <g>
       <use style="fill:#555555;stroke:#555555;stroke-width:0.8;" x="287.076051" xlink:href="#me0c5e13119" y="268.065982"/>
      </g>
     </g>
     <g id="text_4">
      <!-- Jan -->
      <g style="fill:#555555;" transform="translate(276.597848 284.348795)scale(0.13 -0.13)">
       <defs>
        <path d="M 52.203125 0.203125 
Q 50 -1.09375 46.09375 -1.09375 
Q 42.796875 -1.09375 40.84375 0.75 
Q 38.90625 2.59375 38.90625 6.796875 
Q 35.40625 2.59375 30.75 0.75 
Q 26.09375 -1.09375 20.703125 -1.09375 
Q 17.203125 -1.09375 14.046875 -0.296875 
Q 10.90625 0.5 8.59375 2.203125 
Q 6.296875 3.90625 4.9375 6.65625 
Q 3.59375 9.40625 3.59375 13.296875 
Q 3.59375 17.703125 5.09375 20.5 
Q 6.59375 23.296875 9.046875 25.046875 
Q 11.5 26.796875 14.640625 27.6875 
Q 17.796875 28.59375 21.09375 29.203125 
Q 24.59375 29.90625 27.75 30.25 
Q 30.90625 30.59375 33.296875 31.25 
Q 35.703125 31.90625 37.09375 33.15625 
Q 38.5 34.40625 38.5 36.796875 
Q 38.5 39.59375 37.453125 41.296875 
Q 36.40625 43 34.75 43.890625 
Q 33.09375 44.796875 31.046875 45.09375 
Q 29 45.40625 27 45.40625 
Q 21.59375 45.40625 18 43.34375 
Q 14.40625 41.296875 14.09375 35.59375 
L 5.59375 35.59375 
Q 5.796875 40.40625 7.59375 43.703125 
Q 9.40625 47 12.40625 49.046875 
Q 15.40625 51.09375 19.25 52 
Q 23.09375 52.90625 27.5 52.90625 
Q 31 52.90625 34.453125 52.40625 
Q 37.90625 51.90625 40.703125 50.34375 
Q 43.5 48.796875 45.203125 46 
Q 46.90625 43.203125 46.90625 38.703125 
L 46.90625 12.09375 
Q 46.90625 9.09375 47.25 7.6875 
Q 47.59375 6.296875 49.59375 6.296875 
Q 50.703125 6.296875 52.203125 6.796875 
z
M 38.40625 26.703125 
Q 36.796875 25.5 34.1875 24.953125 
Q 31.59375 24.40625 28.75 24.046875 
Q 25.90625 23.703125 23 23.25 
Q 20.09375 22.796875 17.796875 21.796875 
Q 15.5 20.796875 14.046875 18.9375 
Q 12.59375 17.09375 12.59375 13.90625 
Q 12.59375 11.796875 13.4375 10.34375 
Q 14.296875 8.90625 15.640625 8 
Q 17 7.09375 18.796875 6.6875 
Q 20.59375 6.296875 22.59375 6.296875 
Q 26.796875 6.296875 29.796875 7.4375 
Q 32.796875 8.59375 34.6875 10.34375 
Q 36.59375 12.09375 37.5 14.140625 
Q 38.40625 16.203125 38.40625 18 
z
" id="HelveticaNeue-97"/>
        <path d="M 6.40625 51.703125 
L 6.40625 0 
L 14.90625 0 
L 14.90625 29.203125 
Q 14.90625 32.703125 15.84375 35.640625 
Q 16.796875 38.59375 18.6875 40.796875 
Q 20.59375 43 23.4375 44.203125 
Q 26.296875 45.40625 30.203125 45.40625 
Q 35.09375 45.40625 37.890625 42.59375 
Q 40.703125 39.796875 40.703125 35 
L 40.703125 0 
L 49.203125 0 
L 49.203125 34 
Q 49.203125 38.203125 48.34375 41.640625 
Q 47.5 45.09375 45.390625 47.59375 
Q 43.296875 50.09375 39.890625 51.5 
Q 36.5 52.90625 31.40625 52.90625 
Q 19.90625 52.90625 14.59375 43.5 
L 14.40625 43.5 
L 14.40625 51.703125 
z
" id="HelveticaNeue-110"/>
       </defs>
       <use xlink:href="#HelveticaNeue-74"/>
       <use x="51.899994" xlink:href="#HelveticaNeue-97"/>
       <use x="105.599991" xlink:href="#HelveticaNeue-110"/>
      </g>
      <!-- 2021 -->
      <g style="fill:#555555;" transform="translate(272.621676 298.049576)scale(0.13 -0.13)">
       <defs>
        <path d="M 4.40625 45.796875 
L 12.90625 45.796875 
Q 12.796875 49 13.546875 52.140625 
Q 14.296875 55.296875 16 57.796875 
Q 17.703125 60.296875 20.34375 61.84375 
Q 23 63.40625 26.703125 63.40625 
Q 29.5 63.40625 32 62.5 
Q 34.5 61.59375 36.34375 59.890625 
Q 38.203125 58.203125 39.296875 55.84375 
Q 40.40625 53.5 40.40625 50.59375 
Q 40.40625 46.90625 39.25 44.09375 
Q 38.09375 41.296875 35.84375 38.890625 
Q 33.59375 36.5 30.1875 34.140625 
Q 26.796875 31.796875 22.296875 29 
Q 18.59375 26.796875 15.1875 24.296875 
Q 11.796875 21.796875 9.09375 18.5 
Q 6.40625 15.203125 4.65625 10.75 
Q 2.90625 6.296875 2.40625 0 
L 48.703125 0 
L 48.703125 7.5 
L 12.296875 7.5 
Q 12.90625 10.796875 14.84375 13.34375 
Q 16.796875 15.90625 19.546875 18.09375 
Q 22.296875 20.296875 25.59375 22.25 
Q 28.90625 24.203125 32.203125 26.203125 
Q 35.5 28.296875 38.59375 30.59375 
Q 41.703125 32.90625 44.09375 35.75 
Q 46.5 38.59375 47.953125 42.1875 
Q 49.40625 45.796875 49.40625 50.5 
Q 49.40625 55.5 47.65625 59.296875 
Q 45.90625 63.09375 42.90625 65.640625 
Q 39.90625 68.203125 35.84375 69.546875 
Q 31.796875 70.90625 27.203125 70.90625 
Q 21.59375 70.90625 17.1875 69 
Q 12.796875 67.09375 9.84375 63.75 
Q 6.90625 60.40625 5.5 55.796875 
Q 4.09375 51.203125 4.40625 45.796875 
z
" id="HelveticaNeue-50"/>
        <path d="M 13.203125 34.90625 
Q 13.203125 37.5 13.25 40.640625 
Q 13.296875 43.796875 13.75 46.9375 
Q 14.203125 50.09375 15.046875 53.09375 
Q 15.90625 56.09375 17.546875 58.34375 
Q 19.203125 60.59375 21.703125 62 
Q 24.203125 63.40625 27.796875 63.40625 
Q 31.40625 63.40625 33.90625 62 
Q 36.40625 60.59375 38.046875 58.34375 
Q 39.703125 56.09375 40.546875 53.09375 
Q 41.40625 50.09375 41.84375 46.9375 
Q 42.296875 43.796875 42.34375 40.640625 
Q 42.40625 37.5 42.40625 34.90625 
Q 42.40625 30.90625 42.15625 25.953125 
Q 41.90625 21 40.546875 16.640625 
Q 39.203125 12.296875 36.203125 9.296875 
Q 33.203125 6.296875 27.796875 6.296875 
Q 22.40625 6.296875 19.40625 9.296875 
Q 16.40625 12.296875 15.046875 16.640625 
Q 13.703125 21 13.453125 25.953125 
Q 13.203125 30.90625 13.203125 34.90625 
z
M 4.203125 34.796875 
Q 4.203125 30.90625 4.390625 26.703125 
Q 4.59375 22.5 5.390625 18.5 
Q 6.203125 14.5 7.703125 10.953125 
Q 9.203125 7.40625 11.796875 4.703125 
Q 14.40625 2 18.34375 0.453125 
Q 22.296875 -1.09375 27.796875 -1.09375 
Q 33.40625 -1.09375 37.296875 0.453125 
Q 41.203125 2 43.796875 4.703125 
Q 46.40625 7.40625 47.90625 10.953125 
Q 49.40625 14.5 50.203125 18.5 
Q 51 22.5 51.203125 26.703125 
Q 51.40625 30.90625 51.40625 34.796875 
Q 51.40625 38.703125 51.203125 42.890625 
Q 51 47.09375 50.203125 51.09375 
Q 49.40625 55.09375 47.90625 58.6875 
Q 46.40625 62.296875 43.796875 65 
Q 41.203125 67.703125 37.25 69.296875 
Q 33.296875 70.90625 27.796875 70.90625 
Q 22.296875 70.90625 18.34375 69.296875 
Q 14.40625 67.703125 11.796875 65 
Q 9.203125 62.296875 7.703125 58.6875 
Q 6.203125 55.09375 5.390625 51.09375 
Q 4.59375 47.09375 4.390625 42.890625 
Q 4.203125 38.703125 4.203125 34.796875 
z
" id="HelveticaNeue-48"/>
        <path d="M 35.59375 0 
L 35.59375 70.90625 
L 29.09375 70.90625 
Q 28.40625 66.90625 26.5 64.296875 
Q 24.59375 61.703125 21.84375 60.203125 
Q 19.09375 58.703125 15.6875 58.140625 
Q 12.296875 57.59375 8.703125 57.59375 
L 8.703125 50.796875 
L 27.09375 50.796875 
L 27.09375 0 
z
" id="HelveticaNeue-49"/>
       </defs>
       <use xlink:href="#HelveticaNeue-50"/>
       <use x="55.599991" xlink:href="#HelveticaNeue-48"/>
       <use x="111.199982" xlink:href="#HelveticaNeue-50"/>
       <use x="166.799973" xlink:href="#HelveticaNeue-49"/>
      </g>
     </g>
    </g>
    <g id="xtick_6">
     <g id="line2d_6">
      <g>
       <use style="fill:#555555;stroke:#555555;stroke-width:0.8;" x="359.867342" xlink:href="#me0c5e13119" y="268.065982"/>
      </g>
     </g>
     <g id="text_5">
      <!-- Apr -->
      <g style="fill:#555555;" transform="translate(349.636952 284.348795)scale(0.13 -0.13)">
       <use xlink:href="#HelveticaNeue-65"/>
       <use x="64.799988" xlink:href="#HelveticaNeue-112"/>
       <use x="124.099976" xlink:href="#HelveticaNeue-114"/>
      </g>
     </g>
    </g>
    <g id="xtick_7">
     <g id="line2d_7">
      <g>
       <use style="fill:#555555;stroke:#555555;stroke-width:0.8;" x="433.467426" xlink:href="#me0c5e13119" y="268.065982"/>
      </g>
     </g>
     <g id="text_6">
      <!-- Jul -->
      <g style="fill:#555555;" transform="translate(425.036723 284.348795)scale(0.13 -0.13)">
       <use xlink:href="#HelveticaNeue-74"/>
       <use x="51.899994" xlink:href="#HelveticaNeue-117"/>
       <use x="107.499985" xlink:href="#HelveticaNeue-108"/>
      </g>
     </g>
    </g>
    <g id="xtick_8">
     <g id="line2d_8">
      <g>
       <use style="fill:#555555;stroke:#555555;stroke-width:0.8;" x="438.320179" xlink:href="#me0c5e13119" y="268.065982"/>
      </g>
     </g>
    </g>
    <g id="xtick_9">
     <g id="line2d_9">
      <defs>
       <path d="M 0 0 
L 0 2 
" id="m9fa3dd128c" style="stroke:#555555;stroke-width:0.6;"/>
      </defs>
      <g>
       <use style="fill:#555555;stroke:#555555;stroke-width:0.6;" x="88.92198" xlink:href="#m9fa3dd128c" y="268.065982"/>
      </g>
     </g>
    </g>
    <g id="xtick_10">
     <g id="line2d_10">
      <g>
       <use style="fill:#555555;stroke:#555555;stroke-width:0.6;" x="113.994536" xlink:href="#m9fa3dd128c" y="268.065982"/>
      </g>
     </g>
    </g>
    <g id="xtick_11">
     <g id="line2d_11">
      <g>
       <use style="fill:#555555;stroke:#555555;stroke-width:0.6;" x="163.330856" xlink:href="#m9fa3dd128c" y="268.065982"/>
      </g>
     </g>
    </g>
    <g id="xtick_12">
     <g id="line2d_12">
      <g>
       <use style="fill:#555555;stroke:#555555;stroke-width:0.6;" x="188.403411" xlink:href="#m9fa3dd128c" y="268.065982"/>
      </g>
     </g>
    </g>
    <g id="xtick_13">
     <g id="line2d_13">
      <g>
       <use style="fill:#555555;stroke:#555555;stroke-width:0.6;" x="237.739731" xlink:href="#m9fa3dd128c" y="268.065982"/>
      </g>
     </g>
    </g>
    <g id="xtick_14">
     <g id="line2d_14">
      <g>
       <use style="fill:#555555;stroke:#555555;stroke-width:0.6;" x="262.003495" xlink:href="#m9fa3dd128c" y="268.065982"/>
      </g>
     </g>
    </g>
    <g id="xtick_15">
     <g id="line2d_15">
      <g>
       <use style="fill:#555555;stroke:#555555;stroke-width:0.6;" x="312.148607" xlink:href="#m9fa3dd128c" y="268.065982"/>
      </g>
     </g>
    </g>
    <g id="xtick_16">
     <g id="line2d_16">
      <g>
       <use style="fill:#555555;stroke:#555555;stroke-width:0.6;" x="334.794786" xlink:href="#m9fa3dd128c" y="268.065982"/>
      </g>
     </g>
    </g>
    <g id="xtick_17">
     <g id="line2d_17">
      <g>
       <use style="fill:#555555;stroke:#555555;stroke-width:0.6;" x="384.131106" xlink:href="#m9fa3dd128c" y="268.065982"/>
      </g>
     </g>
    </g>
    <g id="xtick_18">
     <g id="line2d_18">
      <g>
       <use style="fill:#555555;stroke:#555555;stroke-width:0.6;" x="409.203662" xlink:href="#m9fa3dd128c" y="268.065982"/>
      </g>
     </g>
    </g>
    <g id="text_7">
     <!-- date -->
     <g style="fill:#555555;" transform="translate(231.731261 313.893795)scale(0.13 -0.13)">
      <defs>
       <path d="M 12.59375 25.40625 
Q 12.59375 29.203125 13.390625 32.796875 
Q 14.203125 36.40625 16 39.203125 
Q 17.796875 42 20.796875 43.703125 
Q 23.796875 45.40625 28.09375 45.40625 
Q 32.5 45.40625 35.59375 43.75 
Q 38.703125 42.09375 40.640625 39.390625 
Q 42.59375 36.703125 43.5 33.140625 
Q 44.40625 29.59375 44.40625 25.796875 
Q 44.40625 22.203125 43.546875 18.703125 
Q 42.703125 15.203125 40.796875 12.453125 
Q 38.90625 9.703125 35.90625 8 
Q 32.90625 6.296875 28.59375 6.296875 
Q 24.5 6.296875 21.453125 7.890625 
Q 18.40625 9.5 16.453125 12.203125 
Q 14.5 14.90625 13.546875 18.34375 
Q 12.59375 21.796875 12.59375 25.40625 
z
M 52.59375 0 
L 52.59375 71.40625 
L 44.09375 71.40625 
L 44.09375 44.796875 
L 43.90625 44.796875 
Q 42.5 47.09375 40.453125 48.640625 
Q 38.40625 50.203125 36.09375 51.140625 
Q 33.796875 52.09375 31.5 52.5 
Q 29.203125 52.90625 27.203125 52.90625 
Q 21.296875 52.90625 16.84375 50.75 
Q 12.40625 48.59375 9.453125 44.9375 
Q 6.5 41.296875 5.046875 36.390625 
Q 3.59375 31.5 3.59375 26 
Q 3.59375 20.5 5.09375 15.59375 
Q 6.59375 10.703125 9.546875 7 
Q 12.5 3.296875 16.953125 1.09375 
Q 21.40625 -1.09375 27.40625 -1.09375 
Q 32.796875 -1.09375 37.296875 0.796875 
Q 41.796875 2.703125 43.90625 7 
L 44.09375 7 
L 44.09375 0 
z
" id="HelveticaNeue-100"/>
       <path d="M 42.296875 30.796875 
L 12.59375 30.796875 
Q 12.796875 33.796875 13.890625 36.4375 
Q 15 39.09375 16.890625 41.09375 
Q 18.796875 43.09375 21.4375 44.25 
Q 24.09375 45.40625 27.40625 45.40625 
Q 30.59375 45.40625 33.25 44.25 
Q 35.90625 43.09375 37.84375 41.140625 
Q 39.796875 39.203125 40.9375 36.5 
Q 42.09375 33.796875 42.296875 30.796875 
z
M 50.5 16.40625 
L 42.09375 16.40625 
Q 41 11.296875 37.546875 8.796875 
Q 34.09375 6.296875 28.703125 6.296875 
Q 24.5 6.296875 21.390625 7.6875 
Q 18.296875 9.09375 16.296875 11.4375 
Q 14.296875 13.796875 13.390625 16.84375 
Q 12.5 19.90625 12.59375 23.296875 
L 51.296875 23.296875 
Q 51.5 28 50.453125 33.203125 
Q 49.40625 38.40625 46.65625 42.796875 
Q 43.90625 47.203125 39.34375 50.046875 
Q 34.796875 52.90625 27.90625 52.90625 
Q 22.59375 52.90625 18.140625 50.90625 
Q 13.703125 48.90625 10.453125 45.296875 
Q 7.203125 41.703125 5.390625 36.796875 
Q 3.59375 31.90625 3.59375 26 
Q 3.796875 20.09375 5.34375 15.09375 
Q 6.90625 10.09375 10 6.5 
Q 13.09375 2.90625 17.640625 0.90625 
Q 22.203125 -1.09375 28.40625 -1.09375 
Q 37.203125 -1.09375 43 3.296875 
Q 48.796875 7.703125 50.5 16.40625 
z
" id="HelveticaNeue-101"/>
      </defs>
      <use xlink:href="#HelveticaNeue-100"/>
      <use x="59.299988" xlink:href="#HelveticaNeue-97"/>
      <use x="112.999985" xlink:href="#HelveticaNeue-116"/>
      <use x="144.499969" xlink:href="#HelveticaNeue-101"/>
     </g>
    </g>
   </g>
   <g id="matplotlib.axis_2">
    <g id="ytick_1">
     <g id="line2d_19">
      <defs>
       <path d="M 0 0 
L -3.5 0 
" id="ma514938825" style="stroke:#555555;stroke-width:0.8;"/>
      </defs>
      <g>
       <use style="fill:#555555;stroke:#555555;stroke-width:0.8;" x="50.90875" xlink:href="#ma514938825" y="251.512225"/>
      </g>
     </g>
     <g id="text_8">
      <!-- −6000 -->
      <g style="fill:#555555;" transform="translate(7.2 256.153632)scale(0.13 -0.13)">
       <defs>
        <path d="M 4.796875 28.703125 
L 4.796875 21.90625 
L 55.203125 21.90625 
L 55.203125 28.703125 
z
" id="HelveticaNeue-8722"/>
        <path d="M 41.40625 52.796875 
L 49.90625 52.796875 
Q 49.09375 61.59375 43.890625 66.25 
Q 38.703125 70.90625 29.90625 70.90625 
Q 22.296875 70.90625 17.296875 67.703125 
Q 12.296875 64.5 9.296875 59.203125 
Q 6.296875 53.90625 5.046875 47.046875 
Q 3.796875 40.203125 3.796875 32.90625 
Q 3.796875 27.296875 4.640625 21.296875 
Q 5.5 15.296875 8.09375 10.296875 
Q 10.703125 5.296875 15.5 2.09375 
Q 20.296875 -1.09375 28.203125 -1.09375 
Q 34.90625 -1.09375 39.453125 1.15625 
Q 44 3.40625 46.75 6.84375 
Q 49.5 10.296875 50.703125 14.5 
Q 51.90625 18.703125 51.90625 22.59375 
Q 51.90625 27.5 50.40625 31.703125 
Q 48.90625 35.90625 46.15625 39 
Q 43.40625 42.09375 39.34375 43.84375 
Q 35.296875 45.59375 30.203125 45.59375 
Q 24.40625 45.59375 19.953125 43.390625 
Q 15.5 41.203125 12.5 36.296875 
L 12.296875 36.5 
Q 12.40625 40.59375 13.09375 45.296875 
Q 13.796875 50 15.640625 54.046875 
Q 17.5 58.09375 20.796875 60.75 
Q 24.09375 63.40625 29.5 63.40625 
Q 34.59375 63.40625 37.6875 60.5 
Q 40.796875 57.59375 41.40625 52.796875 
z
M 28.59375 38.09375 
Q 32.203125 38.09375 34.890625 36.796875 
Q 37.59375 35.5 39.390625 33.34375 
Q 41.203125 31.203125 42.046875 28.25 
Q 42.90625 25.296875 42.90625 22 
Q 42.90625 18.90625 41.953125 16.046875 
Q 41 13.203125 39.203125 11 
Q 37.40625 8.796875 34.75 7.546875 
Q 32.09375 6.296875 28.59375 6.296875 
Q 25.09375 6.296875 22.34375 7.546875 
Q 19.59375 8.796875 17.75 10.890625 
Q 15.90625 13 14.90625 15.890625 
Q 13.90625 18.796875 13.90625 22.09375 
Q 13.90625 25.40625 14.84375 28.34375 
Q 15.796875 31.296875 17.6875 33.4375 
Q 19.59375 35.59375 22.296875 36.84375 
Q 25 38.09375 28.59375 38.09375 
z
" id="HelveticaNeue-54"/>
       </defs>
       <use xlink:href="#HelveticaNeue-8722"/>
       <use x="59.999985" xlink:href="#HelveticaNeue-54"/>
       <use x="115.599976" xlink:href="#HelveticaNeue-48"/>
       <use x="171.199966" xlink:href="#HelveticaNeue-48"/>
       <use x="226.799957" xlink:href="#HelveticaNeue-48"/>
      </g>
     </g>
    </g>
    <g id="ytick_2">
     <g id="line2d_20">
      <g>
       <use style="fill:#555555;stroke:#555555;stroke-width:0.8;" x="50.90875" xlink:href="#ma514938825" y="213.964719"/>
      </g>
     </g>
     <g id="text_9">
      <!-- −4000 -->
      <g style="fill:#555555;" transform="translate(7.2 218.606125)scale(0.13 -0.13)">
       <defs>
        <path d="M 33.90625 24.09375 
L 10.09375 24.09375 
L 33.703125 58.796875 
L 33.90625 58.796875 
z
M 41.90625 24.09375 
L 41.90625 70.90625 
L 35.09375 70.90625 
L 2.796875 24.796875 
L 2.796875 16.59375 
L 33.90625 16.59375 
L 33.90625 0 
L 41.90625 0 
L 41.90625 16.59375 
L 51.5 16.59375 
L 51.5 24.09375 
z
" id="HelveticaNeue-52"/>
       </defs>
       <use xlink:href="#HelveticaNeue-8722"/>
       <use x="59.999985" xlink:href="#HelveticaNeue-52"/>
       <use x="115.599976" xlink:href="#HelveticaNeue-48"/>
       <use x="171.199966" xlink:href="#HelveticaNeue-48"/>
       <use x="226.799957" xlink:href="#HelveticaNeue-48"/>
      </g>
     </g>
    </g>
    <g id="ytick_3">
     <g id="line2d_21">
      <g>
       <use style="fill:#555555;stroke:#555555;stroke-width:0.8;" x="50.90875" xlink:href="#ma514938825" y="176.417213"/>
      </g>
     </g>
     <g id="text_10">
      <!-- −2000 -->
      <g style="fill:#555555;" transform="translate(7.2 181.058619)scale(0.13 -0.13)">
       <use xlink:href="#HelveticaNeue-8722"/>
       <use x="59.999985" xlink:href="#HelveticaNeue-50"/>
       <use x="115.599976" xlink:href="#HelveticaNeue-48"/>
       <use x="171.199966" xlink:href="#HelveticaNeue-48"/>
       <use x="226.799957" xlink:href="#HelveticaNeue-48"/>
      </g>
     </g>
    </g>
    <g id="ytick_4">
     <g id="line2d_22">
      <g>
       <use style="fill:#555555;stroke:#555555;stroke-width:0.8;" x="50.90875" xlink:href="#ma514938825" y="138.869706"/>
      </g>
     </g>
     <g id="text_11">
      <!-- 0 -->
      <g style="fill:#555555;" transform="translate(36.681563 143.511113)scale(0.13 -0.13)">
       <use xlink:href="#HelveticaNeue-48"/>
      </g>
     </g>
    </g>
    <g id="ytick_5">
     <g id="line2d_23">
      <g>
       <use style="fill:#555555;stroke:#555555;stroke-width:0.8;" x="50.90875" xlink:href="#ma514938825" y="101.3222"/>
      </g>
     </g>
     <g id="text_12">
      <!-- 2000 -->
      <g style="fill:#555555;" transform="translate(15 105.963606)scale(0.13 -0.13)">
       <use xlink:href="#HelveticaNeue-50"/>
       <use x="55.599991" xlink:href="#HelveticaNeue-48"/>
       <use x="111.199982" xlink:href="#HelveticaNeue-48"/>
       <use x="166.799973" xlink:href="#HelveticaNeue-48"/>
      </g>
     </g>
    </g>
    <g id="ytick_6">
     <g id="line2d_24">
      <g>
       <use style="fill:#555555;stroke:#555555;stroke-width:0.8;" x="50.90875" xlink:href="#ma514938825" y="63.774694"/>
      </g>
     </g>
     <g id="text_13">
      <!-- 4000 -->
      <g style="fill:#555555;" transform="translate(15 68.4161)scale(0.13 -0.13)">
       <use xlink:href="#HelveticaNeue-52"/>
       <use x="55.599991" xlink:href="#HelveticaNeue-48"/>
       <use x="111.199982" xlink:href="#HelveticaNeue-48"/>
       <use x="166.799973" xlink:href="#HelveticaNeue-48"/>
      </g>
     </g>
    </g>
   </g>
   <g id="line2d_25">
    <path clip-path="url(#p8e014267d6)" d="M 51.717542 138.681969 
L 53.335126 138.231399 
L 54.143919 138.419136 
L 54.952711 138.43791 
L 55.761503 138.006114 
L 56.570295 137.780829 
L 57.379087 137.949792 
L 59.805463 135.790811 
L 60.614256 134.814576 
L 61.423048 134.138721 
L 62.23184 132.298893 
L 63.040632 134.570517 
L 63.849424 130.928409 
L 64.658216 133.38777 
L 65.467008 130.046042 
L 66.2758 129.895852 
L 67.084593 128.994712 
L 67.893385 134.063626 
L 68.702177 129.013486 
L 69.510969 130.327649 
L 70.319761 132.580499 
L 71.128553 130.665576 
L 71.937345 131.322658 
L 72.746137 130.271327 
L 73.55493 133.23758 
L 74.363722 131.341431 
L 75.172514 134.119947 
L 75.981306 132.205024 
L 76.790098 134.007304 
L 77.59889 129.520377 
L 78.407682 134.720707 
L 79.216474 133.068617 
L 80.025267 133.181259 
L 80.834059 131.378979 
L 81.642851 137.048652 
L 82.451643 130.703124 
L 83.260435 132.524178 
L 84.069227 137.38658 
L 84.878019 132.373988 
L 85.686811 134.758254 
L 86.495604 133.969757 
L 87.304396 137.067426 
L 88.113188 136.297702 
L 88.92198 132.768237 
L 89.730772 134.307684 
L 90.539564 136.18506 
L 91.348356 132.918427 
L 92.157148 136.391571 
L 92.965941 136.109965 
L 93.774733 134.852123 
L 94.583525 137.38658 
L 95.392317 135.546752 
L 97.009901 135.865906 
L 97.818693 134.777028 
L 98.627485 137.311485 
L 99.436278 133.725698 
L 100.24507 133.819567 
L 101.053862 132.205024 
L 101.862654 133.38777 
L 102.671446 135.002313 
L 103.480238 137.405354 
L 104.28903 137.142521 
L 105.097822 132.618047 
L 105.906615 135.959775 
L 106.715407 135.640621 
L 107.524199 136.03487 
L 108.332991 135.190051 
L 109.950575 137.799602 
L 110.759367 135.659395 
L 111.568159 134.270137 
L 112.376952 135.396562 
L 113.185744 135.603073 
L 113.994536 136.260155 
L 114.803328 137.273937 
L 115.61212 134.514196 
L 116.420912 132.805784 
L 117.229704 133.669377 
L 118.038496 134.307684 
L 118.847289 134.213816 
L 119.656081 134.945992 
L 120.464873 134.664386 
L 121.273665 133.293902 
L 122.082457 133.782019 
L 122.891249 132.78701 
L 123.700041 124.58288 
L 124.508834 133.53796 
L 125.317626 133.613056 
L 126.126418 128.656785 
L 126.93521 128.88207 
L 127.744002 127.962156 
L 128.552794 129.069807 
L 129.361586 125.652984 
L 130.170378 125.540342 
L 130.979171 130.440291 
L 131.787963 127.924608 
L 132.596755 120.903225 
L 133.405547 122.254935 
L 134.214339 110.108317 
L 135.023131 113.22476 
L 135.831923 98.46859 
L 136.640715 110.558887 
L 137.449508 108.869249 
L 138.2583 117.448854 
L 139.067092 95.614979 
L 139.875884 100.458607 
L 140.684676 93.474771 
L 141.493468 96.028002 
L 142.30226 101.678901 
L 143.111052 100.083132 
L 143.919845 84.125442 
L 144.728637 101.566259 
L 145.537429 94.188174 
L 146.346221 91.428432 
L 147.155013 71.734765 
L 147.963805 77.498307 
L 148.772597 99.632562 
L 149.581389 91.672491 
L 150.390182 80.520882 
L 151.198974 93.024201 
L 152.007766 79.56342 
L 152.816558 78.568411 
L 153.62535 86.359519 
L 154.434142 91.522301 
L 155.242934 86.528483 
L 156.051726 87.748777 
L 156.860519 75.752348 
L 157.669311 74.588376 
L 158.478103 84.407048 
L 159.286895 90.808898 
L 160.095687 81.853818 
L 160.904479 86.472161 
L 161.713271 86.810089 
L 162.522063 91.071731 
L 163.330856 87.335754 
L 164.139648 111.02823 
L 164.94844 120.959546 
L 165.757232 117.936972 
L 166.566024 116.52894 
L 167.374816 106.428661 
L 168.183608 106.353566 
L 168.9924 104.926761 
L 169.801193 115.515157 
L 170.609985 117.054605 
L 171.418777 110.57766 
L 172.227569 61.127595 
L 173.036361 106.710267 
L 173.845153 107.367349 
L 174.653945 106.109507 
L 175.462737 121.973329 
L 176.27153 125.371378 
L 177.080322 120.771808 
L 177.889114 118.162257 
L 178.697906 118.800564 
L 179.506698 117.411307 
L 180.31549 121.804365 
L 181.933074 127.117337 
L 182.741867 124.357595 
L 183.550659 124.789392 
L 184.359451 127.192432 
L 185.168243 126.460256 
L 185.977035 127.229979 
L 186.785827 129.088581 
L 187.594619 132.280119 
L 188.403411 98.524911 
L 189.212204 132.467857 
L 190.020996 128.018477 
L 190.829788 129.651794 
L 191.63858 128.562916 
L 192.447372 132.392762 
L 193.256164 133.725698 
L 194.064956 131.566716 
L 194.873749 131.228789 
L 195.682541 130.215006 
L 196.491333 129.839531 
L 197.300125 131.078599 
L 198.108917 133.312675 
L 198.917709 134.870897 
L 199.726501 131.566716 
L 200.535293 130.252554 
L 201.344086 130.459065 
L 202.152878 131.641811 
L 202.96167 128.806975 
L 203.770462 132.017286 
L 204.579254 133.763246 
L 205.388046 132.073608 
L 206.196838 132.017286 
L 207.00563 131.510395 
L 207.814423 129.426509 
L 208.623215 131.942191 
L 209.432007 133.575508 
L 210.240799 138.118756 
L 211.049591 127.229979 
L 211.858383 132.974748 
L 212.667175 129.820757 
L 213.475967 129.313866 
L 214.28476 129.764436 
L 215.902344 135.246372 
L 216.711136 130.402744 
L 217.519928 130.778219 
L 218.32872 130.590481 
L 219.137512 131.529169 
L 219.946304 138.869706 
L 220.755097 119.983311 
L 221.563889 133.631829 
L 222.372681 130.609255 
L 223.181473 130.721898 
L 223.990265 128.769427 
L 224.799057 128.919617 
L 225.607849 128.469047 
L 227.225434 131.88587 
L 228.034226 128.356405 
L 228.843018 132.148703 
L 229.65181 122.855695 
L 230.460602 129.107355 
L 231.269394 127.305074 
L 232.078186 133.068617 
L 232.886978 127.962156 
L 233.695771 125.221188 
L 234.504563 124.864487 
L 235.313355 126.234971 
L 236.122147 122.292482 
L 236.930939 132.505404 
L 237.739731 121.635401 
L 238.548523 121.072188 
L 239.357315 122.367577 
L 240.166108 125.803174 
L 240.9749 112.661547 
L 242.592484 123.700514 
L 243.401276 106.766589 
L 244.210068 129.051033 
L 245.01886 131.472848 
L 245.827652 125.390152 
L 246.636445 116.247334 
L 247.445237 103.650145 
L 248.254029 116.585261 
L 249.062821 94.094305 
L 249.871613 119.908216 
L 250.680405 103.537503 
L 251.489197 107.235932 
L 252.297989 102.354757 
L 253.106782 99.613789 
L 253.915574 102.448625 
L 254.724366 106.090733 
L 255.533158 110.72785 
L 256.34195 104.100716 
L 257.150742 99.06935 
L 257.959534 138.869706 
L 258.768326 68.430585 
L 259.577119 111.347384 
L 260.385911 100.87163 
L 261.194703 102.035603 
L 262.003495 98.637553 
L 262.812287 95.82149 
L 263.621079 96.553667 
L 264.429871 91.841455 
L 266.047456 101.340974 
L 266.856248 101.059368 
L 267.66504 104.119489 
L 268.473832 98.91916 
L 269.282624 96.816499 
L 270.091416 99.06935 
L 270.900208 100.214549 
L 271.709001 93.906568 
L 273.326585 98.3184 
L 274.944169 90.395876 
L 275.752961 92.6675 
L 276.561753 94.150626 
L 277.370545 100.965499 
L 278.179338 95.746395 
L 278.98813 95.22073 
L 279.796922 96.760178 
L 280.605714 95.633753 
L 281.414506 138.869706 
L 282.223298 75.470742 
L 283.03209 108.005656 
L 283.840882 100.252096 
L 284.649675 85.833854 
L 285.458467 87.279433 
L 286.267259 83.731193 
L 287.076051 138.869706 
L 287.884843 39.105982 
L 288.693635 109.82671 
L 289.502427 91.46598 
L 290.311219 76.033955 
L 291.120012 79.995217 
L 291.928804 75.545837 
L 292.737596 74.287996 
L 293.546388 88.086704 
L 294.35518 94.807708 
L 295.163972 99.557467 
L 295.972764 83.524682 
L 296.781556 90.658708 
L 297.590349 91.334563 
L 298.399141 88.462179 
L 299.207933 93.662509 
L 300.016725 93.737604 
L 300.825517 104.250906 
L 301.634309 103.668919 
L 302.443101 95.934133 
L 303.251893 98.449816 
L 304.060686 95.708848 
L 304.869478 95.051767 
L 305.67827 105.77158 
L 306.487062 100.758987 
L 308.104646 110.296054 
L 308.913438 101.247105 
L 309.72223 101.134463 
L 310.531023 91.841455 
L 311.339815 111.122099 
L 312.148607 114.407506 
L 312.957399 103.218349 
L 313.766191 115.77799 
L 314.574983 111.704086 
L 315.383775 87.861419 
L 316.192567 111.272289 
L 317.00136 112.304846 
L 317.810152 113.149665 
L 318.618944 111.572669 
L 321.04532 108.02443 
L 321.854112 107.329801 
L 323.471697 129.088581 
L 324.280489 113.787972 
L 325.089281 112.623999 
L 325.898073 123.53155 
L 326.706865 109.770389 
L 327.515657 109.883032 
L 328.324449 117.692913 
L 329.133242 120.208596 
L 329.942034 115.590252 
L 330.750826 118.894433 
L 331.559618 112.135882 
L 332.36841 118.049614 
L 333.177202 117.843103 
L 333.985994 110.690303 
L 334.794786 134.457874 
L 335.603579 102.148245 
L 336.412371 103.800336 
L 337.221163 115.496384 
L 338.029955 112.098334 
L 338.838747 120.771808 
L 339.647539 118.819338 
L 340.456331 122.705505 
L 341.265123 118.349994 
L 342.073916 118.087162 
L 342.882708 116.82932 
L 343.6915 116.547714 
L 344.500292 115.47761 
L 345.309084 124.770618 
L 346.117876 125.728079 
L 346.926668 114.970719 
L 347.73546 120.82813 
L 349.353045 115.684121 
L 350.161837 114.933171 
L 350.970629 121.973329 
L 351.779421 124.169858 
L 352.588213 115.233551 
L 353.397005 119.007076 
L 354.205797 115.364967 
L 355.01459 115.102135 
L 355.823382 114.369959 
L 356.632174 118.931981 
L 357.440966 122.536541 
L 358.249758 114.839302 
L 359.05855 120.52775 
L 359.867342 109.244724 
L 360.676134 111.891823 
L 361.484927 112.361167 
L 363.102511 123.662966 
L 363.911303 110.408697 
L 364.720095 118.969528 
L 365.528887 102.97429 
L 366.337679 108.812928 
L 367.146471 109.301045 
L 367.955264 117.092153 
L 368.764056 131.58549 
L 369.572848 95.239504 
L 370.38164 116.491393 
L 371.190432 111.779181 
L 371.999224 111.384932 
L 372.808016 111.760407 
L 373.616808 105.827901 
L 374.425601 121.466437 
L 375.234393 113.600235 
L 376.043185 117.692913 
L 376.851977 117.054605 
L 377.660769 119.063397 
L 378.469561 110.784172 
L 379.278353 122.386351 
L 380.087145 124.489011 
L 380.895938 119.025849 
L 381.70473 121.710496 
L 382.513522 119.232361 
L 383.322314 121.447663 
L 384.131106 117.411307 
L 384.939898 124.113536 
L 385.74869 125.258735 
L 386.557482 124.169858 
L 387.366275 125.052224 
L 388.175067 124.620428 
L 388.983859 125.521568 
L 389.792651 123.38136 
L 390.601443 126.479029 
L 391.410235 128.938391 
L 392.219027 126.197423 
L 393.027819 128.938391 
L 393.836612 124.320048 
L 395.454196 126.647993 
L 396.262988 128.938391 
L 397.07178 130.158685 
L 397.880572 128.469047 
L 398.689364 129.464056 
L 399.498157 128.750653 
L 400.306949 131.172468 
L 401.115741 125.296283 
L 401.924533 130.177459 
L 402.733325 131.4353 
L 403.542117 134.213816 
L 404.350909 133.031069 
L 405.159701 130.53416 
L 405.968494 131.979739 
L 406.777286 138.869706 
L 408.39487 138.869706 
L 409.203662 118.218578 
L 410.012454 134.814576 
L 410.821246 133.481639 
L 411.630038 257.163125 
L 412.438831 138.869706 
L 416.482791 138.869706 
L 417.291583 99.407277 
L 418.100375 138.869706 
L 422.144336 138.869706 
L 422.953128 105.489973 
L 423.76192 138.869706 
L 427.805881 138.869706 
L 428.614673 100.646345 
L 429.423465 138.869706 
L 433.467426 138.869706 
L 434.276218 83.86261 
L 435.08501 138.869706 
L 438.320179 138.869706 
L 438.320179 138.869706 
" style="fill:none;stroke:#000000;stroke-dasharray:1.5,2.475;stroke-dashoffset:0;stroke-opacity:0.5;stroke-width:1.5;"/>
   </g>
   <g id="line2d_26">
    <path clip-path="url(#p8e014267d6)" d="M 50.90875 138.494231 
L 53.335126 138.400363 
L 55.761503 138.024887 
L 56.570295 137.799602 
L 58.187879 136.93601 
L 58.996671 136.354023 
L 59.805463 135.5843 
L 60.614256 134.983539 
L 61.423048 134.157494 
L 62.23184 133.631829 
L 64.658216 131.510395 
L 65.467008 131.454074 
L 66.2758 130.853314 
L 67.893385 130.68435 
L 70.319761 131.116146 
L 71.128553 131.078599 
L 74.363722 132.373988 
L 75.172514 132.298893 
L 75.981306 132.693142 
L 76.790098 132.693142 
L 77.59889 132.880879 
L 78.407682 132.63682 
L 79.216474 133.143712 
L 80.025267 132.974748 
L 81.642851 133.500413 
L 82.451643 133.53796 
L 84.878019 134.157494 
L 85.686811 134.852123 
L 86.495604 134.945992 
L 87.304396 134.701933 
L 88.113188 135.058635 
L 88.92198 134.833349 
L 89.730772 134.964766 
L 91.348356 134.870897 
L 92.157148 135.415336 
L 92.965941 135.621847 
L 93.774733 135.678168 
L 94.583525 135.978548 
L 95.392317 135.809585 
L 96.201109 135.903453 
L 97.009901 135.753263 
L 100.24507 134.195042 
L 102.671446 134.664386 
L 105.097822 135.640621 
L 106.715407 135.527978 
L 107.524199 135.715716 
L 108.332991 136.109965 
L 110.759367 135.809585 
L 112.376952 135.865906 
L 118.038496 134.119947 
L 118.847289 134.082399 
L 119.656081 134.195042 
L 120.464873 134.063626 
L 121.273665 132.9372 
L 122.891249 132.054834 
L 123.700041 131.341431 
L 126.126418 129.708115 
L 126.93521 129.539151 
L 127.744002 128.412726 
L 128.552794 127.905835 
L 129.361586 127.774418 
L 130.979171 126.178649 
L 132.596755 121.785591 
L 134.214339 114.463827 
L 135.023131 111.516348 
L 135.831923 110.558887 
L 136.640715 107.986882 
L 137.449508 106.82291 
L 138.2583 104.494964 
L 139.067092 103.237123 
L 139.875884 101.284653 
L 140.684676 99.763979 
L 141.493468 96.422251 
L 142.30226 96.722631 
L 143.111052 96.009228 
L 143.919845 95.577432 
L 144.728637 92.6675 
L 145.537429 89.250677 
L 146.346221 88.180573 
L 147.155013 88.311989 
L 147.963805 86.246876 
L 148.772597 86.472161 
L 149.581389 85.946496 
L 150.390182 86.453388 
L 151.198974 86.490935 
L 152.007766 85.270641 
L 152.816558 84.932714 
L 153.62535 85.852627 
L 154.434142 84.538465 
L 155.242934 83.900157 
L 156.860519 83.543456 
L 157.669311 82.567221 
L 158.478103 82.848827 
L 159.286895 83.355718 
L 160.095687 85.36451 
L 160.904479 86.885184 
L 161.713271 89.832663 
L 162.522063 94.094305 
L 164.139648 104.926761 
L 164.94844 108.756606 
L 165.757232 111.140873 
L 166.566024 112.455036 
L 167.374816 112.004466 
L 168.183608 111.215968 
L 168.9924 110.671529 
L 169.801193 105.283462 
L 171.418777 102.655137 
L 172.227569 101.77277 
L 173.036361 102.448625 
L 173.845153 104.870439 
L 174.653945 108.512548 
L 175.462737 115.665347 
L 176.27153 117.711687 
L 177.889114 120.396333 
L 178.697906 120.452655 
L 179.506698 120.846903 
L 180.31549 121.710496 
L 182.741867 125.239962 
L 185.168243 127.229979 
L 185.977035 124.808165 
L 186.785827 124.808165 
L 187.594619 124.395143 
L 188.403411 124.526559 
L 189.212204 124.902034 
L 190.020996 125.878269 
L 190.829788 127.098563 
L 191.63858 130.759445 
L 192.447372 130.890861 
L 193.256164 131.266336 
L 195.682541 131.341431 
L 198.108917 131.810775 
L 199.726501 131.942191 
L 201.344086 131.172468 
L 202.152878 131.059825 
L 202.96167 131.228789 
L 204.579254 131.792001 
L 205.388046 131.623038 
L 206.196838 131.810775 
L 207.00563 131.848323 
L 207.814423 132.33644 
L 208.623215 132.111155 
L 209.432007 132.298893 
L 211.049591 131.960965 
L 211.858383 131.4353 
L 212.667175 131.078599 
L 213.475967 130.872088 
L 214.28476 131.360205 
L 215.093552 131.322658 
L 216.711136 131.660585 
L 217.519928 132.48663 
L 218.32872 131.28511 
L 219.137512 130.965956 
L 220.755097 130.759445 
L 222.372681 130.08359 
L 223.181473 129.144902 
L 223.990265 130.008495 
L 225.607849 129.576699 
L 226.416641 129.820757 
L 227.225434 129.313866 
L 228.034226 129.144902 
L 228.843018 128.788201 
L 229.65181 128.88207 
L 231.269394 128.318857 
L 232.078186 127.643002 
L 232.886978 127.774418 
L 233.695771 126.779409 
L 234.504563 126.910826 
L 235.313355 125.7844 
L 236.122147 125.089772 
L 236.930939 124.639202 
L 237.739731 124.470238 
L 238.548523 122.893242 
L 239.357315 121.87946 
L 240.166108 120.640392 
L 240.9749 118.913207 
L 241.783692 119.213587 
L 242.592484 120.208596 
L 243.401276 120.921998 
L 244.210068 121.954555 
L 245.827652 119.438872 
L 247.445237 114.27609 
L 248.254029 110.671529 
L 249.062821 108.512548 
L 249.871613 107.085742 
L 250.680405 106.334792 
L 251.489197 104.607607 
L 252.297989 105.152046 
L 253.106782 104.119489 
L 253.915574 104.419869 
L 254.724366 103.931752 
L 255.533158 107.87424 
L 256.34195 105.565068 
L 257.150742 105.884222 
L 257.959534 104.832892 
L 258.768326 103.443634 
L 260.385911 101.434843 
L 261.194703 97.567449 
L 262.003495 99.388504 
L 262.812287 97.360938 
L 263.621079 97.079332 
L 264.429871 97.041784 
L 266.047456 98.844065 
L 266.856248 99.294635 
L 267.66504 100.026811 
L 268.473832 100.158227 
L 270.091416 98.355947 
L 270.900208 97.586223 
L 271.709001 97.004237 
L 274.135377 94.282043 
L 274.944169 94.77016 
L 276.561753 94.864029 
L 278.179338 96.103097 
L 278.98813 100.946725 
L 279.796922 100.27087 
L 280.605714 101.434843 
L 281.414506 102.204566 
L 282.223298 101.040594 
L 283.03209 99.031802 
L 283.840882 96.196965 
L 284.649675 95.82149 
L 285.458467 92.592405 
L 286.267259 92.029192 
L 287.076051 91.203147 
L 287.884843 90.020401 
L 288.693635 88.443405 
L 289.502427 86.340745 
L 290.311219 79.807479 
L 291.120012 83.449587 
L 291.928804 81.647307 
L 292.737596 83.336945 
L 295.163972 89.701247 
L 295.972764 91.052957 
L 296.781556 91.297016 
L 297.590349 91.109278 
L 298.399141 92.010419 
L 299.207933 94.713839 
L 300.825517 97.454807 
L 301.634309 98.449816 
L 302.443101 98.449816 
L 303.251893 99.21954 
L 304.060686 98.881612 
L 304.869478 99.426051 
L 305.67827 101.434843 
L 307.295854 103.406087 
L 308.104646 102.955517 
L 308.913438 103.030612 
L 309.72223 104.194584 
L 310.531023 104.232132 
L 311.339815 105.396105 
L 312.148607 107.329801 
L 312.957399 106.616398 
L 313.766191 107.930561 
L 314.574983 107.517539 
L 315.383775 107.367349 
L 316.192567 108.399905 
L 317.00136 108.475 
L 317.810152 109.000665 
L 318.618944 111.009457 
L 319.427736 110.333602 
L 320.236528 110.596434 
L 321.04532 112.417488 
L 322.662904 114.520149 
L 323.471697 116.472619 
L 324.280489 116.923189 
L 325.089281 116.772999 
L 325.898073 116.134691 
L 326.706865 115.120909 
L 327.515657 115.421289 
L 328.324449 116.153465 
L 329.133242 115.421289 
L 329.942034 116.359976 
L 330.750826 117.054605 
L 331.559618 116.22856 
L 332.36841 117.599044 
L 333.177202 116.660356 
L 333.985994 115.064587 
L 334.794786 114.764207 
L 335.603579 113.581461 
L 336.412371 113.468818 
L 337.221163 114.238542 
L 338.029955 113.956936 
L 338.838747 116.472619 
L 339.647539 118.349994 
L 341.265123 118.950754 
L 342.073916 118.162257 
L 342.882708 118.48141 
L 343.6915 118.950754 
L 344.500292 119.044623 
L 345.309084 119.589062 
L 346.117876 119.870668 
L 346.926668 119.664157 
L 347.73546 119.157266 
L 348.544253 118.48141 
L 349.353045 118.387542 
L 350.161837 118.612827 
L 350.970629 118.612827 
L 352.588213 118.256125 
L 353.397005 117.768008 
L 354.205797 117.073379 
L 355.01459 116.923189 
L 355.823382 117.073379 
L 356.632174 117.448854 
L 357.440966 117.035831 
L 358.249758 116.491393 
L 359.867342 115.083361 
L 360.676134 115.120909 
L 361.484927 114.970719 
L 362.293719 115.196004 
L 363.102511 114.782981 
L 363.911303 114.050805 
L 364.720095 112.961927 
L 365.528887 112.229751 
L 366.337679 113.112117 
L 367.146471 112.286072 
L 367.955264 112.417488 
L 368.764056 113.393723 
L 369.572848 113.393723 
L 370.38164 113.149665 
L 371.190432 111.647764 
L 371.999224 110.802945 
L 372.808016 112.77419 
L 373.616808 113.168438 
L 374.425601 114.144673 
L 375.234393 115.364967 
L 376.043185 115.6278 
L 376.851977 117.167248 
L 377.660769 117.636592 
L 379.278353 119.232361 
L 381.70473 120.82813 
L 382.513522 120.809356 
L 383.322314 120.97832 
L 387.366275 124.657975 
L 388.175067 124.864487 
L 390.601443 126.272518 
L 394.645404 127.023468 
L 396.262988 127.774418 
L 397.880572 129.107355 
L 398.689364 129.013486 
L 400.306949 129.163676 
L 401.924533 130.440291 
L 402.733325 130.928409 
L 403.542117 131.28511 
L 404.350909 132.768237 
L 405.968494 134.964766 
L 406.777286 133.744472 
L 408.39487 133.575508 
L 409.203662 146.397981 
L 410.821246 153.963804 
L 411.630038 155.935048 
L 412.438831 157.286758 
L 413.247623 154.902492 
L 414.056415 151.448121 
L 414.865207 134.683159 
L 415.673999 133.331449 
L 416.482791 132.33644 
L 417.291583 131.960965 
L 418.100375 132.33644 
L 418.909168 133.331449 
L 419.71796 134.683159 
L 420.526752 135.321467 
L 421.335544 134.195042 
L 422.144336 133.331449 
L 422.953128 133.012295 
L 423.76192 133.331449 
L 424.570712 134.195042 
L 425.379505 135.321467 
L 426.188297 134.814576 
L 426.997089 133.500413 
L 427.805881 132.524178 
L 428.614673 132.167477 
L 429.423465 132.524178 
L 430.232257 133.500413 
L 431.041049 134.814576 
L 432.658634 131.153694 
L 433.467426 129.745662 
L 434.276218 129.238771 
L 435.08501 129.745662 
L 435.893802 131.153694 
L 436.702594 132.33644 
L 437.511386 138.869706 
L 438.320179 138.869706 
L 438.320179 138.869706 
" style="fill:none;stroke:#b3220f;stroke-linecap:square;stroke-width:1.5;"/>
   </g>
   <g id="patch_3">
    <path d="M 50.90875 268.065982 
L 50.90875 28.203125 
" style="fill:none;stroke:#555555;stroke-linecap:square;stroke-linejoin:miter;"/>
   </g>
   <g id="patch_4">
    <path d="M 50.90875 268.065982 
L 438.320179 268.065982 
" style="fill:none;stroke:#555555;stroke-linecap:square;stroke-linejoin:miter;"/>
   </g>
   <g id="text_14">
    <!-- Miami-Dade | New Cases per Day as of [2021-07-07] -->
    <g style="fill:#555555;" transform="translate(79.562121 18.203125)scale(0.14 -0.14)">
     <defs>
      <path d="M 8 71.40625 
L 8 0 
L 17 0 
L 17 59.40625 
L 17.203125 59.40625 
L 39.5 0 
L 47.59375 0 
L 69.90625 59.40625 
L 70.09375 59.40625 
L 70.09375 0 
L 79.09375 0 
L 79.09375 71.40625 
L 66.09375 71.40625 
L 43.5 11.40625 
L 21 71.40625 
z
" id="HelveticaNeue-77"/>
      <path d="M 15.40625 61 
L 15.40625 71.40625 
L 6.90625 71.40625 
L 6.90625 61 
z
M 6.90625 51.703125 
L 6.90625 0 
L 15.40625 0 
L 15.40625 51.703125 
z
" id="HelveticaNeue-105"/>
      <path d="M 6.40625 51.703125 
L 6.40625 0 
L 14.90625 0 
L 14.90625 32.203125 
Q 14.90625 33.703125 15.65625 35.953125 
Q 16.40625 38.203125 18.046875 40.296875 
Q 19.703125 42.40625 22.34375 43.90625 
Q 25 45.40625 28.703125 45.40625 
Q 31.59375 45.40625 33.4375 44.546875 
Q 35.296875 43.703125 36.390625 42.140625 
Q 37.5 40.59375 37.953125 38.5 
Q 38.40625 36.40625 38.40625 33.90625 
L 38.40625 0 
L 46.90625 0 
L 46.90625 32.203125 
Q 46.90625 38.203125 50.5 41.796875 
Q 54.09375 45.40625 60.40625 45.40625 
Q 63.5 45.40625 65.453125 44.5 
Q 67.40625 43.59375 68.5 42.046875 
Q 69.59375 40.5 70 38.390625 
Q 70.40625 36.296875 70.40625 33.90625 
L 70.40625 0 
L 78.90625 0 
L 78.90625 37.90625 
Q 78.90625 41.90625 77.65625 44.75 
Q 76.40625 47.59375 74.15625 49.390625 
Q 71.90625 51.203125 68.75 52.046875 
Q 65.59375 52.90625 61.703125 52.90625 
Q 56.59375 52.90625 52.34375 50.59375 
Q 48.09375 48.296875 45.5 44.09375 
Q 43.90625 48.90625 40 50.90625 
Q 36.09375 52.90625 31.296875 52.90625 
Q 20.40625 52.90625 14.59375 44.09375 
L 14.40625 44.09375 
L 14.40625 51.703125 
z
" id="HelveticaNeue-109"/>
      <path d="M 5 31.796875 
L 5 23.796875 
L 33.90625 23.796875 
L 33.90625 31.796875 
z
" id="HelveticaNeue-45"/>
      <path d="M 17.296875 8 
L 17.296875 63.40625 
L 33.296875 63.40625 
Q 39.90625 63.40625 44.40625 61.546875 
Q 48.90625 59.703125 51.75 56.140625 
Q 54.59375 52.59375 55.84375 47.546875 
Q 57.09375 42.5 57.09375 36.09375 
Q 57.09375 29.5 55.75 24.84375 
Q 54.40625 20.203125 52.296875 17.09375 
Q 50.203125 14 47.546875 12.203125 
Q 44.90625 10.40625 42.203125 9.453125 
Q 39.5 8.5 37.09375 8.25 
Q 34.703125 8 33.09375 8 
z
M 7.796875 71.40625 
L 7.796875 0 
L 32.296875 0 
Q 41.203125 0 47.703125 2.5 
Q 54.203125 5 58.390625 9.75 
Q 62.59375 14.5 64.59375 21.453125 
Q 66.59375 28.40625 66.59375 37.40625 
Q 66.59375 54.59375 57.6875 63 
Q 48.796875 71.40625 32.296875 71.40625 
z
" id="HelveticaNeue-68"/>
      <path id="HelveticaNeue-32"/>
      <path d="M 7.703125 78.59375 
L 7.703125 -21.296875 
L 14.5 -21.296875 
L 14.5 78.59375 
z
" id="HelveticaNeue-124"/>
      <path d="M 7.703125 71.40625 
L 7.703125 0 
L 16.703125 0 
L 16.703125 57.296875 
L 16.90625 57.296875 
L 54.203125 0 
L 64.59375 0 
L 64.59375 71.40625 
L 55.59375 71.40625 
L 55.59375 13.5 
L 55.40625 13.5 
L 17.796875 71.40625 
z
" id="HelveticaNeue-78"/>
      <path d="M 57.59375 0 
L 74.09375 51.703125 
L 65.296875 51.703125 
L 53.703125 9.40625 
L 53.5 9.40625 
L 42.703125 51.703125 
L 33.40625 51.703125 
L 23 9.40625 
L 22.796875 9.40625 
L 11.09375 51.703125 
L 1.703125 51.703125 
L 18.296875 0 
L 27.5 0 
L 37.90625 41.09375 
L 38.09375 41.09375 
L 48.59375 0 
z
" id="HelveticaNeue-119"/>
      <path d="M 58 49.90625 
L 67.5 49.90625 
Q 66.703125 55.59375 64.09375 59.9375 
Q 61.5 64.296875 57.59375 67.1875 
Q 53.703125 70.09375 48.703125 71.59375 
Q 43.703125 73.09375 38.09375 73.09375 
Q 29.90625 73.09375 23.546875 70.140625 
Q 17.203125 67.203125 12.953125 62.09375 
Q 8.703125 57 6.5 50.140625 
Q 4.296875 43.296875 4.296875 35.5 
Q 4.296875 27.703125 6.34375 20.890625 
Q 8.40625 14.09375 12.5 9.09375 
Q 16.59375 4.09375 22.796875 1.25 
Q 29 -1.59375 37.296875 -1.59375 
Q 51 -1.59375 58.890625 5.90625 
Q 66.796875 13.40625 68.203125 26.90625 
L 58.703125 26.90625 
Q 58.40625 22.5 56.90625 18.703125 
Q 55.40625 14.90625 52.75 12.15625 
Q 50.09375 9.40625 46.4375 7.84375 
Q 42.796875 6.296875 38.09375 6.296875 
Q 31.703125 6.296875 27.09375 8.6875 
Q 22.5 11.09375 19.546875 15.140625 
Q 16.59375 19.203125 15.1875 24.640625 
Q 13.796875 30.09375 13.796875 36.203125 
Q 13.796875 41.796875 15.1875 47 
Q 16.59375 52.203125 19.546875 56.25 
Q 22.5 60.296875 27.046875 62.6875 
Q 31.59375 65.09375 38 65.09375 
Q 45.5 65.09375 50.953125 61.296875 
Q 56.40625 57.5 58 49.90625 
z
" id="HelveticaNeue-67"/>
      <path d="M 11.59375 16.296875 
L 3.09375 16.296875 
Q 3.296875 11.5 5.09375 8.140625 
Q 6.90625 4.796875 9.90625 2.75 
Q 12.90625 0.703125 16.796875 -0.1875 
Q 20.703125 -1.09375 25 -1.09375 
Q 28.90625 -1.09375 32.84375 -0.34375 
Q 36.796875 0.40625 39.9375 2.296875 
Q 43.09375 4.203125 45.046875 7.296875 
Q 47 10.40625 47 15.09375 
Q 47 18.796875 45.546875 21.296875 
Q 44.09375 23.796875 41.75 25.4375 
Q 39.40625 27.09375 36.34375 28.09375 
Q 33.296875 29.09375 30.09375 29.796875 
Q 27.09375 30.5 24.09375 31.140625 
Q 21.09375 31.796875 18.6875 32.75 
Q 16.296875 33.703125 14.75 35.140625 
Q 13.203125 36.59375 13.203125 38.796875 
Q 13.203125 40.796875 14.203125 42.046875 
Q 15.203125 43.296875 16.796875 44.046875 
Q 18.40625 44.796875 20.34375 45.09375 
Q 22.296875 45.40625 24.203125 45.40625 
Q 26.296875 45.40625 28.34375 44.953125 
Q 30.40625 44.5 32.09375 43.5 
Q 33.796875 42.5 34.890625 40.84375 
Q 36 39.203125 36.203125 36.703125 
L 44.703125 36.703125 
Q 44.40625 41.40625 42.703125 44.546875 
Q 41 47.703125 38.140625 49.546875 
Q 35.296875 51.40625 31.59375 52.15625 
Q 27.90625 52.90625 23.5 52.90625 
Q 20.09375 52.90625 16.640625 52.046875 
Q 13.203125 51.203125 10.453125 49.453125 
Q 7.703125 47.703125 5.953125 44.890625 
Q 4.203125 42.09375 4.203125 38.203125 
Q 4.203125 33.203125 6.703125 30.390625 
Q 9.203125 27.59375 12.953125 26.046875 
Q 16.703125 24.5 21.09375 23.640625 
Q 25.5 22.796875 29.25 21.75 
Q 33 20.703125 35.5 19 
Q 38 17.296875 38 14 
Q 38 11.59375 36.796875 10.046875 
Q 35.59375 8.5 33.75 7.703125 
Q 31.90625 6.90625 29.703125 6.59375 
Q 27.5 6.296875 25.5 6.296875 
Q 22.90625 6.296875 20.453125 6.796875 
Q 18 7.296875 16.046875 8.4375 
Q 14.09375 9.59375 12.890625 11.546875 
Q 11.703125 13.5 11.59375 16.296875 
z
" id="HelveticaNeue-115"/>
      <path d="M 26.703125 -6.90625 
Q 25.203125 -10.703125 23.75 -13.296875 
Q 22.296875 -15.90625 20.546875 -17.546875 
Q 18.796875 -19.203125 16.640625 -19.953125 
Q 14.5 -20.703125 11.703125 -20.703125 
Q 10.203125 -20.703125 8.703125 -20.5 
Q 7.203125 -20.296875 5.796875 -19.796875 
L 5.796875 -12 
Q 6.90625 -12.5 8.34375 -12.84375 
Q 9.796875 -13.203125 10.796875 -13.203125 
Q 13.40625 -13.203125 15.15625 -11.953125 
Q 16.90625 -10.703125 17.796875 -8.40625 
L 21.296875 0.296875 
L 0.796875 51.703125 
L 10.40625 51.703125 
L 25.5 9.40625 
L 25.703125 9.40625 
L 40.203125 51.703125 
L 49.203125 51.703125 
z
" id="HelveticaNeue-121"/>
      <path d="M 12.59375 25.796875 
Q 12.59375 30.5 13.84375 34.140625 
Q 15.09375 37.796875 17.296875 40.296875 
Q 19.5 42.796875 22.453125 44.09375 
Q 25.40625 45.40625 28.703125 45.40625 
Q 32 45.40625 34.953125 44.09375 
Q 37.90625 42.796875 40.09375 40.296875 
Q 42.296875 37.796875 43.546875 34.140625 
Q 44.796875 30.5 44.796875 25.796875 
Q 44.796875 21.09375 43.546875 17.4375 
Q 42.296875 13.796875 40.09375 11.34375 
Q 37.90625 8.90625 34.953125 7.59375 
Q 32 6.296875 28.703125 6.296875 
Q 25.40625 6.296875 22.453125 7.59375 
Q 19.5 8.90625 17.296875 11.34375 
Q 15.09375 13.796875 13.84375 17.4375 
Q 12.59375 21.09375 12.59375 25.796875 
z
M 3.59375 25.796875 
Q 3.59375 20.09375 5.1875 15.1875 
Q 6.796875 10.296875 10 6.640625 
Q 13.203125 3 17.890625 0.953125 
Q 22.59375 -1.09375 28.703125 -1.09375 
Q 34.90625 -1.09375 39.546875 0.953125 
Q 44.203125 3 47.390625 6.640625 
Q 50.59375 10.296875 52.1875 15.1875 
Q 53.796875 20.09375 53.796875 25.796875 
Q 53.796875 31.5 52.1875 36.453125 
Q 50.59375 41.40625 47.390625 45.046875 
Q 44.203125 48.703125 39.546875 50.796875 
Q 34.90625 52.90625 28.703125 52.90625 
Q 22.59375 52.90625 17.890625 50.796875 
Q 13.203125 48.703125 10 45.046875 
Q 6.796875 41.40625 5.1875 36.453125 
Q 3.59375 31.5 3.59375 25.796875 
z
" id="HelveticaNeue-111"/>
      <path d="M 9.90625 44.203125 
L 9.90625 0 
L 18.40625 0 
L 18.40625 44.203125 
L 28.40625 44.203125 
L 28.40625 51.703125 
L 18.40625 51.703125 
L 18.40625 58.90625 
Q 18.40625 62.296875 20.09375 63.5 
Q 21.796875 64.703125 24.90625 64.703125 
Q 26 64.703125 27.296875 64.546875 
Q 28.59375 64.40625 29.703125 64 
L 29.703125 71.40625 
Q 28.5 71.796875 26.953125 72 
Q 25.40625 72.203125 24.203125 72.203125 
Q 17.203125 72.203125 13.546875 68.953125 
Q 9.90625 65.703125 9.90625 59.40625 
L 9.90625 51.703125 
L 1.203125 51.703125 
L 1.203125 44.203125 
z
" id="HelveticaNeue-102"/>
      <path d="M 25.90625 66.296875 
L 25.90625 73.09375 
L 7.203125 73.09375 
L 7.203125 -19.703125 
L 25.90625 -19.703125 
L 25.90625 -12.90625 
L 15.203125 -12.90625 
L 15.203125 66.296875 
z
" id="HelveticaNeue-91"/>
      <path d="M 50.90625 62.40625 
L 50.90625 69.703125 
L 5 69.703125 
L 5 61.703125 
L 42.203125 61.703125 
Q 36.59375 55.796875 31.75 48.796875 
Q 26.90625 41.796875 23.203125 33.9375 
Q 19.5 26.09375 17.140625 17.546875 
Q 14.796875 9 14.203125 0 
L 23.703125 0 
Q 24.203125 8.296875 26.5 17.09375 
Q 28.796875 25.90625 32.4375 34.203125 
Q 36.09375 42.5 40.796875 49.796875 
Q 45.5 57.09375 50.90625 62.40625 
z
" id="HelveticaNeue-55"/>
      <path d="M 0 -12.90625 
L 0 -19.703125 
L 18.703125 -19.703125 
L 18.703125 73.09375 
L 0 73.09375 
L 0 66.296875 
L 10.703125 66.296875 
L 10.703125 -12.90625 
z
" id="HelveticaNeue-93"/>
     </defs>
     <use xlink:href="#HelveticaNeue-77"/>
     <use x="87.099991" xlink:href="#HelveticaNeue-105"/>
     <use x="109.299988" xlink:href="#HelveticaNeue-97"/>
     <use x="162.999985" xlink:href="#HelveticaNeue-109"/>
     <use x="248.299973" xlink:href="#HelveticaNeue-105"/>
     <use x="270.499969" xlink:href="#HelveticaNeue-45"/>
     <use x="309.399963" xlink:href="#HelveticaNeue-68"/>
     <use x="379.799957" xlink:href="#HelveticaNeue-97"/>
     <use x="433.499954" xlink:href="#HelveticaNeue-100"/>
     <use x="492.799942" xlink:href="#HelveticaNeue-101"/>
     <use x="546.499939" xlink:href="#HelveticaNeue-32"/>
     <use x="574.299927" xlink:href="#HelveticaNeue-124"/>
     <use x="596.499924" xlink:href="#HelveticaNeue-32"/>
     <use x="624.299911" xlink:href="#HelveticaNeue-78"/>
     <use x="696.499893" xlink:href="#HelveticaNeue-101"/>
     <use x="750.19989" xlink:href="#HelveticaNeue-119"/>
     <use x="825.999878" xlink:href="#HelveticaNeue-32"/>
     <use x="853.799866" xlink:href="#HelveticaNeue-67"/>
     <use x="925.999847" xlink:href="#HelveticaNeue-97"/>
     <use x="979.699844" xlink:href="#HelveticaNeue-115"/>
     <use x="1029.699829" xlink:href="#HelveticaNeue-101"/>
     <use x="1083.399826" xlink:href="#HelveticaNeue-115"/>
     <use x="1133.399811" xlink:href="#HelveticaNeue-32"/>
     <use x="1161.199799" xlink:href="#HelveticaNeue-112"/>
     <use x="1220.499786" xlink:href="#HelveticaNeue-101"/>
     <use x="1274.199783" xlink:href="#HelveticaNeue-114"/>
     <use x="1307.499771" xlink:href="#HelveticaNeue-32"/>
     <use x="1335.299759" xlink:href="#HelveticaNeue-68"/>
     <use x="1405.699753" xlink:href="#HelveticaNeue-97"/>
     <use x="1459.39975" xlink:href="#HelveticaNeue-121"/>
     <use x="1509.399734" xlink:href="#HelveticaNeue-32"/>
     <use x="1537.199722" xlink:href="#HelveticaNeue-97"/>
     <use x="1590.899719" xlink:href="#HelveticaNeue-115"/>
     <use x="1640.899704" xlink:href="#HelveticaNeue-32"/>
     <use x="1668.699692" xlink:href="#HelveticaNeue-111"/>
     <use x="1726.099686" xlink:href="#HelveticaNeue-102"/>
     <use x="1755.699677" xlink:href="#HelveticaNeue-32"/>
     <use x="1783.499664" xlink:href="#HelveticaNeue-91"/>
     <use x="1809.399658" xlink:href="#HelveticaNeue-50"/>
     <use x="1864.999649" xlink:href="#HelveticaNeue-48"/>
     <use x="1920.59964" xlink:href="#HelveticaNeue-50"/>
     <use x="1976.199631" xlink:href="#HelveticaNeue-49"/>
     <use x="2031.799622" xlink:href="#HelveticaNeue-45"/>
     <use x="2070.699615" xlink:href="#HelveticaNeue-48"/>
     <use x="2126.299606" xlink:href="#HelveticaNeue-55"/>
     <use x="2181.899597" xlink:href="#HelveticaNeue-45"/>
     <use x="2220.799591" xlink:href="#HelveticaNeue-48"/>
     <use x="2276.399582" xlink:href="#HelveticaNeue-55"/>
     <use x="2331.999573" xlink:href="#HelveticaNeue-93"/>
    </g>
   </g>
   <g id="legend_1">
    <g id="line2d_27">
     <path d="M 304.255647 44.635937 
L 330.255647 44.635937 
" style="fill:none;stroke:#000000;stroke-dasharray:1.5,2.475;stroke-dashoffset:0;stroke-opacity:0.5;stroke-width:1.5;"/>
    </g>
    <g id="line2d_28"/>
    <g id="text_15">
     <!-- Actual -->
     <g style="fill:#555555;" transform="translate(340.655647 49.185937)scale(0.13 -0.13)">
      <use xlink:href="#HelveticaNeue-65"/>
      <use x="64.799988" xlink:href="#HelveticaNeue-99"/>
      <use x="118.499985" xlink:href="#HelveticaNeue-116"/>
      <use x="149.999969" xlink:href="#HelveticaNeue-117"/>
      <use x="205.59996" xlink:href="#HelveticaNeue-97"/>
      <use x="259.299957" xlink:href="#HelveticaNeue-108"/>
     </g>
    </g>
    <g id="line2d_29">
     <path d="M 304.255647 62.980156 
L 330.255647 62.980156 
" style="fill:none;stroke:#b3220f;stroke-linecap:square;stroke-width:1.5;"/>
    </g>
    <g id="line2d_30"/>
    <g id="text_16">
     <!-- 7-Day Average -->
     <g style="fill:#555555;" transform="translate(340.655647 67.530156)scale(0.13 -0.13)">
      <defs>
       <path d="M 29.703125 0 
L 48.59375 51.703125 
L 39.703125 51.703125 
L 25.59375 8.59375 
L 25.40625 8.59375 
L 10.90625 51.703125 
L 1.40625 51.703125 
L 20.59375 0 
z
" id="HelveticaNeue-118"/>
       <path d="M 51 4.40625 
L 51 51.703125 
L 43 51.703125 
L 43 44.296875 
L 42.90625 44.296875 
Q 40.59375 48.59375 36.5 50.75 
Q 32.40625 52.90625 27.5 52.90625 
Q 20.796875 52.90625 16.1875 50.34375 
Q 11.59375 47.796875 8.796875 43.84375 
Q 6 39.90625 4.796875 35.046875 
Q 3.59375 30.203125 3.59375 25.59375 
Q 3.59375 20.296875 5.046875 15.546875 
Q 6.5 10.796875 9.390625 7.25 
Q 12.296875 3.703125 16.59375 1.59375 
Q 20.90625 -0.5 26.703125 -0.5 
Q 31.703125 -0.5 36.140625 1.75 
Q 40.59375 4 42.796875 8.796875 
L 43 8.796875 
L 43 5.40625 
Q 43 1.09375 42.140625 -2.5 
Q 41.296875 -6.09375 39.390625 -8.640625 
Q 37.5 -11.203125 34.59375 -12.640625 
Q 31.703125 -14.09375 27.5 -14.09375 
Q 25.40625 -14.09375 23.09375 -13.640625 
Q 20.796875 -13.203125 18.84375 -12.203125 
Q 16.90625 -11.203125 15.546875 -9.59375 
Q 14.203125 -8 14.09375 -5.703125 
L 5.59375 -5.703125 
Q 5.796875 -9.90625 7.796875 -12.796875 
Q 9.796875 -15.703125 12.84375 -17.5 
Q 15.90625 -19.296875 19.65625 -20.09375 
Q 23.40625 -20.90625 27 -20.90625 
Q 39.40625 -20.90625 45.203125 -14.59375 
Q 51 -8.296875 51 4.40625 
z
M 27.203125 6.90625 
Q 23 6.90625 20.203125 8.65625 
Q 17.40625 10.40625 15.703125 13.25 
Q 14 16.09375 13.296875 19.59375 
Q 12.59375 23.09375 12.59375 26.59375 
Q 12.59375 30.296875 13.4375 33.6875 
Q 14.296875 37.09375 16.140625 39.6875 
Q 18 42.296875 20.890625 43.84375 
Q 23.796875 45.40625 27.90625 45.40625 
Q 31.90625 45.40625 34.703125 43.796875 
Q 37.5 42.203125 39.25 39.546875 
Q 41 36.90625 41.796875 33.59375 
Q 42.59375 30.296875 42.59375 26.90625 
Q 42.59375 23.296875 41.75 19.6875 
Q 40.90625 16.09375 39.09375 13.25 
Q 37.296875 10.40625 34.34375 8.65625 
Q 31.40625 6.90625 27.203125 6.90625 
z
" id="HelveticaNeue-103"/>
      </defs>
      <use xlink:href="#HelveticaNeue-55"/>
      <use x="55.599991" xlink:href="#HelveticaNeue-45"/>
      <use x="94.499985" xlink:href="#HelveticaNeue-68"/>
      <use x="164.899979" xlink:href="#HelveticaNeue-97"/>
      <use x="218.599976" xlink:href="#HelveticaNeue-121"/>
      <use x="268.59996" xlink:href="#HelveticaNeue-32"/>
      <use x="296.399948" xlink:href="#HelveticaNeue-65"/>
      <use x="359.449936" xlink:href="#HelveticaNeue-118"/>
      <use x="409.449921" xlink:href="#HelveticaNeue-101"/>
      <use x="463.149918" xlink:href="#HelveticaNeue-114"/>
      <use x="496.449905" xlink:href="#HelveticaNeue-97"/>
      <use x="550.149902" xlink:href="#HelveticaNeue-103"/>
      <use x="607.549896" xlink:href="#HelveticaNeue-101"/>
     </g>
    </g>
   </g>
  </g>
 </g>
 <defs>
  <clipPath id="p8e014267d6">
   <rect height="239.862857" width="387.411429" x="50.90875" y="28.203125"/>
  </clipPath>
 </defs>
</svg>
