<?xml version="1.0" encoding="utf-8" standalone="no"?>
<!DOCTYPE svg PUBLIC "-//W3C//DTD SVG 1.1//EN"
  "http://www.w3.org/Graphics/SVG/1.1/DTD/svg11.dtd">
<!-- Created with matplotlib (https://matplotlib.org/) -->
<svg height="323.655201pt" version="1.1" viewBox="0 0 445.520179 323.655201" width="445.520179pt" xmlns="http://www.w3.org/2000/svg" xmlns:xlink="http://www.w3.org/1999/xlink">
 <metadata>
  <rdf:RDF xmlns:cc="http://creativecommons.org/ns#" xmlns:dc="http://purl.org/dc/elements/1.1/" xmlns:rdf="http://www.w3.org/1999/02/22-rdf-syntax-ns#">
   <cc:Work>
    <dc:type rdf:resource="http://purl.org/dc/dcmitype/StillImage"/>
    <dc:date>2021-06-18T19:00:37.373892</dc:date>
    <dc:format>image/svg+xml</dc:format>
    <dc:creator>
     <cc:Agent>
      <dc:title>Matplotlib v3.3.4, https://matplotlib.org/</dc:title>
     </cc:Agent>
    </dc:creator>
   </cc:Work>
  </rdf:RDF>
 </metadata>
 <defs>
  <style type="text/css">*{stroke-linecap:butt;stroke-linejoin:round;}</style>
 </defs>
 <g id="figure_1">
  <g id="patch_1">
   <path d="M 0 323.655201 
L 445.520179 323.655201 
L 445.520179 0 
L 0 0 
z
" style="fill:#ffffff;"/>
  </g>
  <g id="axes_1">
   <g id="patch_2">
    <path d="M 50.90875 268.065982 
L 438.320179 268.065982 
L 438.320179 28.203125 
L 50.90875 28.203125 
z
" style="fill:#ffffff;"/>
   </g>
   <g id="matplotlib.axis_1">
    <g id="xtick_1">
     <g id="line2d_1">
      <defs>
       <path d="M 0 0 
L 0 3.5 
" id="m1f25ca376b" style="stroke:#555555;stroke-width:0.8;"/>
      </defs>
      <g>
       <use style="fill:#555555;stroke:#555555;stroke-width:0.8;" x="50.90875" xlink:href="#m1f25ca376b" y="268.065982"/>
      </g>
     </g>
    </g>
    <g id="xtick_2">
     <g id="line2d_2">
      <g>
       <use style="fill:#555555;stroke:#555555;stroke-width:0.8;" x="65.257321" xlink:href="#m1f25ca376b" y="268.065982"/>
      </g>
     </g>
     <g id="text_1">
      <!-- Apr -->
      <g style="fill:#555555;" transform="translate(55.026931 284.348795)scale(0.13 -0.13)">
       <defs>
        <path d="M 20.09375 29.5 
L 32.203125 62.796875 
L 32.40625 62.796875 
L 44.296875 29.5 
z
M 27.203125 71.40625 
L -0.59375 0 
L 9.09375 0 
L 17.09375 21.5 
L 47.296875 21.5 
L 55.09375 0 
L 65.59375 0 
L 37.703125 71.40625 
z
" id="HelveticaNeue-65"/>
        <path d="M 6.703125 51.703125 
L 6.703125 -19.703125 
L 15.203125 -19.703125 
L 15.203125 6.90625 
L 15.40625 6.90625 
Q 16.796875 4.59375 18.84375 3.046875 
Q 20.90625 1.5 23.203125 0.59375 
Q 25.5 -0.296875 27.84375 -0.6875 
Q 30.203125 -1.09375 32.09375 -1.09375 
Q 38 -1.09375 42.453125 1 
Q 46.90625 3.09375 49.84375 6.75 
Q 52.796875 10.40625 54.25 15.296875 
Q 55.703125 20.203125 55.703125 25.703125 
Q 55.703125 31.203125 54.203125 36.09375 
Q 52.703125 41 49.75 44.75 
Q 46.796875 48.5 42.34375 50.703125 
Q 37.90625 52.90625 31.90625 52.90625 
Q 26.5 52.90625 22 50.953125 
Q 17.5 49 15.40625 44.703125 
L 15.203125 44.703125 
L 15.203125 51.703125 
z
M 46.703125 26.296875 
Q 46.703125 22.5 45.890625 18.890625 
Q 45.09375 15.296875 43.296875 12.5 
Q 41.5 9.703125 38.546875 8 
Q 35.59375 6.296875 31.203125 6.296875 
Q 26.796875 6.296875 23.6875 7.9375 
Q 20.59375 9.59375 18.640625 12.296875 
Q 16.703125 15 15.796875 18.546875 
Q 14.90625 22.09375 14.90625 25.90625 
Q 14.90625 29.5 15.75 33 
Q 16.59375 36.5 18.5 39.25 
Q 20.40625 42 23.40625 43.703125 
Q 26.40625 45.40625 30.703125 45.40625 
Q 34.796875 45.40625 37.84375 43.796875 
Q 40.90625 42.203125 42.84375 39.5 
Q 44.796875 36.796875 45.75 33.34375 
Q 46.703125 29.90625 46.703125 26.296875 
z
" id="HelveticaNeue-112"/>
        <path d="M 6.09375 51.703125 
L 6.09375 0 
L 14.59375 0 
L 14.59375 23 
Q 14.59375 28 15.59375 31.84375 
Q 16.59375 35.703125 18.796875 38.390625 
Q 21 41.09375 24.59375 42.5 
Q 28.203125 43.90625 33.296875 43.90625 
L 33.296875 52.90625 
Q 26.40625 53.09375 21.90625 50.09375 
Q 17.40625 47.09375 14.296875 40.796875 
L 14.09375 40.796875 
L 14.09375 51.703125 
z
" id="HelveticaNeue-114"/>
       </defs>
       <use xlink:href="#HelveticaNeue-65"/>
       <use x="64.799988" xlink:href="#HelveticaNeue-112"/>
       <use x="124.099976" xlink:href="#HelveticaNeue-114"/>
      </g>
     </g>
    </g>
    <g id="xtick_3">
     <g id="line2d_3">
      <g>
       <use style="fill:#555555;stroke:#555555;stroke-width:0.8;" x="142.06438" xlink:href="#m1f25ca376b" y="268.065982"/>
      </g>
     </g>
     <g id="text_2">
      <!-- Jul -->
      <g style="fill:#555555;" transform="translate(133.633677 284.348795)scale(0.13 -0.13)">
       <defs>
        <path d="M 44.09375 17.796875 
L 44.09375 71.40625 
L 34.59375 71.40625 
L 34.59375 19.203125 
Q 34.59375 13.296875 32.140625 9.796875 
Q 29.703125 6.296875 23.203125 6.296875 
Q 19.703125 6.296875 17.453125 7.34375 
Q 15.203125 8.40625 13.953125 10.296875 
Q 12.703125 12.203125 12.203125 14.796875 
Q 11.703125 17.40625 11.703125 20.5 
L 11.703125 23.5 
L 2.203125 23.5 
L 2.203125 19.09375 
Q 2.203125 8.90625 7.59375 3.65625 
Q 13 -1.59375 23 -1.59375 
Q 29 -1.59375 33.046875 0.046875 
Q 37.09375 1.703125 39.546875 4.453125 
Q 42 7.203125 43.046875 10.703125 
Q 44.09375 14.203125 44.09375 17.796875 
z
" id="HelveticaNeue-74"/>
        <path d="M 49.203125 0 
L 49.203125 51.703125 
L 40.703125 51.703125 
L 40.703125 22.5 
Q 40.703125 19 39.75 16.046875 
Q 38.796875 13.09375 36.890625 10.890625 
Q 35 8.703125 32.140625 7.5 
Q 29.296875 6.296875 25.40625 6.296875 
Q 20.5 6.296875 17.703125 9.09375 
Q 14.90625 11.90625 14.90625 16.703125 
L 14.90625 51.703125 
L 6.40625 51.703125 
L 6.40625 17.703125 
Q 6.40625 13.5 7.25 10.046875 
Q 8.09375 6.59375 10.1875 4.09375 
Q 12.296875 1.59375 15.6875 0.25 
Q 19.09375 -1.09375 24.203125 -1.09375 
Q 29.90625 -1.09375 34.09375 1.15625 
Q 38.296875 3.40625 41 8.203125 
L 41.203125 8.203125 
L 41.203125 0 
z
" id="HelveticaNeue-117"/>
        <path d="M 6.90625 71.40625 
L 6.90625 0 
L 15.40625 0 
L 15.40625 71.40625 
z
" id="HelveticaNeue-108"/>
       </defs>
       <use xlink:href="#HelveticaNeue-74"/>
       <use x="51.899994" xlink:href="#HelveticaNeue-117"/>
       <use x="107.499985" xlink:href="#HelveticaNeue-108"/>
      </g>
     </g>
    </g>
    <g id="xtick_4">
     <g id="line2d_4">
      <g>
       <use style="fill:#555555;stroke:#555555;stroke-width:0.8;" x="219.715473" xlink:href="#m1f25ca376b" y="268.065982"/>
      </g>
     </g>
     <g id="text_3">
      <!-- Oct -->
      <g style="fill:#555555;" transform="translate(209.23727 284.348795)scale(0.13 -0.13)">
       <defs>
        <path d="M 13.296875 35.703125 
Q 13.296875 41.09375 14.6875 46.34375 
Q 16.09375 51.59375 19.09375 55.796875 
Q 22.09375 60 26.796875 62.546875 
Q 31.5 65.09375 38 65.09375 
Q 44.5 65.09375 49.203125 62.546875 
Q 53.90625 60 56.90625 55.796875 
Q 59.90625 51.59375 61.296875 46.34375 
Q 62.703125 41.09375 62.703125 35.703125 
Q 62.703125 30.296875 61.296875 25.046875 
Q 59.90625 19.796875 56.90625 15.59375 
Q 53.90625 11.40625 49.203125 8.84375 
Q 44.5 6.296875 38 6.296875 
Q 31.5 6.296875 26.796875 8.84375 
Q 22.09375 11.40625 19.09375 15.59375 
Q 16.09375 19.796875 14.6875 25.046875 
Q 13.296875 30.296875 13.296875 35.703125 
z
M 3.796875 35.703125 
Q 3.796875 28.40625 5.9375 21.65625 
Q 8.09375 14.90625 12.390625 9.703125 
Q 16.703125 4.5 23.09375 1.453125 
Q 29.5 -1.59375 38 -1.59375 
Q 46.5 -1.59375 52.890625 1.453125 
Q 59.296875 4.5 63.59375 9.703125 
Q 67.90625 14.90625 70.046875 21.65625 
Q 72.203125 28.40625 72.203125 35.703125 
Q 72.203125 43 70.046875 49.75 
Q 67.90625 56.5 63.59375 61.703125 
Q 59.296875 66.90625 52.890625 70 
Q 46.5 73.09375 38 73.09375 
Q 29.5 73.09375 23.09375 70 
Q 16.703125 66.90625 12.390625 61.703125 
Q 8.09375 56.5 5.9375 49.75 
Q 3.796875 43 3.796875 35.703125 
z
" id="HelveticaNeue-79"/>
        <path d="M 41.5 35.09375 
L 50.296875 35.09375 
Q 49.796875 39.703125 47.890625 43.046875 
Q 46 46.40625 43.046875 48.59375 
Q 40.09375 50.796875 36.25 51.84375 
Q 32.40625 52.90625 28 52.90625 
Q 21.90625 52.90625 17.296875 50.75 
Q 12.703125 48.59375 9.640625 44.84375 
Q 6.59375 41.09375 5.09375 36.046875 
Q 3.59375 31 3.59375 25.203125 
Q 3.59375 19.40625 5.140625 14.546875 
Q 6.703125 9.703125 9.75 6.203125 
Q 12.796875 2.703125 17.34375 0.796875 
Q 21.90625 -1.09375 27.796875 -1.09375 
Q 37.703125 -1.09375 43.453125 4.09375 
Q 49.203125 9.296875 50.59375 18.90625 
L 41.90625 18.90625 
Q 41.09375 12.90625 37.546875 9.59375 
Q 34 6.296875 27.703125 6.296875 
Q 23.703125 6.296875 20.796875 7.890625 
Q 17.90625 9.5 16.09375 12.140625 
Q 14.296875 14.796875 13.4375 18.1875 
Q 12.59375 21.59375 12.59375 25.203125 
Q 12.59375 29.09375 13.390625 32.75 
Q 14.203125 36.40625 16.046875 39.203125 
Q 17.90625 42 21 43.703125 
Q 24.09375 45.40625 28.703125 45.40625 
Q 34.09375 45.40625 37.296875 42.703125 
Q 40.5 40 41.5 35.09375 
z
" id="HelveticaNeue-99"/>
        <path d="M 18.203125 51.703125 
L 18.203125 67.203125 
L 9.703125 67.203125 
L 9.703125 51.703125 
L 0.90625 51.703125 
L 0.90625 44.203125 
L 9.703125 44.203125 
L 9.703125 11.296875 
Q 9.703125 7.703125 10.390625 5.5 
Q 11.09375 3.296875 12.546875 2.09375 
Q 14 0.90625 16.34375 0.453125 
Q 18.703125 0 22 0 
L 28.5 0 
L 28.5 7.5 
L 24.59375 7.5 
Q 22.59375 7.5 21.34375 7.640625 
Q 20.09375 7.796875 19.390625 8.296875 
Q 18.703125 8.796875 18.453125 9.6875 
Q 18.203125 10.59375 18.203125 12.09375 
L 18.203125 44.203125 
L 28.5 44.203125 
L 28.5 51.703125 
z
" id="HelveticaNeue-116"/>
       </defs>
       <use xlink:href="#HelveticaNeue-79"/>
       <use x="75.999985" xlink:href="#HelveticaNeue-99"/>
       <use x="129.699982" xlink:href="#HelveticaNeue-116"/>
      </g>
     </g>
    </g>
    <g id="xtick_5">
     <g id="line2d_5">
      <g>
       <use style="fill:#555555;stroke:#555555;stroke-width:0.8;" x="297.366565" xlink:href="#m1f25ca376b" y="268.065982"/>
      </g>
     </g>
     <g id="text_4">
      <!-- Jan -->
      <g style="fill:#555555;" transform="translate(286.888362 284.348795)scale(0.13 -0.13)">
       <defs>
        <path d="M 52.203125 0.203125 
Q 50 -1.09375 46.09375 -1.09375 
Q 42.796875 -1.09375 40.84375 0.75 
Q 38.90625 2.59375 38.90625 6.796875 
Q 35.40625 2.59375 30.75 0.75 
Q 26.09375 -1.09375 20.703125 -1.09375 
Q 17.203125 -1.09375 14.046875 -0.296875 
Q 10.90625 0.5 8.59375 2.203125 
Q 6.296875 3.90625 4.9375 6.65625 
Q 3.59375 9.40625 3.59375 13.296875 
Q 3.59375 17.703125 5.09375 20.5 
Q 6.59375 23.296875 9.046875 25.046875 
Q 11.5 26.796875 14.640625 27.6875 
Q 17.796875 28.59375 21.09375 29.203125 
Q 24.59375 29.90625 27.75 30.25 
Q 30.90625 30.59375 33.296875 31.25 
Q 35.703125 31.90625 37.09375 33.15625 
Q 38.5 34.40625 38.5 36.796875 
Q 38.5 39.59375 37.453125 41.296875 
Q 36.40625 43 34.75 43.890625 
Q 33.09375 44.796875 31.046875 45.09375 
Q 29 45.40625 27 45.40625 
Q 21.59375 45.40625 18 43.34375 
Q 14.40625 41.296875 14.09375 35.59375 
L 5.59375 35.59375 
Q 5.796875 40.40625 7.59375 43.703125 
Q 9.40625 47 12.40625 49.046875 
Q 15.40625 51.09375 19.25 52 
Q 23.09375 52.90625 27.5 52.90625 
Q 31 52.90625 34.453125 52.40625 
Q 37.90625 51.90625 40.703125 50.34375 
Q 43.5 48.796875 45.203125 46 
Q 46.90625 43.203125 46.90625 38.703125 
L 46.90625 12.09375 
Q 46.90625 9.09375 47.25 7.6875 
Q 47.59375 6.296875 49.59375 6.296875 
Q 50.703125 6.296875 52.203125 6.796875 
z
M 38.40625 26.703125 
Q 36.796875 25.5 34.1875 24.953125 
Q 31.59375 24.40625 28.75 24.046875 
Q 25.90625 23.703125 23 23.25 
Q 20.09375 22.796875 17.796875 21.796875 
Q 15.5 20.796875 14.046875 18.9375 
Q 12.59375 17.09375 12.59375 13.90625 
Q 12.59375 11.796875 13.4375 10.34375 
Q 14.296875 8.90625 15.640625 8 
Q 17 7.09375 18.796875 6.6875 
Q 20.59375 6.296875 22.59375 6.296875 
Q 26.796875 6.296875 29.796875 7.4375 
Q 32.796875 8.59375 34.6875 10.34375 
Q 36.59375 12.09375 37.5 14.140625 
Q 38.40625 16.203125 38.40625 18 
z
" id="HelveticaNeue-97"/>
        <path d="M 6.40625 51.703125 
L 6.40625 0 
L 14.90625 0 
L 14.90625 29.203125 
Q 14.90625 32.703125 15.84375 35.640625 
Q 16.796875 38.59375 18.6875 40.796875 
Q 20.59375 43 23.4375 44.203125 
Q 26.296875 45.40625 30.203125 45.40625 
Q 35.09375 45.40625 37.890625 42.59375 
Q 40.703125 39.796875 40.703125 35 
L 40.703125 0 
L 49.203125 0 
L 49.203125 34 
Q 49.203125 38.203125 48.34375 41.640625 
Q 47.5 45.09375 45.390625 47.59375 
Q 43.296875 50.09375 39.890625 51.5 
Q 36.5 52.90625 31.40625 52.90625 
Q 19.90625 52.90625 14.59375 43.5 
L 14.40625 43.5 
L 14.40625 51.703125 
z
" id="HelveticaNeue-110"/>
       </defs>
       <use xlink:href="#HelveticaNeue-74"/>
       <use x="51.899994" xlink:href="#HelveticaNeue-97"/>
       <use x="105.599991" xlink:href="#HelveticaNeue-110"/>
      </g>
      <!-- 2021 -->
      <g style="fill:#555555;" transform="translate(282.91219 298.049576)scale(0.13 -0.13)">
       <defs>
        <path d="M 4.40625 45.796875 
L 12.90625 45.796875 
Q 12.796875 49 13.546875 52.140625 
Q 14.296875 55.296875 16 57.796875 
Q 17.703125 60.296875 20.34375 61.84375 
Q 23 63.40625 26.703125 63.40625 
Q 29.5 63.40625 32 62.5 
Q 34.5 61.59375 36.34375 59.890625 
Q 38.203125 58.203125 39.296875 55.84375 
Q 40.40625 53.5 40.40625 50.59375 
Q 40.40625 46.90625 39.25 44.09375 
Q 38.09375 41.296875 35.84375 38.890625 
Q 33.59375 36.5 30.1875 34.140625 
Q 26.796875 31.796875 22.296875 29 
Q 18.59375 26.796875 15.1875 24.296875 
Q 11.796875 21.796875 9.09375 18.5 
Q 6.40625 15.203125 4.65625 10.75 
Q 2.90625 6.296875 2.40625 0 
L 48.703125 0 
L 48.703125 7.5 
L 12.296875 7.5 
Q 12.90625 10.796875 14.84375 13.34375 
Q 16.796875 15.90625 19.546875 18.09375 
Q 22.296875 20.296875 25.59375 22.25 
Q 28.90625 24.203125 32.203125 26.203125 
Q 35.5 28.296875 38.59375 30.59375 
Q 41.703125 32.90625 44.09375 35.75 
Q 46.5 38.59375 47.953125 42.1875 
Q 49.40625 45.796875 49.40625 50.5 
Q 49.40625 55.5 47.65625 59.296875 
Q 45.90625 63.09375 42.90625 65.640625 
Q 39.90625 68.203125 35.84375 69.546875 
Q 31.796875 70.90625 27.203125 70.90625 
Q 21.59375 70.90625 17.1875 69 
Q 12.796875 67.09375 9.84375 63.75 
Q 6.90625 60.40625 5.5 55.796875 
Q 4.09375 51.203125 4.40625 45.796875 
z
" id="HelveticaNeue-50"/>
        <path d="M 13.203125 34.90625 
Q 13.203125 37.5 13.25 40.640625 
Q 13.296875 43.796875 13.75 46.9375 
Q 14.203125 50.09375 15.046875 53.09375 
Q 15.90625 56.09375 17.546875 58.34375 
Q 19.203125 60.59375 21.703125 62 
Q 24.203125 63.40625 27.796875 63.40625 
Q 31.40625 63.40625 33.90625 62 
Q 36.40625 60.59375 38.046875 58.34375 
Q 39.703125 56.09375 40.546875 53.09375 
Q 41.40625 50.09375 41.84375 46.9375 
Q 42.296875 43.796875 42.34375 40.640625 
Q 42.40625 37.5 42.40625 34.90625 
Q 42.40625 30.90625 42.15625 25.953125 
Q 41.90625 21 40.546875 16.640625 
Q 39.203125 12.296875 36.203125 9.296875 
Q 33.203125 6.296875 27.796875 6.296875 
Q 22.40625 6.296875 19.40625 9.296875 
Q 16.40625 12.296875 15.046875 16.640625 
Q 13.703125 21 13.453125 25.953125 
Q 13.203125 30.90625 13.203125 34.90625 
z
M 4.203125 34.796875 
Q 4.203125 30.90625 4.390625 26.703125 
Q 4.59375 22.5 5.390625 18.5 
Q 6.203125 14.5 7.703125 10.953125 
Q 9.203125 7.40625 11.796875 4.703125 
Q 14.40625 2 18.34375 0.453125 
Q 22.296875 -1.09375 27.796875 -1.09375 
Q 33.40625 -1.09375 37.296875 0.453125 
Q 41.203125 2 43.796875 4.703125 
Q 46.40625 7.40625 47.90625 10.953125 
Q 49.40625 14.5 50.203125 18.5 
Q 51 22.5 51.203125 26.703125 
Q 51.40625 30.90625 51.40625 34.796875 
Q 51.40625 38.703125 51.203125 42.890625 
Q 51 47.09375 50.203125 51.09375 
Q 49.40625 55.09375 47.90625 58.6875 
Q 46.40625 62.296875 43.796875 65 
Q 41.203125 67.703125 37.25 69.296875 
Q 33.296875 70.90625 27.796875 70.90625 
Q 22.296875 70.90625 18.34375 69.296875 
Q 14.40625 67.703125 11.796875 65 
Q 9.203125 62.296875 7.703125 58.6875 
Q 6.203125 55.09375 5.390625 51.09375 
Q 4.59375 47.09375 4.390625 42.890625 
Q 4.203125 38.703125 4.203125 34.796875 
z
" id="HelveticaNeue-48"/>
        <path d="M 35.59375 0 
L 35.59375 70.90625 
L 29.09375 70.90625 
Q 28.40625 66.90625 26.5 64.296875 
Q 24.59375 61.703125 21.84375 60.203125 
Q 19.09375 58.703125 15.6875 58.140625 
Q 12.296875 57.59375 8.703125 57.59375 
L 8.703125 50.796875 
L 27.09375 50.796875 
L 27.09375 0 
z
" id="HelveticaNeue-49"/>
       </defs>
       <use xlink:href="#HelveticaNeue-50"/>
       <use x="55.599991" xlink:href="#HelveticaNeue-48"/>
       <use x="111.199982" xlink:href="#HelveticaNeue-50"/>
       <use x="166.799973" xlink:href="#HelveticaNeue-49"/>
      </g>
     </g>
    </g>
    <g id="xtick_6">
     <g id="line2d_6">
      <g>
       <use style="fill:#555555;stroke:#555555;stroke-width:0.8;" x="373.32959" xlink:href="#m1f25ca376b" y="268.065982"/>
      </g>
     </g>
     <g id="text_5">
      <!-- Apr -->
      <g style="fill:#555555;" transform="translate(363.0992 284.348795)scale(0.13 -0.13)">
       <use xlink:href="#HelveticaNeue-65"/>
       <use x="64.799988" xlink:href="#HelveticaNeue-112"/>
       <use x="124.099976" xlink:href="#HelveticaNeue-114"/>
      </g>
     </g>
    </g>
    <g id="xtick_7">
     <g id="line2d_7">
      <g>
       <use style="fill:#555555;stroke:#555555;stroke-width:0.8;" x="438.320179" xlink:href="#m1f25ca376b" y="268.065982"/>
      </g>
     </g>
    </g>
    <g id="xtick_8">
     <g id="line2d_8">
      <defs>
       <path d="M 0 0 
L 0 2 
" id="m0e6b3959ad" style="stroke:#555555;stroke-width:0.6;"/>
      </defs>
      <g>
       <use style="fill:#555555;stroke:#555555;stroke-width:0.6;" x="90.57833" xlink:href="#m0e6b3959ad" y="268.065982"/>
      </g>
     </g>
    </g>
    <g id="xtick_9">
     <g id="line2d_9">
      <g>
       <use style="fill:#555555;stroke:#555555;stroke-width:0.6;" x="116.743372" xlink:href="#m0e6b3959ad" y="268.065982"/>
      </g>
     </g>
    </g>
    <g id="xtick_10">
     <g id="line2d_10">
      <g>
       <use style="fill:#555555;stroke:#555555;stroke-width:0.6;" x="168.229422" xlink:href="#m0e6b3959ad" y="268.065982"/>
      </g>
     </g>
    </g>
    <g id="xtick_11">
     <g id="line2d_11">
      <g>
       <use style="fill:#555555;stroke:#555555;stroke-width:0.6;" x="194.394464" xlink:href="#m0e6b3959ad" y="268.065982"/>
      </g>
     </g>
    </g>
    <g id="xtick_12">
     <g id="line2d_12">
      <g>
       <use style="fill:#555555;stroke:#555555;stroke-width:0.6;" x="245.880515" xlink:href="#m0e6b3959ad" y="268.065982"/>
      </g>
     </g>
    </g>
    <g id="xtick_13">
     <g id="line2d_13">
      <g>
       <use style="fill:#555555;stroke:#555555;stroke-width:0.6;" x="271.201523" xlink:href="#m0e6b3959ad" y="268.065982"/>
      </g>
     </g>
    </g>
    <g id="xtick_14">
     <g id="line2d_14">
      <g>
       <use style="fill:#555555;stroke:#555555;stroke-width:0.6;" x="323.531607" xlink:href="#m0e6b3959ad" y="268.065982"/>
      </g>
     </g>
    </g>
    <g id="xtick_15">
     <g id="line2d_15">
      <g>
       <use style="fill:#555555;stroke:#555555;stroke-width:0.6;" x="347.164548" xlink:href="#m0e6b3959ad" y="268.065982"/>
      </g>
     </g>
    </g>
    <g id="xtick_16">
     <g id="line2d_16">
      <g>
       <use style="fill:#555555;stroke:#555555;stroke-width:0.6;" x="398.650599" xlink:href="#m0e6b3959ad" y="268.065982"/>
      </g>
     </g>
    </g>
    <g id="xtick_17">
     <g id="line2d_17">
      <g>
       <use style="fill:#555555;stroke:#555555;stroke-width:0.6;" x="424.815641" xlink:href="#m0e6b3959ad" y="268.065982"/>
      </g>
     </g>
    </g>
    <g id="text_6">
     <!-- date -->
     <g style="fill:#555555;" transform="translate(231.731261 313.893795)scale(0.13 -0.13)">
      <defs>
       <path d="M 12.59375 25.40625 
Q 12.59375 29.203125 13.390625 32.796875 
Q 14.203125 36.40625 16 39.203125 
Q 17.796875 42 20.796875 43.703125 
Q 23.796875 45.40625 28.09375 45.40625 
Q 32.5 45.40625 35.59375 43.75 
Q 38.703125 42.09375 40.640625 39.390625 
Q 42.59375 36.703125 43.5 33.140625 
Q 44.40625 29.59375 44.40625 25.796875 
Q 44.40625 22.203125 43.546875 18.703125 
Q 42.703125 15.203125 40.796875 12.453125 
Q 38.90625 9.703125 35.90625 8 
Q 32.90625 6.296875 28.59375 6.296875 
Q 24.5 6.296875 21.453125 7.890625 
Q 18.40625 9.5 16.453125 12.203125 
Q 14.5 14.90625 13.546875 18.34375 
Q 12.59375 21.796875 12.59375 25.40625 
z
M 52.59375 0 
L 52.59375 71.40625 
L 44.09375 71.40625 
L 44.09375 44.796875 
L 43.90625 44.796875 
Q 42.5 47.09375 40.453125 48.640625 
Q 38.40625 50.203125 36.09375 51.140625 
Q 33.796875 52.09375 31.5 52.5 
Q 29.203125 52.90625 27.203125 52.90625 
Q 21.296875 52.90625 16.84375 50.75 
Q 12.40625 48.59375 9.453125 44.9375 
Q 6.5 41.296875 5.046875 36.390625 
Q 3.59375 31.5 3.59375 26 
Q 3.59375 20.5 5.09375 15.59375 
Q 6.59375 10.703125 9.546875 7 
Q 12.5 3.296875 16.953125 1.09375 
Q 21.40625 -1.09375 27.40625 -1.09375 
Q 32.796875 -1.09375 37.296875 0.796875 
Q 41.796875 2.703125 43.90625 7 
L 44.09375 7 
L 44.09375 0 
z
" id="HelveticaNeue-100"/>
       <path d="M 42.296875 30.796875 
L 12.59375 30.796875 
Q 12.796875 33.796875 13.890625 36.4375 
Q 15 39.09375 16.890625 41.09375 
Q 18.796875 43.09375 21.4375 44.25 
Q 24.09375 45.40625 27.40625 45.40625 
Q 30.59375 45.40625 33.25 44.25 
Q 35.90625 43.09375 37.84375 41.140625 
Q 39.796875 39.203125 40.9375 36.5 
Q 42.09375 33.796875 42.296875 30.796875 
z
M 50.5 16.40625 
L 42.09375 16.40625 
Q 41 11.296875 37.546875 8.796875 
Q 34.09375 6.296875 28.703125 6.296875 
Q 24.5 6.296875 21.390625 7.6875 
Q 18.296875 9.09375 16.296875 11.4375 
Q 14.296875 13.796875 13.390625 16.84375 
Q 12.5 19.90625 12.59375 23.296875 
L 51.296875 23.296875 
Q 51.5 28 50.453125 33.203125 
Q 49.40625 38.40625 46.65625 42.796875 
Q 43.90625 47.203125 39.34375 50.046875 
Q 34.796875 52.90625 27.90625 52.90625 
Q 22.59375 52.90625 18.140625 50.90625 
Q 13.703125 48.90625 10.453125 45.296875 
Q 7.203125 41.703125 5.390625 36.796875 
Q 3.59375 31.90625 3.59375 26 
Q 3.796875 20.09375 5.34375 15.09375 
Q 6.90625 10.09375 10 6.5 
Q 13.09375 2.90625 17.640625 0.90625 
Q 22.203125 -1.09375 28.40625 -1.09375 
Q 37.203125 -1.09375 43 3.296875 
Q 48.796875 7.703125 50.5 16.40625 
z
" id="HelveticaNeue-101"/>
      </defs>
      <use xlink:href="#HelveticaNeue-100"/>
      <use x="59.299988" xlink:href="#HelveticaNeue-97"/>
      <use x="112.999985" xlink:href="#HelveticaNeue-116"/>
      <use x="144.499969" xlink:href="#HelveticaNeue-101"/>
     </g>
    </g>
   </g>
   <g id="matplotlib.axis_2">
    <g id="ytick_1">
     <g id="line2d_18">
      <defs>
       <path d="M 0 0 
L -3.5 0 
" id="mb0984c463e" style="stroke:#555555;stroke-width:0.8;"/>
      </defs>
      <g>
       <use style="fill:#555555;stroke:#555555;stroke-width:0.8;" x="50.90875" xlink:href="#mb0984c463e" y="251.512225"/>
      </g>
     </g>
     <g id="text_7">
      <!-- −6000 -->
      <g style="fill:#555555;" transform="translate(7.2 256.153632)scale(0.13 -0.13)">
       <defs>
        <path d="M 4.796875 28.703125 
L 4.796875 21.90625 
L 55.203125 21.90625 
L 55.203125 28.703125 
z
" id="HelveticaNeue-8722"/>
        <path d="M 41.40625 52.796875 
L 49.90625 52.796875 
Q 49.09375 61.59375 43.890625 66.25 
Q 38.703125 70.90625 29.90625 70.90625 
Q 22.296875 70.90625 17.296875 67.703125 
Q 12.296875 64.5 9.296875 59.203125 
Q 6.296875 53.90625 5.046875 47.046875 
Q 3.796875 40.203125 3.796875 32.90625 
Q 3.796875 27.296875 4.640625 21.296875 
Q 5.5 15.296875 8.09375 10.296875 
Q 10.703125 5.296875 15.5 2.09375 
Q 20.296875 -1.09375 28.203125 -1.09375 
Q 34.90625 -1.09375 39.453125 1.15625 
Q 44 3.40625 46.75 6.84375 
Q 49.5 10.296875 50.703125 14.5 
Q 51.90625 18.703125 51.90625 22.59375 
Q 51.90625 27.5 50.40625 31.703125 
Q 48.90625 35.90625 46.15625 39 
Q 43.40625 42.09375 39.34375 43.84375 
Q 35.296875 45.59375 30.203125 45.59375 
Q 24.40625 45.59375 19.953125 43.390625 
Q 15.5 41.203125 12.5 36.296875 
L 12.296875 36.5 
Q 12.40625 40.59375 13.09375 45.296875 
Q 13.796875 50 15.640625 54.046875 
Q 17.5 58.09375 20.796875 60.75 
Q 24.09375 63.40625 29.5 63.40625 
Q 34.59375 63.40625 37.6875 60.5 
Q 40.796875 57.59375 41.40625 52.796875 
z
M 28.59375 38.09375 
Q 32.203125 38.09375 34.890625 36.796875 
Q 37.59375 35.5 39.390625 33.34375 
Q 41.203125 31.203125 42.046875 28.25 
Q 42.90625 25.296875 42.90625 22 
Q 42.90625 18.90625 41.953125 16.046875 
Q 41 13.203125 39.203125 11 
Q 37.40625 8.796875 34.75 7.546875 
Q 32.09375 6.296875 28.59375 6.296875 
Q 25.09375 6.296875 22.34375 7.546875 
Q 19.59375 8.796875 17.75 10.890625 
Q 15.90625 13 14.90625 15.890625 
Q 13.90625 18.796875 13.90625 22.09375 
Q 13.90625 25.40625 14.84375 28.34375 
Q 15.796875 31.296875 17.6875 33.4375 
Q 19.59375 35.59375 22.296875 36.84375 
Q 25 38.09375 28.59375 38.09375 
z
" id="HelveticaNeue-54"/>
       </defs>
       <use xlink:href="#HelveticaNeue-8722"/>
       <use x="59.999985" xlink:href="#HelveticaNeue-54"/>
       <use x="115.599976" xlink:href="#HelveticaNeue-48"/>
       <use x="171.199966" xlink:href="#HelveticaNeue-48"/>
       <use x="226.799957" xlink:href="#HelveticaNeue-48"/>
      </g>
     </g>
    </g>
    <g id="ytick_2">
     <g id="line2d_19">
      <g>
       <use style="fill:#555555;stroke:#555555;stroke-width:0.8;" x="50.90875" xlink:href="#mb0984c463e" y="213.964719"/>
      </g>
     </g>
     <g id="text_8">
      <!-- −4000 -->
      <g style="fill:#555555;" transform="translate(7.2 218.606125)scale(0.13 -0.13)">
       <defs>
        <path d="M 33.90625 24.09375 
L 10.09375 24.09375 
L 33.703125 58.796875 
L 33.90625 58.796875 
z
M 41.90625 24.09375 
L 41.90625 70.90625 
L 35.09375 70.90625 
L 2.796875 24.796875 
L 2.796875 16.59375 
L 33.90625 16.59375 
L 33.90625 0 
L 41.90625 0 
L 41.90625 16.59375 
L 51.5 16.59375 
L 51.5 24.09375 
z
" id="HelveticaNeue-52"/>
       </defs>
       <use xlink:href="#HelveticaNeue-8722"/>
       <use x="59.999985" xlink:href="#HelveticaNeue-52"/>
       <use x="115.599976" xlink:href="#HelveticaNeue-48"/>
       <use x="171.199966" xlink:href="#HelveticaNeue-48"/>
       <use x="226.799957" xlink:href="#HelveticaNeue-48"/>
      </g>
     </g>
    </g>
    <g id="ytick_3">
     <g id="line2d_20">
      <g>
       <use style="fill:#555555;stroke:#555555;stroke-width:0.8;" x="50.90875" xlink:href="#mb0984c463e" y="176.417213"/>
      </g>
     </g>
     <g id="text_9">
      <!-- −2000 -->
      <g style="fill:#555555;" transform="translate(7.2 181.058619)scale(0.13 -0.13)">
       <use xlink:href="#HelveticaNeue-8722"/>
       <use x="59.999985" xlink:href="#HelveticaNeue-50"/>
       <use x="115.599976" xlink:href="#HelveticaNeue-48"/>
       <use x="171.199966" xlink:href="#HelveticaNeue-48"/>
       <use x="226.799957" xlink:href="#HelveticaNeue-48"/>
      </g>
     </g>
    </g>
    <g id="ytick_4">
     <g id="line2d_21">
      <g>
       <use style="fill:#555555;stroke:#555555;stroke-width:0.8;" x="50.90875" xlink:href="#mb0984c463e" y="138.869706"/>
      </g>
     </g>
     <g id="text_10">
      <!-- 0 -->
      <g style="fill:#555555;" transform="translate(36.681563 143.511113)scale(0.13 -0.13)">
       <use xlink:href="#HelveticaNeue-48"/>
      </g>
     </g>
    </g>
    <g id="ytick_5">
     <g id="line2d_22">
      <g>
       <use style="fill:#555555;stroke:#555555;stroke-width:0.8;" x="50.90875" xlink:href="#mb0984c463e" y="101.3222"/>
      </g>
     </g>
     <g id="text_11">
      <!-- 2000 -->
      <g style="fill:#555555;" transform="translate(15 105.963606)scale(0.13 -0.13)">
       <use xlink:href="#HelveticaNeue-50"/>
       <use x="55.599991" xlink:href="#HelveticaNeue-48"/>
       <use x="111.199982" xlink:href="#HelveticaNeue-48"/>
       <use x="166.799973" xlink:href="#HelveticaNeue-48"/>
      </g>
     </g>
    </g>
    <g id="ytick_6">
     <g id="line2d_23">
      <g>
       <use style="fill:#555555;stroke:#555555;stroke-width:0.8;" x="50.90875" xlink:href="#mb0984c463e" y="63.774694"/>
      </g>
     </g>
     <g id="text_12">
      <!-- 4000 -->
      <g style="fill:#555555;" transform="translate(15 68.4161)scale(0.13 -0.13)">
       <use xlink:href="#HelveticaNeue-52"/>
       <use x="55.599991" xlink:href="#HelveticaNeue-48"/>
       <use x="111.199982" xlink:href="#HelveticaNeue-48"/>
       <use x="166.799973" xlink:href="#HelveticaNeue-48"/>
      </g>
     </g>
    </g>
   </g>
   <g id="line2d_24">
    <path clip-path="url(#p0845977138)" d="M 51.752784 138.681969 
L 53.440851 138.231399 
L 54.284884 138.419136 
L 55.128918 138.43791 
L 55.972952 138.006114 
L 56.816985 137.780829 
L 57.661019 137.949792 
L 60.19312 135.790811 
L 61.037153 134.814576 
L 61.881187 134.138721 
L 62.725221 132.298893 
L 63.569254 134.570517 
L 64.413288 130.928409 
L 65.257321 133.38777 
L 66.101355 130.046042 
L 66.945389 129.895852 
L 67.789422 128.994712 
L 68.633456 134.063626 
L 69.477489 129.013486 
L 70.321523 130.327649 
L 71.165557 132.580499 
L 72.00959 130.665576 
L 72.853624 131.322658 
L 73.697658 130.271327 
L 74.541691 133.23758 
L 75.385725 131.341431 
L 76.229758 134.119947 
L 77.073792 132.205024 
L 77.917826 134.007304 
L 78.761859 129.520377 
L 79.605893 134.720707 
L 80.449926 133.068617 
L 81.29396 133.181259 
L 82.137994 131.378979 
L 82.982027 137.048652 
L 83.826061 130.703124 
L 84.670095 132.524178 
L 85.514128 137.38658 
L 86.358162 132.373988 
L 87.202195 134.758254 
L 88.046229 133.969757 
L 88.890263 137.067426 
L 89.734296 136.297702 
L 90.57833 132.768237 
L 91.422363 134.307684 
L 92.266397 136.18506 
L 93.110431 132.918427 
L 93.954464 136.391571 
L 94.798498 136.109965 
L 95.642532 134.852123 
L 96.486565 137.38658 
L 97.330599 135.546752 
L 99.018666 135.865906 
L 99.8627 134.777028 
L 100.706733 137.311485 
L 101.550767 133.725698 
L 102.3948 133.819567 
L 103.238834 132.205024 
L 104.082868 133.38777 
L 104.926901 135.002313 
L 105.770935 137.405354 
L 106.614968 137.142521 
L 107.459002 132.618047 
L 108.303036 135.959775 
L 109.147069 135.640621 
L 109.991103 136.03487 
L 110.835137 135.190051 
L 112.523204 137.799602 
L 113.367237 135.659395 
L 114.211271 134.270137 
L 115.055305 135.396562 
L 115.899338 135.603073 
L 116.743372 136.260155 
L 117.587405 137.273937 
L 118.431439 134.514196 
L 119.275473 132.805784 
L 120.119506 133.669377 
L 120.96354 134.307684 
L 121.807574 134.213816 
L 122.651607 134.945992 
L 123.495641 134.664386 
L 124.339674 133.293902 
L 125.183708 133.782019 
L 126.027742 132.78701 
L 126.871775 124.58288 
L 127.715809 133.53796 
L 128.559842 133.613056 
L 129.403876 128.656785 
L 130.24791 128.88207 
L 131.091943 127.962156 
L 131.935977 129.069807 
L 132.780011 125.652984 
L 133.624044 125.540342 
L 134.468078 130.440291 
L 135.312111 127.924608 
L 136.156145 120.903225 
L 137.000179 122.254935 
L 137.844212 110.108317 
L 138.688246 113.22476 
L 139.532279 98.46859 
L 140.376313 110.558887 
L 141.220347 108.869249 
L 142.06438 117.448854 
L 142.908414 95.614979 
L 143.752447 100.458607 
L 144.596481 93.474771 
L 145.440515 96.028002 
L 146.284548 101.678901 
L 147.128582 100.083132 
L 147.972616 84.125442 
L 148.816649 101.566259 
L 149.660683 94.188174 
L 150.504716 91.428432 
L 151.34875 71.734765 
L 152.192784 77.498307 
L 153.036817 99.632562 
L 153.880851 91.672491 
L 154.724884 80.520882 
L 155.568918 93.024201 
L 156.412952 79.56342 
L 157.256985 78.568411 
L 158.101019 86.359519 
L 158.945053 91.522301 
L 159.789086 86.528483 
L 160.63312 87.748777 
L 161.477153 75.752348 
L 162.321187 74.588376 
L 163.165221 84.407048 
L 164.009254 90.808898 
L 164.853288 81.853818 
L 165.697321 86.472161 
L 166.541355 86.810089 
L 167.385389 91.071731 
L 168.229422 87.335754 
L 169.073456 111.02823 
L 169.917489 120.959546 
L 170.761523 117.936972 
L 171.605557 116.52894 
L 172.44959 106.428661 
L 173.293624 106.353566 
L 174.137658 104.926761 
L 174.981691 115.515157 
L 175.825725 117.054605 
L 176.669758 110.57766 
L 177.513792 61.127595 
L 178.357826 106.710267 
L 179.201859 107.367349 
L 180.045893 106.109507 
L 180.889926 121.973329 
L 181.73396 125.371378 
L 182.577994 120.771808 
L 183.422027 118.162257 
L 184.266061 118.800564 
L 185.110095 117.411307 
L 185.954128 121.804365 
L 187.642195 127.117337 
L 188.486229 124.357595 
L 189.330263 124.789392 
L 190.174296 127.192432 
L 191.01833 126.460256 
L 191.862363 127.229979 
L 192.706397 129.088581 
L 193.550431 132.280119 
L 194.394464 98.524911 
L 195.238498 132.467857 
L 196.082532 128.018477 
L 196.926565 129.651794 
L 197.770599 128.562916 
L 198.614632 132.392762 
L 199.458666 133.725698 
L 200.3027 131.566716 
L 201.146733 131.228789 
L 201.990767 130.215006 
L 202.8348 129.839531 
L 203.678834 131.078599 
L 204.522868 133.312675 
L 205.366901 134.870897 
L 206.210935 131.566716 
L 207.054968 130.252554 
L 207.899002 130.459065 
L 208.743036 131.641811 
L 209.587069 128.806975 
L 210.431103 132.017286 
L 211.275137 133.763246 
L 212.11917 132.073608 
L 212.963204 132.017286 
L 213.807237 131.510395 
L 214.651271 129.426509 
L 215.495305 131.942191 
L 216.339338 133.575508 
L 217.183372 138.118756 
L 218.027405 127.229979 
L 218.871439 132.974748 
L 219.715473 129.820757 
L 220.559506 129.313866 
L 221.40354 129.764436 
L 223.091607 135.246372 
L 223.935641 130.402744 
L 224.779674 130.778219 
L 225.623708 130.590481 
L 226.467742 131.529169 
L 227.311775 138.869706 
L 228.155809 119.983311 
L 228.999842 133.631829 
L 229.843876 130.609255 
L 230.68791 130.721898 
L 231.531943 128.769427 
L 232.375977 128.919617 
L 233.220011 128.469047 
L 234.908078 131.88587 
L 235.752111 128.356405 
L 236.596145 132.148703 
L 237.440179 122.855695 
L 238.284212 129.107355 
L 239.128246 127.305074 
L 239.972279 133.068617 
L 240.816313 127.962156 
L 241.660347 125.221188 
L 242.50438 124.864487 
L 243.348414 126.234971 
L 244.192447 122.292482 
L 245.036481 132.505404 
L 245.880515 121.635401 
L 246.724548 121.072188 
L 247.568582 122.367577 
L 248.412616 125.803174 
L 249.256649 112.661547 
L 250.944716 123.700514 
L 251.78875 106.766589 
L 252.632784 129.051033 
L 253.476817 131.472848 
L 254.320851 125.390152 
L 255.164884 116.247334 
L 256.008918 103.650145 
L 256.852952 116.585261 
L 257.696985 94.094305 
L 258.541019 119.908216 
L 259.385053 103.537503 
L 260.229086 107.235932 
L 261.07312 102.354757 
L 261.917153 99.613789 
L 262.761187 102.448625 
L 263.605221 106.090733 
L 264.449254 110.72785 
L 265.293288 104.100716 
L 266.137321 99.06935 
L 266.981355 138.869706 
L 267.825389 68.430585 
L 268.669422 111.347384 
L 269.513456 100.87163 
L 270.357489 102.035603 
L 271.201523 98.637553 
L 272.045557 95.82149 
L 272.88959 96.553667 
L 273.733624 91.841455 
L 275.421691 101.340974 
L 276.265725 101.059368 
L 277.109758 104.119489 
L 277.953792 98.91916 
L 278.797826 96.816499 
L 279.641859 99.06935 
L 280.485893 100.214549 
L 281.329926 93.906568 
L 283.017994 98.3184 
L 284.706061 90.395876 
L 285.550095 92.6675 
L 286.394128 94.150626 
L 287.238162 100.965499 
L 288.082195 95.746395 
L 288.926229 95.22073 
L 289.770263 96.760178 
L 290.614296 95.633753 
L 291.45833 138.869706 
L 292.302363 75.470742 
L 293.146397 108.005656 
L 293.990431 100.252096 
L 294.834464 85.833854 
L 295.678498 87.279433 
L 296.522532 83.731193 
L 297.366565 138.869706 
L 298.210599 39.105982 
L 299.054632 109.82671 
L 299.898666 91.46598 
L 300.7427 76.033955 
L 301.586733 79.995217 
L 302.430767 75.545837 
L 303.2748 74.287996 
L 304.118834 88.086704 
L 304.962868 94.807708 
L 305.806901 99.557467 
L 306.650935 83.524682 
L 307.494968 90.658708 
L 308.339002 91.334563 
L 309.183036 88.462179 
L 310.027069 93.662509 
L 310.871103 93.737604 
L 311.715137 104.250906 
L 312.55917 103.668919 
L 313.403204 95.934133 
L 314.247237 98.449816 
L 315.091271 95.708848 
L 315.935305 95.051767 
L 316.779338 105.77158 
L 317.623372 100.758987 
L 319.311439 110.296054 
L 320.155473 101.247105 
L 320.999506 101.134463 
L 321.84354 91.841455 
L 322.687574 111.122099 
L 323.531607 114.407506 
L 324.375641 103.218349 
L 325.219674 115.77799 
L 326.063708 111.704086 
L 326.907742 87.861419 
L 327.751775 111.272289 
L 328.595809 112.304846 
L 329.439842 113.149665 
L 330.283876 111.572669 
L 332.815977 108.02443 
L 333.660011 107.329801 
L 335.348078 129.088581 
L 336.192111 113.787972 
L 337.036145 112.623999 
L 337.880179 123.53155 
L 338.724212 109.770389 
L 339.568246 109.883032 
L 340.412279 117.692913 
L 341.256313 120.208596 
L 342.100347 115.590252 
L 342.94438 118.894433 
L 343.788414 112.135882 
L 344.632447 118.049614 
L 345.476481 117.843103 
L 346.320515 110.690303 
L 347.164548 134.457874 
L 348.008582 102.148245 
L 348.852616 103.800336 
L 349.696649 115.496384 
L 350.540683 112.098334 
L 351.384716 120.771808 
L 352.22875 118.819338 
L 353.072784 122.705505 
L 353.916817 118.349994 
L 354.760851 118.087162 
L 355.604884 116.82932 
L 356.448918 116.547714 
L 357.292952 115.47761 
L 358.136985 124.770618 
L 358.981019 125.728079 
L 359.825053 114.970719 
L 360.669086 120.82813 
L 362.357153 115.684121 
L 363.201187 114.933171 
L 364.045221 121.973329 
L 364.889254 124.169858 
L 365.733288 115.233551 
L 366.577321 119.007076 
L 367.421355 115.364967 
L 368.265389 115.102135 
L 369.109422 114.369959 
L 369.953456 118.931981 
L 370.797489 122.536541 
L 371.641523 114.839302 
L 372.485557 120.52775 
L 373.32959 109.244724 
L 374.173624 111.891823 
L 375.017658 112.361167 
L 376.705725 123.662966 
L 377.549758 110.408697 
L 378.393792 118.969528 
L 379.237826 102.97429 
L 380.081859 108.812928 
L 380.925893 109.301045 
L 381.769926 117.092153 
L 382.61396 131.58549 
L 383.457994 95.239504 
L 384.302027 116.491393 
L 385.146061 111.779181 
L 385.990095 111.384932 
L 386.834128 111.760407 
L 387.678162 105.827901 
L 388.522195 121.466437 
L 389.366229 113.600235 
L 390.210263 117.692913 
L 391.054296 117.054605 
L 391.89833 119.063397 
L 392.742363 110.784172 
L 393.586397 122.386351 
L 394.430431 124.489011 
L 395.274464 119.025849 
L 396.118498 121.710496 
L 396.962532 119.232361 
L 397.806565 121.447663 
L 398.650599 117.411307 
L 399.494632 124.113536 
L 400.338666 125.258735 
L 401.1827 124.169858 
L 402.026733 125.052224 
L 402.870767 124.620428 
L 403.7148 125.521568 
L 404.558834 123.38136 
L 405.402868 126.479029 
L 406.246901 128.938391 
L 407.090935 126.197423 
L 407.934968 128.938391 
L 408.779002 124.320048 
L 410.467069 126.647993 
L 411.311103 128.938391 
L 412.155137 130.158685 
L 412.99917 128.469047 
L 413.843204 129.464056 
L 414.687237 128.750653 
L 415.531271 131.172468 
L 416.375305 125.296283 
L 417.219338 130.177459 
L 418.063372 131.4353 
L 418.907405 134.213816 
L 419.751439 133.031069 
L 420.595473 130.53416 
L 421.439506 131.979739 
L 422.28354 138.869706 
L 423.971607 138.869706 
L 424.815641 118.218578 
L 425.659674 134.814576 
L 426.503708 133.481639 
L 427.347742 257.163125 
L 428.191775 138.869706 
L 432.411943 138.869706 
L 433.255977 99.407277 
L 434.100011 138.869706 
L 438.320179 138.869706 
L 438.320179 138.869706 
" style="fill:none;stroke:#000000;stroke-dasharray:1.5,2.475;stroke-dashoffset:0;stroke-opacity:0.5;stroke-width:1.5;"/>
   </g>
   <g id="line2d_25">
    <path clip-path="url(#p0845977138)" d="M 50.90875 138.494231 
L 53.440851 138.400363 
L 55.972952 138.024887 
L 56.816985 137.799602 
L 58.505053 136.93601 
L 59.349086 136.354023 
L 60.19312 135.5843 
L 61.037153 134.983539 
L 61.881187 134.157494 
L 62.725221 133.631829 
L 65.257321 131.510395 
L 66.101355 131.454074 
L 66.945389 130.853314 
L 68.633456 130.68435 
L 71.165557 131.116146 
L 72.00959 131.078599 
L 75.385725 132.373988 
L 76.229758 132.298893 
L 77.073792 132.693142 
L 77.917826 132.693142 
L 78.761859 132.880879 
L 79.605893 132.63682 
L 80.449926 133.143712 
L 81.29396 132.974748 
L 82.982027 133.500413 
L 83.826061 133.53796 
L 86.358162 134.157494 
L 87.202195 134.852123 
L 88.046229 134.945992 
L 88.890263 134.701933 
L 89.734296 135.058635 
L 90.57833 134.833349 
L 91.422363 134.964766 
L 93.110431 134.870897 
L 93.954464 135.415336 
L 94.798498 135.621847 
L 95.642532 135.678168 
L 96.486565 135.978548 
L 97.330599 135.809585 
L 98.174632 135.903453 
L 99.018666 135.753263 
L 102.3948 134.195042 
L 104.926901 134.664386 
L 107.459002 135.640621 
L 109.147069 135.527978 
L 109.991103 135.715716 
L 110.835137 136.109965 
L 113.367237 135.809585 
L 115.055305 135.865906 
L 120.96354 134.119947 
L 121.807574 134.082399 
L 122.651607 134.195042 
L 123.495641 134.063626 
L 124.339674 132.9372 
L 126.027742 132.054834 
L 126.871775 131.341431 
L 127.715809 130.815766 
L 128.559842 130.158685 
L 129.403876 129.708115 
L 130.24791 129.539151 
L 131.091943 128.412726 
L 131.935977 127.905835 
L 132.780011 127.774418 
L 134.468078 126.178649 
L 136.156145 121.785591 
L 137.844212 114.463827 
L 138.688246 111.516348 
L 139.532279 110.558887 
L 140.376313 107.986882 
L 141.220347 106.82291 
L 142.06438 104.494964 
L 142.908414 103.237123 
L 143.752447 101.284653 
L 144.596481 99.763979 
L 145.440515 96.422251 
L 146.284548 96.722631 
L 147.128582 96.009228 
L 147.972616 95.577432 
L 148.816649 92.6675 
L 149.660683 89.250677 
L 150.504716 88.180573 
L 151.34875 88.311989 
L 152.192784 86.246876 
L 153.036817 86.472161 
L 153.880851 85.946496 
L 154.724884 86.453388 
L 155.568918 86.490935 
L 156.412952 85.270641 
L 157.256985 84.932714 
L 158.101019 85.852627 
L 158.945053 84.538465 
L 159.789086 83.900157 
L 161.477153 83.543456 
L 162.321187 82.567221 
L 163.165221 82.848827 
L 164.009254 83.355718 
L 164.853288 85.36451 
L 165.697321 86.885184 
L 166.541355 89.832663 
L 167.385389 94.094305 
L 169.073456 104.926761 
L 169.917489 108.756606 
L 170.761523 111.140873 
L 171.605557 112.455036 
L 172.44959 112.004466 
L 173.293624 111.215968 
L 174.137658 110.671529 
L 174.981691 105.283462 
L 176.669758 102.655137 
L 177.513792 101.77277 
L 178.357826 102.448625 
L 179.201859 104.870439 
L 180.045893 108.512548 
L 180.889926 115.665347 
L 181.73396 117.711687 
L 183.422027 120.396333 
L 184.266061 120.452655 
L 185.110095 120.846903 
L 185.954128 121.710496 
L 188.486229 125.239962 
L 191.01833 127.229979 
L 191.862363 124.808165 
L 192.706397 124.808165 
L 193.550431 124.395143 
L 194.394464 124.526559 
L 195.238498 124.902034 
L 196.082532 125.878269 
L 196.926565 127.098563 
L 197.770599 130.759445 
L 198.614632 130.890861 
L 199.458666 131.266336 
L 201.990767 131.341431 
L 204.522868 131.810775 
L 206.210935 131.942191 
L 207.899002 131.172468 
L 208.743036 131.059825 
L 209.587069 131.228789 
L 211.275137 131.792001 
L 212.11917 131.623038 
L 212.963204 131.810775 
L 213.807237 131.848323 
L 214.651271 132.33644 
L 215.495305 132.111155 
L 216.339338 132.298893 
L 218.027405 131.960965 
L 218.871439 131.4353 
L 219.715473 131.078599 
L 220.559506 130.872088 
L 221.40354 131.360205 
L 222.247574 131.322658 
L 223.935641 131.660585 
L 224.779674 132.48663 
L 225.623708 131.28511 
L 226.467742 130.965956 
L 228.155809 130.759445 
L 229.843876 130.08359 
L 230.68791 129.144902 
L 231.531943 130.008495 
L 233.220011 129.576699 
L 234.064044 129.820757 
L 234.908078 129.313866 
L 235.752111 129.144902 
L 236.596145 128.788201 
L 237.440179 128.88207 
L 239.128246 128.318857 
L 239.972279 127.643002 
L 240.816313 127.774418 
L 241.660347 126.779409 
L 242.50438 126.910826 
L 243.348414 125.7844 
L 244.192447 125.089772 
L 245.036481 124.639202 
L 245.880515 124.470238 
L 246.724548 122.893242 
L 247.568582 121.87946 
L 248.412616 120.640392 
L 249.256649 118.913207 
L 250.100683 119.213587 
L 250.944716 120.208596 
L 251.78875 120.921998 
L 252.632784 121.954555 
L 254.320851 119.438872 
L 256.008918 114.27609 
L 256.852952 110.671529 
L 257.696985 108.512548 
L 258.541019 107.085742 
L 259.385053 106.334792 
L 260.229086 104.607607 
L 261.07312 105.152046 
L 261.917153 104.119489 
L 262.761187 104.419869 
L 263.605221 103.931752 
L 264.449254 107.87424 
L 265.293288 105.565068 
L 266.137321 105.884222 
L 266.981355 104.832892 
L 267.825389 103.443634 
L 269.513456 101.434843 
L 270.357489 97.567449 
L 271.201523 99.388504 
L 272.045557 97.360938 
L 272.88959 97.079332 
L 273.733624 97.041784 
L 275.421691 98.844065 
L 276.265725 99.294635 
L 277.109758 100.026811 
L 277.953792 100.158227 
L 279.641859 98.355947 
L 280.485893 97.586223 
L 281.329926 97.004237 
L 283.862027 94.282043 
L 284.706061 94.77016 
L 286.394128 94.864029 
L 288.082195 96.103097 
L 288.926229 100.946725 
L 289.770263 100.27087 
L 290.614296 101.434843 
L 291.45833 102.204566 
L 292.302363 101.040594 
L 293.146397 99.031802 
L 293.990431 96.196965 
L 294.834464 95.82149 
L 295.678498 92.592405 
L 296.522532 92.029192 
L 297.366565 91.203147 
L 298.210599 90.020401 
L 299.054632 88.443405 
L 299.898666 86.340745 
L 300.7427 79.807479 
L 301.586733 83.449587 
L 302.430767 81.647307 
L 303.2748 83.336945 
L 305.806901 89.701247 
L 306.650935 91.052957 
L 307.494968 91.297016 
L 308.339002 91.109278 
L 309.183036 92.010419 
L 310.027069 94.713839 
L 311.715137 97.454807 
L 312.55917 98.449816 
L 313.403204 98.449816 
L 314.247237 99.21954 
L 315.091271 98.881612 
L 315.935305 99.426051 
L 316.779338 101.434843 
L 318.467405 103.406087 
L 319.311439 102.955517 
L 320.155473 103.030612 
L 320.999506 104.194584 
L 321.84354 104.232132 
L 322.687574 105.396105 
L 323.531607 107.329801 
L 324.375641 106.616398 
L 325.219674 107.930561 
L 326.063708 107.517539 
L 326.907742 107.367349 
L 327.751775 108.399905 
L 328.595809 108.475 
L 329.439842 109.000665 
L 330.283876 111.009457 
L 331.12791 110.333602 
L 331.971943 110.596434 
L 332.815977 112.417488 
L 334.504044 114.520149 
L 335.348078 116.472619 
L 336.192111 116.923189 
L 337.036145 116.772999 
L 337.880179 116.134691 
L 338.724212 115.120909 
L 339.568246 115.421289 
L 340.412279 116.153465 
L 341.256313 115.421289 
L 342.100347 116.359976 
L 342.94438 117.054605 
L 343.788414 116.22856 
L 344.632447 117.599044 
L 345.476481 116.660356 
L 346.320515 115.064587 
L 347.164548 114.764207 
L 348.008582 113.581461 
L 348.852616 113.468818 
L 349.696649 114.238542 
L 350.540683 113.956936 
L 351.384716 116.472619 
L 352.22875 118.349994 
L 353.916817 118.950754 
L 354.760851 118.162257 
L 355.604884 118.48141 
L 356.448918 118.950754 
L 357.292952 119.044623 
L 358.136985 119.589062 
L 358.981019 119.870668 
L 359.825053 119.664157 
L 360.669086 119.157266 
L 361.51312 118.48141 
L 362.357153 118.387542 
L 363.201187 118.612827 
L 364.045221 118.612827 
L 365.733288 118.256125 
L 366.577321 117.768008 
L 367.421355 117.073379 
L 368.265389 116.923189 
L 369.109422 117.073379 
L 369.953456 117.448854 
L 370.797489 117.035831 
L 371.641523 116.491393 
L 373.32959 115.083361 
L 374.173624 115.120909 
L 375.017658 114.970719 
L 375.861691 115.196004 
L 376.705725 114.782981 
L 377.549758 114.050805 
L 378.393792 112.961927 
L 379.237826 112.229751 
L 380.081859 113.112117 
L 380.925893 112.286072 
L 381.769926 112.417488 
L 382.61396 113.393723 
L 383.457994 113.393723 
L 384.302027 113.149665 
L 385.146061 111.647764 
L 385.990095 110.802945 
L 386.834128 112.77419 
L 387.678162 113.168438 
L 388.522195 114.144673 
L 389.366229 115.364967 
L 390.210263 115.6278 
L 391.054296 117.167248 
L 391.89833 117.636592 
L 393.586397 119.232361 
L 396.118498 120.82813 
L 396.962532 120.809356 
L 397.806565 120.97832 
L 402.026733 124.657975 
L 402.870767 124.864487 
L 405.402868 126.272518 
L 409.623036 127.023468 
L 411.311103 127.774418 
L 412.99917 129.107355 
L 413.843204 129.013486 
L 415.531271 129.163676 
L 417.219338 130.440291 
L 418.063372 130.928409 
L 418.907405 131.28511 
L 419.751439 132.768237 
L 421.439506 134.964766 
L 422.28354 133.744472 
L 423.971607 133.575508 
L 424.815641 146.397981 
L 426.503708 153.963804 
L 427.347742 155.935048 
L 428.191775 157.286758 
L 429.035809 154.902492 
L 429.879842 151.448121 
L 430.723876 134.683159 
L 431.56791 133.331449 
L 432.411943 132.33644 
L 433.255977 131.960965 
L 434.100011 132.33644 
L 434.944044 133.331449 
L 435.788078 134.683159 
L 436.632111 138.869706 
L 438.320179 138.869706 
L 438.320179 138.869706 
" style="fill:none;stroke:#b3220f;stroke-linecap:square;stroke-width:1.5;"/>
   </g>
   <g id="patch_3">
    <path d="M 50.90875 268.065982 
L 50.90875 28.203125 
" style="fill:none;stroke:#555555;stroke-linecap:square;stroke-linejoin:miter;"/>
   </g>
   <g id="patch_4">
    <path d="M 50.90875 268.065982 
L 438.320179 268.065982 
" style="fill:none;stroke:#555555;stroke-linecap:square;stroke-linejoin:miter;"/>
   </g>
   <g id="text_13">
    <!-- Miami-Dade | New Cases per Day as of [2021-06-17] -->
    <g style="fill:#555555;" transform="translate(79.562121 18.203125)scale(0.14 -0.14)">
     <defs>
      <path d="M 8 71.40625 
L 8 0 
L 17 0 
L 17 59.40625 
L 17.203125 59.40625 
L 39.5 0 
L 47.59375 0 
L 69.90625 59.40625 
L 70.09375 59.40625 
L 70.09375 0 
L 79.09375 0 
L 79.09375 71.40625 
L 66.09375 71.40625 
L 43.5 11.40625 
L 21 71.40625 
z
" id="HelveticaNeue-77"/>
      <path d="M 15.40625 61 
L 15.40625 71.40625 
L 6.90625 71.40625 
L 6.90625 61 
z
M 6.90625 51.703125 
L 6.90625 0 
L 15.40625 0 
L 15.40625 51.703125 
z
" id="HelveticaNeue-105"/>
      <path d="M 6.40625 51.703125 
L 6.40625 0 
L 14.90625 0 
L 14.90625 32.203125 
Q 14.90625 33.703125 15.65625 35.953125 
Q 16.40625 38.203125 18.046875 40.296875 
Q 19.703125 42.40625 22.34375 43.90625 
Q 25 45.40625 28.703125 45.40625 
Q 31.59375 45.40625 33.4375 44.546875 
Q 35.296875 43.703125 36.390625 42.140625 
Q 37.5 40.59375 37.953125 38.5 
Q 38.40625 36.40625 38.40625 33.90625 
L 38.40625 0 
L 46.90625 0 
L 46.90625 32.203125 
Q 46.90625 38.203125 50.5 41.796875 
Q 54.09375 45.40625 60.40625 45.40625 
Q 63.5 45.40625 65.453125 44.5 
Q 67.40625 43.59375 68.5 42.046875 
Q 69.59375 40.5 70 38.390625 
Q 70.40625 36.296875 70.40625 33.90625 
L 70.40625 0 
L 78.90625 0 
L 78.90625 37.90625 
Q 78.90625 41.90625 77.65625 44.75 
Q 76.40625 47.59375 74.15625 49.390625 
Q 71.90625 51.203125 68.75 52.046875 
Q 65.59375 52.90625 61.703125 52.90625 
Q 56.59375 52.90625 52.34375 50.59375 
Q 48.09375 48.296875 45.5 44.09375 
Q 43.90625 48.90625 40 50.90625 
Q 36.09375 52.90625 31.296875 52.90625 
Q 20.40625 52.90625 14.59375 44.09375 
L 14.40625 44.09375 
L 14.40625 51.703125 
z
" id="HelveticaNeue-109"/>
      <path d="M 5 31.796875 
L 5 23.796875 
L 33.90625 23.796875 
L 33.90625 31.796875 
z
" id="HelveticaNeue-45"/>
      <path d="M 17.296875 8 
L 17.296875 63.40625 
L 33.296875 63.40625 
Q 39.90625 63.40625 44.40625 61.546875 
Q 48.90625 59.703125 51.75 56.140625 
Q 54.59375 52.59375 55.84375 47.546875 
Q 57.09375 42.5 57.09375 36.09375 
Q 57.09375 29.5 55.75 24.84375 
Q 54.40625 20.203125 52.296875 17.09375 
Q 50.203125 14 47.546875 12.203125 
Q 44.90625 10.40625 42.203125 9.453125 
Q 39.5 8.5 37.09375 8.25 
Q 34.703125 8 33.09375 8 
z
M 7.796875 71.40625 
L 7.796875 0 
L 32.296875 0 
Q 41.203125 0 47.703125 2.5 
Q 54.203125 5 58.390625 9.75 
Q 62.59375 14.5 64.59375 21.453125 
Q 66.59375 28.40625 66.59375 37.40625 
Q 66.59375 54.59375 57.6875 63 
Q 48.796875 71.40625 32.296875 71.40625 
z
" id="HelveticaNeue-68"/>
      <path id="HelveticaNeue-32"/>
      <path d="M 7.703125 78.59375 
L 7.703125 -21.296875 
L 14.5 -21.296875 
L 14.5 78.59375 
z
" id="HelveticaNeue-124"/>
      <path d="M 7.703125 71.40625 
L 7.703125 0 
L 16.703125 0 
L 16.703125 57.296875 
L 16.90625 57.296875 
L 54.203125 0 
L 64.59375 0 
L 64.59375 71.40625 
L 55.59375 71.40625 
L 55.59375 13.5 
L 55.40625 13.5 
L 17.796875 71.40625 
z
" id="HelveticaNeue-78"/>
      <path d="M 57.59375 0 
L 74.09375 51.703125 
L 65.296875 51.703125 
L 53.703125 9.40625 
L 53.5 9.40625 
L 42.703125 51.703125 
L 33.40625 51.703125 
L 23 9.40625 
L 22.796875 9.40625 
L 11.09375 51.703125 
L 1.703125 51.703125 
L 18.296875 0 
L 27.5 0 
L 37.90625 41.09375 
L 38.09375 41.09375 
L 48.59375 0 
z
" id="HelveticaNeue-119"/>
      <path d="M 58 49.90625 
L 67.5 49.90625 
Q 66.703125 55.59375 64.09375 59.9375 
Q 61.5 64.296875 57.59375 67.1875 
Q 53.703125 70.09375 48.703125 71.59375 
Q 43.703125 73.09375 38.09375 73.09375 
Q 29.90625 73.09375 23.546875 70.140625 
Q 17.203125 67.203125 12.953125 62.09375 
Q 8.703125 57 6.5 50.140625 
Q 4.296875 43.296875 4.296875 35.5 
Q 4.296875 27.703125 6.34375 20.890625 
Q 8.40625 14.09375 12.5 9.09375 
Q 16.59375 4.09375 22.796875 1.25 
Q 29 -1.59375 37.296875 -1.59375 
Q 51 -1.59375 58.890625 5.90625 
Q 66.796875 13.40625 68.203125 26.90625 
L 58.703125 26.90625 
Q 58.40625 22.5 56.90625 18.703125 
Q 55.40625 14.90625 52.75 12.15625 
Q 50.09375 9.40625 46.4375 7.84375 
Q 42.796875 6.296875 38.09375 6.296875 
Q 31.703125 6.296875 27.09375 8.6875 
Q 22.5 11.09375 19.546875 15.140625 
Q 16.59375 19.203125 15.1875 24.640625 
Q 13.796875 30.09375 13.796875 36.203125 
Q 13.796875 41.796875 15.1875 47 
Q 16.59375 52.203125 19.546875 56.25 
Q 22.5 60.296875 27.046875 62.6875 
Q 31.59375 65.09375 38 65.09375 
Q 45.5 65.09375 50.953125 61.296875 
Q 56.40625 57.5 58 49.90625 
z
" id="HelveticaNeue-67"/>
      <path d="M 11.59375 16.296875 
L 3.09375 16.296875 
Q 3.296875 11.5 5.09375 8.140625 
Q 6.90625 4.796875 9.90625 2.75 
Q 12.90625 0.703125 16.796875 -0.1875 
Q 20.703125 -1.09375 25 -1.09375 
Q 28.90625 -1.09375 32.84375 -0.34375 
Q 36.796875 0.40625 39.9375 2.296875 
Q 43.09375 4.203125 45.046875 7.296875 
Q 47 10.40625 47 15.09375 
Q 47 18.796875 45.546875 21.296875 
Q 44.09375 23.796875 41.75 25.4375 
Q 39.40625 27.09375 36.34375 28.09375 
Q 33.296875 29.09375 30.09375 29.796875 
Q 27.09375 30.5 24.09375 31.140625 
Q 21.09375 31.796875 18.6875 32.75 
Q 16.296875 33.703125 14.75 35.140625 
Q 13.203125 36.59375 13.203125 38.796875 
Q 13.203125 40.796875 14.203125 42.046875 
Q 15.203125 43.296875 16.796875 44.046875 
Q 18.40625 44.796875 20.34375 45.09375 
Q 22.296875 45.40625 24.203125 45.40625 
Q 26.296875 45.40625 28.34375 44.953125 
Q 30.40625 44.5 32.09375 43.5 
Q 33.796875 42.5 34.890625 40.84375 
Q 36 39.203125 36.203125 36.703125 
L 44.703125 36.703125 
Q 44.40625 41.40625 42.703125 44.546875 
Q 41 47.703125 38.140625 49.546875 
Q 35.296875 51.40625 31.59375 52.15625 
Q 27.90625 52.90625 23.5 52.90625 
Q 20.09375 52.90625 16.640625 52.046875 
Q 13.203125 51.203125 10.453125 49.453125 
Q 7.703125 47.703125 5.953125 44.890625 
Q 4.203125 42.09375 4.203125 38.203125 
Q 4.203125 33.203125 6.703125 30.390625 
Q 9.203125 27.59375 12.953125 26.046875 
Q 16.703125 24.5 21.09375 23.640625 
Q 25.5 22.796875 29.25 21.75 
Q 33 20.703125 35.5 19 
Q 38 17.296875 38 14 
Q 38 11.59375 36.796875 10.046875 
Q 35.59375 8.5 33.75 7.703125 
Q 31.90625 6.90625 29.703125 6.59375 
Q 27.5 6.296875 25.5 6.296875 
Q 22.90625 6.296875 20.453125 6.796875 
Q 18 7.296875 16.046875 8.4375 
Q 14.09375 9.59375 12.890625 11.546875 
Q 11.703125 13.5 11.59375 16.296875 
z
" id="HelveticaNeue-115"/>
      <path d="M 26.703125 -6.90625 
Q 25.203125 -10.703125 23.75 -13.296875 
Q 22.296875 -15.90625 20.546875 -17.546875 
Q 18.796875 -19.203125 16.640625 -19.953125 
Q 14.5 -20.703125 11.703125 -20.703125 
Q 10.203125 -20.703125 8.703125 -20.5 
Q 7.203125 -20.296875 5.796875 -19.796875 
L 5.796875 -12 
Q 6.90625 -12.5 8.34375 -12.84375 
Q 9.796875 -13.203125 10.796875 -13.203125 
Q 13.40625 -13.203125 15.15625 -11.953125 
Q 16.90625 -10.703125 17.796875 -8.40625 
L 21.296875 0.296875 
L 0.796875 51.703125 
L 10.40625 51.703125 
L 25.5 9.40625 
L 25.703125 9.40625 
L 40.203125 51.703125 
L 49.203125 51.703125 
z
" id="HelveticaNeue-121"/>
      <path d="M 12.59375 25.796875 
Q 12.59375 30.5 13.84375 34.140625 
Q 15.09375 37.796875 17.296875 40.296875 
Q 19.5 42.796875 22.453125 44.09375 
Q 25.40625 45.40625 28.703125 45.40625 
Q 32 45.40625 34.953125 44.09375 
Q 37.90625 42.796875 40.09375 40.296875 
Q 42.296875 37.796875 43.546875 34.140625 
Q 44.796875 30.5 44.796875 25.796875 
Q 44.796875 21.09375 43.546875 17.4375 
Q 42.296875 13.796875 40.09375 11.34375 
Q 37.90625 8.90625 34.953125 7.59375 
Q 32 6.296875 28.703125 6.296875 
Q 25.40625 6.296875 22.453125 7.59375 
Q 19.5 8.90625 17.296875 11.34375 
Q 15.09375 13.796875 13.84375 17.4375 
Q 12.59375 21.09375 12.59375 25.796875 
z
M 3.59375 25.796875 
Q 3.59375 20.09375 5.1875 15.1875 
Q 6.796875 10.296875 10 6.640625 
Q 13.203125 3 17.890625 0.953125 
Q 22.59375 -1.09375 28.703125 -1.09375 
Q 34.90625 -1.09375 39.546875 0.953125 
Q 44.203125 3 47.390625 6.640625 
Q 50.59375 10.296875 52.1875 15.1875 
Q 53.796875 20.09375 53.796875 25.796875 
Q 53.796875 31.5 52.1875 36.453125 
Q 50.59375 41.40625 47.390625 45.046875 
Q 44.203125 48.703125 39.546875 50.796875 
Q 34.90625 52.90625 28.703125 52.90625 
Q 22.59375 52.90625 17.890625 50.796875 
Q 13.203125 48.703125 10 45.046875 
Q 6.796875 41.40625 5.1875 36.453125 
Q 3.59375 31.5 3.59375 25.796875 
z
" id="HelveticaNeue-111"/>
      <path d="M 9.90625 44.203125 
L 9.90625 0 
L 18.40625 0 
L 18.40625 44.203125 
L 28.40625 44.203125 
L 28.40625 51.703125 
L 18.40625 51.703125 
L 18.40625 58.90625 
Q 18.40625 62.296875 20.09375 63.5 
Q 21.796875 64.703125 24.90625 64.703125 
Q 26 64.703125 27.296875 64.546875 
Q 28.59375 64.40625 29.703125 64 
L 29.703125 71.40625 
Q 28.5 71.796875 26.953125 72 
Q 25.40625 72.203125 24.203125 72.203125 
Q 17.203125 72.203125 13.546875 68.953125 
Q 9.90625 65.703125 9.90625 59.40625 
L 9.90625 51.703125 
L 1.203125 51.703125 
L 1.203125 44.203125 
z
" id="HelveticaNeue-102"/>
      <path d="M 25.90625 66.296875 
L 25.90625 73.09375 
L 7.203125 73.09375 
L 7.203125 -19.703125 
L 25.90625 -19.703125 
L 25.90625 -12.90625 
L 15.203125 -12.90625 
L 15.203125 66.296875 
z
" id="HelveticaNeue-91"/>
      <path d="M 50.90625 62.40625 
L 50.90625 69.703125 
L 5 69.703125 
L 5 61.703125 
L 42.203125 61.703125 
Q 36.59375 55.796875 31.75 48.796875 
Q 26.90625 41.796875 23.203125 33.9375 
Q 19.5 26.09375 17.140625 17.546875 
Q 14.796875 9 14.203125 0 
L 23.703125 0 
Q 24.203125 8.296875 26.5 17.09375 
Q 28.796875 25.90625 32.4375 34.203125 
Q 36.09375 42.5 40.796875 49.796875 
Q 45.5 57.09375 50.90625 62.40625 
z
" id="HelveticaNeue-55"/>
      <path d="M 0 -12.90625 
L 0 -19.703125 
L 18.703125 -19.703125 
L 18.703125 73.09375 
L 0 73.09375 
L 0 66.296875 
L 10.703125 66.296875 
L 10.703125 -12.90625 
z
" id="HelveticaNeue-93"/>
     </defs>
     <use xlink:href="#HelveticaNeue-77"/>
     <use x="87.099991" xlink:href="#HelveticaNeue-105"/>
     <use x="109.299988" xlink:href="#HelveticaNeue-97"/>
     <use x="162.999985" xlink:href="#HelveticaNeue-109"/>
     <use x="248.299973" xlink:href="#HelveticaNeue-105"/>
     <use x="270.499969" xlink:href="#HelveticaNeue-45"/>
     <use x="309.399963" xlink:href="#HelveticaNeue-68"/>
     <use x="379.799957" xlink:href="#HelveticaNeue-97"/>
     <use x="433.499954" xlink:href="#HelveticaNeue-100"/>
     <use x="492.799942" xlink:href="#HelveticaNeue-101"/>
     <use x="546.499939" xlink:href="#HelveticaNeue-32"/>
     <use x="574.299927" xlink:href="#HelveticaNeue-124"/>
     <use x="596.499924" xlink:href="#HelveticaNeue-32"/>
     <use x="624.299911" xlink:href="#HelveticaNeue-78"/>
     <use x="696.499893" xlink:href="#HelveticaNeue-101"/>
     <use x="750.19989" xlink:href="#HelveticaNeue-119"/>
     <use x="825.999878" xlink:href="#HelveticaNeue-32"/>
     <use x="853.799866" xlink:href="#HelveticaNeue-67"/>
     <use x="925.999847" xlink:href="#HelveticaNeue-97"/>
     <use x="979.699844" xlink:href="#HelveticaNeue-115"/>
     <use x="1029.699829" xlink:href="#HelveticaNeue-101"/>
     <use x="1083.399826" xlink:href="#HelveticaNeue-115"/>
     <use x="1133.399811" xlink:href="#HelveticaNeue-32"/>
     <use x="1161.199799" xlink:href="#HelveticaNeue-112"/>
     <use x="1220.499786" xlink:href="#HelveticaNeue-101"/>
     <use x="1274.199783" xlink:href="#HelveticaNeue-114"/>
     <use x="1307.499771" xlink:href="#HelveticaNeue-32"/>
     <use x="1335.299759" xlink:href="#HelveticaNeue-68"/>
     <use x="1405.699753" xlink:href="#HelveticaNeue-97"/>
     <use x="1459.39975" xlink:href="#HelveticaNeue-121"/>
     <use x="1509.399734" xlink:href="#HelveticaNeue-32"/>
     <use x="1537.199722" xlink:href="#HelveticaNeue-97"/>
     <use x="1590.899719" xlink:href="#HelveticaNeue-115"/>
     <use x="1640.899704" xlink:href="#HelveticaNeue-32"/>
     <use x="1668.699692" xlink:href="#HelveticaNeue-111"/>
     <use x="1726.099686" xlink:href="#HelveticaNeue-102"/>
     <use x="1755.699677" xlink:href="#HelveticaNeue-32"/>
     <use x="1783.499664" xlink:href="#HelveticaNeue-91"/>
     <use x="1809.399658" xlink:href="#HelveticaNeue-50"/>
     <use x="1864.999649" xlink:href="#HelveticaNeue-48"/>
     <use x="1920.59964" xlink:href="#HelveticaNeue-50"/>
     <use x="1976.199631" xlink:href="#HelveticaNeue-49"/>
     <use x="2031.799622" xlink:href="#HelveticaNeue-45"/>
     <use x="2070.699615" xlink:href="#HelveticaNeue-48"/>
     <use x="2126.299606" xlink:href="#HelveticaNeue-54"/>
     <use x="2181.899597" xlink:href="#HelveticaNeue-45"/>
     <use x="2220.799591" xlink:href="#HelveticaNeue-49"/>
     <use x="2276.399582" xlink:href="#HelveticaNeue-55"/>
     <use x="2331.999573" xlink:href="#HelveticaNeue-93"/>
    </g>
   </g>
   <g id="legend_1">
    <g id="line2d_26">
     <path d="M 62.60875 230.753951 
L 88.60875 230.753951 
" style="fill:none;stroke:#000000;stroke-dasharray:1.5,2.475;stroke-dashoffset:0;stroke-opacity:0.5;stroke-width:1.5;"/>
    </g>
    <g id="line2d_27"/>
    <g id="text_14">
     <!-- Actual -->
     <g style="fill:#555555;" transform="translate(99.00875 235.303951)scale(0.13 -0.13)">
      <use xlink:href="#HelveticaNeue-65"/>
      <use x="64.799988" xlink:href="#HelveticaNeue-99"/>
      <use x="118.499985" xlink:href="#HelveticaNeue-116"/>
      <use x="149.999969" xlink:href="#HelveticaNeue-117"/>
      <use x="205.59996" xlink:href="#HelveticaNeue-97"/>
      <use x="259.299957" xlink:href="#HelveticaNeue-108"/>
     </g>
    </g>
    <g id="line2d_28">
     <path d="M 62.60875 249.09817 
L 88.60875 249.09817 
" style="fill:none;stroke:#b3220f;stroke-linecap:square;stroke-width:1.5;"/>
    </g>
    <g id="line2d_29"/>
    <g id="text_15">
     <!-- 7-Day Average -->
     <g style="fill:#555555;" transform="translate(99.00875 253.64817)scale(0.13 -0.13)">
      <defs>
       <path d="M 29.703125 0 
L 48.59375 51.703125 
L 39.703125 51.703125 
L 25.59375 8.59375 
L 25.40625 8.59375 
L 10.90625 51.703125 
L 1.40625 51.703125 
L 20.59375 0 
z
" id="HelveticaNeue-118"/>
       <path d="M 51 4.40625 
L 51 51.703125 
L 43 51.703125 
L 43 44.296875 
L 42.90625 44.296875 
Q 40.59375 48.59375 36.5 50.75 
Q 32.40625 52.90625 27.5 52.90625 
Q 20.796875 52.90625 16.1875 50.34375 
Q 11.59375 47.796875 8.796875 43.84375 
Q 6 39.90625 4.796875 35.046875 
Q 3.59375 30.203125 3.59375 25.59375 
Q 3.59375 20.296875 5.046875 15.546875 
Q 6.5 10.796875 9.390625 7.25 
Q 12.296875 3.703125 16.59375 1.59375 
Q 20.90625 -0.5 26.703125 -0.5 
Q 31.703125 -0.5 36.140625 1.75 
Q 40.59375 4 42.796875 8.796875 
L 43 8.796875 
L 43 5.40625 
Q 43 1.09375 42.140625 -2.5 
Q 41.296875 -6.09375 39.390625 -8.640625 
Q 37.5 -11.203125 34.59375 -12.640625 
Q 31.703125 -14.09375 27.5 -14.09375 
Q 25.40625 -14.09375 23.09375 -13.640625 
Q 20.796875 -13.203125 18.84375 -12.203125 
Q 16.90625 -11.203125 15.546875 -9.59375 
Q 14.203125 -8 14.09375 -5.703125 
L 5.59375 -5.703125 
Q 5.796875 -9.90625 7.796875 -12.796875 
Q 9.796875 -15.703125 12.84375 -17.5 
Q 15.90625 -19.296875 19.65625 -20.09375 
Q 23.40625 -20.90625 27 -20.90625 
Q 39.40625 -20.90625 45.203125 -14.59375 
Q 51 -8.296875 51 4.40625 
z
M 27.203125 6.90625 
Q 23 6.90625 20.203125 8.65625 
Q 17.40625 10.40625 15.703125 13.25 
Q 14 16.09375 13.296875 19.59375 
Q 12.59375 23.09375 12.59375 26.59375 
Q 12.59375 30.296875 13.4375 33.6875 
Q 14.296875 37.09375 16.140625 39.6875 
Q 18 42.296875 20.890625 43.84375 
Q 23.796875 45.40625 27.90625 45.40625 
Q 31.90625 45.40625 34.703125 43.796875 
Q 37.5 42.203125 39.25 39.546875 
Q 41 36.90625 41.796875 33.59375 
Q 42.59375 30.296875 42.59375 26.90625 
Q 42.59375 23.296875 41.75 19.6875 
Q 40.90625 16.09375 39.09375 13.25 
Q 37.296875 10.40625 34.34375 8.65625 
Q 31.40625 6.90625 27.203125 6.90625 
z
" id="HelveticaNeue-103"/>
      </defs>
      <use xlink:href="#HelveticaNeue-55"/>
      <use x="55.599991" xlink:href="#HelveticaNeue-45"/>
      <use x="94.499985" xlink:href="#HelveticaNeue-68"/>
      <use x="164.899979" xlink:href="#HelveticaNeue-97"/>
      <use x="218.599976" xlink:href="#HelveticaNeue-121"/>
      <use x="268.59996" xlink:href="#HelveticaNeue-32"/>
      <use x="296.399948" xlink:href="#HelveticaNeue-65"/>
      <use x="359.449936" xlink:href="#HelveticaNeue-118"/>
      <use x="409.449921" xlink:href="#HelveticaNeue-101"/>
      <use x="463.149918" xlink:href="#HelveticaNeue-114"/>
      <use x="496.449905" xlink:href="#HelveticaNeue-97"/>
      <use x="550.149902" xlink:href="#HelveticaNeue-103"/>
      <use x="607.549896" xlink:href="#HelveticaNeue-101"/>
     </g>
    </g>
   </g>
  </g>
 </g>
 <defs>
  <clipPath id="p0845977138">
   <rect height="239.862857" width="387.411429" x="50.90875" y="28.203125"/>
  </clipPath>
 </defs>
</svg>
