<?xml version="1.0" encoding="utf-8" standalone="no"?>
<!DOCTYPE svg PUBLIC "-//W3C//DTD SVG 1.1//EN"
  "http://www.w3.org/Graphics/SVG/1.1/DTD/svg11.dtd">
<!-- Created with matplotlib (https://matplotlib.org/) -->
<svg height="323.655201pt" version="1.1" viewBox="0 0 447.507448 323.655201" width="447.507448pt" xmlns="http://www.w3.org/2000/svg" xmlns:xlink="http://www.w3.org/1999/xlink">
 <metadata>
  <rdf:RDF xmlns:cc="http://creativecommons.org/ns#" xmlns:dc="http://purl.org/dc/elements/1.1/" xmlns:rdf="http://www.w3.org/1999/02/22-rdf-syntax-ns#">
   <cc:Work>
    <dc:type rdf:resource="http://purl.org/dc/dcmitype/StillImage"/>
    <dc:date>2021-07-10T13:29:36.213982</dc:date>
    <dc:format>image/svg+xml</dc:format>
    <dc:creator>
     <cc:Agent>
      <dc:title>Matplotlib v3.3.4, https://matplotlib.org/</dc:title>
     </cc:Agent>
    </dc:creator>
   </cc:Work>
  </rdf:RDF>
 </metadata>
 <defs>
  <style type="text/css">*{stroke-linecap:butt;stroke-linejoin:round;}</style>
 </defs>
 <g id="figure_1">
  <g id="patch_1">
   <path d="M 0 323.655201 
L 447.507448 323.655201 
L 447.507448 0 
L 0 0 
z
" style="fill:#ffffff;"/>
  </g>
  <g id="axes_1">
   <g id="patch_2">
    <path d="M 50.90875 268.065982 
L 438.320179 268.065982 
L 438.320179 28.203125 
L 50.90875 28.203125 
z
" style="fill:#ffffff;"/>
   </g>
   <g id="matplotlib.axis_1">
    <g id="xtick_1">
     <g id="line2d_1">
      <defs>
       <path d="M 0 0 
L 0 3.5 
" id="mdb5c9c7c6f" style="stroke:#555555;stroke-width:0.8;"/>
      </defs>
      <g>
       <use style="fill:#555555;stroke:#555555;stroke-width:0.8;" x="50.90875" xlink:href="#mdb5c9c7c6f" y="268.065982"/>
      </g>
     </g>
    </g>
    <g id="xtick_2">
     <g id="line2d_2">
      <g>
       <use style="fill:#555555;stroke:#555555;stroke-width:0.8;" x="64.601046" xlink:href="#mdb5c9c7c6f" y="268.065982"/>
      </g>
     </g>
     <g id="text_1">
      <!-- Apr -->
      <g style="fill:#555555;" transform="translate(54.370655 284.348795)scale(0.13 -0.13)">
       <defs>
        <path d="M 20.09375 29.5 
L 32.203125 62.796875 
L 32.40625 62.796875 
L 44.296875 29.5 
z
M 27.203125 71.40625 
L -0.59375 0 
L 9.09375 0 
L 17.09375 21.5 
L 47.296875 21.5 
L 55.09375 0 
L 65.59375 0 
L 37.703125 71.40625 
z
" id="HelveticaNeue-65"/>
        <path d="M 6.703125 51.703125 
L 6.703125 -19.703125 
L 15.203125 -19.703125 
L 15.203125 6.90625 
L 15.40625 6.90625 
Q 16.796875 4.59375 18.84375 3.046875 
Q 20.90625 1.5 23.203125 0.59375 
Q 25.5 -0.296875 27.84375 -0.6875 
Q 30.203125 -1.09375 32.09375 -1.09375 
Q 38 -1.09375 42.453125 1 
Q 46.90625 3.09375 49.84375 6.75 
Q 52.796875 10.40625 54.25 15.296875 
Q 55.703125 20.203125 55.703125 25.703125 
Q 55.703125 31.203125 54.203125 36.09375 
Q 52.703125 41 49.75 44.75 
Q 46.796875 48.5 42.34375 50.703125 
Q 37.90625 52.90625 31.90625 52.90625 
Q 26.5 52.90625 22 50.953125 
Q 17.5 49 15.40625 44.703125 
L 15.203125 44.703125 
L 15.203125 51.703125 
z
M 46.703125 26.296875 
Q 46.703125 22.5 45.890625 18.890625 
Q 45.09375 15.296875 43.296875 12.5 
Q 41.5 9.703125 38.546875 8 
Q 35.59375 6.296875 31.203125 6.296875 
Q 26.796875 6.296875 23.6875 7.9375 
Q 20.59375 9.59375 18.640625 12.296875 
Q 16.703125 15 15.796875 18.546875 
Q 14.90625 22.09375 14.90625 25.90625 
Q 14.90625 29.5 15.75 33 
Q 16.59375 36.5 18.5 39.25 
Q 20.40625 42 23.40625 43.703125 
Q 26.40625 45.40625 30.703125 45.40625 
Q 34.796875 45.40625 37.84375 43.796875 
Q 40.90625 42.203125 42.84375 39.5 
Q 44.796875 36.796875 45.75 33.34375 
Q 46.703125 29.90625 46.703125 26.296875 
z
" id="HelveticaNeue-112"/>
        <path d="M 6.09375 51.703125 
L 6.09375 0 
L 14.59375 0 
L 14.59375 23 
Q 14.59375 28 15.59375 31.84375 
Q 16.59375 35.703125 18.796875 38.390625 
Q 21 41.09375 24.59375 42.5 
Q 28.203125 43.90625 33.296875 43.90625 
L 33.296875 52.90625 
Q 26.40625 53.09375 21.90625 50.09375 
Q 17.40625 47.09375 14.296875 40.796875 
L 14.09375 40.796875 
L 14.09375 51.703125 
z
" id="HelveticaNeue-114"/>
       </defs>
       <use xlink:href="#HelveticaNeue-65"/>
       <use x="64.799988" xlink:href="#HelveticaNeue-112"/>
       <use x="124.099976" xlink:href="#HelveticaNeue-114"/>
      </g>
     </g>
    </g>
    <g id="xtick_3">
     <g id="line2d_3">
      <g>
       <use style="fill:#555555;stroke:#555555;stroke-width:0.8;" x="137.8951" xlink:href="#mdb5c9c7c6f" y="268.065982"/>
      </g>
     </g>
     <g id="text_2">
      <!-- Jul -->
      <g style="fill:#555555;" transform="translate(129.464397 284.348795)scale(0.13 -0.13)">
       <defs>
        <path d="M 44.09375 17.796875 
L 44.09375 71.40625 
L 34.59375 71.40625 
L 34.59375 19.203125 
Q 34.59375 13.296875 32.140625 9.796875 
Q 29.703125 6.296875 23.203125 6.296875 
Q 19.703125 6.296875 17.453125 7.34375 
Q 15.203125 8.40625 13.953125 10.296875 
Q 12.703125 12.203125 12.203125 14.796875 
Q 11.703125 17.40625 11.703125 20.5 
L 11.703125 23.5 
L 2.203125 23.5 
L 2.203125 19.09375 
Q 2.203125 8.90625 7.59375 3.65625 
Q 13 -1.59375 23 -1.59375 
Q 29 -1.59375 33.046875 0.046875 
Q 37.09375 1.703125 39.546875 4.453125 
Q 42 7.203125 43.046875 10.703125 
Q 44.09375 14.203125 44.09375 17.796875 
z
" id="HelveticaNeue-74"/>
        <path d="M 49.203125 0 
L 49.203125 51.703125 
L 40.703125 51.703125 
L 40.703125 22.5 
Q 40.703125 19 39.75 16.046875 
Q 38.796875 13.09375 36.890625 10.890625 
Q 35 8.703125 32.140625 7.5 
Q 29.296875 6.296875 25.40625 6.296875 
Q 20.5 6.296875 17.703125 9.09375 
Q 14.90625 11.90625 14.90625 16.703125 
L 14.90625 51.703125 
L 6.40625 51.703125 
L 6.40625 17.703125 
Q 6.40625 13.5 7.25 10.046875 
Q 8.09375 6.59375 10.1875 4.09375 
Q 12.296875 1.59375 15.6875 0.25 
Q 19.09375 -1.09375 24.203125 -1.09375 
Q 29.90625 -1.09375 34.09375 1.15625 
Q 38.296875 3.40625 41 8.203125 
L 41.203125 8.203125 
L 41.203125 0 
z
" id="HelveticaNeue-117"/>
        <path d="M 6.90625 71.40625 
L 6.90625 0 
L 15.40625 0 
L 15.40625 71.40625 
z
" id="HelveticaNeue-108"/>
       </defs>
       <use xlink:href="#HelveticaNeue-74"/>
       <use x="51.899994" xlink:href="#HelveticaNeue-117"/>
       <use x="107.499985" xlink:href="#HelveticaNeue-108"/>
      </g>
     </g>
    </g>
    <g id="xtick_4">
     <g id="line2d_4">
      <g>
       <use style="fill:#555555;stroke:#555555;stroke-width:0.8;" x="211.994583" xlink:href="#mdb5c9c7c6f" y="268.065982"/>
      </g>
     </g>
     <g id="text_3">
      <!-- Oct -->
      <g style="fill:#555555;" transform="translate(201.51638 284.348795)scale(0.13 -0.13)">
       <defs>
        <path d="M 13.296875 35.703125 
Q 13.296875 41.09375 14.6875 46.34375 
Q 16.09375 51.59375 19.09375 55.796875 
Q 22.09375 60 26.796875 62.546875 
Q 31.5 65.09375 38 65.09375 
Q 44.5 65.09375 49.203125 62.546875 
Q 53.90625 60 56.90625 55.796875 
Q 59.90625 51.59375 61.296875 46.34375 
Q 62.703125 41.09375 62.703125 35.703125 
Q 62.703125 30.296875 61.296875 25.046875 
Q 59.90625 19.796875 56.90625 15.59375 
Q 53.90625 11.40625 49.203125 8.84375 
Q 44.5 6.296875 38 6.296875 
Q 31.5 6.296875 26.796875 8.84375 
Q 22.09375 11.40625 19.09375 15.59375 
Q 16.09375 19.796875 14.6875 25.046875 
Q 13.296875 30.296875 13.296875 35.703125 
z
M 3.796875 35.703125 
Q 3.796875 28.40625 5.9375 21.65625 
Q 8.09375 14.90625 12.390625 9.703125 
Q 16.703125 4.5 23.09375 1.453125 
Q 29.5 -1.59375 38 -1.59375 
Q 46.5 -1.59375 52.890625 1.453125 
Q 59.296875 4.5 63.59375 9.703125 
Q 67.90625 14.90625 70.046875 21.65625 
Q 72.203125 28.40625 72.203125 35.703125 
Q 72.203125 43 70.046875 49.75 
Q 67.90625 56.5 63.59375 61.703125 
Q 59.296875 66.90625 52.890625 70 
Q 46.5 73.09375 38 73.09375 
Q 29.5 73.09375 23.09375 70 
Q 16.703125 66.90625 12.390625 61.703125 
Q 8.09375 56.5 5.9375 49.75 
Q 3.796875 43 3.796875 35.703125 
z
" id="HelveticaNeue-79"/>
        <path d="M 41.5 35.09375 
L 50.296875 35.09375 
Q 49.796875 39.703125 47.890625 43.046875 
Q 46 46.40625 43.046875 48.59375 
Q 40.09375 50.796875 36.25 51.84375 
Q 32.40625 52.90625 28 52.90625 
Q 21.90625 52.90625 17.296875 50.75 
Q 12.703125 48.59375 9.640625 44.84375 
Q 6.59375 41.09375 5.09375 36.046875 
Q 3.59375 31 3.59375 25.203125 
Q 3.59375 19.40625 5.140625 14.546875 
Q 6.703125 9.703125 9.75 6.203125 
Q 12.796875 2.703125 17.34375 0.796875 
Q 21.90625 -1.09375 27.796875 -1.09375 
Q 37.703125 -1.09375 43.453125 4.09375 
Q 49.203125 9.296875 50.59375 18.90625 
L 41.90625 18.90625 
Q 41.09375 12.90625 37.546875 9.59375 
Q 34 6.296875 27.703125 6.296875 
Q 23.703125 6.296875 20.796875 7.890625 
Q 17.90625 9.5 16.09375 12.140625 
Q 14.296875 14.796875 13.4375 18.1875 
Q 12.59375 21.59375 12.59375 25.203125 
Q 12.59375 29.09375 13.390625 32.75 
Q 14.203125 36.40625 16.046875 39.203125 
Q 17.90625 42 21 43.703125 
Q 24.09375 45.40625 28.703125 45.40625 
Q 34.09375 45.40625 37.296875 42.703125 
Q 40.5 40 41.5 35.09375 
z
" id="HelveticaNeue-99"/>
        <path d="M 18.203125 51.703125 
L 18.203125 67.203125 
L 9.703125 67.203125 
L 9.703125 51.703125 
L 0.90625 51.703125 
L 0.90625 44.203125 
L 9.703125 44.203125 
L 9.703125 11.296875 
Q 9.703125 7.703125 10.390625 5.5 
Q 11.09375 3.296875 12.546875 2.09375 
Q 14 0.90625 16.34375 0.453125 
Q 18.703125 0 22 0 
L 28.5 0 
L 28.5 7.5 
L 24.59375 7.5 
Q 22.59375 7.5 21.34375 7.640625 
Q 20.09375 7.796875 19.390625 8.296875 
Q 18.703125 8.796875 18.453125 9.6875 
Q 18.203125 10.59375 18.203125 12.09375 
L 18.203125 44.203125 
L 28.5 44.203125 
L 28.5 51.703125 
z
" id="HelveticaNeue-116"/>
       </defs>
       <use xlink:href="#HelveticaNeue-79"/>
       <use x="75.999985" xlink:href="#HelveticaNeue-99"/>
       <use x="129.699982" xlink:href="#HelveticaNeue-116"/>
      </g>
     </g>
    </g>
    <g id="xtick_5">
     <g id="line2d_5">
      <g>
       <use style="fill:#555555;stroke:#555555;stroke-width:0.8;" x="286.094066" xlink:href="#mdb5c9c7c6f" y="268.065982"/>
      </g>
     </g>
     <g id="text_4">
      <!-- Jan -->
      <g style="fill:#555555;" transform="translate(275.615863 284.348795)scale(0.13 -0.13)">
       <defs>
        <path d="M 52.203125 0.203125 
Q 50 -1.09375 46.09375 -1.09375 
Q 42.796875 -1.09375 40.84375 0.75 
Q 38.90625 2.59375 38.90625 6.796875 
Q 35.40625 2.59375 30.75 0.75 
Q 26.09375 -1.09375 20.703125 -1.09375 
Q 17.203125 -1.09375 14.046875 -0.296875 
Q 10.90625 0.5 8.59375 2.203125 
Q 6.296875 3.90625 4.9375 6.65625 
Q 3.59375 9.40625 3.59375 13.296875 
Q 3.59375 17.703125 5.09375 20.5 
Q 6.59375 23.296875 9.046875 25.046875 
Q 11.5 26.796875 14.640625 27.6875 
Q 17.796875 28.59375 21.09375 29.203125 
Q 24.59375 29.90625 27.75 30.25 
Q 30.90625 30.59375 33.296875 31.25 
Q 35.703125 31.90625 37.09375 33.15625 
Q 38.5 34.40625 38.5 36.796875 
Q 38.5 39.59375 37.453125 41.296875 
Q 36.40625 43 34.75 43.890625 
Q 33.09375 44.796875 31.046875 45.09375 
Q 29 45.40625 27 45.40625 
Q 21.59375 45.40625 18 43.34375 
Q 14.40625 41.296875 14.09375 35.59375 
L 5.59375 35.59375 
Q 5.796875 40.40625 7.59375 43.703125 
Q 9.40625 47 12.40625 49.046875 
Q 15.40625 51.09375 19.25 52 
Q 23.09375 52.90625 27.5 52.90625 
Q 31 52.90625 34.453125 52.40625 
Q 37.90625 51.90625 40.703125 50.34375 
Q 43.5 48.796875 45.203125 46 
Q 46.90625 43.203125 46.90625 38.703125 
L 46.90625 12.09375 
Q 46.90625 9.09375 47.25 7.6875 
Q 47.59375 6.296875 49.59375 6.296875 
Q 50.703125 6.296875 52.203125 6.796875 
z
M 38.40625 26.703125 
Q 36.796875 25.5 34.1875 24.953125 
Q 31.59375 24.40625 28.75 24.046875 
Q 25.90625 23.703125 23 23.25 
Q 20.09375 22.796875 17.796875 21.796875 
Q 15.5 20.796875 14.046875 18.9375 
Q 12.59375 17.09375 12.59375 13.90625 
Q 12.59375 11.796875 13.4375 10.34375 
Q 14.296875 8.90625 15.640625 8 
Q 17 7.09375 18.796875 6.6875 
Q 20.59375 6.296875 22.59375 6.296875 
Q 26.796875 6.296875 29.796875 7.4375 
Q 32.796875 8.59375 34.6875 10.34375 
Q 36.59375 12.09375 37.5 14.140625 
Q 38.40625 16.203125 38.40625 18 
z
" id="HelveticaNeue-97"/>
        <path d="M 6.40625 51.703125 
L 6.40625 0 
L 14.90625 0 
L 14.90625 29.203125 
Q 14.90625 32.703125 15.84375 35.640625 
Q 16.796875 38.59375 18.6875 40.796875 
Q 20.59375 43 23.4375 44.203125 
Q 26.296875 45.40625 30.203125 45.40625 
Q 35.09375 45.40625 37.890625 42.59375 
Q 40.703125 39.796875 40.703125 35 
L 40.703125 0 
L 49.203125 0 
L 49.203125 34 
Q 49.203125 38.203125 48.34375 41.640625 
Q 47.5 45.09375 45.390625 47.59375 
Q 43.296875 50.09375 39.890625 51.5 
Q 36.5 52.90625 31.40625 52.90625 
Q 19.90625 52.90625 14.59375 43.5 
L 14.40625 43.5 
L 14.40625 51.703125 
z
" id="HelveticaNeue-110"/>
       </defs>
       <use xlink:href="#HelveticaNeue-74"/>
       <use x="51.899994" xlink:href="#HelveticaNeue-97"/>
       <use x="105.599991" xlink:href="#HelveticaNeue-110"/>
      </g>
      <!-- 2021 -->
      <g style="fill:#555555;" transform="translate(271.639691 298.049576)scale(0.13 -0.13)">
       <defs>
        <path d="M 4.40625 45.796875 
L 12.90625 45.796875 
Q 12.796875 49 13.546875 52.140625 
Q 14.296875 55.296875 16 57.796875 
Q 17.703125 60.296875 20.34375 61.84375 
Q 23 63.40625 26.703125 63.40625 
Q 29.5 63.40625 32 62.5 
Q 34.5 61.59375 36.34375 59.890625 
Q 38.203125 58.203125 39.296875 55.84375 
Q 40.40625 53.5 40.40625 50.59375 
Q 40.40625 46.90625 39.25 44.09375 
Q 38.09375 41.296875 35.84375 38.890625 
Q 33.59375 36.5 30.1875 34.140625 
Q 26.796875 31.796875 22.296875 29 
Q 18.59375 26.796875 15.1875 24.296875 
Q 11.796875 21.796875 9.09375 18.5 
Q 6.40625 15.203125 4.65625 10.75 
Q 2.90625 6.296875 2.40625 0 
L 48.703125 0 
L 48.703125 7.5 
L 12.296875 7.5 
Q 12.90625 10.796875 14.84375 13.34375 
Q 16.796875 15.90625 19.546875 18.09375 
Q 22.296875 20.296875 25.59375 22.25 
Q 28.90625 24.203125 32.203125 26.203125 
Q 35.5 28.296875 38.59375 30.59375 
Q 41.703125 32.90625 44.09375 35.75 
Q 46.5 38.59375 47.953125 42.1875 
Q 49.40625 45.796875 49.40625 50.5 
Q 49.40625 55.5 47.65625 59.296875 
Q 45.90625 63.09375 42.90625 65.640625 
Q 39.90625 68.203125 35.84375 69.546875 
Q 31.796875 70.90625 27.203125 70.90625 
Q 21.59375 70.90625 17.1875 69 
Q 12.796875 67.09375 9.84375 63.75 
Q 6.90625 60.40625 5.5 55.796875 
Q 4.09375 51.203125 4.40625 45.796875 
z
" id="HelveticaNeue-50"/>
        <path d="M 13.203125 34.90625 
Q 13.203125 37.5 13.25 40.640625 
Q 13.296875 43.796875 13.75 46.9375 
Q 14.203125 50.09375 15.046875 53.09375 
Q 15.90625 56.09375 17.546875 58.34375 
Q 19.203125 60.59375 21.703125 62 
Q 24.203125 63.40625 27.796875 63.40625 
Q 31.40625 63.40625 33.90625 62 
Q 36.40625 60.59375 38.046875 58.34375 
Q 39.703125 56.09375 40.546875 53.09375 
Q 41.40625 50.09375 41.84375 46.9375 
Q 42.296875 43.796875 42.34375 40.640625 
Q 42.40625 37.5 42.40625 34.90625 
Q 42.40625 30.90625 42.15625 25.953125 
Q 41.90625 21 40.546875 16.640625 
Q 39.203125 12.296875 36.203125 9.296875 
Q 33.203125 6.296875 27.796875 6.296875 
Q 22.40625 6.296875 19.40625 9.296875 
Q 16.40625 12.296875 15.046875 16.640625 
Q 13.703125 21 13.453125 25.953125 
Q 13.203125 30.90625 13.203125 34.90625 
z
M 4.203125 34.796875 
Q 4.203125 30.90625 4.390625 26.703125 
Q 4.59375 22.5 5.390625 18.5 
Q 6.203125 14.5 7.703125 10.953125 
Q 9.203125 7.40625 11.796875 4.703125 
Q 14.40625 2 18.34375 0.453125 
Q 22.296875 -1.09375 27.796875 -1.09375 
Q 33.40625 -1.09375 37.296875 0.453125 
Q 41.203125 2 43.796875 4.703125 
Q 46.40625 7.40625 47.90625 10.953125 
Q 49.40625 14.5 50.203125 18.5 
Q 51 22.5 51.203125 26.703125 
Q 51.40625 30.90625 51.40625 34.796875 
Q 51.40625 38.703125 51.203125 42.890625 
Q 51 47.09375 50.203125 51.09375 
Q 49.40625 55.09375 47.90625 58.6875 
Q 46.40625 62.296875 43.796875 65 
Q 41.203125 67.703125 37.25 69.296875 
Q 33.296875 70.90625 27.796875 70.90625 
Q 22.296875 70.90625 18.34375 69.296875 
Q 14.40625 67.703125 11.796875 65 
Q 9.203125 62.296875 7.703125 58.6875 
Q 6.203125 55.09375 5.390625 51.09375 
Q 4.59375 47.09375 4.390625 42.890625 
Q 4.203125 38.703125 4.203125 34.796875 
z
" id="HelveticaNeue-48"/>
        <path d="M 35.59375 0 
L 35.59375 70.90625 
L 29.09375 70.90625 
Q 28.40625 66.90625 26.5 64.296875 
Q 24.59375 61.703125 21.84375 60.203125 
Q 19.09375 58.703125 15.6875 58.140625 
Q 12.296875 57.59375 8.703125 57.59375 
L 8.703125 50.796875 
L 27.09375 50.796875 
L 27.09375 0 
z
" id="HelveticaNeue-49"/>
       </defs>
       <use xlink:href="#HelveticaNeue-50"/>
       <use x="55.599991" xlink:href="#HelveticaNeue-48"/>
       <use x="111.199982" xlink:href="#HelveticaNeue-50"/>
       <use x="166.799973" xlink:href="#HelveticaNeue-49"/>
      </g>
     </g>
    </g>
    <g id="xtick_6">
     <g id="line2d_6">
      <g>
       <use style="fill:#555555;stroke:#555555;stroke-width:0.8;" x="358.582691" xlink:href="#mdb5c9c7c6f" y="268.065982"/>
      </g>
     </g>
     <g id="text_5">
      <!-- Apr -->
      <g style="fill:#555555;" transform="translate(348.352301 284.348795)scale(0.13 -0.13)">
       <use xlink:href="#HelveticaNeue-65"/>
       <use x="64.799988" xlink:href="#HelveticaNeue-112"/>
       <use x="124.099976" xlink:href="#HelveticaNeue-114"/>
      </g>
     </g>
    </g>
    <g id="xtick_7">
     <g id="line2d_7">
      <g>
       <use style="fill:#555555;stroke:#555555;stroke-width:0.8;" x="431.876745" xlink:href="#mdb5c9c7c6f" y="268.065982"/>
      </g>
     </g>
     <g id="text_6">
      <!-- Jul -->
      <g style="fill:#555555;" transform="translate(423.446042 284.348795)scale(0.13 -0.13)">
       <use xlink:href="#HelveticaNeue-74"/>
       <use x="51.899994" xlink:href="#HelveticaNeue-117"/>
       <use x="107.499985" xlink:href="#HelveticaNeue-108"/>
      </g>
     </g>
    </g>
    <g id="xtick_8">
     <g id="line2d_8">
      <g>
       <use style="fill:#555555;stroke:#555555;stroke-width:0.8;" x="438.320179" xlink:href="#mdb5c9c7c6f" y="268.065982"/>
      </g>
     </g>
    </g>
    <g id="xtick_9">
     <g id="line2d_9">
      <defs>
       <path d="M 0 0 
L 0 2 
" id="m7f978a4515" style="stroke:#555555;stroke-width:0.6;"/>
      </defs>
      <g>
       <use style="fill:#555555;stroke:#555555;stroke-width:0.6;" x="88.763921" xlink:href="#m7f978a4515" y="268.065982"/>
      </g>
     </g>
    </g>
    <g id="xtick_10">
     <g id="line2d_10">
      <g>
       <use style="fill:#555555;stroke:#555555;stroke-width:0.6;" x="113.732225" xlink:href="#m7f978a4515" y="268.065982"/>
      </g>
     </g>
    </g>
    <g id="xtick_11">
     <g id="line2d_11">
      <g>
       <use style="fill:#555555;stroke:#555555;stroke-width:0.6;" x="162.863404" xlink:href="#m7f978a4515" y="268.065982"/>
      </g>
     </g>
    </g>
    <g id="xtick_12">
     <g id="line2d_12">
      <g>
       <use style="fill:#555555;stroke:#555555;stroke-width:0.6;" x="187.831708" xlink:href="#m7f978a4515" y="268.065982"/>
      </g>
     </g>
    </g>
    <g id="xtick_13">
     <g id="line2d_13">
      <g>
       <use style="fill:#555555;stroke:#555555;stroke-width:0.6;" x="236.962887" xlink:href="#m7f978a4515" y="268.065982"/>
      </g>
     </g>
    </g>
    <g id="xtick_14">
     <g id="line2d_14">
      <g>
       <use style="fill:#555555;stroke:#555555;stroke-width:0.6;" x="261.125762" xlink:href="#m7f978a4515" y="268.065982"/>
      </g>
     </g>
    </g>
    <g id="xtick_15">
     <g id="line2d_15">
      <g>
       <use style="fill:#555555;stroke:#555555;stroke-width:0.6;" x="311.06237" xlink:href="#m7f978a4515" y="268.065982"/>
      </g>
     </g>
    </g>
    <g id="xtick_16">
     <g id="line2d_16">
      <g>
       <use style="fill:#555555;stroke:#555555;stroke-width:0.6;" x="333.614387" xlink:href="#m7f978a4515" y="268.065982"/>
      </g>
     </g>
    </g>
    <g id="xtick_17">
     <g id="line2d_17">
      <g>
       <use style="fill:#555555;stroke:#555555;stroke-width:0.6;" x="382.745566" xlink:href="#m7f978a4515" y="268.065982"/>
      </g>
     </g>
    </g>
    <g id="xtick_18">
     <g id="line2d_18">
      <g>
       <use style="fill:#555555;stroke:#555555;stroke-width:0.6;" x="407.71387" xlink:href="#m7f978a4515" y="268.065982"/>
      </g>
     </g>
    </g>
    <g id="text_7">
     <!-- date -->
     <g style="fill:#555555;" transform="translate(231.731261 313.893795)scale(0.13 -0.13)">
      <defs>
       <path d="M 12.59375 25.40625 
Q 12.59375 29.203125 13.390625 32.796875 
Q 14.203125 36.40625 16 39.203125 
Q 17.796875 42 20.796875 43.703125 
Q 23.796875 45.40625 28.09375 45.40625 
Q 32.5 45.40625 35.59375 43.75 
Q 38.703125 42.09375 40.640625 39.390625 
Q 42.59375 36.703125 43.5 33.140625 
Q 44.40625 29.59375 44.40625 25.796875 
Q 44.40625 22.203125 43.546875 18.703125 
Q 42.703125 15.203125 40.796875 12.453125 
Q 38.90625 9.703125 35.90625 8 
Q 32.90625 6.296875 28.59375 6.296875 
Q 24.5 6.296875 21.453125 7.890625 
Q 18.40625 9.5 16.453125 12.203125 
Q 14.5 14.90625 13.546875 18.34375 
Q 12.59375 21.796875 12.59375 25.40625 
z
M 52.59375 0 
L 52.59375 71.40625 
L 44.09375 71.40625 
L 44.09375 44.796875 
L 43.90625 44.796875 
Q 42.5 47.09375 40.453125 48.640625 
Q 38.40625 50.203125 36.09375 51.140625 
Q 33.796875 52.09375 31.5 52.5 
Q 29.203125 52.90625 27.203125 52.90625 
Q 21.296875 52.90625 16.84375 50.75 
Q 12.40625 48.59375 9.453125 44.9375 
Q 6.5 41.296875 5.046875 36.390625 
Q 3.59375 31.5 3.59375 26 
Q 3.59375 20.5 5.09375 15.59375 
Q 6.59375 10.703125 9.546875 7 
Q 12.5 3.296875 16.953125 1.09375 
Q 21.40625 -1.09375 27.40625 -1.09375 
Q 32.796875 -1.09375 37.296875 0.796875 
Q 41.796875 2.703125 43.90625 7 
L 44.09375 7 
L 44.09375 0 
z
" id="HelveticaNeue-100"/>
       <path d="M 42.296875 30.796875 
L 12.59375 30.796875 
Q 12.796875 33.796875 13.890625 36.4375 
Q 15 39.09375 16.890625 41.09375 
Q 18.796875 43.09375 21.4375 44.25 
Q 24.09375 45.40625 27.40625 45.40625 
Q 30.59375 45.40625 33.25 44.25 
Q 35.90625 43.09375 37.84375 41.140625 
Q 39.796875 39.203125 40.9375 36.5 
Q 42.09375 33.796875 42.296875 30.796875 
z
M 50.5 16.40625 
L 42.09375 16.40625 
Q 41 11.296875 37.546875 8.796875 
Q 34.09375 6.296875 28.703125 6.296875 
Q 24.5 6.296875 21.390625 7.6875 
Q 18.296875 9.09375 16.296875 11.4375 
Q 14.296875 13.796875 13.390625 16.84375 
Q 12.5 19.90625 12.59375 23.296875 
L 51.296875 23.296875 
Q 51.5 28 50.453125 33.203125 
Q 49.40625 38.40625 46.65625 42.796875 
Q 43.90625 47.203125 39.34375 50.046875 
Q 34.796875 52.90625 27.90625 52.90625 
Q 22.59375 52.90625 18.140625 50.90625 
Q 13.703125 48.90625 10.453125 45.296875 
Q 7.203125 41.703125 5.390625 36.796875 
Q 3.59375 31.90625 3.59375 26 
Q 3.796875 20.09375 5.34375 15.09375 
Q 6.90625 10.09375 10 6.5 
Q 13.09375 2.90625 17.640625 0.90625 
Q 22.203125 -1.09375 28.40625 -1.09375 
Q 37.203125 -1.09375 43 3.296875 
Q 48.796875 7.703125 50.5 16.40625 
z
" id="HelveticaNeue-101"/>
      </defs>
      <use xlink:href="#HelveticaNeue-100"/>
      <use x="59.299988" xlink:href="#HelveticaNeue-97"/>
      <use x="112.999985" xlink:href="#HelveticaNeue-116"/>
      <use x="144.499969" xlink:href="#HelveticaNeue-101"/>
     </g>
    </g>
   </g>
   <g id="matplotlib.axis_2">
    <g id="ytick_1">
     <g id="line2d_19">
      <defs>
       <path d="M 0 0 
L -3.5 0 
" id="m8af89a3981" style="stroke:#555555;stroke-width:0.8;"/>
      </defs>
      <g>
       <use style="fill:#555555;stroke:#555555;stroke-width:0.8;" x="50.90875" xlink:href="#m8af89a3981" y="251.512225"/>
      </g>
     </g>
     <g id="text_8">
      <!-- −6000 -->
      <g style="fill:#555555;" transform="translate(7.2 256.153632)scale(0.13 -0.13)">
       <defs>
        <path d="M 4.796875 28.703125 
L 4.796875 21.90625 
L 55.203125 21.90625 
L 55.203125 28.703125 
z
" id="HelveticaNeue-8722"/>
        <path d="M 41.40625 52.796875 
L 49.90625 52.796875 
Q 49.09375 61.59375 43.890625 66.25 
Q 38.703125 70.90625 29.90625 70.90625 
Q 22.296875 70.90625 17.296875 67.703125 
Q 12.296875 64.5 9.296875 59.203125 
Q 6.296875 53.90625 5.046875 47.046875 
Q 3.796875 40.203125 3.796875 32.90625 
Q 3.796875 27.296875 4.640625 21.296875 
Q 5.5 15.296875 8.09375 10.296875 
Q 10.703125 5.296875 15.5 2.09375 
Q 20.296875 -1.09375 28.203125 -1.09375 
Q 34.90625 -1.09375 39.453125 1.15625 
Q 44 3.40625 46.75 6.84375 
Q 49.5 10.296875 50.703125 14.5 
Q 51.90625 18.703125 51.90625 22.59375 
Q 51.90625 27.5 50.40625 31.703125 
Q 48.90625 35.90625 46.15625 39 
Q 43.40625 42.09375 39.34375 43.84375 
Q 35.296875 45.59375 30.203125 45.59375 
Q 24.40625 45.59375 19.953125 43.390625 
Q 15.5 41.203125 12.5 36.296875 
L 12.296875 36.5 
Q 12.40625 40.59375 13.09375 45.296875 
Q 13.796875 50 15.640625 54.046875 
Q 17.5 58.09375 20.796875 60.75 
Q 24.09375 63.40625 29.5 63.40625 
Q 34.59375 63.40625 37.6875 60.5 
Q 40.796875 57.59375 41.40625 52.796875 
z
M 28.59375 38.09375 
Q 32.203125 38.09375 34.890625 36.796875 
Q 37.59375 35.5 39.390625 33.34375 
Q 41.203125 31.203125 42.046875 28.25 
Q 42.90625 25.296875 42.90625 22 
Q 42.90625 18.90625 41.953125 16.046875 
Q 41 13.203125 39.203125 11 
Q 37.40625 8.796875 34.75 7.546875 
Q 32.09375 6.296875 28.59375 6.296875 
Q 25.09375 6.296875 22.34375 7.546875 
Q 19.59375 8.796875 17.75 10.890625 
Q 15.90625 13 14.90625 15.890625 
Q 13.90625 18.796875 13.90625 22.09375 
Q 13.90625 25.40625 14.84375 28.34375 
Q 15.796875 31.296875 17.6875 33.4375 
Q 19.59375 35.59375 22.296875 36.84375 
Q 25 38.09375 28.59375 38.09375 
z
" id="HelveticaNeue-54"/>
       </defs>
       <use xlink:href="#HelveticaNeue-8722"/>
       <use x="59.999985" xlink:href="#HelveticaNeue-54"/>
       <use x="115.599976" xlink:href="#HelveticaNeue-48"/>
       <use x="171.199966" xlink:href="#HelveticaNeue-48"/>
       <use x="226.799957" xlink:href="#HelveticaNeue-48"/>
      </g>
     </g>
    </g>
    <g id="ytick_2">
     <g id="line2d_20">
      <g>
       <use style="fill:#555555;stroke:#555555;stroke-width:0.8;" x="50.90875" xlink:href="#m8af89a3981" y="213.964719"/>
      </g>
     </g>
     <g id="text_9">
      <!-- −4000 -->
      <g style="fill:#555555;" transform="translate(7.2 218.606125)scale(0.13 -0.13)">
       <defs>
        <path d="M 33.90625 24.09375 
L 10.09375 24.09375 
L 33.703125 58.796875 
L 33.90625 58.796875 
z
M 41.90625 24.09375 
L 41.90625 70.90625 
L 35.09375 70.90625 
L 2.796875 24.796875 
L 2.796875 16.59375 
L 33.90625 16.59375 
L 33.90625 0 
L 41.90625 0 
L 41.90625 16.59375 
L 51.5 16.59375 
L 51.5 24.09375 
z
" id="HelveticaNeue-52"/>
       </defs>
       <use xlink:href="#HelveticaNeue-8722"/>
       <use x="59.999985" xlink:href="#HelveticaNeue-52"/>
       <use x="115.599976" xlink:href="#HelveticaNeue-48"/>
       <use x="171.199966" xlink:href="#HelveticaNeue-48"/>
       <use x="226.799957" xlink:href="#HelveticaNeue-48"/>
      </g>
     </g>
    </g>
    <g id="ytick_3">
     <g id="line2d_21">
      <g>
       <use style="fill:#555555;stroke:#555555;stroke-width:0.8;" x="50.90875" xlink:href="#m8af89a3981" y="176.417213"/>
      </g>
     </g>
     <g id="text_10">
      <!-- −2000 -->
      <g style="fill:#555555;" transform="translate(7.2 181.058619)scale(0.13 -0.13)">
       <use xlink:href="#HelveticaNeue-8722"/>
       <use x="59.999985" xlink:href="#HelveticaNeue-50"/>
       <use x="115.599976" xlink:href="#HelveticaNeue-48"/>
       <use x="171.199966" xlink:href="#HelveticaNeue-48"/>
       <use x="226.799957" xlink:href="#HelveticaNeue-48"/>
      </g>
     </g>
    </g>
    <g id="ytick_4">
     <g id="line2d_22">
      <g>
       <use style="fill:#555555;stroke:#555555;stroke-width:0.8;" x="50.90875" xlink:href="#m8af89a3981" y="138.869706"/>
      </g>
     </g>
     <g id="text_11">
      <!-- 0 -->
      <g style="fill:#555555;" transform="translate(36.681563 143.511113)scale(0.13 -0.13)">
       <use xlink:href="#HelveticaNeue-48"/>
      </g>
     </g>
    </g>
    <g id="ytick_5">
     <g id="line2d_23">
      <g>
       <use style="fill:#555555;stroke:#555555;stroke-width:0.8;" x="50.90875" xlink:href="#m8af89a3981" y="101.3222"/>
      </g>
     </g>
     <g id="text_12">
      <!-- 2000 -->
      <g style="fill:#555555;" transform="translate(15 105.963606)scale(0.13 -0.13)">
       <use xlink:href="#HelveticaNeue-50"/>
       <use x="55.599991" xlink:href="#HelveticaNeue-48"/>
       <use x="111.199982" xlink:href="#HelveticaNeue-48"/>
       <use x="166.799973" xlink:href="#HelveticaNeue-48"/>
      </g>
     </g>
    </g>
    <g id="ytick_6">
     <g id="line2d_24">
      <g>
       <use style="fill:#555555;stroke:#555555;stroke-width:0.8;" x="50.90875" xlink:href="#m8af89a3981" y="63.774694"/>
      </g>
     </g>
     <g id="text_13">
      <!-- 4000 -->
      <g style="fill:#555555;" transform="translate(15 68.4161)scale(0.13 -0.13)">
       <use xlink:href="#HelveticaNeue-52"/>
       <use x="55.599991" xlink:href="#HelveticaNeue-48"/>
       <use x="111.199982" xlink:href="#HelveticaNeue-48"/>
       <use x="166.799973" xlink:href="#HelveticaNeue-48"/>
      </g>
     </g>
    </g>
   </g>
   <g id="line2d_25">
    <path clip-path="url(#p0a9cdaf5e8)" d="M 51.714179 138.681969 
L 53.325037 138.231399 
L 54.130467 138.419136 
L 54.935896 138.43791 
L 55.741325 138.006114 
L 56.546754 137.780829 
L 57.352183 137.949792 
L 59.768471 135.790811 
L 60.5739 134.814576 
L 61.379329 134.138721 
L 62.184758 132.298893 
L 62.990187 134.570517 
L 63.795617 130.928409 
L 64.601046 133.38777 
L 65.406475 130.046042 
L 66.211904 129.895852 
L 67.017333 128.994712 
L 67.822762 134.063626 
L 68.628192 129.013486 
L 69.433621 130.327649 
L 70.23905 132.580499 
L 71.044479 130.665576 
L 71.849908 131.322658 
L 72.655337 130.271327 
L 73.460767 133.23758 
L 74.266196 131.341431 
L 75.071625 134.119947 
L 75.877054 132.205024 
L 76.682483 134.007304 
L 77.487912 129.520377 
L 78.293342 134.720707 
L 79.098771 133.068617 
L 79.9042 133.181259 
L 80.709629 131.378979 
L 81.515058 137.048652 
L 82.320487 130.703124 
L 83.125917 132.524178 
L 83.931346 137.38658 
L 84.736775 132.373988 
L 85.542204 134.758254 
L 86.347633 133.969757 
L 87.153062 137.067426 
L 87.958492 136.297702 
L 88.763921 132.768237 
L 89.56935 134.307684 
L 90.374779 136.18506 
L 91.180208 132.918427 
L 91.985637 136.391571 
L 92.791067 136.109965 
L 93.596496 134.852123 
L 94.401925 137.38658 
L 95.207354 135.546752 
L 96.818212 135.865906 
L 97.623642 134.777028 
L 98.429071 137.311485 
L 99.2345 133.725698 
L 100.039929 133.819567 
L 100.845358 132.205024 
L 101.650787 133.38777 
L 102.456217 135.002313 
L 103.261646 137.405354 
L 104.067075 137.142521 
L 104.872504 132.618047 
L 105.677933 135.959775 
L 106.483362 135.640621 
L 107.288792 136.03487 
L 108.094221 135.190051 
L 109.705079 137.799602 
L 110.510508 135.659395 
L 111.315937 134.270137 
L 112.121367 135.396562 
L 112.926796 135.603073 
L 113.732225 136.260155 
L 114.537654 137.273937 
L 115.343083 134.514196 
L 116.148512 132.805784 
L 116.953942 133.669377 
L 117.759371 134.307684 
L 118.5648 134.213816 
L 119.370229 134.945992 
L 120.175658 134.664386 
L 120.981087 133.293902 
L 121.786517 133.782019 
L 122.591946 132.78701 
L 123.397375 124.58288 
L 124.202804 133.53796 
L 125.008233 133.613056 
L 125.813662 128.656785 
L 126.619092 128.88207 
L 127.424521 127.962156 
L 128.22995 129.069807 
L 129.035379 125.652984 
L 129.840808 125.540342 
L 130.646237 130.440291 
L 131.451667 127.924608 
L 132.257096 120.903225 
L 133.062525 122.254935 
L 133.867954 110.108317 
L 134.673383 113.22476 
L 135.478812 98.46859 
L 136.284242 110.558887 
L 137.089671 108.869249 
L 137.8951 117.448854 
L 138.700529 95.614979 
L 139.505958 100.458607 
L 140.311387 93.474771 
L 141.116817 96.028002 
L 141.922246 101.678901 
L 142.727675 100.083132 
L 143.533104 84.125442 
L 144.338533 101.566259 
L 145.143962 94.188174 
L 145.949392 91.428432 
L 146.754821 71.734765 
L 147.56025 77.498307 
L 148.365679 99.632562 
L 149.171108 91.672491 
L 149.976537 80.520882 
L 150.781967 93.024201 
L 151.587396 79.56342 
L 152.392825 78.568411 
L 153.198254 86.359519 
L 154.003683 91.522301 
L 154.809112 86.528483 
L 155.614542 87.748777 
L 156.419971 75.752348 
L 157.2254 74.588376 
L 158.030829 84.407048 
L 158.836258 90.808898 
L 159.641687 81.853818 
L 160.447116 86.472161 
L 161.252546 86.810089 
L 162.057975 91.071731 
L 162.863404 87.335754 
L 163.668833 111.02823 
L 164.474262 120.959546 
L 165.279691 117.936972 
L 166.085121 116.52894 
L 166.89055 106.428661 
L 167.695979 106.353566 
L 168.501408 104.926761 
L 169.306837 115.515157 
L 170.112266 117.054605 
L 170.917696 110.57766 
L 171.723125 61.127595 
L 172.528554 106.710267 
L 173.333983 107.367349 
L 174.139412 106.109507 
L 174.944841 121.973329 
L 175.750271 125.371378 
L 176.5557 120.771808 
L 177.361129 118.162257 
L 178.166558 118.800564 
L 178.971987 117.411307 
L 179.777416 121.804365 
L 181.388275 127.117337 
L 182.193704 124.357595 
L 182.999133 124.789392 
L 183.804562 127.192432 
L 184.609991 126.460256 
L 185.415421 127.229979 
L 186.22085 129.088581 
L 187.026279 132.280119 
L 187.831708 98.524911 
L 188.637137 132.467857 
L 189.442566 128.018477 
L 190.247996 129.651794 
L 191.053425 128.562916 
L 191.858854 132.392762 
L 192.664283 133.725698 
L 193.469712 131.566716 
L 194.275141 131.228789 
L 195.080571 130.215006 
L 195.886 129.839531 
L 196.691429 131.078599 
L 197.496858 133.312675 
L 198.302287 134.870897 
L 199.107716 131.566716 
L 199.913146 130.252554 
L 200.718575 130.459065 
L 201.524004 131.641811 
L 202.329433 128.806975 
L 203.134862 132.017286 
L 203.940291 133.763246 
L 204.745721 132.073608 
L 205.55115 132.017286 
L 206.356579 131.510395 
L 207.162008 129.426509 
L 207.967437 131.942191 
L 208.772866 133.575508 
L 209.578296 138.118756 
L 210.383725 127.229979 
L 211.189154 132.974748 
L 211.994583 129.820757 
L 212.800012 129.313866 
L 213.605441 129.764436 
L 215.2163 135.246372 
L 216.021729 130.402744 
L 216.827158 130.778219 
L 217.632587 130.590481 
L 218.438016 131.529169 
L 219.243446 138.869706 
L 220.048875 119.983311 
L 220.854304 133.631829 
L 221.659733 130.609255 
L 222.465162 130.721898 
L 223.270591 128.769427 
L 224.076021 128.919617 
L 224.88145 128.469047 
L 226.492308 131.88587 
L 227.297737 128.356405 
L 228.103166 132.148703 
L 228.908596 122.855695 
L 229.714025 129.107355 
L 230.519454 127.305074 
L 231.324883 133.068617 
L 232.130312 127.962156 
L 232.935741 125.221188 
L 233.741171 124.864487 
L 234.5466 126.234971 
L 235.352029 122.292482 
L 236.157458 132.505404 
L 236.962887 121.635401 
L 237.768316 121.072188 
L 238.573746 122.367577 
L 239.379175 125.803174 
L 240.184604 112.661547 
L 241.795462 123.700514 
L 242.600891 106.766589 
L 243.406321 129.051033 
L 244.21175 131.472848 
L 245.017179 125.390152 
L 245.822608 116.247334 
L 246.628037 103.650145 
L 247.433466 116.585261 
L 248.238896 94.094305 
L 249.044325 119.908216 
L 249.849754 103.537503 
L 250.655183 107.235932 
L 251.460612 102.354757 
L 252.266041 99.613789 
L 253.071471 102.448625 
L 253.8769 106.090733 
L 254.682329 110.72785 
L 255.487758 104.100716 
L 256.293187 99.06935 
L 257.098616 138.869706 
L 257.904046 68.430585 
L 258.709475 111.347384 
L 259.514904 100.87163 
L 260.320333 102.035603 
L 261.125762 98.637553 
L 261.931191 95.82149 
L 262.736621 96.553667 
L 263.54205 91.841455 
L 265.152908 101.340974 
L 265.958337 101.059368 
L 266.763766 104.119489 
L 267.569196 98.91916 
L 268.374625 96.816499 
L 269.180054 99.06935 
L 269.985483 100.214549 
L 270.790912 93.906568 
L 272.40177 98.3184 
L 274.012629 90.395876 
L 274.818058 92.6675 
L 275.623487 94.150626 
L 276.428916 100.965499 
L 277.234345 95.746395 
L 278.039775 95.22073 
L 278.845204 96.760178 
L 279.650633 95.633753 
L 280.456062 138.869706 
L 281.261491 75.470742 
L 282.06692 108.005656 
L 282.87235 100.252096 
L 283.677779 85.833854 
L 284.483208 87.279433 
L 285.288637 83.731193 
L 286.094066 138.869706 
L 286.899495 39.105982 
L 287.704925 109.82671 
L 288.510354 91.46598 
L 289.315783 76.033955 
L 290.121212 79.995217 
L 290.926641 75.545837 
L 291.73207 74.287996 
L 292.5375 88.086704 
L 293.342929 94.807708 
L 294.148358 99.557467 
L 294.953787 83.524682 
L 295.759216 90.658708 
L 296.564645 91.334563 
L 297.370075 88.462179 
L 298.175504 93.662509 
L 298.980933 93.737604 
L 299.786362 104.250906 
L 300.591791 103.668919 
L 301.39722 95.934133 
L 302.20265 98.449816 
L 303.008079 95.708848 
L 303.813508 95.051767 
L 304.618937 105.77158 
L 305.424366 100.758987 
L 307.035225 110.296054 
L 307.840654 101.247105 
L 308.646083 101.134463 
L 309.451512 91.841455 
L 310.256941 111.122099 
L 311.06237 114.407506 
L 311.8678 103.218349 
L 312.673229 115.77799 
L 313.478658 111.704086 
L 314.284087 87.861419 
L 315.089516 111.272289 
L 315.894945 112.304846 
L 316.700375 113.149665 
L 317.505804 111.572669 
L 319.922091 108.02443 
L 320.72752 107.329801 
L 322.338379 129.088581 
L 323.143808 113.787972 
L 323.949237 112.623999 
L 324.754666 123.53155 
L 325.560095 109.770389 
L 326.365525 109.883032 
L 327.170954 117.692913 
L 327.976383 120.208596 
L 328.781812 115.590252 
L 329.587241 118.894433 
L 330.39267 112.135882 
L 331.1981 118.049614 
L 332.003529 117.843103 
L 332.808958 110.690303 
L 333.614387 134.457874 
L 334.419816 102.148245 
L 335.225245 103.800336 
L 336.030675 115.496384 
L 336.836104 112.098334 
L 337.641533 120.771808 
L 338.446962 118.819338 
L 339.252391 122.705505 
L 340.05782 118.349994 
L 340.86325 118.087162 
L 341.668679 116.82932 
L 342.474108 116.547714 
L 343.279537 115.47761 
L 344.084966 124.770618 
L 344.890395 125.728079 
L 345.695825 114.970719 
L 346.501254 120.82813 
L 348.112112 115.684121 
L 348.917541 114.933171 
L 349.72297 121.973329 
L 350.5284 124.169858 
L 351.333829 115.233551 
L 352.139258 119.007076 
L 352.944687 115.364967 
L 353.750116 115.102135 
L 354.555545 114.369959 
L 355.360975 118.931981 
L 356.166404 122.536541 
L 356.971833 114.839302 
L 357.777262 120.52775 
L 358.582691 109.244724 
L 359.38812 111.891823 
L 360.19355 112.361167 
L 361.804408 123.662966 
L 362.609837 110.408697 
L 363.415266 118.969528 
L 364.220695 102.97429 
L 365.026125 108.812928 
L 365.831554 109.301045 
L 366.636983 117.092153 
L 367.442412 131.58549 
L 368.247841 95.239504 
L 369.05327 116.491393 
L 369.8587 111.779181 
L 370.664129 111.384932 
L 371.469558 111.760407 
L 372.274987 105.827901 
L 373.080416 121.466437 
L 373.885845 113.600235 
L 374.691275 117.692913 
L 375.496704 117.054605 
L 376.302133 119.063397 
L 377.107562 110.784172 
L 377.912991 122.386351 
L 378.71842 124.489011 
L 379.523849 119.025849 
L 380.329279 121.710496 
L 381.134708 119.232361 
L 381.940137 121.447663 
L 382.745566 117.411307 
L 383.550995 124.113536 
L 384.356424 125.258735 
L 385.161854 124.169858 
L 385.967283 125.052224 
L 386.772712 124.620428 
L 387.578141 125.521568 
L 388.38357 123.38136 
L 389.188999 126.479029 
L 389.994429 128.938391 
L 390.799858 126.197423 
L 391.605287 128.938391 
L 392.410716 124.320048 
L 394.021574 126.647993 
L 394.827004 128.938391 
L 395.632433 130.158685 
L 396.437862 128.469047 
L 397.243291 129.464056 
L 398.04872 128.750653 
L 398.854149 131.172468 
L 399.659579 125.296283 
L 400.465008 130.177459 
L 401.270437 131.4353 
L 402.075866 134.213816 
L 402.881295 133.031069 
L 403.686724 130.53416 
L 404.492154 131.979739 
L 405.297583 138.869706 
L 406.908441 138.869706 
L 407.71387 118.218578 
L 408.519299 134.814576 
L 409.324729 133.481639 
L 410.130158 257.163125 
L 410.935587 138.869706 
L 414.962733 138.869706 
L 415.768162 99.407277 
L 416.573591 138.869706 
L 420.600737 138.869706 
L 421.406166 105.489973 
L 422.211595 138.869706 
L 426.238741 138.869706 
L 427.04417 100.646345 
L 427.849599 138.869706 
L 431.876745 138.869706 
L 432.682174 83.86261 
L 433.487604 138.869706 
L 437.514749 138.869706 
L 438.320179 56.809631 
L 438.320179 56.809631 
" style="fill:none;stroke:#000000;stroke-dasharray:1.5,2.475;stroke-dashoffset:0;stroke-opacity:0.5;stroke-width:1.5;"/>
   </g>
   <g id="line2d_26">
    <path clip-path="url(#p0a9cdaf5e8)" d="M 50.90875 138.494231 
L 53.325037 138.400363 
L 55.741325 138.024887 
L 56.546754 137.799602 
L 58.157612 136.93601 
L 58.963042 136.354023 
L 59.768471 135.5843 
L 60.5739 134.983539 
L 61.379329 134.157494 
L 62.184758 133.631829 
L 64.601046 131.510395 
L 65.406475 131.454074 
L 66.211904 130.853314 
L 67.822762 130.68435 
L 70.23905 131.116146 
L 71.044479 131.078599 
L 74.266196 132.373988 
L 75.071625 132.298893 
L 75.877054 132.693142 
L 76.682483 132.693142 
L 77.487912 132.880879 
L 78.293342 132.63682 
L 79.098771 133.143712 
L 79.9042 132.974748 
L 81.515058 133.500413 
L 82.320487 133.53796 
L 84.736775 134.157494 
L 85.542204 134.852123 
L 86.347633 134.945992 
L 87.153062 134.701933 
L 87.958492 135.058635 
L 88.763921 134.833349 
L 89.56935 134.964766 
L 91.180208 134.870897 
L 91.985637 135.415336 
L 92.791067 135.621847 
L 93.596496 135.678168 
L 94.401925 135.978548 
L 95.207354 135.809585 
L 96.012783 135.903453 
L 96.818212 135.753263 
L 100.039929 134.195042 
L 102.456217 134.664386 
L 104.872504 135.640621 
L 106.483362 135.527978 
L 107.288792 135.715716 
L 108.094221 136.109965 
L 110.510508 135.809585 
L 112.121367 135.865906 
L 117.759371 134.119947 
L 118.5648 134.082399 
L 119.370229 134.195042 
L 120.175658 134.063626 
L 120.981087 132.9372 
L 122.591946 132.054834 
L 123.397375 131.341431 
L 125.813662 129.708115 
L 126.619092 129.539151 
L 127.424521 128.412726 
L 128.22995 127.905835 
L 129.035379 127.774418 
L 130.646237 126.178649 
L 132.257096 121.785591 
L 133.867954 114.463827 
L 134.673383 111.516348 
L 135.478812 110.558887 
L 136.284242 107.986882 
L 137.089671 106.82291 
L 137.8951 104.494964 
L 138.700529 103.237123 
L 139.505958 101.284653 
L 140.311387 99.763979 
L 141.116817 96.422251 
L 141.922246 96.722631 
L 142.727675 96.009228 
L 143.533104 95.577432 
L 144.338533 92.6675 
L 145.143962 89.250677 
L 145.949392 88.180573 
L 146.754821 88.311989 
L 147.56025 86.246876 
L 148.365679 86.472161 
L 149.171108 85.946496 
L 149.976537 86.453388 
L 150.781967 86.490935 
L 151.587396 85.270641 
L 152.392825 84.932714 
L 153.198254 85.852627 
L 154.003683 84.538465 
L 154.809112 83.900157 
L 156.419971 83.543456 
L 157.2254 82.567221 
L 158.030829 82.848827 
L 158.836258 83.355718 
L 159.641687 85.36451 
L 160.447116 86.885184 
L 161.252546 89.832663 
L 162.057975 94.094305 
L 163.668833 104.926761 
L 164.474262 108.756606 
L 165.279691 111.140873 
L 166.085121 112.455036 
L 166.89055 112.004466 
L 167.695979 111.215968 
L 168.501408 110.671529 
L 169.306837 105.283462 
L 170.917696 102.655137 
L 171.723125 101.77277 
L 172.528554 102.448625 
L 173.333983 104.870439 
L 174.139412 108.512548 
L 174.944841 115.665347 
L 175.750271 117.711687 
L 177.361129 120.396333 
L 178.166558 120.452655 
L 178.971987 120.846903 
L 179.777416 121.710496 
L 182.193704 125.239962 
L 184.609991 127.229979 
L 185.415421 124.808165 
L 186.22085 124.808165 
L 187.026279 124.395143 
L 187.831708 124.526559 
L 188.637137 124.902034 
L 189.442566 125.878269 
L 190.247996 127.098563 
L 191.053425 130.759445 
L 191.858854 130.890861 
L 192.664283 131.266336 
L 195.080571 131.341431 
L 197.496858 131.810775 
L 199.107716 131.942191 
L 200.718575 131.172468 
L 201.524004 131.059825 
L 202.329433 131.228789 
L 203.940291 131.792001 
L 204.745721 131.623038 
L 205.55115 131.810775 
L 206.356579 131.848323 
L 207.162008 132.33644 
L 207.967437 132.111155 
L 208.772866 132.298893 
L 210.383725 131.960965 
L 211.189154 131.4353 
L 211.994583 131.078599 
L 212.800012 130.872088 
L 213.605441 131.360205 
L 214.410871 131.322658 
L 216.021729 131.660585 
L 216.827158 132.48663 
L 217.632587 131.28511 
L 218.438016 130.965956 
L 220.048875 130.759445 
L 221.659733 130.08359 
L 222.465162 129.144902 
L 223.270591 130.008495 
L 224.88145 129.576699 
L 225.686879 129.820757 
L 226.492308 129.313866 
L 227.297737 129.144902 
L 228.103166 128.788201 
L 228.908596 128.88207 
L 230.519454 128.318857 
L 231.324883 127.643002 
L 232.130312 127.774418 
L 232.935741 126.779409 
L 233.741171 126.910826 
L 234.5466 125.7844 
L 235.352029 125.089772 
L 236.157458 124.639202 
L 236.962887 124.470238 
L 237.768316 122.893242 
L 238.573746 121.87946 
L 239.379175 120.640392 
L 240.184604 118.913207 
L 240.990033 119.213587 
L 241.795462 120.208596 
L 242.600891 120.921998 
L 243.406321 121.954555 
L 245.017179 119.438872 
L 246.628037 114.27609 
L 247.433466 110.671529 
L 248.238896 108.512548 
L 249.044325 107.085742 
L 249.849754 106.334792 
L 250.655183 104.607607 
L 251.460612 105.152046 
L 252.266041 104.119489 
L 253.071471 104.419869 
L 253.8769 103.931752 
L 254.682329 107.87424 
L 255.487758 105.565068 
L 256.293187 105.884222 
L 257.098616 104.832892 
L 257.904046 103.443634 
L 259.514904 101.434843 
L 260.320333 97.567449 
L 261.125762 99.388504 
L 261.931191 97.360938 
L 262.736621 97.079332 
L 263.54205 97.041784 
L 265.152908 98.844065 
L 265.958337 99.294635 
L 266.763766 100.026811 
L 267.569196 100.158227 
L 269.180054 98.355947 
L 269.985483 97.586223 
L 270.790912 97.004237 
L 273.2072 94.282043 
L 274.012629 94.77016 
L 275.623487 94.864029 
L 277.234345 96.103097 
L 278.039775 100.946725 
L 278.845204 100.27087 
L 279.650633 101.434843 
L 280.456062 102.204566 
L 281.261491 101.040594 
L 282.06692 99.031802 
L 282.87235 96.196965 
L 283.677779 95.82149 
L 284.483208 92.592405 
L 285.288637 92.029192 
L 286.094066 91.203147 
L 286.899495 90.020401 
L 287.704925 88.443405 
L 288.510354 86.340745 
L 289.315783 79.807479 
L 290.121212 83.449587 
L 290.926641 81.647307 
L 291.73207 83.336945 
L 294.148358 89.701247 
L 294.953787 91.052957 
L 295.759216 91.297016 
L 296.564645 91.109278 
L 297.370075 92.010419 
L 298.175504 94.713839 
L 299.786362 97.454807 
L 300.591791 98.449816 
L 301.39722 98.449816 
L 302.20265 99.21954 
L 303.008079 98.881612 
L 303.813508 99.426051 
L 304.618937 101.434843 
L 306.229795 103.406087 
L 307.035225 102.955517 
L 307.840654 103.030612 
L 308.646083 104.194584 
L 309.451512 104.232132 
L 310.256941 105.396105 
L 311.06237 107.329801 
L 311.8678 106.616398 
L 312.673229 107.930561 
L 313.478658 107.517539 
L 314.284087 107.367349 
L 315.089516 108.399905 
L 315.894945 108.475 
L 316.700375 109.000665 
L 317.505804 111.009457 
L 318.311233 110.333602 
L 319.116662 110.596434 
L 319.922091 112.417488 
L 321.53295 114.520149 
L 322.338379 116.472619 
L 323.143808 116.923189 
L 323.949237 116.772999 
L 324.754666 116.134691 
L 325.560095 115.120909 
L 326.365525 115.421289 
L 327.170954 116.153465 
L 327.976383 115.421289 
L 328.781812 116.359976 
L 329.587241 117.054605 
L 330.39267 116.22856 
L 331.1981 117.599044 
L 332.003529 116.660356 
L 332.808958 115.064587 
L 333.614387 114.764207 
L 334.419816 113.581461 
L 335.225245 113.468818 
L 336.030675 114.238542 
L 336.836104 113.956936 
L 337.641533 116.472619 
L 338.446962 118.349994 
L 340.05782 118.950754 
L 340.86325 118.162257 
L 341.668679 118.48141 
L 342.474108 118.950754 
L 343.279537 119.044623 
L 344.084966 119.589062 
L 344.890395 119.870668 
L 345.695825 119.664157 
L 346.501254 119.157266 
L 347.306683 118.48141 
L 348.112112 118.387542 
L 348.917541 118.612827 
L 349.72297 118.612827 
L 351.333829 118.256125 
L 352.139258 117.768008 
L 352.944687 117.073379 
L 353.750116 116.923189 
L 354.555545 117.073379 
L 355.360975 117.448854 
L 356.166404 117.035831 
L 356.971833 116.491393 
L 358.582691 115.083361 
L 359.38812 115.120909 
L 360.19355 114.970719 
L 360.998979 115.196004 
L 361.804408 114.782981 
L 362.609837 114.050805 
L 363.415266 112.961927 
L 364.220695 112.229751 
L 365.026125 113.112117 
L 365.831554 112.286072 
L 366.636983 112.417488 
L 367.442412 113.393723 
L 368.247841 113.393723 
L 369.05327 113.149665 
L 369.8587 111.647764 
L 370.664129 110.802945 
L 371.469558 112.77419 
L 372.274987 113.168438 
L 373.080416 114.144673 
L 373.885845 115.364967 
L 374.691275 115.6278 
L 375.496704 117.167248 
L 376.302133 117.636592 
L 377.912991 119.232361 
L 380.329279 120.82813 
L 381.134708 120.809356 
L 381.940137 120.97832 
L 385.967283 124.657975 
L 386.772712 124.864487 
L 389.188999 126.272518 
L 393.216145 127.023468 
L 394.827004 127.774418 
L 396.437862 129.107355 
L 397.243291 129.013486 
L 398.854149 129.163676 
L 400.465008 130.440291 
L 401.270437 130.928409 
L 402.075866 131.28511 
L 402.881295 132.768237 
L 404.492154 134.964766 
L 405.297583 133.744472 
L 406.908441 133.575508 
L 407.71387 146.397981 
L 409.324729 153.963804 
L 410.130158 155.935048 
L 410.935587 157.286758 
L 411.741016 154.902492 
L 412.546445 151.448121 
L 413.351874 134.683159 
L 414.157304 133.331449 
L 414.962733 132.33644 
L 415.768162 131.960965 
L 416.573591 132.33644 
L 417.37902 133.331449 
L 418.184449 134.683159 
L 418.989879 135.321467 
L 419.795308 134.195042 
L 420.600737 133.331449 
L 421.406166 133.012295 
L 422.211595 133.331449 
L 423.017024 134.195042 
L 423.822454 135.321467 
L 424.627883 134.814576 
L 425.433312 133.500413 
L 426.238741 132.524178 
L 427.04417 132.167477 
L 427.849599 132.524178 
L 428.655029 133.500413 
L 429.460458 134.814576 
L 431.071316 131.153694 
L 431.876745 129.745662 
L 432.682174 129.238771 
L 433.487604 129.745662 
L 434.293033 131.153694 
L 435.098462 133.031069 
L 435.903891 130.139911 
L 436.70932 125.990912 
L 437.514749 120.809356 
L 438.320179 114.388732 
L 438.320179 114.388732 
" style="fill:none;stroke:#b3220f;stroke-linecap:square;stroke-width:1.5;"/>
   </g>
   <g id="patch_3">
    <path d="M 50.90875 268.065982 
L 50.90875 28.203125 
" style="fill:none;stroke:#555555;stroke-linecap:square;stroke-linejoin:miter;"/>
   </g>
   <g id="patch_4">
    <path d="M 50.90875 268.065982 
L 438.320179 268.065982 
" style="fill:none;stroke:#555555;stroke-linecap:square;stroke-linejoin:miter;"/>
   </g>
   <g id="text_14">
    <!-- Miami-Dade | New Cases per Day as of [2021-07-09] -->
    <g style="fill:#555555;" transform="translate(79.562121 18.203125)scale(0.14 -0.14)">
     <defs>
      <path d="M 8 71.40625 
L 8 0 
L 17 0 
L 17 59.40625 
L 17.203125 59.40625 
L 39.5 0 
L 47.59375 0 
L 69.90625 59.40625 
L 70.09375 59.40625 
L 70.09375 0 
L 79.09375 0 
L 79.09375 71.40625 
L 66.09375 71.40625 
L 43.5 11.40625 
L 21 71.40625 
z
" id="HelveticaNeue-77"/>
      <path d="M 15.40625 61 
L 15.40625 71.40625 
L 6.90625 71.40625 
L 6.90625 61 
z
M 6.90625 51.703125 
L 6.90625 0 
L 15.40625 0 
L 15.40625 51.703125 
z
" id="HelveticaNeue-105"/>
      <path d="M 6.40625 51.703125 
L 6.40625 0 
L 14.90625 0 
L 14.90625 32.203125 
Q 14.90625 33.703125 15.65625 35.953125 
Q 16.40625 38.203125 18.046875 40.296875 
Q 19.703125 42.40625 22.34375 43.90625 
Q 25 45.40625 28.703125 45.40625 
Q 31.59375 45.40625 33.4375 44.546875 
Q 35.296875 43.703125 36.390625 42.140625 
Q 37.5 40.59375 37.953125 38.5 
Q 38.40625 36.40625 38.40625 33.90625 
L 38.40625 0 
L 46.90625 0 
L 46.90625 32.203125 
Q 46.90625 38.203125 50.5 41.796875 
Q 54.09375 45.40625 60.40625 45.40625 
Q 63.5 45.40625 65.453125 44.5 
Q 67.40625 43.59375 68.5 42.046875 
Q 69.59375 40.5 70 38.390625 
Q 70.40625 36.296875 70.40625 33.90625 
L 70.40625 0 
L 78.90625 0 
L 78.90625 37.90625 
Q 78.90625 41.90625 77.65625 44.75 
Q 76.40625 47.59375 74.15625 49.390625 
Q 71.90625 51.203125 68.75 52.046875 
Q 65.59375 52.90625 61.703125 52.90625 
Q 56.59375 52.90625 52.34375 50.59375 
Q 48.09375 48.296875 45.5 44.09375 
Q 43.90625 48.90625 40 50.90625 
Q 36.09375 52.90625 31.296875 52.90625 
Q 20.40625 52.90625 14.59375 44.09375 
L 14.40625 44.09375 
L 14.40625 51.703125 
z
" id="HelveticaNeue-109"/>
      <path d="M 5 31.796875 
L 5 23.796875 
L 33.90625 23.796875 
L 33.90625 31.796875 
z
" id="HelveticaNeue-45"/>
      <path d="M 17.296875 8 
L 17.296875 63.40625 
L 33.296875 63.40625 
Q 39.90625 63.40625 44.40625 61.546875 
Q 48.90625 59.703125 51.75 56.140625 
Q 54.59375 52.59375 55.84375 47.546875 
Q 57.09375 42.5 57.09375 36.09375 
Q 57.09375 29.5 55.75 24.84375 
Q 54.40625 20.203125 52.296875 17.09375 
Q 50.203125 14 47.546875 12.203125 
Q 44.90625 10.40625 42.203125 9.453125 
Q 39.5 8.5 37.09375 8.25 
Q 34.703125 8 33.09375 8 
z
M 7.796875 71.40625 
L 7.796875 0 
L 32.296875 0 
Q 41.203125 0 47.703125 2.5 
Q 54.203125 5 58.390625 9.75 
Q 62.59375 14.5 64.59375 21.453125 
Q 66.59375 28.40625 66.59375 37.40625 
Q 66.59375 54.59375 57.6875 63 
Q 48.796875 71.40625 32.296875 71.40625 
z
" id="HelveticaNeue-68"/>
      <path id="HelveticaNeue-32"/>
      <path d="M 7.703125 78.59375 
L 7.703125 -21.296875 
L 14.5 -21.296875 
L 14.5 78.59375 
z
" id="HelveticaNeue-124"/>
      <path d="M 7.703125 71.40625 
L 7.703125 0 
L 16.703125 0 
L 16.703125 57.296875 
L 16.90625 57.296875 
L 54.203125 0 
L 64.59375 0 
L 64.59375 71.40625 
L 55.59375 71.40625 
L 55.59375 13.5 
L 55.40625 13.5 
L 17.796875 71.40625 
z
" id="HelveticaNeue-78"/>
      <path d="M 57.59375 0 
L 74.09375 51.703125 
L 65.296875 51.703125 
L 53.703125 9.40625 
L 53.5 9.40625 
L 42.703125 51.703125 
L 33.40625 51.703125 
L 23 9.40625 
L 22.796875 9.40625 
L 11.09375 51.703125 
L 1.703125 51.703125 
L 18.296875 0 
L 27.5 0 
L 37.90625 41.09375 
L 38.09375 41.09375 
L 48.59375 0 
z
" id="HelveticaNeue-119"/>
      <path d="M 58 49.90625 
L 67.5 49.90625 
Q 66.703125 55.59375 64.09375 59.9375 
Q 61.5 64.296875 57.59375 67.1875 
Q 53.703125 70.09375 48.703125 71.59375 
Q 43.703125 73.09375 38.09375 73.09375 
Q 29.90625 73.09375 23.546875 70.140625 
Q 17.203125 67.203125 12.953125 62.09375 
Q 8.703125 57 6.5 50.140625 
Q 4.296875 43.296875 4.296875 35.5 
Q 4.296875 27.703125 6.34375 20.890625 
Q 8.40625 14.09375 12.5 9.09375 
Q 16.59375 4.09375 22.796875 1.25 
Q 29 -1.59375 37.296875 -1.59375 
Q 51 -1.59375 58.890625 5.90625 
Q 66.796875 13.40625 68.203125 26.90625 
L 58.703125 26.90625 
Q 58.40625 22.5 56.90625 18.703125 
Q 55.40625 14.90625 52.75 12.15625 
Q 50.09375 9.40625 46.4375 7.84375 
Q 42.796875 6.296875 38.09375 6.296875 
Q 31.703125 6.296875 27.09375 8.6875 
Q 22.5 11.09375 19.546875 15.140625 
Q 16.59375 19.203125 15.1875 24.640625 
Q 13.796875 30.09375 13.796875 36.203125 
Q 13.796875 41.796875 15.1875 47 
Q 16.59375 52.203125 19.546875 56.25 
Q 22.5 60.296875 27.046875 62.6875 
Q 31.59375 65.09375 38 65.09375 
Q 45.5 65.09375 50.953125 61.296875 
Q 56.40625 57.5 58 49.90625 
z
" id="HelveticaNeue-67"/>
      <path d="M 11.59375 16.296875 
L 3.09375 16.296875 
Q 3.296875 11.5 5.09375 8.140625 
Q 6.90625 4.796875 9.90625 2.75 
Q 12.90625 0.703125 16.796875 -0.1875 
Q 20.703125 -1.09375 25 -1.09375 
Q 28.90625 -1.09375 32.84375 -0.34375 
Q 36.796875 0.40625 39.9375 2.296875 
Q 43.09375 4.203125 45.046875 7.296875 
Q 47 10.40625 47 15.09375 
Q 47 18.796875 45.546875 21.296875 
Q 44.09375 23.796875 41.75 25.4375 
Q 39.40625 27.09375 36.34375 28.09375 
Q 33.296875 29.09375 30.09375 29.796875 
Q 27.09375 30.5 24.09375 31.140625 
Q 21.09375 31.796875 18.6875 32.75 
Q 16.296875 33.703125 14.75 35.140625 
Q 13.203125 36.59375 13.203125 38.796875 
Q 13.203125 40.796875 14.203125 42.046875 
Q 15.203125 43.296875 16.796875 44.046875 
Q 18.40625 44.796875 20.34375 45.09375 
Q 22.296875 45.40625 24.203125 45.40625 
Q 26.296875 45.40625 28.34375 44.953125 
Q 30.40625 44.5 32.09375 43.5 
Q 33.796875 42.5 34.890625 40.84375 
Q 36 39.203125 36.203125 36.703125 
L 44.703125 36.703125 
Q 44.40625 41.40625 42.703125 44.546875 
Q 41 47.703125 38.140625 49.546875 
Q 35.296875 51.40625 31.59375 52.15625 
Q 27.90625 52.90625 23.5 52.90625 
Q 20.09375 52.90625 16.640625 52.046875 
Q 13.203125 51.203125 10.453125 49.453125 
Q 7.703125 47.703125 5.953125 44.890625 
Q 4.203125 42.09375 4.203125 38.203125 
Q 4.203125 33.203125 6.703125 30.390625 
Q 9.203125 27.59375 12.953125 26.046875 
Q 16.703125 24.5 21.09375 23.640625 
Q 25.5 22.796875 29.25 21.75 
Q 33 20.703125 35.5 19 
Q 38 17.296875 38 14 
Q 38 11.59375 36.796875 10.046875 
Q 35.59375 8.5 33.75 7.703125 
Q 31.90625 6.90625 29.703125 6.59375 
Q 27.5 6.296875 25.5 6.296875 
Q 22.90625 6.296875 20.453125 6.796875 
Q 18 7.296875 16.046875 8.4375 
Q 14.09375 9.59375 12.890625 11.546875 
Q 11.703125 13.5 11.59375 16.296875 
z
" id="HelveticaNeue-115"/>
      <path d="M 26.703125 -6.90625 
Q 25.203125 -10.703125 23.75 -13.296875 
Q 22.296875 -15.90625 20.546875 -17.546875 
Q 18.796875 -19.203125 16.640625 -19.953125 
Q 14.5 -20.703125 11.703125 -20.703125 
Q 10.203125 -20.703125 8.703125 -20.5 
Q 7.203125 -20.296875 5.796875 -19.796875 
L 5.796875 -12 
Q 6.90625 -12.5 8.34375 -12.84375 
Q 9.796875 -13.203125 10.796875 -13.203125 
Q 13.40625 -13.203125 15.15625 -11.953125 
Q 16.90625 -10.703125 17.796875 -8.40625 
L 21.296875 0.296875 
L 0.796875 51.703125 
L 10.40625 51.703125 
L 25.5 9.40625 
L 25.703125 9.40625 
L 40.203125 51.703125 
L 49.203125 51.703125 
z
" id="HelveticaNeue-121"/>
      <path d="M 12.59375 25.796875 
Q 12.59375 30.5 13.84375 34.140625 
Q 15.09375 37.796875 17.296875 40.296875 
Q 19.5 42.796875 22.453125 44.09375 
Q 25.40625 45.40625 28.703125 45.40625 
Q 32 45.40625 34.953125 44.09375 
Q 37.90625 42.796875 40.09375 40.296875 
Q 42.296875 37.796875 43.546875 34.140625 
Q 44.796875 30.5 44.796875 25.796875 
Q 44.796875 21.09375 43.546875 17.4375 
Q 42.296875 13.796875 40.09375 11.34375 
Q 37.90625 8.90625 34.953125 7.59375 
Q 32 6.296875 28.703125 6.296875 
Q 25.40625 6.296875 22.453125 7.59375 
Q 19.5 8.90625 17.296875 11.34375 
Q 15.09375 13.796875 13.84375 17.4375 
Q 12.59375 21.09375 12.59375 25.796875 
z
M 3.59375 25.796875 
Q 3.59375 20.09375 5.1875 15.1875 
Q 6.796875 10.296875 10 6.640625 
Q 13.203125 3 17.890625 0.953125 
Q 22.59375 -1.09375 28.703125 -1.09375 
Q 34.90625 -1.09375 39.546875 0.953125 
Q 44.203125 3 47.390625 6.640625 
Q 50.59375 10.296875 52.1875 15.1875 
Q 53.796875 20.09375 53.796875 25.796875 
Q 53.796875 31.5 52.1875 36.453125 
Q 50.59375 41.40625 47.390625 45.046875 
Q 44.203125 48.703125 39.546875 50.796875 
Q 34.90625 52.90625 28.703125 52.90625 
Q 22.59375 52.90625 17.890625 50.796875 
Q 13.203125 48.703125 10 45.046875 
Q 6.796875 41.40625 5.1875 36.453125 
Q 3.59375 31.5 3.59375 25.796875 
z
" id="HelveticaNeue-111"/>
      <path d="M 9.90625 44.203125 
L 9.90625 0 
L 18.40625 0 
L 18.40625 44.203125 
L 28.40625 44.203125 
L 28.40625 51.703125 
L 18.40625 51.703125 
L 18.40625 58.90625 
Q 18.40625 62.296875 20.09375 63.5 
Q 21.796875 64.703125 24.90625 64.703125 
Q 26 64.703125 27.296875 64.546875 
Q 28.59375 64.40625 29.703125 64 
L 29.703125 71.40625 
Q 28.5 71.796875 26.953125 72 
Q 25.40625 72.203125 24.203125 72.203125 
Q 17.203125 72.203125 13.546875 68.953125 
Q 9.90625 65.703125 9.90625 59.40625 
L 9.90625 51.703125 
L 1.203125 51.703125 
L 1.203125 44.203125 
z
" id="HelveticaNeue-102"/>
      <path d="M 25.90625 66.296875 
L 25.90625 73.09375 
L 7.203125 73.09375 
L 7.203125 -19.703125 
L 25.90625 -19.703125 
L 25.90625 -12.90625 
L 15.203125 -12.90625 
L 15.203125 66.296875 
z
" id="HelveticaNeue-91"/>
      <path d="M 50.90625 62.40625 
L 50.90625 69.703125 
L 5 69.703125 
L 5 61.703125 
L 42.203125 61.703125 
Q 36.59375 55.796875 31.75 48.796875 
Q 26.90625 41.796875 23.203125 33.9375 
Q 19.5 26.09375 17.140625 17.546875 
Q 14.796875 9 14.203125 0 
L 23.703125 0 
Q 24.203125 8.296875 26.5 17.09375 
Q 28.796875 25.90625 32.4375 34.203125 
Q 36.09375 42.5 40.796875 49.796875 
Q 45.5 57.09375 50.90625 62.40625 
z
" id="HelveticaNeue-55"/>
      <path d="M 13.40625 17.09375 
L 4.90625 17.09375 
Q 5.703125 7.90625 11.59375 3.40625 
Q 17.5 -1.09375 26.40625 -1.09375 
Q 39.296875 -1.09375 45.140625 8.75 
Q 51 18.59375 51 37 
Q 51 47.09375 49.046875 53.640625 
Q 47.09375 60.203125 43.796875 64 
Q 40.5 67.796875 36.09375 69.34375 
Q 31.703125 70.90625 26.703125 70.90625 
Q 21.59375 70.90625 17.296875 69.203125 
Q 13 67.5 9.890625 64.453125 
Q 6.796875 61.40625 5.09375 57.15625 
Q 3.40625 52.90625 3.40625 47.796875 
Q 3.40625 42.59375 4.84375 38.1875 
Q 6.296875 33.796875 9.140625 30.6875 
Q 12 27.59375 16.203125 25.84375 
Q 20.40625 24.09375 25.796875 24.09375 
Q 31 24.09375 35.390625 26.75 
Q 39.796875 29.40625 42.203125 33.90625 
L 42.40625 33.703125 
Q 42 19.796875 38.09375 13.046875 
Q 34.203125 6.296875 26.40625 6.296875 
Q 21.296875 6.296875 17.59375 9.09375 
Q 13.90625 11.90625 13.40625 17.09375 
z
M 40.90625 47.203125 
Q 40.90625 44.09375 39.90625 41.25 
Q 38.90625 38.40625 37 36.25 
Q 35.09375 34.09375 32.390625 32.84375 
Q 29.703125 31.59375 26.40625 31.59375 
Q 23.296875 31.59375 20.75 32.84375 
Q 18.203125 34.09375 16.34375 36.1875 
Q 14.5 38.296875 13.453125 41 
Q 12.40625 43.703125 12.40625 46.59375 
Q 12.40625 49.90625 13.15625 52.90625 
Q 13.90625 55.90625 15.546875 58.25 
Q 17.203125 60.59375 19.84375 62 
Q 22.5 63.40625 26.296875 63.40625 
Q 29.90625 63.40625 32.59375 62.09375 
Q 35.296875 60.796875 37.140625 58.546875 
Q 39 56.296875 39.953125 53.390625 
Q 40.90625 50.5 40.90625 47.203125 
z
" id="HelveticaNeue-57"/>
      <path d="M 0 -12.90625 
L 0 -19.703125 
L 18.703125 -19.703125 
L 18.703125 73.09375 
L 0 73.09375 
L 0 66.296875 
L 10.703125 66.296875 
L 10.703125 -12.90625 
z
" id="HelveticaNeue-93"/>
     </defs>
     <use xlink:href="#HelveticaNeue-77"/>
     <use x="87.099991" xlink:href="#HelveticaNeue-105"/>
     <use x="109.299988" xlink:href="#HelveticaNeue-97"/>
     <use x="162.999985" xlink:href="#HelveticaNeue-109"/>
     <use x="248.299973" xlink:href="#HelveticaNeue-105"/>
     <use x="270.499969" xlink:href="#HelveticaNeue-45"/>
     <use x="309.399963" xlink:href="#HelveticaNeue-68"/>
     <use x="379.799957" xlink:href="#HelveticaNeue-97"/>
     <use x="433.499954" xlink:href="#HelveticaNeue-100"/>
     <use x="492.799942" xlink:href="#HelveticaNeue-101"/>
     <use x="546.499939" xlink:href="#HelveticaNeue-32"/>
     <use x="574.299927" xlink:href="#HelveticaNeue-124"/>
     <use x="596.499924" xlink:href="#HelveticaNeue-32"/>
     <use x="624.299911" xlink:href="#HelveticaNeue-78"/>
     <use x="696.499893" xlink:href="#HelveticaNeue-101"/>
     <use x="750.19989" xlink:href="#HelveticaNeue-119"/>
     <use x="825.999878" xlink:href="#HelveticaNeue-32"/>
     <use x="853.799866" xlink:href="#HelveticaNeue-67"/>
     <use x="925.999847" xlink:href="#HelveticaNeue-97"/>
     <use x="979.699844" xlink:href="#HelveticaNeue-115"/>
     <use x="1029.699829" xlink:href="#HelveticaNeue-101"/>
     <use x="1083.399826" xlink:href="#HelveticaNeue-115"/>
     <use x="1133.399811" xlink:href="#HelveticaNeue-32"/>
     <use x="1161.199799" xlink:href="#HelveticaNeue-112"/>
     <use x="1220.499786" xlink:href="#HelveticaNeue-101"/>
     <use x="1274.199783" xlink:href="#HelveticaNeue-114"/>
     <use x="1307.499771" xlink:href="#HelveticaNeue-32"/>
     <use x="1335.299759" xlink:href="#HelveticaNeue-68"/>
     <use x="1405.699753" xlink:href="#HelveticaNeue-97"/>
     <use x="1459.39975" xlink:href="#HelveticaNeue-121"/>
     <use x="1509.399734" xlink:href="#HelveticaNeue-32"/>
     <use x="1537.199722" xlink:href="#HelveticaNeue-97"/>
     <use x="1590.899719" xlink:href="#HelveticaNeue-115"/>
     <use x="1640.899704" xlink:href="#HelveticaNeue-32"/>
     <use x="1668.699692" xlink:href="#HelveticaNeue-111"/>
     <use x="1726.099686" xlink:href="#HelveticaNeue-102"/>
     <use x="1755.699677" xlink:href="#HelveticaNeue-32"/>
     <use x="1783.499664" xlink:href="#HelveticaNeue-91"/>
     <use x="1809.399658" xlink:href="#HelveticaNeue-50"/>
     <use x="1864.999649" xlink:href="#HelveticaNeue-48"/>
     <use x="1920.59964" xlink:href="#HelveticaNeue-50"/>
     <use x="1976.199631" xlink:href="#HelveticaNeue-49"/>
     <use x="2031.799622" xlink:href="#HelveticaNeue-45"/>
     <use x="2070.699615" xlink:href="#HelveticaNeue-48"/>
     <use x="2126.299606" xlink:href="#HelveticaNeue-55"/>
     <use x="2181.899597" xlink:href="#HelveticaNeue-45"/>
     <use x="2220.799591" xlink:href="#HelveticaNeue-48"/>
     <use x="2276.399582" xlink:href="#HelveticaNeue-57"/>
     <use x="2331.999573" xlink:href="#HelveticaNeue-93"/>
    </g>
   </g>
   <g id="legend_1">
    <g id="line2d_27">
     <path d="M 304.255647 44.635937 
L 330.255647 44.635937 
" style="fill:none;stroke:#000000;stroke-dasharray:1.5,2.475;stroke-dashoffset:0;stroke-opacity:0.5;stroke-width:1.5;"/>
    </g>
    <g id="line2d_28"/>
    <g id="text_15">
     <!-- Actual -->
     <g style="fill:#555555;" transform="translate(340.655647 49.185937)scale(0.13 -0.13)">
      <use xlink:href="#HelveticaNeue-65"/>
      <use x="64.799988" xlink:href="#HelveticaNeue-99"/>
      <use x="118.499985" xlink:href="#HelveticaNeue-116"/>
      <use x="149.999969" xlink:href="#HelveticaNeue-117"/>
      <use x="205.59996" xlink:href="#HelveticaNeue-97"/>
      <use x="259.299957" xlink:href="#HelveticaNeue-108"/>
     </g>
    </g>
    <g id="line2d_29">
     <path d="M 304.255647 62.980156 
L 330.255647 62.980156 
" style="fill:none;stroke:#b3220f;stroke-linecap:square;stroke-width:1.5;"/>
    </g>
    <g id="line2d_30"/>
    <g id="text_16">
     <!-- 7-Day Average -->
     <g style="fill:#555555;" transform="translate(340.655647 67.530156)scale(0.13 -0.13)">
      <defs>
       <path d="M 29.703125 0 
L 48.59375 51.703125 
L 39.703125 51.703125 
L 25.59375 8.59375 
L 25.40625 8.59375 
L 10.90625 51.703125 
L 1.40625 51.703125 
L 20.59375 0 
z
" id="HelveticaNeue-118"/>
       <path d="M 51 4.40625 
L 51 51.703125 
L 43 51.703125 
L 43 44.296875 
L 42.90625 44.296875 
Q 40.59375 48.59375 36.5 50.75 
Q 32.40625 52.90625 27.5 52.90625 
Q 20.796875 52.90625 16.1875 50.34375 
Q 11.59375 47.796875 8.796875 43.84375 
Q 6 39.90625 4.796875 35.046875 
Q 3.59375 30.203125 3.59375 25.59375 
Q 3.59375 20.296875 5.046875 15.546875 
Q 6.5 10.796875 9.390625 7.25 
Q 12.296875 3.703125 16.59375 1.59375 
Q 20.90625 -0.5 26.703125 -0.5 
Q 31.703125 -0.5 36.140625 1.75 
Q 40.59375 4 42.796875 8.796875 
L 43 8.796875 
L 43 5.40625 
Q 43 1.09375 42.140625 -2.5 
Q 41.296875 -6.09375 39.390625 -8.640625 
Q 37.5 -11.203125 34.59375 -12.640625 
Q 31.703125 -14.09375 27.5 -14.09375 
Q 25.40625 -14.09375 23.09375 -13.640625 
Q 20.796875 -13.203125 18.84375 -12.203125 
Q 16.90625 -11.203125 15.546875 -9.59375 
Q 14.203125 -8 14.09375 -5.703125 
L 5.59375 -5.703125 
Q 5.796875 -9.90625 7.796875 -12.796875 
Q 9.796875 -15.703125 12.84375 -17.5 
Q 15.90625 -19.296875 19.65625 -20.09375 
Q 23.40625 -20.90625 27 -20.90625 
Q 39.40625 -20.90625 45.203125 -14.59375 
Q 51 -8.296875 51 4.40625 
z
M 27.203125 6.90625 
Q 23 6.90625 20.203125 8.65625 
Q 17.40625 10.40625 15.703125 13.25 
Q 14 16.09375 13.296875 19.59375 
Q 12.59375 23.09375 12.59375 26.59375 
Q 12.59375 30.296875 13.4375 33.6875 
Q 14.296875 37.09375 16.140625 39.6875 
Q 18 42.296875 20.890625 43.84375 
Q 23.796875 45.40625 27.90625 45.40625 
Q 31.90625 45.40625 34.703125 43.796875 
Q 37.5 42.203125 39.25 39.546875 
Q 41 36.90625 41.796875 33.59375 
Q 42.59375 30.296875 42.59375 26.90625 
Q 42.59375 23.296875 41.75 19.6875 
Q 40.90625 16.09375 39.09375 13.25 
Q 37.296875 10.40625 34.34375 8.65625 
Q 31.40625 6.90625 27.203125 6.90625 
z
" id="HelveticaNeue-103"/>
      </defs>
      <use xlink:href="#HelveticaNeue-55"/>
      <use x="55.599991" xlink:href="#HelveticaNeue-45"/>
      <use x="94.499985" xlink:href="#HelveticaNeue-68"/>
      <use x="164.899979" xlink:href="#HelveticaNeue-97"/>
      <use x="218.599976" xlink:href="#HelveticaNeue-121"/>
      <use x="268.59996" xlink:href="#HelveticaNeue-32"/>
      <use x="296.399948" xlink:href="#HelveticaNeue-65"/>
      <use x="359.449936" xlink:href="#HelveticaNeue-118"/>
      <use x="409.449921" xlink:href="#HelveticaNeue-101"/>
      <use x="463.149918" xlink:href="#HelveticaNeue-114"/>
      <use x="496.449905" xlink:href="#HelveticaNeue-97"/>
      <use x="550.149902" xlink:href="#HelveticaNeue-103"/>
      <use x="607.549896" xlink:href="#HelveticaNeue-101"/>
     </g>
    </g>
   </g>
  </g>
 </g>
 <defs>
  <clipPath id="p0a9cdaf5e8">
   <rect height="239.862857" width="387.411429" x="50.90875" y="28.203125"/>
  </clipPath>
 </defs>
</svg>
