<?xml version="1.0" encoding="utf-8" standalone="no"?>
<!DOCTYPE svg PUBLIC "-//W3C//DTD SVG 1.1//EN"
  "http://www.w3.org/Graphics/SVG/1.1/DTD/svg11.dtd">
<!-- Created with matplotlib (https://matplotlib.org/) -->
<svg height="297.74375pt" version="1.1" viewBox="0 0 431.6375 297.74375" width="431.6375pt" xmlns="http://www.w3.org/2000/svg" xmlns:xlink="http://www.w3.org/1999/xlink">
 <metadata>
  <rdf:RDF xmlns:cc="http://creativecommons.org/ns#" xmlns:dc="http://purl.org/dc/elements/1.1/" xmlns:rdf="http://www.w3.org/1999/02/22-rdf-syntax-ns#">
   <cc:Work>
    <dc:type rdf:resource="http://purl.org/dc/dcmitype/StillImage"/>
    <dc:date>2021-02-12T12:17:32.304865</dc:date>
    <dc:format>image/svg+xml</dc:format>
    <dc:creator>
     <cc:Agent>
      <dc:title>Matplotlib v3.3.2, https://matplotlib.org/</dc:title>
     </cc:Agent>
    </dc:creator>
   </cc:Work>
  </rdf:RDF>
 </metadata>
 <defs>
  <style type="text/css">*{stroke-linecap:butt;stroke-linejoin:round;}</style>
 </defs>
 <g id="figure_1">
  <g id="patch_1">
   <path d="M 0 297.74375 
L 431.6375 297.74375 
L 431.6375 0 
L 0 0 
z
" style="fill:#ffffff;"/>
  </g>
  <g id="axes_1">
   <g id="patch_2">
    <path d="M 36.9375 249.45 
L 424.4375 249.45 
L 424.4375 22.95 
L 36.9375 22.95 
z
" style="fill:#ffffff;"/>
   </g>
   <g id="matplotlib.axis_1">
    <g id="xtick_1">
     <g id="line2d_1">
      <defs>
       <path d="M 0 0 
L 0 3.5 
" id="m9dcc2b8b8d" style="stroke:#000000;stroke-width:0.8;"/>
      </defs>
      <g>
       <use style="stroke:#000000;stroke-width:0.8;" x="36.9375" xlink:href="#m9dcc2b8b8d" y="249.45"/>
      </g>
     </g>
    </g>
    <g id="xtick_2">
     <g id="line2d_2">
      <g>
       <use style="stroke:#000000;stroke-width:0.8;" x="56.719782" xlink:href="#m9dcc2b8b8d" y="249.45"/>
      </g>
     </g>
     <g id="text_1">
      <!-- Apr -->
      <g transform="translate(48.819782 263.95)scale(0.1 -0.1)">
       <defs>
        <path d="M 47.015625 16.546875 
L 19.484375 16.546875 
L 13.71875 0 
L 0.875 0 
L 27.734375 71.09375 
L 38.8125 71.09375 
L 65.71875 0 
L 52.828125 0 
z
M 22.953125 26.515625 
L 43.5625 26.515625 
L 33.25 56 
z
" id="Roboto-Medium-65"/>
        <path d="M 52.34375 25.875 
Q 52.34375 13.625 46.78125 6.3125 
Q 41.21875 -0.984375 31.84375 -0.984375 
Q 23.140625 -0.984375 17.921875 4.734375 
L 17.921875 -20.3125 
L 6.0625 -20.3125 
L 6.0625 52.828125 
L 17 52.828125 
L 17.484375 47.46875 
Q 22.703125 53.8125 31.6875 53.8125 
Q 41.359375 53.8125 46.84375 46.609375 
Q 52.34375 39.40625 52.34375 26.609375 
z
M 40.53125 26.90625 
Q 40.53125 34.8125 37.375 39.453125 
Q 34.234375 44.09375 28.375 44.09375 
Q 21.09375 44.09375 17.921875 38.09375 
L 17.921875 14.65625 
Q 21.140625 8.5 28.46875 8.5 
Q 34.125 8.5 37.328125 13.0625 
Q 40.53125 17.625 40.53125 26.90625 
z
" id="Roboto-Medium-112"/>
        <path d="M 33.734375 42 
Q 31.390625 42.390625 28.90625 42.390625 
Q 20.75 42.390625 17.921875 36.140625 
L 17.921875 0 
L 6.0625 0 
L 6.0625 52.828125 
L 17.390625 52.828125 
L 17.671875 46.921875 
Q 21.96875 53.8125 29.59375 53.8125 
Q 32.125 53.8125 33.796875 53.125 
z
" id="Roboto-Medium-114"/>
       </defs>
       <use xlink:href="#Roboto-Medium-65"/>
       <use x="66.552734" xlink:href="#Roboto-Medium-112"/>
       <use x="122.851562" xlink:href="#Roboto-Medium-114"/>
      </g>
     </g>
    </g>
    <g id="xtick_3">
     <g id="line2d_3">
      <g>
       <use style="stroke:#000000;stroke-width:0.8;" x="91.629692" xlink:href="#m9dcc2b8b8d" y="249.45"/>
      </g>
     </g>
     <g id="text_2">
      <!-- May -->
      <g transform="translate(82.112505 263.846875)scale(0.1 -0.1)">
       <defs>
        <path d="M 23.25 71.09375 
L 43.75 16.609375 
L 64.203125 71.09375 
L 80.171875 71.09375 
L 80.171875 0 
L 67.875 0 
L 67.875 23.4375 
L 69.09375 54.78125 
L 48.09375 0 
L 39.265625 0 
L 18.3125 54.734375 
L 19.53125 23.4375 
L 19.53125 0 
L 7.234375 0 
L 7.234375 71.09375 
z
" id="Roboto-Medium-77"/>
        <path d="M 37.640625 0 
Q 36.859375 1.515625 36.28125 4.9375 
Q 30.609375 -0.984375 22.40625 -0.984375 
Q 14.453125 -0.984375 9.421875 3.5625 
Q 4.390625 8.109375 4.390625 14.796875 
Q 4.390625 23.25 10.65625 27.765625 
Q 16.9375 32.28125 28.609375 32.28125 
L 35.890625 32.28125 
L 35.890625 35.75 
Q 35.890625 39.84375 33.59375 42.3125 
Q 31.296875 44.78125 26.609375 44.78125 
Q 22.5625 44.78125 19.96875 42.75 
Q 17.390625 40.71875 17.390625 37.59375 
L 5.515625 37.59375 
Q 5.515625 41.9375 8.390625 45.71875 
Q 11.28125 49.515625 16.234375 51.65625 
Q 21.1875 53.8125 27.296875 53.8125 
Q 36.578125 53.8125 42.09375 49.140625 
Q 47.609375 44.484375 47.75 36.03125 
L 47.75 12.203125 
Q 47.75 5.078125 49.75 0.828125 
L 49.75 0 
z
M 24.609375 8.546875 
Q 28.125 8.546875 31.21875 10.25 
Q 34.328125 11.96875 35.890625 14.84375 
L 35.890625 24.8125 
L 29.5 24.8125 
Q 22.90625 24.8125 19.578125 22.515625 
Q 16.265625 20.21875 16.265625 16.015625 
Q 16.265625 12.59375 18.53125 10.5625 
Q 20.796875 8.546875 24.609375 8.546875 
z
" id="Roboto-Medium-97"/>
        <path d="M 24.5625 17 
L 35.296875 52.828125 
L 47.953125 52.828125 
L 26.953125 -8.015625 
Q 22.125 -21.34375 10.546875 -21.34375 
Q 7.953125 -21.34375 4.828125 -20.453125 
L 4.828125 -11.28125 
L 7.078125 -11.421875 
Q 11.578125 -11.421875 13.84375 -9.78125 
Q 16.109375 -8.15625 17.4375 -4.296875 
L 19.140625 0.25 
L 0.59375 52.828125 
L 13.375 52.828125 
z
" id="Roboto-Medium-121"/>
       </defs>
       <use xlink:href="#Roboto-Medium-77"/>
       <use x="87.548828" xlink:href="#Roboto-Medium-97"/>
       <use x="141.650391" xlink:href="#Roboto-Medium-121"/>
      </g>
     </g>
    </g>
    <g id="xtick_4">
     <g id="line2d_4">
      <g>
       <use style="stroke:#000000;stroke-width:0.8;" x="127.703266" xlink:href="#m9dcc2b8b8d" y="249.45"/>
      </g>
     </g>
     <g id="text_3">
      <!-- Jun -->
      <g transform="translate(119.368891 263.95)scale(0.1 -0.1)">
       <defs>
        <path d="M 36.328125 71.09375 
L 48.640625 71.09375 
L 48.640625 21.234375 
Q 48.640625 11.03125 42.265625 5.015625 
Q 35.890625 -0.984375 25.4375 -0.984375 
Q 14.3125 -0.984375 8.25 4.625 
Q 2.203125 10.25 2.203125 20.265625 
L 14.5 20.265625 
Q 14.5 14.59375 17.3125 11.734375 
Q 20.125 8.890625 25.4375 8.890625 
Q 30.421875 8.890625 33.375 12.1875 
Q 36.328125 15.484375 36.328125 21.296875 
z
" id="Roboto-Medium-74"/>
        <path d="M 38.09375 5.171875 
Q 32.859375 -0.984375 23.25 -0.984375 
Q 14.65625 -0.984375 10.234375 4.046875 
Q 5.8125 9.078125 5.8125 18.609375 
L 5.8125 52.828125 
L 17.671875 52.828125 
L 17.671875 18.75 
Q 17.671875 8.6875 26.03125 8.6875 
Q 34.671875 8.6875 37.703125 14.890625 
L 37.703125 52.828125 
L 49.5625 52.828125 
L 49.5625 0 
L 38.375 0 
z
" id="Roboto-Medium-117"/>
        <path d="M 17.09375 52.828125 
L 17.4375 46.734375 
Q 23.296875 53.8125 32.8125 53.8125 
Q 49.3125 53.8125 49.609375 34.90625 
L 49.609375 0 
L 37.75 0 
L 37.75 34.234375 
Q 37.75 39.265625 35.578125 41.671875 
Q 33.40625 44.09375 28.46875 44.09375 
Q 21.296875 44.09375 17.78125 37.59375 
L 17.78125 0 
L 5.90625 0 
L 5.90625 52.828125 
z
" id="Roboto-Medium-110"/>
       </defs>
       <use xlink:href="#Roboto-Medium-74"/>
       <use x="55.517578" xlink:href="#Roboto-Medium-117"/>
       <use x="111.083984" xlink:href="#Roboto-Medium-110"/>
      </g>
     </g>
    </g>
    <g id="xtick_5">
     <g id="line2d_5">
      <g>
       <use style="stroke:#000000;stroke-width:0.8;" x="162.613176" xlink:href="#m9dcc2b8b8d" y="249.45"/>
      </g>
     </g>
     <g id="text_4">
      <!-- Jul -->
      <g transform="translate(155.782707 263.95)scale(0.1 -0.1)">
       <defs>
        <path d="M 18.703125 0 
L 6.84375 0 
L 6.84375 75 
L 18.703125 75 
z
" id="Roboto-Medium-108"/>
       </defs>
       <use xlink:href="#Roboto-Medium-74"/>
       <use x="55.517578" xlink:href="#Roboto-Medium-117"/>
       <use x="111.083984" xlink:href="#Roboto-Medium-108"/>
      </g>
     </g>
    </g>
    <g id="xtick_6">
     <g id="line2d_6">
      <g>
       <use style="stroke:#000000;stroke-width:0.8;" x="198.686749" xlink:href="#m9dcc2b8b8d" y="249.45"/>
      </g>
     </g>
     <g id="text_5">
      <!-- Aug -->
      <g transform="translate(189.746905 263.901562)scale(0.1 -0.1)">
       <defs>
        <path d="M 4 26.8125 
Q 4 39.109375 9.78125 46.453125 
Q 15.578125 53.8125 25.140625 53.8125 
Q 34.1875 53.8125 39.359375 47.515625 
L 39.890625 52.828125 
L 50.59375 52.828125 
L 50.59375 1.609375 
Q 50.59375 -8.796875 44.109375 -14.796875 
Q 37.640625 -20.796875 26.65625 -20.796875 
Q 20.84375 -20.796875 15.296875 -18.375 
Q 9.765625 -15.96875 6.890625 -12.0625 
L 12.5 -4.9375 
Q 17.96875 -11.421875 25.984375 -11.421875 
Q 31.890625 -11.421875 35.296875 -8.21875 
Q 38.71875 -5.03125 38.71875 1.171875 
L 38.71875 4.734375 
Q 33.59375 -0.984375 25.046875 -0.984375 
Q 15.765625 -0.984375 9.875 6.390625 
Q 4 13.765625 4 26.8125 
z
M 15.828125 25.78125 
Q 15.828125 17.828125 19.0625 13.25 
Q 22.3125 8.6875 28.078125 8.6875 
Q 35.25 8.6875 38.71875 14.84375 
L 38.71875 38.09375 
Q 35.359375 44.09375 28.171875 44.09375 
Q 22.3125 44.09375 19.0625 39.453125 
Q 15.828125 34.8125 15.828125 25.78125 
z
" id="Roboto-Medium-103"/>
       </defs>
       <use xlink:href="#Roboto-Medium-65"/>
       <use x="66.552734" xlink:href="#Roboto-Medium-117"/>
       <use x="122.119141" xlink:href="#Roboto-Medium-103"/>
      </g>
     </g>
    </g>
    <g id="xtick_7">
     <g id="line2d_7">
      <g>
       <use style="stroke:#000000;stroke-width:0.8;" x="234.760323" xlink:href="#m9dcc2b8b8d" y="249.45"/>
      </g>
     </g>
     <g id="text_6">
      <!-- Sep -->
      <g transform="translate(226.244698 263.95)scale(0.1 -0.1)">
       <defs>
        <path d="M 44.390625 18.3125 
Q 44.390625 23 41.09375 25.53125 
Q 37.796875 28.078125 29.203125 30.65625 
Q 20.609375 33.25 15.53125 36.421875 
Q 5.8125 42.53125 5.8125 52.34375 
Q 5.8125 60.9375 12.8125 66.5 
Q 19.828125 72.078125 31 72.078125 
Q 38.421875 72.078125 44.234375 69.34375 
Q 50.046875 66.609375 53.359375 61.546875 
Q 56.6875 56.5 56.6875 50.34375 
L 44.390625 50.34375 
Q 44.390625 55.90625 40.890625 59.046875 
Q 37.40625 62.203125 30.90625 62.203125 
Q 24.859375 62.203125 21.515625 59.609375 
Q 18.171875 57.03125 18.171875 52.390625 
Q 18.171875 48.484375 21.78125 45.875 
Q 25.390625 43.265625 33.6875 40.796875 
Q 42 38.328125 47.015625 35.171875 
Q 52.046875 32.03125 54.390625 27.953125 
Q 56.734375 23.875 56.734375 18.40625 
Q 56.734375 9.515625 49.921875 4.265625 
Q 43.109375 -0.984375 31.453125 -0.984375 
Q 23.734375 -0.984375 17.265625 1.875 
Q 10.796875 4.734375 7.203125 9.765625 
Q 3.609375 14.796875 3.609375 21.484375 
L 15.96875 21.484375 
Q 15.96875 15.4375 19.96875 12.109375 
Q 23.96875 8.796875 31.453125 8.796875 
Q 37.890625 8.796875 41.140625 11.40625 
Q 44.390625 14.015625 44.390625 18.3125 
z
" id="Roboto-Medium-83"/>
        <path d="M 29.34375 -0.984375 
Q 18.0625 -0.984375 11.046875 6.125 
Q 4.046875 13.234375 4.046875 25.046875 
L 4.046875 26.515625 
Q 4.046875 34.421875 7.09375 40.640625 
Q 10.15625 46.875 15.671875 50.34375 
Q 21.1875 53.8125 27.984375 53.8125 
Q 38.765625 53.8125 44.640625 46.921875 
Q 50.53125 40.046875 50.53125 27.4375 
L 50.53125 22.65625 
L 16.015625 22.65625 
Q 16.546875 16.109375 20.375 12.296875 
Q 24.21875 8.5 30.03125 8.5 
Q 38.1875 8.5 43.3125 15.09375 
L 49.703125 8.984375 
Q 46.53125 4.25 41.234375 1.625 
Q 35.9375 -0.984375 29.34375 -0.984375 
z
M 27.9375 44.28125 
Q 23.046875 44.28125 20.046875 40.859375 
Q 17.046875 37.453125 16.21875 31.34375 
L 38.8125 31.34375 
L 38.8125 32.234375 
Q 38.421875 38.1875 35.640625 41.234375 
Q 32.859375 44.28125 27.9375 44.28125 
z
" id="Roboto-Medium-101"/>
       </defs>
       <use xlink:href="#Roboto-Medium-83"/>
       <use x="60.351562" xlink:href="#Roboto-Medium-101"/>
       <use x="114.013672" xlink:href="#Roboto-Medium-112"/>
      </g>
     </g>
    </g>
    <g id="xtick_8">
     <g id="line2d_8">
      <g>
       <use style="stroke:#000000;stroke-width:0.8;" x="269.670233" xlink:href="#m9dcc2b8b8d" y="249.45"/>
      </g>
     </g>
     <g id="text_7">
      <!-- Oct -->
      <g transform="translate(261.938201 263.95)scale(0.1 -0.1)">
       <defs>
        <path d="M 63.96875 33.6875 
Q 63.96875 23.25 60.34375 15.359375 
Q 56.734375 7.46875 50.015625 3.234375 
Q 43.3125 -0.984375 34.578125 -0.984375 
Q 25.921875 -0.984375 19.15625 3.234375 
Q 12.40625 7.46875 8.71875 15.28125 
Q 5.03125 23.09375 4.984375 33.296875 
L 4.984375 37.3125 
Q 4.984375 47.703125 8.671875 55.65625 
Q 12.359375 63.625 19.0625 67.84375 
Q 25.78125 72.078125 34.46875 72.078125 
Q 43.171875 72.078125 49.875 67.890625 
Q 56.59375 63.71875 60.25 55.875 
Q 63.921875 48.046875 63.96875 37.640625 
z
M 51.609375 37.40625 
Q 51.609375 49.21875 47.140625 55.515625 
Q 42.671875 61.8125 34.46875 61.8125 
Q 26.46875 61.8125 21.953125 55.53125 
Q 17.4375 49.265625 17.328125 37.796875 
L 17.328125 33.6875 
Q 17.328125 21.96875 21.890625 15.578125 
Q 26.46875 9.1875 34.578125 9.1875 
Q 42.78125 9.1875 47.1875 15.4375 
Q 51.609375 21.6875 51.609375 33.6875 
z
" id="Roboto-Medium-79"/>
        <path d="M 27.78125 8.5 
Q 32.234375 8.5 35.15625 11.078125 
Q 38.09375 13.671875 38.28125 17.484375 
L 49.46875 17.484375 
Q 49.265625 12.546875 46.375 8.265625 
Q 43.5 4 38.5625 1.5 
Q 33.640625 -0.984375 27.9375 -0.984375 
Q 16.84375 -0.984375 10.34375 6.1875 
Q 3.859375 13.375 3.859375 26.03125 
L 3.859375 27.25 
Q 3.859375 39.3125 10.296875 46.5625 
Q 16.75 53.8125 27.875 53.8125 
Q 37.3125 53.8125 43.234375 48.3125 
Q 49.171875 42.828125 49.46875 33.890625 
L 38.28125 33.890625 
Q 38.09375 38.421875 35.1875 41.34375 
Q 32.28125 44.28125 27.78125 44.28125 
Q 22.015625 44.28125 18.890625 40.109375 
Q 15.765625 35.9375 15.71875 27.4375 
L 15.71875 25.53125 
Q 15.71875 16.9375 18.8125 12.71875 
Q 21.921875 8.5 27.78125 8.5 
z
" id="Roboto-Medium-99"/>
        <path d="M 20.953125 65.671875 
L 20.953125 52.828125 
L 30.28125 52.828125 
L 30.28125 44.046875 
L 20.953125 44.046875 
L 20.953125 14.546875 
Q 20.953125 11.53125 22.140625 10.1875 
Q 23.34375 8.84375 26.421875 8.84375 
Q 28.46875 8.84375 30.5625 9.328125 
L 30.5625 0.140625 
Q 26.515625 -0.984375 22.75 -0.984375 
Q 9.078125 -0.984375 9.078125 14.109375 
L 9.078125 44.046875 
L 0.390625 44.046875 
L 0.390625 52.828125 
L 9.078125 52.828125 
L 9.078125 65.671875 
z
" id="Roboto-Medium-116"/>
       </defs>
       <use xlink:href="#Roboto-Medium-79"/>
       <use x="69.042969" xlink:href="#Roboto-Medium-99"/>
       <use x="121.386719" xlink:href="#Roboto-Medium-116"/>
      </g>
     </g>
    </g>
    <g id="xtick_9">
     <g id="line2d_9">
      <g>
       <use style="stroke:#000000;stroke-width:0.8;" x="305.743806" xlink:href="#m9dcc2b8b8d" y="249.45"/>
      </g>
     </g>
     <g id="text_8">
      <!-- Nov -->
      <g transform="translate(296.873494 263.95)scale(0.1 -0.1)">
       <defs>
        <path d="M 63.625 0 
L 51.265625 0 
L 19.578125 50.4375 
L 19.578125 0 
L 7.234375 0 
L 7.234375 71.09375 
L 19.578125 71.09375 
L 51.375 20.453125 
L 51.375 71.09375 
L 63.625 71.09375 
z
" id="Roboto-Medium-78"/>
        <path d="M 3.859375 26.90625 
Q 3.859375 34.671875 6.9375 40.890625 
Q 10.015625 47.125 15.578125 50.46875 
Q 21.140625 53.8125 28.375 53.8125 
Q 39.0625 53.8125 45.71875 46.921875 
Q 52.390625 40.046875 52.9375 28.65625 
L 52.984375 25.875 
Q 52.984375 18.0625 49.96875 11.90625 
Q 46.96875 5.765625 41.375 2.390625 
Q 35.796875 -0.984375 28.46875 -0.984375 
Q 17.28125 -0.984375 10.5625 6.46875 
Q 3.859375 13.921875 3.859375 26.3125 
z
M 15.71875 25.875 
Q 15.71875 17.71875 19.09375 13.109375 
Q 22.46875 8.5 28.46875 8.5 
Q 34.46875 8.5 37.8125 13.1875 
Q 41.15625 17.875 41.15625 26.90625 
Q 41.15625 34.90625 37.71875 39.59375 
Q 34.28125 44.28125 28.375 44.28125 
Q 22.5625 44.28125 19.140625 39.671875 
Q 15.71875 35.0625 15.71875 25.875 
z
" id="Roboto-Medium-111"/>
        <path d="M 24.703125 15.046875 
L 35.890625 52.828125 
L 48.140625 52.828125 
L 29.828125 0 
L 19.53125 0 
L 1.078125 52.828125 
L 13.375 52.828125 
z
" id="Roboto-Medium-118"/>
       </defs>
       <use xlink:href="#Roboto-Medium-78"/>
       <use x="70.996094" xlink:href="#Roboto-Medium-111"/>
       <use x="127.929688" xlink:href="#Roboto-Medium-118"/>
      </g>
     </g>
    </g>
    <g id="xtick_10">
     <g id="line2d_10">
      <g>
       <use style="stroke:#000000;stroke-width:0.8;" x="340.653716" xlink:href="#m9dcc2b8b8d" y="249.45"/>
      </g>
     </g>
     <g id="text_9">
      <!-- Dec -->
      <g transform="translate(332.08731 263.95)scale(0.1 -0.1)">
       <defs>
        <path d="M 7.234375 0 
L 7.234375 71.09375 
L 28.21875 71.09375 
Q 37.640625 71.09375 44.9375 66.890625 
Q 52.25 62.703125 56.25 54.984375 
Q 60.25 47.265625 60.25 37.3125 
L 60.25 33.734375 
Q 60.25 23.640625 56.21875 15.96875 
Q 52.203125 8.296875 44.75 4.140625 
Q 37.3125 0 27.6875 0 
z
M 19.578125 61.140625 
L 19.578125 9.859375 
L 27.640625 9.859375 
Q 37.359375 9.859375 42.546875 15.9375 
Q 47.75 22.015625 47.859375 33.40625 
L 47.859375 37.359375 
Q 47.859375 48.921875 42.828125 55.03125 
Q 37.796875 61.140625 28.21875 61.140625 
z
" id="Roboto-Medium-68"/>
       </defs>
       <use xlink:href="#Roboto-Medium-68"/>
       <use x="65.332031" xlink:href="#Roboto-Medium-101"/>
       <use x="118.994141" xlink:href="#Roboto-Medium-99"/>
      </g>
     </g>
    </g>
    <g id="xtick_11">
     <g id="line2d_11">
      <g>
       <use style="stroke:#000000;stroke-width:0.8;" x="376.72729" xlink:href="#m9dcc2b8b8d" y="249.45"/>
      </g>
     </g>
     <g id="text_10">
      <!-- Jan -->
      <g transform="translate(368.465571 263.95)scale(0.1 -0.1)">
       <use xlink:href="#Roboto-Medium-74"/>
       <use x="55.517578" xlink:href="#Roboto-Medium-97"/>
       <use x="109.619141" xlink:href="#Roboto-Medium-110"/>
      </g>
      <!-- 2021 -->
      <g transform="translate(365.35854 274.98125)scale(0.1 -0.1)">
       <defs>
        <path d="M 53.125 0 
L 5.328125 0 
L 5.328125 8.15625 
L 29 33.984375 
Q 34.125 39.703125 36.296875 43.53125 
Q 38.484375 47.359375 38.484375 51.21875 
Q 38.484375 56.296875 35.625 59.421875 
Q 32.765625 62.546875 27.9375 62.546875 
Q 22.171875 62.546875 19 59.03125 
Q 15.828125 55.515625 15.828125 49.421875 
L 3.953125 49.421875 
Q 3.953125 55.90625 6.90625 61.109375 
Q 9.859375 66.3125 15.34375 69.1875 
Q 20.84375 72.078125 28.03125 72.078125 
Q 38.375 72.078125 44.359375 66.875 
Q 50.34375 61.671875 50.34375 52.484375 
Q 50.34375 47.171875 47.34375 41.328125 
Q 44.34375 35.5 37.5 28.078125 
L 20.125 9.46875 
L 53.125 9.46875 
z
" id="Roboto-Medium-50"/>
        <path d="M 51.65625 29.9375 
Q 51.65625 14.59375 45.921875 6.796875 
Q 40.1875 -0.984375 28.46875 -0.984375 
Q 16.9375 -0.984375 11.109375 6.609375 
Q 5.28125 14.203125 5.125 29.109375 
L 5.125 41.40625 
Q 5.125 56.734375 10.859375 64.40625 
Q 16.609375 72.078125 28.375 72.078125 
Q 40.046875 72.078125 45.78125 64.59375 
Q 51.515625 57.125 51.65625 42.234375 
z
M 39.796875 43.21875 
Q 39.796875 53.21875 37.0625 57.875 
Q 34.328125 62.546875 28.375 62.546875 
Q 22.5625 62.546875 19.828125 58.125 
Q 17.09375 53.71875 16.9375 44.34375 
L 16.9375 28.21875 
Q 16.9375 18.265625 19.71875 13.375 
Q 22.515625 8.5 28.46875 8.5 
Q 34.1875 8.5 36.921875 13.015625 
Q 39.65625 17.53125 39.796875 27.15625 
z
" id="Roboto-Medium-48"/>
        <path d="M 37.453125 0 
L 25.640625 0 
L 25.640625 57.078125 
L 8.203125 51.125 
L 8.203125 61.140625 
L 35.9375 71.34375 
L 37.453125 71.34375 
z
" id="Roboto-Medium-49"/>
       </defs>
       <use xlink:href="#Roboto-Medium-50"/>
       <use x="56.835938" xlink:href="#Roboto-Medium-48"/>
       <use x="113.671875" xlink:href="#Roboto-Medium-50"/>
       <use x="170.507812" xlink:href="#Roboto-Medium-49"/>
      </g>
     </g>
    </g>
    <g id="xtick_12">
     <g id="line2d_12">
      <g>
       <use style="stroke:#000000;stroke-width:0.8;" x="412.800863" xlink:href="#m9dcc2b8b8d" y="249.45"/>
      </g>
     </g>
     <g id="text_11">
      <!-- Feb -->
      <g transform="translate(404.556332 263.95)scale(0.1 -0.1)">
       <defs>
        <path d="M 48.1875 30.125 
L 19.578125 30.125 
L 19.578125 0 
L 7.234375 0 
L 7.234375 71.09375 
L 52.390625 71.09375 
L 52.390625 61.140625 
L 19.578125 61.140625 
L 19.578125 39.984375 
L 48.1875 39.984375 
z
" id="Roboto-Medium-70"/>
        <path d="M 52.4375 25.875 
Q 52.4375 13.578125 46.9375 6.296875 
Q 41.453125 -0.984375 31.84375 -0.984375 
Q 22.5625 -0.984375 17.390625 5.71875 
L 16.796875 0 
L 6.0625 0 
L 6.0625 75 
L 17.921875 75 
L 17.921875 47.75 
Q 23.046875 53.8125 31.734375 53.8125 
Q 41.40625 53.8125 46.921875 46.625 
Q 52.4375 39.453125 52.4375 26.5625 
z
M 40.578125 26.90625 
Q 40.578125 35.5 37.546875 39.796875 
Q 34.515625 44.09375 28.765625 44.09375 
Q 21.046875 44.09375 17.921875 37.359375 
L 17.921875 15.578125 
Q 21.09375 8.6875 28.859375 8.6875 
Q 34.421875 8.6875 37.453125 12.84375 
Q 40.484375 17 40.578125 25.390625 
z
" id="Roboto-Medium-98"/>
       </defs>
       <use xlink:href="#Roboto-Medium-70"/>
       <use x="54.931641" xlink:href="#Roboto-Medium-101"/>
       <use x="108.59375" xlink:href="#Roboto-Medium-98"/>
      </g>
     </g>
    </g>
    <g id="xtick_13">
     <g id="line2d_13">
      <g>
       <use style="stroke:#000000;stroke-width:0.8;" x="424.4375" xlink:href="#m9dcc2b8b8d" y="249.45"/>
      </g>
     </g>
    </g>
    <g id="xtick_14">
     <g id="line2d_14">
      <defs>
       <path d="M 0 0 
L 0 2 
" id="ma26329768c" style="stroke:#000000;stroke-width:0.6;"/>
      </defs>
      <g>
       <use style="stroke:#000000;stroke-width:0.6;" x="38.101164" xlink:href="#ma26329768c" y="249.45"/>
      </g>
     </g>
    </g>
    <g id="xtick_15">
     <g id="line2d_15">
      <g>
       <use style="stroke:#000000;stroke-width:0.6;" x="46.246809" xlink:href="#ma26329768c" y="249.45"/>
      </g>
     </g>
    </g>
    <g id="xtick_16">
     <g id="line2d_16">
      <g>
       <use style="stroke:#000000;stroke-width:0.6;" x="54.392455" xlink:href="#ma26329768c" y="249.45"/>
      </g>
     </g>
    </g>
    <g id="xtick_17">
     <g id="line2d_17">
      <g>
       <use style="stroke:#000000;stroke-width:0.6;" x="62.538101" xlink:href="#ma26329768c" y="249.45"/>
      </g>
     </g>
    </g>
    <g id="xtick_18">
     <g id="line2d_18">
      <g>
       <use style="stroke:#000000;stroke-width:0.6;" x="70.683746" xlink:href="#ma26329768c" y="249.45"/>
      </g>
     </g>
    </g>
    <g id="xtick_19">
     <g id="line2d_19">
      <g>
       <use style="stroke:#000000;stroke-width:0.6;" x="78.829392" xlink:href="#ma26329768c" y="249.45"/>
      </g>
     </g>
    </g>
    <g id="xtick_20">
     <g id="line2d_20">
      <g>
       <use style="stroke:#000000;stroke-width:0.6;" x="86.975038" xlink:href="#ma26329768c" y="249.45"/>
      </g>
     </g>
    </g>
    <g id="xtick_21">
     <g id="line2d_21">
      <g>
       <use style="stroke:#000000;stroke-width:0.6;" x="95.120683" xlink:href="#ma26329768c" y="249.45"/>
      </g>
     </g>
    </g>
    <g id="xtick_22">
     <g id="line2d_22">
      <g>
       <use style="stroke:#000000;stroke-width:0.6;" x="103.266329" xlink:href="#ma26329768c" y="249.45"/>
      </g>
     </g>
    </g>
    <g id="xtick_23">
     <g id="line2d_23">
      <g>
       <use style="stroke:#000000;stroke-width:0.6;" x="111.411974" xlink:href="#ma26329768c" y="249.45"/>
      </g>
     </g>
    </g>
    <g id="xtick_24">
     <g id="line2d_24">
      <g>
       <use style="stroke:#000000;stroke-width:0.6;" x="119.55762" xlink:href="#ma26329768c" y="249.45"/>
      </g>
     </g>
    </g>
    <g id="xtick_25">
     <g id="line2d_25">
      <g>
       <use style="stroke:#000000;stroke-width:0.6;" x="135.848911" xlink:href="#ma26329768c" y="249.45"/>
      </g>
     </g>
    </g>
    <g id="xtick_26">
     <g id="line2d_26">
      <g>
       <use style="stroke:#000000;stroke-width:0.6;" x="143.994557" xlink:href="#ma26329768c" y="249.45"/>
      </g>
     </g>
    </g>
    <g id="xtick_27">
     <g id="line2d_27">
      <g>
       <use style="stroke:#000000;stroke-width:0.6;" x="152.140203" xlink:href="#ma26329768c" y="249.45"/>
      </g>
     </g>
    </g>
    <g id="xtick_28">
     <g id="line2d_28">
      <g>
       <use style="stroke:#000000;stroke-width:0.6;" x="160.285848" xlink:href="#ma26329768c" y="249.45"/>
      </g>
     </g>
    </g>
    <g id="xtick_29">
     <g id="line2d_29">
      <g>
       <use style="stroke:#000000;stroke-width:0.6;" x="168.431494" xlink:href="#ma26329768c" y="249.45"/>
      </g>
     </g>
    </g>
    <g id="xtick_30">
     <g id="line2d_30">
      <g>
       <use style="stroke:#000000;stroke-width:0.6;" x="176.57714" xlink:href="#ma26329768c" y="249.45"/>
      </g>
     </g>
    </g>
    <g id="xtick_31">
     <g id="line2d_31">
      <g>
       <use style="stroke:#000000;stroke-width:0.6;" x="184.722785" xlink:href="#ma26329768c" y="249.45"/>
      </g>
     </g>
    </g>
    <g id="xtick_32">
     <g id="line2d_32">
      <g>
       <use style="stroke:#000000;stroke-width:0.6;" x="192.868431" xlink:href="#ma26329768c" y="249.45"/>
      </g>
     </g>
    </g>
    <g id="xtick_33">
     <g id="line2d_33">
      <g>
       <use style="stroke:#000000;stroke-width:0.6;" x="201.014077" xlink:href="#ma26329768c" y="249.45"/>
      </g>
     </g>
    </g>
    <g id="xtick_34">
     <g id="line2d_34">
      <g>
       <use style="stroke:#000000;stroke-width:0.6;" x="209.159722" xlink:href="#ma26329768c" y="249.45"/>
      </g>
     </g>
    </g>
    <g id="xtick_35">
     <g id="line2d_35">
      <g>
       <use style="stroke:#000000;stroke-width:0.6;" x="217.305368" xlink:href="#ma26329768c" y="249.45"/>
      </g>
     </g>
    </g>
    <g id="xtick_36">
     <g id="line2d_36">
      <g>
       <use style="stroke:#000000;stroke-width:0.6;" x="225.451014" xlink:href="#ma26329768c" y="249.45"/>
      </g>
     </g>
    </g>
    <g id="xtick_37">
     <g id="line2d_37">
      <g>
       <use style="stroke:#000000;stroke-width:0.6;" x="233.596659" xlink:href="#ma26329768c" y="249.45"/>
      </g>
     </g>
    </g>
    <g id="xtick_38">
     <g id="line2d_38">
      <g>
       <use style="stroke:#000000;stroke-width:0.6;" x="241.742305" xlink:href="#ma26329768c" y="249.45"/>
      </g>
     </g>
    </g>
    <g id="xtick_39">
     <g id="line2d_39">
      <g>
       <use style="stroke:#000000;stroke-width:0.6;" x="249.88795" xlink:href="#ma26329768c" y="249.45"/>
      </g>
     </g>
    </g>
    <g id="xtick_40">
     <g id="line2d_40">
      <g>
       <use style="stroke:#000000;stroke-width:0.6;" x="258.033596" xlink:href="#ma26329768c" y="249.45"/>
      </g>
     </g>
    </g>
    <g id="xtick_41">
     <g id="line2d_41">
      <g>
       <use style="stroke:#000000;stroke-width:0.6;" x="266.179242" xlink:href="#ma26329768c" y="249.45"/>
      </g>
     </g>
    </g>
    <g id="xtick_42">
     <g id="line2d_42">
      <g>
       <use style="stroke:#000000;stroke-width:0.6;" x="274.324887" xlink:href="#ma26329768c" y="249.45"/>
      </g>
     </g>
    </g>
    <g id="xtick_43">
     <g id="line2d_43">
      <g>
       <use style="stroke:#000000;stroke-width:0.6;" x="282.470533" xlink:href="#ma26329768c" y="249.45"/>
      </g>
     </g>
    </g>
    <g id="xtick_44">
     <g id="line2d_44">
      <g>
       <use style="stroke:#000000;stroke-width:0.6;" x="290.616179" xlink:href="#ma26329768c" y="249.45"/>
      </g>
     </g>
    </g>
    <g id="xtick_45">
     <g id="line2d_45">
      <g>
       <use style="stroke:#000000;stroke-width:0.6;" x="298.761824" xlink:href="#ma26329768c" y="249.45"/>
      </g>
     </g>
    </g>
    <g id="xtick_46">
     <g id="line2d_46">
      <g>
       <use style="stroke:#000000;stroke-width:0.6;" x="306.90747" xlink:href="#ma26329768c" y="249.45"/>
      </g>
     </g>
    </g>
    <g id="xtick_47">
     <g id="line2d_47">
      <g>
       <use style="stroke:#000000;stroke-width:0.6;" x="315.053116" xlink:href="#ma26329768c" y="249.45"/>
      </g>
     </g>
    </g>
    <g id="xtick_48">
     <g id="line2d_48">
      <g>
       <use style="stroke:#000000;stroke-width:0.6;" x="323.198761" xlink:href="#ma26329768c" y="249.45"/>
      </g>
     </g>
    </g>
    <g id="xtick_49">
     <g id="line2d_49">
      <g>
       <use style="stroke:#000000;stroke-width:0.6;" x="331.344407" xlink:href="#ma26329768c" y="249.45"/>
      </g>
     </g>
    </g>
    <g id="xtick_50">
     <g id="line2d_50">
      <g>
       <use style="stroke:#000000;stroke-width:0.6;" x="339.490053" xlink:href="#ma26329768c" y="249.45"/>
      </g>
     </g>
    </g>
    <g id="xtick_51">
     <g id="line2d_51">
      <g>
       <use style="stroke:#000000;stroke-width:0.6;" x="347.635698" xlink:href="#ma26329768c" y="249.45"/>
      </g>
     </g>
    </g>
    <g id="xtick_52">
     <g id="line2d_52">
      <g>
       <use style="stroke:#000000;stroke-width:0.6;" x="355.781344" xlink:href="#ma26329768c" y="249.45"/>
      </g>
     </g>
    </g>
    <g id="xtick_53">
     <g id="line2d_53">
      <g>
       <use style="stroke:#000000;stroke-width:0.6;" x="363.926989" xlink:href="#ma26329768c" y="249.45"/>
      </g>
     </g>
    </g>
    <g id="xtick_54">
     <g id="line2d_54">
      <g>
       <use style="stroke:#000000;stroke-width:0.6;" x="372.072635" xlink:href="#ma26329768c" y="249.45"/>
      </g>
     </g>
    </g>
    <g id="xtick_55">
     <g id="line2d_55">
      <g>
       <use style="stroke:#000000;stroke-width:0.6;" x="380.218281" xlink:href="#ma26329768c" y="249.45"/>
      </g>
     </g>
    </g>
    <g id="xtick_56">
     <g id="line2d_56">
      <g>
       <use style="stroke:#000000;stroke-width:0.6;" x="388.363926" xlink:href="#ma26329768c" y="249.45"/>
      </g>
     </g>
    </g>
    <g id="xtick_57">
     <g id="line2d_57">
      <g>
       <use style="stroke:#000000;stroke-width:0.6;" x="396.509572" xlink:href="#ma26329768c" y="249.45"/>
      </g>
     </g>
    </g>
    <g id="xtick_58">
     <g id="line2d_58">
      <g>
       <use style="stroke:#000000;stroke-width:0.6;" x="404.655218" xlink:href="#ma26329768c" y="249.45"/>
      </g>
     </g>
    </g>
    <g id="xtick_59">
     <g id="line2d_59">
      <g>
       <use style="stroke:#000000;stroke-width:0.6;" x="420.946509" xlink:href="#ma26329768c" y="249.45"/>
      </g>
     </g>
    </g>
    <g id="text_12">
     <!-- date -->
     <g transform="translate(220.865625 288.5125)scale(0.1 -0.1)">
      <defs>
       <path d="M 4.640625 26.859375 
Q 4.640625 39.015625 10.390625 46.40625 
Q 16.15625 53.8125 25.484375 53.8125 
Q 34.765625 53.8125 40.1875 47.46875 
L 40.1875 75 
L 49.21875 75 
L 49.21875 0 
L 40.921875 0 
L 40.484375 5.671875 
Q 35.0625 -0.984375 25.390625 -0.984375 
Q 16.21875 -0.984375 10.421875 6.53125 
Q 4.640625 14.0625 4.640625 26.171875 
z
M 13.671875 25.828125 
Q 13.671875 16.84375 17.375 11.765625 
Q 21.09375 6.6875 27.640625 6.6875 
Q 36.234375 6.6875 40.1875 14.40625 
L 40.1875 38.671875 
Q 36.140625 46.140625 27.734375 46.140625 
Q 21.09375 46.140625 17.375 41.015625 
Q 13.671875 35.890625 13.671875 25.828125 
z
" id="Roboto-Regular-100"/>
       <path d="M 39.453125 0 
Q 38.671875 1.5625 38.1875 5.5625 
Q 31.890625 -0.984375 23.140625 -0.984375 
Q 15.328125 -0.984375 10.328125 3.4375 
Q 5.328125 7.859375 5.328125 14.65625 
Q 5.328125 22.90625 11.59375 27.46875 
Q 17.875 32.03125 29.25 32.03125 
L 38.03125 32.03125 
L 38.03125 36.1875 
Q 38.03125 40.921875 35.203125 43.71875 
Q 32.375 46.53125 26.859375 46.53125 
Q 22.015625 46.53125 18.75 44.09375 
Q 15.484375 41.65625 15.484375 38.1875 
L 6.390625 38.1875 
Q 6.390625 42.140625 9.203125 45.828125 
Q 12.015625 49.515625 16.8125 51.65625 
Q 21.625 53.8125 27.390625 53.8125 
Q 36.53125 53.8125 41.703125 49.234375 
Q 46.875 44.671875 47.078125 36.671875 
L 47.078125 12.359375 
Q 47.078125 5.078125 48.921875 0.78125 
L 48.921875 0 
z
M 24.46875 6.890625 
Q 28.71875 6.890625 32.515625 9.078125 
Q 36.328125 11.28125 38.03125 14.796875 
L 38.03125 25.640625 
L 30.953125 25.640625 
Q 14.359375 25.640625 14.359375 15.921875 
Q 14.359375 11.671875 17.1875 9.28125 
Q 20.015625 6.890625 24.46875 6.890625 
z
" id="Roboto-Regular-97"/>
       <path d="M 19.09375 65.625 
L 19.09375 52.828125 
L 28.953125 52.828125 
L 28.953125 45.84375 
L 19.09375 45.84375 
L 19.09375 13.09375 
Q 19.09375 9.90625 20.40625 8.3125 
Q 21.734375 6.734375 24.90625 6.734375 
Q 26.46875 6.734375 29.203125 7.328125 
L 29.203125 0 
Q 25.640625 -0.984375 22.265625 -0.984375 
Q 16.21875 -0.984375 13.140625 2.671875 
Q 10.0625 6.34375 10.0625 13.09375 
L 10.0625 45.84375 
L 0.4375 45.84375 
L 0.4375 52.828125 
L 10.0625 52.828125 
L 10.0625 65.625 
z
" id="Roboto-Regular-116"/>
       <path d="M 28.765625 -0.984375 
Q 18.015625 -0.984375 11.28125 6.078125 
Q 4.546875 13.140625 4.546875 24.953125 
L 4.546875 26.609375 
Q 4.546875 34.46875 7.546875 40.640625 
Q 10.546875 46.828125 15.9375 50.3125 
Q 21.34375 53.8125 27.640625 53.8125 
Q 37.9375 53.8125 43.640625 47.015625 
Q 49.359375 40.234375 49.359375 27.59375 
L 49.359375 23.828125 
L 13.578125 23.828125 
Q 13.765625 16.015625 18.140625 11.203125 
Q 22.515625 6.390625 29.25 6.390625 
Q 34.03125 6.390625 37.34375 8.34375 
Q 40.671875 10.296875 43.171875 13.53125 
L 48.6875 9.234375 
Q 42.046875 -0.984375 28.765625 -0.984375 
z
M 27.640625 46.390625 
Q 22.171875 46.390625 18.453125 42.40625 
Q 14.75 38.421875 13.875 31.25 
L 40.328125 31.25 
L 40.328125 31.9375 
Q 39.9375 38.8125 36.609375 42.59375 
Q 33.296875 46.390625 27.640625 46.390625 
z
" id="Roboto-Regular-101"/>
      </defs>
      <use xlink:href="#Roboto-Regular-100"/>
      <use x="56.396484" xlink:href="#Roboto-Regular-97"/>
      <use x="110.791016" xlink:href="#Roboto-Regular-116"/>
      <use x="143.457031" xlink:href="#Roboto-Regular-101"/>
     </g>
    </g>
   </g>
   <g id="matplotlib.axis_2">
    <g id="ytick_1">
     <g id="line2d_60">
      <defs>
       <path d="M 0 0 
L -3.5 0 
" id="m5a8c621ce9" style="stroke:#000000;stroke-width:0.8;"/>
      </defs>
      <g>
       <use style="stroke:#000000;stroke-width:0.8;" x="36.9375" xlink:href="#m5a8c621ce9" y="239.154545"/>
      </g>
     </g>
     <g id="text_13">
      <!-- 0 -->
      <g transform="translate(24.253125 242.904545)scale(0.1 -0.1)">
       <use xlink:href="#Roboto-Medium-48"/>
      </g>
     </g>
    </g>
    <g id="ytick_2">
     <g id="line2d_61">
      <g>
       <use style="stroke:#000000;stroke-width:0.8;" x="36.9375" xlink:href="#m5a8c621ce9" y="200.406128"/>
      </g>
     </g>
     <g id="text_14">
      <!-- 1000 -->
      <g transform="translate(7.2 204.156128)scale(0.1 -0.1)">
       <use xlink:href="#Roboto-Medium-49"/>
       <use x="56.835938" xlink:href="#Roboto-Medium-48"/>
       <use x="113.671875" xlink:href="#Roboto-Medium-48"/>
       <use x="170.507812" xlink:href="#Roboto-Medium-48"/>
      </g>
     </g>
    </g>
    <g id="ytick_3">
     <g id="line2d_62">
      <g>
       <use style="stroke:#000000;stroke-width:0.8;" x="36.9375" xlink:href="#m5a8c621ce9" y="161.65771"/>
      </g>
     </g>
     <g id="text_15">
      <!-- 2000 -->
      <g transform="translate(7.2 165.40771)scale(0.1 -0.1)">
       <use xlink:href="#Roboto-Medium-50"/>
       <use x="56.835938" xlink:href="#Roboto-Medium-48"/>
       <use x="113.671875" xlink:href="#Roboto-Medium-48"/>
       <use x="170.507812" xlink:href="#Roboto-Medium-48"/>
      </g>
     </g>
    </g>
    <g id="ytick_4">
     <g id="line2d_63">
      <g>
       <use style="stroke:#000000;stroke-width:0.8;" x="36.9375" xlink:href="#m5a8c621ce9" y="122.909293"/>
      </g>
     </g>
     <g id="text_16">
      <!-- 3000 -->
      <g transform="translate(7.2 126.659293)scale(0.1 -0.1)">
       <defs>
        <path d="M 19.046875 40.96875 
L 26.265625 40.96875 
Q 31.734375 41.015625 34.9375 43.796875 
Q 38.140625 46.578125 38.140625 51.859375 
Q 38.140625 56.9375 35.46875 59.734375 
Q 32.8125 62.546875 27.34375 62.546875 
Q 22.5625 62.546875 19.484375 59.78125 
Q 16.40625 57.03125 16.40625 52.59375 
L 4.546875 52.59375 
Q 4.546875 58.0625 7.453125 62.546875 
Q 10.359375 67.046875 15.546875 69.5625 
Q 20.75 72.078125 27.203125 72.078125 
Q 37.84375 72.078125 43.921875 66.71875 
Q 50 61.375 50 51.859375 
Q 50 47.078125 46.9375 42.84375 
Q 43.890625 38.625 39.0625 36.46875 
Q 44.921875 34.46875 47.96875 30.171875 
Q 51.03125 25.875 51.03125 19.921875 
Q 51.03125 10.359375 44.453125 4.6875 
Q 37.890625 -0.984375 27.203125 -0.984375 
Q 16.9375 -0.984375 10.390625 4.484375 
Q 3.859375 9.96875 3.859375 19.046875 
L 15.71875 19.046875 
Q 15.71875 14.359375 18.859375 11.421875 
Q 22.015625 8.5 27.34375 8.5 
Q 32.859375 8.5 36.03125 11.421875 
Q 39.203125 14.359375 39.203125 19.921875 
Q 39.203125 25.53125 35.875 28.5625 
Q 32.5625 31.59375 26.03125 31.59375 
L 19.046875 31.59375 
z
" id="Roboto-Medium-51"/>
       </defs>
       <use xlink:href="#Roboto-Medium-51"/>
       <use x="56.835938" xlink:href="#Roboto-Medium-48"/>
       <use x="113.671875" xlink:href="#Roboto-Medium-48"/>
       <use x="170.507812" xlink:href="#Roboto-Medium-48"/>
      </g>
     </g>
    </g>
    <g id="ytick_5">
     <g id="line2d_64">
      <g>
       <use style="stroke:#000000;stroke-width:0.8;" x="36.9375" xlink:href="#m5a8c621ce9" y="84.160875"/>
      </g>
     </g>
     <g id="text_17">
      <!-- 4000 -->
      <g transform="translate(7.2 87.910875)scale(0.1 -0.1)">
       <defs>
        <path d="M 45.453125 25.34375 
L 54.296875 25.34375 
L 54.296875 15.828125 
L 45.453125 15.828125 
L 45.453125 0 
L 33.59375 0 
L 33.59375 15.828125 
L 2.875 15.828125 
L 2.546875 23.046875 
L 33.203125 71.09375 
L 45.453125 71.09375 
z
M 14.984375 25.34375 
L 33.59375 25.34375 
L 33.59375 55.03125 
L 32.71875 53.46875 
z
" id="Roboto-Medium-52"/>
       </defs>
       <use xlink:href="#Roboto-Medium-52"/>
       <use x="56.835938" xlink:href="#Roboto-Medium-48"/>
       <use x="113.671875" xlink:href="#Roboto-Medium-48"/>
       <use x="170.507812" xlink:href="#Roboto-Medium-48"/>
      </g>
     </g>
    </g>
    <g id="ytick_6">
     <g id="line2d_65">
      <g>
       <use style="stroke:#000000;stroke-width:0.8;" x="36.9375" xlink:href="#m5a8c621ce9" y="45.412458"/>
      </g>
     </g>
     <g id="text_18">
      <!-- 5000 -->
      <g transform="translate(7.2 49.162458)scale(0.1 -0.1)">
       <defs>
        <path d="M 8.5 35.25 
L 12.359375 71.09375 
L 50.53125 71.09375 
L 50.53125 60.84375 
L 22.21875 60.84375 
L 20.265625 43.84375 
Q 25.203125 46.6875 31.390625 46.6875 
Q 41.546875 46.6875 47.1875 40.1875 
Q 52.828125 33.6875 52.828125 22.703125 
Q 52.828125 11.859375 46.578125 5.4375 
Q 40.328125 -0.984375 29.4375 -0.984375 
Q 19.671875 -0.984375 13.25 4.5625 
Q 6.84375 10.109375 6.296875 19.1875 
L 17.78125 19.1875 
Q 18.453125 14.015625 21.484375 11.25 
Q 24.515625 8.5 29.390625 8.5 
Q 34.859375 8.5 37.90625 12.40625 
Q 40.96875 16.3125 40.96875 23.046875 
Q 40.96875 29.546875 37.59375 33.328125 
Q 34.234375 37.109375 28.328125 37.109375 
Q 25.09375 37.109375 22.84375 36.25 
Q 20.609375 35.40625 17.96875 32.90625 
z
" id="Roboto-Medium-53"/>
       </defs>
       <use xlink:href="#Roboto-Medium-53"/>
       <use x="56.835938" xlink:href="#Roboto-Medium-48"/>
       <use x="113.671875" xlink:href="#Roboto-Medium-48"/>
       <use x="170.507812" xlink:href="#Roboto-Medium-48"/>
      </g>
     </g>
    </g>
   </g>
   <g id="line2d_66">
    <path clip-path="url(#p45e4fe5cd7)" d="M 38.101164 238.767061 
L 39.264827 238.379577 
L 40.428491 237.837099 
L 41.592155 238.224583 
L 42.755818 238.263332 
L 43.919482 237.372118 
L 45.083146 236.907137 
L 46.246809 237.255873 
L 49.7378 232.799805 
L 50.901464 230.784887 
L 52.065128 229.389944 
L 53.228791 225.592599 
L 54.392455 230.281158 
L 55.556119 222.763965 
L 56.719782 227.840008 
L 57.883446 220.942789 
L 59.04711 220.632802 
L 60.210773 218.772878 
L 61.374437 229.234951 
L 62.538101 218.811626 
L 63.701764 221.524015 
L 64.865428 226.173826 
L 66.029092 222.221487 
L 67.192755 223.577682 
L 68.356419 221.40777 
L 69.520083 227.53002 
L 70.683746 223.61643 
L 71.84741 229.351196 
L 73.011074 225.398857 
L 74.174737 229.118705 
L 75.338401 219.857834 
L 76.502065 230.591145 
L 77.665728 227.181284 
L 78.829392 227.413775 
L 79.993056 223.693927 
L 81.156719 235.395949 
L 82.320383 222.298984 
L 83.484047 226.05758 
L 84.64771 236.09342 
L 85.811374 225.747593 
L 86.975038 230.668642 
L 88.138701 229.041208 
L 89.302365 235.434697 
L 90.466029 233.846012 
L 91.629692 226.56131 
L 92.793356 229.73868 
L 93.95702 233.613522 
L 95.120683 226.871297 
L 96.284347 234.039754 
L 97.448011 233.458528 
L 98.611674 230.862384 
L 99.775338 236.09342 
L 100.939002 232.296076 
L 102.102665 232.722308 
L 103.266329 232.954799 
L 104.429992 230.70739 
L 105.593656 235.938427 
L 106.75732 228.537479 
L 107.920983 228.731221 
L 109.084647 225.398857 
L 110.248311 227.840008 
L 111.411974 231.172371 
L 112.575638 236.132169 
L 113.739302 235.589691 
L 114.902965 226.251322 
L 116.066629 233.148541 
L 117.230293 232.489818 
L 118.393956 233.303534 
L 119.55762 231.559856 
L 121.884947 236.945886 
L 123.048611 232.528566 
L 124.212275 229.661183 
L 125.375938 231.986088 
L 126.539602 232.412321 
L 127.703266 233.768515 
L 128.866929 235.86093 
L 130.030593 230.164913 
L 131.194257 226.638807 
L 132.35792 228.421234 
L 133.521584 229.73868 
L 134.685248 229.544938 
L 135.848911 231.056126 
L 137.012575 230.4749 
L 138.176239 227.646265 
L 139.339902 228.653724 
L 140.503566 226.600058 
L 141.66723 209.667 
L 142.830893 228.149995 
L 143.994557 228.304989 
L 145.158221 218.075406 
L 146.321884 218.540387 
L 147.485548 216.641715 
L 148.649212 218.927871 
L 149.812875 211.875659 
L 150.976539 211.643169 
L 152.140203 221.756506 
L 153.303866 216.564218 
L 154.46753 202.07231 
L 155.631194 204.862196 
L 156.794857 179.79197 
L 157.958521 186.224207 
L 159.122185 155.767951 
L 160.285848 180.721932 
L 161.449512 177.234574 
L 162.613176 194.942601 
L 163.776839 149.878191 
L 164.940503 159.875283 
L 166.104167 145.460872 
L 167.26783 150.730657 
L 168.431494 162.39393 
L 169.595158 159.100315 
L 170.758821 126.16416 
L 171.922485 162.16144 
L 173.086149 146.933312 
L 174.249812 141.237294 
L 175.413476 100.590204 
L 176.57714 112.485968 
L 177.740803 158.170353 
L 178.904467 141.741024 
L 180.068131 118.724464 
L 181.231794 144.53091 
L 182.395458 116.748294 
L 183.559122 114.694628 
L 184.722785 130.775222 
L 185.886449 141.431036 
L 187.050113 131.123957 
L 188.213776 133.642604 
L 189.37744 108.882366 
L 190.541104 106.479964 
L 191.704767 126.745386 
L 192.868431 139.958597 
L 194.032095 121.475601 
L 195.195758 131.007712 
L 196.359422 131.705184 
L 197.523086 140.501074 
L 198.686749 132.790139 
L 199.850413 181.690642 
L 201.014077 202.188555 
L 202.17774 195.95006 
L 203.341404 193.043929 
L 204.505068 172.19728 
L 205.668731 172.042286 
L 206.832395 169.097407 
L 207.996059 190.951514 
L 209.159722 194.128884 
L 210.323386 180.76068 
L 211.48705 78.697348 
L 212.650713 172.778506 
L 213.814377 174.134701 
L 214.978041 171.538557 
L 216.141704 204.28097 
L 217.305368 211.294433 
L 218.469032 201.801071 
L 219.632695 196.415041 
L 220.796359 197.732487 
L 221.960023 194.865104 
L 223.123686 203.932234 
L 225.451014 214.898036 
L 226.614677 209.202019 
L 227.778341 210.093232 
L 228.942005 215.05303 
L 230.105668 213.541841 
L 231.269332 215.130527 
L 232.432995 218.96662 
L 233.596659 225.553851 
L 234.760323 155.884196 
L 235.923986 225.941335 
L 237.08765 216.75796 
L 238.251314 220.129072 
L 239.414977 217.881664 
L 240.578641 225.786341 
L 241.742305 228.537479 
L 242.905968 224.081411 
L 244.069632 223.38394 
L 245.233296 221.291525 
L 246.396959 220.516557 
L 247.560623 223.073952 
L 248.724287 227.685014 
L 249.88795 230.901133 
L 251.051614 224.081411 
L 252.215278 221.369022 
L 253.378941 221.795254 
L 254.542605 224.236405 
L 255.706269 218.385394 
L 256.869932 225.011373 
L 258.033596 228.614976 
L 259.19726 225.127618 
L 260.360923 225.011373 
L 261.524587 223.965166 
L 262.688251 219.664091 
L 263.851914 224.856379 
L 265.015578 228.227492 
L 266.179242 237.604609 
L 267.342905 215.130527 
L 268.506569 226.987542 
L 269.670233 220.477808 
L 270.833896 219.431601 
L 271.99756 220.361563 
L 273.161224 226.406316 
L 274.324887 231.676101 
L 275.488551 221.679009 
L 276.652215 222.453977 
L 277.815878 222.066493 
L 278.979542 224.003914 
L 280.143206 239.154545 
L 281.306869 200.173637 
L 282.470533 228.343737 
L 283.634197 222.105242 
L 284.79786 222.337732 
L 285.961524 218.307897 
L 287.125188 218.617884 
L 288.288851 217.687922 
L 290.616179 224.740134 
L 291.779842 217.455432 
L 292.943506 225.282612 
L 294.10717 206.102145 
L 295.270833 219.005368 
L 296.434497 215.28552 
L 297.598161 227.181284 
L 298.761824 216.641715 
L 299.925488 210.984446 
L 301.089152 210.248226 
L 302.252815 213.07686 
L 303.416479 204.939693 
L 304.580143 226.018832 
L 305.743806 203.583498 
L 306.90747 202.421046 
L 308.071134 205.094686 
L 309.234797 212.185647 
L 310.398461 185.061755 
L 312.725788 207.845824 
L 313.889452 172.894751 
L 315.053116 218.889123 
L 316.216779 223.887669 
L 317.380443 211.333182 
L 318.544107 192.462702 
L 319.70777 166.462514 
L 320.871434 193.160174 
L 322.035098 146.73957 
L 323.198761 200.018644 
L 324.362425 166.230024 
L 325.526089 173.863462 
L 326.689752 163.788873 
L 327.853416 158.131604 
L 329.01708 163.982615 
L 330.180743 171.499808 
L 331.344407 181.070668 
L 332.508071 167.392476 
L 333.671734 157.0079 
L 334.835398 239.154545 
L 335.999062 93.770483 
L 337.162725 182.349365 
L 338.326389 160.727748 
L 339.490053 163.13015 
L 340.653716 156.116687 
L 341.81738 150.304424 
L 342.981044 151.815612 
L 344.144707 142.089759 
L 345.308371 152.435587 
L 346.472035 161.696459 
L 347.635698 161.115232 
L 348.799362 167.431225 
L 349.963026 156.697913 
L 351.126689 152.35809 
L 352.290353 157.0079 
L 353.454017 159.371554 
L 354.61768 146.352085 
L 356.945008 155.457964 
L 359.272335 139.106131 
L 360.435998 143.79469 
L 361.599662 146.855815 
L 362.763326 160.92149 
L 363.926989 150.14943 
L 365.090653 149.064475 
L 366.254317 152.241845 
L 367.41798 149.91694 
L 368.581644 239.154545 
L 369.745308 108.301139 
L 370.908971 175.452147 
L 372.072635 159.449051 
L 373.236299 129.690266 
L 374.399962 132.673894 
L 375.563626 125.350443 
L 376.72729 239.154545 
L 377.890953 33.245455 
L 379.054617 179.210743 
L 380.218281 141.314791 
L 381.381944 109.463592 
L 382.545608 117.639508 
L 383.709272 108.456133 
L 384.872935 105.859989 
L 386.036599 134.340076 
L 387.200263 148.212009 
L 388.363926 158.015359 
L 389.52759 124.92421 
L 390.691254 139.648609 
L 391.854917 141.043552 
L 393.018581 135.115044 
L 394.182245 145.848356 
L 395.345908 146.00335 
L 396.509572 167.702463 
L 397.673236 166.501263 
L 398.836899 150.536914 
L 400.000563 155.729202 
L 401.164227 150.071933 
L 402.32789 148.715739 
L 403.491554 170.841085 
L 404.655218 160.495258 
L 406.982545 180.179454 
L 408.146209 161.502717 
L 409.309872 161.270226 
L 410.473536 142.089759 
L 411.6372 181.884384 
L 412.800863 188.665357 
L 413.964527 165.571301 
L 415.128191 191.493992 
L 416.291854 183.085585 
L 417.455518 133.875095 
L 418.619182 182.194372 
L 419.782845 184.325535 
L 420.946509 186.069213 
L 422.110173 182.814346 
L 424.4375 177.970794 
L 424.4375 177.970794 
" style="fill:none;stroke:#000000;stroke-dasharray:1.5,2.475;stroke-dashoffset:0;stroke-opacity:0.5;stroke-width:1.5;"/>
   </g>
   <g id="line2d_67">
    <path clip-path="url(#p45e4fe5cd7)" d="M 36.9375 238.379577 
L 40.428491 238.185835 
L 42.755818 237.759602 
L 43.919482 237.410867 
L 45.083146 236.945886 
L 46.246809 236.170917 
L 47.410473 235.163458 
L 48.574137 233.962258 
L 49.7378 232.373572 
L 50.901464 231.133623 
L 52.065128 229.428693 
L 53.228791 228.343737 
L 56.719782 223.965166 
L 57.883446 223.848921 
L 59.04711 222.608971 
L 60.210773 222.376481 
L 61.374437 222.260235 
L 64.865428 223.151449 
L 66.029092 223.073952 
L 67.192755 223.693927 
L 68.356419 224.546392 
L 69.520083 224.778883 
L 70.683746 225.747593 
L 71.84741 225.592599 
L 73.011074 226.406316 
L 74.174737 226.406316 
L 75.338401 226.7938 
L 76.502065 226.290071 
L 77.665728 227.336278 
L 78.829392 226.987542 
L 81.156719 228.072498 
L 82.320383 228.149995 
L 85.811374 229.428693 
L 86.975038 230.862384 
L 88.138701 231.056126 
L 89.302365 230.552397 
L 90.466029 231.288617 
L 91.629692 230.823636 
L 92.793356 231.094875 
L 93.95702 230.939881 
L 95.120683 230.901133 
L 96.284347 232.024837 
L 97.448011 232.451069 
L 98.611674 232.567314 
L 99.775338 233.187289 
L 100.939002 232.838553 
L 102.102665 233.032295 
L 103.266329 232.722308 
L 106.75732 230.048667 
L 107.920983 229.506189 
L 111.411974 230.4749 
L 113.739302 232.024837 
L 114.902965 232.489818 
L 117.230293 232.257327 
L 118.393956 232.644811 
L 119.55762 233.458528 
L 120.721284 233.187289 
L 121.884947 233.071044 
L 123.048611 232.838553 
L 124.212275 232.838553 
L 125.375938 232.954799 
L 127.703266 231.94734 
L 128.866929 231.598604 
L 132.35792 229.816177 
L 133.521584 229.351196 
L 134.685248 229.273699 
L 135.848911 229.506189 
L 137.012575 229.234951 
L 138.176239 226.910046 
L 140.503566 225.08887 
L 141.66723 223.61643 
L 142.830893 222.531474 
L 143.994557 221.17528 
L 145.158221 220.245318 
L 146.321884 219.896582 
L 147.485548 217.571677 
L 148.649212 216.52547 
L 149.812875 216.254231 
L 152.140203 212.960615 
L 154.46753 203.893485 
L 155.631194 195.833815 
L 156.794857 188.781603 
L 157.958521 182.698101 
L 159.122185 180.721932 
L 160.285848 175.413399 
L 161.449512 173.010997 
L 162.613176 168.206193 
L 163.776839 165.610049 
L 164.940503 161.580214 
L 166.104167 158.441592 
L 167.26783 151.544373 
L 168.431494 152.164348 
L 169.595158 150.691908 
L 170.758821 149.800695 
L 171.922485 143.79469 
L 173.086149 136.742478 
L 174.249812 134.533818 
L 175.413476 134.805057 
L 176.57714 130.542731 
L 177.740803 131.007712 
L 178.904467 129.922756 
L 180.068131 130.968964 
L 181.231794 131.04646 
L 182.395458 128.527813 
L 183.559122 127.830342 
L 184.722785 129.729014 
L 185.886449 127.016625 
L 187.050113 125.699179 
L 189.37744 124.962959 
L 190.541104 122.948041 
L 191.704767 123.529267 
L 192.868431 124.575475 
L 194.032095 128.721555 
L 195.195758 131.860177 
L 196.359422 137.943679 
L 197.523086 146.73957 
L 199.850413 169.097407 
L 201.014077 177.002084 
L 202.17774 181.923133 
L 203.341404 184.635522 
L 204.505068 183.70556 
L 205.668731 182.078126 
L 206.832395 180.954422 
L 207.996059 169.833626 
L 210.323386 164.408848 
L 211.48705 162.587672 
L 212.650713 163.982615 
L 213.814377 168.981161 
L 214.978041 176.498354 
L 216.141704 191.261501 
L 217.305368 195.485079 
L 219.632695 201.026103 
L 220.796359 201.142348 
L 221.960023 201.956065 
L 223.123686 203.738492 
L 226.614677 211.023194 
L 230.105668 215.130527 
L 231.269332 210.131981 
L 232.432995 210.131981 
L 233.596659 209.279516 
L 234.760323 209.550754 
L 235.923986 210.325723 
L 237.08765 212.340641 
L 238.251314 214.859288 
L 239.414977 222.415229 
L 240.578641 222.686468 
L 241.742305 223.461436 
L 242.905968 223.500185 
L 244.069632 223.693927 
L 245.233296 223.61643 
L 248.724287 224.58514 
L 251.051614 224.856379 
L 252.215278 223.965166 
L 253.378941 223.267694 
L 254.542605 223.035204 
L 255.706269 223.38394 
L 256.869932 224.081411 
L 258.033596 224.546392 
L 259.19726 224.197656 
L 260.360923 224.58514 
L 261.524587 224.662637 
L 262.688251 225.670096 
L 263.851914 225.205115 
L 265.015578 225.592599 
L 266.179242 225.32136 
L 267.342905 224.895128 
L 268.506569 223.810172 
L 269.670233 223.073952 
L 270.833896 222.64772 
L 271.99756 223.655178 
L 273.161224 223.577682 
L 275.488551 224.275153 
L 276.652215 225.980083 
L 277.815878 223.500185 
L 278.979542 222.841462 
L 280.143206 222.686468 
L 281.306869 222.415229 
L 282.470533 221.795254 
L 283.634197 221.020286 
L 284.79786 219.082865 
L 285.961524 220.865292 
L 287.125188 220.322815 
L 288.288851 219.974079 
L 289.452515 220.477808 
L 290.616179 219.431601 
L 291.779842 219.082865 
L 292.943506 218.346645 
L 294.10717 218.540387 
L 295.270833 217.842916 
L 296.434497 217.377935 
L 297.598161 215.982992 
L 298.761824 216.254231 
L 299.925488 214.200565 
L 301.089152 214.471803 
L 302.252815 212.146898 
L 303.416479 210.713207 
L 304.580143 209.783245 
L 305.743806 209.434509 
L 306.90747 206.179642 
L 308.071134 204.087228 
L 309.234797 201.529832 
L 310.398461 197.964978 
L 311.562125 198.584952 
L 312.725788 200.638618 
L 313.889452 202.111058 
L 315.053116 204.242221 
L 317.380443 199.049933 
L 319.70777 188.394118 
L 320.871434 180.954422 
L 322.035098 176.498354 
L 323.198761 173.553475 
L 324.362425 172.003538 
L 325.526089 168.438683 
L 326.689752 169.562388 
L 327.853416 167.431225 
L 329.01708 168.051199 
L 330.180743 167.04374 
L 331.344407 175.180908 
L 332.508071 170.414853 
L 333.671734 171.073576 
L 334.835398 168.903664 
L 335.999062 166.036282 
L 338.326389 161.890201 
L 339.490053 153.908027 
L 340.653716 157.666623 
L 341.81738 153.481794 
L 342.981044 152.900568 
L 344.144707 152.823071 
L 346.472035 156.542919 
L 347.635698 157.472881 
L 348.799362 158.98407 
L 349.963026 159.255308 
L 351.126689 157.240391 
L 353.454017 153.946775 
L 354.61768 152.745574 
L 358.108671 147.127054 
L 359.272335 148.134513 
L 360.435998 148.328255 
L 361.599662 148.328255 
L 362.763326 149.490707 
L 363.926989 150.88565 
L 365.090653 160.882742 
L 366.254317 159.487799 
L 367.41798 161.890201 
L 368.581644 163.478886 
L 369.745308 161.076484 
L 370.908971 156.930403 
L 372.072635 151.079392 
L 373.236299 150.304424 
L 374.399962 143.639696 
L 375.563626 142.477244 
L 376.72729 140.772313 
L 377.890953 138.331163 
L 379.054617 135.076296 
L 380.218281 130.736473 
L 381.381944 117.252024 
L 382.545608 124.769217 
L 383.709272 121.049369 
L 384.872935 124.536726 
L 388.363926 137.67244 
L 389.52759 140.462326 
L 390.691254 140.966055 
L 391.854917 140.578571 
L 393.018581 142.438495 
L 394.182245 148.018267 
L 396.509572 153.675536 
L 397.673236 155.729202 
L 398.836899 155.729202 
L 400.000563 157.317888 
L 401.164227 156.620416 
L 402.32789 157.74412 
L 403.491554 161.890201 
L 405.818881 165.958785 
L 406.982545 165.028823 
L 408.146209 165.183816 
L 409.309872 167.586218 
L 410.473536 167.663715 
L 411.6372 170.066117 
L 412.800863 174.057204 
L 413.964527 172.584764 
L 415.128191 175.297153 
L 416.291854 174.444688 
L 417.455518 174.134701 
L 418.619182 176.265864 
L 419.782845 176.420857 
L 420.946509 177.505813 
L 422.110173 182.388114 
L 423.273836 182.00063 
L 424.4375 181.303158 
L 424.4375 181.303158 
" style="fill:none;stroke:#b3220f;stroke-linecap:square;stroke-width:1.5;"/>
   </g>
   <g id="patch_3">
    <path d="M 36.9375 249.45 
L 36.9375 22.95 
" style="fill:none;stroke:#000000;stroke-linecap:square;stroke-linejoin:miter;stroke-width:0.8;"/>
   </g>
   <g id="patch_4">
    <path d="M 424.4375 249.45 
L 424.4375 22.95 
" style="fill:none;stroke:#000000;stroke-linecap:square;stroke-linejoin:miter;stroke-width:0.8;"/>
   </g>
   <g id="patch_5">
    <path d="M 36.9375 249.45 
L 424.4375 249.45 
" style="fill:none;stroke:#000000;stroke-linecap:square;stroke-linejoin:miter;stroke-width:0.8;"/>
   </g>
   <g id="patch_6">
    <path d="M 36.9375 22.95 
L 424.4375 22.95 
" style="fill:none;stroke:#000000;stroke-linecap:square;stroke-linejoin:miter;stroke-width:0.8;"/>
   </g>
   <g id="text_19">
    <!-- Miami-Dade | New Cases per Day as of [2021-02-11] -->
    <g transform="translate(92.832813 16.95)scale(0.12 -0.12)">
     <defs>
      <path d="M 20.359375 71.09375 
L 43.609375 13.09375 
L 66.84375 71.09375 
L 79 71.09375 
L 79 0 
L 69.625 0 
L 69.625 27.6875 
L 70.515625 57.5625 
L 47.171875 0 
L 39.984375 0 
L 16.703125 57.421875 
L 17.625 27.6875 
L 17.625 0 
L 8.25 0 
L 8.25 71.09375 
z
" id="Roboto-Regular-77"/>
      <path d="M 16.65625 0 
L 7.625 0 
L 7.625 52.828125 
L 16.65625 52.828125 
z
M 6.890625 66.84375 
Q 6.890625 69.046875 8.234375 70.5625 
Q 9.578125 72.078125 12.203125 72.078125 
Q 14.84375 72.078125 16.203125 70.5625 
Q 17.578125 69.046875 17.578125 66.84375 
Q 17.578125 64.65625 16.203125 63.1875 
Q 14.84375 61.71875 12.203125 61.71875 
Q 9.578125 61.71875 8.234375 63.1875 
Q 6.890625 64.65625 6.890625 66.84375 
z
" id="Roboto-Regular-105"/>
      <path d="M 15.328125 52.828125 
L 15.578125 46.96875 
Q 21.390625 53.8125 31.25 53.8125 
Q 42.328125 53.8125 46.34375 45.3125 
Q 48.96875 49.125 53.1875 51.46875 
Q 57.421875 53.8125 63.1875 53.8125 
Q 80.5625 53.8125 80.859375 35.40625 
L 80.859375 0 
L 71.828125 0 
L 71.828125 34.859375 
Q 71.828125 40.53125 69.234375 43.328125 
Q 66.65625 46.140625 60.546875 46.140625 
Q 55.515625 46.140625 52.1875 43.140625 
Q 48.875 40.140625 48.34375 35.0625 
L 48.34375 0 
L 39.265625 0 
L 39.265625 34.625 
Q 39.265625 46.140625 27.984375 46.140625 
Q 19.09375 46.140625 15.828125 38.578125 
L 15.828125 0 
L 6.78125 0 
L 6.78125 52.828125 
z
" id="Roboto-Regular-109"/>
      <path d="M 25.640625 26.515625 
L 1.8125 26.515625 
L 1.8125 33.890625 
L 25.640625 33.890625 
z
" id="Roboto-Regular-45"/>
      <path d="M 8.25 0 
L 8.25 71.09375 
L 28.328125 71.09375 
Q 37.59375 71.09375 44.71875 66.984375 
Q 51.859375 62.890625 55.734375 55.3125 
Q 59.625 47.75 59.671875 37.9375 
L 59.671875 33.40625 
Q 59.671875 23.34375 55.78125 15.765625 
Q 51.90625 8.203125 44.703125 4.140625 
Q 37.5 0.09375 27.9375 0 
z
M 17.625 63.375 
L 17.625 7.671875 
L 27.484375 7.671875 
Q 38.328125 7.671875 44.359375 14.40625 
Q 50.390625 21.140625 50.390625 33.59375 
L 50.390625 37.75 
Q 50.390625 49.859375 44.703125 56.5625 
Q 39.015625 63.28125 28.5625 63.375 
z
" id="Roboto-Regular-68"/>
      <path id="Roboto-Regular-32"/>
      <path d="M 15.828125 -13.1875 
L 8.546875 -13.1875 
L 8.546875 71.09375 
L 15.828125 71.09375 
z
" id="Roboto-Regular-124"/>
      <path d="M 62.890625 0 
L 53.46875 0 
L 17.671875 54.78125 
L 17.671875 0 
L 8.25 0 
L 8.25 71.09375 
L 17.671875 71.09375 
L 53.5625 16.0625 
L 53.5625 71.09375 
L 62.890625 71.09375 
z
" id="Roboto-Regular-78"/>
      <path d="M 53.609375 12.453125 
L 63.765625 52.828125 
L 72.796875 52.828125 
L 57.421875 0 
L 50.09375 0 
L 37.25 40.046875 
L 24.75 0 
L 17.4375 0 
L 2.09375 52.828125 
L 11.078125 52.828125 
L 21.484375 13.28125 
L 33.796875 52.828125 
L 41.0625 52.828125 
z
" id="Roboto-Regular-119"/>
      <path d="M 60.546875 22.5625 
Q 59.234375 11.28125 52.21875 5.140625 
Q 45.21875 -0.984375 33.59375 -0.984375 
Q 21 -0.984375 13.40625 8.046875 
Q 5.8125 17.09375 5.8125 32.234375 
L 5.8125 39.0625 
Q 5.8125 48.96875 9.34375 56.484375 
Q 12.890625 64.015625 19.375 68.046875 
Q 25.875 72.078125 34.421875 72.078125 
Q 45.75 72.078125 52.578125 65.75 
Q 59.421875 59.421875 60.546875 48.25 
L 51.125 48.25 
Q 49.90625 56.734375 45.828125 60.546875 
Q 41.75 64.359375 34.421875 64.359375 
Q 25.4375 64.359375 20.328125 57.71875 
Q 15.234375 51.078125 15.234375 38.8125 
L 15.234375 31.9375 
Q 15.234375 20.359375 20.0625 13.515625 
Q 24.90625 6.6875 33.59375 6.6875 
Q 41.40625 6.6875 45.578125 10.21875 
Q 49.75 13.765625 51.125 22.5625 
z
" id="Roboto-Regular-67"/>
      <path d="M 37.59375 14.015625 
Q 37.59375 17.671875 34.828125 19.703125 
Q 32.078125 21.734375 25.21875 23.1875 
Q 18.359375 24.65625 14.328125 26.703125 
Q 10.296875 28.765625 8.375 31.59375 
Q 6.453125 34.421875 6.453125 38.328125 
Q 6.453125 44.828125 11.9375 49.3125 
Q 17.4375 53.8125 25.984375 53.8125 
Q 34.96875 53.8125 40.546875 49.171875 
Q 46.140625 44.53125 46.140625 37.3125 
L 37.0625 37.3125 
Q 37.0625 41.015625 33.90625 43.703125 
Q 30.765625 46.390625 25.984375 46.390625 
Q 21.046875 46.390625 18.265625 44.234375 
Q 15.484375 42.09375 15.484375 38.625 
Q 15.484375 35.359375 18.0625 33.6875 
Q 20.65625 32.03125 27.421875 30.515625 
Q 34.1875 29 38.375 26.90625 
Q 42.578125 24.8125 44.59375 21.84375 
Q 46.625 18.890625 46.625 14.65625 
Q 46.625 7.5625 40.953125 3.28125 
Q 35.296875 -0.984375 26.265625 -0.984375 
Q 19.921875 -0.984375 15.03125 1.265625 
Q 10.15625 3.515625 7.390625 7.546875 
Q 4.640625 11.578125 4.640625 16.265625 
L 13.671875 16.265625 
Q 13.921875 11.71875 17.3125 9.046875 
Q 20.703125 6.390625 26.265625 6.390625 
Q 31.390625 6.390625 34.484375 8.46875 
Q 37.59375 10.546875 37.59375 14.015625 
z
" id="Roboto-Regular-115"/>
      <path d="M 51.46875 25.828125 
Q 51.46875 13.765625 45.953125 6.390625 
Q 40.4375 -0.984375 31 -0.984375 
Q 21.390625 -0.984375 15.875 5.125 
L 15.875 -20.3125 
L 6.84375 -20.3125 
L 6.84375 52.828125 
L 15.09375 52.828125 
L 15.53125 46.96875 
Q 21.046875 53.8125 30.859375 53.8125 
Q 40.375 53.8125 45.921875 46.625 
Q 51.46875 39.453125 51.46875 26.65625 
z
M 42.4375 26.859375 
Q 42.4375 35.796875 38.625 40.96875 
Q 34.8125 46.140625 28.171875 46.140625 
Q 19.96875 46.140625 15.875 38.875 
L 15.875 13.625 
Q 19.921875 6.390625 28.265625 6.390625 
Q 34.765625 6.390625 38.59375 11.546875 
Q 42.4375 16.703125 42.4375 26.859375 
z
" id="Roboto-Regular-112"/>
      <path d="M 32.375 44.734375 
Q 30.328125 45.0625 27.9375 45.0625 
Q 19.046875 45.0625 15.875 37.5 
L 15.875 0 
L 6.84375 0 
L 6.84375 52.828125 
L 15.625 52.828125 
L 15.765625 46.734375 
Q 20.21875 53.8125 28.375 53.8125 
Q 31 53.8125 32.375 53.125 
z
" id="Roboto-Regular-114"/>
      <path d="M 24.125 13.234375 
L 36.421875 52.828125 
L 46.09375 52.828125 
L 24.859375 -8.15625 
Q 19.921875 -21.34375 9.1875 -21.34375 
L 7.46875 -21.1875 
L 4.109375 -20.5625 
L 4.109375 -13.234375 
L 6.546875 -13.421875 
Q 11.140625 -13.421875 13.703125 -11.5625 
Q 16.265625 -9.71875 17.921875 -4.78125 
L 19.921875 0.59375 
L 1.078125 52.828125 
L 10.9375 52.828125 
z
" id="Roboto-Regular-121"/>
      <path d="M 4.4375 26.90625 
Q 4.4375 34.671875 7.484375 40.875 
Q 10.546875 47.078125 15.984375 50.4375 
Q 21.4375 53.8125 28.421875 53.8125 
Q 39.203125 53.8125 45.875 46.34375 
Q 52.546875 38.875 52.546875 26.46875 
L 52.546875 25.828125 
Q 52.546875 18.109375 49.578125 11.984375 
Q 46.625 5.859375 41.125 2.4375 
Q 35.640625 -0.984375 28.515625 -0.984375 
Q 17.78125 -0.984375 11.109375 6.484375 
Q 4.4375 13.96875 4.4375 26.265625 
z
M 13.53125 25.828125 
Q 13.53125 17.046875 17.609375 11.71875 
Q 21.6875 6.390625 28.515625 6.390625 
Q 35.40625 6.390625 39.453125 11.78125 
Q 43.5 17.1875 43.5 26.90625 
Q 43.5 35.59375 39.375 40.984375 
Q 35.25 46.390625 28.421875 46.390625 
Q 21.734375 46.390625 17.625 41.0625 
Q 13.53125 35.75 13.53125 25.828125 
z
" id="Roboto-Regular-111"/>
      <path d="M 11.28125 0 
L 11.28125 45.84375 
L 2.9375 45.84375 
L 2.9375 52.828125 
L 11.28125 52.828125 
L 11.28125 58.25 
Q 11.28125 66.75 15.8125 71.390625 
Q 20.359375 76.03125 28.65625 76.03125 
Q 31.78125 76.03125 34.859375 75.203125 
L 34.375 67.875 
Q 32.078125 68.3125 29.5 68.3125 
Q 25.09375 68.3125 22.703125 65.75 
Q 20.3125 63.1875 20.3125 58.40625 
L 20.3125 52.828125 
L 31.59375 52.828125 
L 31.59375 45.84375 
L 20.3125 45.84375 
L 20.3125 0 
z
" id="Roboto-Regular-102"/>
      <path d="M 25.53125 73.828125 
L 16.21875 73.828125 
L 16.21875 -7.8125 
L 25.53125 -7.8125 
L 25.53125 -15.234375 
L 7.125 -15.234375 
L 7.125 81.25 
L 25.53125 81.25 
z
" id="Roboto-Regular-91"/>
      <path d="M 52.484375 0 
L 5.90625 0 
L 5.90625 6.5 
L 30.515625 33.84375 
Q 35.984375 40.046875 38.0625 43.921875 
Q 40.140625 47.796875 40.140625 51.953125 
Q 40.140625 57.515625 36.765625 61.078125 
Q 33.40625 64.65625 27.78125 64.65625 
Q 21.046875 64.65625 17.3125 60.8125 
Q 13.578125 56.984375 13.578125 50.140625 
L 4.546875 50.140625 
Q 4.546875 59.96875 10.859375 66.015625 
Q 17.1875 72.078125 27.78125 72.078125 
Q 37.703125 72.078125 43.453125 66.875 
Q 49.21875 61.671875 49.21875 53.03125 
Q 49.21875 42.53125 35.84375 28.03125 
L 16.796875 7.375 
L 52.484375 7.375 
z
" id="Roboto-Regular-50"/>
      <path d="M 50.484375 30.328125 
Q 50.484375 14.453125 45.0625 6.734375 
Q 39.65625 -0.984375 28.125 -0.984375 
Q 16.75 -0.984375 11.28125 6.5625 
Q 5.8125 14.109375 5.609375 29.109375 
L 5.609375 41.15625 
Q 5.609375 56.84375 11.03125 64.453125 
Q 16.453125 72.078125 28.03125 72.078125 
Q 39.5 72.078125 44.921875 64.71875 
Q 50.34375 57.375 50.484375 42.046875 
z
M 41.453125 42.671875 
Q 41.453125 54.15625 38.234375 59.40625 
Q 35.015625 64.65625 28.03125 64.65625 
Q 21.09375 64.65625 17.921875 59.421875 
Q 14.75 54.203125 14.65625 43.359375 
L 14.65625 28.90625 
Q 14.65625 17.390625 18 11.890625 
Q 21.34375 6.390625 28.125 6.390625 
Q 34.8125 6.390625 38.0625 11.5625 
Q 41.3125 16.75 41.453125 27.875 
z
" id="Roboto-Regular-48"/>
      <path d="M 35.59375 0 
L 26.515625 0 
L 26.515625 60.203125 
L 8.296875 53.515625 
L 8.296875 61.71875 
L 34.1875 71.4375 
L 35.59375 71.4375 
z
" id="Roboto-Regular-49"/>
      <path d="M 0.4375 81.25 
L 18.890625 81.25 
L 18.890625 -15.234375 
L 0.4375 -15.234375 
L 0.4375 -7.8125 
L 9.859375 -7.8125 
L 9.859375 73.828125 
L 0.4375 73.828125 
z
" id="Roboto-Regular-93"/>
     </defs>
     <use xlink:href="#Roboto-Regular-77"/>
     <use x="87.304688" xlink:href="#Roboto-Regular-105"/>
     <use x="111.572266" xlink:href="#Roboto-Regular-97"/>
     <use x="165.966797" xlink:href="#Roboto-Regular-109"/>
     <use x="253.613281" xlink:href="#Roboto-Regular-105"/>
     <use x="277.880859" xlink:href="#Roboto-Regular-45"/>
     <use x="305.46875" xlink:href="#Roboto-Regular-68"/>
     <use x="371.044922" xlink:href="#Roboto-Regular-97"/>
     <use x="425.439453" xlink:href="#Roboto-Regular-100"/>
     <use x="481.835938" xlink:href="#Roboto-Regular-101"/>
     <use x="534.814453" xlink:href="#Roboto-Regular-32"/>
     <use x="559.570312" xlink:href="#Roboto-Regular-124"/>
     <use x="583.935547" xlink:href="#Roboto-Regular-32"/>
     <use x="608.691406" xlink:href="#Roboto-Regular-78"/>
     <use x="679.980469" xlink:href="#Roboto-Regular-101"/>
     <use x="732.958984" xlink:href="#Roboto-Regular-119"/>
     <use x="808.105469" xlink:href="#Roboto-Regular-32"/>
     <use x="832.861328" xlink:href="#Roboto-Regular-67"/>
     <use x="897.949219" xlink:href="#Roboto-Regular-97"/>
     <use x="952.34375" xlink:href="#Roboto-Regular-115"/>
     <use x="1003.90625" xlink:href="#Roboto-Regular-101"/>
     <use x="1056.884766" xlink:href="#Roboto-Regular-115"/>
     <use x="1108.447266" xlink:href="#Roboto-Regular-32"/>
     <use x="1133.203125" xlink:href="#Roboto-Regular-112"/>
     <use x="1189.306641" xlink:href="#Roboto-Regular-101"/>
     <use x="1242.285156" xlink:href="#Roboto-Regular-114"/>
     <use x="1276.123047" xlink:href="#Roboto-Regular-32"/>
     <use x="1300.878906" xlink:href="#Roboto-Regular-68"/>
     <use x="1366.455078" xlink:href="#Roboto-Regular-97"/>
     <use x="1420.849609" xlink:href="#Roboto-Regular-121"/>
     <use x="1468.164062" xlink:href="#Roboto-Regular-32"/>
     <use x="1492.919922" xlink:href="#Roboto-Regular-97"/>
     <use x="1547.314453" xlink:href="#Roboto-Regular-115"/>
     <use x="1598.876953" xlink:href="#Roboto-Regular-32"/>
     <use x="1623.632812" xlink:href="#Roboto-Regular-111"/>
     <use x="1680.664062" xlink:href="#Roboto-Regular-102"/>
     <use x="1715.380859" xlink:href="#Roboto-Regular-32"/>
     <use x="1740.136719" xlink:href="#Roboto-Regular-91"/>
     <use x="1766.650391" xlink:href="#Roboto-Regular-50"/>
     <use x="1822.802734" xlink:href="#Roboto-Regular-48"/>
     <use x="1878.955078" xlink:href="#Roboto-Regular-50"/>
     <use x="1935.107422" xlink:href="#Roboto-Regular-49"/>
     <use x="1991.259766" xlink:href="#Roboto-Regular-45"/>
     <use x="2018.847656" xlink:href="#Roboto-Regular-48"/>
     <use x="2075" xlink:href="#Roboto-Regular-50"/>
     <use x="2131.152344" xlink:href="#Roboto-Regular-45"/>
     <use x="2158.740234" xlink:href="#Roboto-Regular-49"/>
     <use x="2214.892578" xlink:href="#Roboto-Regular-49"/>
     <use x="2271.044922" xlink:href="#Roboto-Regular-93"/>
    </g>
   </g>
   <g id="legend_1">
    <g id="patch_7">
     <path d="M 43.9375 60.115625 
L 141.134375 60.115625 
Q 143.134375 60.115625 143.134375 58.115625 
L 143.134375 29.95 
Q 143.134375 27.95 141.134375 27.95 
L 43.9375 27.95 
Q 41.9375 27.95 41.9375 29.95 
L 41.9375 58.115625 
Q 41.9375 60.115625 43.9375 60.115625 
z
" style="fill:#ffffff;opacity:0.8;stroke:#cccccc;stroke-linejoin:miter;"/>
    </g>
    <g id="line2d_68">
     <path d="M 45.9375 35.95 
L 65.9375 35.95 
" style="fill:none;stroke:#000000;stroke-dasharray:1.5,2.475;stroke-dashoffset:0;stroke-opacity:0.5;stroke-width:1.5;"/>
    </g>
    <g id="line2d_69"/>
    <g id="text_20">
     <!-- Actual -->
     <g transform="translate(73.9375 39.45)scale(0.1 -0.1)">
      <use xlink:href="#Roboto-Medium-65"/>
      <use x="66.552734" xlink:href="#Roboto-Medium-99"/>
      <use x="118.896484" xlink:href="#Roboto-Medium-116"/>
      <use x="152.148438" xlink:href="#Roboto-Medium-117"/>
      <use x="207.714844" xlink:href="#Roboto-Medium-97"/>
      <use x="261.816406" xlink:href="#Roboto-Medium-108"/>
     </g>
    </g>
    <g id="line2d_70">
     <path d="M 45.9375 50.48125 
L 65.9375 50.48125 
" style="fill:none;stroke:#b3220f;stroke-linecap:square;stroke-width:1.5;"/>
    </g>
    <g id="line2d_71"/>
    <g id="text_21">
     <!-- 7-Day Average -->
     <g transform="translate(73.9375 53.98125)scale(0.1 -0.1)">
      <defs>
       <path d="M 52.640625 64.5 
L 24.21875 0 
L 11.765625 0 
L 40.140625 61.578125 
L 3.375 61.578125 
L 3.375 71.09375 
L 52.640625 71.09375 
z
" id="Roboto-Medium-55"/>
       <path d="M 29.109375 25.4375 
L 3.46875 25.4375 
L 3.46875 35.015625 
L 29.109375 35.015625 
z
" id="Roboto-Medium-45"/>
       <path id="Roboto-Medium-32"/>
      </defs>
      <use xlink:href="#Roboto-Medium-55"/>
      <use x="56.835938" xlink:href="#Roboto-Medium-45"/>
      <use x="89.648438" xlink:href="#Roboto-Medium-68"/>
      <use x="154.980469" xlink:href="#Roboto-Medium-97"/>
      <use x="209.082031" xlink:href="#Roboto-Medium-121"/>
      <use x="257.763672" xlink:href="#Roboto-Medium-32"/>
      <use x="282.666016" xlink:href="#Roboto-Medium-65"/>
      <use x="349.21875" xlink:href="#Roboto-Medium-118"/>
      <use x="398.681641" xlink:href="#Roboto-Medium-101"/>
      <use x="452.34375" xlink:href="#Roboto-Medium-114"/>
      <use x="487.5" xlink:href="#Roboto-Medium-97"/>
      <use x="541.601562" xlink:href="#Roboto-Medium-103"/>
      <use x="598.291016" xlink:href="#Roboto-Medium-101"/>
     </g>
    </g>
   </g>
  </g>
 </g>
 <defs>
  <clipPath id="p45e4fe5cd7">
   <rect height="226.5" width="387.5" x="36.9375" y="22.95"/>
  </clipPath>
 </defs>
</svg>
