<?xml version="1.0" encoding="utf-8" standalone="no"?>
<!DOCTYPE svg PUBLIC "-//W3C//DTD SVG 1.1//EN"
  "http://www.w3.org/Graphics/SVG/1.1/DTD/svg11.dtd">
<!-- Created with matplotlib (https://matplotlib.org/) -->
<svg height="323.655201pt" version="1.1" viewBox="0 0 445.520179 323.655201" width="445.520179pt" xmlns="http://www.w3.org/2000/svg" xmlns:xlink="http://www.w3.org/1999/xlink">
 <metadata>
  <rdf:RDF xmlns:cc="http://creativecommons.org/ns#" xmlns:dc="http://purl.org/dc/elements/1.1/" xmlns:rdf="http://www.w3.org/1999/02/22-rdf-syntax-ns#">
   <cc:Work>
    <dc:type rdf:resource="http://purl.org/dc/dcmitype/StillImage"/>
    <dc:date>2021-06-13T18:16:19.714932</dc:date>
    <dc:format>image/svg+xml</dc:format>
    <dc:creator>
     <cc:Agent>
      <dc:title>Matplotlib v3.3.4, https://matplotlib.org/</dc:title>
     </cc:Agent>
    </dc:creator>
   </cc:Work>
  </rdf:RDF>
 </metadata>
 <defs>
  <style type="text/css">*{stroke-linecap:butt;stroke-linejoin:round;}</style>
 </defs>
 <g id="figure_1">
  <g id="patch_1">
   <path d="M 0 323.655201 
L 445.520179 323.655201 
L 445.520179 0 
L 0 0 
z
" style="fill:#ffffff;"/>
  </g>
  <g id="axes_1">
   <g id="patch_2">
    <path d="M 50.90875 268.065982 
L 438.320179 268.065982 
L 438.320179 28.203125 
L 50.90875 28.203125 
z
" style="fill:#ffffff;"/>
   </g>
   <g id="matplotlib.axis_1">
    <g id="xtick_1">
     <g id="line2d_1">
      <defs>
       <path d="M 0 0 
L 0 3.5 
" id="m7fbc9bfe36" style="stroke:#555555;stroke-width:0.8;"/>
      </defs>
      <g>
       <use style="fill:#555555;stroke:#555555;stroke-width:0.8;" x="50.90875" xlink:href="#m7fbc9bfe36" y="268.065982"/>
      </g>
     </g>
    </g>
    <g id="xtick_2">
     <g id="line2d_2">
      <g>
       <use style="fill:#555555;stroke:#555555;stroke-width:0.8;" x="65.415345" xlink:href="#m7fbc9bfe36" y="268.065982"/>
      </g>
     </g>
     <g id="text_1">
      <!-- Apr -->
      <g style="fill:#555555;" transform="translate(55.184955 284.348795)scale(0.13 -0.13)">
       <defs>
        <path d="M 20.09375 29.5 
L 32.203125 62.796875 
L 32.40625 62.796875 
L 44.296875 29.5 
z
M 27.203125 71.40625 
L -0.59375 0 
L 9.09375 0 
L 17.09375 21.5 
L 47.296875 21.5 
L 55.09375 0 
L 65.59375 0 
L 37.703125 71.40625 
z
" id="HelveticaNeue-65"/>
        <path d="M 6.703125 51.703125 
L 6.703125 -19.703125 
L 15.203125 -19.703125 
L 15.203125 6.90625 
L 15.40625 6.90625 
Q 16.796875 4.59375 18.84375 3.046875 
Q 20.90625 1.5 23.203125 0.59375 
Q 25.5 -0.296875 27.84375 -0.6875 
Q 30.203125 -1.09375 32.09375 -1.09375 
Q 38 -1.09375 42.453125 1 
Q 46.90625 3.09375 49.84375 6.75 
Q 52.796875 10.40625 54.25 15.296875 
Q 55.703125 20.203125 55.703125 25.703125 
Q 55.703125 31.203125 54.203125 36.09375 
Q 52.703125 41 49.75 44.75 
Q 46.796875 48.5 42.34375 50.703125 
Q 37.90625 52.90625 31.90625 52.90625 
Q 26.5 52.90625 22 50.953125 
Q 17.5 49 15.40625 44.703125 
L 15.203125 44.703125 
L 15.203125 51.703125 
z
M 46.703125 26.296875 
Q 46.703125 22.5 45.890625 18.890625 
Q 45.09375 15.296875 43.296875 12.5 
Q 41.5 9.703125 38.546875 8 
Q 35.59375 6.296875 31.203125 6.296875 
Q 26.796875 6.296875 23.6875 7.9375 
Q 20.59375 9.59375 18.640625 12.296875 
Q 16.703125 15 15.796875 18.546875 
Q 14.90625 22.09375 14.90625 25.90625 
Q 14.90625 29.5 15.75 33 
Q 16.59375 36.5 18.5 39.25 
Q 20.40625 42 23.40625 43.703125 
Q 26.40625 45.40625 30.703125 45.40625 
Q 34.796875 45.40625 37.84375 43.796875 
Q 40.90625 42.203125 42.84375 39.5 
Q 44.796875 36.796875 45.75 33.34375 
Q 46.703125 29.90625 46.703125 26.296875 
z
" id="HelveticaNeue-112"/>
        <path d="M 6.09375 51.703125 
L 6.09375 0 
L 14.59375 0 
L 14.59375 23 
Q 14.59375 28 15.59375 31.84375 
Q 16.59375 35.703125 18.796875 38.390625 
Q 21 41.09375 24.59375 42.5 
Q 28.203125 43.90625 33.296875 43.90625 
L 33.296875 52.90625 
Q 26.40625 53.09375 21.90625 50.09375 
Q 17.40625 47.09375 14.296875 40.796875 
L 14.09375 40.796875 
L 14.09375 51.703125 
z
" id="HelveticaNeue-114"/>
       </defs>
       <use xlink:href="#HelveticaNeue-65"/>
       <use x="64.799988" xlink:href="#HelveticaNeue-112"/>
       <use x="124.099976" xlink:href="#HelveticaNeue-114"/>
      </g>
     </g>
    </g>
    <g id="xtick_3">
     <g id="line2d_3">
      <g>
       <use style="fill:#555555;stroke:#555555;stroke-width:0.8;" x="143.068297" xlink:href="#m7fbc9bfe36" y="268.065982"/>
      </g>
     </g>
     <g id="text_2">
      <!-- Jul -->
      <g style="fill:#555555;" transform="translate(134.637594 284.348795)scale(0.13 -0.13)">
       <defs>
        <path d="M 44.09375 17.796875 
L 44.09375 71.40625 
L 34.59375 71.40625 
L 34.59375 19.203125 
Q 34.59375 13.296875 32.140625 9.796875 
Q 29.703125 6.296875 23.203125 6.296875 
Q 19.703125 6.296875 17.453125 7.34375 
Q 15.203125 8.40625 13.953125 10.296875 
Q 12.703125 12.203125 12.203125 14.796875 
Q 11.703125 17.40625 11.703125 20.5 
L 11.703125 23.5 
L 2.203125 23.5 
L 2.203125 19.09375 
Q 2.203125 8.90625 7.59375 3.65625 
Q 13 -1.59375 23 -1.59375 
Q 29 -1.59375 33.046875 0.046875 
Q 37.09375 1.703125 39.546875 4.453125 
Q 42 7.203125 43.046875 10.703125 
Q 44.09375 14.203125 44.09375 17.796875 
z
" id="HelveticaNeue-74"/>
        <path d="M 49.203125 0 
L 49.203125 51.703125 
L 40.703125 51.703125 
L 40.703125 22.5 
Q 40.703125 19 39.75 16.046875 
Q 38.796875 13.09375 36.890625 10.890625 
Q 35 8.703125 32.140625 7.5 
Q 29.296875 6.296875 25.40625 6.296875 
Q 20.5 6.296875 17.703125 9.09375 
Q 14.90625 11.90625 14.90625 16.703125 
L 14.90625 51.703125 
L 6.40625 51.703125 
L 6.40625 17.703125 
Q 6.40625 13.5 7.25 10.046875 
Q 8.09375 6.59375 10.1875 4.09375 
Q 12.296875 1.59375 15.6875 0.25 
Q 19.09375 -1.09375 24.203125 -1.09375 
Q 29.90625 -1.09375 34.09375 1.15625 
Q 38.296875 3.40625 41 8.203125 
L 41.203125 8.203125 
L 41.203125 0 
z
" id="HelveticaNeue-117"/>
        <path d="M 6.90625 71.40625 
L 6.90625 0 
L 15.40625 0 
L 15.40625 71.40625 
z
" id="HelveticaNeue-108"/>
       </defs>
       <use xlink:href="#HelveticaNeue-74"/>
       <use x="51.899994" xlink:href="#HelveticaNeue-117"/>
       <use x="107.499985" xlink:href="#HelveticaNeue-108"/>
      </g>
     </g>
    </g>
    <g id="xtick_4">
     <g id="line2d_4">
      <g>
       <use style="fill:#555555;stroke:#555555;stroke-width:0.8;" x="221.574578" xlink:href="#m7fbc9bfe36" y="268.065982"/>
      </g>
     </g>
     <g id="text_3">
      <!-- Oct -->
      <g style="fill:#555555;" transform="translate(211.096374 284.348795)scale(0.13 -0.13)">
       <defs>
        <path d="M 13.296875 35.703125 
Q 13.296875 41.09375 14.6875 46.34375 
Q 16.09375 51.59375 19.09375 55.796875 
Q 22.09375 60 26.796875 62.546875 
Q 31.5 65.09375 38 65.09375 
Q 44.5 65.09375 49.203125 62.546875 
Q 53.90625 60 56.90625 55.796875 
Q 59.90625 51.59375 61.296875 46.34375 
Q 62.703125 41.09375 62.703125 35.703125 
Q 62.703125 30.296875 61.296875 25.046875 
Q 59.90625 19.796875 56.90625 15.59375 
Q 53.90625 11.40625 49.203125 8.84375 
Q 44.5 6.296875 38 6.296875 
Q 31.5 6.296875 26.796875 8.84375 
Q 22.09375 11.40625 19.09375 15.59375 
Q 16.09375 19.796875 14.6875 25.046875 
Q 13.296875 30.296875 13.296875 35.703125 
z
M 3.796875 35.703125 
Q 3.796875 28.40625 5.9375 21.65625 
Q 8.09375 14.90625 12.390625 9.703125 
Q 16.703125 4.5 23.09375 1.453125 
Q 29.5 -1.59375 38 -1.59375 
Q 46.5 -1.59375 52.890625 1.453125 
Q 59.296875 4.5 63.59375 9.703125 
Q 67.90625 14.90625 70.046875 21.65625 
Q 72.203125 28.40625 72.203125 35.703125 
Q 72.203125 43 70.046875 49.75 
Q 67.90625 56.5 63.59375 61.703125 
Q 59.296875 66.90625 52.890625 70 
Q 46.5 73.09375 38 73.09375 
Q 29.5 73.09375 23.09375 70 
Q 16.703125 66.90625 12.390625 61.703125 
Q 8.09375 56.5 5.9375 49.75 
Q 3.796875 43 3.796875 35.703125 
z
" id="HelveticaNeue-79"/>
        <path d="M 41.5 35.09375 
L 50.296875 35.09375 
Q 49.796875 39.703125 47.890625 43.046875 
Q 46 46.40625 43.046875 48.59375 
Q 40.09375 50.796875 36.25 51.84375 
Q 32.40625 52.90625 28 52.90625 
Q 21.90625 52.90625 17.296875 50.75 
Q 12.703125 48.59375 9.640625 44.84375 
Q 6.59375 41.09375 5.09375 36.046875 
Q 3.59375 31 3.59375 25.203125 
Q 3.59375 19.40625 5.140625 14.546875 
Q 6.703125 9.703125 9.75 6.203125 
Q 12.796875 2.703125 17.34375 0.796875 
Q 21.90625 -1.09375 27.796875 -1.09375 
Q 37.703125 -1.09375 43.453125 4.09375 
Q 49.203125 9.296875 50.59375 18.90625 
L 41.90625 18.90625 
Q 41.09375 12.90625 37.546875 9.59375 
Q 34 6.296875 27.703125 6.296875 
Q 23.703125 6.296875 20.796875 7.890625 
Q 17.90625 9.5 16.09375 12.140625 
Q 14.296875 14.796875 13.4375 18.1875 
Q 12.59375 21.59375 12.59375 25.203125 
Q 12.59375 29.09375 13.390625 32.75 
Q 14.203125 36.40625 16.046875 39.203125 
Q 17.90625 42 21 43.703125 
Q 24.09375 45.40625 28.703125 45.40625 
Q 34.09375 45.40625 37.296875 42.703125 
Q 40.5 40 41.5 35.09375 
z
" id="HelveticaNeue-99"/>
        <path d="M 18.203125 51.703125 
L 18.203125 67.203125 
L 9.703125 67.203125 
L 9.703125 51.703125 
L 0.90625 51.703125 
L 0.90625 44.203125 
L 9.703125 44.203125 
L 9.703125 11.296875 
Q 9.703125 7.703125 10.390625 5.5 
Q 11.09375 3.296875 12.546875 2.09375 
Q 14 0.90625 16.34375 0.453125 
Q 18.703125 0 22 0 
L 28.5 0 
L 28.5 7.5 
L 24.59375 7.5 
Q 22.59375 7.5 21.34375 7.640625 
Q 20.09375 7.796875 19.390625 8.296875 
Q 18.703125 8.796875 18.453125 9.6875 
Q 18.203125 10.59375 18.203125 12.09375 
L 18.203125 44.203125 
L 28.5 44.203125 
L 28.5 51.703125 
z
" id="HelveticaNeue-116"/>
       </defs>
       <use xlink:href="#HelveticaNeue-79"/>
       <use x="75.999985" xlink:href="#HelveticaNeue-99"/>
       <use x="129.699982" xlink:href="#HelveticaNeue-116"/>
      </g>
     </g>
    </g>
    <g id="xtick_5">
     <g id="line2d_5">
      <g>
       <use style="fill:#555555;stroke:#555555;stroke-width:0.8;" x="300.080858" xlink:href="#m7fbc9bfe36" y="268.065982"/>
      </g>
     </g>
     <g id="text_4">
      <!-- Jan -->
      <g style="fill:#555555;" transform="translate(289.602655 284.348795)scale(0.13 -0.13)">
       <defs>
        <path d="M 52.203125 0.203125 
Q 50 -1.09375 46.09375 -1.09375 
Q 42.796875 -1.09375 40.84375 0.75 
Q 38.90625 2.59375 38.90625 6.796875 
Q 35.40625 2.59375 30.75 0.75 
Q 26.09375 -1.09375 20.703125 -1.09375 
Q 17.203125 -1.09375 14.046875 -0.296875 
Q 10.90625 0.5 8.59375 2.203125 
Q 6.296875 3.90625 4.9375 6.65625 
Q 3.59375 9.40625 3.59375 13.296875 
Q 3.59375 17.703125 5.09375 20.5 
Q 6.59375 23.296875 9.046875 25.046875 
Q 11.5 26.796875 14.640625 27.6875 
Q 17.796875 28.59375 21.09375 29.203125 
Q 24.59375 29.90625 27.75 30.25 
Q 30.90625 30.59375 33.296875 31.25 
Q 35.703125 31.90625 37.09375 33.15625 
Q 38.5 34.40625 38.5 36.796875 
Q 38.5 39.59375 37.453125 41.296875 
Q 36.40625 43 34.75 43.890625 
Q 33.09375 44.796875 31.046875 45.09375 
Q 29 45.40625 27 45.40625 
Q 21.59375 45.40625 18 43.34375 
Q 14.40625 41.296875 14.09375 35.59375 
L 5.59375 35.59375 
Q 5.796875 40.40625 7.59375 43.703125 
Q 9.40625 47 12.40625 49.046875 
Q 15.40625 51.09375 19.25 52 
Q 23.09375 52.90625 27.5 52.90625 
Q 31 52.90625 34.453125 52.40625 
Q 37.90625 51.90625 40.703125 50.34375 
Q 43.5 48.796875 45.203125 46 
Q 46.90625 43.203125 46.90625 38.703125 
L 46.90625 12.09375 
Q 46.90625 9.09375 47.25 7.6875 
Q 47.59375 6.296875 49.59375 6.296875 
Q 50.703125 6.296875 52.203125 6.796875 
z
M 38.40625 26.703125 
Q 36.796875 25.5 34.1875 24.953125 
Q 31.59375 24.40625 28.75 24.046875 
Q 25.90625 23.703125 23 23.25 
Q 20.09375 22.796875 17.796875 21.796875 
Q 15.5 20.796875 14.046875 18.9375 
Q 12.59375 17.09375 12.59375 13.90625 
Q 12.59375 11.796875 13.4375 10.34375 
Q 14.296875 8.90625 15.640625 8 
Q 17 7.09375 18.796875 6.6875 
Q 20.59375 6.296875 22.59375 6.296875 
Q 26.796875 6.296875 29.796875 7.4375 
Q 32.796875 8.59375 34.6875 10.34375 
Q 36.59375 12.09375 37.5 14.140625 
Q 38.40625 16.203125 38.40625 18 
z
" id="HelveticaNeue-97"/>
        <path d="M 6.40625 51.703125 
L 6.40625 0 
L 14.90625 0 
L 14.90625 29.203125 
Q 14.90625 32.703125 15.84375 35.640625 
Q 16.796875 38.59375 18.6875 40.796875 
Q 20.59375 43 23.4375 44.203125 
Q 26.296875 45.40625 30.203125 45.40625 
Q 35.09375 45.40625 37.890625 42.59375 
Q 40.703125 39.796875 40.703125 35 
L 40.703125 0 
L 49.203125 0 
L 49.203125 34 
Q 49.203125 38.203125 48.34375 41.640625 
Q 47.5 45.09375 45.390625 47.59375 
Q 43.296875 50.09375 39.890625 51.5 
Q 36.5 52.90625 31.40625 52.90625 
Q 19.90625 52.90625 14.59375 43.5 
L 14.40625 43.5 
L 14.40625 51.703125 
z
" id="HelveticaNeue-110"/>
       </defs>
       <use xlink:href="#HelveticaNeue-74"/>
       <use x="51.899994" xlink:href="#HelveticaNeue-97"/>
       <use x="105.599991" xlink:href="#HelveticaNeue-110"/>
      </g>
      <!-- 2021 -->
      <g style="fill:#555555;" transform="translate(285.626483 298.049576)scale(0.13 -0.13)">
       <defs>
        <path d="M 4.40625 45.796875 
L 12.90625 45.796875 
Q 12.796875 49 13.546875 52.140625 
Q 14.296875 55.296875 16 57.796875 
Q 17.703125 60.296875 20.34375 61.84375 
Q 23 63.40625 26.703125 63.40625 
Q 29.5 63.40625 32 62.5 
Q 34.5 61.59375 36.34375 59.890625 
Q 38.203125 58.203125 39.296875 55.84375 
Q 40.40625 53.5 40.40625 50.59375 
Q 40.40625 46.90625 39.25 44.09375 
Q 38.09375 41.296875 35.84375 38.890625 
Q 33.59375 36.5 30.1875 34.140625 
Q 26.796875 31.796875 22.296875 29 
Q 18.59375 26.796875 15.1875 24.296875 
Q 11.796875 21.796875 9.09375 18.5 
Q 6.40625 15.203125 4.65625 10.75 
Q 2.90625 6.296875 2.40625 0 
L 48.703125 0 
L 48.703125 7.5 
L 12.296875 7.5 
Q 12.90625 10.796875 14.84375 13.34375 
Q 16.796875 15.90625 19.546875 18.09375 
Q 22.296875 20.296875 25.59375 22.25 
Q 28.90625 24.203125 32.203125 26.203125 
Q 35.5 28.296875 38.59375 30.59375 
Q 41.703125 32.90625 44.09375 35.75 
Q 46.5 38.59375 47.953125 42.1875 
Q 49.40625 45.796875 49.40625 50.5 
Q 49.40625 55.5 47.65625 59.296875 
Q 45.90625 63.09375 42.90625 65.640625 
Q 39.90625 68.203125 35.84375 69.546875 
Q 31.796875 70.90625 27.203125 70.90625 
Q 21.59375 70.90625 17.1875 69 
Q 12.796875 67.09375 9.84375 63.75 
Q 6.90625 60.40625 5.5 55.796875 
Q 4.09375 51.203125 4.40625 45.796875 
z
" id="HelveticaNeue-50"/>
        <path d="M 13.203125 34.90625 
Q 13.203125 37.5 13.25 40.640625 
Q 13.296875 43.796875 13.75 46.9375 
Q 14.203125 50.09375 15.046875 53.09375 
Q 15.90625 56.09375 17.546875 58.34375 
Q 19.203125 60.59375 21.703125 62 
Q 24.203125 63.40625 27.796875 63.40625 
Q 31.40625 63.40625 33.90625 62 
Q 36.40625 60.59375 38.046875 58.34375 
Q 39.703125 56.09375 40.546875 53.09375 
Q 41.40625 50.09375 41.84375 46.9375 
Q 42.296875 43.796875 42.34375 40.640625 
Q 42.40625 37.5 42.40625 34.90625 
Q 42.40625 30.90625 42.15625 25.953125 
Q 41.90625 21 40.546875 16.640625 
Q 39.203125 12.296875 36.203125 9.296875 
Q 33.203125 6.296875 27.796875 6.296875 
Q 22.40625 6.296875 19.40625 9.296875 
Q 16.40625 12.296875 15.046875 16.640625 
Q 13.703125 21 13.453125 25.953125 
Q 13.203125 30.90625 13.203125 34.90625 
z
M 4.203125 34.796875 
Q 4.203125 30.90625 4.390625 26.703125 
Q 4.59375 22.5 5.390625 18.5 
Q 6.203125 14.5 7.703125 10.953125 
Q 9.203125 7.40625 11.796875 4.703125 
Q 14.40625 2 18.34375 0.453125 
Q 22.296875 -1.09375 27.796875 -1.09375 
Q 33.40625 -1.09375 37.296875 0.453125 
Q 41.203125 2 43.796875 4.703125 
Q 46.40625 7.40625 47.90625 10.953125 
Q 49.40625 14.5 50.203125 18.5 
Q 51 22.5 51.203125 26.703125 
Q 51.40625 30.90625 51.40625 34.796875 
Q 51.40625 38.703125 51.203125 42.890625 
Q 51 47.09375 50.203125 51.09375 
Q 49.40625 55.09375 47.90625 58.6875 
Q 46.40625 62.296875 43.796875 65 
Q 41.203125 67.703125 37.25 69.296875 
Q 33.296875 70.90625 27.796875 70.90625 
Q 22.296875 70.90625 18.34375 69.296875 
Q 14.40625 67.703125 11.796875 65 
Q 9.203125 62.296875 7.703125 58.6875 
Q 6.203125 55.09375 5.390625 51.09375 
Q 4.59375 47.09375 4.390625 42.890625 
Q 4.203125 38.703125 4.203125 34.796875 
z
" id="HelveticaNeue-48"/>
        <path d="M 35.59375 0 
L 35.59375 70.90625 
L 29.09375 70.90625 
Q 28.40625 66.90625 26.5 64.296875 
Q 24.59375 61.703125 21.84375 60.203125 
Q 19.09375 58.703125 15.6875 58.140625 
Q 12.296875 57.59375 8.703125 57.59375 
L 8.703125 50.796875 
L 27.09375 50.796875 
L 27.09375 0 
z
" id="HelveticaNeue-49"/>
       </defs>
       <use xlink:href="#HelveticaNeue-50"/>
       <use x="55.599991" xlink:href="#HelveticaNeue-48"/>
       <use x="111.199982" xlink:href="#HelveticaNeue-50"/>
       <use x="166.799973" xlink:href="#HelveticaNeue-49"/>
      </g>
     </g>
    </g>
    <g id="xtick_6">
     <g id="line2d_6">
      <g>
       <use style="fill:#555555;stroke:#555555;stroke-width:0.8;" x="376.880481" xlink:href="#m7fbc9bfe36" y="268.065982"/>
      </g>
     </g>
     <g id="text_5">
      <!-- Apr -->
      <g style="fill:#555555;" transform="translate(366.65009 284.348795)scale(0.13 -0.13)">
       <use xlink:href="#HelveticaNeue-65"/>
       <use x="64.799988" xlink:href="#HelveticaNeue-112"/>
       <use x="124.099976" xlink:href="#HelveticaNeue-114"/>
      </g>
     </g>
    </g>
    <g id="xtick_7">
     <g id="line2d_7">
      <g>
       <use style="fill:#555555;stroke:#555555;stroke-width:0.8;" x="438.320179" xlink:href="#m7fbc9bfe36" y="268.065982"/>
      </g>
     </g>
    </g>
    <g id="xtick_8">
     <g id="line2d_8">
      <defs>
       <path d="M 0 0 
L 0 2 
" id="m7cccfcd783" style="stroke:#555555;stroke-width:0.6;"/>
      </defs>
      <g>
       <use style="fill:#555555;stroke:#555555;stroke-width:0.6;" x="91.015219" xlink:href="#m7cccfcd783" y="268.065982"/>
      </g>
     </g>
    </g>
    <g id="xtick_9">
     <g id="line2d_9">
      <g>
       <use style="fill:#555555;stroke:#555555;stroke-width:0.6;" x="117.468423" xlink:href="#m7cccfcd783" y="268.065982"/>
      </g>
     </g>
    </g>
    <g id="xtick_10">
     <g id="line2d_10">
      <g>
       <use style="fill:#555555;stroke:#555555;stroke-width:0.6;" x="169.5215" xlink:href="#m7cccfcd783" y="268.065982"/>
      </g>
     </g>
    </g>
    <g id="xtick_11">
     <g id="line2d_11">
      <g>
       <use style="fill:#555555;stroke:#555555;stroke-width:0.6;" x="195.974703" xlink:href="#m7cccfcd783" y="268.065982"/>
      </g>
     </g>
    </g>
    <g id="xtick_12">
     <g id="line2d_12">
      <g>
       <use style="fill:#555555;stroke:#555555;stroke-width:0.6;" x="248.027781" xlink:href="#m7cccfcd783" y="268.065982"/>
      </g>
     </g>
    </g>
    <g id="xtick_13">
     <g id="line2d_13">
      <g>
       <use style="fill:#555555;stroke:#555555;stroke-width:0.6;" x="273.627655" xlink:href="#m7cccfcd783" y="268.065982"/>
      </g>
     </g>
    </g>
    <g id="xtick_14">
     <g id="line2d_14">
      <g>
       <use style="fill:#555555;stroke:#555555;stroke-width:0.6;" x="326.534062" xlink:href="#m7cccfcd783" y="268.065982"/>
      </g>
     </g>
    </g>
    <g id="xtick_15">
     <g id="line2d_15">
      <g>
       <use style="fill:#555555;stroke:#555555;stroke-width:0.6;" x="350.427277" xlink:href="#m7cccfcd783" y="268.065982"/>
      </g>
     </g>
    </g>
    <g id="xtick_16">
     <g id="line2d_16">
      <g>
       <use style="fill:#555555;stroke:#555555;stroke-width:0.6;" x="402.480355" xlink:href="#m7cccfcd783" y="268.065982"/>
      </g>
     </g>
    </g>
    <g id="xtick_17">
     <g id="line2d_17">
      <g>
       <use style="fill:#555555;stroke:#555555;stroke-width:0.6;" x="428.933558" xlink:href="#m7cccfcd783" y="268.065982"/>
      </g>
     </g>
    </g>
    <g id="text_6">
     <!-- date -->
     <g style="fill:#555555;" transform="translate(231.731261 313.893795)scale(0.13 -0.13)">
      <defs>
       <path d="M 12.59375 25.40625 
Q 12.59375 29.203125 13.390625 32.796875 
Q 14.203125 36.40625 16 39.203125 
Q 17.796875 42 20.796875 43.703125 
Q 23.796875 45.40625 28.09375 45.40625 
Q 32.5 45.40625 35.59375 43.75 
Q 38.703125 42.09375 40.640625 39.390625 
Q 42.59375 36.703125 43.5 33.140625 
Q 44.40625 29.59375 44.40625 25.796875 
Q 44.40625 22.203125 43.546875 18.703125 
Q 42.703125 15.203125 40.796875 12.453125 
Q 38.90625 9.703125 35.90625 8 
Q 32.90625 6.296875 28.59375 6.296875 
Q 24.5 6.296875 21.453125 7.890625 
Q 18.40625 9.5 16.453125 12.203125 
Q 14.5 14.90625 13.546875 18.34375 
Q 12.59375 21.796875 12.59375 25.40625 
z
M 52.59375 0 
L 52.59375 71.40625 
L 44.09375 71.40625 
L 44.09375 44.796875 
L 43.90625 44.796875 
Q 42.5 47.09375 40.453125 48.640625 
Q 38.40625 50.203125 36.09375 51.140625 
Q 33.796875 52.09375 31.5 52.5 
Q 29.203125 52.90625 27.203125 52.90625 
Q 21.296875 52.90625 16.84375 50.75 
Q 12.40625 48.59375 9.453125 44.9375 
Q 6.5 41.296875 5.046875 36.390625 
Q 3.59375 31.5 3.59375 26 
Q 3.59375 20.5 5.09375 15.59375 
Q 6.59375 10.703125 9.546875 7 
Q 12.5 3.296875 16.953125 1.09375 
Q 21.40625 -1.09375 27.40625 -1.09375 
Q 32.796875 -1.09375 37.296875 0.796875 
Q 41.796875 2.703125 43.90625 7 
L 44.09375 7 
L 44.09375 0 
z
" id="HelveticaNeue-100"/>
       <path d="M 42.296875 30.796875 
L 12.59375 30.796875 
Q 12.796875 33.796875 13.890625 36.4375 
Q 15 39.09375 16.890625 41.09375 
Q 18.796875 43.09375 21.4375 44.25 
Q 24.09375 45.40625 27.40625 45.40625 
Q 30.59375 45.40625 33.25 44.25 
Q 35.90625 43.09375 37.84375 41.140625 
Q 39.796875 39.203125 40.9375 36.5 
Q 42.09375 33.796875 42.296875 30.796875 
z
M 50.5 16.40625 
L 42.09375 16.40625 
Q 41 11.296875 37.546875 8.796875 
Q 34.09375 6.296875 28.703125 6.296875 
Q 24.5 6.296875 21.390625 7.6875 
Q 18.296875 9.09375 16.296875 11.4375 
Q 14.296875 13.796875 13.390625 16.84375 
Q 12.5 19.90625 12.59375 23.296875 
L 51.296875 23.296875 
Q 51.5 28 50.453125 33.203125 
Q 49.40625 38.40625 46.65625 42.796875 
Q 43.90625 47.203125 39.34375 50.046875 
Q 34.796875 52.90625 27.90625 52.90625 
Q 22.59375 52.90625 18.140625 50.90625 
Q 13.703125 48.90625 10.453125 45.296875 
Q 7.203125 41.703125 5.390625 36.796875 
Q 3.59375 31.90625 3.59375 26 
Q 3.796875 20.09375 5.34375 15.09375 
Q 6.90625 10.09375 10 6.5 
Q 13.09375 2.90625 17.640625 0.90625 
Q 22.203125 -1.09375 28.40625 -1.09375 
Q 37.203125 -1.09375 43 3.296875 
Q 48.796875 7.703125 50.5 16.40625 
z
" id="HelveticaNeue-101"/>
      </defs>
      <use xlink:href="#HelveticaNeue-100"/>
      <use x="59.299988" xlink:href="#HelveticaNeue-97"/>
      <use x="112.999985" xlink:href="#HelveticaNeue-116"/>
      <use x="144.499969" xlink:href="#HelveticaNeue-101"/>
     </g>
    </g>
   </g>
   <g id="matplotlib.axis_2">
    <g id="ytick_1">
     <g id="line2d_18">
      <defs>
       <path d="M 0 0 
L -3.5 0 
" id="mdad686313e" style="stroke:#555555;stroke-width:0.8;"/>
      </defs>
      <g>
       <use style="fill:#555555;stroke:#555555;stroke-width:0.8;" x="50.90875" xlink:href="#mdad686313e" y="251.512225"/>
      </g>
     </g>
     <g id="text_7">
      <!-- −6000 -->
      <g style="fill:#555555;" transform="translate(7.2 256.153632)scale(0.13 -0.13)">
       <defs>
        <path d="M 4.796875 28.703125 
L 4.796875 21.90625 
L 55.203125 21.90625 
L 55.203125 28.703125 
z
" id="HelveticaNeue-8722"/>
        <path d="M 41.40625 52.796875 
L 49.90625 52.796875 
Q 49.09375 61.59375 43.890625 66.25 
Q 38.703125 70.90625 29.90625 70.90625 
Q 22.296875 70.90625 17.296875 67.703125 
Q 12.296875 64.5 9.296875 59.203125 
Q 6.296875 53.90625 5.046875 47.046875 
Q 3.796875 40.203125 3.796875 32.90625 
Q 3.796875 27.296875 4.640625 21.296875 
Q 5.5 15.296875 8.09375 10.296875 
Q 10.703125 5.296875 15.5 2.09375 
Q 20.296875 -1.09375 28.203125 -1.09375 
Q 34.90625 -1.09375 39.453125 1.15625 
Q 44 3.40625 46.75 6.84375 
Q 49.5 10.296875 50.703125 14.5 
Q 51.90625 18.703125 51.90625 22.59375 
Q 51.90625 27.5 50.40625 31.703125 
Q 48.90625 35.90625 46.15625 39 
Q 43.40625 42.09375 39.34375 43.84375 
Q 35.296875 45.59375 30.203125 45.59375 
Q 24.40625 45.59375 19.953125 43.390625 
Q 15.5 41.203125 12.5 36.296875 
L 12.296875 36.5 
Q 12.40625 40.59375 13.09375 45.296875 
Q 13.796875 50 15.640625 54.046875 
Q 17.5 58.09375 20.796875 60.75 
Q 24.09375 63.40625 29.5 63.40625 
Q 34.59375 63.40625 37.6875 60.5 
Q 40.796875 57.59375 41.40625 52.796875 
z
M 28.59375 38.09375 
Q 32.203125 38.09375 34.890625 36.796875 
Q 37.59375 35.5 39.390625 33.34375 
Q 41.203125 31.203125 42.046875 28.25 
Q 42.90625 25.296875 42.90625 22 
Q 42.90625 18.90625 41.953125 16.046875 
Q 41 13.203125 39.203125 11 
Q 37.40625 8.796875 34.75 7.546875 
Q 32.09375 6.296875 28.59375 6.296875 
Q 25.09375 6.296875 22.34375 7.546875 
Q 19.59375 8.796875 17.75 10.890625 
Q 15.90625 13 14.90625 15.890625 
Q 13.90625 18.796875 13.90625 22.09375 
Q 13.90625 25.40625 14.84375 28.34375 
Q 15.796875 31.296875 17.6875 33.4375 
Q 19.59375 35.59375 22.296875 36.84375 
Q 25 38.09375 28.59375 38.09375 
z
" id="HelveticaNeue-54"/>
       </defs>
       <use xlink:href="#HelveticaNeue-8722"/>
       <use x="59.999985" xlink:href="#HelveticaNeue-54"/>
       <use x="115.599976" xlink:href="#HelveticaNeue-48"/>
       <use x="171.199966" xlink:href="#HelveticaNeue-48"/>
       <use x="226.799957" xlink:href="#HelveticaNeue-48"/>
      </g>
     </g>
    </g>
    <g id="ytick_2">
     <g id="line2d_19">
      <g>
       <use style="fill:#555555;stroke:#555555;stroke-width:0.8;" x="50.90875" xlink:href="#mdad686313e" y="213.964719"/>
      </g>
     </g>
     <g id="text_8">
      <!-- −4000 -->
      <g style="fill:#555555;" transform="translate(7.2 218.606125)scale(0.13 -0.13)">
       <defs>
        <path d="M 33.90625 24.09375 
L 10.09375 24.09375 
L 33.703125 58.796875 
L 33.90625 58.796875 
z
M 41.90625 24.09375 
L 41.90625 70.90625 
L 35.09375 70.90625 
L 2.796875 24.796875 
L 2.796875 16.59375 
L 33.90625 16.59375 
L 33.90625 0 
L 41.90625 0 
L 41.90625 16.59375 
L 51.5 16.59375 
L 51.5 24.09375 
z
" id="HelveticaNeue-52"/>
       </defs>
       <use xlink:href="#HelveticaNeue-8722"/>
       <use x="59.999985" xlink:href="#HelveticaNeue-52"/>
       <use x="115.599976" xlink:href="#HelveticaNeue-48"/>
       <use x="171.199966" xlink:href="#HelveticaNeue-48"/>
       <use x="226.799957" xlink:href="#HelveticaNeue-48"/>
      </g>
     </g>
    </g>
    <g id="ytick_3">
     <g id="line2d_20">
      <g>
       <use style="fill:#555555;stroke:#555555;stroke-width:0.8;" x="50.90875" xlink:href="#mdad686313e" y="176.417213"/>
      </g>
     </g>
     <g id="text_9">
      <!-- −2000 -->
      <g style="fill:#555555;" transform="translate(7.2 181.058619)scale(0.13 -0.13)">
       <use xlink:href="#HelveticaNeue-8722"/>
       <use x="59.999985" xlink:href="#HelveticaNeue-50"/>
       <use x="115.599976" xlink:href="#HelveticaNeue-48"/>
       <use x="171.199966" xlink:href="#HelveticaNeue-48"/>
       <use x="226.799957" xlink:href="#HelveticaNeue-48"/>
      </g>
     </g>
    </g>
    <g id="ytick_4">
     <g id="line2d_21">
      <g>
       <use style="fill:#555555;stroke:#555555;stroke-width:0.8;" x="50.90875" xlink:href="#mdad686313e" y="138.869706"/>
      </g>
     </g>
     <g id="text_10">
      <!-- 0 -->
      <g style="fill:#555555;" transform="translate(36.681563 143.511113)scale(0.13 -0.13)">
       <use xlink:href="#HelveticaNeue-48"/>
      </g>
     </g>
    </g>
    <g id="ytick_5">
     <g id="line2d_22">
      <g>
       <use style="fill:#555555;stroke:#555555;stroke-width:0.8;" x="50.90875" xlink:href="#mdad686313e" y="101.3222"/>
      </g>
     </g>
     <g id="text_11">
      <!-- 2000 -->
      <g style="fill:#555555;" transform="translate(15 105.963606)scale(0.13 -0.13)">
       <use xlink:href="#HelveticaNeue-50"/>
       <use x="55.599991" xlink:href="#HelveticaNeue-48"/>
       <use x="111.199982" xlink:href="#HelveticaNeue-48"/>
       <use x="166.799973" xlink:href="#HelveticaNeue-48"/>
      </g>
     </g>
    </g>
    <g id="ytick_6">
     <g id="line2d_23">
      <g>
       <use style="fill:#555555;stroke:#555555;stroke-width:0.8;" x="50.90875" xlink:href="#mdad686313e" y="63.774694"/>
      </g>
     </g>
     <g id="text_12">
      <!-- 4000 -->
      <g style="fill:#555555;" transform="translate(15 68.4161)scale(0.13 -0.13)">
       <use xlink:href="#HelveticaNeue-52"/>
       <use x="55.599991" xlink:href="#HelveticaNeue-48"/>
       <use x="111.199982" xlink:href="#HelveticaNeue-48"/>
       <use x="166.799973" xlink:href="#HelveticaNeue-48"/>
      </g>
     </g>
    </g>
   </g>
   <g id="line2d_24">
    <path clip-path="url(#p03aa6a69fc)" d="M 51.762079 138.681969 
L 53.468737 138.231399 
L 54.322067 138.419136 
L 55.175396 138.43791 
L 56.028725 138.006114 
L 56.882054 137.780829 
L 57.735383 137.949792 
L 60.295371 135.790811 
L 61.1487 134.814576 
L 62.002029 134.138721 
L 62.855358 132.298893 
L 63.708687 134.570517 
L 64.562016 130.928409 
L 65.415345 133.38777 
L 66.268674 130.046042 
L 67.122004 129.895852 
L 67.975333 128.994712 
L 68.828662 134.063626 
L 69.681991 129.013486 
L 70.53532 130.327649 
L 71.388649 132.580499 
L 72.241978 130.665576 
L 73.095308 131.322658 
L 73.948637 130.271327 
L 74.801966 133.23758 
L 75.655295 131.341431 
L 76.508624 134.119947 
L 77.361953 132.205024 
L 78.215282 134.007304 
L 79.068612 129.520377 
L 79.921941 134.720707 
L 80.77527 133.068617 
L 81.628599 133.181259 
L 82.481928 131.378979 
L 83.335257 137.048652 
L 84.188586 130.703124 
L 85.041916 132.524178 
L 85.895245 137.38658 
L 86.748574 132.373988 
L 87.601903 134.758254 
L 88.455232 133.969757 
L 89.308561 137.067426 
L 90.16189 136.297702 
L 91.015219 132.768237 
L 91.868549 134.307684 
L 92.721878 136.18506 
L 93.575207 132.918427 
L 94.428536 136.391571 
L 95.281865 136.109965 
L 96.135194 134.852123 
L 96.988523 137.38658 
L 97.841853 135.546752 
L 99.548511 135.865906 
L 100.40184 134.777028 
L 101.255169 137.311485 
L 102.108498 133.725698 
L 102.961827 133.819567 
L 103.815157 132.205024 
L 104.668486 133.38777 
L 105.521815 135.002313 
L 106.375144 137.405354 
L 107.228473 137.142521 
L 108.081802 132.618047 
L 108.935131 135.959775 
L 109.788461 135.640621 
L 110.64179 136.03487 
L 111.495119 135.190051 
L 113.201777 137.799602 
L 114.055106 135.659395 
L 114.908435 134.270137 
L 115.761764 135.396562 
L 116.615094 135.603073 
L 117.468423 136.260155 
L 118.321752 137.273937 
L 119.175081 134.514196 
L 120.02841 132.805784 
L 120.881739 133.669377 
L 121.735068 134.307684 
L 122.588398 134.213816 
L 123.441727 134.945992 
L 124.295056 134.664386 
L 125.148385 133.293902 
L 126.001714 133.782019 
L 126.855043 132.78701 
L 127.708372 124.58288 
L 128.561702 133.53796 
L 129.415031 133.613056 
L 130.26836 128.656785 
L 131.121689 128.88207 
L 131.975018 127.962156 
L 132.828347 129.069807 
L 133.681676 125.652984 
L 134.535006 125.540342 
L 135.388335 130.440291 
L 136.241664 127.924608 
L 137.094993 120.903225 
L 137.948322 122.254935 
L 138.801651 110.108317 
L 139.65498 113.22476 
L 140.508309 98.46859 
L 141.361639 110.558887 
L 142.214968 108.869249 
L 143.068297 117.448854 
L 143.921626 95.614979 
L 144.774955 100.458607 
L 145.628284 93.474771 
L 146.481613 96.028002 
L 147.334943 101.678901 
L 148.188272 100.083132 
L 149.041601 84.125442 
L 149.89493 101.566259 
L 150.748259 94.188174 
L 151.601588 91.428432 
L 152.454917 71.734765 
L 153.308247 77.498307 
L 154.161576 99.632562 
L 155.014905 91.672491 
L 155.868234 80.520882 
L 156.721563 93.024201 
L 157.574892 79.56342 
L 158.428221 78.568411 
L 159.281551 86.359519 
L 160.13488 91.522301 
L 160.988209 86.528483 
L 161.841538 87.748777 
L 162.694867 75.752348 
L 163.548196 74.588376 
L 164.401525 84.407048 
L 165.254854 90.808898 
L 166.108184 81.853818 
L 166.961513 86.472161 
L 167.814842 86.810089 
L 168.668171 91.071731 
L 169.5215 87.335754 
L 170.374829 111.02823 
L 171.228158 120.959546 
L 172.081488 117.936972 
L 172.934817 116.52894 
L 173.788146 106.428661 
L 174.641475 106.353566 
L 175.494804 104.926761 
L 176.348133 115.515157 
L 177.201462 117.054605 
L 178.054792 110.57766 
L 178.908121 61.127595 
L 179.76145 106.710267 
L 180.614779 107.367349 
L 181.468108 106.109507 
L 182.321437 121.973329 
L 183.174766 125.371378 
L 184.028096 120.771808 
L 184.881425 118.162257 
L 185.734754 118.800564 
L 186.588083 117.411307 
L 187.441412 121.804365 
L 189.14807 127.117337 
L 190.001399 124.357595 
L 190.854729 124.789392 
L 191.708058 127.192432 
L 192.561387 126.460256 
L 193.414716 127.229979 
L 194.268045 129.088581 
L 195.121374 132.280119 
L 195.974703 98.524911 
L 196.828033 132.467857 
L 197.681362 128.018477 
L 198.534691 129.651794 
L 199.38802 128.562916 
L 200.241349 132.392762 
L 201.094678 133.725698 
L 201.948007 131.566716 
L 202.801337 131.228789 
L 203.654666 130.215006 
L 204.507995 129.839531 
L 205.361324 131.078599 
L 206.214653 133.312675 
L 207.067982 134.870897 
L 207.921311 131.566716 
L 208.77464 130.252554 
L 209.62797 130.459065 
L 210.481299 131.641811 
L 211.334628 128.806975 
L 212.187957 132.017286 
L 213.041286 133.763246 
L 213.894615 132.073608 
L 214.747944 132.017286 
L 215.601274 131.510395 
L 216.454603 129.426509 
L 217.307932 131.942191 
L 218.161261 133.575508 
L 219.01459 138.118756 
L 219.867919 127.229979 
L 220.721248 132.974748 
L 221.574578 129.820757 
L 222.427907 129.313866 
L 223.281236 129.764436 
L 224.987894 135.246372 
L 225.841223 130.402744 
L 226.694552 130.778219 
L 227.547882 130.590481 
L 228.401211 131.529169 
L 229.25454 138.869706 
L 230.107869 119.983311 
L 230.961198 133.631829 
L 231.814527 130.609255 
L 232.667856 130.721898 
L 233.521185 128.769427 
L 234.374515 128.919617 
L 235.227844 128.469047 
L 236.934502 131.88587 
L 237.787831 128.356405 
L 238.64116 132.148703 
L 239.494489 122.855695 
L 240.347819 129.107355 
L 241.201148 127.305074 
L 242.054477 133.068617 
L 242.907806 127.962156 
L 243.761135 125.221188 
L 244.614464 124.864487 
L 245.467793 126.234971 
L 246.321123 122.292482 
L 247.174452 132.505404 
L 248.027781 121.635401 
L 248.88111 121.072188 
L 249.734439 122.367577 
L 250.587768 125.803174 
L 251.441097 112.661547 
L 253.147756 123.700514 
L 254.001085 106.766589 
L 254.854414 129.051033 
L 255.707743 131.472848 
L 256.561072 125.390152 
L 257.414401 116.247334 
L 258.26773 103.650145 
L 259.12106 116.585261 
L 259.974389 94.094305 
L 260.827718 119.908216 
L 261.681047 103.537503 
L 262.534376 107.235932 
L 263.387705 102.354757 
L 264.241034 99.613789 
L 265.094364 102.448625 
L 265.947693 106.090733 
L 266.801022 110.72785 
L 267.654351 104.100716 
L 268.50768 99.06935 
L 269.361009 138.869706 
L 270.214338 68.430585 
L 271.067668 111.347384 
L 271.920997 100.87163 
L 272.774326 102.035603 
L 273.627655 98.637553 
L 274.480984 95.82149 
L 275.334313 96.553667 
L 276.187642 91.841455 
L 277.894301 101.340974 
L 278.74763 101.059368 
L 279.600959 104.119489 
L 280.454288 98.91916 
L 281.307617 96.816499 
L 282.160946 99.06935 
L 283.014275 100.214549 
L 283.867605 93.906568 
L 285.574263 98.3184 
L 287.280921 90.395876 
L 288.13425 92.6675 
L 288.987579 94.150626 
L 289.840909 100.965499 
L 290.694238 95.746395 
L 291.547567 95.22073 
L 292.400896 96.760178 
L 293.254225 95.633753 
L 294.107554 138.869706 
L 294.960883 75.470742 
L 295.814213 108.005656 
L 296.667542 100.252096 
L 297.520871 85.833854 
L 298.3742 87.279433 
L 299.227529 83.731193 
L 300.080858 138.869706 
L 300.934187 39.105982 
L 301.787517 109.82671 
L 302.640846 91.46598 
L 303.494175 76.033955 
L 304.347504 79.995217 
L 305.200833 75.545837 
L 306.054162 74.287996 
L 306.907491 88.086704 
L 307.76082 94.807708 
L 308.61415 99.557467 
L 309.467479 83.524682 
L 310.320808 90.658708 
L 311.174137 91.334563 
L 312.027466 88.462179 
L 312.880795 93.662509 
L 313.734124 93.737604 
L 314.587454 104.250906 
L 315.440783 103.668919 
L 316.294112 95.934133 
L 317.147441 98.449816 
L 318.00077 95.708848 
L 318.854099 95.051767 
L 319.707428 105.77158 
L 320.560758 100.758987 
L 322.267416 110.296054 
L 323.120745 101.247105 
L 323.974074 101.134463 
L 324.827403 91.841455 
L 325.680732 111.122099 
L 326.534062 114.407506 
L 327.387391 103.218349 
L 328.24072 115.77799 
L 329.094049 111.704086 
L 329.947378 87.861419 
L 330.800707 111.272289 
L 331.654036 112.304846 
L 332.507365 113.149665 
L 333.360695 111.572669 
L 335.920682 108.02443 
L 336.774011 107.329801 
L 338.480669 129.088581 
L 339.333999 113.787972 
L 340.187328 112.623999 
L 341.040657 123.53155 
L 341.893986 109.770389 
L 342.747315 109.883032 
L 343.600644 117.692913 
L 344.453973 120.208596 
L 345.307303 115.590252 
L 346.160632 118.894433 
L 347.013961 112.135882 
L 347.86729 118.049614 
L 348.720619 117.843103 
L 349.573948 110.690303 
L 350.427277 134.457874 
L 351.280607 102.148245 
L 352.133936 103.800336 
L 352.987265 115.496384 
L 353.840594 112.098334 
L 354.693923 120.771808 
L 355.547252 118.819338 
L 356.400581 122.705505 
L 357.25391 118.349994 
L 358.10724 118.087162 
L 358.960569 116.82932 
L 359.813898 116.547714 
L 360.667227 115.47761 
L 361.520556 124.770618 
L 362.373885 125.728079 
L 363.227214 114.970719 
L 364.080544 120.82813 
L 365.787202 115.684121 
L 366.640531 114.933171 
L 367.49386 121.973329 
L 368.347189 124.169858 
L 369.200518 115.233551 
L 370.053848 119.007076 
L 370.907177 115.364967 
L 371.760506 115.102135 
L 372.613835 114.369959 
L 373.467164 118.931981 
L 374.320493 122.536541 
L 375.173822 114.839302 
L 376.027152 120.52775 
L 376.880481 109.244724 
L 377.73381 111.891823 
L 378.587139 112.361167 
L 380.293797 123.662966 
L 381.147126 110.408697 
L 382.000455 118.969528 
L 382.853785 102.97429 
L 383.707114 108.812928 
L 384.560443 109.301045 
L 385.413772 117.092153 
L 386.267101 131.58549 
L 387.12043 95.239504 
L 387.973759 116.491393 
L 388.827089 111.779181 
L 389.680418 111.384932 
L 390.533747 111.760407 
L 391.387076 105.827901 
L 392.240405 121.466437 
L 393.093734 113.600235 
L 393.947063 117.692913 
L 394.800393 117.054605 
L 395.653722 119.063397 
L 396.507051 110.784172 
L 397.36038 122.386351 
L 398.213709 124.489011 
L 399.067038 119.025849 
L 399.920367 121.710496 
L 400.773697 119.232361 
L 401.627026 121.447663 
L 402.480355 117.411307 
L 403.333684 124.113536 
L 404.187013 125.258735 
L 405.040342 124.169858 
L 405.893671 125.052224 
L 406.747 124.620428 
L 407.60033 125.521568 
L 408.453659 123.38136 
L 409.306988 126.479029 
L 410.160317 128.938391 
L 411.013646 126.197423 
L 411.866975 128.938391 
L 412.720304 124.320048 
L 414.426963 126.647993 
L 415.280292 128.938391 
L 416.133621 130.158685 
L 416.98695 128.469047 
L 417.840279 129.464056 
L 418.693608 128.750653 
L 419.546938 131.172468 
L 420.400267 125.296283 
L 421.253596 130.177459 
L 422.106925 131.4353 
L 422.960254 134.213816 
L 423.813583 133.031069 
L 424.666912 130.53416 
L 425.520242 131.979739 
L 426.373571 138.869706 
L 428.080229 138.869706 
L 428.933558 118.218578 
L 429.786887 134.814576 
L 430.640216 133.481639 
L 431.493545 257.163125 
L 432.346875 138.869706 
L 436.61352 138.869706 
L 437.466849 99.407277 
L 438.320179 138.869706 
L 438.320179 138.869706 
" style="fill:none;stroke:#000000;stroke-dasharray:1.5,2.475;stroke-dashoffset:0;stroke-opacity:0.5;stroke-width:1.5;"/>
   </g>
   <g id="line2d_25">
    <path clip-path="url(#p03aa6a69fc)" d="M 50.90875 138.494231 
L 53.468737 138.400363 
L 56.028725 138.024887 
L 56.882054 137.799602 
L 58.588712 136.93601 
L 59.442041 136.354023 
L 60.295371 135.5843 
L 61.1487 134.983539 
L 62.002029 134.157494 
L 62.855358 133.631829 
L 65.415345 131.510395 
L 66.268674 131.454074 
L 67.122004 130.853314 
L 68.828662 130.68435 
L 71.388649 131.116146 
L 72.241978 131.078599 
L 75.655295 132.373988 
L 76.508624 132.298893 
L 77.361953 132.693142 
L 78.215282 132.693142 
L 79.068612 132.880879 
L 79.921941 132.63682 
L 80.77527 133.143712 
L 81.628599 132.974748 
L 83.335257 133.500413 
L 84.188586 133.53796 
L 86.748574 134.157494 
L 87.601903 134.852123 
L 88.455232 134.945992 
L 89.308561 134.701933 
L 90.16189 135.058635 
L 91.015219 134.833349 
L 91.868549 134.964766 
L 93.575207 134.870897 
L 94.428536 135.415336 
L 95.281865 135.621847 
L 96.135194 135.678168 
L 96.988523 135.978548 
L 97.841853 135.809585 
L 98.695182 135.903453 
L 99.548511 135.753263 
L 102.961827 134.195042 
L 105.521815 134.664386 
L 108.081802 135.640621 
L 109.788461 135.527978 
L 110.64179 135.715716 
L 111.495119 136.109965 
L 114.055106 135.809585 
L 115.761764 135.865906 
L 121.735068 134.119947 
L 122.588398 134.082399 
L 123.441727 134.195042 
L 124.295056 134.063626 
L 125.148385 132.9372 
L 126.855043 132.054834 
L 127.708372 131.341431 
L 128.561702 130.815766 
L 129.415031 130.158685 
L 130.26836 129.708115 
L 131.121689 129.539151 
L 131.975018 128.412726 
L 132.828347 127.905835 
L 133.681676 127.774418 
L 135.388335 126.178649 
L 137.094993 121.785591 
L 138.801651 114.463827 
L 139.65498 111.516348 
L 140.508309 110.558887 
L 141.361639 107.986882 
L 142.214968 106.82291 
L 143.068297 104.494964 
L 143.921626 103.237123 
L 144.774955 101.284653 
L 145.628284 99.763979 
L 146.481613 96.422251 
L 147.334943 96.722631 
L 148.188272 96.009228 
L 149.041601 95.577432 
L 149.89493 92.6675 
L 150.748259 89.250677 
L 151.601588 88.180573 
L 152.454917 88.311989 
L 153.308247 86.246876 
L 154.161576 86.472161 
L 155.014905 85.946496 
L 155.868234 86.453388 
L 156.721563 86.490935 
L 157.574892 85.270641 
L 158.428221 84.932714 
L 159.281551 85.852627 
L 160.13488 84.538465 
L 160.988209 83.900157 
L 162.694867 83.543456 
L 163.548196 82.567221 
L 164.401525 82.848827 
L 165.254854 83.355718 
L 166.108184 85.36451 
L 166.961513 86.885184 
L 167.814842 89.832663 
L 168.668171 94.094305 
L 170.374829 104.926761 
L 171.228158 108.756606 
L 172.081488 111.140873 
L 172.934817 112.455036 
L 173.788146 112.004466 
L 174.641475 111.215968 
L 175.494804 110.671529 
L 176.348133 105.283462 
L 178.054792 102.655137 
L 178.908121 101.77277 
L 179.76145 102.448625 
L 180.614779 104.870439 
L 181.468108 108.512548 
L 182.321437 115.665347 
L 183.174766 117.711687 
L 184.881425 120.396333 
L 185.734754 120.452655 
L 186.588083 120.846903 
L 187.441412 121.710496 
L 190.001399 125.239962 
L 192.561387 127.229979 
L 193.414716 124.808165 
L 194.268045 124.808165 
L 195.121374 124.395143 
L 195.974703 124.526559 
L 196.828033 124.902034 
L 197.681362 125.878269 
L 198.534691 127.098563 
L 199.38802 130.759445 
L 200.241349 130.890861 
L 201.094678 131.266336 
L 203.654666 131.341431 
L 206.214653 131.810775 
L 207.921311 131.942191 
L 209.62797 131.172468 
L 210.481299 131.059825 
L 211.334628 131.228789 
L 213.041286 131.792001 
L 213.894615 131.623038 
L 214.747944 131.810775 
L 215.601274 131.848323 
L 216.454603 132.33644 
L 217.307932 132.111155 
L 218.161261 132.298893 
L 219.867919 131.960965 
L 220.721248 131.4353 
L 221.574578 131.078599 
L 222.427907 130.872088 
L 223.281236 131.360205 
L 224.134565 131.322658 
L 225.841223 131.660585 
L 226.694552 132.48663 
L 227.547882 131.28511 
L 228.401211 130.965956 
L 230.107869 130.759445 
L 231.814527 130.08359 
L 232.667856 129.144902 
L 233.521185 130.008495 
L 235.227844 129.576699 
L 236.081173 129.820757 
L 236.934502 129.313866 
L 237.787831 129.144902 
L 238.64116 128.788201 
L 239.494489 128.88207 
L 241.201148 128.318857 
L 242.054477 127.643002 
L 242.907806 127.774418 
L 243.761135 126.779409 
L 244.614464 126.910826 
L 245.467793 125.7844 
L 246.321123 125.089772 
L 247.174452 124.639202 
L 248.027781 124.470238 
L 248.88111 122.893242 
L 249.734439 121.87946 
L 250.587768 120.640392 
L 251.441097 118.913207 
L 252.294427 119.213587 
L 253.147756 120.208596 
L 254.001085 120.921998 
L 254.854414 121.954555 
L 256.561072 119.438872 
L 258.26773 114.27609 
L 259.12106 110.671529 
L 259.974389 108.512548 
L 260.827718 107.085742 
L 261.681047 106.334792 
L 262.534376 104.607607 
L 263.387705 105.152046 
L 264.241034 104.119489 
L 265.094364 104.419869 
L 265.947693 103.931752 
L 266.801022 107.87424 
L 267.654351 105.565068 
L 268.50768 105.884222 
L 269.361009 104.832892 
L 270.214338 103.443634 
L 271.920997 101.434843 
L 272.774326 97.567449 
L 273.627655 99.388504 
L 274.480984 97.360938 
L 275.334313 97.079332 
L 276.187642 97.041784 
L 277.894301 98.844065 
L 278.74763 99.294635 
L 279.600959 100.026811 
L 280.454288 100.158227 
L 282.160946 98.355947 
L 283.014275 97.586223 
L 283.867605 97.004237 
L 286.427592 94.282043 
L 287.280921 94.77016 
L 288.987579 94.864029 
L 290.694238 96.103097 
L 291.547567 100.946725 
L 292.400896 100.27087 
L 293.254225 101.434843 
L 294.107554 102.204566 
L 294.960883 101.040594 
L 295.814213 99.031802 
L 296.667542 96.196965 
L 297.520871 95.82149 
L 298.3742 92.592405 
L 299.227529 92.029192 
L 300.080858 91.203147 
L 300.934187 90.020401 
L 301.787517 88.443405 
L 302.640846 86.340745 
L 303.494175 79.807479 
L 304.347504 83.449587 
L 305.200833 81.647307 
L 306.054162 83.336945 
L 308.61415 89.701247 
L 309.467479 91.052957 
L 310.320808 91.297016 
L 311.174137 91.109278 
L 312.027466 92.010419 
L 312.880795 94.713839 
L 314.587454 97.454807 
L 315.440783 98.449816 
L 316.294112 98.449816 
L 317.147441 99.21954 
L 318.00077 98.881612 
L 318.854099 99.426051 
L 319.707428 101.434843 
L 321.414087 103.406087 
L 322.267416 102.955517 
L 323.120745 103.030612 
L 323.974074 104.194584 
L 324.827403 104.232132 
L 325.680732 105.396105 
L 326.534062 107.329801 
L 327.387391 106.616398 
L 328.24072 107.930561 
L 329.094049 107.517539 
L 329.947378 107.367349 
L 330.800707 108.399905 
L 331.654036 108.475 
L 332.507365 109.000665 
L 333.360695 111.009457 
L 334.214024 110.333602 
L 335.067353 110.596434 
L 335.920682 112.417488 
L 337.62734 114.520149 
L 338.480669 116.472619 
L 339.333999 116.923189 
L 340.187328 116.772999 
L 341.040657 116.134691 
L 341.893986 115.120909 
L 342.747315 115.421289 
L 343.600644 116.153465 
L 344.453973 115.421289 
L 345.307303 116.359976 
L 346.160632 117.054605 
L 347.013961 116.22856 
L 347.86729 117.599044 
L 348.720619 116.660356 
L 349.573948 115.064587 
L 350.427277 114.764207 
L 351.280607 113.581461 
L 352.133936 113.468818 
L 352.987265 114.238542 
L 353.840594 113.956936 
L 354.693923 116.472619 
L 355.547252 118.349994 
L 357.25391 118.950754 
L 358.10724 118.162257 
L 358.960569 118.48141 
L 359.813898 118.950754 
L 360.667227 119.044623 
L 361.520556 119.589062 
L 362.373885 119.870668 
L 363.227214 119.664157 
L 364.080544 119.157266 
L 364.933873 118.48141 
L 365.787202 118.387542 
L 366.640531 118.612827 
L 367.49386 118.612827 
L 369.200518 118.256125 
L 370.053848 117.768008 
L 370.907177 117.073379 
L 371.760506 116.923189 
L 372.613835 117.073379 
L 373.467164 117.448854 
L 374.320493 117.035831 
L 375.173822 116.491393 
L 376.880481 115.083361 
L 377.73381 115.120909 
L 378.587139 114.970719 
L 379.440468 115.196004 
L 380.293797 114.782981 
L 381.147126 114.050805 
L 382.000455 112.961927 
L 382.853785 112.229751 
L 383.707114 113.112117 
L 384.560443 112.286072 
L 385.413772 112.417488 
L 386.267101 113.393723 
L 387.12043 113.393723 
L 387.973759 113.149665 
L 388.827089 111.647764 
L 389.680418 110.802945 
L 390.533747 112.77419 
L 391.387076 113.168438 
L 392.240405 114.144673 
L 393.093734 115.364967 
L 393.947063 115.6278 
L 394.800393 117.167248 
L 395.653722 117.636592 
L 397.36038 119.232361 
L 399.920367 120.82813 
L 400.773697 120.809356 
L 401.627026 120.97832 
L 405.893671 124.657975 
L 406.747 124.864487 
L 409.306988 126.272518 
L 413.573634 127.023468 
L 415.280292 127.774418 
L 416.98695 129.107355 
L 417.840279 129.013486 
L 419.546938 129.163676 
L 421.253596 130.440291 
L 422.106925 130.928409 
L 422.960254 131.28511 
L 423.813583 132.768237 
L 425.520242 134.964766 
L 426.373571 133.744472 
L 428.080229 133.575508 
L 428.933558 146.397981 
L 430.640216 153.963804 
L 431.493545 155.935048 
L 432.346875 157.286758 
L 433.200204 154.902492 
L 434.053533 151.448121 
L 434.906862 134.683159 
L 435.760191 133.331449 
L 438.320179 127.736871 
L 438.320179 127.736871 
" style="fill:none;stroke:#b3220f;stroke-linecap:square;stroke-width:1.5;"/>
   </g>
   <g id="patch_3">
    <path d="M 50.90875 268.065982 
L 50.90875 28.203125 
" style="fill:none;stroke:#555555;stroke-linecap:square;stroke-linejoin:miter;"/>
   </g>
   <g id="patch_4">
    <path d="M 50.90875 268.065982 
L 438.320179 268.065982 
" style="fill:none;stroke:#555555;stroke-linecap:square;stroke-linejoin:miter;"/>
   </g>
   <g id="text_13">
    <!-- Miami-Dade | New Cases per Day as of [2021-06-12] -->
    <g style="fill:#555555;" transform="translate(79.562121 18.203125)scale(0.14 -0.14)">
     <defs>
      <path d="M 8 71.40625 
L 8 0 
L 17 0 
L 17 59.40625 
L 17.203125 59.40625 
L 39.5 0 
L 47.59375 0 
L 69.90625 59.40625 
L 70.09375 59.40625 
L 70.09375 0 
L 79.09375 0 
L 79.09375 71.40625 
L 66.09375 71.40625 
L 43.5 11.40625 
L 21 71.40625 
z
" id="HelveticaNeue-77"/>
      <path d="M 15.40625 61 
L 15.40625 71.40625 
L 6.90625 71.40625 
L 6.90625 61 
z
M 6.90625 51.703125 
L 6.90625 0 
L 15.40625 0 
L 15.40625 51.703125 
z
" id="HelveticaNeue-105"/>
      <path d="M 6.40625 51.703125 
L 6.40625 0 
L 14.90625 0 
L 14.90625 32.203125 
Q 14.90625 33.703125 15.65625 35.953125 
Q 16.40625 38.203125 18.046875 40.296875 
Q 19.703125 42.40625 22.34375 43.90625 
Q 25 45.40625 28.703125 45.40625 
Q 31.59375 45.40625 33.4375 44.546875 
Q 35.296875 43.703125 36.390625 42.140625 
Q 37.5 40.59375 37.953125 38.5 
Q 38.40625 36.40625 38.40625 33.90625 
L 38.40625 0 
L 46.90625 0 
L 46.90625 32.203125 
Q 46.90625 38.203125 50.5 41.796875 
Q 54.09375 45.40625 60.40625 45.40625 
Q 63.5 45.40625 65.453125 44.5 
Q 67.40625 43.59375 68.5 42.046875 
Q 69.59375 40.5 70 38.390625 
Q 70.40625 36.296875 70.40625 33.90625 
L 70.40625 0 
L 78.90625 0 
L 78.90625 37.90625 
Q 78.90625 41.90625 77.65625 44.75 
Q 76.40625 47.59375 74.15625 49.390625 
Q 71.90625 51.203125 68.75 52.046875 
Q 65.59375 52.90625 61.703125 52.90625 
Q 56.59375 52.90625 52.34375 50.59375 
Q 48.09375 48.296875 45.5 44.09375 
Q 43.90625 48.90625 40 50.90625 
Q 36.09375 52.90625 31.296875 52.90625 
Q 20.40625 52.90625 14.59375 44.09375 
L 14.40625 44.09375 
L 14.40625 51.703125 
z
" id="HelveticaNeue-109"/>
      <path d="M 5 31.796875 
L 5 23.796875 
L 33.90625 23.796875 
L 33.90625 31.796875 
z
" id="HelveticaNeue-45"/>
      <path d="M 17.296875 8 
L 17.296875 63.40625 
L 33.296875 63.40625 
Q 39.90625 63.40625 44.40625 61.546875 
Q 48.90625 59.703125 51.75 56.140625 
Q 54.59375 52.59375 55.84375 47.546875 
Q 57.09375 42.5 57.09375 36.09375 
Q 57.09375 29.5 55.75 24.84375 
Q 54.40625 20.203125 52.296875 17.09375 
Q 50.203125 14 47.546875 12.203125 
Q 44.90625 10.40625 42.203125 9.453125 
Q 39.5 8.5 37.09375 8.25 
Q 34.703125 8 33.09375 8 
z
M 7.796875 71.40625 
L 7.796875 0 
L 32.296875 0 
Q 41.203125 0 47.703125 2.5 
Q 54.203125 5 58.390625 9.75 
Q 62.59375 14.5 64.59375 21.453125 
Q 66.59375 28.40625 66.59375 37.40625 
Q 66.59375 54.59375 57.6875 63 
Q 48.796875 71.40625 32.296875 71.40625 
z
" id="HelveticaNeue-68"/>
      <path id="HelveticaNeue-32"/>
      <path d="M 7.703125 78.59375 
L 7.703125 -21.296875 
L 14.5 -21.296875 
L 14.5 78.59375 
z
" id="HelveticaNeue-124"/>
      <path d="M 7.703125 71.40625 
L 7.703125 0 
L 16.703125 0 
L 16.703125 57.296875 
L 16.90625 57.296875 
L 54.203125 0 
L 64.59375 0 
L 64.59375 71.40625 
L 55.59375 71.40625 
L 55.59375 13.5 
L 55.40625 13.5 
L 17.796875 71.40625 
z
" id="HelveticaNeue-78"/>
      <path d="M 57.59375 0 
L 74.09375 51.703125 
L 65.296875 51.703125 
L 53.703125 9.40625 
L 53.5 9.40625 
L 42.703125 51.703125 
L 33.40625 51.703125 
L 23 9.40625 
L 22.796875 9.40625 
L 11.09375 51.703125 
L 1.703125 51.703125 
L 18.296875 0 
L 27.5 0 
L 37.90625 41.09375 
L 38.09375 41.09375 
L 48.59375 0 
z
" id="HelveticaNeue-119"/>
      <path d="M 58 49.90625 
L 67.5 49.90625 
Q 66.703125 55.59375 64.09375 59.9375 
Q 61.5 64.296875 57.59375 67.1875 
Q 53.703125 70.09375 48.703125 71.59375 
Q 43.703125 73.09375 38.09375 73.09375 
Q 29.90625 73.09375 23.546875 70.140625 
Q 17.203125 67.203125 12.953125 62.09375 
Q 8.703125 57 6.5 50.140625 
Q 4.296875 43.296875 4.296875 35.5 
Q 4.296875 27.703125 6.34375 20.890625 
Q 8.40625 14.09375 12.5 9.09375 
Q 16.59375 4.09375 22.796875 1.25 
Q 29 -1.59375 37.296875 -1.59375 
Q 51 -1.59375 58.890625 5.90625 
Q 66.796875 13.40625 68.203125 26.90625 
L 58.703125 26.90625 
Q 58.40625 22.5 56.90625 18.703125 
Q 55.40625 14.90625 52.75 12.15625 
Q 50.09375 9.40625 46.4375 7.84375 
Q 42.796875 6.296875 38.09375 6.296875 
Q 31.703125 6.296875 27.09375 8.6875 
Q 22.5 11.09375 19.546875 15.140625 
Q 16.59375 19.203125 15.1875 24.640625 
Q 13.796875 30.09375 13.796875 36.203125 
Q 13.796875 41.796875 15.1875 47 
Q 16.59375 52.203125 19.546875 56.25 
Q 22.5 60.296875 27.046875 62.6875 
Q 31.59375 65.09375 38 65.09375 
Q 45.5 65.09375 50.953125 61.296875 
Q 56.40625 57.5 58 49.90625 
z
" id="HelveticaNeue-67"/>
      <path d="M 11.59375 16.296875 
L 3.09375 16.296875 
Q 3.296875 11.5 5.09375 8.140625 
Q 6.90625 4.796875 9.90625 2.75 
Q 12.90625 0.703125 16.796875 -0.1875 
Q 20.703125 -1.09375 25 -1.09375 
Q 28.90625 -1.09375 32.84375 -0.34375 
Q 36.796875 0.40625 39.9375 2.296875 
Q 43.09375 4.203125 45.046875 7.296875 
Q 47 10.40625 47 15.09375 
Q 47 18.796875 45.546875 21.296875 
Q 44.09375 23.796875 41.75 25.4375 
Q 39.40625 27.09375 36.34375 28.09375 
Q 33.296875 29.09375 30.09375 29.796875 
Q 27.09375 30.5 24.09375 31.140625 
Q 21.09375 31.796875 18.6875 32.75 
Q 16.296875 33.703125 14.75 35.140625 
Q 13.203125 36.59375 13.203125 38.796875 
Q 13.203125 40.796875 14.203125 42.046875 
Q 15.203125 43.296875 16.796875 44.046875 
Q 18.40625 44.796875 20.34375 45.09375 
Q 22.296875 45.40625 24.203125 45.40625 
Q 26.296875 45.40625 28.34375 44.953125 
Q 30.40625 44.5 32.09375 43.5 
Q 33.796875 42.5 34.890625 40.84375 
Q 36 39.203125 36.203125 36.703125 
L 44.703125 36.703125 
Q 44.40625 41.40625 42.703125 44.546875 
Q 41 47.703125 38.140625 49.546875 
Q 35.296875 51.40625 31.59375 52.15625 
Q 27.90625 52.90625 23.5 52.90625 
Q 20.09375 52.90625 16.640625 52.046875 
Q 13.203125 51.203125 10.453125 49.453125 
Q 7.703125 47.703125 5.953125 44.890625 
Q 4.203125 42.09375 4.203125 38.203125 
Q 4.203125 33.203125 6.703125 30.390625 
Q 9.203125 27.59375 12.953125 26.046875 
Q 16.703125 24.5 21.09375 23.640625 
Q 25.5 22.796875 29.25 21.75 
Q 33 20.703125 35.5 19 
Q 38 17.296875 38 14 
Q 38 11.59375 36.796875 10.046875 
Q 35.59375 8.5 33.75 7.703125 
Q 31.90625 6.90625 29.703125 6.59375 
Q 27.5 6.296875 25.5 6.296875 
Q 22.90625 6.296875 20.453125 6.796875 
Q 18 7.296875 16.046875 8.4375 
Q 14.09375 9.59375 12.890625 11.546875 
Q 11.703125 13.5 11.59375 16.296875 
z
" id="HelveticaNeue-115"/>
      <path d="M 26.703125 -6.90625 
Q 25.203125 -10.703125 23.75 -13.296875 
Q 22.296875 -15.90625 20.546875 -17.546875 
Q 18.796875 -19.203125 16.640625 -19.953125 
Q 14.5 -20.703125 11.703125 -20.703125 
Q 10.203125 -20.703125 8.703125 -20.5 
Q 7.203125 -20.296875 5.796875 -19.796875 
L 5.796875 -12 
Q 6.90625 -12.5 8.34375 -12.84375 
Q 9.796875 -13.203125 10.796875 -13.203125 
Q 13.40625 -13.203125 15.15625 -11.953125 
Q 16.90625 -10.703125 17.796875 -8.40625 
L 21.296875 0.296875 
L 0.796875 51.703125 
L 10.40625 51.703125 
L 25.5 9.40625 
L 25.703125 9.40625 
L 40.203125 51.703125 
L 49.203125 51.703125 
z
" id="HelveticaNeue-121"/>
      <path d="M 12.59375 25.796875 
Q 12.59375 30.5 13.84375 34.140625 
Q 15.09375 37.796875 17.296875 40.296875 
Q 19.5 42.796875 22.453125 44.09375 
Q 25.40625 45.40625 28.703125 45.40625 
Q 32 45.40625 34.953125 44.09375 
Q 37.90625 42.796875 40.09375 40.296875 
Q 42.296875 37.796875 43.546875 34.140625 
Q 44.796875 30.5 44.796875 25.796875 
Q 44.796875 21.09375 43.546875 17.4375 
Q 42.296875 13.796875 40.09375 11.34375 
Q 37.90625 8.90625 34.953125 7.59375 
Q 32 6.296875 28.703125 6.296875 
Q 25.40625 6.296875 22.453125 7.59375 
Q 19.5 8.90625 17.296875 11.34375 
Q 15.09375 13.796875 13.84375 17.4375 
Q 12.59375 21.09375 12.59375 25.796875 
z
M 3.59375 25.796875 
Q 3.59375 20.09375 5.1875 15.1875 
Q 6.796875 10.296875 10 6.640625 
Q 13.203125 3 17.890625 0.953125 
Q 22.59375 -1.09375 28.703125 -1.09375 
Q 34.90625 -1.09375 39.546875 0.953125 
Q 44.203125 3 47.390625 6.640625 
Q 50.59375 10.296875 52.1875 15.1875 
Q 53.796875 20.09375 53.796875 25.796875 
Q 53.796875 31.5 52.1875 36.453125 
Q 50.59375 41.40625 47.390625 45.046875 
Q 44.203125 48.703125 39.546875 50.796875 
Q 34.90625 52.90625 28.703125 52.90625 
Q 22.59375 52.90625 17.890625 50.796875 
Q 13.203125 48.703125 10 45.046875 
Q 6.796875 41.40625 5.1875 36.453125 
Q 3.59375 31.5 3.59375 25.796875 
z
" id="HelveticaNeue-111"/>
      <path d="M 9.90625 44.203125 
L 9.90625 0 
L 18.40625 0 
L 18.40625 44.203125 
L 28.40625 44.203125 
L 28.40625 51.703125 
L 18.40625 51.703125 
L 18.40625 58.90625 
Q 18.40625 62.296875 20.09375 63.5 
Q 21.796875 64.703125 24.90625 64.703125 
Q 26 64.703125 27.296875 64.546875 
Q 28.59375 64.40625 29.703125 64 
L 29.703125 71.40625 
Q 28.5 71.796875 26.953125 72 
Q 25.40625 72.203125 24.203125 72.203125 
Q 17.203125 72.203125 13.546875 68.953125 
Q 9.90625 65.703125 9.90625 59.40625 
L 9.90625 51.703125 
L 1.203125 51.703125 
L 1.203125 44.203125 
z
" id="HelveticaNeue-102"/>
      <path d="M 25.90625 66.296875 
L 25.90625 73.09375 
L 7.203125 73.09375 
L 7.203125 -19.703125 
L 25.90625 -19.703125 
L 25.90625 -12.90625 
L 15.203125 -12.90625 
L 15.203125 66.296875 
z
" id="HelveticaNeue-91"/>
      <path d="M 0 -12.90625 
L 0 -19.703125 
L 18.703125 -19.703125 
L 18.703125 73.09375 
L 0 73.09375 
L 0 66.296875 
L 10.703125 66.296875 
L 10.703125 -12.90625 
z
" id="HelveticaNeue-93"/>
     </defs>
     <use xlink:href="#HelveticaNeue-77"/>
     <use x="87.099991" xlink:href="#HelveticaNeue-105"/>
     <use x="109.299988" xlink:href="#HelveticaNeue-97"/>
     <use x="162.999985" xlink:href="#HelveticaNeue-109"/>
     <use x="248.299973" xlink:href="#HelveticaNeue-105"/>
     <use x="270.499969" xlink:href="#HelveticaNeue-45"/>
     <use x="309.399963" xlink:href="#HelveticaNeue-68"/>
     <use x="379.799957" xlink:href="#HelveticaNeue-97"/>
     <use x="433.499954" xlink:href="#HelveticaNeue-100"/>
     <use x="492.799942" xlink:href="#HelveticaNeue-101"/>
     <use x="546.499939" xlink:href="#HelveticaNeue-32"/>
     <use x="574.299927" xlink:href="#HelveticaNeue-124"/>
     <use x="596.499924" xlink:href="#HelveticaNeue-32"/>
     <use x="624.299911" xlink:href="#HelveticaNeue-78"/>
     <use x="696.499893" xlink:href="#HelveticaNeue-101"/>
     <use x="750.19989" xlink:href="#HelveticaNeue-119"/>
     <use x="825.999878" xlink:href="#HelveticaNeue-32"/>
     <use x="853.799866" xlink:href="#HelveticaNeue-67"/>
     <use x="925.999847" xlink:href="#HelveticaNeue-97"/>
     <use x="979.699844" xlink:href="#HelveticaNeue-115"/>
     <use x="1029.699829" xlink:href="#HelveticaNeue-101"/>
     <use x="1083.399826" xlink:href="#HelveticaNeue-115"/>
     <use x="1133.399811" xlink:href="#HelveticaNeue-32"/>
     <use x="1161.199799" xlink:href="#HelveticaNeue-112"/>
     <use x="1220.499786" xlink:href="#HelveticaNeue-101"/>
     <use x="1274.199783" xlink:href="#HelveticaNeue-114"/>
     <use x="1307.499771" xlink:href="#HelveticaNeue-32"/>
     <use x="1335.299759" xlink:href="#HelveticaNeue-68"/>
     <use x="1405.699753" xlink:href="#HelveticaNeue-97"/>
     <use x="1459.39975" xlink:href="#HelveticaNeue-121"/>
     <use x="1509.399734" xlink:href="#HelveticaNeue-32"/>
     <use x="1537.199722" xlink:href="#HelveticaNeue-97"/>
     <use x="1590.899719" xlink:href="#HelveticaNeue-115"/>
     <use x="1640.899704" xlink:href="#HelveticaNeue-32"/>
     <use x="1668.699692" xlink:href="#HelveticaNeue-111"/>
     <use x="1726.099686" xlink:href="#HelveticaNeue-102"/>
     <use x="1755.699677" xlink:href="#HelveticaNeue-32"/>
     <use x="1783.499664" xlink:href="#HelveticaNeue-91"/>
     <use x="1809.399658" xlink:href="#HelveticaNeue-50"/>
     <use x="1864.999649" xlink:href="#HelveticaNeue-48"/>
     <use x="1920.59964" xlink:href="#HelveticaNeue-50"/>
     <use x="1976.199631" xlink:href="#HelveticaNeue-49"/>
     <use x="2031.799622" xlink:href="#HelveticaNeue-45"/>
     <use x="2070.699615" xlink:href="#HelveticaNeue-48"/>
     <use x="2126.299606" xlink:href="#HelveticaNeue-54"/>
     <use x="2181.899597" xlink:href="#HelveticaNeue-45"/>
     <use x="2220.799591" xlink:href="#HelveticaNeue-49"/>
     <use x="2276.399582" xlink:href="#HelveticaNeue-50"/>
     <use x="2331.999573" xlink:href="#HelveticaNeue-93"/>
    </g>
   </g>
   <g id="legend_1">
    <g id="line2d_26">
     <path d="M 62.60875 230.753951 
L 88.60875 230.753951 
" style="fill:none;stroke:#000000;stroke-dasharray:1.5,2.475;stroke-dashoffset:0;stroke-opacity:0.5;stroke-width:1.5;"/>
    </g>
    <g id="line2d_27"/>
    <g id="text_14">
     <!-- Actual -->
     <g style="fill:#555555;" transform="translate(99.00875 235.303951)scale(0.13 -0.13)">
      <use xlink:href="#HelveticaNeue-65"/>
      <use x="64.799988" xlink:href="#HelveticaNeue-99"/>
      <use x="118.499985" xlink:href="#HelveticaNeue-116"/>
      <use x="149.999969" xlink:href="#HelveticaNeue-117"/>
      <use x="205.59996" xlink:href="#HelveticaNeue-97"/>
      <use x="259.299957" xlink:href="#HelveticaNeue-108"/>
     </g>
    </g>
    <g id="line2d_28">
     <path d="M 62.60875 249.09817 
L 88.60875 249.09817 
" style="fill:none;stroke:#b3220f;stroke-linecap:square;stroke-width:1.5;"/>
    </g>
    <g id="line2d_29"/>
    <g id="text_15">
     <!-- 7-Day Average -->
     <g style="fill:#555555;" transform="translate(99.00875 253.64817)scale(0.13 -0.13)">
      <defs>
       <path d="M 50.90625 62.40625 
L 50.90625 69.703125 
L 5 69.703125 
L 5 61.703125 
L 42.203125 61.703125 
Q 36.59375 55.796875 31.75 48.796875 
Q 26.90625 41.796875 23.203125 33.9375 
Q 19.5 26.09375 17.140625 17.546875 
Q 14.796875 9 14.203125 0 
L 23.703125 0 
Q 24.203125 8.296875 26.5 17.09375 
Q 28.796875 25.90625 32.4375 34.203125 
Q 36.09375 42.5 40.796875 49.796875 
Q 45.5 57.09375 50.90625 62.40625 
z
" id="HelveticaNeue-55"/>
       <path d="M 29.703125 0 
L 48.59375 51.703125 
L 39.703125 51.703125 
L 25.59375 8.59375 
L 25.40625 8.59375 
L 10.90625 51.703125 
L 1.40625 51.703125 
L 20.59375 0 
z
" id="HelveticaNeue-118"/>
       <path d="M 51 4.40625 
L 51 51.703125 
L 43 51.703125 
L 43 44.296875 
L 42.90625 44.296875 
Q 40.59375 48.59375 36.5 50.75 
Q 32.40625 52.90625 27.5 52.90625 
Q 20.796875 52.90625 16.1875 50.34375 
Q 11.59375 47.796875 8.796875 43.84375 
Q 6 39.90625 4.796875 35.046875 
Q 3.59375 30.203125 3.59375 25.59375 
Q 3.59375 20.296875 5.046875 15.546875 
Q 6.5 10.796875 9.390625 7.25 
Q 12.296875 3.703125 16.59375 1.59375 
Q 20.90625 -0.5 26.703125 -0.5 
Q 31.703125 -0.5 36.140625 1.75 
Q 40.59375 4 42.796875 8.796875 
L 43 8.796875 
L 43 5.40625 
Q 43 1.09375 42.140625 -2.5 
Q 41.296875 -6.09375 39.390625 -8.640625 
Q 37.5 -11.203125 34.59375 -12.640625 
Q 31.703125 -14.09375 27.5 -14.09375 
Q 25.40625 -14.09375 23.09375 -13.640625 
Q 20.796875 -13.203125 18.84375 -12.203125 
Q 16.90625 -11.203125 15.546875 -9.59375 
Q 14.203125 -8 14.09375 -5.703125 
L 5.59375 -5.703125 
Q 5.796875 -9.90625 7.796875 -12.796875 
Q 9.796875 -15.703125 12.84375 -17.5 
Q 15.90625 -19.296875 19.65625 -20.09375 
Q 23.40625 -20.90625 27 -20.90625 
Q 39.40625 -20.90625 45.203125 -14.59375 
Q 51 -8.296875 51 4.40625 
z
M 27.203125 6.90625 
Q 23 6.90625 20.203125 8.65625 
Q 17.40625 10.40625 15.703125 13.25 
Q 14 16.09375 13.296875 19.59375 
Q 12.59375 23.09375 12.59375 26.59375 
Q 12.59375 30.296875 13.4375 33.6875 
Q 14.296875 37.09375 16.140625 39.6875 
Q 18 42.296875 20.890625 43.84375 
Q 23.796875 45.40625 27.90625 45.40625 
Q 31.90625 45.40625 34.703125 43.796875 
Q 37.5 42.203125 39.25 39.546875 
Q 41 36.90625 41.796875 33.59375 
Q 42.59375 30.296875 42.59375 26.90625 
Q 42.59375 23.296875 41.75 19.6875 
Q 40.90625 16.09375 39.09375 13.25 
Q 37.296875 10.40625 34.34375 8.65625 
Q 31.40625 6.90625 27.203125 6.90625 
z
" id="HelveticaNeue-103"/>
      </defs>
      <use xlink:href="#HelveticaNeue-55"/>
      <use x="55.599991" xlink:href="#HelveticaNeue-45"/>
      <use x="94.499985" xlink:href="#HelveticaNeue-68"/>
      <use x="164.899979" xlink:href="#HelveticaNeue-97"/>
      <use x="218.599976" xlink:href="#HelveticaNeue-121"/>
      <use x="268.59996" xlink:href="#HelveticaNeue-32"/>
      <use x="296.399948" xlink:href="#HelveticaNeue-65"/>
      <use x="359.449936" xlink:href="#HelveticaNeue-118"/>
      <use x="409.449921" xlink:href="#HelveticaNeue-101"/>
      <use x="463.149918" xlink:href="#HelveticaNeue-114"/>
      <use x="496.449905" xlink:href="#HelveticaNeue-97"/>
      <use x="550.149902" xlink:href="#HelveticaNeue-103"/>
      <use x="607.549896" xlink:href="#HelveticaNeue-101"/>
     </g>
    </g>
   </g>
  </g>
 </g>
 <defs>
  <clipPath id="p03aa6a69fc">
   <rect height="239.862857" width="387.411429" x="50.90875" y="28.203125"/>
  </clipPath>
 </defs>
</svg>
