<?xml version="1.0" encoding="utf-8" standalone="no"?>
<!DOCTYPE svg PUBLIC "-//W3C//DTD SVG 1.1//EN"
  "http://www.w3.org/Graphics/SVG/1.1/DTD/svg11.dtd">
<!-- Created with matplotlib (https://matplotlib.org/) -->
<svg height="302.24375pt" version="1.1" viewBox="0 0 431.6375 302.24375" width="431.6375pt" xmlns="http://www.w3.org/2000/svg" xmlns:xlink="http://www.w3.org/1999/xlink">
 <metadata>
  <rdf:RDF xmlns:cc="http://creativecommons.org/ns#" xmlns:dc="http://purl.org/dc/elements/1.1/" xmlns:rdf="http://www.w3.org/1999/02/22-rdf-syntax-ns#">
   <cc:Work>
    <dc:type rdf:resource="http://purl.org/dc/dcmitype/StillImage"/>
    <dc:date>2021-02-16T14:14:05.201087</dc:date>
    <dc:format>image/svg+xml</dc:format>
    <dc:creator>
     <cc:Agent>
      <dc:title>Matplotlib v3.3.2, https://matplotlib.org/</dc:title>
     </cc:Agent>
    </dc:creator>
   </cc:Work>
  </rdf:RDF>
 </metadata>
 <defs>
  <style type="text/css">*{stroke-linecap:butt;stroke-linejoin:round;}</style>
 </defs>
 <g id="figure_1">
  <g id="patch_1">
   <path d="M 0 302.24375 
L 431.6375 302.24375 
L 431.6375 0 
L 0 0 
z
" style="fill:#ffffff;"/>
  </g>
  <g id="axes_1">
   <g id="patch_2">
    <path d="M 36.9375 253.95 
L 424.4375 253.95 
L 424.4375 22.95 
L 36.9375 22.95 
z
" style="fill:#ffffff;"/>
   </g>
   <g id="matplotlib.axis_1">
    <g id="xtick_1">
     <g id="line2d_1">
      <defs>
       <path d="M 0 0 
L 0 3.5 
" id="mfe7b2f8c1b" style="stroke:#000000;stroke-width:0.8;"/>
      </defs>
      <g>
       <use style="stroke:#000000;stroke-width:0.8;" x="36.9375" xlink:href="#mfe7b2f8c1b" y="253.95"/>
      </g>
     </g>
    </g>
    <g id="xtick_2">
     <g id="line2d_2">
      <g>
       <use style="stroke:#000000;stroke-width:0.8;" x="56.484978" xlink:href="#mfe7b2f8c1b" y="253.95"/>
      </g>
     </g>
     <g id="text_1">
      <!-- Apr -->
      <g transform="translate(48.584978 268.45)scale(0.1 -0.1)">
       <defs>
        <path d="M 47.015625 16.546875 
L 19.484375 16.546875 
L 13.71875 0 
L 0.875 0 
L 27.734375 71.09375 
L 38.8125 71.09375 
L 65.71875 0 
L 52.828125 0 
z
M 22.953125 26.515625 
L 43.5625 26.515625 
L 33.25 56 
z
" id="Roboto-Medium-65"/>
        <path d="M 52.34375 25.875 
Q 52.34375 13.625 46.78125 6.3125 
Q 41.21875 -0.984375 31.84375 -0.984375 
Q 23.140625 -0.984375 17.921875 4.734375 
L 17.921875 -20.3125 
L 6.0625 -20.3125 
L 6.0625 52.828125 
L 17 52.828125 
L 17.484375 47.46875 
Q 22.703125 53.8125 31.6875 53.8125 
Q 41.359375 53.8125 46.84375 46.609375 
Q 52.34375 39.40625 52.34375 26.609375 
z
M 40.53125 26.90625 
Q 40.53125 34.8125 37.375 39.453125 
Q 34.234375 44.09375 28.375 44.09375 
Q 21.09375 44.09375 17.921875 38.09375 
L 17.921875 14.65625 
Q 21.140625 8.5 28.46875 8.5 
Q 34.125 8.5 37.328125 13.0625 
Q 40.53125 17.625 40.53125 26.90625 
z
" id="Roboto-Medium-112"/>
        <path d="M 33.734375 42 
Q 31.390625 42.390625 28.90625 42.390625 
Q 20.75 42.390625 17.921875 36.140625 
L 17.921875 0 
L 6.0625 0 
L 6.0625 52.828125 
L 17.390625 52.828125 
L 17.671875 46.921875 
Q 21.96875 53.8125 29.59375 53.8125 
Q 32.125 53.8125 33.796875 53.125 
z
" id="Roboto-Medium-114"/>
       </defs>
       <use xlink:href="#Roboto-Medium-65"/>
       <use x="66.552734" xlink:href="#Roboto-Medium-112"/>
       <use x="122.851562" xlink:href="#Roboto-Medium-114"/>
      </g>
     </g>
    </g>
    <g id="xtick_3">
     <g id="line2d_3">
      <g>
       <use style="stroke:#000000;stroke-width:0.8;" x="90.980527" xlink:href="#mfe7b2f8c1b" y="253.95"/>
      </g>
     </g>
     <g id="text_2">
      <!-- May -->
      <g transform="translate(81.463339 268.346875)scale(0.1 -0.1)">
       <defs>
        <path d="M 23.25 71.09375 
L 43.75 16.609375 
L 64.203125 71.09375 
L 80.171875 71.09375 
L 80.171875 0 
L 67.875 0 
L 67.875 23.4375 
L 69.09375 54.78125 
L 48.09375 0 
L 39.265625 0 
L 18.3125 54.734375 
L 19.53125 23.4375 
L 19.53125 0 
L 7.234375 0 
L 7.234375 71.09375 
z
" id="Roboto-Medium-77"/>
        <path d="M 37.640625 0 
Q 36.859375 1.515625 36.28125 4.9375 
Q 30.609375 -0.984375 22.40625 -0.984375 
Q 14.453125 -0.984375 9.421875 3.5625 
Q 4.390625 8.109375 4.390625 14.796875 
Q 4.390625 23.25 10.65625 27.765625 
Q 16.9375 32.28125 28.609375 32.28125 
L 35.890625 32.28125 
L 35.890625 35.75 
Q 35.890625 39.84375 33.59375 42.3125 
Q 31.296875 44.78125 26.609375 44.78125 
Q 22.5625 44.78125 19.96875 42.75 
Q 17.390625 40.71875 17.390625 37.59375 
L 5.515625 37.59375 
Q 5.515625 41.9375 8.390625 45.71875 
Q 11.28125 49.515625 16.234375 51.65625 
Q 21.1875 53.8125 27.296875 53.8125 
Q 36.578125 53.8125 42.09375 49.140625 
Q 47.609375 44.484375 47.75 36.03125 
L 47.75 12.203125 
Q 47.75 5.078125 49.75 0.828125 
L 49.75 0 
z
M 24.609375 8.546875 
Q 28.125 8.546875 31.21875 10.25 
Q 34.328125 11.96875 35.890625 14.84375 
L 35.890625 24.8125 
L 29.5 24.8125 
Q 22.90625 24.8125 19.578125 22.515625 
Q 16.265625 20.21875 16.265625 16.015625 
Q 16.265625 12.59375 18.53125 10.5625 
Q 20.796875 8.546875 24.609375 8.546875 
z
" id="Roboto-Medium-97"/>
        <path d="M 24.5625 17 
L 35.296875 52.828125 
L 47.953125 52.828125 
L 26.953125 -8.015625 
Q 22.125 -21.34375 10.546875 -21.34375 
Q 7.953125 -21.34375 4.828125 -20.453125 
L 4.828125 -11.28125 
L 7.078125 -11.421875 
Q 11.578125 -11.421875 13.84375 -9.78125 
Q 16.109375 -8.15625 17.4375 -4.296875 
L 19.140625 0.25 
L 0.59375 52.828125 
L 13.375 52.828125 
z
" id="Roboto-Medium-121"/>
       </defs>
       <use xlink:href="#Roboto-Medium-77"/>
       <use x="87.548828" xlink:href="#Roboto-Medium-97"/>
       <use x="141.650391" xlink:href="#Roboto-Medium-121"/>
      </g>
     </g>
    </g>
    <g id="xtick_4">
     <g id="line2d_4">
      <g>
       <use style="stroke:#000000;stroke-width:0.8;" x="126.625927" xlink:href="#mfe7b2f8c1b" y="253.95"/>
      </g>
     </g>
     <g id="text_3">
      <!-- Jun -->
      <g transform="translate(118.291552 268.45)scale(0.1 -0.1)">
       <defs>
        <path d="M 36.328125 71.09375 
L 48.640625 71.09375 
L 48.640625 21.234375 
Q 48.640625 11.03125 42.265625 5.015625 
Q 35.890625 -0.984375 25.4375 -0.984375 
Q 14.3125 -0.984375 8.25 4.625 
Q 2.203125 10.25 2.203125 20.265625 
L 14.5 20.265625 
Q 14.5 14.59375 17.3125 11.734375 
Q 20.125 8.890625 25.4375 8.890625 
Q 30.421875 8.890625 33.375 12.1875 
Q 36.328125 15.484375 36.328125 21.296875 
z
" id="Roboto-Medium-74"/>
        <path d="M 38.09375 5.171875 
Q 32.859375 -0.984375 23.25 -0.984375 
Q 14.65625 -0.984375 10.234375 4.046875 
Q 5.8125 9.078125 5.8125 18.609375 
L 5.8125 52.828125 
L 17.671875 52.828125 
L 17.671875 18.75 
Q 17.671875 8.6875 26.03125 8.6875 
Q 34.671875 8.6875 37.703125 14.890625 
L 37.703125 52.828125 
L 49.5625 52.828125 
L 49.5625 0 
L 38.375 0 
z
" id="Roboto-Medium-117"/>
        <path d="M 17.09375 52.828125 
L 17.4375 46.734375 
Q 23.296875 53.8125 32.8125 53.8125 
Q 49.3125 53.8125 49.609375 34.90625 
L 49.609375 0 
L 37.75 0 
L 37.75 34.234375 
Q 37.75 39.265625 35.578125 41.671875 
Q 33.40625 44.09375 28.46875 44.09375 
Q 21.296875 44.09375 17.78125 37.59375 
L 17.78125 0 
L 5.90625 0 
L 5.90625 52.828125 
z
" id="Roboto-Medium-110"/>
       </defs>
       <use xlink:href="#Roboto-Medium-74"/>
       <use x="55.517578" xlink:href="#Roboto-Medium-117"/>
       <use x="111.083984" xlink:href="#Roboto-Medium-110"/>
      </g>
     </g>
    </g>
    <g id="xtick_5">
     <g id="line2d_5">
      <g>
       <use style="stroke:#000000;stroke-width:0.8;" x="161.121476" xlink:href="#mfe7b2f8c1b" y="253.95"/>
      </g>
     </g>
     <g id="text_4">
      <!-- Jul -->
      <g transform="translate(154.291008 268.45)scale(0.1 -0.1)">
       <defs>
        <path d="M 18.703125 0 
L 6.84375 0 
L 6.84375 75 
L 18.703125 75 
z
" id="Roboto-Medium-108"/>
       </defs>
       <use xlink:href="#Roboto-Medium-74"/>
       <use x="55.517578" xlink:href="#Roboto-Medium-117"/>
       <use x="111.083984" xlink:href="#Roboto-Medium-108"/>
      </g>
     </g>
    </g>
    <g id="xtick_6">
     <g id="line2d_6">
      <g>
       <use style="stroke:#000000;stroke-width:0.8;" x="196.766877" xlink:href="#mfe7b2f8c1b" y="253.95"/>
      </g>
     </g>
     <g id="text_5">
      <!-- Aug -->
      <g transform="translate(187.827033 268.401562)scale(0.1 -0.1)">
       <defs>
        <path d="M 4 26.8125 
Q 4 39.109375 9.78125 46.453125 
Q 15.578125 53.8125 25.140625 53.8125 
Q 34.1875 53.8125 39.359375 47.515625 
L 39.890625 52.828125 
L 50.59375 52.828125 
L 50.59375 1.609375 
Q 50.59375 -8.796875 44.109375 -14.796875 
Q 37.640625 -20.796875 26.65625 -20.796875 
Q 20.84375 -20.796875 15.296875 -18.375 
Q 9.765625 -15.96875 6.890625 -12.0625 
L 12.5 -4.9375 
Q 17.96875 -11.421875 25.984375 -11.421875 
Q 31.890625 -11.421875 35.296875 -8.21875 
Q 38.71875 -5.03125 38.71875 1.171875 
L 38.71875 4.734375 
Q 33.59375 -0.984375 25.046875 -0.984375 
Q 15.765625 -0.984375 9.875 6.390625 
Q 4 13.765625 4 26.8125 
z
M 15.828125 25.78125 
Q 15.828125 17.828125 19.0625 13.25 
Q 22.3125 8.6875 28.078125 8.6875 
Q 35.25 8.6875 38.71875 14.84375 
L 38.71875 38.09375 
Q 35.359375 44.09375 28.171875 44.09375 
Q 22.3125 44.09375 19.0625 39.453125 
Q 15.828125 34.8125 15.828125 25.78125 
z
" id="Roboto-Medium-103"/>
       </defs>
       <use xlink:href="#Roboto-Medium-65"/>
       <use x="66.552734" xlink:href="#Roboto-Medium-117"/>
       <use x="122.119141" xlink:href="#Roboto-Medium-103"/>
      </g>
     </g>
    </g>
    <g id="xtick_7">
     <g id="line2d_7">
      <g>
       <use style="stroke:#000000;stroke-width:0.8;" x="232.412277" xlink:href="#mfe7b2f8c1b" y="253.95"/>
      </g>
     </g>
     <g id="text_6">
      <!-- Sep -->
      <g transform="translate(223.896652 268.45)scale(0.1 -0.1)">
       <defs>
        <path d="M 44.390625 18.3125 
Q 44.390625 23 41.09375 25.53125 
Q 37.796875 28.078125 29.203125 30.65625 
Q 20.609375 33.25 15.53125 36.421875 
Q 5.8125 42.53125 5.8125 52.34375 
Q 5.8125 60.9375 12.8125 66.5 
Q 19.828125 72.078125 31 72.078125 
Q 38.421875 72.078125 44.234375 69.34375 
Q 50.046875 66.609375 53.359375 61.546875 
Q 56.6875 56.5 56.6875 50.34375 
L 44.390625 50.34375 
Q 44.390625 55.90625 40.890625 59.046875 
Q 37.40625 62.203125 30.90625 62.203125 
Q 24.859375 62.203125 21.515625 59.609375 
Q 18.171875 57.03125 18.171875 52.390625 
Q 18.171875 48.484375 21.78125 45.875 
Q 25.390625 43.265625 33.6875 40.796875 
Q 42 38.328125 47.015625 35.171875 
Q 52.046875 32.03125 54.390625 27.953125 
Q 56.734375 23.875 56.734375 18.40625 
Q 56.734375 9.515625 49.921875 4.265625 
Q 43.109375 -0.984375 31.453125 -0.984375 
Q 23.734375 -0.984375 17.265625 1.875 
Q 10.796875 4.734375 7.203125 9.765625 
Q 3.609375 14.796875 3.609375 21.484375 
L 15.96875 21.484375 
Q 15.96875 15.4375 19.96875 12.109375 
Q 23.96875 8.796875 31.453125 8.796875 
Q 37.890625 8.796875 41.140625 11.40625 
Q 44.390625 14.015625 44.390625 18.3125 
z
" id="Roboto-Medium-83"/>
        <path d="M 29.34375 -0.984375 
Q 18.0625 -0.984375 11.046875 6.125 
Q 4.046875 13.234375 4.046875 25.046875 
L 4.046875 26.515625 
Q 4.046875 34.421875 7.09375 40.640625 
Q 10.15625 46.875 15.671875 50.34375 
Q 21.1875 53.8125 27.984375 53.8125 
Q 38.765625 53.8125 44.640625 46.921875 
Q 50.53125 40.046875 50.53125 27.4375 
L 50.53125 22.65625 
L 16.015625 22.65625 
Q 16.546875 16.109375 20.375 12.296875 
Q 24.21875 8.5 30.03125 8.5 
Q 38.1875 8.5 43.3125 15.09375 
L 49.703125 8.984375 
Q 46.53125 4.25 41.234375 1.625 
Q 35.9375 -0.984375 29.34375 -0.984375 
z
M 27.9375 44.28125 
Q 23.046875 44.28125 20.046875 40.859375 
Q 17.046875 37.453125 16.21875 31.34375 
L 38.8125 31.34375 
L 38.8125 32.234375 
Q 38.421875 38.1875 35.640625 41.234375 
Q 32.859375 44.28125 27.9375 44.28125 
z
" id="Roboto-Medium-101"/>
       </defs>
       <use xlink:href="#Roboto-Medium-83"/>
       <use x="60.351562" xlink:href="#Roboto-Medium-101"/>
       <use x="114.013672" xlink:href="#Roboto-Medium-112"/>
      </g>
     </g>
    </g>
    <g id="xtick_8">
     <g id="line2d_8">
      <g>
       <use style="stroke:#000000;stroke-width:0.8;" x="266.907826" xlink:href="#mfe7b2f8c1b" y="253.95"/>
      </g>
     </g>
     <g id="text_7">
      <!-- Oct -->
      <g transform="translate(259.175795 268.45)scale(0.1 -0.1)">
       <defs>
        <path d="M 63.96875 33.6875 
Q 63.96875 23.25 60.34375 15.359375 
Q 56.734375 7.46875 50.015625 3.234375 
Q 43.3125 -0.984375 34.578125 -0.984375 
Q 25.921875 -0.984375 19.15625 3.234375 
Q 12.40625 7.46875 8.71875 15.28125 
Q 5.03125 23.09375 4.984375 33.296875 
L 4.984375 37.3125 
Q 4.984375 47.703125 8.671875 55.65625 
Q 12.359375 63.625 19.0625 67.84375 
Q 25.78125 72.078125 34.46875 72.078125 
Q 43.171875 72.078125 49.875 67.890625 
Q 56.59375 63.71875 60.25 55.875 
Q 63.921875 48.046875 63.96875 37.640625 
z
M 51.609375 37.40625 
Q 51.609375 49.21875 47.140625 55.515625 
Q 42.671875 61.8125 34.46875 61.8125 
Q 26.46875 61.8125 21.953125 55.53125 
Q 17.4375 49.265625 17.328125 37.796875 
L 17.328125 33.6875 
Q 17.328125 21.96875 21.890625 15.578125 
Q 26.46875 9.1875 34.578125 9.1875 
Q 42.78125 9.1875 47.1875 15.4375 
Q 51.609375 21.6875 51.609375 33.6875 
z
" id="Roboto-Medium-79"/>
        <path d="M 27.78125 8.5 
Q 32.234375 8.5 35.15625 11.078125 
Q 38.09375 13.671875 38.28125 17.484375 
L 49.46875 17.484375 
Q 49.265625 12.546875 46.375 8.265625 
Q 43.5 4 38.5625 1.5 
Q 33.640625 -0.984375 27.9375 -0.984375 
Q 16.84375 -0.984375 10.34375 6.1875 
Q 3.859375 13.375 3.859375 26.03125 
L 3.859375 27.25 
Q 3.859375 39.3125 10.296875 46.5625 
Q 16.75 53.8125 27.875 53.8125 
Q 37.3125 53.8125 43.234375 48.3125 
Q 49.171875 42.828125 49.46875 33.890625 
L 38.28125 33.890625 
Q 38.09375 38.421875 35.1875 41.34375 
Q 32.28125 44.28125 27.78125 44.28125 
Q 22.015625 44.28125 18.890625 40.109375 
Q 15.765625 35.9375 15.71875 27.4375 
L 15.71875 25.53125 
Q 15.71875 16.9375 18.8125 12.71875 
Q 21.921875 8.5 27.78125 8.5 
z
" id="Roboto-Medium-99"/>
        <path d="M 20.953125 65.671875 
L 20.953125 52.828125 
L 30.28125 52.828125 
L 30.28125 44.046875 
L 20.953125 44.046875 
L 20.953125 14.546875 
Q 20.953125 11.53125 22.140625 10.1875 
Q 23.34375 8.84375 26.421875 8.84375 
Q 28.46875 8.84375 30.5625 9.328125 
L 30.5625 0.140625 
Q 26.515625 -0.984375 22.75 -0.984375 
Q 9.078125 -0.984375 9.078125 14.109375 
L 9.078125 44.046875 
L 0.390625 44.046875 
L 0.390625 52.828125 
L 9.078125 52.828125 
L 9.078125 65.671875 
z
" id="Roboto-Medium-116"/>
       </defs>
       <use xlink:href="#Roboto-Medium-79"/>
       <use x="69.042969" xlink:href="#Roboto-Medium-99"/>
       <use x="121.386719" xlink:href="#Roboto-Medium-116"/>
      </g>
     </g>
    </g>
    <g id="xtick_9">
     <g id="line2d_9">
      <g>
       <use style="stroke:#000000;stroke-width:0.8;" x="302.553227" xlink:href="#mfe7b2f8c1b" y="253.95"/>
      </g>
     </g>
     <g id="text_8">
      <!-- Nov -->
      <g transform="translate(293.682915 268.45)scale(0.1 -0.1)">
       <defs>
        <path d="M 63.625 0 
L 51.265625 0 
L 19.578125 50.4375 
L 19.578125 0 
L 7.234375 0 
L 7.234375 71.09375 
L 19.578125 71.09375 
L 51.375 20.453125 
L 51.375 71.09375 
L 63.625 71.09375 
z
" id="Roboto-Medium-78"/>
        <path d="M 3.859375 26.90625 
Q 3.859375 34.671875 6.9375 40.890625 
Q 10.015625 47.125 15.578125 50.46875 
Q 21.140625 53.8125 28.375 53.8125 
Q 39.0625 53.8125 45.71875 46.921875 
Q 52.390625 40.046875 52.9375 28.65625 
L 52.984375 25.875 
Q 52.984375 18.0625 49.96875 11.90625 
Q 46.96875 5.765625 41.375 2.390625 
Q 35.796875 -0.984375 28.46875 -0.984375 
Q 17.28125 -0.984375 10.5625 6.46875 
Q 3.859375 13.921875 3.859375 26.3125 
z
M 15.71875 25.875 
Q 15.71875 17.71875 19.09375 13.109375 
Q 22.46875 8.5 28.46875 8.5 
Q 34.46875 8.5 37.8125 13.1875 
Q 41.15625 17.875 41.15625 26.90625 
Q 41.15625 34.90625 37.71875 39.59375 
Q 34.28125 44.28125 28.375 44.28125 
Q 22.5625 44.28125 19.140625 39.671875 
Q 15.71875 35.0625 15.71875 25.875 
z
" id="Roboto-Medium-111"/>
        <path d="M 24.703125 15.046875 
L 35.890625 52.828125 
L 48.140625 52.828125 
L 29.828125 0 
L 19.53125 0 
L 1.078125 52.828125 
L 13.375 52.828125 
z
" id="Roboto-Medium-118"/>
       </defs>
       <use xlink:href="#Roboto-Medium-78"/>
       <use x="70.996094" xlink:href="#Roboto-Medium-111"/>
       <use x="127.929688" xlink:href="#Roboto-Medium-118"/>
      </g>
     </g>
    </g>
    <g id="xtick_10">
     <g id="line2d_10">
      <g>
       <use style="stroke:#000000;stroke-width:0.8;" x="337.048776" xlink:href="#mfe7b2f8c1b" y="253.95"/>
      </g>
     </g>
     <g id="text_9">
      <!-- Dec -->
      <g transform="translate(328.48237 268.45)scale(0.1 -0.1)">
       <defs>
        <path d="M 7.234375 0 
L 7.234375 71.09375 
L 28.21875 71.09375 
Q 37.640625 71.09375 44.9375 66.890625 
Q 52.25 62.703125 56.25 54.984375 
Q 60.25 47.265625 60.25 37.3125 
L 60.25 33.734375 
Q 60.25 23.640625 56.21875 15.96875 
Q 52.203125 8.296875 44.75 4.140625 
Q 37.3125 0 27.6875 0 
z
M 19.578125 61.140625 
L 19.578125 9.859375 
L 27.640625 9.859375 
Q 37.359375 9.859375 42.546875 15.9375 
Q 47.75 22.015625 47.859375 33.40625 
L 47.859375 37.359375 
Q 47.859375 48.921875 42.828125 55.03125 
Q 37.796875 61.140625 28.21875 61.140625 
z
" id="Roboto-Medium-68"/>
       </defs>
       <use xlink:href="#Roboto-Medium-68"/>
       <use x="65.332031" xlink:href="#Roboto-Medium-101"/>
       <use x="118.994141" xlink:href="#Roboto-Medium-99"/>
      </g>
     </g>
    </g>
    <g id="xtick_11">
     <g id="line2d_11">
      <g>
       <use style="stroke:#000000;stroke-width:0.8;" x="372.694177" xlink:href="#mfe7b2f8c1b" y="253.95"/>
      </g>
     </g>
     <g id="text_10">
      <!-- Jan -->
      <g transform="translate(364.432458 268.45)scale(0.1 -0.1)">
       <use xlink:href="#Roboto-Medium-74"/>
       <use x="55.517578" xlink:href="#Roboto-Medium-97"/>
       <use x="109.619141" xlink:href="#Roboto-Medium-110"/>
      </g>
      <!-- 2021 -->
      <g transform="translate(361.325427 279.48125)scale(0.1 -0.1)">
       <defs>
        <path d="M 53.125 0 
L 5.328125 0 
L 5.328125 8.15625 
L 29 33.984375 
Q 34.125 39.703125 36.296875 43.53125 
Q 38.484375 47.359375 38.484375 51.21875 
Q 38.484375 56.296875 35.625 59.421875 
Q 32.765625 62.546875 27.9375 62.546875 
Q 22.171875 62.546875 19 59.03125 
Q 15.828125 55.515625 15.828125 49.421875 
L 3.953125 49.421875 
Q 3.953125 55.90625 6.90625 61.109375 
Q 9.859375 66.3125 15.34375 69.1875 
Q 20.84375 72.078125 28.03125 72.078125 
Q 38.375 72.078125 44.359375 66.875 
Q 50.34375 61.671875 50.34375 52.484375 
Q 50.34375 47.171875 47.34375 41.328125 
Q 44.34375 35.5 37.5 28.078125 
L 20.125 9.46875 
L 53.125 9.46875 
z
" id="Roboto-Medium-50"/>
        <path d="M 51.65625 29.9375 
Q 51.65625 14.59375 45.921875 6.796875 
Q 40.1875 -0.984375 28.46875 -0.984375 
Q 16.9375 -0.984375 11.109375 6.609375 
Q 5.28125 14.203125 5.125 29.109375 
L 5.125 41.40625 
Q 5.125 56.734375 10.859375 64.40625 
Q 16.609375 72.078125 28.375 72.078125 
Q 40.046875 72.078125 45.78125 64.59375 
Q 51.515625 57.125 51.65625 42.234375 
z
M 39.796875 43.21875 
Q 39.796875 53.21875 37.0625 57.875 
Q 34.328125 62.546875 28.375 62.546875 
Q 22.5625 62.546875 19.828125 58.125 
Q 17.09375 53.71875 16.9375 44.34375 
L 16.9375 28.21875 
Q 16.9375 18.265625 19.71875 13.375 
Q 22.515625 8.5 28.46875 8.5 
Q 34.1875 8.5 36.921875 13.015625 
Q 39.65625 17.53125 39.796875 27.15625 
z
" id="Roboto-Medium-48"/>
        <path d="M 37.453125 0 
L 25.640625 0 
L 25.640625 57.078125 
L 8.203125 51.125 
L 8.203125 61.140625 
L 35.9375 71.34375 
L 37.453125 71.34375 
z
" id="Roboto-Medium-49"/>
       </defs>
       <use xlink:href="#Roboto-Medium-50"/>
       <use x="56.835938" xlink:href="#Roboto-Medium-48"/>
       <use x="113.671875" xlink:href="#Roboto-Medium-50"/>
       <use x="170.507812" xlink:href="#Roboto-Medium-49"/>
      </g>
     </g>
    </g>
    <g id="xtick_12">
     <g id="line2d_12">
      <g>
       <use style="stroke:#000000;stroke-width:0.8;" x="408.339577" xlink:href="#mfe7b2f8c1b" y="253.95"/>
      </g>
     </g>
     <g id="text_11">
      <!-- Feb -->
      <g transform="translate(400.095046 268.45)scale(0.1 -0.1)">
       <defs>
        <path d="M 48.1875 30.125 
L 19.578125 30.125 
L 19.578125 0 
L 7.234375 0 
L 7.234375 71.09375 
L 52.390625 71.09375 
L 52.390625 61.140625 
L 19.578125 61.140625 
L 19.578125 39.984375 
L 48.1875 39.984375 
z
" id="Roboto-Medium-70"/>
        <path d="M 52.4375 25.875 
Q 52.4375 13.578125 46.9375 6.296875 
Q 41.453125 -0.984375 31.84375 -0.984375 
Q 22.5625 -0.984375 17.390625 5.71875 
L 16.796875 0 
L 6.0625 0 
L 6.0625 75 
L 17.921875 75 
L 17.921875 47.75 
Q 23.046875 53.8125 31.734375 53.8125 
Q 41.40625 53.8125 46.921875 46.625 
Q 52.4375 39.453125 52.4375 26.5625 
z
M 40.578125 26.90625 
Q 40.578125 35.5 37.546875 39.796875 
Q 34.515625 44.09375 28.765625 44.09375 
Q 21.046875 44.09375 17.921875 37.359375 
L 17.921875 15.578125 
Q 21.09375 8.6875 28.859375 8.6875 
Q 34.421875 8.6875 37.453125 12.84375 
Q 40.484375 17 40.578125 25.390625 
z
" id="Roboto-Medium-98"/>
       </defs>
       <use xlink:href="#Roboto-Medium-70"/>
       <use x="54.931641" xlink:href="#Roboto-Medium-101"/>
       <use x="108.59375" xlink:href="#Roboto-Medium-98"/>
      </g>
     </g>
    </g>
    <g id="xtick_13">
     <g id="line2d_13">
      <g>
       <use style="stroke:#000000;stroke-width:0.8;" x="424.4375" xlink:href="#mfe7b2f8c1b" y="253.95"/>
      </g>
     </g>
    </g>
    <g id="xtick_14">
     <g id="line2d_14">
      <defs>
       <path d="M 0 0 
L 0 2 
" id="m8becb989d1" style="stroke:#000000;stroke-width:0.6;"/>
      </defs>
      <g>
       <use style="stroke:#000000;stroke-width:0.6;" x="38.087352" xlink:href="#m8becb989d1" y="253.95"/>
      </g>
     </g>
    </g>
    <g id="xtick_15">
     <g id="line2d_15">
      <g>
       <use style="stroke:#000000;stroke-width:0.6;" x="46.136313" xlink:href="#m8becb989d1" y="253.95"/>
      </g>
     </g>
    </g>
    <g id="xtick_16">
     <g id="line2d_16">
      <g>
       <use style="stroke:#000000;stroke-width:0.6;" x="54.185274" xlink:href="#m8becb989d1" y="253.95"/>
      </g>
     </g>
    </g>
    <g id="xtick_17">
     <g id="line2d_17">
      <g>
       <use style="stroke:#000000;stroke-width:0.6;" x="62.234236" xlink:href="#m8becb989d1" y="253.95"/>
      </g>
     </g>
    </g>
    <g id="xtick_18">
     <g id="line2d_18">
      <g>
       <use style="stroke:#000000;stroke-width:0.6;" x="70.283197" xlink:href="#m8becb989d1" y="253.95"/>
      </g>
     </g>
    </g>
    <g id="xtick_19">
     <g id="line2d_19">
      <g>
       <use style="stroke:#000000;stroke-width:0.6;" x="78.332159" xlink:href="#m8becb989d1" y="253.95"/>
      </g>
     </g>
    </g>
    <g id="xtick_20">
     <g id="line2d_20">
      <g>
       <use style="stroke:#000000;stroke-width:0.6;" x="86.38112" xlink:href="#m8becb989d1" y="253.95"/>
      </g>
     </g>
    </g>
    <g id="xtick_21">
     <g id="line2d_21">
      <g>
       <use style="stroke:#000000;stroke-width:0.6;" x="94.430082" xlink:href="#m8becb989d1" y="253.95"/>
      </g>
     </g>
    </g>
    <g id="xtick_22">
     <g id="line2d_22">
      <g>
       <use style="stroke:#000000;stroke-width:0.6;" x="102.479043" xlink:href="#m8becb989d1" y="253.95"/>
      </g>
     </g>
    </g>
    <g id="xtick_23">
     <g id="line2d_23">
      <g>
       <use style="stroke:#000000;stroke-width:0.6;" x="110.528004" xlink:href="#m8becb989d1" y="253.95"/>
      </g>
     </g>
    </g>
    <g id="xtick_24">
     <g id="line2d_24">
      <g>
       <use style="stroke:#000000;stroke-width:0.6;" x="118.576966" xlink:href="#m8becb989d1" y="253.95"/>
      </g>
     </g>
    </g>
    <g id="xtick_25">
     <g id="line2d_25">
      <g>
       <use style="stroke:#000000;stroke-width:0.6;" x="134.674889" xlink:href="#m8becb989d1" y="253.95"/>
      </g>
     </g>
    </g>
    <g id="xtick_26">
     <g id="line2d_26">
      <g>
       <use style="stroke:#000000;stroke-width:0.6;" x="142.72385" xlink:href="#m8becb989d1" y="253.95"/>
      </g>
     </g>
    </g>
    <g id="xtick_27">
     <g id="line2d_27">
      <g>
       <use style="stroke:#000000;stroke-width:0.6;" x="150.772812" xlink:href="#m8becb989d1" y="253.95"/>
      </g>
     </g>
    </g>
    <g id="xtick_28">
     <g id="line2d_28">
      <g>
       <use style="stroke:#000000;stroke-width:0.6;" x="158.821773" xlink:href="#m8becb989d1" y="253.95"/>
      </g>
     </g>
    </g>
    <g id="xtick_29">
     <g id="line2d_29">
      <g>
       <use style="stroke:#000000;stroke-width:0.6;" x="166.870734" xlink:href="#m8becb989d1" y="253.95"/>
      </g>
     </g>
    </g>
    <g id="xtick_30">
     <g id="line2d_30">
      <g>
       <use style="stroke:#000000;stroke-width:0.6;" x="174.919696" xlink:href="#m8becb989d1" y="253.95"/>
      </g>
     </g>
    </g>
    <g id="xtick_31">
     <g id="line2d_31">
      <g>
       <use style="stroke:#000000;stroke-width:0.6;" x="182.968657" xlink:href="#m8becb989d1" y="253.95"/>
      </g>
     </g>
    </g>
    <g id="xtick_32">
     <g id="line2d_32">
      <g>
       <use style="stroke:#000000;stroke-width:0.6;" x="191.017619" xlink:href="#m8becb989d1" y="253.95"/>
      </g>
     </g>
    </g>
    <g id="xtick_33">
     <g id="line2d_33">
      <g>
       <use style="stroke:#000000;stroke-width:0.6;" x="199.06658" xlink:href="#m8becb989d1" y="253.95"/>
      </g>
     </g>
    </g>
    <g id="xtick_34">
     <g id="line2d_34">
      <g>
       <use style="stroke:#000000;stroke-width:0.6;" x="207.115542" xlink:href="#m8becb989d1" y="253.95"/>
      </g>
     </g>
    </g>
    <g id="xtick_35">
     <g id="line2d_35">
      <g>
       <use style="stroke:#000000;stroke-width:0.6;" x="215.164503" xlink:href="#m8becb989d1" y="253.95"/>
      </g>
     </g>
    </g>
    <g id="xtick_36">
     <g id="line2d_36">
      <g>
       <use style="stroke:#000000;stroke-width:0.6;" x="223.213464" xlink:href="#m8becb989d1" y="253.95"/>
      </g>
     </g>
    </g>
    <g id="xtick_37">
     <g id="line2d_37">
      <g>
       <use style="stroke:#000000;stroke-width:0.6;" x="231.262426" xlink:href="#m8becb989d1" y="253.95"/>
      </g>
     </g>
    </g>
    <g id="xtick_38">
     <g id="line2d_38">
      <g>
       <use style="stroke:#000000;stroke-width:0.6;" x="239.311387" xlink:href="#m8becb989d1" y="253.95"/>
      </g>
     </g>
    </g>
    <g id="xtick_39">
     <g id="line2d_39">
      <g>
       <use style="stroke:#000000;stroke-width:0.6;" x="247.360349" xlink:href="#m8becb989d1" y="253.95"/>
      </g>
     </g>
    </g>
    <g id="xtick_40">
     <g id="line2d_40">
      <g>
       <use style="stroke:#000000;stroke-width:0.6;" x="255.40931" xlink:href="#m8becb989d1" y="253.95"/>
      </g>
     </g>
    </g>
    <g id="xtick_41">
     <g id="line2d_41">
      <g>
       <use style="stroke:#000000;stroke-width:0.6;" x="263.458272" xlink:href="#m8becb989d1" y="253.95"/>
      </g>
     </g>
    </g>
    <g id="xtick_42">
     <g id="line2d_42">
      <g>
       <use style="stroke:#000000;stroke-width:0.6;" x="271.507233" xlink:href="#m8becb989d1" y="253.95"/>
      </g>
     </g>
    </g>
    <g id="xtick_43">
     <g id="line2d_43">
      <g>
       <use style="stroke:#000000;stroke-width:0.6;" x="279.556194" xlink:href="#m8becb989d1" y="253.95"/>
      </g>
     </g>
    </g>
    <g id="xtick_44">
     <g id="line2d_44">
      <g>
       <use style="stroke:#000000;stroke-width:0.6;" x="287.605156" xlink:href="#m8becb989d1" y="253.95"/>
      </g>
     </g>
    </g>
    <g id="xtick_45">
     <g id="line2d_45">
      <g>
       <use style="stroke:#000000;stroke-width:0.6;" x="295.654117" xlink:href="#m8becb989d1" y="253.95"/>
      </g>
     </g>
    </g>
    <g id="xtick_46">
     <g id="line2d_46">
      <g>
       <use style="stroke:#000000;stroke-width:0.6;" x="303.703079" xlink:href="#m8becb989d1" y="253.95"/>
      </g>
     </g>
    </g>
    <g id="xtick_47">
     <g id="line2d_47">
      <g>
       <use style="stroke:#000000;stroke-width:0.6;" x="311.75204" xlink:href="#m8becb989d1" y="253.95"/>
      </g>
     </g>
    </g>
    <g id="xtick_48">
     <g id="line2d_48">
      <g>
       <use style="stroke:#000000;stroke-width:0.6;" x="319.801001" xlink:href="#m8becb989d1" y="253.95"/>
      </g>
     </g>
    </g>
    <g id="xtick_49">
     <g id="line2d_49">
      <g>
       <use style="stroke:#000000;stroke-width:0.6;" x="327.849963" xlink:href="#m8becb989d1" y="253.95"/>
      </g>
     </g>
    </g>
    <g id="xtick_50">
     <g id="line2d_50">
      <g>
       <use style="stroke:#000000;stroke-width:0.6;" x="335.898924" xlink:href="#m8becb989d1" y="253.95"/>
      </g>
     </g>
    </g>
    <g id="xtick_51">
     <g id="line2d_51">
      <g>
       <use style="stroke:#000000;stroke-width:0.6;" x="343.947886" xlink:href="#m8becb989d1" y="253.95"/>
      </g>
     </g>
    </g>
    <g id="xtick_52">
     <g id="line2d_52">
      <g>
       <use style="stroke:#000000;stroke-width:0.6;" x="351.996847" xlink:href="#m8becb989d1" y="253.95"/>
      </g>
     </g>
    </g>
    <g id="xtick_53">
     <g id="line2d_53">
      <g>
       <use style="stroke:#000000;stroke-width:0.6;" x="360.045809" xlink:href="#m8becb989d1" y="253.95"/>
      </g>
     </g>
    </g>
    <g id="xtick_54">
     <g id="line2d_54">
      <g>
       <use style="stroke:#000000;stroke-width:0.6;" x="368.09477" xlink:href="#m8becb989d1" y="253.95"/>
      </g>
     </g>
    </g>
    <g id="xtick_55">
     <g id="line2d_55">
      <g>
       <use style="stroke:#000000;stroke-width:0.6;" x="376.143731" xlink:href="#m8becb989d1" y="253.95"/>
      </g>
     </g>
    </g>
    <g id="xtick_56">
     <g id="line2d_56">
      <g>
       <use style="stroke:#000000;stroke-width:0.6;" x="384.192693" xlink:href="#m8becb989d1" y="253.95"/>
      </g>
     </g>
    </g>
    <g id="xtick_57">
     <g id="line2d_57">
      <g>
       <use style="stroke:#000000;stroke-width:0.6;" x="392.241654" xlink:href="#m8becb989d1" y="253.95"/>
      </g>
     </g>
    </g>
    <g id="xtick_58">
     <g id="line2d_58">
      <g>
       <use style="stroke:#000000;stroke-width:0.6;" x="400.290616" xlink:href="#m8becb989d1" y="253.95"/>
      </g>
     </g>
    </g>
    <g id="xtick_59">
     <g id="line2d_59">
      <g>
       <use style="stroke:#000000;stroke-width:0.6;" x="416.388539" xlink:href="#m8becb989d1" y="253.95"/>
      </g>
     </g>
    </g>
    <g id="text_12">
     <!-- date -->
     <g transform="translate(220.865625 293.0125)scale(0.1 -0.1)">
      <defs>
       <path d="M 4.640625 26.859375 
Q 4.640625 39.015625 10.390625 46.40625 
Q 16.15625 53.8125 25.484375 53.8125 
Q 34.765625 53.8125 40.1875 47.46875 
L 40.1875 75 
L 49.21875 75 
L 49.21875 0 
L 40.921875 0 
L 40.484375 5.671875 
Q 35.0625 -0.984375 25.390625 -0.984375 
Q 16.21875 -0.984375 10.421875 6.53125 
Q 4.640625 14.0625 4.640625 26.171875 
z
M 13.671875 25.828125 
Q 13.671875 16.84375 17.375 11.765625 
Q 21.09375 6.6875 27.640625 6.6875 
Q 36.234375 6.6875 40.1875 14.40625 
L 40.1875 38.671875 
Q 36.140625 46.140625 27.734375 46.140625 
Q 21.09375 46.140625 17.375 41.015625 
Q 13.671875 35.890625 13.671875 25.828125 
z
" id="Roboto-Regular-100"/>
       <path d="M 39.453125 0 
Q 38.671875 1.5625 38.1875 5.5625 
Q 31.890625 -0.984375 23.140625 -0.984375 
Q 15.328125 -0.984375 10.328125 3.4375 
Q 5.328125 7.859375 5.328125 14.65625 
Q 5.328125 22.90625 11.59375 27.46875 
Q 17.875 32.03125 29.25 32.03125 
L 38.03125 32.03125 
L 38.03125 36.1875 
Q 38.03125 40.921875 35.203125 43.71875 
Q 32.375 46.53125 26.859375 46.53125 
Q 22.015625 46.53125 18.75 44.09375 
Q 15.484375 41.65625 15.484375 38.1875 
L 6.390625 38.1875 
Q 6.390625 42.140625 9.203125 45.828125 
Q 12.015625 49.515625 16.8125 51.65625 
Q 21.625 53.8125 27.390625 53.8125 
Q 36.53125 53.8125 41.703125 49.234375 
Q 46.875 44.671875 47.078125 36.671875 
L 47.078125 12.359375 
Q 47.078125 5.078125 48.921875 0.78125 
L 48.921875 0 
z
M 24.46875 6.890625 
Q 28.71875 6.890625 32.515625 9.078125 
Q 36.328125 11.28125 38.03125 14.796875 
L 38.03125 25.640625 
L 30.953125 25.640625 
Q 14.359375 25.640625 14.359375 15.921875 
Q 14.359375 11.671875 17.1875 9.28125 
Q 20.015625 6.890625 24.46875 6.890625 
z
" id="Roboto-Regular-97"/>
       <path d="M 19.09375 65.625 
L 19.09375 52.828125 
L 28.953125 52.828125 
L 28.953125 45.84375 
L 19.09375 45.84375 
L 19.09375 13.09375 
Q 19.09375 9.90625 20.40625 8.3125 
Q 21.734375 6.734375 24.90625 6.734375 
Q 26.46875 6.734375 29.203125 7.328125 
L 29.203125 0 
Q 25.640625 -0.984375 22.265625 -0.984375 
Q 16.21875 -0.984375 13.140625 2.671875 
Q 10.0625 6.34375 10.0625 13.09375 
L 10.0625 45.84375 
L 0.4375 45.84375 
L 0.4375 52.828125 
L 10.0625 52.828125 
L 10.0625 65.625 
z
" id="Roboto-Regular-116"/>
       <path d="M 28.765625 -0.984375 
Q 18.015625 -0.984375 11.28125 6.078125 
Q 4.546875 13.140625 4.546875 24.953125 
L 4.546875 26.609375 
Q 4.546875 34.46875 7.546875 40.640625 
Q 10.546875 46.828125 15.9375 50.3125 
Q 21.34375 53.8125 27.640625 53.8125 
Q 37.9375 53.8125 43.640625 47.015625 
Q 49.359375 40.234375 49.359375 27.59375 
L 49.359375 23.828125 
L 13.578125 23.828125 
Q 13.765625 16.015625 18.140625 11.203125 
Q 22.515625 6.390625 29.25 6.390625 
Q 34.03125 6.390625 37.34375 8.34375 
Q 40.671875 10.296875 43.171875 13.53125 
L 48.6875 9.234375 
Q 42.046875 -0.984375 28.765625 -0.984375 
z
M 27.640625 46.390625 
Q 22.171875 46.390625 18.453125 42.40625 
Q 14.75 38.421875 13.875 31.25 
L 40.328125 31.25 
L 40.328125 31.9375 
Q 39.9375 38.8125 36.609375 42.59375 
Q 33.296875 46.390625 27.640625 46.390625 
z
" id="Roboto-Regular-101"/>
      </defs>
      <use xlink:href="#Roboto-Regular-100"/>
      <use x="56.396484" xlink:href="#Roboto-Regular-97"/>
      <use x="110.791016" xlink:href="#Roboto-Regular-116"/>
      <use x="143.457031" xlink:href="#Roboto-Regular-101"/>
     </g>
    </g>
   </g>
   <g id="matplotlib.axis_2">
    <g id="ytick_1">
     <g id="line2d_60">
      <defs>
       <path d="M 0 0 
L -3.5 0 
" id="m38764c2458" style="stroke:#000000;stroke-width:0.8;"/>
      </defs>
      <g>
       <use style="stroke:#000000;stroke-width:0.8;" x="36.9375" xlink:href="#m38764c2458" y="243.45"/>
      </g>
     </g>
     <g id="text_13">
      <!-- 0 -->
      <g transform="translate(24.253125 247.2)scale(0.1 -0.1)">
       <use xlink:href="#Roboto-Medium-48"/>
      </g>
     </g>
    </g>
    <g id="ytick_2">
     <g id="line2d_61">
      <g>
       <use style="stroke:#000000;stroke-width:0.8;" x="36.9375" xlink:href="#m38764c2458" y="203.931746"/>
      </g>
     </g>
     <g id="text_14">
      <!-- 1000 -->
      <g transform="translate(7.2 207.681746)scale(0.1 -0.1)">
       <use xlink:href="#Roboto-Medium-49"/>
       <use x="56.835938" xlink:href="#Roboto-Medium-48"/>
       <use x="113.671875" xlink:href="#Roboto-Medium-48"/>
       <use x="170.507812" xlink:href="#Roboto-Medium-48"/>
      </g>
     </g>
    </g>
    <g id="ytick_3">
     <g id="line2d_62">
      <g>
       <use style="stroke:#000000;stroke-width:0.8;" x="36.9375" xlink:href="#m38764c2458" y="164.413493"/>
      </g>
     </g>
     <g id="text_15">
      <!-- 2000 -->
      <g transform="translate(7.2 168.163493)scale(0.1 -0.1)">
       <use xlink:href="#Roboto-Medium-50"/>
       <use x="56.835938" xlink:href="#Roboto-Medium-48"/>
       <use x="113.671875" xlink:href="#Roboto-Medium-48"/>
       <use x="170.507812" xlink:href="#Roboto-Medium-48"/>
      </g>
     </g>
    </g>
    <g id="ytick_4">
     <g id="line2d_63">
      <g>
       <use style="stroke:#000000;stroke-width:0.8;" x="36.9375" xlink:href="#m38764c2458" y="124.895239"/>
      </g>
     </g>
     <g id="text_16">
      <!-- 3000 -->
      <g transform="translate(7.2 128.645239)scale(0.1 -0.1)">
       <defs>
        <path d="M 19.046875 40.96875 
L 26.265625 40.96875 
Q 31.734375 41.015625 34.9375 43.796875 
Q 38.140625 46.578125 38.140625 51.859375 
Q 38.140625 56.9375 35.46875 59.734375 
Q 32.8125 62.546875 27.34375 62.546875 
Q 22.5625 62.546875 19.484375 59.78125 
Q 16.40625 57.03125 16.40625 52.59375 
L 4.546875 52.59375 
Q 4.546875 58.0625 7.453125 62.546875 
Q 10.359375 67.046875 15.546875 69.5625 
Q 20.75 72.078125 27.203125 72.078125 
Q 37.84375 72.078125 43.921875 66.71875 
Q 50 61.375 50 51.859375 
Q 50 47.078125 46.9375 42.84375 
Q 43.890625 38.625 39.0625 36.46875 
Q 44.921875 34.46875 47.96875 30.171875 
Q 51.03125 25.875 51.03125 19.921875 
Q 51.03125 10.359375 44.453125 4.6875 
Q 37.890625 -0.984375 27.203125 -0.984375 
Q 16.9375 -0.984375 10.390625 4.484375 
Q 3.859375 9.96875 3.859375 19.046875 
L 15.71875 19.046875 
Q 15.71875 14.359375 18.859375 11.421875 
Q 22.015625 8.5 27.34375 8.5 
Q 32.859375 8.5 36.03125 11.421875 
Q 39.203125 14.359375 39.203125 19.921875 
Q 39.203125 25.53125 35.875 28.5625 
Q 32.5625 31.59375 26.03125 31.59375 
L 19.046875 31.59375 
z
" id="Roboto-Medium-51"/>
       </defs>
       <use xlink:href="#Roboto-Medium-51"/>
       <use x="56.835938" xlink:href="#Roboto-Medium-48"/>
       <use x="113.671875" xlink:href="#Roboto-Medium-48"/>
       <use x="170.507812" xlink:href="#Roboto-Medium-48"/>
      </g>
     </g>
    </g>
    <g id="ytick_5">
     <g id="line2d_64">
      <g>
       <use style="stroke:#000000;stroke-width:0.8;" x="36.9375" xlink:href="#m38764c2458" y="85.376985"/>
      </g>
     </g>
     <g id="text_17">
      <!-- 4000 -->
      <g transform="translate(7.2 89.126985)scale(0.1 -0.1)">
       <defs>
        <path d="M 45.453125 25.34375 
L 54.296875 25.34375 
L 54.296875 15.828125 
L 45.453125 15.828125 
L 45.453125 0 
L 33.59375 0 
L 33.59375 15.828125 
L 2.875 15.828125 
L 2.546875 23.046875 
L 33.203125 71.09375 
L 45.453125 71.09375 
z
M 14.984375 25.34375 
L 33.59375 25.34375 
L 33.59375 55.03125 
L 32.71875 53.46875 
z
" id="Roboto-Medium-52"/>
       </defs>
       <use xlink:href="#Roboto-Medium-52"/>
       <use x="56.835938" xlink:href="#Roboto-Medium-48"/>
       <use x="113.671875" xlink:href="#Roboto-Medium-48"/>
       <use x="170.507812" xlink:href="#Roboto-Medium-48"/>
      </g>
     </g>
    </g>
    <g id="ytick_6">
     <g id="line2d_65">
      <g>
       <use style="stroke:#000000;stroke-width:0.8;" x="36.9375" xlink:href="#m38764c2458" y="45.858732"/>
      </g>
     </g>
     <g id="text_18">
      <!-- 5000 -->
      <g transform="translate(7.2 49.608732)scale(0.1 -0.1)">
       <defs>
        <path d="M 8.5 35.25 
L 12.359375 71.09375 
L 50.53125 71.09375 
L 50.53125 60.84375 
L 22.21875 60.84375 
L 20.265625 43.84375 
Q 25.203125 46.6875 31.390625 46.6875 
Q 41.546875 46.6875 47.1875 40.1875 
Q 52.828125 33.6875 52.828125 22.703125 
Q 52.828125 11.859375 46.578125 5.4375 
Q 40.328125 -0.984375 29.4375 -0.984375 
Q 19.671875 -0.984375 13.25 4.5625 
Q 6.84375 10.109375 6.296875 19.1875 
L 17.78125 19.1875 
Q 18.453125 14.015625 21.484375 11.25 
Q 24.515625 8.5 29.390625 8.5 
Q 34.859375 8.5 37.90625 12.40625 
Q 40.96875 16.3125 40.96875 23.046875 
Q 40.96875 29.546875 37.59375 33.328125 
Q 34.234375 37.109375 28.328125 37.109375 
Q 25.09375 37.109375 22.84375 36.25 
Q 20.609375 35.40625 17.96875 32.90625 
z
" id="Roboto-Medium-53"/>
       </defs>
       <use xlink:href="#Roboto-Medium-53"/>
       <use x="56.835938" xlink:href="#Roboto-Medium-48"/>
       <use x="113.671875" xlink:href="#Roboto-Medium-48"/>
       <use x="170.507812" xlink:href="#Roboto-Medium-48"/>
      </g>
     </g>
    </g>
   </g>
   <g id="line2d_66">
    <path clip-path="url(#p7f3367f1b1)" d="M 38.087352 243.054817 
L 39.237203 242.659635 
L 40.387055 242.106379 
L 41.536907 242.501562 
L 42.686758 242.54108 
L 43.83661 241.63216 
L 44.986461 241.157941 
L 46.136313 241.513606 
L 49.585868 236.969006 
L 50.73572 234.914057 
L 51.885571 233.4914 
L 53.035423 229.618611 
L 54.185274 234.40032 
L 55.335126 226.733779 
L 56.484978 231.91067 
L 57.634829 224.876421 
L 58.784681 224.560275 
L 59.934533 222.663399 
L 61.084384 233.333327 
L 62.234236 222.702917 
L 63.384088 225.469195 
L 64.533939 230.211385 
L 65.683791 226.180523 
L 66.833642 227.563662 
L 67.983494 225.35064 
L 69.133346 231.594524 
L 70.283197 227.60318 
L 71.433049 233.451882 
L 72.582901 229.42102 
L 73.732752 233.214772 
L 74.882604 223.76991 
L 76.032455 234.716466 
L 77.182307 231.23886 
L 78.332159 231.475969 
L 79.48201 227.682217 
L 80.631862 239.616729 
L 81.781714 226.25956 
L 82.931565 230.09283 
L 84.081417 240.328058 
L 85.231269 229.776684 
L 86.38112 234.795502 
L 87.530972 233.135736 
L 88.680823 239.656248 
L 89.830675 238.035999 
L 90.980527 230.606568 
L 92.130378 233.847064 
L 93.28023 237.79889 
L 94.430082 230.922714 
L 95.579933 238.233591 
L 96.729785 237.640817 
L 97.879636 234.993094 
L 99.029488 240.328058 
L 100.17934 236.455269 
L 101.329191 236.88997 
L 102.479043 237.127079 
L 103.628895 234.835021 
L 104.778746 240.169985 
L 105.928598 232.621998 
L 107.07845 232.81959 
L 108.228301 229.42102 
L 109.378153 231.91067 
L 110.528004 235.30924 
L 111.677856 240.367576 
L 112.827708 239.814321 
L 113.977559 230.290422 
L 115.127411 237.324671 
L 116.277263 236.65286 
L 117.427114 237.482744 
L 118.576966 235.704422 
L 120.876669 241.19746 
L 122.026521 236.692379 
L 123.176372 233.768028 
L 124.326224 236.139123 
L 125.476076 236.573824 
L 126.625927 237.956963 
L 127.775779 240.090948 
L 128.925631 234.281765 
L 130.075482 230.685604 
L 131.225334 232.503444 
L 132.375185 233.847064 
L 133.525037 233.649473 
L 134.674889 235.190685 
L 135.82474 234.597911 
L 136.974592 231.713079 
L 138.124444 232.740553 
L 139.274295 230.646086 
L 140.424147 213.376609 
L 141.573999 232.226816 
L 142.72385 232.384889 
L 143.873702 221.95207 
L 145.023553 222.426289 
L 146.173405 220.489895 
L 147.323257 222.821472 
L 148.473108 215.629149 
L 149.62296 215.39204 
L 150.772812 225.706304 
L 151.922663 220.410858 
L 153.072515 205.631031 
L 154.222366 208.476346 
L 155.372218 182.908035 
L 156.52207 189.468065 
L 157.671921 158.406718 
L 158.821773 183.856473 
L 159.971625 180.299831 
L 161.121476 198.359673 
L 162.271328 152.399944 
L 163.42118 162.595653 
L 164.571031 147.894863 
L 165.720883 153.269345 
L 166.870734 165.164339 
L 168.020586 161.805288 
L 169.170438 128.214772 
L 170.320289 164.92723 
L 171.470141 149.396556 
L 172.619993 143.587373 
L 173.769844 102.132725 
L 174.919696 114.264829 
L 176.069547 160.85685 
L 177.219399 144.10111 
L 178.369251 120.627268 
L 179.519102 146.946425 
L 180.668954 118.611837 
L 181.818806 116.517369 
L 182.968657 132.917444 
L 184.118509 143.784964 
L 185.268361 133.273109 
L 186.418212 135.841795 
L 187.568064 110.589631 
L 188.717915 108.139499 
L 189.867767 128.807546 
L 191.017619 142.283271 
L 192.16747 123.433064 
L 193.317322 133.154554 
L 194.467174 133.865883 
L 195.617025 142.836526 
L 196.766877 134.972394 
L 197.916728 184.84443 
L 199.06658 205.749586 
L 200.216432 199.387147 
L 201.366283 196.423278 
L 202.516135 175.162458 
L 203.665987 175.004385 
L 204.815838 172.000997 
L 205.96569 194.289292 
L 207.115542 197.529789 
L 208.265393 183.895992 
L 209.415245 79.804912 
L 210.565096 175.755231 
L 211.714948 177.13837 
L 212.8648 174.490647 
L 214.014651 207.883572 
L 215.164503 215.036376 
L 216.314355 205.354403 
L 217.464206 199.861366 
L 218.614058 201.204987 
L 219.763909 198.280636 
L 220.913761 207.527907 
L 223.213464 218.711573 
L 224.363316 212.90239 
L 225.513168 213.81131 
L 226.663019 218.869646 
L 227.812871 217.328434 
L 228.962723 218.948683 
L 230.112574 222.86099 
L 231.262426 229.579093 
L 232.412277 158.525273 
L 233.562129 229.974275 
L 234.711981 220.608449 
L 235.861832 224.046537 
L 237.011684 221.754479 
L 238.161536 229.816202 
L 239.311387 232.621998 
L 240.461239 228.077399 
L 241.611091 227.366071 
L 242.760942 225.232085 
L 243.910794 224.44172 
L 245.060645 227.049925 
L 246.210497 231.752597 
L 247.360349 235.032612 
L 248.5102 228.077399 
L 249.660052 225.311122 
L 250.809904 225.745822 
L 251.959755 228.235472 
L 253.109607 222.268216 
L 254.259458 229.025837 
L 255.40931 232.701035 
L 256.559162 229.144392 
L 257.709013 229.025837 
L 258.858865 227.958845 
L 260.008717 223.572318 
L 261.158568 228.867764 
L 262.30842 232.305852 
L 263.458272 241.86927 
L 264.608123 218.948683 
L 265.757975 231.041268 
L 266.907826 224.402202 
L 268.057678 223.335209 
L 269.20753 224.283647 
L 270.357381 230.448495 
L 271.507233 235.822977 
L 272.657085 225.627268 
L 273.806936 226.417633 
L 274.956788 226.02245 
L 276.106639 227.998363 
L 277.256491 243.45 
L 278.406343 203.694637 
L 279.556194 232.424407 
L 280.706046 226.061968 
L 281.855898 226.299078 
L 283.005749 222.18918 
L 284.155601 222.505326 
L 285.305453 221.556887 
L 287.605156 228.74921 
L 288.755007 221.319778 
L 289.904859 229.302465 
L 291.054711 209.74093 
L 292.204562 222.900508 
L 293.354414 219.106756 
L 294.504266 231.23886 
L 295.654117 220.489895 
L 296.803969 214.72023 
L 297.95382 213.969383 
L 299.103672 216.854215 
L 300.253524 208.555382 
L 301.403375 230.053312 
L 302.553227 207.172243 
L 303.703079 205.986696 
L 304.85293 208.713455 
L 306.002782 215.945295 
L 307.152634 188.282518 
L 309.452337 211.519251 
L 310.602188 175.873786 
L 311.75204 222.781953 
L 312.901892 227.879808 
L 314.051743 215.075894 
L 315.201595 195.830504 
L 316.351447 169.313756 
L 317.501298 196.541833 
L 318.65115 149.198965 
L 319.801001 203.536564 
L 320.950853 169.076647 
L 322.100705 176.861743 
L 323.250556 166.586997 
L 324.400408 160.817332 
L 325.55026 166.784588 
L 326.700111 174.451129 
L 327.849963 184.212138 
L 328.999815 170.262194 
L 330.149666 159.671302 
L 331.299518 243.45 
L 332.449369 95.177512 
L 333.599221 185.51624 
L 334.749073 163.465055 
L 335.898924 165.915186 
L 337.048776 158.762382 
L 338.198628 152.834644 
L 339.348479 154.375856 
L 340.498331 144.456775 
L 341.648182 155.008148 
L 342.798034 164.453011 
L 343.947886 163.860237 
L 345.097737 170.301712 
L 346.247589 159.355156 
L 347.397441 154.929112 
L 348.547292 159.671302 
L 349.697144 162.081916 
L 350.846996 148.803782 
L 353.146699 158.090572 
L 355.446402 141.413869 
L 356.596254 146.195578 
L 357.746105 149.31752 
L 358.895957 163.662646 
L 360.045809 152.676571 
L 361.19566 151.57006 
L 362.345512 154.810557 
L 363.495364 152.439462 
L 364.645215 243.45 
L 365.795067 109.996857 
L 366.944918 178.481991 
L 368.09477 162.160952 
L 369.244622 131.810933 
L 370.394473 134.853839 
L 371.544325 127.384889 
L 372.694177 243.45 
L 373.844028 33.45 
L 374.99388 182.315262 
L 376.143731 143.666409 
L 377.293583 111.182405 
L 378.443435 119.520756 
L 379.593286 110.15493 
L 380.743138 107.507207 
L 381.89299 136.553124 
L 383.042841 150.700659 
L 384.192693 160.698777 
L 385.342545 126.950188 
L 386.492396 141.967125 
L 387.642248 143.389782 
L 388.792099 137.343489 
L 389.941951 148.290045 
L 391.091803 148.448118 
L 392.241654 170.57834 
L 393.391506 169.353274 
L 394.541358 153.071754 
L 395.691209 158.3672 
L 396.841061 152.597535 
L 397.990912 151.214396 
L 399.140764 173.779319 
L 400.290616 163.227945 
L 402.590319 183.303218 
L 403.740171 164.25542 
L 404.890022 164.01831 
L 406.039874 144.456775 
L 407.189726 185.042021 
L 408.339577 191.957715 
L 409.489429 168.404836 
L 410.63928 194.842548 
L 411.789132 186.267087 
L 412.938984 136.078905 
L 414.088835 185.358167 
L 415.238687 187.531671 
L 416.388539 189.309992 
L 417.53839 185.990459 
L 420.987945 178.521509 
L 422.137797 177.059334 
L 423.287648 198.833892 
L 424.4375 222.86099 
L 424.4375 222.86099 
" style="fill:none;stroke:#000000;stroke-dasharray:1.5,2.475;stroke-dashoffset:0;stroke-opacity:0.5;stroke-width:1.5;"/>
   </g>
   <g id="line2d_67">
    <path clip-path="url(#p7f3367f1b1)" d="M 36.9375 242.659635 
L 40.387055 242.462044 
L 42.686758 242.027343 
L 43.83661 241.671679 
L 44.986461 241.19746 
L 46.136313 240.407094 
L 47.286165 239.37962 
L 48.436016 238.154554 
L 49.585868 236.534306 
L 50.73572 235.269721 
L 51.885571 233.530918 
L 53.035423 232.424407 
L 56.484978 227.958845 
L 57.634829 227.84029 
L 58.784681 226.575706 
L 59.934533 226.338596 
L 61.084384 226.220041 
L 64.533939 227.128961 
L 65.683791 227.049925 
L 66.833642 227.682217 
L 67.983494 228.551618 
L 69.133346 228.788728 
L 70.283197 229.776684 
L 71.433049 229.618611 
L 72.582901 230.448495 
L 73.732752 230.448495 
L 74.882604 230.843677 
L 76.032455 230.32994 
L 77.182307 231.396933 
L 78.332159 231.041268 
L 80.631862 232.147779 
L 81.781714 232.226816 
L 85.231269 233.530918 
L 86.38112 234.993094 
L 87.530972 235.190685 
L 88.680823 234.676948 
L 89.830675 235.427795 
L 90.980527 234.953575 
L 92.130378 235.230203 
L 93.28023 235.07213 
L 94.430082 235.032612 
L 95.579933 236.178641 
L 96.729785 236.613342 
L 97.879636 236.731897 
L 99.029488 237.364189 
L 100.17934 237.008525 
L 101.329191 237.206116 
L 102.479043 236.88997 
L 105.928598 234.16321 
L 107.07845 233.609955 
L 110.528004 234.597911 
L 112.827708 236.178641 
L 113.977559 236.65286 
L 116.277263 236.415751 
L 117.427114 236.810933 
L 118.576966 237.640817 
L 119.726818 237.364189 
L 120.876669 237.245634 
L 122.026521 237.008525 
L 123.176372 237.008525 
L 124.326224 237.127079 
L 126.625927 236.099605 
L 127.775779 235.743941 
L 131.225334 233.926101 
L 132.375185 233.451882 
L 133.525037 233.372845 
L 134.674889 233.609955 
L 135.82474 233.333327 
L 136.974592 230.962232 
L 139.274295 229.104874 
L 140.424147 227.60318 
L 141.573999 226.496669 
L 142.72385 225.11353 
L 143.873702 224.165092 
L 145.023553 223.809428 
L 146.173405 221.438333 
L 147.323257 220.37134 
L 148.473108 220.094712 
L 150.772812 216.735661 
L 153.072515 207.488389 
L 154.222366 199.268592 
L 155.372218 192.07627 
L 156.52207 185.871904 
L 157.671921 183.856473 
L 158.821773 178.442473 
L 159.971625 175.992341 
L 161.121476 171.092078 
L 162.271328 168.444355 
L 163.42118 164.334456 
L 164.571031 161.133478 
L 165.720883 154.099228 
L 166.870734 154.731521 
L 168.020586 153.229827 
L 169.170438 152.320907 
L 170.320289 146.195578 
L 171.470141 139.003256 
L 172.619993 136.750715 
L 173.769844 137.027343 
L 174.919696 132.680335 
L 176.069547 133.154554 
L 177.219399 132.048043 
L 178.369251 133.115036 
L 179.519102 133.194072 
L 180.668954 130.625386 
L 181.818806 129.914057 
L 182.968657 131.850452 
L 184.118509 129.084174 
L 185.268361 127.740553 
L 187.568064 126.989706 
L 188.717915 124.934757 
L 189.867767 125.527531 
L 191.017619 126.594524 
L 192.16747 130.822977 
L 193.317322 134.023956 
L 194.467174 140.228321 
L 195.617025 149.198965 
L 197.916728 172.000997 
L 199.06658 180.062721 
L 200.216432 185.081539 
L 201.366283 187.847817 
L 202.516135 186.899379 
L 203.665987 185.239612 
L 204.815838 184.093583 
L 205.96569 172.751844 
L 208.265393 167.219289 
L 209.415245 165.361931 
L 210.565096 166.784588 
L 211.714948 171.882443 
L 212.8648 179.548984 
L 214.014651 194.605438 
L 215.164503 198.912928 
L 217.464206 204.564038 
L 218.614058 204.682593 
L 219.763909 205.512476 
L 220.913761 207.330316 
L 224.363316 214.759748 
L 227.812871 218.948683 
L 228.962723 213.850828 
L 230.112574 213.850828 
L 231.262426 212.981426 
L 232.412277 213.258054 
L 233.562129 214.048419 
L 234.711981 216.103368 
L 235.861832 218.672055 
L 237.011684 226.378114 
L 238.161536 226.654742 
L 239.311387 227.445107 
L 240.461239 227.484626 
L 241.611091 227.682217 
L 242.760942 227.60318 
L 246.210497 228.591137 
L 248.5102 228.867764 
L 249.660052 227.958845 
L 250.809904 227.247516 
L 251.959755 227.010406 
L 253.109607 227.366071 
L 254.259458 228.077399 
L 255.40931 228.551618 
L 256.559162 228.195954 
L 257.709013 228.591137 
L 258.858865 228.670173 
L 260.008717 229.697648 
L 261.158568 229.223429 
L 262.30842 229.618611 
L 263.458272 229.341983 
L 264.608123 228.907283 
L 265.757975 227.800772 
L 266.907826 227.049925 
L 268.057678 226.615224 
L 269.20753 227.642699 
L 270.357381 227.563662 
L 272.657085 228.274991 
L 273.806936 230.013794 
L 274.956788 227.484626 
L 276.106639 226.812815 
L 277.256491 226.654742 
L 278.406343 226.378114 
L 279.556194 225.745822 
L 280.706046 224.955457 
L 281.855898 222.979545 
L 283.005749 224.797384 
L 284.155601 224.244129 
L 285.305453 223.888464 
L 286.455304 224.402202 
L 287.605156 223.335209 
L 288.755007 222.979545 
L 289.904859 222.228698 
L 291.054711 222.426289 
L 292.204562 221.71496 
L 293.354414 221.240741 
L 294.504266 219.818084 
L 295.654117 220.094712 
L 296.803969 218.000245 
L 297.95382 218.276872 
L 299.103672 215.905777 
L 300.253524 214.443602 
L 301.403375 213.495164 
L 302.553227 213.139499 
L 303.703079 209.819966 
L 304.85293 207.68598 
L 306.002782 205.077776 
L 307.152634 201.442096 
L 308.302485 202.074388 
L 309.452337 204.168856 
L 310.602188 205.670549 
L 311.75204 207.844053 
L 314.051743 202.548607 
L 316.351447 191.681088 
L 317.501298 184.093583 
L 318.65115 179.548984 
L 319.801001 176.545597 
L 320.950853 174.964866 
L 322.100705 171.329187 
L 323.250556 172.475216 
L 324.400408 170.301712 
L 325.55026 170.934005 
L 326.700111 169.90653 
L 327.849963 178.205363 
L 328.999815 173.344618 
L 330.149666 174.016428 
L 331.299518 171.803406 
L 332.449369 168.879055 
L 334.749073 164.650602 
L 335.898924 156.509842 
L 337.048776 160.343113 
L 338.198628 156.075141 
L 339.348479 155.482367 
L 340.498331 155.403331 
L 342.798034 159.197083 
L 343.947886 160.145521 
L 345.097737 161.686733 
L 346.247589 161.963361 
L 347.397441 159.908412 
L 349.697144 156.54936 
L 350.846996 155.324294 
L 354.29655 149.594148 
L 355.446402 150.621622 
L 356.596254 150.819213 
L 357.746105 150.819213 
L 358.895957 152.004761 
L 360.045809 153.427418 
L 361.19566 163.623128 
L 362.345512 162.20047 
L 363.495364 164.650602 
L 364.645215 166.270851 
L 365.795067 163.820719 
L 366.944918 159.592266 
L 368.09477 153.625009 
L 369.244622 152.834644 
L 370.394473 146.037505 
L 371.544325 144.851957 
L 372.694177 143.113154 
L 373.844028 140.623504 
L 374.99388 137.303971 
L 376.143731 132.877926 
L 377.293583 119.125574 
L 378.443435 126.792115 
L 379.593286 122.998363 
L 380.743138 126.555006 
L 384.192693 139.951694 
L 385.342545 142.797008 
L 386.492396 143.310745 
L 387.642248 142.915563 
L 388.792099 144.812439 
L 389.941951 150.503067 
L 392.241654 156.272732 
L 393.391506 158.3672 
L 394.541358 158.3672 
L 395.691209 159.987448 
L 396.841061 159.27612 
L 397.990912 160.422149 
L 399.140764 164.650602 
L 401.440467 168.800019 
L 402.590319 167.851581 
L 403.740171 168.009654 
L 404.890022 170.459785 
L 406.039874 170.538822 
L 407.189726 172.988954 
L 408.339577 177.059334 
L 409.489429 175.55764 
L 410.63928 178.323918 
L 411.789132 177.454516 
L 412.938984 177.13837 
L 414.088835 179.311874 
L 415.238687 179.469947 
L 416.388539 180.576458 
L 417.53839 184.804912 
L 418.688242 183.382254 
L 419.838093 183.93551 
L 420.987945 187.768781 
L 422.137797 189.981803 
L 423.287648 193.024708 
L 424.4375 197.134607 
L 424.4375 197.134607 
" style="fill:none;stroke:#b3220f;stroke-linecap:square;stroke-width:1.5;"/>
   </g>
   <g id="patch_3">
    <path d="M 36.9375 253.95 
L 36.9375 22.95 
" style="fill:none;stroke:#000000;stroke-linecap:square;stroke-linejoin:miter;stroke-width:0.8;"/>
   </g>
   <g id="patch_4">
    <path d="M 424.4375 253.95 
L 424.4375 22.95 
" style="fill:none;stroke:#000000;stroke-linecap:square;stroke-linejoin:miter;stroke-width:0.8;"/>
   </g>
   <g id="patch_5">
    <path d="M 36.9375 253.95 
L 424.4375 253.95 
" style="fill:none;stroke:#000000;stroke-linecap:square;stroke-linejoin:miter;stroke-width:0.8;"/>
   </g>
   <g id="patch_6">
    <path d="M 36.9375 22.95 
L 424.4375 22.95 
" style="fill:none;stroke:#000000;stroke-linecap:square;stroke-linejoin:miter;stroke-width:0.8;"/>
   </g>
   <g id="text_19">
    <!-- Miami-Dade | New Cases per Day as of [2021-02-15] -->
    <g transform="translate(92.832813 16.95)scale(0.12 -0.12)">
     <defs>
      <path d="M 20.359375 71.09375 
L 43.609375 13.09375 
L 66.84375 71.09375 
L 79 71.09375 
L 79 0 
L 69.625 0 
L 69.625 27.6875 
L 70.515625 57.5625 
L 47.171875 0 
L 39.984375 0 
L 16.703125 57.421875 
L 17.625 27.6875 
L 17.625 0 
L 8.25 0 
L 8.25 71.09375 
z
" id="Roboto-Regular-77"/>
      <path d="M 16.65625 0 
L 7.625 0 
L 7.625 52.828125 
L 16.65625 52.828125 
z
M 6.890625 66.84375 
Q 6.890625 69.046875 8.234375 70.5625 
Q 9.578125 72.078125 12.203125 72.078125 
Q 14.84375 72.078125 16.203125 70.5625 
Q 17.578125 69.046875 17.578125 66.84375 
Q 17.578125 64.65625 16.203125 63.1875 
Q 14.84375 61.71875 12.203125 61.71875 
Q 9.578125 61.71875 8.234375 63.1875 
Q 6.890625 64.65625 6.890625 66.84375 
z
" id="Roboto-Regular-105"/>
      <path d="M 15.328125 52.828125 
L 15.578125 46.96875 
Q 21.390625 53.8125 31.25 53.8125 
Q 42.328125 53.8125 46.34375 45.3125 
Q 48.96875 49.125 53.1875 51.46875 
Q 57.421875 53.8125 63.1875 53.8125 
Q 80.5625 53.8125 80.859375 35.40625 
L 80.859375 0 
L 71.828125 0 
L 71.828125 34.859375 
Q 71.828125 40.53125 69.234375 43.328125 
Q 66.65625 46.140625 60.546875 46.140625 
Q 55.515625 46.140625 52.1875 43.140625 
Q 48.875 40.140625 48.34375 35.0625 
L 48.34375 0 
L 39.265625 0 
L 39.265625 34.625 
Q 39.265625 46.140625 27.984375 46.140625 
Q 19.09375 46.140625 15.828125 38.578125 
L 15.828125 0 
L 6.78125 0 
L 6.78125 52.828125 
z
" id="Roboto-Regular-109"/>
      <path d="M 25.640625 26.515625 
L 1.8125 26.515625 
L 1.8125 33.890625 
L 25.640625 33.890625 
z
" id="Roboto-Regular-45"/>
      <path d="M 8.25 0 
L 8.25 71.09375 
L 28.328125 71.09375 
Q 37.59375 71.09375 44.71875 66.984375 
Q 51.859375 62.890625 55.734375 55.3125 
Q 59.625 47.75 59.671875 37.9375 
L 59.671875 33.40625 
Q 59.671875 23.34375 55.78125 15.765625 
Q 51.90625 8.203125 44.703125 4.140625 
Q 37.5 0.09375 27.9375 0 
z
M 17.625 63.375 
L 17.625 7.671875 
L 27.484375 7.671875 
Q 38.328125 7.671875 44.359375 14.40625 
Q 50.390625 21.140625 50.390625 33.59375 
L 50.390625 37.75 
Q 50.390625 49.859375 44.703125 56.5625 
Q 39.015625 63.28125 28.5625 63.375 
z
" id="Roboto-Regular-68"/>
      <path id="Roboto-Regular-32"/>
      <path d="M 15.828125 -13.1875 
L 8.546875 -13.1875 
L 8.546875 71.09375 
L 15.828125 71.09375 
z
" id="Roboto-Regular-124"/>
      <path d="M 62.890625 0 
L 53.46875 0 
L 17.671875 54.78125 
L 17.671875 0 
L 8.25 0 
L 8.25 71.09375 
L 17.671875 71.09375 
L 53.5625 16.0625 
L 53.5625 71.09375 
L 62.890625 71.09375 
z
" id="Roboto-Regular-78"/>
      <path d="M 53.609375 12.453125 
L 63.765625 52.828125 
L 72.796875 52.828125 
L 57.421875 0 
L 50.09375 0 
L 37.25 40.046875 
L 24.75 0 
L 17.4375 0 
L 2.09375 52.828125 
L 11.078125 52.828125 
L 21.484375 13.28125 
L 33.796875 52.828125 
L 41.0625 52.828125 
z
" id="Roboto-Regular-119"/>
      <path d="M 60.546875 22.5625 
Q 59.234375 11.28125 52.21875 5.140625 
Q 45.21875 -0.984375 33.59375 -0.984375 
Q 21 -0.984375 13.40625 8.046875 
Q 5.8125 17.09375 5.8125 32.234375 
L 5.8125 39.0625 
Q 5.8125 48.96875 9.34375 56.484375 
Q 12.890625 64.015625 19.375 68.046875 
Q 25.875 72.078125 34.421875 72.078125 
Q 45.75 72.078125 52.578125 65.75 
Q 59.421875 59.421875 60.546875 48.25 
L 51.125 48.25 
Q 49.90625 56.734375 45.828125 60.546875 
Q 41.75 64.359375 34.421875 64.359375 
Q 25.4375 64.359375 20.328125 57.71875 
Q 15.234375 51.078125 15.234375 38.8125 
L 15.234375 31.9375 
Q 15.234375 20.359375 20.0625 13.515625 
Q 24.90625 6.6875 33.59375 6.6875 
Q 41.40625 6.6875 45.578125 10.21875 
Q 49.75 13.765625 51.125 22.5625 
z
" id="Roboto-Regular-67"/>
      <path d="M 37.59375 14.015625 
Q 37.59375 17.671875 34.828125 19.703125 
Q 32.078125 21.734375 25.21875 23.1875 
Q 18.359375 24.65625 14.328125 26.703125 
Q 10.296875 28.765625 8.375 31.59375 
Q 6.453125 34.421875 6.453125 38.328125 
Q 6.453125 44.828125 11.9375 49.3125 
Q 17.4375 53.8125 25.984375 53.8125 
Q 34.96875 53.8125 40.546875 49.171875 
Q 46.140625 44.53125 46.140625 37.3125 
L 37.0625 37.3125 
Q 37.0625 41.015625 33.90625 43.703125 
Q 30.765625 46.390625 25.984375 46.390625 
Q 21.046875 46.390625 18.265625 44.234375 
Q 15.484375 42.09375 15.484375 38.625 
Q 15.484375 35.359375 18.0625 33.6875 
Q 20.65625 32.03125 27.421875 30.515625 
Q 34.1875 29 38.375 26.90625 
Q 42.578125 24.8125 44.59375 21.84375 
Q 46.625 18.890625 46.625 14.65625 
Q 46.625 7.5625 40.953125 3.28125 
Q 35.296875 -0.984375 26.265625 -0.984375 
Q 19.921875 -0.984375 15.03125 1.265625 
Q 10.15625 3.515625 7.390625 7.546875 
Q 4.640625 11.578125 4.640625 16.265625 
L 13.671875 16.265625 
Q 13.921875 11.71875 17.3125 9.046875 
Q 20.703125 6.390625 26.265625 6.390625 
Q 31.390625 6.390625 34.484375 8.46875 
Q 37.59375 10.546875 37.59375 14.015625 
z
" id="Roboto-Regular-115"/>
      <path d="M 51.46875 25.828125 
Q 51.46875 13.765625 45.953125 6.390625 
Q 40.4375 -0.984375 31 -0.984375 
Q 21.390625 -0.984375 15.875 5.125 
L 15.875 -20.3125 
L 6.84375 -20.3125 
L 6.84375 52.828125 
L 15.09375 52.828125 
L 15.53125 46.96875 
Q 21.046875 53.8125 30.859375 53.8125 
Q 40.375 53.8125 45.921875 46.625 
Q 51.46875 39.453125 51.46875 26.65625 
z
M 42.4375 26.859375 
Q 42.4375 35.796875 38.625 40.96875 
Q 34.8125 46.140625 28.171875 46.140625 
Q 19.96875 46.140625 15.875 38.875 
L 15.875 13.625 
Q 19.921875 6.390625 28.265625 6.390625 
Q 34.765625 6.390625 38.59375 11.546875 
Q 42.4375 16.703125 42.4375 26.859375 
z
" id="Roboto-Regular-112"/>
      <path d="M 32.375 44.734375 
Q 30.328125 45.0625 27.9375 45.0625 
Q 19.046875 45.0625 15.875 37.5 
L 15.875 0 
L 6.84375 0 
L 6.84375 52.828125 
L 15.625 52.828125 
L 15.765625 46.734375 
Q 20.21875 53.8125 28.375 53.8125 
Q 31 53.8125 32.375 53.125 
z
" id="Roboto-Regular-114"/>
      <path d="M 24.125 13.234375 
L 36.421875 52.828125 
L 46.09375 52.828125 
L 24.859375 -8.15625 
Q 19.921875 -21.34375 9.1875 -21.34375 
L 7.46875 -21.1875 
L 4.109375 -20.5625 
L 4.109375 -13.234375 
L 6.546875 -13.421875 
Q 11.140625 -13.421875 13.703125 -11.5625 
Q 16.265625 -9.71875 17.921875 -4.78125 
L 19.921875 0.59375 
L 1.078125 52.828125 
L 10.9375 52.828125 
z
" id="Roboto-Regular-121"/>
      <path d="M 4.4375 26.90625 
Q 4.4375 34.671875 7.484375 40.875 
Q 10.546875 47.078125 15.984375 50.4375 
Q 21.4375 53.8125 28.421875 53.8125 
Q 39.203125 53.8125 45.875 46.34375 
Q 52.546875 38.875 52.546875 26.46875 
L 52.546875 25.828125 
Q 52.546875 18.109375 49.578125 11.984375 
Q 46.625 5.859375 41.125 2.4375 
Q 35.640625 -0.984375 28.515625 -0.984375 
Q 17.78125 -0.984375 11.109375 6.484375 
Q 4.4375 13.96875 4.4375 26.265625 
z
M 13.53125 25.828125 
Q 13.53125 17.046875 17.609375 11.71875 
Q 21.6875 6.390625 28.515625 6.390625 
Q 35.40625 6.390625 39.453125 11.78125 
Q 43.5 17.1875 43.5 26.90625 
Q 43.5 35.59375 39.375 40.984375 
Q 35.25 46.390625 28.421875 46.390625 
Q 21.734375 46.390625 17.625 41.0625 
Q 13.53125 35.75 13.53125 25.828125 
z
" id="Roboto-Regular-111"/>
      <path d="M 11.28125 0 
L 11.28125 45.84375 
L 2.9375 45.84375 
L 2.9375 52.828125 
L 11.28125 52.828125 
L 11.28125 58.25 
Q 11.28125 66.75 15.8125 71.390625 
Q 20.359375 76.03125 28.65625 76.03125 
Q 31.78125 76.03125 34.859375 75.203125 
L 34.375 67.875 
Q 32.078125 68.3125 29.5 68.3125 
Q 25.09375 68.3125 22.703125 65.75 
Q 20.3125 63.1875 20.3125 58.40625 
L 20.3125 52.828125 
L 31.59375 52.828125 
L 31.59375 45.84375 
L 20.3125 45.84375 
L 20.3125 0 
z
" id="Roboto-Regular-102"/>
      <path d="M 25.53125 73.828125 
L 16.21875 73.828125 
L 16.21875 -7.8125 
L 25.53125 -7.8125 
L 25.53125 -15.234375 
L 7.125 -15.234375 
L 7.125 81.25 
L 25.53125 81.25 
z
" id="Roboto-Regular-91"/>
      <path d="M 52.484375 0 
L 5.90625 0 
L 5.90625 6.5 
L 30.515625 33.84375 
Q 35.984375 40.046875 38.0625 43.921875 
Q 40.140625 47.796875 40.140625 51.953125 
Q 40.140625 57.515625 36.765625 61.078125 
Q 33.40625 64.65625 27.78125 64.65625 
Q 21.046875 64.65625 17.3125 60.8125 
Q 13.578125 56.984375 13.578125 50.140625 
L 4.546875 50.140625 
Q 4.546875 59.96875 10.859375 66.015625 
Q 17.1875 72.078125 27.78125 72.078125 
Q 37.703125 72.078125 43.453125 66.875 
Q 49.21875 61.671875 49.21875 53.03125 
Q 49.21875 42.53125 35.84375 28.03125 
L 16.796875 7.375 
L 52.484375 7.375 
z
" id="Roboto-Regular-50"/>
      <path d="M 50.484375 30.328125 
Q 50.484375 14.453125 45.0625 6.734375 
Q 39.65625 -0.984375 28.125 -0.984375 
Q 16.75 -0.984375 11.28125 6.5625 
Q 5.8125 14.109375 5.609375 29.109375 
L 5.609375 41.15625 
Q 5.609375 56.84375 11.03125 64.453125 
Q 16.453125 72.078125 28.03125 72.078125 
Q 39.5 72.078125 44.921875 64.71875 
Q 50.34375 57.375 50.484375 42.046875 
z
M 41.453125 42.671875 
Q 41.453125 54.15625 38.234375 59.40625 
Q 35.015625 64.65625 28.03125 64.65625 
Q 21.09375 64.65625 17.921875 59.421875 
Q 14.75 54.203125 14.65625 43.359375 
L 14.65625 28.90625 
Q 14.65625 17.390625 18 11.890625 
Q 21.34375 6.390625 28.125 6.390625 
Q 34.8125 6.390625 38.0625 11.5625 
Q 41.3125 16.75 41.453125 27.875 
z
" id="Roboto-Regular-48"/>
      <path d="M 35.59375 0 
L 26.515625 0 
L 26.515625 60.203125 
L 8.296875 53.515625 
L 8.296875 61.71875 
L 34.1875 71.4375 
L 35.59375 71.4375 
z
" id="Roboto-Regular-49"/>
      <path d="M 10.0625 35.640625 
L 13.671875 71.09375 
L 50.09375 71.09375 
L 50.09375 62.75 
L 21.34375 62.75 
L 19.1875 43.359375 
Q 24.421875 46.4375 31.0625 46.4375 
Q 40.765625 46.4375 46.484375 40.015625 
Q 52.203125 33.59375 52.203125 22.65625 
Q 52.203125 11.671875 46.265625 5.34375 
Q 40.328125 -0.984375 29.6875 -0.984375 
Q 20.265625 -0.984375 14.296875 4.234375 
Q 8.34375 9.46875 7.515625 18.703125 
L 16.0625 18.703125 
Q 16.890625 12.59375 20.40625 9.484375 
Q 23.921875 6.390625 29.6875 6.390625 
Q 35.984375 6.390625 39.578125 10.6875 
Q 43.171875 14.984375 43.171875 22.5625 
Q 43.171875 29.6875 39.28125 34 
Q 35.40625 38.328125 28.953125 38.328125 
Q 23.046875 38.328125 19.671875 35.75 
L 17.28125 33.796875 
z
" id="Roboto-Regular-53"/>
      <path d="M 0.4375 81.25 
L 18.890625 81.25 
L 18.890625 -15.234375 
L 0.4375 -15.234375 
L 0.4375 -7.8125 
L 9.859375 -7.8125 
L 9.859375 73.828125 
L 0.4375 73.828125 
z
" id="Roboto-Regular-93"/>
     </defs>
     <use xlink:href="#Roboto-Regular-77"/>
     <use x="87.304688" xlink:href="#Roboto-Regular-105"/>
     <use x="111.572266" xlink:href="#Roboto-Regular-97"/>
     <use x="165.966797" xlink:href="#Roboto-Regular-109"/>
     <use x="253.613281" xlink:href="#Roboto-Regular-105"/>
     <use x="277.880859" xlink:href="#Roboto-Regular-45"/>
     <use x="305.46875" xlink:href="#Roboto-Regular-68"/>
     <use x="371.044922" xlink:href="#Roboto-Regular-97"/>
     <use x="425.439453" xlink:href="#Roboto-Regular-100"/>
     <use x="481.835938" xlink:href="#Roboto-Regular-101"/>
     <use x="534.814453" xlink:href="#Roboto-Regular-32"/>
     <use x="559.570312" xlink:href="#Roboto-Regular-124"/>
     <use x="583.935547" xlink:href="#Roboto-Regular-32"/>
     <use x="608.691406" xlink:href="#Roboto-Regular-78"/>
     <use x="679.980469" xlink:href="#Roboto-Regular-101"/>
     <use x="732.958984" xlink:href="#Roboto-Regular-119"/>
     <use x="808.105469" xlink:href="#Roboto-Regular-32"/>
     <use x="832.861328" xlink:href="#Roboto-Regular-67"/>
     <use x="897.949219" xlink:href="#Roboto-Regular-97"/>
     <use x="952.34375" xlink:href="#Roboto-Regular-115"/>
     <use x="1003.90625" xlink:href="#Roboto-Regular-101"/>
     <use x="1056.884766" xlink:href="#Roboto-Regular-115"/>
     <use x="1108.447266" xlink:href="#Roboto-Regular-32"/>
     <use x="1133.203125" xlink:href="#Roboto-Regular-112"/>
     <use x="1189.306641" xlink:href="#Roboto-Regular-101"/>
     <use x="1242.285156" xlink:href="#Roboto-Regular-114"/>
     <use x="1276.123047" xlink:href="#Roboto-Regular-32"/>
     <use x="1300.878906" xlink:href="#Roboto-Regular-68"/>
     <use x="1366.455078" xlink:href="#Roboto-Regular-97"/>
     <use x="1420.849609" xlink:href="#Roboto-Regular-121"/>
     <use x="1468.164062" xlink:href="#Roboto-Regular-32"/>
     <use x="1492.919922" xlink:href="#Roboto-Regular-97"/>
     <use x="1547.314453" xlink:href="#Roboto-Regular-115"/>
     <use x="1598.876953" xlink:href="#Roboto-Regular-32"/>
     <use x="1623.632812" xlink:href="#Roboto-Regular-111"/>
     <use x="1680.664062" xlink:href="#Roboto-Regular-102"/>
     <use x="1715.380859" xlink:href="#Roboto-Regular-32"/>
     <use x="1740.136719" xlink:href="#Roboto-Regular-91"/>
     <use x="1766.650391" xlink:href="#Roboto-Regular-50"/>
     <use x="1822.802734" xlink:href="#Roboto-Regular-48"/>
     <use x="1878.955078" xlink:href="#Roboto-Regular-50"/>
     <use x="1935.107422" xlink:href="#Roboto-Regular-49"/>
     <use x="1991.259766" xlink:href="#Roboto-Regular-45"/>
     <use x="2018.847656" xlink:href="#Roboto-Regular-48"/>
     <use x="2075" xlink:href="#Roboto-Regular-50"/>
     <use x="2131.152344" xlink:href="#Roboto-Regular-45"/>
     <use x="2158.740234" xlink:href="#Roboto-Regular-49"/>
     <use x="2214.892578" xlink:href="#Roboto-Regular-53"/>
     <use x="2271.044922" xlink:href="#Roboto-Regular-93"/>
    </g>
   </g>
   <g id="legend_1">
    <g id="patch_7">
     <path d="M 43.9375 60.115625 
L 141.134375 60.115625 
Q 143.134375 60.115625 143.134375 58.115625 
L 143.134375 29.95 
Q 143.134375 27.95 141.134375 27.95 
L 43.9375 27.95 
Q 41.9375 27.95 41.9375 29.95 
L 41.9375 58.115625 
Q 41.9375 60.115625 43.9375 60.115625 
z
" style="fill:#ffffff;opacity:0.8;stroke:#cccccc;stroke-linejoin:miter;"/>
    </g>
    <g id="line2d_68">
     <path d="M 45.9375 35.95 
L 65.9375 35.95 
" style="fill:none;stroke:#000000;stroke-dasharray:1.5,2.475;stroke-dashoffset:0;stroke-opacity:0.5;stroke-width:1.5;"/>
    </g>
    <g id="line2d_69"/>
    <g id="text_20">
     <!-- Actual -->
     <g transform="translate(73.9375 39.45)scale(0.1 -0.1)">
      <use xlink:href="#Roboto-Medium-65"/>
      <use x="66.552734" xlink:href="#Roboto-Medium-99"/>
      <use x="118.896484" xlink:href="#Roboto-Medium-116"/>
      <use x="152.148438" xlink:href="#Roboto-Medium-117"/>
      <use x="207.714844" xlink:href="#Roboto-Medium-97"/>
      <use x="261.816406" xlink:href="#Roboto-Medium-108"/>
     </g>
    </g>
    <g id="line2d_70">
     <path d="M 45.9375 50.48125 
L 65.9375 50.48125 
" style="fill:none;stroke:#b3220f;stroke-linecap:square;stroke-width:1.5;"/>
    </g>
    <g id="line2d_71"/>
    <g id="text_21">
     <!-- 7-Day Average -->
     <g transform="translate(73.9375 53.98125)scale(0.1 -0.1)">
      <defs>
       <path d="M 52.640625 64.5 
L 24.21875 0 
L 11.765625 0 
L 40.140625 61.578125 
L 3.375 61.578125 
L 3.375 71.09375 
L 52.640625 71.09375 
z
" id="Roboto-Medium-55"/>
       <path d="M 29.109375 25.4375 
L 3.46875 25.4375 
L 3.46875 35.015625 
L 29.109375 35.015625 
z
" id="Roboto-Medium-45"/>
       <path id="Roboto-Medium-32"/>
      </defs>
      <use xlink:href="#Roboto-Medium-55"/>
      <use x="56.835938" xlink:href="#Roboto-Medium-45"/>
      <use x="89.648438" xlink:href="#Roboto-Medium-68"/>
      <use x="154.980469" xlink:href="#Roboto-Medium-97"/>
      <use x="209.082031" xlink:href="#Roboto-Medium-121"/>
      <use x="257.763672" xlink:href="#Roboto-Medium-32"/>
      <use x="282.666016" xlink:href="#Roboto-Medium-65"/>
      <use x="349.21875" xlink:href="#Roboto-Medium-118"/>
      <use x="398.681641" xlink:href="#Roboto-Medium-101"/>
      <use x="452.34375" xlink:href="#Roboto-Medium-114"/>
      <use x="487.5" xlink:href="#Roboto-Medium-97"/>
      <use x="541.601562" xlink:href="#Roboto-Medium-103"/>
      <use x="598.291016" xlink:href="#Roboto-Medium-101"/>
     </g>
    </g>
   </g>
  </g>
 </g>
 <defs>
  <clipPath id="p7f3367f1b1">
   <rect height="231" width="387.5" x="36.9375" y="22.95"/>
  </clipPath>
 </defs>
</svg>
