<?xml version="1.0" encoding="utf-8" standalone="no"?>
<!DOCTYPE svg PUBLIC "-//W3C//DTD SVG 1.1//EN"
  "http://www.w3.org/Graphics/SVG/1.1/DTD/svg11.dtd">
<!-- Created with matplotlib (https://matplotlib.org/) -->
<svg height="538.890812pt" version="1.1" viewBox="0 0 728.664097 538.890812" width="728.664097pt" xmlns="http://www.w3.org/2000/svg" xmlns:xlink="http://www.w3.org/1999/xlink">
 <metadata>
  <rdf:RDF xmlns:cc="http://creativecommons.org/ns#" xmlns:dc="http://purl.org/dc/elements/1.1/" xmlns:rdf="http://www.w3.org/1999/02/22-rdf-syntax-ns#">
   <cc:Work>
    <dc:type rdf:resource="http://purl.org/dc/dcmitype/StillImage"/>
    <dc:date>2021-06-17T20:21:26.813917</dc:date>
    <dc:format>image/svg+xml</dc:format>
    <dc:creator>
     <cc:Agent>
      <dc:title>Matplotlib v3.3.4, https://matplotlib.org/</dc:title>
     </cc:Agent>
    </dc:creator>
   </cc:Work>
  </rdf:RDF>
 </metadata>
 <defs>
  <style type="text/css">*{stroke-linecap:butt;stroke-linejoin:round;}</style>
 </defs>
 <g id="figure_1">
  <g id="patch_1">
   <path d="M 0 538.890812 
L 728.664097 538.890812 
L 728.664097 0 
L 0 0 
z
" style="fill:#f0f0f0;"/>
  </g>
  <g id="axes_1">
   <g id="patch_2">
    <path d="M 80.748125 515.4355 
L 707.148125 515.4355 
L 707.148125 31.5955 
L 80.748125 31.5955 
z
" style="fill:#f0f0f0;"/>
   </g>
   <g id="matplotlib.axis_1">
    <g id="xtick_1">
     <g id="line2d_1">
      <path clip-path="url(#p374be3ded7)" d="M 85.818611 515.4355 
L 85.818611 31.5955 
" style="fill:none;stroke:#cbcbcb;"/>
     </g>
     <g id="line2d_2"/>
     <g id="text_1">
      <!-- 2020-01 -->
      <g style="fill:#555555;" transform="translate(59.745798 528.932375)scale(0.14 -0.14)">
       <defs>
        <path d="M 4.40625 45.796875 
L 12.90625 45.796875 
Q 12.796875 49 13.546875 52.140625 
Q 14.296875 55.296875 16 57.796875 
Q 17.703125 60.296875 20.34375 61.84375 
Q 23 63.40625 26.703125 63.40625 
Q 29.5 63.40625 32 62.5 
Q 34.5 61.59375 36.34375 59.890625 
Q 38.203125 58.203125 39.296875 55.84375 
Q 40.40625 53.5 40.40625 50.59375 
Q 40.40625 46.90625 39.25 44.09375 
Q 38.09375 41.296875 35.84375 38.890625 
Q 33.59375 36.5 30.1875 34.140625 
Q 26.796875 31.796875 22.296875 29 
Q 18.59375 26.796875 15.1875 24.296875 
Q 11.796875 21.796875 9.09375 18.5 
Q 6.40625 15.203125 4.65625 10.75 
Q 2.90625 6.296875 2.40625 0 
L 48.703125 0 
L 48.703125 7.5 
L 12.296875 7.5 
Q 12.90625 10.796875 14.84375 13.34375 
Q 16.796875 15.90625 19.546875 18.09375 
Q 22.296875 20.296875 25.59375 22.25 
Q 28.90625 24.203125 32.203125 26.203125 
Q 35.5 28.296875 38.59375 30.59375 
Q 41.703125 32.90625 44.09375 35.75 
Q 46.5 38.59375 47.953125 42.1875 
Q 49.40625 45.796875 49.40625 50.5 
Q 49.40625 55.5 47.65625 59.296875 
Q 45.90625 63.09375 42.90625 65.640625 
Q 39.90625 68.203125 35.84375 69.546875 
Q 31.796875 70.90625 27.203125 70.90625 
Q 21.59375 70.90625 17.1875 69 
Q 12.796875 67.09375 9.84375 63.75 
Q 6.90625 60.40625 5.5 55.796875 
Q 4.09375 51.203125 4.40625 45.796875 
z
" id="HelveticaNeue-50"/>
        <path d="M 13.203125 34.90625 
Q 13.203125 37.5 13.25 40.640625 
Q 13.296875 43.796875 13.75 46.9375 
Q 14.203125 50.09375 15.046875 53.09375 
Q 15.90625 56.09375 17.546875 58.34375 
Q 19.203125 60.59375 21.703125 62 
Q 24.203125 63.40625 27.796875 63.40625 
Q 31.40625 63.40625 33.90625 62 
Q 36.40625 60.59375 38.046875 58.34375 
Q 39.703125 56.09375 40.546875 53.09375 
Q 41.40625 50.09375 41.84375 46.9375 
Q 42.296875 43.796875 42.34375 40.640625 
Q 42.40625 37.5 42.40625 34.90625 
Q 42.40625 30.90625 42.15625 25.953125 
Q 41.90625 21 40.546875 16.640625 
Q 39.203125 12.296875 36.203125 9.296875 
Q 33.203125 6.296875 27.796875 6.296875 
Q 22.40625 6.296875 19.40625 9.296875 
Q 16.40625 12.296875 15.046875 16.640625 
Q 13.703125 21 13.453125 25.953125 
Q 13.203125 30.90625 13.203125 34.90625 
z
M 4.203125 34.796875 
Q 4.203125 30.90625 4.390625 26.703125 
Q 4.59375 22.5 5.390625 18.5 
Q 6.203125 14.5 7.703125 10.953125 
Q 9.203125 7.40625 11.796875 4.703125 
Q 14.40625 2 18.34375 0.453125 
Q 22.296875 -1.09375 27.796875 -1.09375 
Q 33.40625 -1.09375 37.296875 0.453125 
Q 41.203125 2 43.796875 4.703125 
Q 46.40625 7.40625 47.90625 10.953125 
Q 49.40625 14.5 50.203125 18.5 
Q 51 22.5 51.203125 26.703125 
Q 51.40625 30.90625 51.40625 34.796875 
Q 51.40625 38.703125 51.203125 42.890625 
Q 51 47.09375 50.203125 51.09375 
Q 49.40625 55.09375 47.90625 58.6875 
Q 46.40625 62.296875 43.796875 65 
Q 41.203125 67.703125 37.25 69.296875 
Q 33.296875 70.90625 27.796875 70.90625 
Q 22.296875 70.90625 18.34375 69.296875 
Q 14.40625 67.703125 11.796875 65 
Q 9.203125 62.296875 7.703125 58.6875 
Q 6.203125 55.09375 5.390625 51.09375 
Q 4.59375 47.09375 4.390625 42.890625 
Q 4.203125 38.703125 4.203125 34.796875 
z
" id="HelveticaNeue-48"/>
        <path d="M 5 31.796875 
L 5 23.796875 
L 33.90625 23.796875 
L 33.90625 31.796875 
z
" id="HelveticaNeue-45"/>
        <path d="M 35.59375 0 
L 35.59375 70.90625 
L 29.09375 70.90625 
Q 28.40625 66.90625 26.5 64.296875 
Q 24.59375 61.703125 21.84375 60.203125 
Q 19.09375 58.703125 15.6875 58.140625 
Q 12.296875 57.59375 8.703125 57.59375 
L 8.703125 50.796875 
L 27.09375 50.796875 
L 27.09375 0 
z
" id="HelveticaNeue-49"/>
       </defs>
       <use xlink:href="#HelveticaNeue-50"/>
       <use x="55.599991" xlink:href="#HelveticaNeue-48"/>
       <use x="111.199982" xlink:href="#HelveticaNeue-50"/>
       <use x="166.799973" xlink:href="#HelveticaNeue-48"/>
       <use x="222.399963" xlink:href="#HelveticaNeue-45"/>
       <use x="261.299957" xlink:href="#HelveticaNeue-48"/>
       <use x="316.899948" xlink:href="#HelveticaNeue-49"/>
      </g>
     </g>
    </g>
    <g id="xtick_2">
     <g id="line2d_3">
      <path clip-path="url(#p374be3ded7)" d="M 152.682158 515.4355 
L 152.682158 31.5955 
" style="fill:none;stroke:#cbcbcb;"/>
     </g>
     <g id="line2d_4"/>
     <g id="text_2">
      <!-- 2020-03 -->
      <g style="fill:#555555;" transform="translate(126.609346 528.932375)scale(0.14 -0.14)">
       <defs>
        <path d="M 21.796875 40.5 
L 21.796875 33.296875 
Q 24.203125 33.59375 26.90625 33.59375 
Q 30.09375 33.59375 32.84375 32.75 
Q 35.59375 31.90625 37.59375 30.15625 
Q 39.59375 28.40625 40.796875 25.84375 
Q 42 23.296875 42 20 
Q 42 16.796875 40.75 14.25 
Q 39.5 11.703125 37.390625 9.953125 
Q 35.296875 8.203125 32.5 7.25 
Q 29.703125 6.296875 26.59375 6.296875 
Q 19.296875 6.296875 15.5 10.640625 
Q 11.703125 15 11.5 21.90625 
L 3 21.90625 
Q 2.90625 16.40625 4.546875 12.09375 
Q 6.203125 7.796875 9.296875 4.84375 
Q 12.40625 1.90625 16.796875 0.40625 
Q 21.203125 -1.09375 26.59375 -1.09375 
Q 31.59375 -1.09375 36.046875 0.25 
Q 40.5 1.59375 43.796875 4.296875 
Q 47.09375 7 49.046875 11.046875 
Q 51 15.09375 51 20.40625 
Q 51 26.796875 47.84375 31.5 
Q 44.703125 36.203125 38.203125 37.59375 
L 38.203125 37.796875 
Q 42.40625 39.703125 45.203125 43.390625 
Q 48 47.09375 48 51.90625 
Q 48 56.796875 46.34375 60.390625 
Q 44.703125 64 41.796875 66.296875 
Q 38.90625 68.59375 34.953125 69.75 
Q 31 70.90625 26.40625 70.90625 
Q 21.09375 70.90625 17.046875 69.203125 
Q 13 67.5 10.296875 64.5 
Q 7.59375 61.5 6.140625 57.296875 
Q 4.703125 53.09375 4.5 48 
L 13 48 
Q 13 51.09375 13.796875 53.890625 
Q 14.59375 56.703125 16.25 58.796875 
Q 17.90625 60.90625 20.453125 62.15625 
Q 23 63.40625 26.40625 63.40625 
Q 31.796875 63.40625 35.390625 60.546875 
Q 39 57.703125 39 52 
Q 39 49.203125 37.890625 47 
Q 36.796875 44.796875 34.9375 43.34375 
Q 33.09375 41.90625 30.640625 41.15625 
Q 28.203125 40.40625 25.5 40.40625 
L 23.703125 40.40625 
Q 23.203125 40.40625 22.703125 40.40625 
Q 22.296875 40.40625 21.796875 40.5 
z
" id="HelveticaNeue-51"/>
       </defs>
       <use xlink:href="#HelveticaNeue-50"/>
       <use x="55.599991" xlink:href="#HelveticaNeue-48"/>
       <use x="111.199982" xlink:href="#HelveticaNeue-50"/>
       <use x="166.799973" xlink:href="#HelveticaNeue-48"/>
       <use x="222.399963" xlink:href="#HelveticaNeue-45"/>
       <use x="261.299957" xlink:href="#HelveticaNeue-48"/>
       <use x="316.899948" xlink:href="#HelveticaNeue-51"/>
      </g>
     </g>
    </g>
    <g id="xtick_3">
     <g id="line2d_5">
      <path clip-path="url(#p374be3ded7)" d="M 220.660098 515.4355 
L 220.660098 31.5955 
" style="fill:none;stroke:#cbcbcb;"/>
     </g>
     <g id="line2d_6"/>
     <g id="text_3">
      <!-- 2020-05 -->
      <g style="fill:#555555;" transform="translate(194.587285 528.932375)scale(0.14 -0.14)">
       <defs>
        <path d="M 47 62.203125 
L 47 69.703125 
L 12 69.703125 
L 5.40625 32.90625 
L 12.703125 32.5 
Q 15.203125 35.5 18.453125 37.34375 
Q 21.703125 39.203125 25.90625 39.203125 
Q 29.5 39.203125 32.453125 38 
Q 35.40625 36.796875 37.5 34.640625 
Q 39.59375 32.5 40.75 29.546875 
Q 41.90625 26.59375 41.90625 23.09375 
Q 41.90625 18.90625 40.703125 15.75 
Q 39.5 12.59375 37.453125 10.5 
Q 35.40625 8.40625 32.65625 7.34375 
Q 29.90625 6.296875 26.90625 6.296875 
Q 23.703125 6.296875 21.046875 7.25 
Q 18.40625 8.203125 16.453125 9.953125 
Q 14.5 11.703125 13.34375 14.046875 
Q 12.203125 16.40625 12 19.09375 
L 3.5 19.09375 
Q 3.59375 14.296875 5.390625 10.5 
Q 7.203125 6.703125 10.296875 4.140625 
Q 13.40625 1.59375 17.453125 0.25 
Q 21.5 -1.09375 26.09375 -1.09375 
Q 32.296875 -1.09375 36.9375 0.84375 
Q 41.59375 2.796875 44.6875 6.09375 
Q 47.796875 9.40625 49.34375 13.65625 
Q 50.90625 17.90625 50.90625 22.40625 
Q 50.90625 28.5 49.09375 33.046875 
Q 47.296875 37.59375 44.1875 40.640625 
Q 41.09375 43.703125 36.890625 45.203125 
Q 32.703125 46.703125 28 46.703125 
Q 24.40625 46.703125 20.75 45.453125 
Q 17.09375 44.203125 14.796875 41.59375 
L 14.59375 41.796875 
L 18.40625 62.203125 
z
" id="HelveticaNeue-53"/>
       </defs>
       <use xlink:href="#HelveticaNeue-50"/>
       <use x="55.599991" xlink:href="#HelveticaNeue-48"/>
       <use x="111.199982" xlink:href="#HelveticaNeue-50"/>
       <use x="166.799973" xlink:href="#HelveticaNeue-48"/>
       <use x="222.399963" xlink:href="#HelveticaNeue-45"/>
       <use x="261.299957" xlink:href="#HelveticaNeue-48"/>
       <use x="316.899948" xlink:href="#HelveticaNeue-53"/>
      </g>
     </g>
    </g>
    <g id="xtick_4">
     <g id="line2d_7">
      <path clip-path="url(#p374be3ded7)" d="M 288.638038 515.4355 
L 288.638038 31.5955 
" style="fill:none;stroke:#cbcbcb;"/>
     </g>
     <g id="line2d_8"/>
     <g id="text_4">
      <!-- 2020-07 -->
      <g style="fill:#555555;" transform="translate(262.565225 528.932375)scale(0.14 -0.14)">
       <defs>
        <path d="M 50.90625 62.40625 
L 50.90625 69.703125 
L 5 69.703125 
L 5 61.703125 
L 42.203125 61.703125 
Q 36.59375 55.796875 31.75 48.796875 
Q 26.90625 41.796875 23.203125 33.9375 
Q 19.5 26.09375 17.140625 17.546875 
Q 14.796875 9 14.203125 0 
L 23.703125 0 
Q 24.203125 8.296875 26.5 17.09375 
Q 28.796875 25.90625 32.4375 34.203125 
Q 36.09375 42.5 40.796875 49.796875 
Q 45.5 57.09375 50.90625 62.40625 
z
" id="HelveticaNeue-55"/>
       </defs>
       <use xlink:href="#HelveticaNeue-50"/>
       <use x="55.599991" xlink:href="#HelveticaNeue-48"/>
       <use x="111.199982" xlink:href="#HelveticaNeue-50"/>
       <use x="166.799973" xlink:href="#HelveticaNeue-48"/>
       <use x="222.399963" xlink:href="#HelveticaNeue-45"/>
       <use x="261.299957" xlink:href="#HelveticaNeue-48"/>
       <use x="316.899948" xlink:href="#HelveticaNeue-55"/>
      </g>
     </g>
    </g>
    <g id="xtick_5">
     <g id="line2d_9">
      <path clip-path="url(#p374be3ded7)" d="M 357.73037 515.4355 
L 357.73037 31.5955 
" style="fill:none;stroke:#cbcbcb;"/>
     </g>
     <g id="line2d_10"/>
     <g id="text_5">
      <!-- 2020-09 -->
      <g style="fill:#555555;" transform="translate(331.657558 528.932375)scale(0.14 -0.14)">
       <defs>
        <path d="M 13.40625 17.09375 
L 4.90625 17.09375 
Q 5.703125 7.90625 11.59375 3.40625 
Q 17.5 -1.09375 26.40625 -1.09375 
Q 39.296875 -1.09375 45.140625 8.75 
Q 51 18.59375 51 37 
Q 51 47.09375 49.046875 53.640625 
Q 47.09375 60.203125 43.796875 64 
Q 40.5 67.796875 36.09375 69.34375 
Q 31.703125 70.90625 26.703125 70.90625 
Q 21.59375 70.90625 17.296875 69.203125 
Q 13 67.5 9.890625 64.453125 
Q 6.796875 61.40625 5.09375 57.15625 
Q 3.40625 52.90625 3.40625 47.796875 
Q 3.40625 42.59375 4.84375 38.1875 
Q 6.296875 33.796875 9.140625 30.6875 
Q 12 27.59375 16.203125 25.84375 
Q 20.40625 24.09375 25.796875 24.09375 
Q 31 24.09375 35.390625 26.75 
Q 39.796875 29.40625 42.203125 33.90625 
L 42.40625 33.703125 
Q 42 19.796875 38.09375 13.046875 
Q 34.203125 6.296875 26.40625 6.296875 
Q 21.296875 6.296875 17.59375 9.09375 
Q 13.90625 11.90625 13.40625 17.09375 
z
M 40.90625 47.203125 
Q 40.90625 44.09375 39.90625 41.25 
Q 38.90625 38.40625 37 36.25 
Q 35.09375 34.09375 32.390625 32.84375 
Q 29.703125 31.59375 26.40625 31.59375 
Q 23.296875 31.59375 20.75 32.84375 
Q 18.203125 34.09375 16.34375 36.1875 
Q 14.5 38.296875 13.453125 41 
Q 12.40625 43.703125 12.40625 46.59375 
Q 12.40625 49.90625 13.15625 52.90625 
Q 13.90625 55.90625 15.546875 58.25 
Q 17.203125 60.59375 19.84375 62 
Q 22.5 63.40625 26.296875 63.40625 
Q 29.90625 63.40625 32.59375 62.09375 
Q 35.296875 60.796875 37.140625 58.546875 
Q 39 56.296875 39.953125 53.390625 
Q 40.90625 50.5 40.90625 47.203125 
z
" id="HelveticaNeue-57"/>
       </defs>
       <use xlink:href="#HelveticaNeue-50"/>
       <use x="55.599991" xlink:href="#HelveticaNeue-48"/>
       <use x="111.199982" xlink:href="#HelveticaNeue-50"/>
       <use x="166.799973" xlink:href="#HelveticaNeue-48"/>
       <use x="222.399963" xlink:href="#HelveticaNeue-45"/>
       <use x="261.299957" xlink:href="#HelveticaNeue-48"/>
       <use x="316.899948" xlink:href="#HelveticaNeue-57"/>
      </g>
     </g>
    </g>
    <g id="xtick_6">
     <g id="line2d_11">
      <path clip-path="url(#p374be3ded7)" d="M 425.70831 515.4355 
L 425.70831 31.5955 
" style="fill:none;stroke:#cbcbcb;"/>
     </g>
     <g id="line2d_12"/>
     <g id="text_6">
      <!-- 2020-11 -->
      <g style="fill:#555555;" transform="translate(399.635498 528.932375)scale(0.14 -0.14)">
       <use xlink:href="#HelveticaNeue-50"/>
       <use x="55.599991" xlink:href="#HelveticaNeue-48"/>
       <use x="111.199982" xlink:href="#HelveticaNeue-50"/>
       <use x="166.799973" xlink:href="#HelveticaNeue-48"/>
       <use x="222.399963" xlink:href="#HelveticaNeue-45"/>
       <use x="261.299957" xlink:href="#HelveticaNeue-49"/>
       <use x="316.899948" xlink:href="#HelveticaNeue-49"/>
      </g>
     </g>
    </g>
    <g id="xtick_7">
     <g id="line2d_13">
      <path clip-path="url(#p374be3ded7)" d="M 493.68625 515.4355 
L 493.68625 31.5955 
" style="fill:none;stroke:#cbcbcb;"/>
     </g>
     <g id="line2d_14"/>
     <g id="text_7">
      <!-- 2021-01 -->
      <g style="fill:#555555;" transform="translate(467.613437 528.932375)scale(0.14 -0.14)">
       <use xlink:href="#HelveticaNeue-50"/>
       <use x="55.599991" xlink:href="#HelveticaNeue-48"/>
       <use x="111.199982" xlink:href="#HelveticaNeue-50"/>
       <use x="166.799973" xlink:href="#HelveticaNeue-49"/>
       <use x="222.399963" xlink:href="#HelveticaNeue-45"/>
       <use x="261.299957" xlink:href="#HelveticaNeue-48"/>
       <use x="316.899948" xlink:href="#HelveticaNeue-49"/>
      </g>
     </g>
    </g>
    <g id="xtick_8">
     <g id="line2d_15">
      <path clip-path="url(#p374be3ded7)" d="M 559.435405 515.4355 
L 559.435405 31.5955 
" style="fill:none;stroke:#cbcbcb;"/>
     </g>
     <g id="line2d_16"/>
     <g id="text_8">
      <!-- 2021-03 -->
      <g style="fill:#555555;" transform="translate(533.362592 528.932375)scale(0.14 -0.14)">
       <use xlink:href="#HelveticaNeue-50"/>
       <use x="55.599991" xlink:href="#HelveticaNeue-48"/>
       <use x="111.199982" xlink:href="#HelveticaNeue-50"/>
       <use x="166.799973" xlink:href="#HelveticaNeue-49"/>
       <use x="222.399963" xlink:href="#HelveticaNeue-45"/>
       <use x="261.299957" xlink:href="#HelveticaNeue-48"/>
       <use x="316.899948" xlink:href="#HelveticaNeue-51"/>
      </g>
     </g>
    </g>
    <g id="xtick_9">
     <g id="line2d_17">
      <path clip-path="url(#p374be3ded7)" d="M 627.413345 515.4355 
L 627.413345 31.5955 
" style="fill:none;stroke:#cbcbcb;"/>
     </g>
     <g id="line2d_18"/>
     <g id="text_9">
      <!-- 2021-05 -->
      <g style="fill:#555555;" transform="translate(601.340532 528.932375)scale(0.14 -0.14)">
       <use xlink:href="#HelveticaNeue-50"/>
       <use x="55.599991" xlink:href="#HelveticaNeue-48"/>
       <use x="111.199982" xlink:href="#HelveticaNeue-50"/>
       <use x="166.799973" xlink:href="#HelveticaNeue-49"/>
       <use x="222.399963" xlink:href="#HelveticaNeue-45"/>
       <use x="261.299957" xlink:href="#HelveticaNeue-48"/>
       <use x="316.899948" xlink:href="#HelveticaNeue-53"/>
      </g>
     </g>
    </g>
    <g id="xtick_10">
     <g id="line2d_19">
      <path clip-path="url(#p374be3ded7)" d="M 695.391285 515.4355 
L 695.391285 31.5955 
" style="fill:none;stroke:#cbcbcb;"/>
     </g>
     <g id="line2d_20"/>
     <g id="text_10">
      <!-- 2021-07 -->
      <g style="fill:#555555;" transform="translate(669.318472 528.932375)scale(0.14 -0.14)">
       <use xlink:href="#HelveticaNeue-50"/>
       <use x="55.599991" xlink:href="#HelveticaNeue-48"/>
       <use x="111.199982" xlink:href="#HelveticaNeue-50"/>
       <use x="166.799973" xlink:href="#HelveticaNeue-49"/>
       <use x="222.399963" xlink:href="#HelveticaNeue-45"/>
       <use x="261.299957" xlink:href="#HelveticaNeue-48"/>
       <use x="316.899948" xlink:href="#HelveticaNeue-55"/>
      </g>
     </g>
    </g>
   </g>
   <g id="matplotlib.axis_2">
    <g id="ytick_1">
     <g id="line2d_21">
      <path clip-path="url(#p374be3ded7)" d="M 80.748125 497.215626 
L 707.148125 497.215626 
" style="fill:none;stroke:#cbcbcb;"/>
     </g>
     <g id="line2d_22"/>
     <g id="text_11">
      <!-- 1 -->
      <g style="fill:#555555;" transform="translate(69.465 502.214064)scale(0.14 -0.14)">
       <use xlink:href="#HelveticaNeue-49"/>
      </g>
     </g>
    </g>
    <g id="ytick_2">
     <g id="line2d_23">
      <path clip-path="url(#p374be3ded7)" d="M 80.748125 430.698466 
L 707.148125 430.698466 
" style="fill:none;stroke:#cbcbcb;"/>
     </g>
     <g id="line2d_24"/>
     <g id="text_12">
      <!-- 10 -->
      <g style="fill:#555555;" transform="translate(61.681875 435.696903)scale(0.14 -0.14)">
       <use xlink:href="#HelveticaNeue-49"/>
       <use x="55.599991" xlink:href="#HelveticaNeue-48"/>
      </g>
     </g>
    </g>
    <g id="ytick_3">
     <g id="line2d_25">
      <path clip-path="url(#p374be3ded7)" d="M 80.748125 364.181305 
L 707.148125 364.181305 
" style="fill:none;stroke:#cbcbcb;"/>
     </g>
     <g id="line2d_26"/>
     <g id="text_13">
      <!-- 100 -->
      <g style="fill:#555555;" transform="translate(53.89875 369.179742)scale(0.14 -0.14)">
       <use xlink:href="#HelveticaNeue-49"/>
       <use x="55.599991" xlink:href="#HelveticaNeue-48"/>
       <use x="111.199982" xlink:href="#HelveticaNeue-48"/>
      </g>
     </g>
    </g>
    <g id="ytick_4">
     <g id="line2d_27">
      <path clip-path="url(#p374be3ded7)" d="M 80.748125 297.664144 
L 707.148125 297.664144 
" style="fill:none;stroke:#cbcbcb;"/>
     </g>
     <g id="line2d_28"/>
     <g id="text_14">
      <!-- 1,000 -->
      <g style="fill:#555555;" transform="translate(42.224063 302.662581)scale(0.14 -0.14)">
       <defs>
        <path d="M 8.296875 11.09375 
L 8.296875 0 
L 14.203125 0 
Q 14.296875 -1.203125 14.046875 -2.59375 
Q 13.796875 -4 13.09375 -5.34375 
Q 12.40625 -6.703125 11.25 -7.84375 
Q 10.09375 -9 8.40625 -9.59375 
L 8.40625 -14.59375 
Q 14.203125 -12.90625 16.796875 -8.796875 
Q 19.40625 -4.703125 19.40625 1 
L 19.40625 11.09375 
z
" id="HelveticaNeue-44"/>
       </defs>
       <use xlink:href="#HelveticaNeue-49"/>
       <use x="55.599991" xlink:href="#HelveticaNeue-44"/>
       <use x="83.399979" xlink:href="#HelveticaNeue-48"/>
       <use x="138.999969" xlink:href="#HelveticaNeue-48"/>
       <use x="194.59996" xlink:href="#HelveticaNeue-48"/>
      </g>
     </g>
    </g>
    <g id="ytick_5">
     <g id="line2d_29">
      <path clip-path="url(#p374be3ded7)" d="M 80.748125 231.146983 
L 707.148125 231.146983 
" style="fill:none;stroke:#cbcbcb;"/>
     </g>
     <g id="line2d_30"/>
     <g id="text_15">
      <!-- 10,000 -->
      <g style="fill:#555555;" transform="translate(34.440938 236.14542)scale(0.14 -0.14)">
       <use xlink:href="#HelveticaNeue-49"/>
       <use x="55.599991" xlink:href="#HelveticaNeue-48"/>
       <use x="111.199982" xlink:href="#HelveticaNeue-44"/>
       <use x="138.999969" xlink:href="#HelveticaNeue-48"/>
       <use x="194.59996" xlink:href="#HelveticaNeue-48"/>
       <use x="250.199951" xlink:href="#HelveticaNeue-48"/>
      </g>
     </g>
    </g>
    <g id="ytick_6">
     <g id="line2d_31">
      <path clip-path="url(#p374be3ded7)" d="M 80.748125 164.629822 
L 707.148125 164.629822 
" style="fill:none;stroke:#cbcbcb;"/>
     </g>
     <g id="line2d_32"/>
     <g id="text_16">
      <!-- 100,000 -->
      <g style="fill:#555555;" transform="translate(26.657813 169.628259)scale(0.14 -0.14)">
       <use xlink:href="#HelveticaNeue-49"/>
       <use x="55.599991" xlink:href="#HelveticaNeue-48"/>
       <use x="111.199982" xlink:href="#HelveticaNeue-48"/>
       <use x="166.799973" xlink:href="#HelveticaNeue-44"/>
       <use x="194.59996" xlink:href="#HelveticaNeue-48"/>
       <use x="250.199951" xlink:href="#HelveticaNeue-48"/>
       <use x="305.799942" xlink:href="#HelveticaNeue-48"/>
      </g>
     </g>
    </g>
    <g id="ytick_7">
     <g id="line2d_33">
      <path clip-path="url(#p374be3ded7)" d="M 80.748125 98.112661 
L 707.148125 98.112661 
" style="fill:none;stroke:#cbcbcb;"/>
     </g>
     <g id="line2d_34"/>
     <g id="text_17">
      <!-- 1,000,000 -->
      <g style="fill:#555555;" transform="translate(14.983125 103.111098)scale(0.14 -0.14)">
       <use xlink:href="#HelveticaNeue-49"/>
       <use x="55.599991" xlink:href="#HelveticaNeue-44"/>
       <use x="83.399979" xlink:href="#HelveticaNeue-48"/>
       <use x="138.999969" xlink:href="#HelveticaNeue-48"/>
       <use x="194.59996" xlink:href="#HelveticaNeue-48"/>
       <use x="250.199951" xlink:href="#HelveticaNeue-44"/>
       <use x="277.999939" xlink:href="#HelveticaNeue-48"/>
       <use x="333.59993" xlink:href="#HelveticaNeue-48"/>
       <use x="389.199921" xlink:href="#HelveticaNeue-48"/>
      </g>
     </g>
    </g>
    <g id="ytick_8">
     <g id="line2d_35">
      <path clip-path="url(#p374be3ded7)" d="M 80.748125 31.5955 
L 707.148125 31.5955 
" style="fill:none;stroke:#cbcbcb;"/>
     </g>
     <g id="line2d_36"/>
     <g id="text_18">
      <!-- 10,000,000 -->
      <g style="fill:#555555;" transform="translate(7.2 36.593937)scale(0.14 -0.14)">
       <use xlink:href="#HelveticaNeue-49"/>
       <use x="55.599991" xlink:href="#HelveticaNeue-48"/>
       <use x="111.199982" xlink:href="#HelveticaNeue-44"/>
       <use x="138.999969" xlink:href="#HelveticaNeue-48"/>
       <use x="194.59996" xlink:href="#HelveticaNeue-48"/>
       <use x="250.199951" xlink:href="#HelveticaNeue-48"/>
       <use x="305.799942" xlink:href="#HelveticaNeue-44"/>
       <use x="333.59993" xlink:href="#HelveticaNeue-48"/>
       <use x="389.199921" xlink:href="#HelveticaNeue-48"/>
       <use x="444.799911" xlink:href="#HelveticaNeue-48"/>
      </g>
     </g>
    </g>
    <g id="ytick_9">
     <g id="line2d_37"/>
    </g>
    <g id="ytick_10">
     <g id="line2d_38"/>
    </g>
    <g id="ytick_11">
     <g id="line2d_39"/>
    </g>
    <g id="ytick_12">
     <g id="line2d_40"/>
    </g>
    <g id="ytick_13">
     <g id="line2d_41"/>
    </g>
    <g id="ytick_14">
     <g id="line2d_42"/>
    </g>
    <g id="ytick_15">
     <g id="line2d_43"/>
    </g>
    <g id="ytick_16">
     <g id="line2d_44"/>
    </g>
    <g id="ytick_17">
     <g id="line2d_45"/>
    </g>
    <g id="ytick_18">
     <g id="line2d_46"/>
    </g>
    <g id="ytick_19">
     <g id="line2d_47"/>
    </g>
    <g id="ytick_20">
     <g id="line2d_48"/>
    </g>
    <g id="ytick_21">
     <g id="line2d_49"/>
    </g>
    <g id="ytick_22">
     <g id="line2d_50"/>
    </g>
    <g id="ytick_23">
     <g id="line2d_51"/>
    </g>
    <g id="ytick_24">
     <g id="line2d_52"/>
    </g>
    <g id="ytick_25">
     <g id="line2d_53"/>
    </g>
    <g id="ytick_26">
     <g id="line2d_54"/>
    </g>
    <g id="ytick_27">
     <g id="line2d_55"/>
    </g>
    <g id="ytick_28">
     <g id="line2d_56"/>
    </g>
    <g id="ytick_29">
     <g id="line2d_57"/>
    </g>
    <g id="ytick_30">
     <g id="line2d_58"/>
    </g>
    <g id="ytick_31">
     <g id="line2d_59"/>
    </g>
    <g id="ytick_32">
     <g id="line2d_60"/>
    </g>
    <g id="ytick_33">
     <g id="line2d_61"/>
    </g>
    <g id="ytick_34">
     <g id="line2d_62"/>
    </g>
    <g id="ytick_35">
     <g id="line2d_63"/>
    </g>
    <g id="ytick_36">
     <g id="line2d_64"/>
    </g>
    <g id="ytick_37">
     <g id="line2d_65"/>
    </g>
    <g id="ytick_38">
     <g id="line2d_66"/>
    </g>
    <g id="ytick_39">
     <g id="line2d_67"/>
    </g>
    <g id="ytick_40">
     <g id="line2d_68"/>
    </g>
    <g id="ytick_41">
     <g id="line2d_69"/>
    </g>
    <g id="ytick_42">
     <g id="line2d_70"/>
    </g>
    <g id="ytick_43">
     <g id="line2d_71"/>
    </g>
    <g id="ytick_44">
     <g id="line2d_72"/>
    </g>
    <g id="ytick_45">
     <g id="line2d_73"/>
    </g>
    <g id="ytick_46">
     <g id="line2d_74"/>
    </g>
    <g id="ytick_47">
     <g id="line2d_75"/>
    </g>
    <g id="ytick_48">
     <g id="line2d_76"/>
    </g>
    <g id="ytick_49">
     <g id="line2d_77"/>
    </g>
    <g id="ytick_50">
     <g id="line2d_78"/>
    </g>
    <g id="ytick_51">
     <g id="line2d_79"/>
    </g>
    <g id="ytick_52">
     <g id="line2d_80"/>
    </g>
    <g id="ytick_53">
     <g id="line2d_81"/>
    </g>
    <g id="ytick_54">
     <g id="line2d_82"/>
    </g>
    <g id="ytick_55">
     <g id="line2d_83"/>
    </g>
    <g id="ytick_56">
     <g id="line2d_84"/>
    </g>
    <g id="ytick_57">
     <g id="line2d_85"/>
    </g>
    <g id="ytick_58">
     <g id="line2d_86"/>
    </g>
    <g id="ytick_59">
     <g id="line2d_87"/>
    </g>
    <g id="ytick_60">
     <g id="line2d_88"/>
    </g>
    <g id="ytick_61">
     <g id="line2d_89"/>
    </g>
    <g id="ytick_62">
     <g id="line2d_90"/>
    </g>
    <g id="ytick_63">
     <g id="line2d_91"/>
    </g>
    <g id="ytick_64">
     <g id="line2d_92"/>
    </g>
    <g id="ytick_65">
     <g id="line2d_93"/>
    </g>
    <g id="ytick_66">
     <g id="line2d_94"/>
    </g>
    <g id="ytick_67">
     <g id="line2d_95"/>
    </g>
    <g id="ytick_68">
     <g id="line2d_96"/>
    </g>
   </g>
   <g id="line2d_97">
    <path clip-path="url(#p374be3ded7)" d="M 111.448922 539.890812 
L 111.449637 497.215626 
L 112.56403 497.215626 
L 113.678422 477.191966 
L 113.679472 539.890812 
M 118.135277 539.890812 
L 118.135992 497.215626 
L 120.364777 497.215626 
L 121.479169 465.478875 
L 121.480415 539.890812 
M 124.821632 539.890812 
L 124.822347 497.215626 
L 124.823062 539.890812 
M 130.393594 539.890812 
L 130.394309 497.215626 
L 130.395024 539.890812 
M 132.622379 539.890812 
L 132.623094 497.215626 
L 133.737486 497.215626 
L 133.738201 539.890812 
M 138.193229 539.890812 
L 138.195056 430.698466 
L 138.196884 539.890812 
M 141.537183 539.890812 
L 141.538234 477.191966 
L 142.652626 465.478875 
L 142.653872 539.890812 
M 145.993849 539.890812 
L 145.995803 423.119277 
L 147.110196 477.191966 
L 148.224588 418.985375 
L 148.226611 539.890812 
M 150.45188 539.890812 
L 150.453373 450.722126 
L 151.567766 450.722126 
L 152.682158 413.718463 
L 153.796551 417.120984 
L 154.910943 409.265353 
L 156.025335 393.694803 
L 157.139728 375.750315 
L 158.25412 369.564 
L 159.368513 359.645775 
L 160.482905 359.156135 
L 161.597298 344.013564 
L 162.71169 335.488212 
L 163.826083 338.295082 
L 164.940475 323.775121 
L 166.054868 314.621045 
L 167.16926 309.061201 
L 168.283652 307.885363 
L 169.398045 300.483987 
L 170.512437 287.964763 
L 172.741222 257.307933 
L 173.855615 247.798953 
L 174.970007 243.520433 
L 176.0844 235.689302 
L 177.198792 229.925224 
L 178.313185 229.922455 
L 179.427577 220.147502 
L 180.54197 215.821574 
L 181.656362 215.26278 
L 182.770754 209.623221 
L 183.885147 213.344264 
L 184.999539 209.075803 
L 186.113932 205.253686 
L 189.457109 197.260183 
L 190.571502 194.875525 
L 191.685894 203.97397 
L 192.800287 198.541381 
L 193.914679 199.087532 
L 195.029071 197.708794 
L 196.143464 195.206633 
L 197.257856 196.245785 
L 198.372249 197.799723 
L 199.486641 202.301294 
L 200.601034 203.80194 
L 201.715426 202.786404 
L 202.829819 199.378472 
L 203.944211 197.897335 
L 205.058604 197.992527 
L 207.287388 204.293754 
L 208.401781 202.03433 
L 209.516173 204.089228 
L 210.630566 200.558421 
L 211.744958 195.985465 
L 212.859351 193.554745 
L 213.973743 195.449921 
L 215.088136 202.738821 
L 216.202528 206.839495 
L 217.316921 205.083261 
L 218.431313 202.933975 
L 219.545706 199.068493 
L 220.660098 195.820015 
L 221.77449 199.921228 
L 222.888883 203.389 
L 224.003275 208.419939 
L 225.117668 206.208819 
L 226.23206 205.253686 
L 227.346453 200.914302 
L 228.460845 201.768766 
L 229.575238 204.830076 
L 230.68963 210.669037 
L 231.804023 214.781729 
L 232.918415 207.978732 
L 234.032807 209.515091 
L 235.1472 202.494576 
L 236.261592 203.282001 
L 237.375985 206.269805 
L 238.490377 212.583807 
L 239.60477 208.598061 
L 240.719162 209.745527 
L 241.833555 206.998087 
L 242.947947 203.842325 
L 244.06234 206.099367 
L 245.176732 208.020216 
L 246.291124 211.07858 
L 247.405517 212.453441 
L 249.634302 212.996959 
L 250.748694 207.705399 
L 251.863087 205.204218 
L 252.977479 206.591496 
L 254.091872 210.221786 
L 255.206264 208.505564 
L 256.320657 210.002815 
L 257.435049 211.142105 
L 258.549441 208.878678 
L 259.663834 200.680921 
L 260.778226 207.700266 
L 261.892619 213.194908 
L 263.007011 213.836664 
L 264.121404 212.903099 
L 265.235796 207.272363 
L 266.350189 206.833269 
L 267.464581 204.113015 
L 268.578974 204.293754 
L 269.693366 212.408103 
L 270.807759 210.954819 
L 271.922151 204.810335 
L 273.036543 203.930022 
L 275.265328 198.616231 
L 276.379721 197.52328 
L 277.494113 203.126075 
L 279.722898 194.907641 
L 280.837291 193.360407 
L 283.066076 187.360161 
L 285.29486 191.457188 
L 286.409253 191.465963 
L 287.523645 185.59958 
L 288.638038 184.66793 
L 289.75243 181.608033 
L 290.866823 180.79039 
L 291.981215 184.650016 
L 293.095608 187.847105 
L 294.21 186.247365 
L 295.324393 182.385327 
L 296.438785 179.650169 
L 297.553177 179.440063 
L 298.66757 175.674579 
L 299.781962 179.041502 
L 300.896355 180.463207 
L 303.12514 176.807978 
L 304.239532 175.625928 
L 305.353925 172.676982 
L 306.468317 174.55504 
L 307.58271 178.229961 
L 308.697102 178.311488 
L 309.811495 179.440546 
L 310.925887 176.951448 
L 312.040279 175.041373 
L 313.154672 174.930984 
L 314.269064 173.514184 
L 315.383457 176.295575 
L 316.497849 182.314375 
L 317.612242 179.783608 
L 318.726634 177.923977 
L 319.841027 176.292979 
L 320.955419 175.370902 
L 322.069812 175.312304 
L 323.184204 180.955636 
L 324.298596 184.198345 
L 325.412989 186.144977 
L 326.527381 182.672511 
L 327.641774 182.578795 
L 329.870559 178.834816 
L 330.984951 181.774376 
L 332.099344 185.545304 
L 333.213736 186.334804 
L 334.328129 182.776275 
L 335.442521 182.281891 
L 336.556913 182.397615 
L 337.671306 179.639482 
L 338.785698 184.227365 
L 339.900091 189.596133 
L 341.014483 192.94634 
L 342.128876 188.854349 
L 343.243268 189.001727 
L 345.472053 185.220007 
L 346.586446 187.680455 
L 347.700838 197.246778 
L 348.81523 190.809356 
L 349.929623 191.695809 
L 351.044015 187.493079 
L 352.158408 187.308178 
L 353.2728 186.710175 
L 354.387193 187.948595 
L 355.501585 196.282919 
L 356.615978 193.756732 
L 357.73037 188.314185 
L 358.844763 197.147774 
L 359.959155 186.815835 
L 361.073548 183.462755 
L 362.18794 189.516032 
L 363.302332 199.411194 
L 364.416725 204.485961 
L 367.759902 192.535847 
L 368.874295 186.093919 
L 369.988687 191.754111 
L 371.10308 196.358197 
L 372.217472 193.440178 
L 373.331865 191.670753 
L 374.446257 191.633209 
L 375.560649 187.498817 
L 376.675042 185.303795 
L 377.789434 189.820499 
L 378.903827 193.859052 
L 380.018219 181.926432 
L 381.132612 193.048143 
L 382.247004 190.000699 
L 383.361397 187.567756 
L 384.475789 182.121075 
L 385.590182 189.21474 
L 386.704574 193.120083 
L 387.818966 193.072103 
L 388.933359 188.545959 
L 390.047751 189.650344 
L 391.162144 186.800895 
L 392.276536 182.655792 
L 393.390929 185.966062 
L 394.505321 194.905169 
L 395.619714 178.248007 
L 396.734106 189.103319 
L 397.848499 182.960944 
L 398.962891 181.182738 
L 400.077284 179.890707 
L 402.306068 187.836782 
L 403.420461 185.823122 
L 404.534853 182.220219 
L 406.763638 176.917834 
L 407.878031 174.743016 
L 408.992423 183.100771 
L 410.106816 185.903854 
L 411.221208 176.879403 
L 412.335601 179.101986 
L 413.449993 177.415401 
L 414.564385 172.891132 
L 415.678778 169.223912 
L 416.79317 171.593001 
L 417.907563 179.524116 
L 419.021955 173.082872 
L 420.136348 173.177474 
L 423.479525 164.667979 
L 424.593918 169.594419 
L 425.70831 173.252133 
L 426.822702 166.413286 
L 427.937095 166.908223 
L 429.051487 162.385178 
L 430.16588 159.043781 
L 431.280272 156.430033 
L 432.394665 157.969053 
L 433.509057 163.659487 
L 434.62345 156.952802 
L 435.737842 154.961432 
L 436.852235 154.320551 
L 437.966627 150.402501 
L 439.08102 147.410561 
L 440.195412 151.227462 
L 441.309804 155.920402 
L 442.424197 149.891567 
L 443.538589 150.758817 
L 444.652982 148.916149 
L 445.767374 146.469936 
L 446.881767 144.770713 
L 447.996159 148.974225 
L 449.110552 154.745605 
L 450.224944 147.711996 
L 451.339337 147.994999 
L 452.453729 147.555286 
L 453.568121 163.776207 
L 454.682514 143.77429 
L 455.796906 152.646834 
L 456.911299 155.720653 
L 458.025691 149.707098 
L 460.254476 144.437371 
L 461.368869 142.152988 
L 462.483261 140.397276 
L 463.597654 143.793102 
L 464.712046 148.975906 
L 465.826438 143.96395 
L 466.940831 141.890022 
L 468.055223 141.888838 
L 469.169616 141.177332 
L 470.284008 134.831304 
L 471.398401 143.537806 
L 472.512793 146.980373 
L 473.627186 144.477176 
L 474.741578 144.159129 
L 475.855971 138.764122 
L 476.970363 139.617307 
L 478.084755 138.022686 
L 479.199148 145.500218 
L 480.31354 147.663785 
L 481.427933 144.387729 
L 482.542325 144.374257 
L 483.656718 140.850929 
L 484.77111 145.556736 
L 485.885503 164.355536 
L 486.999895 142.267853 
L 488.114288 152.517003 
L 489.22868 146.238992 
L 490.343073 144.457913 
L 491.457465 140.699507 
L 492.571857 140.444261 
L 493.68625 153.450475 
L 494.800642 133.712188 
L 495.915035 144.349622 
L 497.029427 137.949292 
L 498.14382 139.948302 
L 500.372605 134.851391 
L 501.486997 132.818155 
L 503.715782 143.431516 
L 504.830174 141.03517 
L 505.944567 140.571602 
L 507.058959 140.65324 
L 508.173352 139.399375 
L 509.287744 139.357069 
L 511.516529 149.285045 
L 512.630922 154.676749 
L 513.745314 146.557115 
L 514.859707 146.782215 
L 515.974099 146.01458 
L 517.088491 145.850651 
L 518.202884 149.656992 
L 519.317276 157.122721 
L 520.431669 151.677255 
L 521.546061 152.795847 
L 522.660454 151.825788 
L 523.774846 149.957897 
L 524.889239 150.230892 
L 526.003631 156.21832 
L 527.118024 160.895144 
L 528.232416 154.529547 
L 529.346809 160.533151 
L 531.575593 158.037723 
L 532.689986 157.161509 
L 533.804378 163.234129 
L 534.918771 168.559344 
L 536.033163 166.730596 
L 537.147556 165.695566 
L 538.261948 166.119796 
L 539.376341 163.046192 
L 540.490733 164.737196 
L 541.605126 169.4408 
L 542.719518 177.6212 
L 543.83391 181.757124 
L 544.948303 177.281698 
L 546.062695 174.867094 
L 547.177088 174.203234 
L 548.29148 171.802939 
L 549.405873 175.04883 
L 550.520265 181.80577 
L 551.634658 179.644339 
L 552.74905 174.156193 
L 553.863443 173.252912 
L 554.977835 171.851118 
L 556.092227 171.689848 
L 558.321012 184.134717 
L 559.435405 181.022815 
L 560.549797 180.543779 
L 561.66419 176.366177 
L 562.778582 176.07707 
L 563.892975 176.765735 
L 565.007367 181.078917 
L 566.12176 191.052756 
L 567.236152 166.260054 
L 568.350544 181.43799 
L 569.464937 180.268959 
L 570.579329 178.260043 
L 571.693722 177.446448 
L 573.922507 192.589788 
L 575.036899 180.785336 
L 576.151292 182.147551 
L 577.265684 179.905409 
L 578.380077 179.163074 
L 579.494469 179.088163 
L 580.608862 182.20376 
L 581.723254 195.630996 
L 582.837646 182.049712 
L 583.952039 180.996841 
L 585.066431 171.111049 
L 586.180824 175.303106 
L 587.295216 173.133236 
L 588.409609 179.051019 
L 589.524001 188.01018 
L 590.638394 174.630084 
L 591.752786 178.331442 
L 592.867179 175.797205 
L 593.981571 172.107819 
L 595.095963 175.52171 
L 596.210356 177.460858 
L 597.324748 193.490343 
L 598.439141 172.332858 
L 599.553533 178.452386 
L 600.667926 173.683628 
L 601.782318 170.913961 
L 602.896711 170.509961 
L 604.011103 177.182047 
L 605.125496 185.846595 
L 606.239888 174.146955 
L 607.35428 172.062199 
L 608.468673 172.651802 
L 609.583065 173.44786 
L 610.697458 171.676572 
L 611.81185 182.497713 
L 612.926243 190.105174 
L 614.040635 174.825538 
L 615.155028 178.898655 
L 616.26942 178.209615 
L 617.383813 176.527518 
L 618.498205 177.619842 
L 619.612598 184.384348 
L 620.72699 196.144127 
L 621.841382 186.235768 
L 622.955775 183.589999 
L 625.18456 180.574867 
L 626.298952 180.109559 
L 627.413345 187.852268 
L 628.527737 199.765808 
L 629.64213 184.686434 
L 630.756522 190.418064 
L 631.870915 187.878096 
L 632.985307 186.018712 
L 634.099699 186.140111 
L 635.214092 196.0797 
L 636.328484 207.942483 
L 637.442877 193.69978 
L 638.557269 195.758851 
L 639.671662 194.560378 
L 640.786054 192.254114 
L 641.900447 190.399731 
L 643.014839 200.339817 
L 644.129232 216.315222 
L 645.243624 200.184112 
L 646.358016 201.544992 
L 648.586801 199.785312 
L 649.701194 200.37763 
L 650.815586 213.664235 
L 651.929979 221.117051 
L 653.044371 203.96044 
L 654.158764 207.296392 
L 655.273156 206.603846 
L 656.387549 201.661346 
L 657.501941 208.775957 
L 658.616334 227.031767 
L 659.730726 239.67794 
L 660.845118 248.119475 
L 661.959511 207.558203 
L 663.073903 216.055348 
L 664.188296 211.847298 
L 664.193768 539.890812 
M 666.411908 539.890812 
L 666.417081 229.883716 
L 667.531473 245.204506 
L 668.645866 219.946849 
L 669.760258 223.607821 
L 670.874651 212.48522 
L 671.989043 221.348657 
L 673.103435 203.531915 
L 674.217828 236.480993 
L 675.33222 251.660085 
L 676.446613 223.862618 
L 677.561005 228.670733 
L 678.675398 224.32882 
L 678.675398 224.32882 
" style="fill:none;stroke:#008fd5;stroke-width:4;"/>
   </g>
   <g id="line2d_98">
    <path clip-path="url(#p374be3ded7)" d="M 152.681108 539.890812 
L 152.682158 477.191966 
L 152.683208 539.890812 
M 154.910228 539.890812 
L 154.910943 497.215626 
L 154.911658 539.890812 
M 157.139013 539.890812 
L 157.139728 497.215626 
L 158.25412 465.478875 
L 159.368513 450.722126 
L 160.482905 497.215626 
L 161.597298 497.215626 
L 162.71169 433.742124 
L 163.826083 465.478875 
L 164.940475 410.674805 
L 166.054868 405.407893 
L 166.057118 539.890812 
M 168.281168 539.890812 
L 168.283652 391.382526 
L 169.398045 397.097323 
L 170.512437 374.900606 
L 171.62683 359.893742 
L 172.741222 361.958051 
L 173.855615 356.602116 
L 174.970007 344.157644 
L 176.0844 339.376257 
L 177.198792 341.142888 
L 178.313185 338.295082 
L 179.427577 317.45762 
L 180.54197 317.286177 
L 181.656362 307.153981 
L 182.770754 302.700871 
L 183.885147 300.547757 
L 184.999539 305.897781 
L 186.113932 296.337347 
L 187.228324 296.894511 
L 188.342717 291.660434 
L 189.457109 290.98778 
L 190.571502 290.600627 
L 191.685894 303.930334 
L 192.800287 290.555418 
L 193.914679 294.441932 
L 195.029071 299.115514 
L 196.143464 294.159092 
L 197.257856 293.853665 
L 198.372249 297.148783 
L 199.486641 301.455649 
L 200.601034 293.476367 
L 201.715426 311.99079 
L 202.829819 300.515854 
L 203.944211 303.894471 
L 205.058604 287.677113 
L 206.172996 306.401543 
L 207.287388 303.326629 
L 208.401781 306.206747 
L 209.516173 303.715818 
L 210.630566 321.380659 
L 211.744958 289.23106 
L 212.859351 301.193327 
L 213.973743 331.872494 
L 215.088136 308.425342 
L 216.202528 311.943394 
L 217.316921 307.639506 
L 218.431313 328.240122 
L 219.545706 317.803588 
L 220.660098 296.614586 
L 221.77449 306.55833 
L 222.888883 311.707572 
L 224.003275 303.432252 
L 225.117668 315.357756 
L 226.23206 314.259617 
L 227.346453 303.186395 
L 228.460845 326.308169 
L 229.575238 304.038193 
L 230.68963 312.662635 
L 231.804023 325.163182 
L 232.918415 299.420887 
L 234.032807 318.927318 
L 235.1472 303.822877 
L 236.261592 299.82276 
L 237.375985 309.104093 
L 238.490377 304.953026 
L 239.60477 302.223372 
L 240.719162 317.572483 
L 241.833555 316.168512 
L 242.947947 292.301099 
L 244.06234 304.990229 
L 245.176732 308.975607 
L 246.291124 306.362478 
L 247.405517 301.389845 
L 248.519909 317.172444 
L 249.634302 325.691867 
L 250.748694 310.064207 
L 251.863087 292.109786 
L 252.977479 299.853906 
L 254.091872 306.401543 
L 255.206264 309.362794 
L 256.320657 311.613779 
L 257.435049 289.709637 
L 258.549441 287.554706 
L 259.663834 289.974061 
L 260.778226 290.759415 
L 261.892619 292.882757 
L 263.007011 298.663423 
L 264.121404 295.016059 
L 266.350189 282.369342 
L 267.464581 279.091853 
L 268.578974 270.273175 
L 269.693366 277.410298 
L 270.807759 281.366184 
L 271.922151 268.096387 
L 273.036543 269.9504 
L 274.150936 263.999878 
L 275.265328 258.931821 
L 276.379721 257.265094 
L 277.494113 261.523847 
L 278.608506 266.6489 
L 279.722898 263.296885 
L 280.837291 248.359601 
L 281.951683 251.147542 
L 283.066076 234.377411 
L 284.180468 232.371423 
L 285.29486 235.740057 
L 286.409253 249.673286 
L 287.523645 245.459402 
L 288.638038 243.312812 
L 289.75243 230.833807 
L 290.866823 232.665259 
L 291.981215 227.215232 
L 293.095608 230.977044 
L 294.21 244.329675 
L 295.324393 240.052963 
L 296.438785 231.178777 
L 297.553177 234.400034 
L 298.66757 227.278331 
L 299.781962 230.125295 
L 300.896355 218.861833 
L 302.010747 224.415647 
L 303.12514 233.57456 
L 304.239532 230.628785 
L 305.353925 221.499271 
L 306.468317 227.195069 
L 307.58271 230.214663 
L 308.697102 224.751692 
L 309.811495 230.161568 
L 310.925887 232.811775 
L 312.040279 231.77485 
L 313.154672 230.43648 
L 314.269064 224.830513 
L 315.383457 225.40494 
L 316.497849 233.107055 
L 317.612242 234.539394 
L 318.726634 233.461667 
L 319.841027 232.793419 
L 320.955419 231.274371 
L 322.069812 234.168181 
L 323.184204 232.200141 
L 324.298596 241.024585 
L 325.412989 252.640245 
L 326.527381 248.702349 
L 327.641774 248.899283 
L 328.756166 238.885494 
L 329.870559 238.749869 
L 330.984951 235.835039 
L 332.099344 244.821692 
L 333.213736 256.518555 
L 335.442521 237.202219 
L 336.556913 244.789246 
L 337.671306 245.199807 
L 338.785698 244.256817 
L 339.900091 259.258672 
L 341.014483 269.207399 
L 342.128876 258.811139 
L 343.243268 256.798006 
L 344.357661 253.863366 
L 345.472053 253.056612 
L 346.586446 255.453815 
L 347.700838 266.178847 
L 348.81523 274.135432 
L 349.929623 269.261385 
L 351.044015 263.883013 
L 352.158408 263.446724 
L 353.2728 258.984778 
L 354.387193 264.090097 
L 355.501585 270.250798 
L 356.615978 279.351214 
L 357.73037 239.192998 
L 358.844763 272.349508 
L 359.959155 260.894132 
L 361.073548 264.081062 
L 362.18794 260.214571 
L 364.416725 280.080631 
L 365.531117 280.317355 
L 366.64551 276.842735 
L 367.759902 270.250798 
L 368.874295 260.262019 
L 369.988687 264.153418 
L 371.10308 272.098046 
L 372.217472 281.729976 
L 373.331865 264.831443 
L 374.446257 272.920364 
L 375.560649 263.570707 
L 376.675042 264.026914 
L 377.789434 260.877958 
L 378.903827 270.952658 
L 380.018219 282.591361 
L 381.132612 271.543057 
L 382.247004 270.172617 
L 383.361397 270.724383 
L 384.475789 267.439579 
L 385.590182 267.972093 
L 386.704574 279.397226 
L 387.818966 306.44066 
L 388.933359 263.473247 
L 390.047751 278.401509 
L 391.162144 269.751856 
L 392.276536 269.402223 
L 393.390929 268.054896 
L 394.505321 279.612925 
L 395.619714 287.636253 
L 396.734106 274.225126 
L 397.848499 270.261984 
L 398.962891 263.121592 
L 400.077284 266.82716 
L 400.081842 539.890812 
M 402.301197 539.890812 
L 402.306068 248.051974 
L 403.420461 285.322406 
L 404.534853 268.7048 
L 405.649246 267.076584 
L 406.763638 262.68796 
L 407.878031 261.898319 
L 408.992423 257.300789 
L 410.106816 270.74713 
L 411.221208 282.216629 
L 412.335601 260.1672 
L 413.449993 275.632012 
L 414.564385 248.114277 
L 415.678778 259.954989 
L 416.79317 254.401072 
L 417.907563 272.554688 
L 419.021955 262.507758 
L 420.136348 255.54106 
L 421.25074 256.798006 
L 422.365133 256.22113 
L 423.479525 247.938098 
L 424.593918 273.216275 
L 425.70831 251.961344 
L 426.822702 253.260856 
L 427.937095 253.347944 
L 429.051487 254.712886 
L 430.16588 244.692128 
L 432.394665 254.524096 
L 433.509057 242.203174 
L 434.62345 258.170976 
L 435.737842 255.173735 
L 436.852235 246.694432 
L 437.966627 247.860713 
L 439.08102 241.728453 
L 440.195412 253.933213 
L 441.309804 230.84524 
L 442.424197 253.186419 
L 443.538589 239.615907 
L 444.652982 237.865265 
L 445.767374 233.91909 
L 446.881767 233.91909 
L 447.996159 236.152775 
L 449.110552 243.207365 
L 450.224944 244.352481 
L 451.339337 235.655515 
L 452.453729 236.266365 
L 452.458796 539.890812 
M 454.677098 539.890812 
L 454.682514 215.239453 
L 455.796906 244.599937 
L 456.911299 239.99012 
L 458.025691 242.893314 
L 459.140084 234.68596 
L 460.254476 231.164321 
L 461.368869 228.737096 
L 462.483261 230.640137 
L 463.597654 229.927993 
L 464.712046 236.060168 
L 465.826438 238.656058 
L 466.940831 237.647378 
L 469.169616 227.527017 
L 470.284008 226.613922 
L 471.398401 229.526458 
L 472.512793 234.325767 
L 473.627186 236.00543 
L 474.741578 232.900656 
L 475.855971 227.006726 
L 476.970363 223.240773 
L 478.084755 223.567794 
L 479.199148 226.65593 
L 480.31354 236.180271 
L 481.427933 228.354293 
L 482.542325 229.919686 
L 483.656718 227.402407 
L 484.77111 223.24297 
L 484.776393 539.890812 
M 486.994487 539.890812 
L 486.999895 215.746892 
L 488.114288 239.880473 
L 489.22868 236.886887 
L 490.343073 225.700083 
L 491.457465 221.694377 
L 492.571857 215.493739 
L 492.577269 539.890812 
M 494.79494 539.890812 
L 494.800642 197.984277 
L 495.915035 229.455534 
L 497.029427 227.729059 
L 498.14382 218.615544 
L 499.258212 214.517358 
L 500.372605 211.390322 
L 501.486997 211.810295 
L 503.715782 225.136234 
L 504.830174 226.919251 
L 505.944567 219.63488 
L 507.058959 221.447602 
L 508.173352 222.010577 
L 509.287744 216.031372 
L 510.402137 225.595009 
L 511.516529 228.15045 
L 512.630922 237.585941 
L 514.859707 226.087847 
L 515.974099 223.851396 
L 517.088491 222.012683 
L 518.202884 225.140927 
L 519.317276 232.522511 
L 520.431669 235.103657 
L 521.546061 232.344311 
L 522.660454 236.15621 
L 523.774846 227.303609 
L 524.889239 228.456756 
L 526.003631 219.397324 
L 527.118024 238.369021 
L 528.232416 247.233851 
L 529.346809 229.646882 
L 530.461201 241.537416 
L 531.575593 238.656058 
L 532.689986 227.00172 
L 533.804378 239.511528 
L 534.918771 243.045551 
L 536.033163 247.198581 
L 537.147556 241.355859 
L 538.261948 239.315389 
L 539.376341 235.756995 
L 540.490733 239.010378 
L 541.605126 239.399834 
L 542.719518 248.755442 
L 543.83391 260.540364 
L 544.948303 244.508039 
L 546.062695 240.072629 
L 547.177088 250.502451 
L 548.29148 242.789384 
L 549.405873 240.317612 
L 550.520265 250.797519 
L 551.634658 256.546379 
L 552.74905 247.845261 
L 553.863443 240.927155 
L 554.977835 242.975857 
L 556.092227 246.281739 
L 557.20662 248.633473 
L 558.321012 248.2132 
L 559.435405 282.335336 
L 560.549797 240.7212 
L 561.66419 245.836405 
L 562.778582 245.341115 
L 563.892975 246.02435 
L 565.007367 253.019632 
L 566.12176 256.917596 
L 567.236152 263.069212 
L 568.350544 254.693299 
L 569.464937 252.032687 
L 570.579329 250.797519 
L 571.693722 249.959963 
L 572.808114 249.794225 
L 573.922507 259.876787 
L 575.036899 267.653453 
L 576.151292 252.404127 
L 577.265684 253.585655 
L 578.380077 250.638262 
L 579.494469 250.372895 
L 580.608862 250.570277 
L 581.723254 257.710861 
L 582.837646 267.287776 
L 583.952039 249.47647 
L 585.066431 250.35604 
L 586.180824 247.017874 
L 587.295216 247.133195 
L 588.409609 246.472613 
L 589.524001 251.501859 
L 590.638394 262.533433 
L 591.752786 250.814634 
L 592.867179 249.520091 
L 593.981571 242.330528 
L 595.095963 243.635932 
L 596.210356 245.821998 
L 597.324748 252.386043 
L 598.439141 261.63983 
L 599.553533 248.124674 
L 600.667926 246.462794 
L 601.782318 237.814277 
L 602.896711 240.955538 
L 604.011103 241.841175 
L 605.125496 248.312463 
L 606.239888 283.852895 
L 607.35428 233.973196 
L 608.468673 242.407211 
L 609.583065 242.4499 
L 610.697458 240.254191 
L 611.81185 244.389008 
L 612.926243 242.143934 
L 614.040635 255.953995 
L 615.155028 247.665592 
L 616.26942 248.046788 
L 617.383813 242.785062 
L 618.498205 248.607026 
L 619.612598 239.802408 
L 620.72699 253.1369 
L 621.841382 261.367182 
L 622.955775 249.64587 
L 624.070167 250.160112 
L 625.18456 247.558325 
L 626.298952 249.454684 
L 627.413345 248.845925 
L 628.527737 258.788568 
L 629.64213 265.214071 
L 631.870915 254.902918 
L 632.985307 254.188635 
L 634.099699 256.449113 
L 635.214092 257.783408 
L 636.328484 263.784495 
L 637.442877 273.653319 
L 638.557269 263.499794 
L 639.671662 264.207804 
L 640.786054 257.158272 
L 641.900447 260.740837 
L 643.014839 263.00822 
L 644.129232 271.40305 
L 645.243624 277.989236 
L 646.358016 267.868921 
L 647.472409 267.807195 
L 648.586801 266.976556 
L 649.701194 272.724761 
L 650.815586 262.260741 
L 651.929979 276.660652 
L 653.044371 283.978534 
L 654.158764 279.520285 
L 655.273156 273.26589 
L 656.387549 273.129654 
L 657.501941 273.129654 
L 657.506395 539.890812 
M 661.954609 539.890812 
L 661.959511 246.20866 
L 663.073903 291.590119 
L 664.188296 279.45869 
L 664.192645 539.890812 
M 673.098218 539.890812 
L 673.103435 227.225319 
L 673.108652 539.890812 
" style="fill:none;stroke:#fc4f30;stroke-width:4;"/>
   </g>
   <g id="patch_3">
    <path d="M 80.748125 515.4355 
L 80.748125 31.5955 
" style="fill:none;stroke:#f0f0f0;stroke-linecap:square;stroke-linejoin:miter;stroke-width:3;"/>
   </g>
   <g id="patch_4">
    <path d="M 80.748125 515.4355 
L 707.148125 515.4355 
" style="fill:none;stroke:#f0f0f0;stroke-linecap:square;stroke-linejoin:miter;stroke-width:3;"/>
   </g>
   <g id="text_19">
    <!-- New Cases of COVID-19 -->
    <g style="fill:#555555;" transform="translate(282.321575 21.5955)scale(0.2016 -0.2016)">
     <defs>
      <path d="M 7.703125 71.40625 
L 7.703125 0 
L 16.703125 0 
L 16.703125 57.296875 
L 16.90625 57.296875 
L 54.203125 0 
L 64.59375 0 
L 64.59375 71.40625 
L 55.59375 71.40625 
L 55.59375 13.5 
L 55.40625 13.5 
L 17.796875 71.40625 
z
" id="HelveticaNeue-78"/>
      <path d="M 42.296875 30.796875 
L 12.59375 30.796875 
Q 12.796875 33.796875 13.890625 36.4375 
Q 15 39.09375 16.890625 41.09375 
Q 18.796875 43.09375 21.4375 44.25 
Q 24.09375 45.40625 27.40625 45.40625 
Q 30.59375 45.40625 33.25 44.25 
Q 35.90625 43.09375 37.84375 41.140625 
Q 39.796875 39.203125 40.9375 36.5 
Q 42.09375 33.796875 42.296875 30.796875 
z
M 50.5 16.40625 
L 42.09375 16.40625 
Q 41 11.296875 37.546875 8.796875 
Q 34.09375 6.296875 28.703125 6.296875 
Q 24.5 6.296875 21.390625 7.6875 
Q 18.296875 9.09375 16.296875 11.4375 
Q 14.296875 13.796875 13.390625 16.84375 
Q 12.5 19.90625 12.59375 23.296875 
L 51.296875 23.296875 
Q 51.5 28 50.453125 33.203125 
Q 49.40625 38.40625 46.65625 42.796875 
Q 43.90625 47.203125 39.34375 50.046875 
Q 34.796875 52.90625 27.90625 52.90625 
Q 22.59375 52.90625 18.140625 50.90625 
Q 13.703125 48.90625 10.453125 45.296875 
Q 7.203125 41.703125 5.390625 36.796875 
Q 3.59375 31.90625 3.59375 26 
Q 3.796875 20.09375 5.34375 15.09375 
Q 6.90625 10.09375 10 6.5 
Q 13.09375 2.90625 17.640625 0.90625 
Q 22.203125 -1.09375 28.40625 -1.09375 
Q 37.203125 -1.09375 43 3.296875 
Q 48.796875 7.703125 50.5 16.40625 
z
" id="HelveticaNeue-101"/>
      <path d="M 57.59375 0 
L 74.09375 51.703125 
L 65.296875 51.703125 
L 53.703125 9.40625 
L 53.5 9.40625 
L 42.703125 51.703125 
L 33.40625 51.703125 
L 23 9.40625 
L 22.796875 9.40625 
L 11.09375 51.703125 
L 1.703125 51.703125 
L 18.296875 0 
L 27.5 0 
L 37.90625 41.09375 
L 38.09375 41.09375 
L 48.59375 0 
z
" id="HelveticaNeue-119"/>
      <path id="HelveticaNeue-32"/>
      <path d="M 58 49.90625 
L 67.5 49.90625 
Q 66.703125 55.59375 64.09375 59.9375 
Q 61.5 64.296875 57.59375 67.1875 
Q 53.703125 70.09375 48.703125 71.59375 
Q 43.703125 73.09375 38.09375 73.09375 
Q 29.90625 73.09375 23.546875 70.140625 
Q 17.203125 67.203125 12.953125 62.09375 
Q 8.703125 57 6.5 50.140625 
Q 4.296875 43.296875 4.296875 35.5 
Q 4.296875 27.703125 6.34375 20.890625 
Q 8.40625 14.09375 12.5 9.09375 
Q 16.59375 4.09375 22.796875 1.25 
Q 29 -1.59375 37.296875 -1.59375 
Q 51 -1.59375 58.890625 5.90625 
Q 66.796875 13.40625 68.203125 26.90625 
L 58.703125 26.90625 
Q 58.40625 22.5 56.90625 18.703125 
Q 55.40625 14.90625 52.75 12.15625 
Q 50.09375 9.40625 46.4375 7.84375 
Q 42.796875 6.296875 38.09375 6.296875 
Q 31.703125 6.296875 27.09375 8.6875 
Q 22.5 11.09375 19.546875 15.140625 
Q 16.59375 19.203125 15.1875 24.640625 
Q 13.796875 30.09375 13.796875 36.203125 
Q 13.796875 41.796875 15.1875 47 
Q 16.59375 52.203125 19.546875 56.25 
Q 22.5 60.296875 27.046875 62.6875 
Q 31.59375 65.09375 38 65.09375 
Q 45.5 65.09375 50.953125 61.296875 
Q 56.40625 57.5 58 49.90625 
z
" id="HelveticaNeue-67"/>
      <path d="M 52.203125 0.203125 
Q 50 -1.09375 46.09375 -1.09375 
Q 42.796875 -1.09375 40.84375 0.75 
Q 38.90625 2.59375 38.90625 6.796875 
Q 35.40625 2.59375 30.75 0.75 
Q 26.09375 -1.09375 20.703125 -1.09375 
Q 17.203125 -1.09375 14.046875 -0.296875 
Q 10.90625 0.5 8.59375 2.203125 
Q 6.296875 3.90625 4.9375 6.65625 
Q 3.59375 9.40625 3.59375 13.296875 
Q 3.59375 17.703125 5.09375 20.5 
Q 6.59375 23.296875 9.046875 25.046875 
Q 11.5 26.796875 14.640625 27.6875 
Q 17.796875 28.59375 21.09375 29.203125 
Q 24.59375 29.90625 27.75 30.25 
Q 30.90625 30.59375 33.296875 31.25 
Q 35.703125 31.90625 37.09375 33.15625 
Q 38.5 34.40625 38.5 36.796875 
Q 38.5 39.59375 37.453125 41.296875 
Q 36.40625 43 34.75 43.890625 
Q 33.09375 44.796875 31.046875 45.09375 
Q 29 45.40625 27 45.40625 
Q 21.59375 45.40625 18 43.34375 
Q 14.40625 41.296875 14.09375 35.59375 
L 5.59375 35.59375 
Q 5.796875 40.40625 7.59375 43.703125 
Q 9.40625 47 12.40625 49.046875 
Q 15.40625 51.09375 19.25 52 
Q 23.09375 52.90625 27.5 52.90625 
Q 31 52.90625 34.453125 52.40625 
Q 37.90625 51.90625 40.703125 50.34375 
Q 43.5 48.796875 45.203125 46 
Q 46.90625 43.203125 46.90625 38.703125 
L 46.90625 12.09375 
Q 46.90625 9.09375 47.25 7.6875 
Q 47.59375 6.296875 49.59375 6.296875 
Q 50.703125 6.296875 52.203125 6.796875 
z
M 38.40625 26.703125 
Q 36.796875 25.5 34.1875 24.953125 
Q 31.59375 24.40625 28.75 24.046875 
Q 25.90625 23.703125 23 23.25 
Q 20.09375 22.796875 17.796875 21.796875 
Q 15.5 20.796875 14.046875 18.9375 
Q 12.59375 17.09375 12.59375 13.90625 
Q 12.59375 11.796875 13.4375 10.34375 
Q 14.296875 8.90625 15.640625 8 
Q 17 7.09375 18.796875 6.6875 
Q 20.59375 6.296875 22.59375 6.296875 
Q 26.796875 6.296875 29.796875 7.4375 
Q 32.796875 8.59375 34.6875 10.34375 
Q 36.59375 12.09375 37.5 14.140625 
Q 38.40625 16.203125 38.40625 18 
z
" id="HelveticaNeue-97"/>
      <path d="M 11.59375 16.296875 
L 3.09375 16.296875 
Q 3.296875 11.5 5.09375 8.140625 
Q 6.90625 4.796875 9.90625 2.75 
Q 12.90625 0.703125 16.796875 -0.1875 
Q 20.703125 -1.09375 25 -1.09375 
Q 28.90625 -1.09375 32.84375 -0.34375 
Q 36.796875 0.40625 39.9375 2.296875 
Q 43.09375 4.203125 45.046875 7.296875 
Q 47 10.40625 47 15.09375 
Q 47 18.796875 45.546875 21.296875 
Q 44.09375 23.796875 41.75 25.4375 
Q 39.40625 27.09375 36.34375 28.09375 
Q 33.296875 29.09375 30.09375 29.796875 
Q 27.09375 30.5 24.09375 31.140625 
Q 21.09375 31.796875 18.6875 32.75 
Q 16.296875 33.703125 14.75 35.140625 
Q 13.203125 36.59375 13.203125 38.796875 
Q 13.203125 40.796875 14.203125 42.046875 
Q 15.203125 43.296875 16.796875 44.046875 
Q 18.40625 44.796875 20.34375 45.09375 
Q 22.296875 45.40625 24.203125 45.40625 
Q 26.296875 45.40625 28.34375 44.953125 
Q 30.40625 44.5 32.09375 43.5 
Q 33.796875 42.5 34.890625 40.84375 
Q 36 39.203125 36.203125 36.703125 
L 44.703125 36.703125 
Q 44.40625 41.40625 42.703125 44.546875 
Q 41 47.703125 38.140625 49.546875 
Q 35.296875 51.40625 31.59375 52.15625 
Q 27.90625 52.90625 23.5 52.90625 
Q 20.09375 52.90625 16.640625 52.046875 
Q 13.203125 51.203125 10.453125 49.453125 
Q 7.703125 47.703125 5.953125 44.890625 
Q 4.203125 42.09375 4.203125 38.203125 
Q 4.203125 33.203125 6.703125 30.390625 
Q 9.203125 27.59375 12.953125 26.046875 
Q 16.703125 24.5 21.09375 23.640625 
Q 25.5 22.796875 29.25 21.75 
Q 33 20.703125 35.5 19 
Q 38 17.296875 38 14 
Q 38 11.59375 36.796875 10.046875 
Q 35.59375 8.5 33.75 7.703125 
Q 31.90625 6.90625 29.703125 6.59375 
Q 27.5 6.296875 25.5 6.296875 
Q 22.90625 6.296875 20.453125 6.796875 
Q 18 7.296875 16.046875 8.4375 
Q 14.09375 9.59375 12.890625 11.546875 
Q 11.703125 13.5 11.59375 16.296875 
z
" id="HelveticaNeue-115"/>
      <path d="M 12.59375 25.796875 
Q 12.59375 30.5 13.84375 34.140625 
Q 15.09375 37.796875 17.296875 40.296875 
Q 19.5 42.796875 22.453125 44.09375 
Q 25.40625 45.40625 28.703125 45.40625 
Q 32 45.40625 34.953125 44.09375 
Q 37.90625 42.796875 40.09375 40.296875 
Q 42.296875 37.796875 43.546875 34.140625 
Q 44.796875 30.5 44.796875 25.796875 
Q 44.796875 21.09375 43.546875 17.4375 
Q 42.296875 13.796875 40.09375 11.34375 
Q 37.90625 8.90625 34.953125 7.59375 
Q 32 6.296875 28.703125 6.296875 
Q 25.40625 6.296875 22.453125 7.59375 
Q 19.5 8.90625 17.296875 11.34375 
Q 15.09375 13.796875 13.84375 17.4375 
Q 12.59375 21.09375 12.59375 25.796875 
z
M 3.59375 25.796875 
Q 3.59375 20.09375 5.1875 15.1875 
Q 6.796875 10.296875 10 6.640625 
Q 13.203125 3 17.890625 0.953125 
Q 22.59375 -1.09375 28.703125 -1.09375 
Q 34.90625 -1.09375 39.546875 0.953125 
Q 44.203125 3 47.390625 6.640625 
Q 50.59375 10.296875 52.1875 15.1875 
Q 53.796875 20.09375 53.796875 25.796875 
Q 53.796875 31.5 52.1875 36.453125 
Q 50.59375 41.40625 47.390625 45.046875 
Q 44.203125 48.703125 39.546875 50.796875 
Q 34.90625 52.90625 28.703125 52.90625 
Q 22.59375 52.90625 17.890625 50.796875 
Q 13.203125 48.703125 10 45.046875 
Q 6.796875 41.40625 5.1875 36.453125 
Q 3.59375 31.5 3.59375 25.796875 
z
" id="HelveticaNeue-111"/>
      <path d="M 9.90625 44.203125 
L 9.90625 0 
L 18.40625 0 
L 18.40625 44.203125 
L 28.40625 44.203125 
L 28.40625 51.703125 
L 18.40625 51.703125 
L 18.40625 58.90625 
Q 18.40625 62.296875 20.09375 63.5 
Q 21.796875 64.703125 24.90625 64.703125 
Q 26 64.703125 27.296875 64.546875 
Q 28.59375 64.40625 29.703125 64 
L 29.703125 71.40625 
Q 28.5 71.796875 26.953125 72 
Q 25.40625 72.203125 24.203125 72.203125 
Q 17.203125 72.203125 13.546875 68.953125 
Q 9.90625 65.703125 9.90625 59.40625 
L 9.90625 51.703125 
L 1.203125 51.703125 
L 1.203125 44.203125 
z
" id="HelveticaNeue-102"/>
      <path d="M 13.296875 35.703125 
Q 13.296875 41.09375 14.6875 46.34375 
Q 16.09375 51.59375 19.09375 55.796875 
Q 22.09375 60 26.796875 62.546875 
Q 31.5 65.09375 38 65.09375 
Q 44.5 65.09375 49.203125 62.546875 
Q 53.90625 60 56.90625 55.796875 
Q 59.90625 51.59375 61.296875 46.34375 
Q 62.703125 41.09375 62.703125 35.703125 
Q 62.703125 30.296875 61.296875 25.046875 
Q 59.90625 19.796875 56.90625 15.59375 
Q 53.90625 11.40625 49.203125 8.84375 
Q 44.5 6.296875 38 6.296875 
Q 31.5 6.296875 26.796875 8.84375 
Q 22.09375 11.40625 19.09375 15.59375 
Q 16.09375 19.796875 14.6875 25.046875 
Q 13.296875 30.296875 13.296875 35.703125 
z
M 3.796875 35.703125 
Q 3.796875 28.40625 5.9375 21.65625 
Q 8.09375 14.90625 12.390625 9.703125 
Q 16.703125 4.5 23.09375 1.453125 
Q 29.5 -1.59375 38 -1.59375 
Q 46.5 -1.59375 52.890625 1.453125 
Q 59.296875 4.5 63.59375 9.703125 
Q 67.90625 14.90625 70.046875 21.65625 
Q 72.203125 28.40625 72.203125 35.703125 
Q 72.203125 43 70.046875 49.75 
Q 67.90625 56.5 63.59375 61.703125 
Q 59.296875 66.90625 52.890625 70 
Q 46.5 73.09375 38 73.09375 
Q 29.5 73.09375 23.09375 70 
Q 16.703125 66.90625 12.390625 61.703125 
Q 8.09375 56.5 5.9375 49.75 
Q 3.796875 43 3.796875 35.703125 
z
" id="HelveticaNeue-79"/>
      <path d="M 35.90625 0 
L 61.296875 71.40625 
L 51.40625 71.40625 
L 30.796875 9.5 
L 30.59375 9.5 
L 10.203125 71.40625 
L 0 71.40625 
L 25.09375 0 
z
" id="HelveticaNeue-86"/>
      <path d="M 8.203125 71.40625 
L 8.203125 0 
L 17.703125 0 
L 17.703125 71.40625 
z
" id="HelveticaNeue-73"/>
      <path d="M 17.296875 8 
L 17.296875 63.40625 
L 33.296875 63.40625 
Q 39.90625 63.40625 44.40625 61.546875 
Q 48.90625 59.703125 51.75 56.140625 
Q 54.59375 52.59375 55.84375 47.546875 
Q 57.09375 42.5 57.09375 36.09375 
Q 57.09375 29.5 55.75 24.84375 
Q 54.40625 20.203125 52.296875 17.09375 
Q 50.203125 14 47.546875 12.203125 
Q 44.90625 10.40625 42.203125 9.453125 
Q 39.5 8.5 37.09375 8.25 
Q 34.703125 8 33.09375 8 
z
M 7.796875 71.40625 
L 7.796875 0 
L 32.296875 0 
Q 41.203125 0 47.703125 2.5 
Q 54.203125 5 58.390625 9.75 
Q 62.59375 14.5 64.59375 21.453125 
Q 66.59375 28.40625 66.59375 37.40625 
Q 66.59375 54.59375 57.6875 63 
Q 48.796875 71.40625 32.296875 71.40625 
z
" id="HelveticaNeue-68"/>
     </defs>
     <use xlink:href="#HelveticaNeue-78"/>
     <use x="72.199982" xlink:href="#HelveticaNeue-101"/>
     <use x="125.899979" xlink:href="#HelveticaNeue-119"/>
     <use x="201.699966" xlink:href="#HelveticaNeue-32"/>
     <use x="229.499954" xlink:href="#HelveticaNeue-67"/>
     <use x="301.699936" xlink:href="#HelveticaNeue-97"/>
     <use x="355.399933" xlink:href="#HelveticaNeue-115"/>
     <use x="405.399918" xlink:href="#HelveticaNeue-101"/>
     <use x="459.099915" xlink:href="#HelveticaNeue-115"/>
     <use x="509.099899" xlink:href="#HelveticaNeue-32"/>
     <use x="536.899887" xlink:href="#HelveticaNeue-111"/>
     <use x="594.299881" xlink:href="#HelveticaNeue-102"/>
     <use x="623.899872" xlink:href="#HelveticaNeue-32"/>
     <use x="651.69986" xlink:href="#HelveticaNeue-67"/>
     <use x="723.899841" xlink:href="#HelveticaNeue-79"/>
     <use x="799.899826" xlink:href="#HelveticaNeue-86"/>
     <use x="860.999817" xlink:href="#HelveticaNeue-73"/>
     <use x="886.899811" xlink:href="#HelveticaNeue-68"/>
     <use x="957.299805" xlink:href="#HelveticaNeue-45"/>
     <use x="996.199799" xlink:href="#HelveticaNeue-49"/>
     <use x="1051.799789" xlink:href="#HelveticaNeue-57"/>
    </g>
   </g>
   <g id="legend_1">
    <g id="line2d_99">
     <path d="M 570.298125 49.292375 
L 598.298125 49.292375 
" style="fill:none;stroke:#008fd5;stroke-width:4;"/>
    </g>
    <g id="line2d_100"/>
    <g id="text_20">
     <!-- United States -->
     <g style="fill:#555555;" transform="translate(609.498125 54.192375)scale(0.14 -0.14)">
      <defs>
       <path d="M 64.796875 25.796875 
L 64.796875 71.40625 
L 55.296875 71.40625 
L 55.296875 25.796875 
Q 55.296875 16.203125 50.546875 11.25 
Q 45.796875 6.296875 36.703125 6.296875 
Q 27.09375 6.296875 22 11.25 
Q 16.90625 16.203125 16.90625 25.796875 
L 16.90625 71.40625 
L 7.40625 71.40625 
L 7.40625 25.796875 
Q 7.40625 11.5 15.15625 4.953125 
Q 22.90625 -1.59375 36.703125 -1.59375 
Q 50.203125 -1.59375 57.5 5.25 
Q 64.796875 12.09375 64.796875 25.796875 
z
" id="HelveticaNeue-85"/>
       <path d="M 6.40625 51.703125 
L 6.40625 0 
L 14.90625 0 
L 14.90625 29.203125 
Q 14.90625 32.703125 15.84375 35.640625 
Q 16.796875 38.59375 18.6875 40.796875 
Q 20.59375 43 23.4375 44.203125 
Q 26.296875 45.40625 30.203125 45.40625 
Q 35.09375 45.40625 37.890625 42.59375 
Q 40.703125 39.796875 40.703125 35 
L 40.703125 0 
L 49.203125 0 
L 49.203125 34 
Q 49.203125 38.203125 48.34375 41.640625 
Q 47.5 45.09375 45.390625 47.59375 
Q 43.296875 50.09375 39.890625 51.5 
Q 36.5 52.90625 31.40625 52.90625 
Q 19.90625 52.90625 14.59375 43.5 
L 14.40625 43.5 
L 14.40625 51.703125 
z
" id="HelveticaNeue-110"/>
       <path d="M 15.40625 61 
L 15.40625 71.40625 
L 6.90625 71.40625 
L 6.90625 61 
z
M 6.90625 51.703125 
L 6.90625 0 
L 15.40625 0 
L 15.40625 51.703125 
z
" id="HelveticaNeue-105"/>
       <path d="M 18.203125 51.703125 
L 18.203125 67.203125 
L 9.703125 67.203125 
L 9.703125 51.703125 
L 0.90625 51.703125 
L 0.90625 44.203125 
L 9.703125 44.203125 
L 9.703125 11.296875 
Q 9.703125 7.703125 10.390625 5.5 
Q 11.09375 3.296875 12.546875 2.09375 
Q 14 0.90625 16.34375 0.453125 
Q 18.703125 0 22 0 
L 28.5 0 
L 28.5 7.5 
L 24.59375 7.5 
Q 22.59375 7.5 21.34375 7.640625 
Q 20.09375 7.796875 19.390625 8.296875 
Q 18.703125 8.796875 18.453125 9.6875 
Q 18.203125 10.59375 18.203125 12.09375 
L 18.203125 44.203125 
L 28.5 44.203125 
L 28.5 51.703125 
z
" id="HelveticaNeue-116"/>
       <path d="M 12.59375 25.40625 
Q 12.59375 29.203125 13.390625 32.796875 
Q 14.203125 36.40625 16 39.203125 
Q 17.796875 42 20.796875 43.703125 
Q 23.796875 45.40625 28.09375 45.40625 
Q 32.5 45.40625 35.59375 43.75 
Q 38.703125 42.09375 40.640625 39.390625 
Q 42.59375 36.703125 43.5 33.140625 
Q 44.40625 29.59375 44.40625 25.796875 
Q 44.40625 22.203125 43.546875 18.703125 
Q 42.703125 15.203125 40.796875 12.453125 
Q 38.90625 9.703125 35.90625 8 
Q 32.90625 6.296875 28.59375 6.296875 
Q 24.5 6.296875 21.453125 7.890625 
Q 18.40625 9.5 16.453125 12.203125 
Q 14.5 14.90625 13.546875 18.34375 
Q 12.59375 21.796875 12.59375 25.40625 
z
M 52.59375 0 
L 52.59375 71.40625 
L 44.09375 71.40625 
L 44.09375 44.796875 
L 43.90625 44.796875 
Q 42.5 47.09375 40.453125 48.640625 
Q 38.40625 50.203125 36.09375 51.140625 
Q 33.796875 52.09375 31.5 52.5 
Q 29.203125 52.90625 27.203125 52.90625 
Q 21.296875 52.90625 16.84375 50.75 
Q 12.40625 48.59375 9.453125 44.9375 
Q 6.5 41.296875 5.046875 36.390625 
Q 3.59375 31.5 3.59375 26 
Q 3.59375 20.5 5.09375 15.59375 
Q 6.59375 10.703125 9.546875 7 
Q 12.5 3.296875 16.953125 1.09375 
Q 21.40625 -1.09375 27.40625 -1.09375 
Q 32.796875 -1.09375 37.296875 0.796875 
Q 41.796875 2.703125 43.90625 7 
L 44.09375 7 
L 44.09375 0 
z
" id="HelveticaNeue-100"/>
       <path d="M 49.09375 50.5 
L 58.09375 50.5 
Q 57.90625 56.40625 55.84375 60.65625 
Q 53.796875 64.90625 50.25 67.703125 
Q 46.703125 70.5 42 71.796875 
Q 37.296875 73.09375 31.796875 73.09375 
Q 26.90625 73.09375 22.25 71.84375 
Q 17.59375 70.59375 13.9375 68.046875 
Q 10.296875 65.5 8.09375 61.546875 
Q 5.90625 57.59375 5.90625 52.203125 
Q 5.90625 47.296875 7.84375 44.046875 
Q 9.796875 40.796875 13.046875 38.75 
Q 16.296875 36.703125 20.390625 35.453125 
Q 24.5 34.203125 28.75 33.25 
Q 33 32.296875 37.09375 31.390625 
Q 41.203125 30.5 44.453125 29.046875 
Q 47.703125 27.59375 49.640625 25.296875 
Q 51.59375 23 51.59375 19.296875 
Q 51.59375 15.40625 50 12.90625 
Q 48.40625 10.40625 45.796875 8.953125 
Q 43.203125 7.5 39.953125 6.890625 
Q 36.703125 6.296875 33.5 6.296875 
Q 29.5 6.296875 25.703125 7.296875 
Q 21.90625 8.296875 19.046875 10.390625 
Q 16.203125 12.5 14.453125 15.75 
Q 12.703125 19 12.703125 23.5 
L 3.703125 23.5 
Q 3.703125 17 6.046875 12.25 
Q 8.40625 7.5 12.453125 4.453125 
Q 16.5 1.40625 21.84375 -0.09375 
Q 27.203125 -1.59375 33.203125 -1.59375 
Q 38.09375 -1.59375 43.046875 -0.4375 
Q 48 0.703125 52 3.25 
Q 56 5.796875 58.546875 9.84375 
Q 61.09375 13.90625 61.09375 19.59375 
Q 61.09375 24.90625 59.140625 28.40625 
Q 57.203125 31.90625 53.953125 34.203125 
Q 50.703125 36.5 46.59375 37.84375 
Q 42.5 39.203125 38.25 40.203125 
Q 34 41.203125 29.890625 42.046875 
Q 25.796875 42.90625 22.546875 44.203125 
Q 19.296875 45.5 17.34375 47.546875 
Q 15.40625 49.59375 15.40625 52.90625 
Q 15.40625 56.40625 16.75 58.75 
Q 18.09375 61.09375 20.34375 62.5 
Q 22.59375 63.90625 25.5 64.5 
Q 28.40625 65.09375 31.40625 65.09375 
Q 38.796875 65.09375 43.546875 61.640625 
Q 48.296875 58.203125 49.09375 50.5 
z
" id="HelveticaNeue-83"/>
      </defs>
      <use xlink:href="#HelveticaNeue-85"/>
      <use x="72.199982" xlink:href="#HelveticaNeue-110"/>
      <use x="127.799973" xlink:href="#HelveticaNeue-105"/>
      <use x="149.999969" xlink:href="#HelveticaNeue-116"/>
      <use x="181.499954" xlink:href="#HelveticaNeue-101"/>
      <use x="235.199951" xlink:href="#HelveticaNeue-100"/>
      <use x="294.499939" xlink:href="#HelveticaNeue-32"/>
      <use x="322.299927" xlink:href="#HelveticaNeue-83"/>
      <use x="387.099915" xlink:href="#HelveticaNeue-116"/>
      <use x="418.599899" xlink:href="#HelveticaNeue-97"/>
      <use x="472.299896" xlink:href="#HelveticaNeue-116"/>
      <use x="503.799881" xlink:href="#HelveticaNeue-101"/>
      <use x="557.499878" xlink:href="#HelveticaNeue-115"/>
     </g>
    </g>
    <g id="line2d_101">
     <path d="M 570.298125 69.047687 
L 598.298125 69.047687 
" style="fill:none;stroke:#fc4f30;stroke-width:4;"/>
    </g>
    <g id="line2d_102"/>
    <g id="text_21">
     <!-- Florida -->
     <g style="fill:#555555;" transform="translate(609.498125 73.947687)scale(0.14 -0.14)">
      <defs>
       <path d="M 7.796875 71.40625 
L 7.796875 0 
L 17.296875 0 
L 17.296875 32.703125 
L 50.09375 32.703125 
L 50.09375 40.703125 
L 17.296875 40.703125 
L 17.296875 63.40625 
L 54.703125 63.40625 
L 54.703125 71.40625 
z
" id="HelveticaNeue-70"/>
       <path d="M 6.90625 71.40625 
L 6.90625 0 
L 15.40625 0 
L 15.40625 71.40625 
z
" id="HelveticaNeue-108"/>
       <path d="M 6.09375 51.703125 
L 6.09375 0 
L 14.59375 0 
L 14.59375 23 
Q 14.59375 28 15.59375 31.84375 
Q 16.59375 35.703125 18.796875 38.390625 
Q 21 41.09375 24.59375 42.5 
Q 28.203125 43.90625 33.296875 43.90625 
L 33.296875 52.90625 
Q 26.40625 53.09375 21.90625 50.09375 
Q 17.40625 47.09375 14.296875 40.796875 
L 14.09375 40.796875 
L 14.09375 51.703125 
z
" id="HelveticaNeue-114"/>
      </defs>
      <use xlink:href="#HelveticaNeue-70"/>
      <use x="57.399994" xlink:href="#HelveticaNeue-108"/>
      <use x="79.599991" xlink:href="#HelveticaNeue-111"/>
      <use x="136.999985" xlink:href="#HelveticaNeue-114"/>
      <use x="170.299973" xlink:href="#HelveticaNeue-105"/>
      <use x="192.499969" xlink:href="#HelveticaNeue-100"/>
      <use x="251.799957" xlink:href="#HelveticaNeue-97"/>
     </g>
    </g>
   </g>
  </g>
 </g>
 <defs>
  <clipPath id="p374be3ded7">
   <rect height="483.84" width="626.4" x="80.748125" y="31.5955"/>
  </clipPath>
 </defs>
</svg>
