<?xml version="1.0" encoding="utf-8" standalone="no"?>
<!DOCTYPE svg PUBLIC "-//W3C//DTD SVG 1.1//EN"
  "http://www.w3.org/Graphics/SVG/1.1/DTD/svg11.dtd">
<!-- Created with matplotlib (https://matplotlib.org/) -->
<svg height="538.890812pt" version="1.1" viewBox="0 0 714.348125 538.890812" width="714.348125pt" xmlns="http://www.w3.org/2000/svg" xmlns:xlink="http://www.w3.org/1999/xlink">
 <metadata>
  <rdf:RDF xmlns:cc="http://creativecommons.org/ns#" xmlns:dc="http://purl.org/dc/elements/1.1/" xmlns:rdf="http://www.w3.org/1999/02/22-rdf-syntax-ns#">
   <cc:Work>
    <dc:type rdf:resource="http://purl.org/dc/dcmitype/StillImage"/>
    <dc:date>2021-06-04T21:06:22.555236</dc:date>
    <dc:format>image/svg+xml</dc:format>
    <dc:creator>
     <cc:Agent>
      <dc:title>Matplotlib v3.3.4, https://matplotlib.org/</dc:title>
     </cc:Agent>
    </dc:creator>
   </cc:Work>
  </rdf:RDF>
 </metadata>
 <defs>
  <style type="text/css">*{stroke-linecap:butt;stroke-linejoin:round;}</style>
 </defs>
 <g id="figure_1">
  <g id="patch_1">
   <path d="M 0 538.890812 
L 714.348125 538.890812 
L 714.348125 0 
L 0 0 
z
" style="fill:#f0f0f0;"/>
  </g>
  <g id="axes_1">
   <g id="patch_2">
    <path d="M 80.748125 515.4355 
L 707.148125 515.4355 
L 707.148125 31.5955 
L 80.748125 31.5955 
z
" style="fill:#f0f0f0;"/>
   </g>
   <g id="matplotlib.axis_1">
    <g id="xtick_1">
     <g id="line2d_1">
      <path clip-path="url(#p8319738fc9)" d="M 85.207709 515.4355 
L 85.207709 31.5955 
" style="fill:none;stroke:#cbcbcb;"/>
     </g>
     <g id="line2d_2"/>
     <g id="text_1">
      <!-- 2020-01 -->
      <g style="fill:#555555;" transform="translate(59.134896 528.932375)scale(0.14 -0.14)">
       <defs>
        <path d="M 4.40625 45.796875 
L 12.90625 45.796875 
Q 12.796875 49 13.546875 52.140625 
Q 14.296875 55.296875 16 57.796875 
Q 17.703125 60.296875 20.34375 61.84375 
Q 23 63.40625 26.703125 63.40625 
Q 29.5 63.40625 32 62.5 
Q 34.5 61.59375 36.34375 59.890625 
Q 38.203125 58.203125 39.296875 55.84375 
Q 40.40625 53.5 40.40625 50.59375 
Q 40.40625 46.90625 39.25 44.09375 
Q 38.09375 41.296875 35.84375 38.890625 
Q 33.59375 36.5 30.1875 34.140625 
Q 26.796875 31.796875 22.296875 29 
Q 18.59375 26.796875 15.1875 24.296875 
Q 11.796875 21.796875 9.09375 18.5 
Q 6.40625 15.203125 4.65625 10.75 
Q 2.90625 6.296875 2.40625 0 
L 48.703125 0 
L 48.703125 7.5 
L 12.296875 7.5 
Q 12.90625 10.796875 14.84375 13.34375 
Q 16.796875 15.90625 19.546875 18.09375 
Q 22.296875 20.296875 25.59375 22.25 
Q 28.90625 24.203125 32.203125 26.203125 
Q 35.5 28.296875 38.59375 30.59375 
Q 41.703125 32.90625 44.09375 35.75 
Q 46.5 38.59375 47.953125 42.1875 
Q 49.40625 45.796875 49.40625 50.5 
Q 49.40625 55.5 47.65625 59.296875 
Q 45.90625 63.09375 42.90625 65.640625 
Q 39.90625 68.203125 35.84375 69.546875 
Q 31.796875 70.90625 27.203125 70.90625 
Q 21.59375 70.90625 17.1875 69 
Q 12.796875 67.09375 9.84375 63.75 
Q 6.90625 60.40625 5.5 55.796875 
Q 4.09375 51.203125 4.40625 45.796875 
z
" id="HelveticaNeue-50"/>
        <path d="M 13.203125 34.90625 
Q 13.203125 37.5 13.25 40.640625 
Q 13.296875 43.796875 13.75 46.9375 
Q 14.203125 50.09375 15.046875 53.09375 
Q 15.90625 56.09375 17.546875 58.34375 
Q 19.203125 60.59375 21.703125 62 
Q 24.203125 63.40625 27.796875 63.40625 
Q 31.40625 63.40625 33.90625 62 
Q 36.40625 60.59375 38.046875 58.34375 
Q 39.703125 56.09375 40.546875 53.09375 
Q 41.40625 50.09375 41.84375 46.9375 
Q 42.296875 43.796875 42.34375 40.640625 
Q 42.40625 37.5 42.40625 34.90625 
Q 42.40625 30.90625 42.15625 25.953125 
Q 41.90625 21 40.546875 16.640625 
Q 39.203125 12.296875 36.203125 9.296875 
Q 33.203125 6.296875 27.796875 6.296875 
Q 22.40625 6.296875 19.40625 9.296875 
Q 16.40625 12.296875 15.046875 16.640625 
Q 13.703125 21 13.453125 25.953125 
Q 13.203125 30.90625 13.203125 34.90625 
z
M 4.203125 34.796875 
Q 4.203125 30.90625 4.390625 26.703125 
Q 4.59375 22.5 5.390625 18.5 
Q 6.203125 14.5 7.703125 10.953125 
Q 9.203125 7.40625 11.796875 4.703125 
Q 14.40625 2 18.34375 0.453125 
Q 22.296875 -1.09375 27.796875 -1.09375 
Q 33.40625 -1.09375 37.296875 0.453125 
Q 41.203125 2 43.796875 4.703125 
Q 46.40625 7.40625 47.90625 10.953125 
Q 49.40625 14.5 50.203125 18.5 
Q 51 22.5 51.203125 26.703125 
Q 51.40625 30.90625 51.40625 34.796875 
Q 51.40625 38.703125 51.203125 42.890625 
Q 51 47.09375 50.203125 51.09375 
Q 49.40625 55.09375 47.90625 58.6875 
Q 46.40625 62.296875 43.796875 65 
Q 41.203125 67.703125 37.25 69.296875 
Q 33.296875 70.90625 27.796875 70.90625 
Q 22.296875 70.90625 18.34375 69.296875 
Q 14.40625 67.703125 11.796875 65 
Q 9.203125 62.296875 7.703125 58.6875 
Q 6.203125 55.09375 5.390625 51.09375 
Q 4.59375 47.09375 4.390625 42.890625 
Q 4.203125 38.703125 4.203125 34.796875 
z
" id="HelveticaNeue-48"/>
        <path d="M 5 31.796875 
L 5 23.796875 
L 33.90625 23.796875 
L 33.90625 31.796875 
z
" id="HelveticaNeue-45"/>
        <path d="M 35.59375 0 
L 35.59375 70.90625 
L 29.09375 70.90625 
Q 28.40625 66.90625 26.5 64.296875 
Q 24.59375 61.703125 21.84375 60.203125 
Q 19.09375 58.703125 15.6875 58.140625 
Q 12.296875 57.59375 8.703125 57.59375 
L 8.703125 50.796875 
L 27.09375 50.796875 
L 27.09375 0 
z
" id="HelveticaNeue-49"/>
       </defs>
       <use xlink:href="#HelveticaNeue-50"/>
       <use x="55.599991" xlink:href="#HelveticaNeue-48"/>
       <use x="111.199982" xlink:href="#HelveticaNeue-50"/>
       <use x="166.799973" xlink:href="#HelveticaNeue-48"/>
       <use x="222.399963" xlink:href="#HelveticaNeue-45"/>
       <use x="261.299957" xlink:href="#HelveticaNeue-48"/>
       <use x="316.899948" xlink:href="#HelveticaNeue-49"/>
      </g>
     </g>
    </g>
    <g id="xtick_2">
     <g id="line2d_3">
      <path clip-path="url(#p8319738fc9)" d="M 153.81669 515.4355 
L 153.81669 31.5955 
" style="fill:none;stroke:#cbcbcb;"/>
     </g>
     <g id="line2d_4"/>
     <g id="text_2">
      <!-- 2020-03 -->
      <g style="fill:#555555;" transform="translate(127.743878 528.932375)scale(0.14 -0.14)">
       <defs>
        <path d="M 21.796875 40.5 
L 21.796875 33.296875 
Q 24.203125 33.59375 26.90625 33.59375 
Q 30.09375 33.59375 32.84375 32.75 
Q 35.59375 31.90625 37.59375 30.15625 
Q 39.59375 28.40625 40.796875 25.84375 
Q 42 23.296875 42 20 
Q 42 16.796875 40.75 14.25 
Q 39.5 11.703125 37.390625 9.953125 
Q 35.296875 8.203125 32.5 7.25 
Q 29.703125 6.296875 26.59375 6.296875 
Q 19.296875 6.296875 15.5 10.640625 
Q 11.703125 15 11.5 21.90625 
L 3 21.90625 
Q 2.90625 16.40625 4.546875 12.09375 
Q 6.203125 7.796875 9.296875 4.84375 
Q 12.40625 1.90625 16.796875 0.40625 
Q 21.203125 -1.09375 26.59375 -1.09375 
Q 31.59375 -1.09375 36.046875 0.25 
Q 40.5 1.59375 43.796875 4.296875 
Q 47.09375 7 49.046875 11.046875 
Q 51 15.09375 51 20.40625 
Q 51 26.796875 47.84375 31.5 
Q 44.703125 36.203125 38.203125 37.59375 
L 38.203125 37.796875 
Q 42.40625 39.703125 45.203125 43.390625 
Q 48 47.09375 48 51.90625 
Q 48 56.796875 46.34375 60.390625 
Q 44.703125 64 41.796875 66.296875 
Q 38.90625 68.59375 34.953125 69.75 
Q 31 70.90625 26.40625 70.90625 
Q 21.09375 70.90625 17.046875 69.203125 
Q 13 67.5 10.296875 64.5 
Q 7.59375 61.5 6.140625 57.296875 
Q 4.703125 53.09375 4.5 48 
L 13 48 
Q 13 51.09375 13.796875 53.890625 
Q 14.59375 56.703125 16.25 58.796875 
Q 17.90625 60.90625 20.453125 62.15625 
Q 23 63.40625 26.40625 63.40625 
Q 31.796875 63.40625 35.390625 60.546875 
Q 39 57.703125 39 52 
Q 39 49.203125 37.890625 47 
Q 36.796875 44.796875 34.9375 43.34375 
Q 33.09375 41.90625 30.640625 41.15625 
Q 28.203125 40.40625 25.5 40.40625 
L 23.703125 40.40625 
Q 23.203125 40.40625 22.703125 40.40625 
Q 22.296875 40.40625 21.796875 40.5 
z
" id="HelveticaNeue-51"/>
       </defs>
       <use xlink:href="#HelveticaNeue-50"/>
       <use x="55.599991" xlink:href="#HelveticaNeue-48"/>
       <use x="111.199982" xlink:href="#HelveticaNeue-50"/>
       <use x="166.799973" xlink:href="#HelveticaNeue-48"/>
       <use x="222.399963" xlink:href="#HelveticaNeue-45"/>
       <use x="261.299957" xlink:href="#HelveticaNeue-48"/>
       <use x="316.899948" xlink:href="#HelveticaNeue-51"/>
      </g>
     </g>
    </g>
    <g id="xtick_3">
     <g id="line2d_5">
      <path clip-path="url(#p8319738fc9)" d="M 223.569155 515.4355 
L 223.569155 31.5955 
" style="fill:none;stroke:#cbcbcb;"/>
     </g>
     <g id="line2d_6"/>
     <g id="text_3">
      <!-- 2020-05 -->
      <g style="fill:#555555;" transform="translate(197.496342 528.932375)scale(0.14 -0.14)">
       <defs>
        <path d="M 47 62.203125 
L 47 69.703125 
L 12 69.703125 
L 5.40625 32.90625 
L 12.703125 32.5 
Q 15.203125 35.5 18.453125 37.34375 
Q 21.703125 39.203125 25.90625 39.203125 
Q 29.5 39.203125 32.453125 38 
Q 35.40625 36.796875 37.5 34.640625 
Q 39.59375 32.5 40.75 29.546875 
Q 41.90625 26.59375 41.90625 23.09375 
Q 41.90625 18.90625 40.703125 15.75 
Q 39.5 12.59375 37.453125 10.5 
Q 35.40625 8.40625 32.65625 7.34375 
Q 29.90625 6.296875 26.90625 6.296875 
Q 23.703125 6.296875 21.046875 7.25 
Q 18.40625 8.203125 16.453125 9.953125 
Q 14.5 11.703125 13.34375 14.046875 
Q 12.203125 16.40625 12 19.09375 
L 3.5 19.09375 
Q 3.59375 14.296875 5.390625 10.5 
Q 7.203125 6.703125 10.296875 4.140625 
Q 13.40625 1.59375 17.453125 0.25 
Q 21.5 -1.09375 26.09375 -1.09375 
Q 32.296875 -1.09375 36.9375 0.84375 
Q 41.59375 2.796875 44.6875 6.09375 
Q 47.796875 9.40625 49.34375 13.65625 
Q 50.90625 17.90625 50.90625 22.40625 
Q 50.90625 28.5 49.09375 33.046875 
Q 47.296875 37.59375 44.1875 40.640625 
Q 41.09375 43.703125 36.890625 45.203125 
Q 32.703125 46.703125 28 46.703125 
Q 24.40625 46.703125 20.75 45.453125 
Q 17.09375 44.203125 14.796875 41.59375 
L 14.59375 41.796875 
L 18.40625 62.203125 
z
" id="HelveticaNeue-53"/>
       </defs>
       <use xlink:href="#HelveticaNeue-50"/>
       <use x="55.599991" xlink:href="#HelveticaNeue-48"/>
       <use x="111.199982" xlink:href="#HelveticaNeue-50"/>
       <use x="166.799973" xlink:href="#HelveticaNeue-48"/>
       <use x="222.399963" xlink:href="#HelveticaNeue-45"/>
       <use x="261.299957" xlink:href="#HelveticaNeue-48"/>
       <use x="316.899948" xlink:href="#HelveticaNeue-53"/>
      </g>
     </g>
    </g>
    <g id="xtick_4">
     <g id="line2d_7">
      <path clip-path="url(#p8319738fc9)" d="M 293.321619 515.4355 
L 293.321619 31.5955 
" style="fill:none;stroke:#cbcbcb;"/>
     </g>
     <g id="line2d_8"/>
     <g id="text_4">
      <!-- 2020-07 -->
      <g style="fill:#555555;" transform="translate(267.248806 528.932375)scale(0.14 -0.14)">
       <defs>
        <path d="M 50.90625 62.40625 
L 50.90625 69.703125 
L 5 69.703125 
L 5 61.703125 
L 42.203125 61.703125 
Q 36.59375 55.796875 31.75 48.796875 
Q 26.90625 41.796875 23.203125 33.9375 
Q 19.5 26.09375 17.140625 17.546875 
Q 14.796875 9 14.203125 0 
L 23.703125 0 
Q 24.203125 8.296875 26.5 17.09375 
Q 28.796875 25.90625 32.4375 34.203125 
Q 36.09375 42.5 40.796875 49.796875 
Q 45.5 57.09375 50.90625 62.40625 
z
" id="HelveticaNeue-55"/>
       </defs>
       <use xlink:href="#HelveticaNeue-50"/>
       <use x="55.599991" xlink:href="#HelveticaNeue-48"/>
       <use x="111.199982" xlink:href="#HelveticaNeue-50"/>
       <use x="166.799973" xlink:href="#HelveticaNeue-48"/>
       <use x="222.399963" xlink:href="#HelveticaNeue-45"/>
       <use x="261.299957" xlink:href="#HelveticaNeue-48"/>
       <use x="316.899948" xlink:href="#HelveticaNeue-55"/>
      </g>
     </g>
    </g>
    <g id="xtick_5">
     <g id="line2d_9">
      <path clip-path="url(#p8319738fc9)" d="M 364.217566 515.4355 
L 364.217566 31.5955 
" style="fill:none;stroke:#cbcbcb;"/>
     </g>
     <g id="line2d_10"/>
     <g id="text_5">
      <!-- 2020-09 -->
      <g style="fill:#555555;" transform="translate(338.144754 528.932375)scale(0.14 -0.14)">
       <defs>
        <path d="M 13.40625 17.09375 
L 4.90625 17.09375 
Q 5.703125 7.90625 11.59375 3.40625 
Q 17.5 -1.09375 26.40625 -1.09375 
Q 39.296875 -1.09375 45.140625 8.75 
Q 51 18.59375 51 37 
Q 51 47.09375 49.046875 53.640625 
Q 47.09375 60.203125 43.796875 64 
Q 40.5 67.796875 36.09375 69.34375 
Q 31.703125 70.90625 26.703125 70.90625 
Q 21.59375 70.90625 17.296875 69.203125 
Q 13 67.5 9.890625 64.453125 
Q 6.796875 61.40625 5.09375 57.15625 
Q 3.40625 52.90625 3.40625 47.796875 
Q 3.40625 42.59375 4.84375 38.1875 
Q 6.296875 33.796875 9.140625 30.6875 
Q 12 27.59375 16.203125 25.84375 
Q 20.40625 24.09375 25.796875 24.09375 
Q 31 24.09375 35.390625 26.75 
Q 39.796875 29.40625 42.203125 33.90625 
L 42.40625 33.703125 
Q 42 19.796875 38.09375 13.046875 
Q 34.203125 6.296875 26.40625 6.296875 
Q 21.296875 6.296875 17.59375 9.09375 
Q 13.90625 11.90625 13.40625 17.09375 
z
M 40.90625 47.203125 
Q 40.90625 44.09375 39.90625 41.25 
Q 38.90625 38.40625 37 36.25 
Q 35.09375 34.09375 32.390625 32.84375 
Q 29.703125 31.59375 26.40625 31.59375 
Q 23.296875 31.59375 20.75 32.84375 
Q 18.203125 34.09375 16.34375 36.1875 
Q 14.5 38.296875 13.453125 41 
Q 12.40625 43.703125 12.40625 46.59375 
Q 12.40625 49.90625 13.15625 52.90625 
Q 13.90625 55.90625 15.546875 58.25 
Q 17.203125 60.59375 19.84375 62 
Q 22.5 63.40625 26.296875 63.40625 
Q 29.90625 63.40625 32.59375 62.09375 
Q 35.296875 60.796875 37.140625 58.546875 
Q 39 56.296875 39.953125 53.390625 
Q 40.90625 50.5 40.90625 47.203125 
z
" id="HelveticaNeue-57"/>
       </defs>
       <use xlink:href="#HelveticaNeue-50"/>
       <use x="55.599991" xlink:href="#HelveticaNeue-48"/>
       <use x="111.199982" xlink:href="#HelveticaNeue-50"/>
       <use x="166.799973" xlink:href="#HelveticaNeue-48"/>
       <use x="222.399963" xlink:href="#HelveticaNeue-45"/>
       <use x="261.299957" xlink:href="#HelveticaNeue-48"/>
       <use x="316.899948" xlink:href="#HelveticaNeue-57"/>
      </g>
     </g>
    </g>
    <g id="xtick_6">
     <g id="line2d_11">
      <path clip-path="url(#p8319738fc9)" d="M 433.970031 515.4355 
L 433.970031 31.5955 
" style="fill:none;stroke:#cbcbcb;"/>
     </g>
     <g id="line2d_12"/>
     <g id="text_6">
      <!-- 2020-11 -->
      <g style="fill:#555555;" transform="translate(407.897218 528.932375)scale(0.14 -0.14)">
       <use xlink:href="#HelveticaNeue-50"/>
       <use x="55.599991" xlink:href="#HelveticaNeue-48"/>
       <use x="111.199982" xlink:href="#HelveticaNeue-50"/>
       <use x="166.799973" xlink:href="#HelveticaNeue-48"/>
       <use x="222.399963" xlink:href="#HelveticaNeue-45"/>
       <use x="261.299957" xlink:href="#HelveticaNeue-49"/>
       <use x="316.899948" xlink:href="#HelveticaNeue-49"/>
      </g>
     </g>
    </g>
    <g id="xtick_7">
     <g id="line2d_13">
      <path clip-path="url(#p8319738fc9)" d="M 503.722495 515.4355 
L 503.722495 31.5955 
" style="fill:none;stroke:#cbcbcb;"/>
     </g>
     <g id="line2d_14"/>
     <g id="text_7">
      <!-- 2021-01 -->
      <g style="fill:#555555;" transform="translate(477.649683 528.932375)scale(0.14 -0.14)">
       <use xlink:href="#HelveticaNeue-50"/>
       <use x="55.599991" xlink:href="#HelveticaNeue-48"/>
       <use x="111.199982" xlink:href="#HelveticaNeue-50"/>
       <use x="166.799973" xlink:href="#HelveticaNeue-49"/>
       <use x="222.399963" xlink:href="#HelveticaNeue-45"/>
       <use x="261.299957" xlink:href="#HelveticaNeue-48"/>
       <use x="316.899948" xlink:href="#HelveticaNeue-49"/>
      </g>
     </g>
    </g>
    <g id="xtick_8">
     <g id="line2d_15">
      <path clip-path="url(#p8319738fc9)" d="M 571.187994 515.4355 
L 571.187994 31.5955 
" style="fill:none;stroke:#cbcbcb;"/>
     </g>
     <g id="line2d_16"/>
     <g id="text_8">
      <!-- 2021-03 -->
      <g style="fill:#555555;" transform="translate(545.115181 528.932375)scale(0.14 -0.14)">
       <use xlink:href="#HelveticaNeue-50"/>
       <use x="55.599991" xlink:href="#HelveticaNeue-48"/>
       <use x="111.199982" xlink:href="#HelveticaNeue-50"/>
       <use x="166.799973" xlink:href="#HelveticaNeue-49"/>
       <use x="222.399963" xlink:href="#HelveticaNeue-45"/>
       <use x="261.299957" xlink:href="#HelveticaNeue-48"/>
       <use x="316.899948" xlink:href="#HelveticaNeue-51"/>
      </g>
     </g>
    </g>
    <g id="xtick_9">
     <g id="line2d_17">
      <path clip-path="url(#p8319738fc9)" d="M 640.940458 515.4355 
L 640.940458 31.5955 
" style="fill:none;stroke:#cbcbcb;"/>
     </g>
     <g id="line2d_18"/>
     <g id="text_9">
      <!-- 2021-05 -->
      <g style="fill:#555555;" transform="translate(614.867645 528.932375)scale(0.14 -0.14)">
       <use xlink:href="#HelveticaNeue-50"/>
       <use x="55.599991" xlink:href="#HelveticaNeue-48"/>
       <use x="111.199982" xlink:href="#HelveticaNeue-50"/>
       <use x="166.799973" xlink:href="#HelveticaNeue-49"/>
       <use x="222.399963" xlink:href="#HelveticaNeue-45"/>
       <use x="261.299957" xlink:href="#HelveticaNeue-48"/>
       <use x="316.899948" xlink:href="#HelveticaNeue-53"/>
      </g>
     </g>
    </g>
   </g>
   <g id="matplotlib.axis_2">
    <g id="ytick_1">
     <g id="line2d_19">
      <path clip-path="url(#p8319738fc9)" d="M 80.748125 497.216324 
L 707.148125 497.216324 
" style="fill:none;stroke:#cbcbcb;"/>
     </g>
     <g id="line2d_20"/>
     <g id="text_10">
      <!-- 1 -->
      <g style="fill:#555555;" transform="translate(69.465 502.214762)scale(0.14 -0.14)">
       <use xlink:href="#HelveticaNeue-49"/>
      </g>
     </g>
    </g>
    <g id="ytick_2">
     <g id="line2d_21">
      <path clip-path="url(#p8319738fc9)" d="M 80.748125 430.699064 
L 707.148125 430.699064 
" style="fill:none;stroke:#cbcbcb;"/>
     </g>
     <g id="line2d_22"/>
     <g id="text_11">
      <!-- 10 -->
      <g style="fill:#555555;" transform="translate(61.681875 435.697501)scale(0.14 -0.14)">
       <use xlink:href="#HelveticaNeue-49"/>
       <use x="55.599991" xlink:href="#HelveticaNeue-48"/>
      </g>
     </g>
    </g>
    <g id="ytick_3">
     <g id="line2d_23">
      <path clip-path="url(#p8319738fc9)" d="M 80.748125 364.181803 
L 707.148125 364.181803 
" style="fill:none;stroke:#cbcbcb;"/>
     </g>
     <g id="line2d_24"/>
     <g id="text_12">
      <!-- 100 -->
      <g style="fill:#555555;" transform="translate(53.89875 369.180241)scale(0.14 -0.14)">
       <use xlink:href="#HelveticaNeue-49"/>
       <use x="55.599991" xlink:href="#HelveticaNeue-48"/>
       <use x="111.199982" xlink:href="#HelveticaNeue-48"/>
      </g>
     </g>
    </g>
    <g id="ytick_4">
     <g id="line2d_25">
      <path clip-path="url(#p8319738fc9)" d="M 80.748125 297.664543 
L 707.148125 297.664543 
" style="fill:none;stroke:#cbcbcb;"/>
     </g>
     <g id="line2d_26"/>
     <g id="text_13">
      <!-- 1,000 -->
      <g style="fill:#555555;" transform="translate(42.224063 302.66298)scale(0.14 -0.14)">
       <defs>
        <path d="M 8.296875 11.09375 
L 8.296875 0 
L 14.203125 0 
Q 14.296875 -1.203125 14.046875 -2.59375 
Q 13.796875 -4 13.09375 -5.34375 
Q 12.40625 -6.703125 11.25 -7.84375 
Q 10.09375 -9 8.40625 -9.59375 
L 8.40625 -14.59375 
Q 14.203125 -12.90625 16.796875 -8.796875 
Q 19.40625 -4.703125 19.40625 1 
L 19.40625 11.09375 
z
" id="HelveticaNeue-44"/>
       </defs>
       <use xlink:href="#HelveticaNeue-49"/>
       <use x="55.599991" xlink:href="#HelveticaNeue-44"/>
       <use x="83.399979" xlink:href="#HelveticaNeue-48"/>
       <use x="138.999969" xlink:href="#HelveticaNeue-48"/>
       <use x="194.59996" xlink:href="#HelveticaNeue-48"/>
      </g>
     </g>
    </g>
    <g id="ytick_5">
     <g id="line2d_27">
      <path clip-path="url(#p8319738fc9)" d="M 80.748125 231.147282 
L 707.148125 231.147282 
" style="fill:none;stroke:#cbcbcb;"/>
     </g>
     <g id="line2d_28"/>
     <g id="text_14">
      <!-- 10,000 -->
      <g style="fill:#555555;" transform="translate(34.440938 236.145719)scale(0.14 -0.14)">
       <use xlink:href="#HelveticaNeue-49"/>
       <use x="55.599991" xlink:href="#HelveticaNeue-48"/>
       <use x="111.199982" xlink:href="#HelveticaNeue-44"/>
       <use x="138.999969" xlink:href="#HelveticaNeue-48"/>
       <use x="194.59996" xlink:href="#HelveticaNeue-48"/>
       <use x="250.199951" xlink:href="#HelveticaNeue-48"/>
      </g>
     </g>
    </g>
    <g id="ytick_6">
     <g id="line2d_29">
      <path clip-path="url(#p8319738fc9)" d="M 80.748125 164.630021 
L 707.148125 164.630021 
" style="fill:none;stroke:#cbcbcb;"/>
     </g>
     <g id="line2d_30"/>
     <g id="text_15">
      <!-- 100,000 -->
      <g style="fill:#555555;" transform="translate(26.657813 169.628459)scale(0.14 -0.14)">
       <use xlink:href="#HelveticaNeue-49"/>
       <use x="55.599991" xlink:href="#HelveticaNeue-48"/>
       <use x="111.199982" xlink:href="#HelveticaNeue-48"/>
       <use x="166.799973" xlink:href="#HelveticaNeue-44"/>
       <use x="194.59996" xlink:href="#HelveticaNeue-48"/>
       <use x="250.199951" xlink:href="#HelveticaNeue-48"/>
       <use x="305.799942" xlink:href="#HelveticaNeue-48"/>
      </g>
     </g>
    </g>
    <g id="ytick_7">
     <g id="line2d_31">
      <path clip-path="url(#p8319738fc9)" d="M 80.748125 98.112761 
L 707.148125 98.112761 
" style="fill:none;stroke:#cbcbcb;"/>
     </g>
     <g id="line2d_32"/>
     <g id="text_16">
      <!-- 1,000,000 -->
      <g style="fill:#555555;" transform="translate(14.983125 103.111198)scale(0.14 -0.14)">
       <use xlink:href="#HelveticaNeue-49"/>
       <use x="55.599991" xlink:href="#HelveticaNeue-44"/>
       <use x="83.399979" xlink:href="#HelveticaNeue-48"/>
       <use x="138.999969" xlink:href="#HelveticaNeue-48"/>
       <use x="194.59996" xlink:href="#HelveticaNeue-48"/>
       <use x="250.199951" xlink:href="#HelveticaNeue-44"/>
       <use x="277.999939" xlink:href="#HelveticaNeue-48"/>
       <use x="333.59993" xlink:href="#HelveticaNeue-48"/>
       <use x="389.199921" xlink:href="#HelveticaNeue-48"/>
      </g>
     </g>
    </g>
    <g id="ytick_8">
     <g id="line2d_33">
      <path clip-path="url(#p8319738fc9)" d="M 80.748125 31.5955 
L 707.148125 31.5955 
" style="fill:none;stroke:#cbcbcb;"/>
     </g>
     <g id="line2d_34"/>
     <g id="text_17">
      <!-- 10,000,000 -->
      <g style="fill:#555555;" transform="translate(7.2 36.593937)scale(0.14 -0.14)">
       <use xlink:href="#HelveticaNeue-49"/>
       <use x="55.599991" xlink:href="#HelveticaNeue-48"/>
       <use x="111.199982" xlink:href="#HelveticaNeue-44"/>
       <use x="138.999969" xlink:href="#HelveticaNeue-48"/>
       <use x="194.59996" xlink:href="#HelveticaNeue-48"/>
       <use x="250.199951" xlink:href="#HelveticaNeue-48"/>
       <use x="305.799942" xlink:href="#HelveticaNeue-44"/>
       <use x="333.59993" xlink:href="#HelveticaNeue-48"/>
       <use x="389.199921" xlink:href="#HelveticaNeue-48"/>
       <use x="444.799911" xlink:href="#HelveticaNeue-48"/>
      </g>
     </g>
    </g>
    <g id="ytick_9">
     <g id="line2d_35"/>
    </g>
    <g id="ytick_10">
     <g id="line2d_36"/>
    </g>
    <g id="ytick_11">
     <g id="line2d_37"/>
    </g>
    <g id="ytick_12">
     <g id="line2d_38"/>
    </g>
    <g id="ytick_13">
     <g id="line2d_39"/>
    </g>
    <g id="ytick_14">
     <g id="line2d_40"/>
    </g>
    <g id="ytick_15">
     <g id="line2d_41"/>
    </g>
    <g id="ytick_16">
     <g id="line2d_42"/>
    </g>
    <g id="ytick_17">
     <g id="line2d_43"/>
    </g>
    <g id="ytick_18">
     <g id="line2d_44"/>
    </g>
    <g id="ytick_19">
     <g id="line2d_45"/>
    </g>
    <g id="ytick_20">
     <g id="line2d_46"/>
    </g>
    <g id="ytick_21">
     <g id="line2d_47"/>
    </g>
    <g id="ytick_22">
     <g id="line2d_48"/>
    </g>
    <g id="ytick_23">
     <g id="line2d_49"/>
    </g>
    <g id="ytick_24">
     <g id="line2d_50"/>
    </g>
    <g id="ytick_25">
     <g id="line2d_51"/>
    </g>
    <g id="ytick_26">
     <g id="line2d_52"/>
    </g>
    <g id="ytick_27">
     <g id="line2d_53"/>
    </g>
    <g id="ytick_28">
     <g id="line2d_54"/>
    </g>
    <g id="ytick_29">
     <g id="line2d_55"/>
    </g>
    <g id="ytick_30">
     <g id="line2d_56"/>
    </g>
    <g id="ytick_31">
     <g id="line2d_57"/>
    </g>
    <g id="ytick_32">
     <g id="line2d_58"/>
    </g>
    <g id="ytick_33">
     <g id="line2d_59"/>
    </g>
    <g id="ytick_34">
     <g id="line2d_60"/>
    </g>
    <g id="ytick_35">
     <g id="line2d_61"/>
    </g>
    <g id="ytick_36">
     <g id="line2d_62"/>
    </g>
    <g id="ytick_37">
     <g id="line2d_63"/>
    </g>
    <g id="ytick_38">
     <g id="line2d_64"/>
    </g>
    <g id="ytick_39">
     <g id="line2d_65"/>
    </g>
    <g id="ytick_40">
     <g id="line2d_66"/>
    </g>
    <g id="ytick_41">
     <g id="line2d_67"/>
    </g>
    <g id="ytick_42">
     <g id="line2d_68"/>
    </g>
    <g id="ytick_43">
     <g id="line2d_69"/>
    </g>
    <g id="ytick_44">
     <g id="line2d_70"/>
    </g>
    <g id="ytick_45">
     <g id="line2d_71"/>
    </g>
    <g id="ytick_46">
     <g id="line2d_72"/>
    </g>
    <g id="ytick_47">
     <g id="line2d_73"/>
    </g>
    <g id="ytick_48">
     <g id="line2d_74"/>
    </g>
    <g id="ytick_49">
     <g id="line2d_75"/>
    </g>
    <g id="ytick_50">
     <g id="line2d_76"/>
    </g>
    <g id="ytick_51">
     <g id="line2d_77"/>
    </g>
    <g id="ytick_52">
     <g id="line2d_78"/>
    </g>
    <g id="ytick_53">
     <g id="line2d_79"/>
    </g>
    <g id="ytick_54">
     <g id="line2d_80"/>
    </g>
    <g id="ytick_55">
     <g id="line2d_81"/>
    </g>
    <g id="ytick_56">
     <g id="line2d_82"/>
    </g>
    <g id="ytick_57">
     <g id="line2d_83"/>
    </g>
    <g id="ytick_58">
     <g id="line2d_84"/>
    </g>
    <g id="ytick_59">
     <g id="line2d_85"/>
    </g>
    <g id="ytick_60">
     <g id="line2d_86"/>
    </g>
    <g id="ytick_61">
     <g id="line2d_87"/>
    </g>
    <g id="ytick_62">
     <g id="line2d_88"/>
    </g>
    <g id="ytick_63">
     <g id="line2d_89"/>
    </g>
    <g id="ytick_64">
     <g id="line2d_90"/>
    </g>
    <g id="ytick_65">
     <g id="line2d_91"/>
    </g>
    <g id="ytick_66">
     <g id="line2d_92"/>
    </g>
    <g id="ytick_67">
     <g id="line2d_93"/>
    </g>
    <g id="ytick_68">
     <g id="line2d_94"/>
    </g>
   </g>
   <g id="line2d_95">
    <path clip-path="url(#p8319738fc9)" d="M 111.507085 539.890812 
L 111.507818 497.216324 
L 112.651301 497.216324 
L 113.794784 477.192634 
L 113.795862 539.890812 
M 118.367983 539.890812 
L 118.368716 497.216324 
L 120.655683 497.216324 
L 121.799166 465.479526 
L 121.800444 539.890812 
M 125.228881 539.890812 
L 125.229615 497.216324 
L 125.230348 539.890812 
M 130.946296 539.890812 
L 130.94703 497.216324 
L 130.947763 539.890812 
M 133.233262 539.890812 
L 133.233996 497.216324 
L 134.377479 497.216324 
L 134.378212 539.890812 
M 138.949536 539.890812 
L 138.951411 430.699064 
L 138.953286 539.890812 
M 142.380782 539.890812 
L 142.38186 477.192634 
L 143.525343 465.479526 
L 143.526622 539.890812 
M 146.953787 539.890812 
L 146.955792 423.119864 
L 148.099275 477.192634 
L 149.242758 418.985956 
L 149.244834 539.890812 
M 151.528192 539.890812 
L 151.529724 450.722754 
L 152.673207 450.722754 
L 153.81669 413.719036 
L 154.960173 417.121562 
L 156.103656 409.265919 
L 157.247139 393.695345 
L 158.390622 375.750831 
L 159.534105 369.564507 
L 160.677588 359.646266 
L 161.821071 359.156626 
L 162.964554 344.014032 
L 164.108037 335.488667 
L 165.25152 338.295541 
L 166.395003 323.775559 
L 167.538486 314.621469 
L 168.681969 309.061617 
L 169.825452 307.885777 
L 170.968936 300.48439 
L 172.112419 287.965148 
L 173.255902 271.849114 
L 174.399385 257.308272 
L 175.542868 247.799277 
L 176.686351 243.520751 
L 177.829834 235.689608 
L 178.973317 229.925521 
L 180.1168 229.922752 
L 181.260283 220.147785 
L 182.403766 215.82185 
L 183.547249 215.263056 
L 184.690732 209.623488 
L 185.834215 213.344537 
L 186.977698 209.076069 
L 188.121181 205.253946 
L 191.55163 197.260431 
L 192.695113 194.875769 
L 193.838596 203.974228 
L 194.982079 198.541632 
L 196.125562 199.087783 
L 197.269045 197.709043 
L 198.412528 195.206878 
L 199.556011 196.246032 
L 200.699494 197.799972 
L 201.842977 202.30155 
L 202.98646 203.802198 
L 204.129943 202.78666 
L 205.273426 199.378724 
L 206.416909 197.897584 
L 207.560392 197.992776 
L 209.847358 204.294013 
L 210.990841 202.034586 
L 212.134324 204.089487 
L 213.277807 200.558674 
L 214.42129 195.985711 
L 215.564773 193.554987 
L 216.708256 195.450167 
L 217.851739 202.739078 
L 218.995222 206.839758 
L 220.138706 205.083522 
L 221.282189 202.934232 
L 222.425672 199.068744 
L 223.569155 195.820261 
L 224.712638 199.92148 
L 225.856121 203.389258 
L 226.999604 208.420204 
L 228.143087 206.20908 
L 229.28657 205.253946 
L 230.430053 200.914556 
L 231.573536 201.769021 
L 232.717019 204.830336 
L 233.860502 210.669306 
L 235.003985 214.782004 
L 236.147468 207.978997 
L 237.290951 209.515357 
L 238.434434 202.494832 
L 239.577917 203.282259 
L 240.7214 206.270067 
L 241.864883 212.584078 
L 243.008366 208.598326 
L 244.151849 209.745794 
L 245.295332 206.99835 
L 246.438815 203.842584 
L 247.582298 206.099628 
L 248.725781 208.02048 
L 249.869264 211.078849 
L 251.012747 212.453712 
L 253.299713 212.997231 
L 254.443196 207.705663 
L 255.586679 205.204478 
L 256.730162 206.591758 
L 257.873645 210.222054 
L 259.017128 208.50583 
L 260.160611 210.003083 
L 261.304094 211.142375 
L 262.447577 208.878944 
L 263.59106 200.681175 
L 264.734543 207.70053 
L 265.878026 213.19518 
L 267.021509 213.836937 
L 268.164992 212.903371 
L 269.308475 207.272626 
L 270.451959 206.833532 
L 271.595442 204.113274 
L 272.738925 204.294013 
L 273.882408 212.408374 
L 275.025891 210.955088 
L 276.169374 204.810594 
L 277.312857 203.93028 
L 279.599823 198.616481 
L 280.743306 197.523529 
L 281.886789 203.126332 
L 284.173755 194.907886 
L 285.317238 193.360649 
L 287.604204 187.360395 
L 289.89117 191.457427 
L 291.034653 191.466203 
L 292.178136 185.599811 
L 293.321619 184.66816 
L 294.465102 181.608258 
L 295.608585 180.790614 
L 296.752068 184.650246 
L 297.895551 187.84734 
L 299.039034 186.247597 
L 300.182517 182.385553 
L 301.326 179.650391 
L 302.469483 179.440285 
L 303.612966 175.674795 
L 304.756449 179.041723 
L 305.899932 180.46343 
L 308.186898 176.808196 
L 309.330381 175.626144 
L 310.473864 172.677194 
L 311.617347 174.555255 
L 312.76083 178.23018 
L 313.904313 178.311708 
L 315.047796 179.440767 
L 316.191279 176.951666 
L 317.334762 175.041588 
L 318.478245 174.931199 
L 319.621729 173.514397 
L 320.765212 176.295792 
L 321.908695 182.314601 
L 323.052178 179.783831 
L 324.195661 177.924196 
L 325.339144 176.293196 
L 326.482627 175.371117 
L 327.62611 175.312519 
L 328.769593 180.95586 
L 329.913076 184.198574 
L 331.056559 186.145209 
L 332.200042 182.672737 
L 333.343525 182.579022 
L 335.630491 178.835037 
L 336.773974 181.774601 
L 337.917457 185.545535 
L 339.06094 186.335036 
L 340.204423 182.776502 
L 341.347906 182.282117 
L 342.491389 182.397841 
L 343.634872 179.639704 
L 344.778355 184.227593 
L 345.921838 189.59637 
L 347.065321 192.946582 
L 348.208804 188.854585 
L 349.352287 189.001963 
L 351.639253 185.220237 
L 352.782736 187.680689 
L 353.926219 197.247026 
L 355.069702 190.809595 
L 356.213185 191.696049 
L 357.356668 187.493313 
L 358.500151 187.308411 
L 359.643634 186.710407 
L 360.787117 187.948829 
L 361.9306 196.283166 
L 363.074083 193.756975 
L 364.217566 188.31442 
L 365.361049 197.148022 
L 366.504532 186.816067 
L 367.648015 183.462982 
L 368.791498 189.516268 
L 369.934982 199.411446 
L 371.078465 204.48622 
L 374.508914 192.536089 
L 375.652397 186.094151 
L 376.79588 191.754351 
L 377.939363 196.358444 
L 379.082846 193.44042 
L 380.226329 191.670993 
L 381.369812 191.633449 
L 382.513295 187.49905 
L 383.656778 185.304026 
L 384.800261 189.820736 
L 385.943744 193.859296 
L 387.087227 181.926658 
L 388.23071 193.048385 
L 389.374193 190.000936 
L 390.517676 187.56799 
L 391.661159 182.121301 
L 392.804642 189.214976 
L 393.948125 193.120326 
L 395.091608 193.072345 
L 396.235091 188.546194 
L 397.378574 189.650581 
L 398.522057 186.801127 
L 399.66554 182.656019 
L 400.809023 185.966294 
L 401.952506 194.905414 
L 403.095989 178.248226 
L 404.239472 189.103555 
L 405.382955 182.961171 
L 406.526438 181.182963 
L 407.669921 179.89093 
L 409.956887 187.837017 
L 411.10037 185.823353 
L 412.243853 182.220445 
L 414.530819 176.918052 
L 415.674302 174.74323 
L 416.817785 183.100999 
L 417.961268 185.904085 
L 419.104752 176.879621 
L 420.248235 179.102207 
L 421.391718 177.41562 
L 422.535201 172.891343 
L 423.678684 169.224119 
L 424.822167 171.593211 
L 425.96565 179.524338 
L 427.109133 173.083084 
L 428.252616 173.177686 
L 431.683065 164.668179 
L 432.826548 169.594626 
L 433.970031 173.252345 
L 435.113514 166.413488 
L 436.256997 166.908426 
L 437.40048 162.385374 
L 438.543963 159.043973 
L 439.687446 156.43022 
L 440.830929 157.969242 
L 441.974412 163.659685 
L 443.117895 156.95299 
L 444.261378 154.961617 
L 445.404861 154.320735 
L 446.548344 150.40268 
L 447.691827 147.410735 
L 448.83531 151.227641 
L 449.978793 155.920588 
L 451.122276 149.891744 
L 452.265759 150.758102 
L 453.409242 148.915822 
L 454.552725 146.468414 
L 455.696208 144.768413 
L 456.839691 148.972553 
L 457.983174 154.737584 
L 459.126657 147.692876 
L 460.27014 148.012883 
L 461.413623 147.5537 
L 462.557106 163.80615 
L 463.700589 143.75594 
L 464.844072 152.6852 
L 465.987555 155.668469 
L 467.131038 149.703828 
L 469.418005 144.434525 
L 470.561488 142.151562 
L 471.704971 140.396066 
L 472.848454 143.790743 
L 473.991937 148.945181 
L 475.13542 143.984468 
L 476.278903 141.889398 
L 477.422386 141.888346 
L 478.565869 141.176086 
L 479.709352 134.830429 
L 480.852835 143.551896 
L 481.996318 146.979918 
L 483.139801 144.447451 
L 484.283284 144.18192 
L 485.426767 138.739515 
L 486.57025 139.614795 
L 487.713733 138.021351 
L 488.857216 145.494877 
L 490.000699 147.658661 
L 491.144182 144.383884 
L 492.287665 144.370271 
L 493.431148 140.848556 
L 494.574631 145.553922 
L 495.718114 164.350299 
L 496.861597 142.265887 
L 498.00508 152.516614 
L 499.148563 146.238858 
L 500.292046 144.454634 
L 501.435529 140.698031 
L 502.579012 140.442173 
L 503.722495 153.446931 
L 504.865978 133.728195 
L 506.009461 144.322889 
L 507.152944 137.94819 
L 508.296427 139.946743 
L 510.583393 134.850928 
L 511.726876 132.832813 
L 514.013842 143.430436 
L 515.157325 141.032143 
L 516.300808 140.593882 
L 517.444291 140.627214 
L 518.587775 139.397124 
L 519.731258 139.35434 
L 522.018224 149.283523 
L 523.161707 154.669566 
L 524.30519 146.556669 
L 525.448673 146.779273 
L 526.592156 146.010809 
L 527.735639 145.846901 
L 528.879122 149.672484 
L 530.022605 157.100418 
L 531.166088 151.67393 
L 532.309571 152.792002 
L 533.453054 151.820591 
L 534.596537 149.988512 
L 535.74002 150.192488 
L 536.883503 156.217643 
L 538.026986 160.888992 
L 539.170469 154.521179 
L 540.313952 160.532342 
L 542.600918 158.032165 
L 543.744401 157.157683 
L 544.887884 163.229923 
L 546.031367 168.559549 
L 547.17485 166.71589 
L 548.318333 165.69217 
L 549.461816 166.116044 
L 550.605299 163.032719 
L 551.748782 164.735656 
L 552.892265 169.428042 
L 554.035748 177.615079 
L 555.179231 181.752645 
L 556.322714 177.278783 
L 557.466197 174.853313 
L 558.60968 174.196206 
L 559.753163 171.797965 
L 560.896646 175.038688 
L 562.040129 181.797097 
L 563.183612 179.639704 
L 564.327095 174.1548 
L 565.470578 173.237164 
L 566.614061 171.849474 
L 567.757544 171.681206 
L 570.044511 184.124166 
L 571.187994 181.009795 
L 572.331477 180.544003 
L 573.47496 176.349919 
L 574.618443 176.060975 
L 575.761926 176.765953 
L 576.905409 181.079141 
L 578.048892 191.006886 
L 579.192375 166.253227 
L 580.335858 181.427362 
L 581.479341 180.260745 
L 582.622824 178.245912 
L 583.766307 177.431814 
L 586.053273 192.577104 
L 587.196756 180.77596 
L 588.340239 182.1303 
L 589.483722 179.903181 
L 590.627205 179.161862 
L 591.770688 179.068854 
L 592.914171 182.194433 
L 594.057654 195.610972 
L 595.201137 182.043075 
L 596.34462 180.990448 
L 597.488103 171.097884 
L 598.631586 175.295798 
L 599.775069 173.122981 
L 600.918552 179.041247 
L 602.062035 188.003277 
L 603.205518 174.625398 
L 604.349001 178.326092 
L 605.492484 175.789768 
L 606.635967 172.096057 
L 607.77945 175.511819 
L 608.922933 177.460626 
L 610.066416 193.481173 
L 611.209899 172.323265 
L 612.353382 178.45214 
L 613.496865 173.683841 
L 614.640348 170.898374 
L 615.783831 170.509461 
L 616.927314 177.166211 
L 618.070798 185.834185 
L 619.214281 174.145964 
L 620.357764 172.052323 
L 621.501247 172.652014 
L 622.64473 173.448073 
L 623.788213 171.676782 
L 624.931696 182.477571 
L 626.075179 190.105412 
L 627.218662 174.805614 
L 628.362145 177.826871 
L 629.505628 179.266675 
L 630.649111 176.527735 
L 631.792594 177.612815 
L 632.936077 184.371415 
L 634.07956 196.130617 
L 635.223043 186.225016 
L 636.366526 183.574082 
L 638.653492 180.56556 
L 639.796975 180.100897 
L 640.940458 187.831856 
L 642.083941 199.802152 
L 643.227424 184.639849 
L 644.370907 190.41266 
L 645.51439 187.869934 
L 646.657873 186.003199 
L 647.801356 186.130004 
L 648.944839 196.068793 
L 650.088322 207.925933 
L 651.231805 193.690542 
L 652.375288 195.753157 
L 653.518771 194.542717 
L 654.662254 192.244585 
L 655.805737 190.397149 
L 656.94922 200.335098 
L 658.092703 216.386467 
L 659.236186 200.101402 
L 660.379669 201.534881 
L 661.523152 200.564686 
L 662.666635 199.76801 
L 663.810118 200.377883 
L 664.953601 213.617231 
L 666.097084 221.166371 
L 667.240567 203.907768 
L 668.384051 207.316905 
L 669.527534 206.553508 
L 670.671017 201.657438 
L 671.8145 208.687137 
L 672.957983 226.924535 
L 674.101466 239.720978 
L 675.244949 247.897125 
L 676.388432 207.701813 
L 677.531915 215.995721 
L 678.675398 211.877204 
L 678.675398 211.877204 
" style="fill:none;stroke:#008fd5;stroke-width:4;"/>
   </g>
   <g id="line2d_96">
    <path clip-path="url(#p8319738fc9)" d="M 153.815613 539.890812 
L 153.81669 477.192634 
L 153.817768 539.890812 
M 156.102923 539.890812 
L 156.103656 497.216324 
L 156.10439 539.890812 
M 158.389889 539.890812 
L 158.390622 497.216324 
L 159.534105 465.479526 
L 160.677588 450.722754 
L 161.821071 497.216324 
L 162.964554 497.216324 
L 164.108037 433.742727 
L 165.25152 465.479526 
L 166.395003 410.675373 
L 167.538486 405.408454 
L 167.540795 539.890812 
M 169.822904 539.890812 
L 169.825452 391.383065 
L 170.968936 397.097871 
L 172.112419 374.90112 
L 173.255902 359.894234 
L 174.399385 361.958547 
L 175.542868 356.602604 
L 176.686351 344.158112 
L 177.829834 339.376718 
L 178.973317 341.143352 
L 180.1168 338.295541 
L 181.260283 317.458048 
L 182.403766 317.286605 
L 183.547249 307.154394 
L 184.690732 302.701277 
L 185.834215 300.54816 
L 186.977698 305.898193 
L 188.121181 296.337744 
L 189.264664 296.894908 
L 190.408147 291.660824 
L 191.55163 290.988169 
L 192.695113 290.601015 
L 193.838596 303.930743 
L 194.982079 290.555807 
L 196.125562 294.442326 
L 197.269045 299.115915 
L 198.412528 294.159486 
L 199.556011 293.854058 
L 200.699494 297.149182 
L 201.842977 301.456053 
L 202.98646 293.47676 
L 204.129943 311.99121 
L 205.273426 300.516257 
L 206.416909 303.894879 
L 207.560392 287.677497 
L 208.703875 306.401955 
L 209.847358 303.327036 
L 210.990841 306.207159 
L 212.134324 303.716226 
L 213.277807 321.381094 
L 214.42129 289.231446 
L 215.564773 301.193731 
L 216.708256 331.872944 
L 217.851739 308.425757 
L 218.995222 311.943814 
L 220.138706 307.639919 
L 221.282189 328.240567 
L 222.425672 317.804017 
L 223.569155 296.614983 
L 224.712638 306.558742 
L 225.856121 311.707991 
L 226.999604 303.43266 
L 228.143087 315.358181 
L 229.28657 314.260041 
L 230.430053 303.186802 
L 231.573536 326.30861 
L 232.717019 304.038601 
L 233.860502 312.663056 
L 235.003985 325.163623 
L 236.147468 299.421288 
L 237.290951 318.927749 
L 238.434434 303.823285 
L 239.577917 299.823162 
L 240.7214 309.104509 
L 241.864883 304.953436 
L 243.008366 302.223777 
L 244.151849 317.572911 
L 245.295332 316.168938 
L 246.438815 292.301489 
L 247.582298 304.990639 
L 248.725781 308.976022 
L 249.869264 306.36289 
L 251.012747 301.390249 
L 252.15623 317.172872 
L 253.299713 325.692308 
L 254.443196 310.064625 
L 255.586679 292.110177 
L 256.730162 299.854308 
L 257.873645 306.401955 
L 259.017128 309.36321 
L 260.160611 311.614199 
L 261.304094 289.710024 
L 262.447577 287.55509 
L 263.59106 289.974448 
L 264.734543 290.759803 
L 265.878026 292.883148 
L 267.021509 298.663823 
L 268.164992 295.016454 
L 270.451959 282.369718 
L 271.595442 279.092224 
L 272.738925 270.273533 
L 273.882408 277.410667 
L 275.025891 281.366558 
L 276.169374 268.096742 
L 277.312857 269.950757 
L 278.45634 264.000226 
L 279.599823 258.932161 
L 280.743306 257.265432 
L 281.886789 261.524192 
L 283.030272 266.649252 
L 284.173755 263.297232 
L 285.317238 248.359926 
L 286.460721 251.147871 
L 287.604204 234.377715 
L 288.747687 232.371724 
L 289.89117 235.740363 
L 291.034653 249.673612 
L 292.178136 245.459723 
L 293.321619 243.313129 
L 294.465102 230.834106 
L 295.608585 232.66556 
L 296.752068 227.215525 
L 297.895551 230.977343 
L 299.039034 244.329994 
L 300.182517 240.053275 
L 301.326 231.179076 
L 302.469483 234.400338 
L 303.612966 227.278624 
L 304.756449 230.125593 
L 305.899932 218.862114 
L 307.043415 224.415936 
L 308.186898 233.574863 
L 309.330381 230.629083 
L 310.473864 221.499556 
L 311.617347 227.195363 
L 312.76083 230.214961 
L 313.904313 224.751981 
L 315.047796 230.161865 
L 316.191279 232.812076 
L 317.334762 231.77515 
L 318.478245 230.436778 
L 319.621729 224.830803 
L 320.765212 225.405231 
L 321.908695 233.107357 
L 323.052178 234.539699 
L 324.195661 233.461969 
L 325.339144 232.793721 
L 326.482627 231.27467 
L 327.62611 234.168485 
L 328.769593 232.200441 
L 329.913076 241.024899 
L 331.056559 252.640576 
L 332.200042 248.702675 
L 333.343525 248.899609 
L 334.487008 238.885805 
L 335.630491 238.75018 
L 336.773974 235.835345 
L 337.917457 244.822011 
L 339.06094 256.518892 
L 341.347906 237.202528 
L 342.491389 244.789566 
L 343.634872 245.200127 
L 344.778355 244.257136 
L 345.921838 259.259013 
L 347.065321 269.207755 
L 348.208804 258.81148 
L 349.352287 256.798344 
L 350.49577 253.863699 
L 351.639253 253.056944 
L 352.782736 255.454151 
L 353.926219 266.179198 
L 355.069702 274.135795 
L 356.213185 269.261742 
L 357.356668 263.883361 
L 358.500151 263.447071 
L 359.643634 258.985119 
L 360.787117 264.090445 
L 361.9306 270.251156 
L 363.074083 279.351585 
L 364.217566 239.193309 
L 365.361049 272.349869 
L 366.504532 260.894476 
L 367.648015 264.08141 
L 368.791498 260.214913 
L 371.078465 280.081004 
L 372.221948 280.317728 
L 373.365431 276.843103 
L 374.508914 270.251156 
L 375.652397 260.262362 
L 376.79588 264.153766 
L 377.939363 272.098406 
L 379.082846 281.730351 
L 380.226329 264.831792 
L 381.369812 272.920726 
L 382.513295 263.571055 
L 383.656778 264.027262 
L 384.800261 260.878301 
L 385.943744 270.953017 
L 387.087227 282.591738 
L 388.23071 271.543417 
L 389.374193 270.172974 
L 390.517676 270.724742 
L 391.661159 267.439933 
L 392.804642 267.972447 
L 393.948125 279.397598 
L 395.091608 306.441072 
L 396.235091 263.473594 
L 397.378574 278.401879 
L 398.522057 269.752213 
L 399.66554 269.40258 
L 400.809023 268.055251 
L 401.952506 279.613296 
L 403.095989 287.636637 
L 404.239472 274.22549 
L 405.382955 270.262342 
L 406.526438 263.12194 
L 407.669921 266.827513 
L 407.674599 539.890812 
M 409.951889 539.890812 
L 409.956887 248.052298 
L 411.10037 285.322787 
L 412.243853 268.705155 
L 413.387336 267.076937 
L 414.530819 262.688307 
L 415.674302 261.898664 
L 416.817785 257.301127 
L 417.961268 270.747488 
L 419.104752 282.217005 
L 420.248235 260.167543 
L 421.391718 275.632377 
L 422.535201 248.114602 
L 423.678684 259.955332 
L 424.822167 254.401406 
L 425.96565 272.555049 
L 427.109133 262.508104 
L 428.252616 255.541396 
L 429.396099 256.798344 
L 430.539582 256.221467 
L 431.683065 247.938423 
L 432.826548 273.216637 
L 433.970031 251.961674 
L 435.113514 253.261189 
L 436.256997 253.348276 
L 437.40048 254.713221 
L 438.543963 244.692447 
L 440.830929 254.52443 
L 441.974412 242.20349 
L 443.117895 258.171316 
L 444.261378 255.17407 
L 445.404861 246.694754 
L 446.548344 247.861037 
L 447.691827 241.728768 
L 448.83531 253.933546 
L 449.978793 230.845538 
L 451.122276 253.186751 
L 452.265759 239.616219 
L 453.409242 237.865574 
L 454.552725 233.919393 
L 455.696208 233.919393 
L 456.839691 236.153081 
L 457.983174 243.207682 
L 459.126657 244.3528 
L 460.27014 235.655821 
L 461.413623 236.266672 
L 461.418822 539.890812 
M 463.695032 539.890812 
L 463.700589 215.239728 
L 464.844072 244.600256 
L 465.987555 239.990432 
L 467.131038 242.89363 
L 468.274521 234.686264 
L 469.418005 231.16462 
L 470.561488 228.737392 
L 471.704971 230.640435 
L 472.848454 229.92829 
L 473.991937 236.060475 
L 475.13542 238.656369 
L 476.278903 237.647686 
L 478.565869 227.527311 
L 479.709352 226.614214 
L 480.852835 229.526755 
L 481.996318 234.326071 
L 483.139801 236.005737 
L 484.283284 232.900958 
L 485.426767 227.007019 
L 486.57025 223.241061 
L 487.713733 223.568082 
L 488.857216 226.656223 
L 490.000699 236.180578 
L 491.144182 228.354588 
L 492.287665 229.919983 
L 493.431148 227.4027 
L 494.574631 223.243258 
L 494.580052 539.890812 
M 496.856048 539.890812 
L 496.861597 215.747168 
L 498.00508 239.880785 
L 499.148563 236.887195 
L 500.292046 225.700374 
L 501.435529 221.694662 
L 502.579012 215.494014 
L 502.584565 539.890812 
M 504.860127 539.890812 
L 504.865978 197.984526 
L 506.009461 229.45583 
L 507.152944 227.729353 
L 508.296427 218.615824 
L 509.43991 214.517632 
L 510.583393 211.390592 
L 511.726876 211.810565 
L 514.013842 225.136524 
L 515.157325 226.919543 
L 516.300808 219.635162 
L 517.444291 221.447887 
L 518.587775 222.010863 
L 519.731258 216.031648 
L 520.874741 225.5953 
L 522.018224 228.150745 
L 523.161707 237.586249 
L 525.448673 226.088139 
L 526.592156 223.851684 
L 527.735639 222.012968 
L 528.879122 225.141217 
L 530.022605 232.522812 
L 531.166088 235.103962 
L 532.309571 232.344612 
L 533.453054 236.156517 
L 534.596537 227.303903 
L 535.74002 228.457051 
L 536.883503 219.397605 
L 538.026986 238.369331 
L 539.170469 247.234174 
L 540.313952 229.647179 
L 541.457435 241.53773 
L 542.600918 238.656369 
L 543.744401 227.002013 
L 544.887884 239.511839 
L 546.031367 243.045868 
L 547.17485 247.198905 
L 548.318333 241.356174 
L 549.461816 239.3157 
L 550.605299 235.757301 
L 551.748782 239.010689 
L 552.892265 239.400146 
L 554.035748 248.755768 
L 555.179231 260.540707 
L 556.322714 244.508358 
L 557.466197 240.072942 
L 558.60968 250.502779 
L 559.753163 242.789701 
L 560.896646 240.317925 
L 562.040129 250.797848 
L 563.183612 256.546716 
L 564.327095 247.845585 
L 565.470578 240.927468 
L 566.614061 242.976174 
L 567.757544 246.28206 
L 568.901028 248.633799 
L 570.044511 248.213525 
L 571.187994 282.335712 
L 572.331477 240.721513 
L 573.47496 245.836726 
L 574.618443 245.341435 
L 575.761926 246.024671 
L 576.905409 253.019964 
L 578.048892 256.917934 
L 579.192375 263.069559 
L 580.335858 254.693633 
L 581.479341 252.033017 
L 582.622824 250.797848 
L 583.766307 249.96029 
L 584.90979 249.794552 
L 586.053273 259.877129 
L 587.196756 267.653807 
L 588.340239 252.404458 
L 589.483722 253.585988 
L 590.627205 250.63859 
L 591.770688 250.373223 
L 592.914171 250.570605 
L 594.057654 257.7112 
L 595.201137 267.28813 
L 596.34462 249.476797 
L 597.488103 250.356368 
L 598.631586 247.018197 
L 599.775069 247.133519 
L 600.918552 246.472935 
L 602.062035 251.502188 
L 603.205518 262.533779 
L 604.349001 250.814963 
L 605.492484 249.520418 
L 606.635967 242.330844 
L 607.77945 243.63625 
L 608.922933 245.822319 
L 610.066416 252.386374 
L 611.209899 261.640175 
L 612.353382 248.124999 
L 613.496865 246.463116 
L 614.640348 237.814586 
L 615.783831 240.955852 
L 616.927314 241.84149 
L 618.070798 248.312788 
L 619.214281 283.853273 
L 620.357764 233.9735 
L 621.501247 242.407527 
L 622.64473 242.450216 
L 623.788213 240.254504 
L 624.931696 244.389327 
L 626.075179 242.14425 
L 627.218662 255.954331 
L 628.362145 247.665916 
L 629.505628 248.047112 
L 630.649111 242.785379 
L 631.792594 248.607352 
L 632.936077 239.80272 
L 634.07956 253.137232 
L 635.223043 261.367527 
L 636.366526 249.646197 
L 637.510009 250.16044 
L 638.653492 247.558649 
L 639.796975 249.455011 
L 640.940458 248.846251 
L 642.083941 258.788908 
L 643.227424 265.214422 
L 645.51439 254.903253 
L 646.657873 254.188969 
L 647.801356 256.44945 
L 648.944839 257.783747 
L 650.088322 263.784843 
L 651.231805 273.653682 
L 652.375288 263.500142 
L 653.518771 264.208152 
L 654.662254 257.158611 
L 655.805737 260.74118 
L 656.94922 263.008567 
L 658.092703 271.40341 
L 659.236186 277.989606 
L 660.379669 267.869275 
L 661.523152 267.807549 
L 662.666635 266.976909 
L 663.810118 272.725123 
L 664.953601 262.261087 
L 666.097084 276.66102 
L 667.240567 283.978913 
L 668.384051 279.520657 
L 669.527534 273.266252 
L 670.671017 273.130016 
L 671.8145 273.130016 
L 671.81907 539.890812 
M 676.383402 539.890812 
L 676.388432 246.208982 
L 677.531915 291.590508 
L 678.675398 279.459062 
L 678.675398 279.459062 
" style="fill:none;stroke:#fc4f30;stroke-width:4;"/>
   </g>
   <g id="patch_3">
    <path d="M 80.748125 515.4355 
L 80.748125 31.5955 
" style="fill:none;stroke:#f0f0f0;stroke-linecap:square;stroke-linejoin:miter;stroke-width:3;"/>
   </g>
   <g id="patch_4">
    <path d="M 80.748125 515.4355 
L 707.148125 515.4355 
" style="fill:none;stroke:#f0f0f0;stroke-linecap:square;stroke-linejoin:miter;stroke-width:3;"/>
   </g>
   <g id="text_18">
    <!-- New Cases of COVID-19 -->
    <g style="fill:#555555;" transform="translate(282.321575 21.5955)scale(0.2016 -0.2016)">
     <defs>
      <path d="M 7.703125 71.40625 
L 7.703125 0 
L 16.703125 0 
L 16.703125 57.296875 
L 16.90625 57.296875 
L 54.203125 0 
L 64.59375 0 
L 64.59375 71.40625 
L 55.59375 71.40625 
L 55.59375 13.5 
L 55.40625 13.5 
L 17.796875 71.40625 
z
" id="HelveticaNeue-78"/>
      <path d="M 42.296875 30.796875 
L 12.59375 30.796875 
Q 12.796875 33.796875 13.890625 36.4375 
Q 15 39.09375 16.890625 41.09375 
Q 18.796875 43.09375 21.4375 44.25 
Q 24.09375 45.40625 27.40625 45.40625 
Q 30.59375 45.40625 33.25 44.25 
Q 35.90625 43.09375 37.84375 41.140625 
Q 39.796875 39.203125 40.9375 36.5 
Q 42.09375 33.796875 42.296875 30.796875 
z
M 50.5 16.40625 
L 42.09375 16.40625 
Q 41 11.296875 37.546875 8.796875 
Q 34.09375 6.296875 28.703125 6.296875 
Q 24.5 6.296875 21.390625 7.6875 
Q 18.296875 9.09375 16.296875 11.4375 
Q 14.296875 13.796875 13.390625 16.84375 
Q 12.5 19.90625 12.59375 23.296875 
L 51.296875 23.296875 
Q 51.5 28 50.453125 33.203125 
Q 49.40625 38.40625 46.65625 42.796875 
Q 43.90625 47.203125 39.34375 50.046875 
Q 34.796875 52.90625 27.90625 52.90625 
Q 22.59375 52.90625 18.140625 50.90625 
Q 13.703125 48.90625 10.453125 45.296875 
Q 7.203125 41.703125 5.390625 36.796875 
Q 3.59375 31.90625 3.59375 26 
Q 3.796875 20.09375 5.34375 15.09375 
Q 6.90625 10.09375 10 6.5 
Q 13.09375 2.90625 17.640625 0.90625 
Q 22.203125 -1.09375 28.40625 -1.09375 
Q 37.203125 -1.09375 43 3.296875 
Q 48.796875 7.703125 50.5 16.40625 
z
" id="HelveticaNeue-101"/>
      <path d="M 57.59375 0 
L 74.09375 51.703125 
L 65.296875 51.703125 
L 53.703125 9.40625 
L 53.5 9.40625 
L 42.703125 51.703125 
L 33.40625 51.703125 
L 23 9.40625 
L 22.796875 9.40625 
L 11.09375 51.703125 
L 1.703125 51.703125 
L 18.296875 0 
L 27.5 0 
L 37.90625 41.09375 
L 38.09375 41.09375 
L 48.59375 0 
z
" id="HelveticaNeue-119"/>
      <path id="HelveticaNeue-32"/>
      <path d="M 58 49.90625 
L 67.5 49.90625 
Q 66.703125 55.59375 64.09375 59.9375 
Q 61.5 64.296875 57.59375 67.1875 
Q 53.703125 70.09375 48.703125 71.59375 
Q 43.703125 73.09375 38.09375 73.09375 
Q 29.90625 73.09375 23.546875 70.140625 
Q 17.203125 67.203125 12.953125 62.09375 
Q 8.703125 57 6.5 50.140625 
Q 4.296875 43.296875 4.296875 35.5 
Q 4.296875 27.703125 6.34375 20.890625 
Q 8.40625 14.09375 12.5 9.09375 
Q 16.59375 4.09375 22.796875 1.25 
Q 29 -1.59375 37.296875 -1.59375 
Q 51 -1.59375 58.890625 5.90625 
Q 66.796875 13.40625 68.203125 26.90625 
L 58.703125 26.90625 
Q 58.40625 22.5 56.90625 18.703125 
Q 55.40625 14.90625 52.75 12.15625 
Q 50.09375 9.40625 46.4375 7.84375 
Q 42.796875 6.296875 38.09375 6.296875 
Q 31.703125 6.296875 27.09375 8.6875 
Q 22.5 11.09375 19.546875 15.140625 
Q 16.59375 19.203125 15.1875 24.640625 
Q 13.796875 30.09375 13.796875 36.203125 
Q 13.796875 41.796875 15.1875 47 
Q 16.59375 52.203125 19.546875 56.25 
Q 22.5 60.296875 27.046875 62.6875 
Q 31.59375 65.09375 38 65.09375 
Q 45.5 65.09375 50.953125 61.296875 
Q 56.40625 57.5 58 49.90625 
z
" id="HelveticaNeue-67"/>
      <path d="M 52.203125 0.203125 
Q 50 -1.09375 46.09375 -1.09375 
Q 42.796875 -1.09375 40.84375 0.75 
Q 38.90625 2.59375 38.90625 6.796875 
Q 35.40625 2.59375 30.75 0.75 
Q 26.09375 -1.09375 20.703125 -1.09375 
Q 17.203125 -1.09375 14.046875 -0.296875 
Q 10.90625 0.5 8.59375 2.203125 
Q 6.296875 3.90625 4.9375 6.65625 
Q 3.59375 9.40625 3.59375 13.296875 
Q 3.59375 17.703125 5.09375 20.5 
Q 6.59375 23.296875 9.046875 25.046875 
Q 11.5 26.796875 14.640625 27.6875 
Q 17.796875 28.59375 21.09375 29.203125 
Q 24.59375 29.90625 27.75 30.25 
Q 30.90625 30.59375 33.296875 31.25 
Q 35.703125 31.90625 37.09375 33.15625 
Q 38.5 34.40625 38.5 36.796875 
Q 38.5 39.59375 37.453125 41.296875 
Q 36.40625 43 34.75 43.890625 
Q 33.09375 44.796875 31.046875 45.09375 
Q 29 45.40625 27 45.40625 
Q 21.59375 45.40625 18 43.34375 
Q 14.40625 41.296875 14.09375 35.59375 
L 5.59375 35.59375 
Q 5.796875 40.40625 7.59375 43.703125 
Q 9.40625 47 12.40625 49.046875 
Q 15.40625 51.09375 19.25 52 
Q 23.09375 52.90625 27.5 52.90625 
Q 31 52.90625 34.453125 52.40625 
Q 37.90625 51.90625 40.703125 50.34375 
Q 43.5 48.796875 45.203125 46 
Q 46.90625 43.203125 46.90625 38.703125 
L 46.90625 12.09375 
Q 46.90625 9.09375 47.25 7.6875 
Q 47.59375 6.296875 49.59375 6.296875 
Q 50.703125 6.296875 52.203125 6.796875 
z
M 38.40625 26.703125 
Q 36.796875 25.5 34.1875 24.953125 
Q 31.59375 24.40625 28.75 24.046875 
Q 25.90625 23.703125 23 23.25 
Q 20.09375 22.796875 17.796875 21.796875 
Q 15.5 20.796875 14.046875 18.9375 
Q 12.59375 17.09375 12.59375 13.90625 
Q 12.59375 11.796875 13.4375 10.34375 
Q 14.296875 8.90625 15.640625 8 
Q 17 7.09375 18.796875 6.6875 
Q 20.59375 6.296875 22.59375 6.296875 
Q 26.796875 6.296875 29.796875 7.4375 
Q 32.796875 8.59375 34.6875 10.34375 
Q 36.59375 12.09375 37.5 14.140625 
Q 38.40625 16.203125 38.40625 18 
z
" id="HelveticaNeue-97"/>
      <path d="M 11.59375 16.296875 
L 3.09375 16.296875 
Q 3.296875 11.5 5.09375 8.140625 
Q 6.90625 4.796875 9.90625 2.75 
Q 12.90625 0.703125 16.796875 -0.1875 
Q 20.703125 -1.09375 25 -1.09375 
Q 28.90625 -1.09375 32.84375 -0.34375 
Q 36.796875 0.40625 39.9375 2.296875 
Q 43.09375 4.203125 45.046875 7.296875 
Q 47 10.40625 47 15.09375 
Q 47 18.796875 45.546875 21.296875 
Q 44.09375 23.796875 41.75 25.4375 
Q 39.40625 27.09375 36.34375 28.09375 
Q 33.296875 29.09375 30.09375 29.796875 
Q 27.09375 30.5 24.09375 31.140625 
Q 21.09375 31.796875 18.6875 32.75 
Q 16.296875 33.703125 14.75 35.140625 
Q 13.203125 36.59375 13.203125 38.796875 
Q 13.203125 40.796875 14.203125 42.046875 
Q 15.203125 43.296875 16.796875 44.046875 
Q 18.40625 44.796875 20.34375 45.09375 
Q 22.296875 45.40625 24.203125 45.40625 
Q 26.296875 45.40625 28.34375 44.953125 
Q 30.40625 44.5 32.09375 43.5 
Q 33.796875 42.5 34.890625 40.84375 
Q 36 39.203125 36.203125 36.703125 
L 44.703125 36.703125 
Q 44.40625 41.40625 42.703125 44.546875 
Q 41 47.703125 38.140625 49.546875 
Q 35.296875 51.40625 31.59375 52.15625 
Q 27.90625 52.90625 23.5 52.90625 
Q 20.09375 52.90625 16.640625 52.046875 
Q 13.203125 51.203125 10.453125 49.453125 
Q 7.703125 47.703125 5.953125 44.890625 
Q 4.203125 42.09375 4.203125 38.203125 
Q 4.203125 33.203125 6.703125 30.390625 
Q 9.203125 27.59375 12.953125 26.046875 
Q 16.703125 24.5 21.09375 23.640625 
Q 25.5 22.796875 29.25 21.75 
Q 33 20.703125 35.5 19 
Q 38 17.296875 38 14 
Q 38 11.59375 36.796875 10.046875 
Q 35.59375 8.5 33.75 7.703125 
Q 31.90625 6.90625 29.703125 6.59375 
Q 27.5 6.296875 25.5 6.296875 
Q 22.90625 6.296875 20.453125 6.796875 
Q 18 7.296875 16.046875 8.4375 
Q 14.09375 9.59375 12.890625 11.546875 
Q 11.703125 13.5 11.59375 16.296875 
z
" id="HelveticaNeue-115"/>
      <path d="M 12.59375 25.796875 
Q 12.59375 30.5 13.84375 34.140625 
Q 15.09375 37.796875 17.296875 40.296875 
Q 19.5 42.796875 22.453125 44.09375 
Q 25.40625 45.40625 28.703125 45.40625 
Q 32 45.40625 34.953125 44.09375 
Q 37.90625 42.796875 40.09375 40.296875 
Q 42.296875 37.796875 43.546875 34.140625 
Q 44.796875 30.5 44.796875 25.796875 
Q 44.796875 21.09375 43.546875 17.4375 
Q 42.296875 13.796875 40.09375 11.34375 
Q 37.90625 8.90625 34.953125 7.59375 
Q 32 6.296875 28.703125 6.296875 
Q 25.40625 6.296875 22.453125 7.59375 
Q 19.5 8.90625 17.296875 11.34375 
Q 15.09375 13.796875 13.84375 17.4375 
Q 12.59375 21.09375 12.59375 25.796875 
z
M 3.59375 25.796875 
Q 3.59375 20.09375 5.1875 15.1875 
Q 6.796875 10.296875 10 6.640625 
Q 13.203125 3 17.890625 0.953125 
Q 22.59375 -1.09375 28.703125 -1.09375 
Q 34.90625 -1.09375 39.546875 0.953125 
Q 44.203125 3 47.390625 6.640625 
Q 50.59375 10.296875 52.1875 15.1875 
Q 53.796875 20.09375 53.796875 25.796875 
Q 53.796875 31.5 52.1875 36.453125 
Q 50.59375 41.40625 47.390625 45.046875 
Q 44.203125 48.703125 39.546875 50.796875 
Q 34.90625 52.90625 28.703125 52.90625 
Q 22.59375 52.90625 17.890625 50.796875 
Q 13.203125 48.703125 10 45.046875 
Q 6.796875 41.40625 5.1875 36.453125 
Q 3.59375 31.5 3.59375 25.796875 
z
" id="HelveticaNeue-111"/>
      <path d="M 9.90625 44.203125 
L 9.90625 0 
L 18.40625 0 
L 18.40625 44.203125 
L 28.40625 44.203125 
L 28.40625 51.703125 
L 18.40625 51.703125 
L 18.40625 58.90625 
Q 18.40625 62.296875 20.09375 63.5 
Q 21.796875 64.703125 24.90625 64.703125 
Q 26 64.703125 27.296875 64.546875 
Q 28.59375 64.40625 29.703125 64 
L 29.703125 71.40625 
Q 28.5 71.796875 26.953125 72 
Q 25.40625 72.203125 24.203125 72.203125 
Q 17.203125 72.203125 13.546875 68.953125 
Q 9.90625 65.703125 9.90625 59.40625 
L 9.90625 51.703125 
L 1.203125 51.703125 
L 1.203125 44.203125 
z
" id="HelveticaNeue-102"/>
      <path d="M 13.296875 35.703125 
Q 13.296875 41.09375 14.6875 46.34375 
Q 16.09375 51.59375 19.09375 55.796875 
Q 22.09375 60 26.796875 62.546875 
Q 31.5 65.09375 38 65.09375 
Q 44.5 65.09375 49.203125 62.546875 
Q 53.90625 60 56.90625 55.796875 
Q 59.90625 51.59375 61.296875 46.34375 
Q 62.703125 41.09375 62.703125 35.703125 
Q 62.703125 30.296875 61.296875 25.046875 
Q 59.90625 19.796875 56.90625 15.59375 
Q 53.90625 11.40625 49.203125 8.84375 
Q 44.5 6.296875 38 6.296875 
Q 31.5 6.296875 26.796875 8.84375 
Q 22.09375 11.40625 19.09375 15.59375 
Q 16.09375 19.796875 14.6875 25.046875 
Q 13.296875 30.296875 13.296875 35.703125 
z
M 3.796875 35.703125 
Q 3.796875 28.40625 5.9375 21.65625 
Q 8.09375 14.90625 12.390625 9.703125 
Q 16.703125 4.5 23.09375 1.453125 
Q 29.5 -1.59375 38 -1.59375 
Q 46.5 -1.59375 52.890625 1.453125 
Q 59.296875 4.5 63.59375 9.703125 
Q 67.90625 14.90625 70.046875 21.65625 
Q 72.203125 28.40625 72.203125 35.703125 
Q 72.203125 43 70.046875 49.75 
Q 67.90625 56.5 63.59375 61.703125 
Q 59.296875 66.90625 52.890625 70 
Q 46.5 73.09375 38 73.09375 
Q 29.5 73.09375 23.09375 70 
Q 16.703125 66.90625 12.390625 61.703125 
Q 8.09375 56.5 5.9375 49.75 
Q 3.796875 43 3.796875 35.703125 
z
" id="HelveticaNeue-79"/>
      <path d="M 35.90625 0 
L 61.296875 71.40625 
L 51.40625 71.40625 
L 30.796875 9.5 
L 30.59375 9.5 
L 10.203125 71.40625 
L 0 71.40625 
L 25.09375 0 
z
" id="HelveticaNeue-86"/>
      <path d="M 8.203125 71.40625 
L 8.203125 0 
L 17.703125 0 
L 17.703125 71.40625 
z
" id="HelveticaNeue-73"/>
      <path d="M 17.296875 8 
L 17.296875 63.40625 
L 33.296875 63.40625 
Q 39.90625 63.40625 44.40625 61.546875 
Q 48.90625 59.703125 51.75 56.140625 
Q 54.59375 52.59375 55.84375 47.546875 
Q 57.09375 42.5 57.09375 36.09375 
Q 57.09375 29.5 55.75 24.84375 
Q 54.40625 20.203125 52.296875 17.09375 
Q 50.203125 14 47.546875 12.203125 
Q 44.90625 10.40625 42.203125 9.453125 
Q 39.5 8.5 37.09375 8.25 
Q 34.703125 8 33.09375 8 
z
M 7.796875 71.40625 
L 7.796875 0 
L 32.296875 0 
Q 41.203125 0 47.703125 2.5 
Q 54.203125 5 58.390625 9.75 
Q 62.59375 14.5 64.59375 21.453125 
Q 66.59375 28.40625 66.59375 37.40625 
Q 66.59375 54.59375 57.6875 63 
Q 48.796875 71.40625 32.296875 71.40625 
z
" id="HelveticaNeue-68"/>
     </defs>
     <use xlink:href="#HelveticaNeue-78"/>
     <use x="72.199982" xlink:href="#HelveticaNeue-101"/>
     <use x="125.899979" xlink:href="#HelveticaNeue-119"/>
     <use x="201.699966" xlink:href="#HelveticaNeue-32"/>
     <use x="229.499954" xlink:href="#HelveticaNeue-67"/>
     <use x="301.699936" xlink:href="#HelveticaNeue-97"/>
     <use x="355.399933" xlink:href="#HelveticaNeue-115"/>
     <use x="405.399918" xlink:href="#HelveticaNeue-101"/>
     <use x="459.099915" xlink:href="#HelveticaNeue-115"/>
     <use x="509.099899" xlink:href="#HelveticaNeue-32"/>
     <use x="536.899887" xlink:href="#HelveticaNeue-111"/>
     <use x="594.299881" xlink:href="#HelveticaNeue-102"/>
     <use x="623.899872" xlink:href="#HelveticaNeue-32"/>
     <use x="651.69986" xlink:href="#HelveticaNeue-67"/>
     <use x="723.899841" xlink:href="#HelveticaNeue-79"/>
     <use x="799.899826" xlink:href="#HelveticaNeue-86"/>
     <use x="860.999817" xlink:href="#HelveticaNeue-73"/>
     <use x="886.899811" xlink:href="#HelveticaNeue-68"/>
     <use x="957.299805" xlink:href="#HelveticaNeue-45"/>
     <use x="996.199799" xlink:href="#HelveticaNeue-49"/>
     <use x="1051.799789" xlink:href="#HelveticaNeue-57"/>
    </g>
   </g>
   <g id="legend_1">
    <g id="line2d_97">
     <path d="M 570.298125 49.292375 
L 598.298125 49.292375 
" style="fill:none;stroke:#008fd5;stroke-width:4;"/>
    </g>
    <g id="line2d_98"/>
    <g id="text_19">
     <!-- United States -->
     <g style="fill:#555555;" transform="translate(609.498125 54.192375)scale(0.14 -0.14)">
      <defs>
       <path d="M 64.796875 25.796875 
L 64.796875 71.40625 
L 55.296875 71.40625 
L 55.296875 25.796875 
Q 55.296875 16.203125 50.546875 11.25 
Q 45.796875 6.296875 36.703125 6.296875 
Q 27.09375 6.296875 22 11.25 
Q 16.90625 16.203125 16.90625 25.796875 
L 16.90625 71.40625 
L 7.40625 71.40625 
L 7.40625 25.796875 
Q 7.40625 11.5 15.15625 4.953125 
Q 22.90625 -1.59375 36.703125 -1.59375 
Q 50.203125 -1.59375 57.5 5.25 
Q 64.796875 12.09375 64.796875 25.796875 
z
" id="HelveticaNeue-85"/>
       <path d="M 6.40625 51.703125 
L 6.40625 0 
L 14.90625 0 
L 14.90625 29.203125 
Q 14.90625 32.703125 15.84375 35.640625 
Q 16.796875 38.59375 18.6875 40.796875 
Q 20.59375 43 23.4375 44.203125 
Q 26.296875 45.40625 30.203125 45.40625 
Q 35.09375 45.40625 37.890625 42.59375 
Q 40.703125 39.796875 40.703125 35 
L 40.703125 0 
L 49.203125 0 
L 49.203125 34 
Q 49.203125 38.203125 48.34375 41.640625 
Q 47.5 45.09375 45.390625 47.59375 
Q 43.296875 50.09375 39.890625 51.5 
Q 36.5 52.90625 31.40625 52.90625 
Q 19.90625 52.90625 14.59375 43.5 
L 14.40625 43.5 
L 14.40625 51.703125 
z
" id="HelveticaNeue-110"/>
       <path d="M 15.40625 61 
L 15.40625 71.40625 
L 6.90625 71.40625 
L 6.90625 61 
z
M 6.90625 51.703125 
L 6.90625 0 
L 15.40625 0 
L 15.40625 51.703125 
z
" id="HelveticaNeue-105"/>
       <path d="M 18.203125 51.703125 
L 18.203125 67.203125 
L 9.703125 67.203125 
L 9.703125 51.703125 
L 0.90625 51.703125 
L 0.90625 44.203125 
L 9.703125 44.203125 
L 9.703125 11.296875 
Q 9.703125 7.703125 10.390625 5.5 
Q 11.09375 3.296875 12.546875 2.09375 
Q 14 0.90625 16.34375 0.453125 
Q 18.703125 0 22 0 
L 28.5 0 
L 28.5 7.5 
L 24.59375 7.5 
Q 22.59375 7.5 21.34375 7.640625 
Q 20.09375 7.796875 19.390625 8.296875 
Q 18.703125 8.796875 18.453125 9.6875 
Q 18.203125 10.59375 18.203125 12.09375 
L 18.203125 44.203125 
L 28.5 44.203125 
L 28.5 51.703125 
z
" id="HelveticaNeue-116"/>
       <path d="M 12.59375 25.40625 
Q 12.59375 29.203125 13.390625 32.796875 
Q 14.203125 36.40625 16 39.203125 
Q 17.796875 42 20.796875 43.703125 
Q 23.796875 45.40625 28.09375 45.40625 
Q 32.5 45.40625 35.59375 43.75 
Q 38.703125 42.09375 40.640625 39.390625 
Q 42.59375 36.703125 43.5 33.140625 
Q 44.40625 29.59375 44.40625 25.796875 
Q 44.40625 22.203125 43.546875 18.703125 
Q 42.703125 15.203125 40.796875 12.453125 
Q 38.90625 9.703125 35.90625 8 
Q 32.90625 6.296875 28.59375 6.296875 
Q 24.5 6.296875 21.453125 7.890625 
Q 18.40625 9.5 16.453125 12.203125 
Q 14.5 14.90625 13.546875 18.34375 
Q 12.59375 21.796875 12.59375 25.40625 
z
M 52.59375 0 
L 52.59375 71.40625 
L 44.09375 71.40625 
L 44.09375 44.796875 
L 43.90625 44.796875 
Q 42.5 47.09375 40.453125 48.640625 
Q 38.40625 50.203125 36.09375 51.140625 
Q 33.796875 52.09375 31.5 52.5 
Q 29.203125 52.90625 27.203125 52.90625 
Q 21.296875 52.90625 16.84375 50.75 
Q 12.40625 48.59375 9.453125 44.9375 
Q 6.5 41.296875 5.046875 36.390625 
Q 3.59375 31.5 3.59375 26 
Q 3.59375 20.5 5.09375 15.59375 
Q 6.59375 10.703125 9.546875 7 
Q 12.5 3.296875 16.953125 1.09375 
Q 21.40625 -1.09375 27.40625 -1.09375 
Q 32.796875 -1.09375 37.296875 0.796875 
Q 41.796875 2.703125 43.90625 7 
L 44.09375 7 
L 44.09375 0 
z
" id="HelveticaNeue-100"/>
       <path d="M 49.09375 50.5 
L 58.09375 50.5 
Q 57.90625 56.40625 55.84375 60.65625 
Q 53.796875 64.90625 50.25 67.703125 
Q 46.703125 70.5 42 71.796875 
Q 37.296875 73.09375 31.796875 73.09375 
Q 26.90625 73.09375 22.25 71.84375 
Q 17.59375 70.59375 13.9375 68.046875 
Q 10.296875 65.5 8.09375 61.546875 
Q 5.90625 57.59375 5.90625 52.203125 
Q 5.90625 47.296875 7.84375 44.046875 
Q 9.796875 40.796875 13.046875 38.75 
Q 16.296875 36.703125 20.390625 35.453125 
Q 24.5 34.203125 28.75 33.25 
Q 33 32.296875 37.09375 31.390625 
Q 41.203125 30.5 44.453125 29.046875 
Q 47.703125 27.59375 49.640625 25.296875 
Q 51.59375 23 51.59375 19.296875 
Q 51.59375 15.40625 50 12.90625 
Q 48.40625 10.40625 45.796875 8.953125 
Q 43.203125 7.5 39.953125 6.890625 
Q 36.703125 6.296875 33.5 6.296875 
Q 29.5 6.296875 25.703125 7.296875 
Q 21.90625 8.296875 19.046875 10.390625 
Q 16.203125 12.5 14.453125 15.75 
Q 12.703125 19 12.703125 23.5 
L 3.703125 23.5 
Q 3.703125 17 6.046875 12.25 
Q 8.40625 7.5 12.453125 4.453125 
Q 16.5 1.40625 21.84375 -0.09375 
Q 27.203125 -1.59375 33.203125 -1.59375 
Q 38.09375 -1.59375 43.046875 -0.4375 
Q 48 0.703125 52 3.25 
Q 56 5.796875 58.546875 9.84375 
Q 61.09375 13.90625 61.09375 19.59375 
Q 61.09375 24.90625 59.140625 28.40625 
Q 57.203125 31.90625 53.953125 34.203125 
Q 50.703125 36.5 46.59375 37.84375 
Q 42.5 39.203125 38.25 40.203125 
Q 34 41.203125 29.890625 42.046875 
Q 25.796875 42.90625 22.546875 44.203125 
Q 19.296875 45.5 17.34375 47.546875 
Q 15.40625 49.59375 15.40625 52.90625 
Q 15.40625 56.40625 16.75 58.75 
Q 18.09375 61.09375 20.34375 62.5 
Q 22.59375 63.90625 25.5 64.5 
Q 28.40625 65.09375 31.40625 65.09375 
Q 38.796875 65.09375 43.546875 61.640625 
Q 48.296875 58.203125 49.09375 50.5 
z
" id="HelveticaNeue-83"/>
      </defs>
      <use xlink:href="#HelveticaNeue-85"/>
      <use x="72.199982" xlink:href="#HelveticaNeue-110"/>
      <use x="127.799973" xlink:href="#HelveticaNeue-105"/>
      <use x="149.999969" xlink:href="#HelveticaNeue-116"/>
      <use x="181.499954" xlink:href="#HelveticaNeue-101"/>
      <use x="235.199951" xlink:href="#HelveticaNeue-100"/>
      <use x="294.499939" xlink:href="#HelveticaNeue-32"/>
      <use x="322.299927" xlink:href="#HelveticaNeue-83"/>
      <use x="387.099915" xlink:href="#HelveticaNeue-116"/>
      <use x="418.599899" xlink:href="#HelveticaNeue-97"/>
      <use x="472.299896" xlink:href="#HelveticaNeue-116"/>
      <use x="503.799881" xlink:href="#HelveticaNeue-101"/>
      <use x="557.499878" xlink:href="#HelveticaNeue-115"/>
     </g>
    </g>
    <g id="line2d_99">
     <path d="M 570.298125 69.047687 
L 598.298125 69.047687 
" style="fill:none;stroke:#fc4f30;stroke-width:4;"/>
    </g>
    <g id="line2d_100"/>
    <g id="text_20">
     <!-- Florida -->
     <g style="fill:#555555;" transform="translate(609.498125 73.947687)scale(0.14 -0.14)">
      <defs>
       <path d="M 7.796875 71.40625 
L 7.796875 0 
L 17.296875 0 
L 17.296875 32.703125 
L 50.09375 32.703125 
L 50.09375 40.703125 
L 17.296875 40.703125 
L 17.296875 63.40625 
L 54.703125 63.40625 
L 54.703125 71.40625 
z
" id="HelveticaNeue-70"/>
       <path d="M 6.90625 71.40625 
L 6.90625 0 
L 15.40625 0 
L 15.40625 71.40625 
z
" id="HelveticaNeue-108"/>
       <path d="M 6.09375 51.703125 
L 6.09375 0 
L 14.59375 0 
L 14.59375 23 
Q 14.59375 28 15.59375 31.84375 
Q 16.59375 35.703125 18.796875 38.390625 
Q 21 41.09375 24.59375 42.5 
Q 28.203125 43.90625 33.296875 43.90625 
L 33.296875 52.90625 
Q 26.40625 53.09375 21.90625 50.09375 
Q 17.40625 47.09375 14.296875 40.796875 
L 14.09375 40.796875 
L 14.09375 51.703125 
z
" id="HelveticaNeue-114"/>
      </defs>
      <use xlink:href="#HelveticaNeue-70"/>
      <use x="57.399994" xlink:href="#HelveticaNeue-108"/>
      <use x="79.599991" xlink:href="#HelveticaNeue-111"/>
      <use x="136.999985" xlink:href="#HelveticaNeue-114"/>
      <use x="170.299973" xlink:href="#HelveticaNeue-105"/>
      <use x="192.499969" xlink:href="#HelveticaNeue-100"/>
      <use x="251.799957" xlink:href="#HelveticaNeue-97"/>
     </g>
    </g>
   </g>
  </g>
 </g>
 <defs>
  <clipPath id="p8319738fc9">
   <rect height="483.84" width="626.4" x="80.748125" y="31.5955"/>
  </clipPath>
 </defs>
</svg>
