<?xml version="1.0" encoding="utf-8" standalone="no"?>
<!DOCTYPE svg PUBLIC "-//W3C//DTD SVG 1.1//EN"
  "http://www.w3.org/Graphics/SVG/1.1/DTD/svg11.dtd">
<!-- Created with matplotlib (https://matplotlib.org/) -->
<svg height="518.92375pt" version="1.1" viewBox="0 0 736.829572 518.92375" width="736.829572pt" xmlns="http://www.w3.org/2000/svg" xmlns:xlink="http://www.w3.org/1999/xlink">
 <metadata>
  <rdf:RDF xmlns:cc="http://creativecommons.org/ns#" xmlns:dc="http://purl.org/dc/elements/1.1/" xmlns:rdf="http://www.w3.org/1999/02/22-rdf-syntax-ns#">
   <cc:Work>
    <dc:type rdf:resource="http://purl.org/dc/dcmitype/StillImage"/>
    <dc:date>2021-02-13T13:57:22.157318</dc:date>
    <dc:format>image/svg+xml</dc:format>
    <dc:creator>
     <cc:Agent>
      <dc:title>Matplotlib v3.3.2, https://matplotlib.org/</dc:title>
     </cc:Agent>
    </dc:creator>
   </cc:Work>
  </rdf:RDF>
 </metadata>
 <defs>
  <style type="text/css">*{stroke-linecap:butt;stroke-linejoin:round;}</style>
 </defs>
 <g id="figure_1">
  <g id="patch_1">
   <path d="M 0 518.92375 
L 736.829572 518.92375 
L 736.829572 0 
L 0 0 
z
" style="fill:#f0f0f0;"/>
  </g>
  <g id="axes_1">
   <g id="patch_2">
    <path d="M 80.51625 494.88 
L 706.91625 494.88 
L 706.91625 28.32 
L 80.51625 28.32 
z
" style="fill:#f0f0f0;"/>
   </g>
   <g id="matplotlib.axis_1">
    <g id="xtick_1">
     <g id="line2d_1">
      <path clip-path="url(#pba652567c3)" d="M 166.375869 494.88 
L 166.375869 28.32 
" style="fill:none;stroke:#cbcbcb;"/>
     </g>
     <g id="line2d_2"/>
     <g id="text_1">
      <!-- 2020-03 -->
      <g transform="translate(140.204619 508.88)scale(0.14 -0.14)">
       <defs>
        <path d="M 53.125 0 
L 5.328125 0 
L 5.328125 8.15625 
L 29 33.984375 
Q 34.125 39.703125 36.296875 43.53125 
Q 38.484375 47.359375 38.484375 51.21875 
Q 38.484375 56.296875 35.625 59.421875 
Q 32.765625 62.546875 27.9375 62.546875 
Q 22.171875 62.546875 19 59.03125 
Q 15.828125 55.515625 15.828125 49.421875 
L 3.953125 49.421875 
Q 3.953125 55.90625 6.90625 61.109375 
Q 9.859375 66.3125 15.34375 69.1875 
Q 20.84375 72.078125 28.03125 72.078125 
Q 38.375 72.078125 44.359375 66.875 
Q 50.34375 61.671875 50.34375 52.484375 
Q 50.34375 47.171875 47.34375 41.328125 
Q 44.34375 35.5 37.5 28.078125 
L 20.125 9.46875 
L 53.125 9.46875 
z
" id="Roboto-Medium-50"/>
        <path d="M 51.65625 29.9375 
Q 51.65625 14.59375 45.921875 6.796875 
Q 40.1875 -0.984375 28.46875 -0.984375 
Q 16.9375 -0.984375 11.109375 6.609375 
Q 5.28125 14.203125 5.125 29.109375 
L 5.125 41.40625 
Q 5.125 56.734375 10.859375 64.40625 
Q 16.609375 72.078125 28.375 72.078125 
Q 40.046875 72.078125 45.78125 64.59375 
Q 51.515625 57.125 51.65625 42.234375 
z
M 39.796875 43.21875 
Q 39.796875 53.21875 37.0625 57.875 
Q 34.328125 62.546875 28.375 62.546875 
Q 22.5625 62.546875 19.828125 58.125 
Q 17.09375 53.71875 16.9375 44.34375 
L 16.9375 28.21875 
Q 16.9375 18.265625 19.71875 13.375 
Q 22.515625 8.5 28.46875 8.5 
Q 34.1875 8.5 36.921875 13.015625 
Q 39.65625 17.53125 39.796875 27.15625 
z
" id="Roboto-Medium-48"/>
        <path d="M 29.109375 25.4375 
L 3.46875 25.4375 
L 3.46875 35.015625 
L 29.109375 35.015625 
z
" id="Roboto-Medium-45"/>
        <path d="M 19.046875 40.96875 
L 26.265625 40.96875 
Q 31.734375 41.015625 34.9375 43.796875 
Q 38.140625 46.578125 38.140625 51.859375 
Q 38.140625 56.9375 35.46875 59.734375 
Q 32.8125 62.546875 27.34375 62.546875 
Q 22.5625 62.546875 19.484375 59.78125 
Q 16.40625 57.03125 16.40625 52.59375 
L 4.546875 52.59375 
Q 4.546875 58.0625 7.453125 62.546875 
Q 10.359375 67.046875 15.546875 69.5625 
Q 20.75 72.078125 27.203125 72.078125 
Q 37.84375 72.078125 43.921875 66.71875 
Q 50 61.375 50 51.859375 
Q 50 47.078125 46.9375 42.84375 
Q 43.890625 38.625 39.0625 36.46875 
Q 44.921875 34.46875 47.96875 30.171875 
Q 51.03125 25.875 51.03125 19.921875 
Q 51.03125 10.359375 44.453125 4.6875 
Q 37.890625 -0.984375 27.203125 -0.984375 
Q 16.9375 -0.984375 10.390625 4.484375 
Q 3.859375 9.96875 3.859375 19.046875 
L 15.71875 19.046875 
Q 15.71875 14.359375 18.859375 11.421875 
Q 22.015625 8.5 27.34375 8.5 
Q 32.859375 8.5 36.03125 11.421875 
Q 39.203125 14.359375 39.203125 19.921875 
Q 39.203125 25.53125 35.875 28.5625 
Q 32.5625 31.59375 26.03125 31.59375 
L 19.046875 31.59375 
z
" id="Roboto-Medium-51"/>
       </defs>
       <use xlink:href="#Roboto-Medium-50"/>
       <use x="56.835938" xlink:href="#Roboto-Medium-48"/>
       <use x="113.671875" xlink:href="#Roboto-Medium-50"/>
       <use x="170.507812" xlink:href="#Roboto-Medium-48"/>
       <use x="227.34375" xlink:href="#Roboto-Medium-45"/>
       <use x="260.15625" xlink:href="#Roboto-Medium-48"/>
       <use x="316.992188" xlink:href="#Roboto-Medium-51"/>
      </g>
     </g>
    </g>
    <g id="xtick_2">
     <g id="line2d_3">
      <path clip-path="url(#pba652567c3)" d="M 256.134855 494.88 
L 256.134855 28.32 
" style="fill:none;stroke:#cbcbcb;"/>
     </g>
     <g id="line2d_4"/>
     <g id="text_2">
      <!-- 2020-05 -->
      <g transform="translate(229.963605 508.88)scale(0.14 -0.14)">
       <defs>
        <path d="M 8.5 35.25 
L 12.359375 71.09375 
L 50.53125 71.09375 
L 50.53125 60.84375 
L 22.21875 60.84375 
L 20.265625 43.84375 
Q 25.203125 46.6875 31.390625 46.6875 
Q 41.546875 46.6875 47.1875 40.1875 
Q 52.828125 33.6875 52.828125 22.703125 
Q 52.828125 11.859375 46.578125 5.4375 
Q 40.328125 -0.984375 29.4375 -0.984375 
Q 19.671875 -0.984375 13.25 4.5625 
Q 6.84375 10.109375 6.296875 19.1875 
L 17.78125 19.1875 
Q 18.453125 14.015625 21.484375 11.25 
Q 24.515625 8.5 29.390625 8.5 
Q 34.859375 8.5 37.90625 12.40625 
Q 40.96875 16.3125 40.96875 23.046875 
Q 40.96875 29.546875 37.59375 33.328125 
Q 34.234375 37.109375 28.328125 37.109375 
Q 25.09375 37.109375 22.84375 36.25 
Q 20.609375 35.40625 17.96875 32.90625 
z
" id="Roboto-Medium-53"/>
       </defs>
       <use xlink:href="#Roboto-Medium-50"/>
       <use x="56.835938" xlink:href="#Roboto-Medium-48"/>
       <use x="113.671875" xlink:href="#Roboto-Medium-50"/>
       <use x="170.507812" xlink:href="#Roboto-Medium-48"/>
       <use x="227.34375" xlink:href="#Roboto-Medium-45"/>
       <use x="260.15625" xlink:href="#Roboto-Medium-48"/>
       <use x="316.992188" xlink:href="#Roboto-Medium-53"/>
      </g>
     </g>
    </g>
    <g id="xtick_3">
     <g id="line2d_5">
      <path clip-path="url(#pba652567c3)" d="M 345.89384 494.88 
L 345.89384 28.32 
" style="fill:none;stroke:#cbcbcb;"/>
     </g>
     <g id="line2d_6"/>
     <g id="text_3">
      <!-- 2020-07 -->
      <g transform="translate(319.72259 508.88)scale(0.14 -0.14)">
       <defs>
        <path d="M 52.640625 64.5 
L 24.21875 0 
L 11.765625 0 
L 40.140625 61.578125 
L 3.375 61.578125 
L 3.375 71.09375 
L 52.640625 71.09375 
z
" id="Roboto-Medium-55"/>
       </defs>
       <use xlink:href="#Roboto-Medium-50"/>
       <use x="56.835938" xlink:href="#Roboto-Medium-48"/>
       <use x="113.671875" xlink:href="#Roboto-Medium-50"/>
       <use x="170.507812" xlink:href="#Roboto-Medium-48"/>
       <use x="227.34375" xlink:href="#Roboto-Medium-45"/>
       <use x="260.15625" xlink:href="#Roboto-Medium-48"/>
       <use x="316.992188" xlink:href="#Roboto-Medium-55"/>
      </g>
     </g>
    </g>
    <g id="xtick_4">
     <g id="line2d_7">
      <path clip-path="url(#pba652567c3)" d="M 437.124284 494.88 
L 437.124284 28.32 
" style="fill:none;stroke:#cbcbcb;"/>
     </g>
     <g id="line2d_8"/>
     <g id="text_4">
      <!-- 2020-09 -->
      <g transform="translate(410.953034 508.88)scale(0.14 -0.14)">
       <defs>
        <path d="M 38.96875 29.734375 
Q 33.015625 23.4375 25.046875 23.4375 
Q 15.671875 23.4375 10.109375 30 
Q 4.546875 36.578125 4.546875 47.265625 
Q 4.546875 54.296875 7.375 60 
Q 10.203125 65.71875 15.421875 68.890625 
Q 20.65625 72.078125 27.546875 72.078125 
Q 38.28125 72.078125 44.578125 64.0625 
Q 50.875 56.0625 50.875 42.625 
L 50.875 39.3125 
Q 50.875 20.0625 42.1875 9.953125 
Q 33.5 -0.140625 16.265625 -0.296875 
L 14.84375 -0.296875 
L 14.84375 9.515625 
L 16.546875 9.515625 
Q 27.046875 9.671875 32.65625 14.578125 
Q 38.28125 19.484375 38.96875 29.734375 
z
M 27.546875 32.71875 
Q 31.109375 32.71875 34.234375 34.765625 
Q 37.359375 36.8125 39.0625 40.4375 
L 39.0625 45.0625 
Q 39.0625 52.9375 35.84375 57.71875 
Q 32.625 62.5 27.484375 62.5 
Q 22.359375 62.5 19.3125 58.265625 
Q 16.265625 54.046875 16.265625 47.609375 
Q 16.265625 40.921875 19.328125 36.8125 
Q 22.40625 32.71875 27.546875 32.71875 
z
" id="Roboto-Medium-57"/>
       </defs>
       <use xlink:href="#Roboto-Medium-50"/>
       <use x="56.835938" xlink:href="#Roboto-Medium-48"/>
       <use x="113.671875" xlink:href="#Roboto-Medium-50"/>
       <use x="170.507812" xlink:href="#Roboto-Medium-48"/>
       <use x="227.34375" xlink:href="#Roboto-Medium-45"/>
       <use x="260.15625" xlink:href="#Roboto-Medium-48"/>
       <use x="316.992188" xlink:href="#Roboto-Medium-57"/>
      </g>
     </g>
    </g>
    <g id="xtick_5">
     <g id="line2d_9">
      <path clip-path="url(#pba652567c3)" d="M 526.883269 494.88 
L 526.883269 28.32 
" style="fill:none;stroke:#cbcbcb;"/>
     </g>
     <g id="line2d_10"/>
     <g id="text_5">
      <!-- 2020-11 -->
      <g transform="translate(500.712019 508.88)scale(0.14 -0.14)">
       <defs>
        <path d="M 37.453125 0 
L 25.640625 0 
L 25.640625 57.078125 
L 8.203125 51.125 
L 8.203125 61.140625 
L 35.9375 71.34375 
L 37.453125 71.34375 
z
" id="Roboto-Medium-49"/>
       </defs>
       <use xlink:href="#Roboto-Medium-50"/>
       <use x="56.835938" xlink:href="#Roboto-Medium-48"/>
       <use x="113.671875" xlink:href="#Roboto-Medium-50"/>
       <use x="170.507812" xlink:href="#Roboto-Medium-48"/>
       <use x="227.34375" xlink:href="#Roboto-Medium-45"/>
       <use x="260.15625" xlink:href="#Roboto-Medium-49"/>
       <use x="316.992188" xlink:href="#Roboto-Medium-49"/>
      </g>
     </g>
    </g>
    <g id="xtick_6">
     <g id="line2d_11">
      <path clip-path="url(#pba652567c3)" d="M 616.642254 494.88 
L 616.642254 28.32 
" style="fill:none;stroke:#cbcbcb;"/>
     </g>
     <g id="line2d_12"/>
     <g id="text_6">
      <!-- 2021-01 -->
      <g transform="translate(590.471004 508.88)scale(0.14 -0.14)">
       <use xlink:href="#Roboto-Medium-50"/>
       <use x="56.835938" xlink:href="#Roboto-Medium-48"/>
       <use x="113.671875" xlink:href="#Roboto-Medium-50"/>
       <use x="170.507812" xlink:href="#Roboto-Medium-49"/>
       <use x="227.34375" xlink:href="#Roboto-Medium-45"/>
       <use x="260.15625" xlink:href="#Roboto-Medium-48"/>
       <use x="316.992188" xlink:href="#Roboto-Medium-49"/>
      </g>
     </g>
    </g>
    <g id="xtick_7">
     <g id="line2d_13">
      <path clip-path="url(#pba652567c3)" d="M 703.458322 494.88 
L 703.458322 28.32 
" style="fill:none;stroke:#cbcbcb;"/>
     </g>
     <g id="line2d_14"/>
     <g id="text_7">
      <!-- 2021-03 -->
      <g transform="translate(677.287072 508.88)scale(0.14 -0.14)">
       <use xlink:href="#Roboto-Medium-50"/>
       <use x="56.835938" xlink:href="#Roboto-Medium-48"/>
       <use x="113.671875" xlink:href="#Roboto-Medium-50"/>
       <use x="170.507812" xlink:href="#Roboto-Medium-49"/>
       <use x="227.34375" xlink:href="#Roboto-Medium-45"/>
       <use x="260.15625" xlink:href="#Roboto-Medium-48"/>
       <use x="316.992188" xlink:href="#Roboto-Medium-51"/>
      </g>
     </g>
    </g>
   </g>
   <g id="matplotlib.axis_2">
    <g id="ytick_1">
     <g id="line2d_15">
      <path clip-path="url(#pba652567c3)" d="M 80.51625 477.311661 
L 706.91625 477.311661 
" style="fill:none;stroke:#cbcbcb;"/>
     </g>
     <g id="line2d_16"/>
     <g id="text_8">
      <!-- 1 -->
      <g transform="translate(69.058125 482.561661)scale(0.14 -0.14)">
       <use xlink:href="#Roboto-Medium-49"/>
      </g>
     </g>
    </g>
    <g id="ytick_2">
     <g id="line2d_17">
      <path clip-path="url(#pba652567c3)" d="M 80.51625 413.169995 
L 706.91625 413.169995 
" style="fill:none;stroke:#cbcbcb;"/>
     </g>
     <g id="line2d_18"/>
     <g id="text_9">
      <!-- 10 -->
      <g transform="translate(61.1 418.419995)scale(0.14 -0.14)">
       <use xlink:href="#Roboto-Medium-49"/>
       <use x="56.835938" xlink:href="#Roboto-Medium-48"/>
      </g>
     </g>
    </g>
    <g id="ytick_3">
     <g id="line2d_19">
      <path clip-path="url(#pba652567c3)" d="M 80.51625 349.028329 
L 706.91625 349.028329 
" style="fill:none;stroke:#cbcbcb;"/>
     </g>
     <g id="line2d_20"/>
     <g id="text_10">
      <!-- 100 -->
      <g transform="translate(53.141875 354.278329)scale(0.14 -0.14)">
       <use xlink:href="#Roboto-Medium-49"/>
       <use x="56.835938" xlink:href="#Roboto-Medium-48"/>
       <use x="113.671875" xlink:href="#Roboto-Medium-48"/>
      </g>
     </g>
    </g>
    <g id="ytick_4">
     <g id="line2d_21">
      <path clip-path="url(#pba652567c3)" d="M 80.51625 284.886663 
L 706.91625 284.886663 
" style="fill:none;stroke:#cbcbcb;"/>
     </g>
     <g id="line2d_22"/>
     <g id="text_11">
      <!-- 1,000 -->
      <g transform="translate(42.108125 290.136663)scale(0.14 -0.14)">
       <defs>
        <path d="M 7.765625 -16.015625 
L 1.375 -12.203125 
Q 4.203125 -7.765625 5.25 -4.46875 
Q 6.296875 -1.171875 6.34375 2.25 
L 6.34375 11.46875 
L 17.046875 11.46875 
L 17 2.9375 
Q 16.9375 -2.25 14.375 -7.4375 
Q 11.8125 -12.640625 7.765625 -16.015625 
z
" id="Roboto-Medium-44"/>
       </defs>
       <use xlink:href="#Roboto-Medium-49"/>
       <use x="56.835938" xlink:href="#Roboto-Medium-44"/>
       <use x="78.808594" xlink:href="#Roboto-Medium-48"/>
       <use x="135.644531" xlink:href="#Roboto-Medium-48"/>
       <use x="192.480469" xlink:href="#Roboto-Medium-48"/>
      </g>
     </g>
    </g>
    <g id="ytick_5">
     <g id="line2d_23">
      <path clip-path="url(#pba652567c3)" d="M 80.51625 220.744998 
L 706.91625 220.744998 
" style="fill:none;stroke:#cbcbcb;"/>
     </g>
     <g id="line2d_24"/>
     <g id="text_12">
      <!-- 10,000 -->
      <g transform="translate(34.15 225.994998)scale(0.14 -0.14)">
       <use xlink:href="#Roboto-Medium-49"/>
       <use x="56.835938" xlink:href="#Roboto-Medium-48"/>
       <use x="113.671875" xlink:href="#Roboto-Medium-44"/>
       <use x="135.644531" xlink:href="#Roboto-Medium-48"/>
       <use x="192.480469" xlink:href="#Roboto-Medium-48"/>
       <use x="249.316406" xlink:href="#Roboto-Medium-48"/>
      </g>
     </g>
    </g>
    <g id="ytick_6">
     <g id="line2d_25">
      <path clip-path="url(#pba652567c3)" d="M 80.51625 156.603332 
L 706.91625 156.603332 
" style="fill:none;stroke:#cbcbcb;"/>
     </g>
     <g id="line2d_26"/>
     <g id="text_13">
      <!-- 100,000 -->
      <g transform="translate(26.191875 161.853332)scale(0.14 -0.14)">
       <use xlink:href="#Roboto-Medium-49"/>
       <use x="56.835938" xlink:href="#Roboto-Medium-48"/>
       <use x="113.671875" xlink:href="#Roboto-Medium-48"/>
       <use x="170.507812" xlink:href="#Roboto-Medium-44"/>
       <use x="192.480469" xlink:href="#Roboto-Medium-48"/>
       <use x="249.316406" xlink:href="#Roboto-Medium-48"/>
       <use x="306.152344" xlink:href="#Roboto-Medium-48"/>
      </g>
     </g>
    </g>
    <g id="ytick_7">
     <g id="line2d_27">
      <path clip-path="url(#pba652567c3)" d="M 80.51625 92.461666 
L 706.91625 92.461666 
" style="fill:none;stroke:#cbcbcb;"/>
     </g>
     <g id="line2d_28"/>
     <g id="text_14">
      <!-- 1,000,000 -->
      <g transform="translate(15.158125 97.711666)scale(0.14 -0.14)">
       <use xlink:href="#Roboto-Medium-49"/>
       <use x="56.835938" xlink:href="#Roboto-Medium-44"/>
       <use x="78.808594" xlink:href="#Roboto-Medium-48"/>
       <use x="135.644531" xlink:href="#Roboto-Medium-48"/>
       <use x="192.480469" xlink:href="#Roboto-Medium-48"/>
       <use x="249.316406" xlink:href="#Roboto-Medium-44"/>
       <use x="271.289062" xlink:href="#Roboto-Medium-48"/>
       <use x="328.125" xlink:href="#Roboto-Medium-48"/>
       <use x="384.960938" xlink:href="#Roboto-Medium-48"/>
      </g>
     </g>
    </g>
    <g id="ytick_8">
     <g id="line2d_29">
      <path clip-path="url(#pba652567c3)" d="M 80.51625 28.32 
L 706.91625 28.32 
" style="fill:none;stroke:#cbcbcb;"/>
     </g>
     <g id="line2d_30"/>
     <g id="text_15">
      <!-- 10,000,000 -->
      <g transform="translate(7.2 33.57)scale(0.14 -0.14)">
       <use xlink:href="#Roboto-Medium-49"/>
       <use x="56.835938" xlink:href="#Roboto-Medium-48"/>
       <use x="113.671875" xlink:href="#Roboto-Medium-44"/>
       <use x="135.644531" xlink:href="#Roboto-Medium-48"/>
       <use x="192.480469" xlink:href="#Roboto-Medium-48"/>
       <use x="249.316406" xlink:href="#Roboto-Medium-48"/>
       <use x="306.152344" xlink:href="#Roboto-Medium-44"/>
       <use x="328.125" xlink:href="#Roboto-Medium-48"/>
       <use x="384.960938" xlink:href="#Roboto-Medium-48"/>
       <use x="441.796875" xlink:href="#Roboto-Medium-48"/>
      </g>
     </g>
    </g>
    <g id="ytick_9">
     <g id="line2d_31"/>
    </g>
    <g id="ytick_10">
     <g id="line2d_32"/>
    </g>
    <g id="ytick_11">
     <g id="line2d_33"/>
    </g>
    <g id="ytick_12">
     <g id="line2d_34"/>
    </g>
    <g id="ytick_13">
     <g id="line2d_35"/>
    </g>
    <g id="ytick_14">
     <g id="line2d_36"/>
    </g>
    <g id="ytick_15">
     <g id="line2d_37"/>
    </g>
    <g id="ytick_16">
     <g id="line2d_38"/>
    </g>
    <g id="ytick_17">
     <g id="line2d_39"/>
    </g>
    <g id="ytick_18">
     <g id="line2d_40"/>
    </g>
    <g id="ytick_19">
     <g id="line2d_41"/>
    </g>
    <g id="ytick_20">
     <g id="line2d_42"/>
    </g>
    <g id="ytick_21">
     <g id="line2d_43"/>
    </g>
    <g id="ytick_22">
     <g id="line2d_44"/>
    </g>
    <g id="ytick_23">
     <g id="line2d_45"/>
    </g>
    <g id="ytick_24">
     <g id="line2d_46"/>
    </g>
    <g id="ytick_25">
     <g id="line2d_47"/>
    </g>
    <g id="ytick_26">
     <g id="line2d_48"/>
    </g>
    <g id="ytick_27">
     <g id="line2d_49"/>
    </g>
    <g id="ytick_28">
     <g id="line2d_50"/>
    </g>
    <g id="ytick_29">
     <g id="line2d_51"/>
    </g>
    <g id="ytick_30">
     <g id="line2d_52"/>
    </g>
    <g id="ytick_31">
     <g id="line2d_53"/>
    </g>
    <g id="ytick_32">
     <g id="line2d_54"/>
    </g>
    <g id="ytick_33">
     <g id="line2d_55"/>
    </g>
    <g id="ytick_34">
     <g id="line2d_56"/>
    </g>
    <g id="ytick_35">
     <g id="line2d_57"/>
    </g>
    <g id="ytick_36">
     <g id="line2d_58"/>
    </g>
    <g id="ytick_37">
     <g id="line2d_59"/>
    </g>
    <g id="ytick_38">
     <g id="line2d_60"/>
    </g>
    <g id="ytick_39">
     <g id="line2d_61"/>
    </g>
    <g id="ytick_40">
     <g id="line2d_62"/>
    </g>
    <g id="ytick_41">
     <g id="line2d_63"/>
    </g>
    <g id="ytick_42">
     <g id="line2d_64"/>
    </g>
    <g id="ytick_43">
     <g id="line2d_65"/>
    </g>
    <g id="ytick_44">
     <g id="line2d_66"/>
    </g>
    <g id="ytick_45">
     <g id="line2d_67"/>
    </g>
    <g id="ytick_46">
     <g id="line2d_68"/>
    </g>
    <g id="ytick_47">
     <g id="line2d_69"/>
    </g>
    <g id="ytick_48">
     <g id="line2d_70"/>
    </g>
    <g id="ytick_49">
     <g id="line2d_71"/>
    </g>
    <g id="ytick_50">
     <g id="line2d_72"/>
    </g>
    <g id="ytick_51">
     <g id="line2d_73"/>
    </g>
    <g id="ytick_52">
     <g id="line2d_74"/>
    </g>
    <g id="ytick_53">
     <g id="line2d_75"/>
    </g>
    <g id="ytick_54">
     <g id="line2d_76"/>
    </g>
    <g id="ytick_55">
     <g id="line2d_77"/>
    </g>
    <g id="ytick_56">
     <g id="line2d_78"/>
    </g>
    <g id="ytick_57">
     <g id="line2d_79"/>
    </g>
    <g id="ytick_58">
     <g id="line2d_80"/>
    </g>
    <g id="ytick_59">
     <g id="line2d_81"/>
    </g>
    <g id="ytick_60">
     <g id="line2d_82"/>
    </g>
    <g id="ytick_61">
     <g id="line2d_83"/>
    </g>
    <g id="ytick_62">
     <g id="line2d_84"/>
    </g>
    <g id="ytick_63">
     <g id="line2d_85"/>
    </g>
    <g id="ytick_64">
     <g id="line2d_86"/>
    </g>
    <g id="ytick_65">
     <g id="line2d_87"/>
    </g>
    <g id="ytick_66">
     <g id="line2d_88"/>
    </g>
    <g id="ytick_67">
     <g id="line2d_89"/>
    </g>
    <g id="ytick_68">
     <g id="line2d_90"/>
    </g>
   </g>
   <g id="line2d_91">
    <path clip-path="url(#pba652567c3)" d="M 111.930917 519.92375 
L 111.931895 477.311661 
L 113.403354 477.311661 
L 114.874812 458.003095 
L 114.876232 519.92375 
M 120.75967 519.92375 
L 120.760647 477.311661 
L 123.703565 477.311661 
L 125.175024 446.708309 
L 125.176703 519.92375 
M 129.588423 519.92375 
L 129.5894 477.311661 
L 129.590378 519.92375 
M 136.945716 519.92375 
L 136.946694 477.311661 
L 136.947672 519.92375 
M 139.888634 519.92375 
L 139.889612 477.311661 
L 141.36107 477.311661 
L 141.362048 519.92375 
M 147.244459 519.92375 
L 147.246905 413.169995 
L 147.249352 519.92375 
M 151.659862 519.92375 
L 151.661282 458.003095 
L 153.13274 446.708309 
L 153.134419 519.92375 
M 157.544503 519.92375 
L 157.547117 405.861479 
L 159.018576 458.003095 
L 160.490034 401.875208 
L 160.492739 519.92375 
M 163.430947 519.92375 
L 163.432952 432.47856 
L 164.904411 432.47856 
L 166.375869 396.796391 
L 167.847328 400.077399 
L 169.318787 392.502313 
L 170.790246 377.487826 
L 172.261705 360.184181 
L 173.733163 354.218795 
L 175.204622 344.654774 
L 176.676081 344.182621 
L 178.14754 329.580829 
L 179.618998 321.359939 
L 181.090457 324.066568 
L 182.561916 310.065152 
L 184.033375 301.237991 
L 185.504834 295.876703 
L 186.976292 294.742857 
L 188.447751 287.605803 
L 189.91921 275.533672 
L 191.390669 259.993206 
L 192.862127 245.971675 
L 194.333586 236.802284 
L 195.805045 232.676561 
L 197.276504 225.125099 
L 198.747962 219.56687 
L 200.219421 219.5642 
L 201.69088 210.138336 
L 203.162339 205.966897 
L 204.633798 205.42806 
L 206.105256 199.989904 
L 207.576715 203.578059 
L 209.048174 199.462035 
L 210.519633 195.776415 
L 214.934009 188.06838 
L 216.405468 185.768884 
L 217.876927 194.542401 
L 219.348385 189.303824 
L 220.819844 189.83047 
L 222.291303 188.500971 
L 223.762762 186.088168 
L 225.23422 187.090209 
L 226.705679 188.588652 
L 228.177138 192.929461 
L 229.648597 194.376515 
L 231.120055 193.397246 
L 232.591514 190.11102 
L 234.062973 188.682778 
L 235.534432 188.774571 
L 237.005891 191.670366 
L 238.477349 194.850765 
L 239.948808 192.672031 
L 241.420267 194.653544 
L 242.891726 191.24883 
L 244.363184 186.839186 
L 245.834643 184.495273 
L 247.306102 186.322768 
L 248.777561 193.351363 
L 250.24902 197.305592 
L 251.720478 195.612077 
L 253.191937 193.539547 
L 254.663396 189.812111 
L 256.134855 186.679644 
L 257.606313 190.634393 
L 259.077772 193.978322 
L 260.549231 198.829594 
L 262.02069 196.697438 
L 263.492149 195.776415 
L 264.963607 191.592002 
L 266.435066 192.415951 
L 267.906525 195.367934 
L 269.377984 200.998371 
L 270.849442 204.964188 
L 272.320901 198.404143 
L 273.79236 199.885635 
L 275.263819 193.11584 
L 276.735277 193.875144 
L 278.206736 196.756246 
L 279.678195 202.844759 
L 281.149654 199.001355 
L 282.621113 200.107841 
L 284.092571 197.45852 
L 285.56403 194.415458 
L 287.035489 196.591895 
L 288.506948 198.444145 
L 289.978406 201.393288 
L 291.449865 202.719049 
L 294.392783 203.243157 
L 295.864242 198.140571 
L 297.3357 195.728714 
L 298.807159 197.066449 
L 300.278618 200.567093 
L 301.750077 198.912161 
L 303.221535 200.355941 
L 304.692994 201.454545 
L 306.164453 199.27195 
L 307.635912 191.366956 
L 309.107371 198.135622 
L 310.578829 203.434036 
L 312.050288 204.052874 
L 313.521747 203.152649 
L 314.993206 197.723 
L 316.464664 197.299588 
L 317.936123 194.676481 
L 319.407582 194.850765 
L 320.879041 202.67533 
L 322.350499 201.273947 
L 323.821958 195.348897 
L 325.293417 194.500023 
L 328.236335 189.376 
L 329.707793 188.322082 
L 331.179252 193.724787 
L 334.12217 185.799854 
L 335.593628 184.307875 
L 338.536546 178.521913 
L 341.479464 182.472625 
L 342.950922 182.481087 
L 344.422381 176.824207 
L 345.89384 175.925829 
L 347.365299 172.975208 
L 348.836757 172.186766 
L 350.308216 175.908555 
L 351.779675 178.991468 
L 353.251134 177.448858 
L 354.722592 173.724743 
L 356.194051 171.087265 
L 357.66551 170.884662 
L 359.136969 167.253653 
L 360.608428 170.500335 
L 362.079886 171.871267 
L 365.022804 168.346575 
L 366.494263 167.206739 
L 367.965721 164.363108 
L 369.43718 166.174096 
L 370.908639 169.717775 
L 372.380098 169.796391 
L 373.851557 170.885127 
L 375.323015 168.484922 
L 376.794474 166.64306 
L 378.265933 166.536614 
L 379.737392 165.170411 
L 381.20885 167.852471 
L 382.680309 173.656325 
L 384.151768 171.215939 
L 385.623227 169.422719 
L 387.094686 167.849968 
L 388.566144 166.960821 
L 390.037603 166.904315 
L 391.509062 172.34611 
L 392.980521 175.473013 
L 394.451979 177.350127 
L 395.923438 174.001671 
L 397.394897 173.911302 
L 398.866356 172.011855 
L 400.337814 170.30103 
L 401.809273 173.135611 
L 403.280732 176.77187 
L 404.752191 177.533174 
L 406.22365 174.10173 
L 407.695108 173.625001 
L 409.166567 173.736592 
L 410.638026 171.076959 
L 412.109485 175.500997 
L 413.580943 180.678033 
L 415.052402 183.908596 
L 416.523861 179.96274 
L 417.99532 180.104855 
L 420.938237 176.45819 
L 422.409696 178.830769 
L 423.881155 188.055454 
L 425.352614 181.847929 
L 426.824072 182.702724 
L 428.295531 178.650085 
L 429.76699 178.471787 
L 431.238449 177.89514 
L 432.709908 179.089333 
L 434.181366 187.126017 
L 435.652825 184.690047 
L 437.124284 179.441866 
L 438.595743 187.959986 
L 440.067201 177.997026 
L 441.53866 174.763693 
L 443.010119 180.600792 
L 444.481578 190.142574 
L 445.953036 195.036108 
L 450.367413 183.512763 
L 451.838872 177.300892 
L 453.31033 182.758944 
L 454.781789 187.198607 
L 456.253248 184.384797 
L 457.724707 182.678563 
L 459.196165 182.64236 
L 460.667624 178.655617 
L 462.139083 176.538986 
L 463.610542 180.894386 
L 465.082001 184.788713 
L 466.553459 173.282237 
L 468.024918 184.006763 
L 469.496377 181.068151 
L 470.967836 178.722094 
L 472.439294 173.469929 
L 473.910753 180.310261 
L 475.382212 184.076134 
L 476.853671 184.029867 
L 478.325129 179.665364 
L 479.796588 180.730308 
L 481.268047 177.98262 
L 482.739506 173.985549 
L 484.210965 177.177601 
L 485.682423 185.79747 
L 487.153882 169.735177 
L 488.625341 180.202819 
L 490.0968 174.279803 
L 491.568258 172.565102 
L 493.039717 171.319213 
L 495.982635 178.981513 
L 497.454094 177.039766 
L 498.925552 173.565531 
L 501.86847 168.452508 
L 503.339929 166.355358 
L 504.811387 174.414637 
L 506.282846 177.117614 
L 507.754305 168.41545 
L 509.225764 170.558658 
L 510.697223 168.932306 
L 512.168681 164.569609 
L 513.64014 161.087621 
L 515.111599 163.276394 
L 516.583058 170.967113 
L 518.054516 164.804563 
L 519.525975 164.841981 
L 523.940351 156.655193 
L 525.41181 161.382362 
L 526.883269 164.906832 
L 528.354728 158.404409 
L 529.826187 158.735935 
L 531.297645 154.48967 
L 532.769104 151.16907 
L 534.240563 148.686103 
L 535.712022 150.180435 
L 537.18348 155.66765 
L 538.654939 149.200478 
L 540.126398 147.282217 
L 541.597857 146.667105 
L 543.069316 142.90948 
L 544.540774 139.984284 
L 546.012233 143.664194 
L 547.483692 148.204947 
L 548.955151 142.409151 
L 550.426609 143.208572 
L 551.898068 141.450349 
L 553.369527 139.097033 
L 554.840986 137.480349 
L 556.312445 141.495659 
L 557.783903 147.025453 
L 559.255362 140.369515 
L 560.726821 140.495629 
L 562.19828 140.146901 
L 563.669738 155.751818 
L 565.141197 136.544212 
L 566.612656 145.078291 
L 568.084115 147.968778 
L 569.555573 142.191442 
L 572.498491 137.130066 
L 573.96995 134.899408 
L 575.441409 133.258835 
L 576.912867 136.504244 
L 578.384326 141.470406 
L 579.855785 136.723753 
L 581.327244 134.651802 
L 582.798702 134.680572 
L 584.270161 133.982577 
L 585.74162 127.870781 
L 587.213079 136.276781 
L 588.684538 139.579955 
L 590.155996 137.145716 
L 591.627455 136.880024 
L 593.098914 131.637819 
L 594.570373 132.397023 
L 596.041831 130.946404 
L 597.51329 138.150861 
L 598.984749 140.236538 
L 600.456208 137.076948 
L 601.927666 137.062579 
L 603.399125 133.675355 
L 604.870584 138.206932 
L 606.342043 156.327806 
L 607.813502 135.040478 
L 609.28496 144.920894 
L 610.756419 138.864127 
L 612.227878 137.141145 
L 613.699337 133.518262 
L 615.170795 133.275228 
L 616.642254 145.841205 
L 618.113713 126.811728 
L 619.585172 137.020344 
L 621.056631 130.865898 
L 622.528089 132.796376 
L 626.942466 125.944879 
L 628.413924 130.84114 
L 629.885383 136.15699 
L 631.356842 134.272348 
L 632.828301 133.436409 
L 634.29976 133.486658 
L 635.771218 132.376586 
L 637.242677 132.106249 
L 641.657053 146.720388 
L 643.128512 139.455954 
L 644.599971 139.18007 
L 646.07143 138.700163 
L 647.542888 138.474752 
L 649.014347 142.159247 
L 650.485806 149.396354 
L 651.957265 144.27284 
L 653.428724 145.010044 
L 654.900182 144.282325 
L 656.371641 142.609015 
L 657.8431 142.546382 
L 659.314559 148.468502 
L 660.786017 153.07286 
L 662.257476 147.263884 
L 663.728935 152.011828 
L 665.200394 151.521265 
L 666.671853 150.200351 
L 668.143311 149.382379 
L 669.61477 155.237053 
L 671.086229 160.375929 
L 672.557688 158.703175 
L 674.029146 157.59924 
L 675.500605 158.063569 
L 676.972064 155.085489 
L 678.443523 156.724771 
L 678.443523 156.724771 
" style="fill:none;stroke:#008fd5;stroke-width:4;"/>
   </g>
   <g id="line2d_92">
    <path clip-path="url(#pba652567c3)" d="M 166.374449 519.92375 
L 166.375869 458.003095 
L 166.37729 519.92375 
M 169.317809 519.92375 
L 169.318787 477.311661 
L 169.319765 519.92375 
M 172.260727 519.92375 
L 172.261705 477.311661 
L 173.733163 446.708309 
L 175.204622 432.47856 
L 176.676081 477.311661 
L 178.14754 477.311661 
L 179.618998 416.104957 
L 181.090457 446.708309 
L 182.561916 393.86143 
L 184.033375 388.782613 
L 184.036379 519.92375 
M 186.972979 519.92375 
L 186.976292 375.258127 
L 188.447751 380.768834 
L 189.91921 359.364817 
L 191.390669 344.893886 
L 192.862127 346.884474 
L 194.333586 341.719813 
L 195.805045 329.719764 
L 197.276504 325.109132 
L 198.747962 326.812672 
L 200.219421 324.066568 
L 201.69088 303.973264 
L 203.162339 303.807944 
L 204.633798 294.037595 
L 206.105256 289.743516 
L 207.576715 287.667296 
L 209.048174 292.826257 
L 210.519633 283.60725 
L 211.991091 284.144516 
L 213.46255 279.097361 
L 214.934009 278.448729 
L 216.405468 278.075402 
L 217.876927 290.929073 
L 219.348385 278.031809 
L 220.819844 281.779525 
L 222.291303 286.286201 
L 223.762762 281.506786 
L 225.23422 281.212267 
L 226.705679 284.389708 
L 228.177138 288.542764 
L 229.648597 280.848443 
L 231.120055 298.701669 
L 232.591514 287.636532 
L 234.062973 290.89449 
L 235.534432 275.256295 
L 237.005891 293.312028 
L 238.477349 290.346927 
L 239.948808 293.124189 
L 241.420267 290.722217 
L 242.891726 307.756203 
L 244.363184 276.754746 
L 245.834643 288.28981 
L 247.306102 317.873348 
L 248.777561 295.263552 
L 250.24902 298.655965 
L 251.720478 294.50578 
L 253.191937 314.370697 
L 254.663396 304.306878 
L 256.134855 283.874588 
L 257.606313 293.463216 
L 259.077772 298.428565 
L 260.549231 290.448778 
L 262.02069 301.948392 
L 263.492149 300.889471 
L 264.963607 290.211701 
L 266.435066 312.507738 
L 267.906525 291.033079 
L 269.377984 299.349521 
L 270.849442 311.403642 
L 272.320901 286.580669 
L 273.79236 305.390476 
L 275.263819 290.825453 
L 276.735277 286.96819 
L 278.206736 295.918064 
L 279.678195 291.915242 
L 281.149654 289.28307 
L 282.621113 304.084026 
L 284.092571 302.730194 
L 285.56403 279.715146 
L 287.035489 291.951116 
L 288.506948 295.794166 
L 289.978406 293.274359 
L 291.449865 288.47931 
L 292.921324 303.698273 
L 294.392783 311.913446 
L 295.864242 296.843889 
L 297.3357 279.530666 
L 298.807159 286.998224 
L 300.278618 293.312028 
L 301.750077 296.167525 
L 303.221535 298.338122 
L 304.692994 277.216233 
L 306.164453 275.138259 
L 307.635912 277.471213 
L 309.107371 278.22852 
L 310.578829 280.276032 
L 312.050288 285.850255 
L 313.521747 282.333148 
L 316.464664 270.138077 
L 317.936123 266.977636 
L 319.407582 258.473895 
L 320.879041 265.356134 
L 322.350499 269.170745 
L 323.821958 256.374846 
L 325.293417 258.162647 
L 326.764876 252.424633 
L 328.236335 247.537569 
L 329.707793 245.930365 
L 331.179252 250.037027 
L 332.650711 254.979052 
L 334.12217 251.746745 
L 335.593628 237.34291 
L 337.065087 240.031287 
L 338.536546 223.860059 
L 340.008005 221.92571 
L 341.479464 225.174042 
L 342.950922 238.609679 
L 344.422381 234.546284 
L 345.89384 232.476354 
L 347.365299 220.443006 
L 348.836757 222.209052 
L 350.308216 216.953659 
L 351.779675 220.581128 
L 353.251134 233.456903 
L 354.722592 229.332923 
L 356.194051 220.775656 
L 357.66551 223.881874 
L 359.136969 217.014505 
L 360.608428 219.759797 
L 362.079886 208.898581 
L 363.551345 214.254054 
L 365.022804 223.08588 
L 366.494263 220.245306 
L 367.965721 211.44183 
L 369.43718 216.934217 
L 370.908639 219.845973 
L 372.380098 214.578098 
L 373.851557 219.794774 
L 375.323015 222.350335 
L 376.794474 221.350442 
L 378.265933 220.059869 
L 379.737392 214.654105 
L 381.20885 215.208018 
L 382.680309 222.635071 
L 384.151768 224.016257 
L 385.623227 222.977018 
L 387.094686 222.332636 
L 388.566144 220.867836 
L 390.037603 223.658302 
L 391.509062 221.760544 
L 392.980521 230.269846 
L 394.451979 241.470681 
L 395.923438 237.673418 
L 397.394897 237.863319 
L 398.866356 228.207147 
L 400.337814 228.076366 
L 401.809273 225.265632 
L 403.280732 233.931348 
L 404.752191 245.210487 
L 407.695108 226.583987 
L 409.166567 233.900062 
L 410.638026 234.29596 
L 412.109485 233.386647 
L 413.580943 247.852748 
L 415.052402 257.446181 
L 416.523861 247.421198 
L 417.99532 245.479958 
L 419.466779 242.650122 
L 420.938237 241.872179 
L 422.409696 244.183772 
L 423.881155 254.525785 
L 425.352614 262.198221 
L 426.824072 257.498239 
L 428.295531 252.311942 
L 429.76699 251.891233 
L 431.238449 247.588635 
L 432.709908 252.51163 
L 434.181366 258.452317 
L 435.652825 267.227734 
L 437.124284 228.503669 
L 438.595743 260.476077 
L 440.067201 249.429802 
L 441.53866 252.502918 
L 443.010119 248.774509 
L 445.953036 267.931102 
L 447.424495 268.159372 
L 448.895954 264.80884 
L 450.367413 258.452317 
L 451.838872 248.820262 
L 453.31033 252.57269 
L 454.781789 260.233595 
L 456.253248 269.521545 
L 457.724707 253.226501 
L 459.196165 261.026547 
L 460.667624 252.010789 
L 462.139083 252.450704 
L 463.610542 249.414204 
L 465.082001 259.129112 
L 466.553459 270.352168 
L 468.024918 259.698427 
L 469.496377 258.376928 
L 470.967836 258.908989 
L 472.439294 255.741494 
L 473.910753 256.25499 
L 475.382212 267.272104 
L 476.853671 293.349748 
L 478.325129 251.916809 
L 479.796588 266.311946 
L 481.268047 257.971194 
L 482.739506 257.634047 
L 484.210965 256.334837 
L 485.682423 267.480099 
L 487.153882 275.216894 
L 488.625341 262.284712 
L 490.0968 258.463104 
L 491.568258 251.577714 
L 493.039717 255.150946 
L 493.04577 519.92375 
M 495.97617 519.92375 
L 495.982635 237.046269 
L 497.454094 272.98568 
L 498.925552 256.96153 
L 500.397011 255.391462 
L 501.86847 251.159567 
L 503.339929 250.398126 
L 504.811387 245.964786 
L 506.282846 258.930924 
L 507.754305 269.990818 
L 509.225764 248.72883 
L 510.697223 263.641354 
L 512.168681 237.106347 
L 513.64014 248.524198 
L 515.111599 243.168624 
L 516.583058 260.67393 
L 518.054516 250.985801 
L 519.525975 244.267901 
L 520.997434 245.479958 
L 522.468893 244.923684 
L 523.940351 236.93646 
L 525.41181 261.31189 
L 526.883269 240.816025 
L 528.354728 242.069129 
L 529.826187 242.153106 
L 531.297645 243.469303 
L 532.769104 233.806412 
L 535.712022 243.287255 
L 537.18348 231.406345 
L 538.654939 246.803896 
L 540.126398 243.913694 
L 541.597857 235.737208 
L 543.069316 236.861838 
L 544.540774 230.948577 
L 546.012233 242.717474 
L 547.483692 220.454031 
L 548.955151 241.99735 
L 550.426609 228.911475 
L 551.898068 227.223353 
L 553.369527 223.418106 
L 554.840986 223.418106 
L 556.312445 225.57202 
L 557.783903 232.374673 
L 559.255362 233.478894 
L 560.726821 225.092519 
L 562.19828 225.681554 
L 562.205003 519.92375 
M 565.134012 519.92375 
L 565.141197 205.405565 
L 566.612656 233.717513 
L 568.084115 229.272324 
L 569.555573 232.071837 
L 571.027032 224.157589 
L 572.498491 220.761716 
L 573.96995 218.421174 
L 575.441409 220.256252 
L 576.912867 219.569541 
L 578.384326 225.482721 
L 579.855785 227.985905 
L 581.327244 227.013247 
L 582.798702 221.905373 
L 584.270161 217.25431 
L 585.74162 216.373824 
L 587.213079 219.182346 
L 588.684538 223.81026 
L 590.155996 225.429938 
L 591.627455 222.436043 
L 593.098914 216.7526 
L 594.570373 213.121139 
L 596.041831 213.436481 
L 597.51329 216.414332 
L 598.984749 225.598534 
L 600.456208 218.052042 
L 601.927666 219.56153 
L 603.399125 217.13415 
L 604.870584 213.123257 
L 604.877593 519.92375 
M 607.806328 519.92375 
L 607.813502 205.894883 
L 609.28496 229.166593 
L 610.756419 226.279916 
L 612.227878 215.49262 
L 613.699337 211.629968 
L 615.170795 205.65077 
L 615.177975 519.92375 
M 618.10615 519.92375 
L 618.113713 188.766615 
L 619.585172 219.113954 
L 621.056631 217.449137 
L 622.528089 208.661088 
L 623.999548 204.709259 
L 625.471007 201.693897 
L 626.942466 202.098871 
L 629.885383 214.948908 
L 631.356842 216.668248 
L 632.828301 209.644021 
L 634.29976 211.392006 
L 635.771218 211.934876 
L 637.242677 206.169203 
L 638.714136 215.391299 
L 640.185595 217.855479 
L 641.657053 226.954004 
L 644.599971 215.866537 
L 646.07143 213.709954 
L 647.542888 211.936906 
L 649.014347 214.953433 
L 650.485806 222.071402 
L 651.957265 224.560369 
L 653.428724 221.899566 
L 654.900182 225.575333 
L 656.371641 217.038881 
L 657.8431 218.150846 
L 659.314559 209.414948 
L 660.786017 227.709118 
L 662.257476 236.257363 
L 663.728935 219.298469 
L 665.200394 230.764362 
L 666.671853 227.985905 
L 668.143311 216.747773 
L 669.61477 228.810823 
L 671.086229 232.218638 
L 672.557688 236.223353 
L 674.029146 230.589289 
L 675.500605 228.621689 
L 676.972064 225.190375 
L 678.443523 228.327572 
L 678.443523 228.327572 
" style="fill:none;stroke:#fc4f30;stroke-width:4;"/>
   </g>
   <g id="patch_3">
    <path d="M 80.51625 494.88 
L 80.51625 28.32 
" style="fill:none;stroke:#f0f0f0;stroke-linecap:square;stroke-linejoin:miter;stroke-width:3;"/>
   </g>
   <g id="patch_4">
    <path d="M 706.91625 494.88 
L 706.91625 28.32 
" style="fill:none;stroke:#f0f0f0;stroke-linecap:square;stroke-linejoin:miter;stroke-width:3;"/>
   </g>
   <g id="patch_5">
    <path d="M 80.51625 494.88 
L 706.91625 494.88 
" style="fill:none;stroke:#f0f0f0;stroke-linecap:square;stroke-linejoin:miter;stroke-width:3;"/>
   </g>
   <g id="patch_6">
    <path d="M 80.51625 28.32 
L 706.91625 28.32 
" style="fill:none;stroke:#f0f0f0;stroke-linecap:square;stroke-linejoin:miter;stroke-width:3;"/>
   </g>
   <g id="text_16">
    <!-- New Cases of COVID-19 -->
    <g transform="translate(285.742125 22.32)scale(0.2016 -0.2016)">
     <defs>
      <path d="M 62.890625 0 
L 53.46875 0 
L 17.671875 54.78125 
L 17.671875 0 
L 8.25 0 
L 8.25 71.09375 
L 17.671875 71.09375 
L 53.5625 16.0625 
L 53.5625 71.09375 
L 62.890625 71.09375 
z
" id="Roboto-Regular-78"/>
      <path d="M 28.765625 -0.984375 
Q 18.015625 -0.984375 11.28125 6.078125 
Q 4.546875 13.140625 4.546875 24.953125 
L 4.546875 26.609375 
Q 4.546875 34.46875 7.546875 40.640625 
Q 10.546875 46.828125 15.9375 50.3125 
Q 21.34375 53.8125 27.640625 53.8125 
Q 37.9375 53.8125 43.640625 47.015625 
Q 49.359375 40.234375 49.359375 27.59375 
L 49.359375 23.828125 
L 13.578125 23.828125 
Q 13.765625 16.015625 18.140625 11.203125 
Q 22.515625 6.390625 29.25 6.390625 
Q 34.03125 6.390625 37.34375 8.34375 
Q 40.671875 10.296875 43.171875 13.53125 
L 48.6875 9.234375 
Q 42.046875 -0.984375 28.765625 -0.984375 
z
M 27.640625 46.390625 
Q 22.171875 46.390625 18.453125 42.40625 
Q 14.75 38.421875 13.875 31.25 
L 40.328125 31.25 
L 40.328125 31.9375 
Q 39.9375 38.8125 36.609375 42.59375 
Q 33.296875 46.390625 27.640625 46.390625 
z
" id="Roboto-Regular-101"/>
      <path d="M 53.609375 12.453125 
L 63.765625 52.828125 
L 72.796875 52.828125 
L 57.421875 0 
L 50.09375 0 
L 37.25 40.046875 
L 24.75 0 
L 17.4375 0 
L 2.09375 52.828125 
L 11.078125 52.828125 
L 21.484375 13.28125 
L 33.796875 52.828125 
L 41.0625 52.828125 
z
" id="Roboto-Regular-119"/>
      <path id="Roboto-Regular-32"/>
      <path d="M 60.546875 22.5625 
Q 59.234375 11.28125 52.21875 5.140625 
Q 45.21875 -0.984375 33.59375 -0.984375 
Q 21 -0.984375 13.40625 8.046875 
Q 5.8125 17.09375 5.8125 32.234375 
L 5.8125 39.0625 
Q 5.8125 48.96875 9.34375 56.484375 
Q 12.890625 64.015625 19.375 68.046875 
Q 25.875 72.078125 34.421875 72.078125 
Q 45.75 72.078125 52.578125 65.75 
Q 59.421875 59.421875 60.546875 48.25 
L 51.125 48.25 
Q 49.90625 56.734375 45.828125 60.546875 
Q 41.75 64.359375 34.421875 64.359375 
Q 25.4375 64.359375 20.328125 57.71875 
Q 15.234375 51.078125 15.234375 38.8125 
L 15.234375 31.9375 
Q 15.234375 20.359375 20.0625 13.515625 
Q 24.90625 6.6875 33.59375 6.6875 
Q 41.40625 6.6875 45.578125 10.21875 
Q 49.75 13.765625 51.125 22.5625 
z
" id="Roboto-Regular-67"/>
      <path d="M 39.453125 0 
Q 38.671875 1.5625 38.1875 5.5625 
Q 31.890625 -0.984375 23.140625 -0.984375 
Q 15.328125 -0.984375 10.328125 3.4375 
Q 5.328125 7.859375 5.328125 14.65625 
Q 5.328125 22.90625 11.59375 27.46875 
Q 17.875 32.03125 29.25 32.03125 
L 38.03125 32.03125 
L 38.03125 36.1875 
Q 38.03125 40.921875 35.203125 43.71875 
Q 32.375 46.53125 26.859375 46.53125 
Q 22.015625 46.53125 18.75 44.09375 
Q 15.484375 41.65625 15.484375 38.1875 
L 6.390625 38.1875 
Q 6.390625 42.140625 9.203125 45.828125 
Q 12.015625 49.515625 16.8125 51.65625 
Q 21.625 53.8125 27.390625 53.8125 
Q 36.53125 53.8125 41.703125 49.234375 
Q 46.875 44.671875 47.078125 36.671875 
L 47.078125 12.359375 
Q 47.078125 5.078125 48.921875 0.78125 
L 48.921875 0 
z
M 24.46875 6.890625 
Q 28.71875 6.890625 32.515625 9.078125 
Q 36.328125 11.28125 38.03125 14.796875 
L 38.03125 25.640625 
L 30.953125 25.640625 
Q 14.359375 25.640625 14.359375 15.921875 
Q 14.359375 11.671875 17.1875 9.28125 
Q 20.015625 6.890625 24.46875 6.890625 
z
" id="Roboto-Regular-97"/>
      <path d="M 37.59375 14.015625 
Q 37.59375 17.671875 34.828125 19.703125 
Q 32.078125 21.734375 25.21875 23.1875 
Q 18.359375 24.65625 14.328125 26.703125 
Q 10.296875 28.765625 8.375 31.59375 
Q 6.453125 34.421875 6.453125 38.328125 
Q 6.453125 44.828125 11.9375 49.3125 
Q 17.4375 53.8125 25.984375 53.8125 
Q 34.96875 53.8125 40.546875 49.171875 
Q 46.140625 44.53125 46.140625 37.3125 
L 37.0625 37.3125 
Q 37.0625 41.015625 33.90625 43.703125 
Q 30.765625 46.390625 25.984375 46.390625 
Q 21.046875 46.390625 18.265625 44.234375 
Q 15.484375 42.09375 15.484375 38.625 
Q 15.484375 35.359375 18.0625 33.6875 
Q 20.65625 32.03125 27.421875 30.515625 
Q 34.1875 29 38.375 26.90625 
Q 42.578125 24.8125 44.59375 21.84375 
Q 46.625 18.890625 46.625 14.65625 
Q 46.625 7.5625 40.953125 3.28125 
Q 35.296875 -0.984375 26.265625 -0.984375 
Q 19.921875 -0.984375 15.03125 1.265625 
Q 10.15625 3.515625 7.390625 7.546875 
Q 4.640625 11.578125 4.640625 16.265625 
L 13.671875 16.265625 
Q 13.921875 11.71875 17.3125 9.046875 
Q 20.703125 6.390625 26.265625 6.390625 
Q 31.390625 6.390625 34.484375 8.46875 
Q 37.59375 10.546875 37.59375 14.015625 
z
" id="Roboto-Regular-115"/>
      <path d="M 4.4375 26.90625 
Q 4.4375 34.671875 7.484375 40.875 
Q 10.546875 47.078125 15.984375 50.4375 
Q 21.4375 53.8125 28.421875 53.8125 
Q 39.203125 53.8125 45.875 46.34375 
Q 52.546875 38.875 52.546875 26.46875 
L 52.546875 25.828125 
Q 52.546875 18.109375 49.578125 11.984375 
Q 46.625 5.859375 41.125 2.4375 
Q 35.640625 -0.984375 28.515625 -0.984375 
Q 17.78125 -0.984375 11.109375 6.484375 
Q 4.4375 13.96875 4.4375 26.265625 
z
M 13.53125 25.828125 
Q 13.53125 17.046875 17.609375 11.71875 
Q 21.6875 6.390625 28.515625 6.390625 
Q 35.40625 6.390625 39.453125 11.78125 
Q 43.5 17.1875 43.5 26.90625 
Q 43.5 35.59375 39.375 40.984375 
Q 35.25 46.390625 28.421875 46.390625 
Q 21.734375 46.390625 17.625 41.0625 
Q 13.53125 35.75 13.53125 25.828125 
z
" id="Roboto-Regular-111"/>
      <path d="M 11.28125 0 
L 11.28125 45.84375 
L 2.9375 45.84375 
L 2.9375 52.828125 
L 11.28125 52.828125 
L 11.28125 58.25 
Q 11.28125 66.75 15.8125 71.390625 
Q 20.359375 76.03125 28.65625 76.03125 
Q 31.78125 76.03125 34.859375 75.203125 
L 34.375 67.875 
Q 32.078125 68.3125 29.5 68.3125 
Q 25.09375 68.3125 22.703125 65.75 
Q 20.3125 63.1875 20.3125 58.40625 
L 20.3125 52.828125 
L 31.59375 52.828125 
L 31.59375 45.84375 
L 20.3125 45.84375 
L 20.3125 0 
z
" id="Roboto-Regular-102"/>
      <path d="M 62.9375 33.25 
Q 62.9375 22.796875 59.421875 15.015625 
Q 55.90625 7.234375 49.453125 3.125 
Q 43.015625 -0.984375 34.421875 -0.984375 
Q 26.03125 -0.984375 19.53125 3.140625 
Q 13.03125 7.28125 9.4375 14.921875 
Q 5.859375 22.5625 5.765625 32.625 
L 5.765625 37.75 
Q 5.765625 48 9.328125 55.859375 
Q 12.890625 63.71875 19.40625 67.890625 
Q 25.921875 72.078125 34.328125 72.078125 
Q 42.875 72.078125 49.390625 67.9375 
Q 55.90625 63.8125 59.421875 55.96875 
Q 62.9375 48.140625 62.9375 37.75 
z
M 53.609375 37.84375 
Q 53.609375 50.484375 48.53125 57.25 
Q 43.453125 64.015625 34.328125 64.015625 
Q 25.4375 64.015625 20.328125 57.25 
Q 15.234375 50.484375 15.09375 38.484375 
L 15.09375 33.25 
Q 15.09375 21 20.234375 13.984375 
Q 25.390625 6.984375 34.421875 6.984375 
Q 43.5 6.984375 48.484375 13.59375 
Q 53.46875 20.21875 53.609375 32.5625 
z
" id="Roboto-Regular-79"/>
      <path d="M 31.78125 12.453125 
L 52.09375 71.09375 
L 62.359375 71.09375 
L 35.984375 0 
L 27.6875 0 
L 1.375 71.09375 
L 11.578125 71.09375 
z
" id="Roboto-Regular-86"/>
      <path d="M 18.3125 0 
L 8.9375 0 
L 8.9375 71.09375 
L 18.3125 71.09375 
z
" id="Roboto-Regular-73"/>
      <path d="M 8.25 0 
L 8.25 71.09375 
L 28.328125 71.09375 
Q 37.59375 71.09375 44.71875 66.984375 
Q 51.859375 62.890625 55.734375 55.3125 
Q 59.625 47.75 59.671875 37.9375 
L 59.671875 33.40625 
Q 59.671875 23.34375 55.78125 15.765625 
Q 51.90625 8.203125 44.703125 4.140625 
Q 37.5 0.09375 27.9375 0 
z
M 17.625 63.375 
L 17.625 7.671875 
L 27.484375 7.671875 
Q 38.328125 7.671875 44.359375 14.40625 
Q 50.390625 21.140625 50.390625 33.59375 
L 50.390625 37.75 
Q 50.390625 49.859375 44.703125 56.5625 
Q 39.015625 63.28125 28.5625 63.375 
z
" id="Roboto-Regular-68"/>
      <path d="M 25.640625 26.515625 
L 1.8125 26.515625 
L 1.8125 33.890625 
L 25.640625 33.890625 
z
" id="Roboto-Regular-45"/>
      <path d="M 35.59375 0 
L 26.515625 0 
L 26.515625 60.203125 
L 8.296875 53.515625 
L 8.296875 61.71875 
L 34.1875 71.4375 
L 35.59375 71.4375 
z
" id="Roboto-Regular-49"/>
      <path d="M 40.53125 31.25 
Q 37.703125 27.875 33.765625 25.828125 
Q 29.828125 23.78125 25.140625 23.78125 
Q 19 23.78125 14.421875 26.796875 
Q 9.859375 29.828125 7.375 35.328125 
Q 4.890625 40.828125 4.890625 47.46875 
Q 4.890625 54.59375 7.59375 60.296875 
Q 10.296875 66.015625 15.28125 69.046875 
Q 20.265625 72.078125 26.90625 72.078125 
Q 37.453125 72.078125 43.53125 64.1875 
Q 49.609375 56.296875 49.609375 42.671875 
L 49.609375 40.046875 
Q 49.609375 19.28125 41.40625 9.734375 
Q 33.203125 0.203125 16.65625 -0.046875 
L 14.890625 -0.046875 
L 14.890625 7.5625 
L 16.796875 7.5625 
Q 27.984375 7.765625 33.984375 13.40625 
Q 39.984375 19.046875 40.53125 31.25 
z
M 26.609375 31.25 
Q 31.15625 31.25 34.984375 34.03125 
Q 38.8125 36.8125 40.578125 40.921875 
L 40.578125 44.53125 
Q 40.578125 53.421875 36.71875 58.984375 
Q 32.859375 64.546875 26.953125 64.546875 
Q 21 64.546875 17.375 59.984375 
Q 13.765625 55.421875 13.765625 47.953125 
Q 13.765625 40.671875 17.25 35.953125 
Q 20.75 31.25 26.609375 31.25 
z
" id="Roboto-Regular-57"/>
     </defs>
     <use xlink:href="#Roboto-Regular-78"/>
     <use x="71.289062" xlink:href="#Roboto-Regular-101"/>
     <use x="124.267578" xlink:href="#Roboto-Regular-119"/>
     <use x="199.414062" xlink:href="#Roboto-Regular-32"/>
     <use x="224.169922" xlink:href="#Roboto-Regular-67"/>
     <use x="289.257812" xlink:href="#Roboto-Regular-97"/>
     <use x="343.652344" xlink:href="#Roboto-Regular-115"/>
     <use x="395.214844" xlink:href="#Roboto-Regular-101"/>
     <use x="448.193359" xlink:href="#Roboto-Regular-115"/>
     <use x="499.755859" xlink:href="#Roboto-Regular-32"/>
     <use x="524.511719" xlink:href="#Roboto-Regular-111"/>
     <use x="581.542969" xlink:href="#Roboto-Regular-102"/>
     <use x="616.259766" xlink:href="#Roboto-Regular-32"/>
     <use x="641.015625" xlink:href="#Roboto-Regular-67"/>
     <use x="706.103516" xlink:href="#Roboto-Regular-79"/>
     <use x="774.853516" xlink:href="#Roboto-Regular-86"/>
     <use x="838.476562" xlink:href="#Roboto-Regular-73"/>
     <use x="865.673828" xlink:href="#Roboto-Regular-68"/>
     <use x="931.25" xlink:href="#Roboto-Regular-45"/>
     <use x="958.837891" xlink:href="#Roboto-Regular-49"/>
     <use x="1014.990234" xlink:href="#Roboto-Regular-57"/>
    </g>
   </g>
   <g id="legend_1">
    <g id="patch_7">
     <path d="M 568.200312 80.2075 
L 697.11625 80.2075 
Q 699.91625 80.2075 699.91625 77.4075 
L 699.91625 38.12 
Q 699.91625 35.32 697.11625 35.32 
L 568.200312 35.32 
Q 565.400312 35.32 565.400312 38.12 
L 565.400312 77.4075 
Q 565.400312 80.2075 568.200312 80.2075 
z
" style="fill:#f0f0f0;opacity:0.8;stroke:#cccccc;stroke-linejoin:miter;stroke-width:0.5;"/>
    </g>
    <g id="line2d_93">
     <path d="M 571.000312 46.52 
L 599.000312 46.52 
" style="fill:none;stroke:#008fd5;stroke-width:4;"/>
    </g>
    <g id="line2d_94"/>
    <g id="text_17">
     <!-- United States -->
     <g transform="translate(610.200312 51.42)scale(0.14 -0.14)">
      <defs>
       <path d="M 59.234375 71.09375 
L 59.234375 23.578125 
Q 59.234375 12.25 51.984375 5.625 
Q 44.734375 -0.984375 32.671875 -0.984375 
Q 20.453125 -0.984375 13.28125 5.53125 
Q 6.109375 12.0625 6.109375 23.640625 
L 6.109375 71.09375 
L 18.40625 71.09375 
L 18.40625 23.53125 
Q 18.40625 16.40625 22.015625 12.640625 
Q 25.640625 8.890625 32.671875 8.890625 
Q 46.921875 8.890625 46.921875 23.921875 
L 46.921875 71.09375 
z
" id="Roboto-Medium-85"/>
       <path d="M 17.09375 52.828125 
L 17.4375 46.734375 
Q 23.296875 53.8125 32.8125 53.8125 
Q 49.3125 53.8125 49.609375 34.90625 
L 49.609375 0 
L 37.75 0 
L 37.75 34.234375 
Q 37.75 39.265625 35.578125 41.671875 
Q 33.40625 44.09375 28.46875 44.09375 
Q 21.296875 44.09375 17.78125 37.59375 
L 17.78125 0 
L 5.90625 0 
L 5.90625 52.828125 
z
" id="Roboto-Medium-110"/>
       <path d="M 18.703125 0 
L 6.84375 0 
L 6.84375 52.828125 
L 18.703125 52.828125 
z
M 6.109375 66.546875 
Q 6.109375 69.28125 7.84375 71.09375 
Q 9.578125 72.90625 12.796875 72.90625 
Q 16.015625 72.90625 17.765625 71.09375 
Q 19.53125 69.28125 19.53125 66.546875 
Q 19.53125 63.875 17.765625 62.078125 
Q 16.015625 60.296875 12.796875 60.296875 
Q 9.578125 60.296875 7.84375 62.078125 
Q 6.109375 63.875 6.109375 66.546875 
z
" id="Roboto-Medium-105"/>
       <path d="M 20.953125 65.671875 
L 20.953125 52.828125 
L 30.28125 52.828125 
L 30.28125 44.046875 
L 20.953125 44.046875 
L 20.953125 14.546875 
Q 20.953125 11.53125 22.140625 10.1875 
Q 23.34375 8.84375 26.421875 8.84375 
Q 28.46875 8.84375 30.5625 9.328125 
L 30.5625 0.140625 
Q 26.515625 -0.984375 22.75 -0.984375 
Q 9.078125 -0.984375 9.078125 14.109375 
L 9.078125 44.046875 
L 0.390625 44.046875 
L 0.390625 52.828125 
L 9.078125 52.828125 
L 9.078125 65.671875 
z
" id="Roboto-Medium-116"/>
       <path d="M 29.34375 -0.984375 
Q 18.0625 -0.984375 11.046875 6.125 
Q 4.046875 13.234375 4.046875 25.046875 
L 4.046875 26.515625 
Q 4.046875 34.421875 7.09375 40.640625 
Q 10.15625 46.875 15.671875 50.34375 
Q 21.1875 53.8125 27.984375 53.8125 
Q 38.765625 53.8125 44.640625 46.921875 
Q 50.53125 40.046875 50.53125 27.4375 
L 50.53125 22.65625 
L 16.015625 22.65625 
Q 16.546875 16.109375 20.375 12.296875 
Q 24.21875 8.5 30.03125 8.5 
Q 38.1875 8.5 43.3125 15.09375 
L 49.703125 8.984375 
Q 46.53125 4.25 41.234375 1.625 
Q 35.9375 -0.984375 29.34375 -0.984375 
z
M 27.9375 44.28125 
Q 23.046875 44.28125 20.046875 40.859375 
Q 17.046875 37.453125 16.21875 31.34375 
L 38.8125 31.34375 
L 38.8125 32.234375 
Q 38.421875 38.1875 35.640625 41.234375 
Q 32.859375 44.28125 27.9375 44.28125 
z
" id="Roboto-Medium-101"/>
       <path d="M 3.859375 26.8125 
Q 3.859375 39.015625 9.515625 46.40625 
Q 15.1875 53.8125 24.703125 53.8125 
Q 33.109375 53.8125 38.28125 47.953125 
L 38.28125 75 
L 50.140625 75 
L 50.140625 0 
L 39.40625 0 
L 38.8125 5.46875 
Q 33.5 -0.984375 24.609375 -0.984375 
Q 15.328125 -0.984375 9.59375 6.484375 
Q 3.859375 13.96875 3.859375 26.8125 
z
M 15.71875 25.78125 
Q 15.71875 17.71875 18.8125 13.203125 
Q 21.921875 8.6875 27.640625 8.6875 
Q 34.90625 8.6875 38.28125 15.1875 
L 38.28125 37.75 
Q 35.015625 44.09375 27.734375 44.09375 
Q 21.96875 44.09375 18.84375 39.53125 
Q 15.71875 34.96875 15.71875 25.78125 
z
" id="Roboto-Medium-100"/>
       <path id="Roboto-Medium-32"/>
       <path d="M 44.390625 18.3125 
Q 44.390625 23 41.09375 25.53125 
Q 37.796875 28.078125 29.203125 30.65625 
Q 20.609375 33.25 15.53125 36.421875 
Q 5.8125 42.53125 5.8125 52.34375 
Q 5.8125 60.9375 12.8125 66.5 
Q 19.828125 72.078125 31 72.078125 
Q 38.421875 72.078125 44.234375 69.34375 
Q 50.046875 66.609375 53.359375 61.546875 
Q 56.6875 56.5 56.6875 50.34375 
L 44.390625 50.34375 
Q 44.390625 55.90625 40.890625 59.046875 
Q 37.40625 62.203125 30.90625 62.203125 
Q 24.859375 62.203125 21.515625 59.609375 
Q 18.171875 57.03125 18.171875 52.390625 
Q 18.171875 48.484375 21.78125 45.875 
Q 25.390625 43.265625 33.6875 40.796875 
Q 42 38.328125 47.015625 35.171875 
Q 52.046875 32.03125 54.390625 27.953125 
Q 56.734375 23.875 56.734375 18.40625 
Q 56.734375 9.515625 49.921875 4.265625 
Q 43.109375 -0.984375 31.453125 -0.984375 
Q 23.734375 -0.984375 17.265625 1.875 
Q 10.796875 4.734375 7.203125 9.765625 
Q 3.609375 14.796875 3.609375 21.484375 
L 15.96875 21.484375 
Q 15.96875 15.4375 19.96875 12.109375 
Q 23.96875 8.796875 31.453125 8.796875 
Q 37.890625 8.796875 41.140625 11.40625 
Q 44.390625 14.015625 44.390625 18.3125 
z
" id="Roboto-Medium-83"/>
       <path d="M 37.640625 0 
Q 36.859375 1.515625 36.28125 4.9375 
Q 30.609375 -0.984375 22.40625 -0.984375 
Q 14.453125 -0.984375 9.421875 3.5625 
Q 4.390625 8.109375 4.390625 14.796875 
Q 4.390625 23.25 10.65625 27.765625 
Q 16.9375 32.28125 28.609375 32.28125 
L 35.890625 32.28125 
L 35.890625 35.75 
Q 35.890625 39.84375 33.59375 42.3125 
Q 31.296875 44.78125 26.609375 44.78125 
Q 22.5625 44.78125 19.96875 42.75 
Q 17.390625 40.71875 17.390625 37.59375 
L 5.515625 37.59375 
Q 5.515625 41.9375 8.390625 45.71875 
Q 11.28125 49.515625 16.234375 51.65625 
Q 21.1875 53.8125 27.296875 53.8125 
Q 36.578125 53.8125 42.09375 49.140625 
Q 47.609375 44.484375 47.75 36.03125 
L 47.75 12.203125 
Q 47.75 5.078125 49.75 0.828125 
L 49.75 0 
z
M 24.609375 8.546875 
Q 28.125 8.546875 31.21875 10.25 
Q 34.328125 11.96875 35.890625 14.84375 
L 35.890625 24.8125 
L 29.5 24.8125 
Q 22.90625 24.8125 19.578125 22.515625 
Q 16.265625 20.21875 16.265625 16.015625 
Q 16.265625 12.59375 18.53125 10.5625 
Q 20.796875 8.546875 24.609375 8.546875 
z
" id="Roboto-Medium-97"/>
       <path d="M 35.6875 14.359375 
Q 35.6875 17.53125 33.078125 19.1875 
Q 30.46875 20.84375 24.40625 22.109375 
Q 18.359375 23.390625 14.3125 25.34375 
Q 5.421875 29.640625 5.421875 37.796875 
Q 5.421875 44.625 11.171875 49.21875 
Q 16.9375 53.8125 25.828125 53.8125 
Q 35.296875 53.8125 41.125 49.125 
Q 46.96875 44.4375 46.96875 36.96875 
L 35.109375 36.96875 
Q 35.109375 40.375 32.5625 42.640625 
Q 30.03125 44.921875 25.828125 44.921875 
Q 21.921875 44.921875 19.453125 43.109375 
Q 17 41.3125 17 38.28125 
Q 17 35.546875 19.28125 34.03125 
Q 21.578125 32.515625 28.5625 30.96875 
Q 35.546875 29.4375 39.515625 27.3125 
Q 43.5 25.203125 45.421875 22.21875 
Q 47.359375 19.234375 47.359375 14.984375 
Q 47.359375 7.859375 41.453125 3.4375 
Q 35.546875 -0.984375 25.984375 -0.984375 
Q 19.484375 -0.984375 14.40625 1.359375 
Q 9.328125 3.71875 6.484375 7.8125 
Q 3.65625 11.921875 3.65625 16.65625 
L 15.1875 16.65625 
Q 15.4375 12.453125 18.359375 10.171875 
Q 21.296875 7.90625 26.125 7.90625 
Q 30.8125 7.90625 33.25 9.6875 
Q 35.6875 11.46875 35.6875 14.359375 
z
" id="Roboto-Medium-115"/>
      </defs>
      <use xlink:href="#Roboto-Medium-85"/>
      <use x="65.185547" xlink:href="#Roboto-Medium-110"/>
      <use x="120.800781" xlink:href="#Roboto-Medium-105"/>
      <use x="146.337891" xlink:href="#Roboto-Medium-116"/>
      <use x="179.589844" xlink:href="#Roboto-Medium-101"/>
      <use x="233.251953" xlink:href="#Roboto-Medium-100"/>
      <use x="289.697266" xlink:href="#Roboto-Medium-32"/>
      <use x="314.599609" xlink:href="#Roboto-Medium-83"/>
      <use x="374.951172" xlink:href="#Roboto-Medium-116"/>
      <use x="408.203125" xlink:href="#Roboto-Medium-97"/>
      <use x="462.304688" xlink:href="#Roboto-Medium-116"/>
      <use x="495.556641" xlink:href="#Roboto-Medium-101"/>
      <use x="549.21875" xlink:href="#Roboto-Medium-115"/>
     </g>
    </g>
    <g id="line2d_95">
     <path d="M 571.000312 66.86375 
L 599.000312 66.86375 
" style="fill:none;stroke:#fc4f30;stroke-width:4;"/>
    </g>
    <g id="line2d_96"/>
    <g id="text_18">
     <!-- Florida -->
     <g transform="translate(610.200312 71.76375)scale(0.14 -0.14)">
      <defs>
       <path d="M 48.1875 30.125 
L 19.578125 30.125 
L 19.578125 0 
L 7.234375 0 
L 7.234375 71.09375 
L 52.390625 71.09375 
L 52.390625 61.140625 
L 19.578125 61.140625 
L 19.578125 39.984375 
L 48.1875 39.984375 
z
" id="Roboto-Medium-70"/>
       <path d="M 18.703125 0 
L 6.84375 0 
L 6.84375 75 
L 18.703125 75 
z
" id="Roboto-Medium-108"/>
       <path d="M 3.859375 26.90625 
Q 3.859375 34.671875 6.9375 40.890625 
Q 10.015625 47.125 15.578125 50.46875 
Q 21.140625 53.8125 28.375 53.8125 
Q 39.0625 53.8125 45.71875 46.921875 
Q 52.390625 40.046875 52.9375 28.65625 
L 52.984375 25.875 
Q 52.984375 18.0625 49.96875 11.90625 
Q 46.96875 5.765625 41.375 2.390625 
Q 35.796875 -0.984375 28.46875 -0.984375 
Q 17.28125 -0.984375 10.5625 6.46875 
Q 3.859375 13.921875 3.859375 26.3125 
z
M 15.71875 25.875 
Q 15.71875 17.71875 19.09375 13.109375 
Q 22.46875 8.5 28.46875 8.5 
Q 34.46875 8.5 37.8125 13.1875 
Q 41.15625 17.875 41.15625 26.90625 
Q 41.15625 34.90625 37.71875 39.59375 
Q 34.28125 44.28125 28.375 44.28125 
Q 22.5625 44.28125 19.140625 39.671875 
Q 15.71875 35.0625 15.71875 25.875 
z
" id="Roboto-Medium-111"/>
       <path d="M 33.734375 42 
Q 31.390625 42.390625 28.90625 42.390625 
Q 20.75 42.390625 17.921875 36.140625 
L 17.921875 0 
L 6.0625 0 
L 6.0625 52.828125 
L 17.390625 52.828125 
L 17.671875 46.921875 
Q 21.96875 53.8125 29.59375 53.8125 
Q 32.125 53.8125 33.796875 53.125 
z
" id="Roboto-Medium-114"/>
      </defs>
      <use xlink:href="#Roboto-Medium-70"/>
      <use x="54.931641" xlink:href="#Roboto-Medium-108"/>
      <use x="80.46875" xlink:href="#Roboto-Medium-111"/>
      <use x="137.402344" xlink:href="#Roboto-Medium-114"/>
      <use x="172.558594" xlink:href="#Roboto-Medium-105"/>
      <use x="198.095703" xlink:href="#Roboto-Medium-100"/>
      <use x="254.541016" xlink:href="#Roboto-Medium-97"/>
     </g>
    </g>
   </g>
  </g>
 </g>
 <defs>
  <clipPath id="pba652567c3">
   <rect height="466.56" width="626.4" x="80.51625" y="28.32"/>
  </clipPath>
 </defs>
</svg>
