<?xml version="1.0" encoding="utf-8" standalone="no"?>
<!DOCTYPE svg PUBLIC "-//W3C//DTD SVG 1.1//EN"
  "http://www.w3.org/Graphics/SVG/1.1/DTD/svg11.dtd">
<!-- Created with matplotlib (https://matplotlib.org/) -->
<svg height="518.92375pt" version="1.1" viewBox="0 0 717.279788 518.92375" width="717.279788pt" xmlns="http://www.w3.org/2000/svg" xmlns:xlink="http://www.w3.org/1999/xlink">
 <metadata>
  <rdf:RDF xmlns:cc="http://creativecommons.org/ns#" xmlns:dc="http://purl.org/dc/elements/1.1/" xmlns:rdf="http://www.w3.org/1999/02/22-rdf-syntax-ns#">
   <cc:Work>
    <dc:type rdf:resource="http://purl.org/dc/dcmitype/StillImage"/>
    <dc:date>2021-06-26T23:13:26.208772</dc:date>
    <dc:format>image/svg+xml</dc:format>
    <dc:creator>
     <cc:Agent>
      <dc:title>Matplotlib v3.3.4, https://matplotlib.org/</dc:title>
     </cc:Agent>
    </dc:creator>
   </cc:Work>
  </rdf:RDF>
 </metadata>
 <defs>
  <style type="text/css">*{stroke-linecap:butt;stroke-linejoin:round;}</style>
 </defs>
 <g id="figure_1">
  <g id="patch_1">
   <path d="M 0 518.92375 
L 717.279788 518.92375 
L 717.279788 0 
L 0 0 
z
" style="fill:#f0f0f0;"/>
  </g>
  <g id="axes_1">
   <g id="patch_2">
    <path d="M 80.51625 494.88 
L 706.91625 494.88 
L 706.91625 28.32 
L 80.51625 28.32 
z
" style="fill:#f0f0f0;"/>
   </g>
   <g id="matplotlib.axis_1">
    <g id="xtick_1">
     <g id="line2d_1">
      <path clip-path="url(#pf70e15da78)" d="M 86.035915 494.88 
L 86.035915 28.32 
" style="fill:none;stroke:#cbcbcb;"/>
     </g>
     <g id="line2d_2"/>
     <g id="text_1">
      <!-- 2020-01 -->
      <g transform="translate(59.864665 508.88)scale(0.14 -0.14)">
       <defs>
        <path d="M 53.125 0 
L 5.328125 0 
L 5.328125 8.15625 
L 29 33.984375 
Q 34.125 39.703125 36.296875 43.53125 
Q 38.484375 47.359375 38.484375 51.21875 
Q 38.484375 56.296875 35.625 59.421875 
Q 32.765625 62.546875 27.9375 62.546875 
Q 22.171875 62.546875 19 59.03125 
Q 15.828125 55.515625 15.828125 49.421875 
L 3.953125 49.421875 
Q 3.953125 55.90625 6.90625 61.109375 
Q 9.859375 66.3125 15.34375 69.1875 
Q 20.84375 72.078125 28.03125 72.078125 
Q 38.375 72.078125 44.359375 66.875 
Q 50.34375 61.671875 50.34375 52.484375 
Q 50.34375 47.171875 47.34375 41.328125 
Q 44.34375 35.5 37.5 28.078125 
L 20.125 9.46875 
L 53.125 9.46875 
z
" id="Roboto-Medium-50"/>
        <path d="M 51.65625 29.9375 
Q 51.65625 14.59375 45.921875 6.796875 
Q 40.1875 -0.984375 28.46875 -0.984375 
Q 16.9375 -0.984375 11.109375 6.609375 
Q 5.28125 14.203125 5.125 29.109375 
L 5.125 41.40625 
Q 5.125 56.734375 10.859375 64.40625 
Q 16.609375 72.078125 28.375 72.078125 
Q 40.046875 72.078125 45.78125 64.59375 
Q 51.515625 57.125 51.65625 42.234375 
z
M 39.796875 43.21875 
Q 39.796875 53.21875 37.0625 57.875 
Q 34.328125 62.546875 28.375 62.546875 
Q 22.5625 62.546875 19.828125 58.125 
Q 17.09375 53.71875 16.9375 44.34375 
L 16.9375 28.21875 
Q 16.9375 18.265625 19.71875 13.375 
Q 22.515625 8.5 28.46875 8.5 
Q 34.1875 8.5 36.921875 13.015625 
Q 39.65625 17.53125 39.796875 27.15625 
z
" id="Roboto-Medium-48"/>
        <path d="M 29.109375 25.4375 
L 3.46875 25.4375 
L 3.46875 35.015625 
L 29.109375 35.015625 
z
" id="Roboto-Medium-45"/>
        <path d="M 37.453125 0 
L 25.640625 0 
L 25.640625 57.078125 
L 8.203125 51.125 
L 8.203125 61.140625 
L 35.9375 71.34375 
L 37.453125 71.34375 
z
" id="Roboto-Medium-49"/>
       </defs>
       <use xlink:href="#Roboto-Medium-50"/>
       <use x="56.835938" xlink:href="#Roboto-Medium-48"/>
       <use x="113.671875" xlink:href="#Roboto-Medium-50"/>
       <use x="170.507812" xlink:href="#Roboto-Medium-48"/>
       <use x="227.34375" xlink:href="#Roboto-Medium-45"/>
       <use x="260.15625" xlink:href="#Roboto-Medium-48"/>
       <use x="316.992188" xlink:href="#Roboto-Medium-49"/>
      </g>
     </g>
    </g>
    <g id="xtick_2">
     <g id="line2d_3">
      <path clip-path="url(#pf70e15da78)" d="M 151.616093 494.88 
L 151.616093 28.32 
" style="fill:none;stroke:#cbcbcb;"/>
     </g>
     <g id="line2d_4"/>
     <g id="text_2">
      <!-- 2020-03 -->
      <g transform="translate(125.444843 508.88)scale(0.14 -0.14)">
       <defs>
        <path d="M 19.046875 40.96875 
L 26.265625 40.96875 
Q 31.734375 41.015625 34.9375 43.796875 
Q 38.140625 46.578125 38.140625 51.859375 
Q 38.140625 56.9375 35.46875 59.734375 
Q 32.8125 62.546875 27.34375 62.546875 
Q 22.5625 62.546875 19.484375 59.78125 
Q 16.40625 57.03125 16.40625 52.59375 
L 4.546875 52.59375 
Q 4.546875 58.0625 7.453125 62.546875 
Q 10.359375 67.046875 15.546875 69.5625 
Q 20.75 72.078125 27.203125 72.078125 
Q 37.84375 72.078125 43.921875 66.71875 
Q 50 61.375 50 51.859375 
Q 50 47.078125 46.9375 42.84375 
Q 43.890625 38.625 39.0625 36.46875 
Q 44.921875 34.46875 47.96875 30.171875 
Q 51.03125 25.875 51.03125 19.921875 
Q 51.03125 10.359375 44.453125 4.6875 
Q 37.890625 -0.984375 27.203125 -0.984375 
Q 16.9375 -0.984375 10.390625 4.484375 
Q 3.859375 9.96875 3.859375 19.046875 
L 15.71875 19.046875 
Q 15.71875 14.359375 18.859375 11.421875 
Q 22.015625 8.5 27.34375 8.5 
Q 32.859375 8.5 36.03125 11.421875 
Q 39.203125 14.359375 39.203125 19.921875 
Q 39.203125 25.53125 35.875 28.5625 
Q 32.5625 31.59375 26.03125 31.59375 
L 19.046875 31.59375 
z
" id="Roboto-Medium-51"/>
       </defs>
       <use xlink:href="#Roboto-Medium-50"/>
       <use x="56.835938" xlink:href="#Roboto-Medium-48"/>
       <use x="113.671875" xlink:href="#Roboto-Medium-50"/>
       <use x="170.507812" xlink:href="#Roboto-Medium-48"/>
       <use x="227.34375" xlink:href="#Roboto-Medium-45"/>
       <use x="260.15625" xlink:href="#Roboto-Medium-48"/>
       <use x="316.992188" xlink:href="#Roboto-Medium-51"/>
      </g>
     </g>
    </g>
    <g id="xtick_3">
     <g id="line2d_5">
      <path clip-path="url(#pf70e15da78)" d="M 218.289274 494.88 
L 218.289274 28.32 
" style="fill:none;stroke:#cbcbcb;"/>
     </g>
     <g id="line2d_6"/>
     <g id="text_3">
      <!-- 2020-05 -->
      <g transform="translate(192.118024 508.88)scale(0.14 -0.14)">
       <defs>
        <path d="M 8.5 35.25 
L 12.359375 71.09375 
L 50.53125 71.09375 
L 50.53125 60.84375 
L 22.21875 60.84375 
L 20.265625 43.84375 
Q 25.203125 46.6875 31.390625 46.6875 
Q 41.546875 46.6875 47.1875 40.1875 
Q 52.828125 33.6875 52.828125 22.703125 
Q 52.828125 11.859375 46.578125 5.4375 
Q 40.328125 -0.984375 29.4375 -0.984375 
Q 19.671875 -0.984375 13.25 4.5625 
Q 6.84375 10.109375 6.296875 19.1875 
L 17.78125 19.1875 
Q 18.453125 14.015625 21.484375 11.25 
Q 24.515625 8.5 29.390625 8.5 
Q 34.859375 8.5 37.90625 12.40625 
Q 40.96875 16.3125 40.96875 23.046875 
Q 40.96875 29.546875 37.59375 33.328125 
Q 34.234375 37.109375 28.328125 37.109375 
Q 25.09375 37.109375 22.84375 36.25 
Q 20.609375 35.40625 17.96875 32.90625 
z
" id="Roboto-Medium-53"/>
       </defs>
       <use xlink:href="#Roboto-Medium-50"/>
       <use x="56.835938" xlink:href="#Roboto-Medium-48"/>
       <use x="113.671875" xlink:href="#Roboto-Medium-50"/>
       <use x="170.507812" xlink:href="#Roboto-Medium-48"/>
       <use x="227.34375" xlink:href="#Roboto-Medium-45"/>
       <use x="260.15625" xlink:href="#Roboto-Medium-48"/>
       <use x="316.992188" xlink:href="#Roboto-Medium-53"/>
      </g>
     </g>
    </g>
    <g id="xtick_4">
     <g id="line2d_7">
      <path clip-path="url(#pf70e15da78)" d="M 284.962455 494.88 
L 284.962455 28.32 
" style="fill:none;stroke:#cbcbcb;"/>
     </g>
     <g id="line2d_8"/>
     <g id="text_4">
      <!-- 2020-07 -->
      <g transform="translate(258.791205 508.88)scale(0.14 -0.14)">
       <defs>
        <path d="M 52.640625 64.5 
L 24.21875 0 
L 11.765625 0 
L 40.140625 61.578125 
L 3.375 61.578125 
L 3.375 71.09375 
L 52.640625 71.09375 
z
" id="Roboto-Medium-55"/>
       </defs>
       <use xlink:href="#Roboto-Medium-50"/>
       <use x="56.835938" xlink:href="#Roboto-Medium-48"/>
       <use x="113.671875" xlink:href="#Roboto-Medium-50"/>
       <use x="170.507812" xlink:href="#Roboto-Medium-48"/>
       <use x="227.34375" xlink:href="#Roboto-Medium-45"/>
       <use x="260.15625" xlink:href="#Roboto-Medium-48"/>
       <use x="316.992188" xlink:href="#Roboto-Medium-55"/>
      </g>
     </g>
    </g>
    <g id="xtick_5">
     <g id="line2d_9">
      <path clip-path="url(#pf70e15da78)" d="M 352.728639 494.88 
L 352.728639 28.32 
" style="fill:none;stroke:#cbcbcb;"/>
     </g>
     <g id="line2d_10"/>
     <g id="text_5">
      <!-- 2020-09 -->
      <g transform="translate(326.557389 508.88)scale(0.14 -0.14)">
       <defs>
        <path d="M 38.96875 29.734375 
Q 33.015625 23.4375 25.046875 23.4375 
Q 15.671875 23.4375 10.109375 30 
Q 4.546875 36.578125 4.546875 47.265625 
Q 4.546875 54.296875 7.375 60 
Q 10.203125 65.71875 15.421875 68.890625 
Q 20.65625 72.078125 27.546875 72.078125 
Q 38.28125 72.078125 44.578125 64.0625 
Q 50.875 56.0625 50.875 42.625 
L 50.875 39.3125 
Q 50.875 20.0625 42.1875 9.953125 
Q 33.5 -0.140625 16.265625 -0.296875 
L 14.84375 -0.296875 
L 14.84375 9.515625 
L 16.546875 9.515625 
Q 27.046875 9.671875 32.65625 14.578125 
Q 38.28125 19.484375 38.96875 29.734375 
z
M 27.546875 32.71875 
Q 31.109375 32.71875 34.234375 34.765625 
Q 37.359375 36.8125 39.0625 40.4375 
L 39.0625 45.0625 
Q 39.0625 52.9375 35.84375 57.71875 
Q 32.625 62.5 27.484375 62.5 
Q 22.359375 62.5 19.3125 58.265625 
Q 16.265625 54.046875 16.265625 47.609375 
Q 16.265625 40.921875 19.328125 36.8125 
Q 22.40625 32.71875 27.546875 32.71875 
z
" id="Roboto-Medium-57"/>
       </defs>
       <use xlink:href="#Roboto-Medium-50"/>
       <use x="56.835938" xlink:href="#Roboto-Medium-48"/>
       <use x="113.671875" xlink:href="#Roboto-Medium-50"/>
       <use x="170.507812" xlink:href="#Roboto-Medium-48"/>
       <use x="227.34375" xlink:href="#Roboto-Medium-45"/>
       <use x="260.15625" xlink:href="#Roboto-Medium-48"/>
       <use x="316.992188" xlink:href="#Roboto-Medium-57"/>
      </g>
     </g>
    </g>
    <g id="xtick_6">
     <g id="line2d_11">
      <path clip-path="url(#pf70e15da78)" d="M 419.40182 494.88 
L 419.40182 28.32 
" style="fill:none;stroke:#cbcbcb;"/>
     </g>
     <g id="line2d_12"/>
     <g id="text_6">
      <!-- 2020-11 -->
      <g transform="translate(393.23057 508.88)scale(0.14 -0.14)">
       <use xlink:href="#Roboto-Medium-50"/>
       <use x="56.835938" xlink:href="#Roboto-Medium-48"/>
       <use x="113.671875" xlink:href="#Roboto-Medium-50"/>
       <use x="170.507812" xlink:href="#Roboto-Medium-48"/>
       <use x="227.34375" xlink:href="#Roboto-Medium-45"/>
       <use x="260.15625" xlink:href="#Roboto-Medium-49"/>
       <use x="316.992188" xlink:href="#Roboto-Medium-49"/>
      </g>
     </g>
    </g>
    <g id="xtick_7">
     <g id="line2d_13">
      <path clip-path="url(#pf70e15da78)" d="M 486.075001 494.88 
L 486.075001 28.32 
" style="fill:none;stroke:#cbcbcb;"/>
     </g>
     <g id="line2d_14"/>
     <g id="text_7">
      <!-- 2021-01 -->
      <g transform="translate(459.903751 508.88)scale(0.14 -0.14)">
       <use xlink:href="#Roboto-Medium-50"/>
       <use x="56.835938" xlink:href="#Roboto-Medium-48"/>
       <use x="113.671875" xlink:href="#Roboto-Medium-50"/>
       <use x="170.507812" xlink:href="#Roboto-Medium-49"/>
       <use x="227.34375" xlink:href="#Roboto-Medium-45"/>
       <use x="260.15625" xlink:href="#Roboto-Medium-48"/>
       <use x="316.992188" xlink:href="#Roboto-Medium-49"/>
      </g>
     </g>
    </g>
    <g id="xtick_8">
     <g id="line2d_15">
      <path clip-path="url(#pf70e15da78)" d="M 550.562176 494.88 
L 550.562176 28.32 
" style="fill:none;stroke:#cbcbcb;"/>
     </g>
     <g id="line2d_16"/>
     <g id="text_8">
      <!-- 2021-03 -->
      <g transform="translate(524.390926 508.88)scale(0.14 -0.14)">
       <use xlink:href="#Roboto-Medium-50"/>
       <use x="56.835938" xlink:href="#Roboto-Medium-48"/>
       <use x="113.671875" xlink:href="#Roboto-Medium-50"/>
       <use x="170.507812" xlink:href="#Roboto-Medium-49"/>
       <use x="227.34375" xlink:href="#Roboto-Medium-45"/>
       <use x="260.15625" xlink:href="#Roboto-Medium-48"/>
       <use x="316.992188" xlink:href="#Roboto-Medium-51"/>
      </g>
     </g>
    </g>
    <g id="xtick_9">
     <g id="line2d_17">
      <path clip-path="url(#pf70e15da78)" d="M 617.235357 494.88 
L 617.235357 28.32 
" style="fill:none;stroke:#cbcbcb;"/>
     </g>
     <g id="line2d_18"/>
     <g id="text_9">
      <!-- 2021-05 -->
      <g transform="translate(591.064107 508.88)scale(0.14 -0.14)">
       <use xlink:href="#Roboto-Medium-50"/>
       <use x="56.835938" xlink:href="#Roboto-Medium-48"/>
       <use x="113.671875" xlink:href="#Roboto-Medium-50"/>
       <use x="170.507812" xlink:href="#Roboto-Medium-49"/>
       <use x="227.34375" xlink:href="#Roboto-Medium-45"/>
       <use x="260.15625" xlink:href="#Roboto-Medium-48"/>
       <use x="316.992188" xlink:href="#Roboto-Medium-53"/>
      </g>
     </g>
    </g>
    <g id="xtick_10">
     <g id="line2d_19">
      <path clip-path="url(#pf70e15da78)" d="M 683.908538 494.88 
L 683.908538 28.32 
" style="fill:none;stroke:#cbcbcb;"/>
     </g>
     <g id="line2d_20"/>
     <g id="text_10">
      <!-- 2021-07 -->
      <g transform="translate(657.737288 508.88)scale(0.14 -0.14)">
       <use xlink:href="#Roboto-Medium-50"/>
       <use x="56.835938" xlink:href="#Roboto-Medium-48"/>
       <use x="113.671875" xlink:href="#Roboto-Medium-50"/>
       <use x="170.507812" xlink:href="#Roboto-Medium-49"/>
       <use x="227.34375" xlink:href="#Roboto-Medium-45"/>
       <use x="260.15625" xlink:href="#Roboto-Medium-48"/>
       <use x="316.992188" xlink:href="#Roboto-Medium-55"/>
      </g>
     </g>
    </g>
   </g>
   <g id="matplotlib.axis_2">
    <g id="ytick_1">
     <g id="line2d_21">
      <path clip-path="url(#pf70e15da78)" d="M 80.51625 477.310845 
L 706.91625 477.310845 
" style="fill:none;stroke:#cbcbcb;"/>
     </g>
     <g id="line2d_22"/>
     <g id="text_11">
      <!-- 1 -->
      <g transform="translate(69.058125 482.560845)scale(0.14 -0.14)">
       <use xlink:href="#Roboto-Medium-49"/>
      </g>
     </g>
    </g>
    <g id="ytick_2">
     <g id="line2d_23">
      <path clip-path="url(#pf70e15da78)" d="M 80.51625 413.169296 
L 706.91625 413.169296 
" style="fill:none;stroke:#cbcbcb;"/>
     </g>
     <g id="line2d_24"/>
     <g id="text_12">
      <!-- 10 -->
      <g transform="translate(61.1 418.419296)scale(0.14 -0.14)">
       <use xlink:href="#Roboto-Medium-49"/>
       <use x="56.835938" xlink:href="#Roboto-Medium-48"/>
      </g>
     </g>
    </g>
    <g id="ytick_3">
     <g id="line2d_25">
      <path clip-path="url(#pf70e15da78)" d="M 80.51625 349.027747 
L 706.91625 349.027747 
" style="fill:none;stroke:#cbcbcb;"/>
     </g>
     <g id="line2d_26"/>
     <g id="text_13">
      <!-- 100 -->
      <g transform="translate(53.141875 354.277747)scale(0.14 -0.14)">
       <use xlink:href="#Roboto-Medium-49"/>
       <use x="56.835938" xlink:href="#Roboto-Medium-48"/>
       <use x="113.671875" xlink:href="#Roboto-Medium-48"/>
      </g>
     </g>
    </g>
    <g id="ytick_4">
     <g id="line2d_27">
      <path clip-path="url(#pf70e15da78)" d="M 80.51625 284.886197 
L 706.91625 284.886197 
" style="fill:none;stroke:#cbcbcb;"/>
     </g>
     <g id="line2d_28"/>
     <g id="text_14">
      <!-- 1,000 -->
      <g transform="translate(42.108125 290.136197)scale(0.14 -0.14)">
       <defs>
        <path d="M 7.765625 -16.015625 
L 1.375 -12.203125 
Q 4.203125 -7.765625 5.25 -4.46875 
Q 6.296875 -1.171875 6.34375 2.25 
L 6.34375 11.46875 
L 17.046875 11.46875 
L 17 2.9375 
Q 16.9375 -2.25 14.375 -7.4375 
Q 11.8125 -12.640625 7.765625 -16.015625 
z
" id="Roboto-Medium-44"/>
       </defs>
       <use xlink:href="#Roboto-Medium-49"/>
       <use x="56.835938" xlink:href="#Roboto-Medium-44"/>
       <use x="78.808594" xlink:href="#Roboto-Medium-48"/>
       <use x="135.644531" xlink:href="#Roboto-Medium-48"/>
       <use x="192.480469" xlink:href="#Roboto-Medium-48"/>
      </g>
     </g>
    </g>
    <g id="ytick_5">
     <g id="line2d_29">
      <path clip-path="url(#pf70e15da78)" d="M 80.51625 220.744648 
L 706.91625 220.744648 
" style="fill:none;stroke:#cbcbcb;"/>
     </g>
     <g id="line2d_30"/>
     <g id="text_15">
      <!-- 10,000 -->
      <g transform="translate(34.15 225.994648)scale(0.14 -0.14)">
       <use xlink:href="#Roboto-Medium-49"/>
       <use x="56.835938" xlink:href="#Roboto-Medium-48"/>
       <use x="113.671875" xlink:href="#Roboto-Medium-44"/>
       <use x="135.644531" xlink:href="#Roboto-Medium-48"/>
       <use x="192.480469" xlink:href="#Roboto-Medium-48"/>
       <use x="249.316406" xlink:href="#Roboto-Medium-48"/>
      </g>
     </g>
    </g>
    <g id="ytick_6">
     <g id="line2d_31">
      <path clip-path="url(#pf70e15da78)" d="M 80.51625 156.603099 
L 706.91625 156.603099 
" style="fill:none;stroke:#cbcbcb;"/>
     </g>
     <g id="line2d_32"/>
     <g id="text_16">
      <!-- 100,000 -->
      <g transform="translate(26.191875 161.853099)scale(0.14 -0.14)">
       <use xlink:href="#Roboto-Medium-49"/>
       <use x="56.835938" xlink:href="#Roboto-Medium-48"/>
       <use x="113.671875" xlink:href="#Roboto-Medium-48"/>
       <use x="170.507812" xlink:href="#Roboto-Medium-44"/>
       <use x="192.480469" xlink:href="#Roboto-Medium-48"/>
       <use x="249.316406" xlink:href="#Roboto-Medium-48"/>
       <use x="306.152344" xlink:href="#Roboto-Medium-48"/>
      </g>
     </g>
    </g>
    <g id="ytick_7">
     <g id="line2d_33">
      <path clip-path="url(#pf70e15da78)" d="M 80.51625 92.461549 
L 706.91625 92.461549 
" style="fill:none;stroke:#cbcbcb;"/>
     </g>
     <g id="line2d_34"/>
     <g id="text_17">
      <!-- 1,000,000 -->
      <g transform="translate(15.158125 97.711549)scale(0.14 -0.14)">
       <use xlink:href="#Roboto-Medium-49"/>
       <use x="56.835938" xlink:href="#Roboto-Medium-44"/>
       <use x="78.808594" xlink:href="#Roboto-Medium-48"/>
       <use x="135.644531" xlink:href="#Roboto-Medium-48"/>
       <use x="192.480469" xlink:href="#Roboto-Medium-48"/>
       <use x="249.316406" xlink:href="#Roboto-Medium-44"/>
       <use x="271.289062" xlink:href="#Roboto-Medium-48"/>
       <use x="328.125" xlink:href="#Roboto-Medium-48"/>
       <use x="384.960938" xlink:href="#Roboto-Medium-48"/>
      </g>
     </g>
    </g>
    <g id="ytick_8">
     <g id="line2d_35">
      <path clip-path="url(#pf70e15da78)" d="M 80.51625 28.32 
L 706.91625 28.32 
" style="fill:none;stroke:#cbcbcb;"/>
     </g>
     <g id="line2d_36"/>
     <g id="text_18">
      <!-- 10,000,000 -->
      <g transform="translate(7.2 33.57)scale(0.14 -0.14)">
       <use xlink:href="#Roboto-Medium-49"/>
       <use x="56.835938" xlink:href="#Roboto-Medium-48"/>
       <use x="113.671875" xlink:href="#Roboto-Medium-44"/>
       <use x="135.644531" xlink:href="#Roboto-Medium-48"/>
       <use x="192.480469" xlink:href="#Roboto-Medium-48"/>
       <use x="249.316406" xlink:href="#Roboto-Medium-48"/>
       <use x="306.152344" xlink:href="#Roboto-Medium-44"/>
       <use x="328.125" xlink:href="#Roboto-Medium-48"/>
       <use x="384.960938" xlink:href="#Roboto-Medium-48"/>
       <use x="441.796875" xlink:href="#Roboto-Medium-48"/>
      </g>
     </g>
    </g>
    <g id="ytick_9">
     <g id="line2d_37"/>
    </g>
    <g id="ytick_10">
     <g id="line2d_38"/>
    </g>
    <g id="ytick_11">
     <g id="line2d_39"/>
    </g>
    <g id="ytick_12">
     <g id="line2d_40"/>
    </g>
    <g id="ytick_13">
     <g id="line2d_41"/>
    </g>
    <g id="ytick_14">
     <g id="line2d_42"/>
    </g>
    <g id="ytick_15">
     <g id="line2d_43"/>
    </g>
    <g id="ytick_16">
     <g id="line2d_44"/>
    </g>
    <g id="ytick_17">
     <g id="line2d_45"/>
    </g>
    <g id="ytick_18">
     <g id="line2d_46"/>
    </g>
    <g id="ytick_19">
     <g id="line2d_47"/>
    </g>
    <g id="ytick_20">
     <g id="line2d_48"/>
    </g>
    <g id="ytick_21">
     <g id="line2d_49"/>
    </g>
    <g id="ytick_22">
     <g id="line2d_50"/>
    </g>
    <g id="ytick_23">
     <g id="line2d_51"/>
    </g>
    <g id="ytick_24">
     <g id="line2d_52"/>
    </g>
    <g id="ytick_25">
     <g id="line2d_53"/>
    </g>
    <g id="ytick_26">
     <g id="line2d_54"/>
    </g>
    <g id="ytick_27">
     <g id="line2d_55"/>
    </g>
    <g id="ytick_28">
     <g id="line2d_56"/>
    </g>
    <g id="ytick_29">
     <g id="line2d_57"/>
    </g>
    <g id="ytick_30">
     <g id="line2d_58"/>
    </g>
    <g id="ytick_31">
     <g id="line2d_59"/>
    </g>
    <g id="ytick_32">
     <g id="line2d_60"/>
    </g>
    <g id="ytick_33">
     <g id="line2d_61"/>
    </g>
    <g id="ytick_34">
     <g id="line2d_62"/>
    </g>
    <g id="ytick_35">
     <g id="line2d_63"/>
    </g>
    <g id="ytick_36">
     <g id="line2d_64"/>
    </g>
    <g id="ytick_37">
     <g id="line2d_65"/>
    </g>
    <g id="ytick_38">
     <g id="line2d_66"/>
    </g>
    <g id="ytick_39">
     <g id="line2d_67"/>
    </g>
    <g id="ytick_40">
     <g id="line2d_68"/>
    </g>
    <g id="ytick_41">
     <g id="line2d_69"/>
    </g>
    <g id="ytick_42">
     <g id="line2d_70"/>
    </g>
    <g id="ytick_43">
     <g id="line2d_71"/>
    </g>
    <g id="ytick_44">
     <g id="line2d_72"/>
    </g>
    <g id="ytick_45">
     <g id="line2d_73"/>
    </g>
    <g id="ytick_46">
     <g id="line2d_74"/>
    </g>
    <g id="ytick_47">
     <g id="line2d_75"/>
    </g>
    <g id="ytick_48">
     <g id="line2d_76"/>
    </g>
    <g id="ytick_49">
     <g id="line2d_77"/>
    </g>
    <g id="ytick_50">
     <g id="line2d_78"/>
    </g>
    <g id="ytick_51">
     <g id="line2d_79"/>
    </g>
    <g id="ytick_52">
     <g id="line2d_80"/>
    </g>
    <g id="ytick_53">
     <g id="line2d_81"/>
    </g>
    <g id="ytick_54">
     <g id="line2d_82"/>
    </g>
    <g id="ytick_55">
     <g id="line2d_83"/>
    </g>
    <g id="ytick_56">
     <g id="line2d_84"/>
    </g>
    <g id="ytick_57">
     <g id="line2d_85"/>
    </g>
    <g id="ytick_58">
     <g id="line2d_86"/>
    </g>
    <g id="ytick_59">
     <g id="line2d_87"/>
    </g>
    <g id="ytick_60">
     <g id="line2d_88"/>
    </g>
    <g id="ytick_61">
     <g id="line2d_89"/>
    </g>
    <g id="ytick_62">
     <g id="line2d_90"/>
    </g>
    <g id="ytick_63">
     <g id="line2d_91"/>
    </g>
    <g id="ytick_64">
     <g id="line2d_92"/>
    </g>
    <g id="ytick_65">
     <g id="line2d_93"/>
    </g>
    <g id="ytick_66">
     <g id="line2d_94"/>
    </g>
    <g id="ytick_67">
     <g id="line2d_95"/>
    </g>
    <g id="ytick_68">
     <g id="line2d_96"/>
    </g>
   </g>
   <g id="line2d_97">
    <path clip-path="url(#pf70e15da78)" d="M 111.174257 519.92375 
L 111.174983 477.310845 
L 112.267986 477.310845 
L 113.360989 458.002315 
L 113.362044 519.92375 
M 117.732275 519.92375 
L 117.733001 477.310845 
L 119.919007 477.310845 
L 121.01201 446.707549 
L 121.013257 519.92375 
M 124.290293 519.92375 
L 124.291019 477.310845 
L 124.291745 519.92375 
M 129.755307 519.92375 
L 129.756034 477.310845 
L 129.75676 519.92375 
M 131.941313 519.92375 
L 131.94204 477.310845 
L 133.035043 477.310845 
L 133.035769 519.92375 
M 137.405237 519.92375 
L 137.407054 413.169296 
L 137.408872 519.92375 
M 140.685008 519.92375 
L 140.686063 458.002315 
L 141.779066 446.707549 
L 141.780313 519.92375 
M 145.056134 519.92375 
L 145.058075 405.860793 
L 146.151078 458.002315 
L 147.244081 401.87453 
L 147.24609 519.92375 
M 149.428598 519.92375 
L 149.430087 432.477826 
L 150.52309 432.477826 
L 151.616093 396.795722 
L 152.709096 400.076724 
L 153.802099 392.501651 
L 154.895102 377.487192 
L 155.988105 360.183578 
L 157.081108 354.218203 
L 158.174111 344.6542 
L 159.267114 344.182047 
L 160.360117 329.580282 
L 161.45312 321.359406 
L 162.546123 324.066031 
L 163.639126 310.06464 
L 164.732129 301.237495 
L 165.825132 295.876217 
L 166.918134 294.742373 
L 168.011137 287.605331 
L 169.10414 275.533223 
L 171.290146 245.971279 
L 172.383149 236.801905 
L 173.476152 232.67619 
L 174.569155 225.124742 
L 175.662158 219.566523 
L 176.755161 219.563853 
L 177.848164 210.138006 
L 178.941167 205.966574 
L 180.03417 205.427738 
L 181.127173 199.989592 
L 182.220176 203.577741 
L 184.406182 195.776111 
L 187.685191 188.06809 
L 188.778194 185.768598 
L 189.871197 194.542099 
L 190.9642 189.303532 
L 192.057203 189.830177 
L 193.150206 188.50068 
L 194.243209 186.087881 
L 195.336212 187.089921 
L 196.429215 188.588361 
L 197.522218 192.929162 
L 198.615221 194.376213 
L 199.708223 193.396946 
L 200.801226 190.110726 
L 201.894229 188.682487 
L 202.987232 188.774279 
L 205.173238 194.850463 
L 206.266241 192.671732 
L 207.359244 194.653241 
L 208.452247 191.248534 
L 209.54525 186.838898 
L 210.638253 184.494989 
L 211.731256 186.322481 
L 212.824259 193.351063 
L 213.917262 197.305285 
L 215.010265 195.611773 
L 216.103268 193.539247 
L 217.196271 189.811818 
L 218.289274 186.679357 
L 219.382277 190.634098 
L 220.47528 193.978021 
L 221.568283 198.829284 
L 222.661286 196.697132 
L 223.754289 195.776111 
L 224.847292 191.591705 
L 225.940295 192.415653 
L 227.033298 195.36763 
L 228.126301 200.998057 
L 229.219304 204.963867 
L 230.312307 198.403834 
L 231.40531 199.885323 
L 232.498312 193.115541 
L 233.591315 193.874844 
L 234.684318 196.75594 
L 235.777321 202.844442 
L 236.870324 199.001044 
L 237.963327 200.107529 
L 239.05633 197.458213 
L 240.149333 194.415156 
L 241.242336 196.591589 
L 242.335339 198.443836 
L 243.428342 201.392974 
L 244.521345 202.718732 
L 246.707351 203.242839 
L 247.800354 198.140263 
L 248.893357 195.72841 
L 249.98636 197.066142 
L 251.079363 200.56678 
L 252.172366 198.911851 
L 253.265369 200.355629 
L 254.358372 201.45423 
L 255.451375 199.271639 
L 256.544378 191.36666 
L 257.637381 198.135314 
L 258.730384 203.433718 
L 259.823387 204.052554 
L 260.91639 203.152331 
L 262.009393 197.722693 
L 263.102396 197.299281 
L 264.195398 194.676179 
L 265.288401 194.850463 
L 266.381404 202.675013 
L 267.474407 201.273633 
L 268.56741 195.348594 
L 269.660413 194.499721 
L 271.846419 189.375708 
L 272.939422 188.321791 
L 274.032425 193.724486 
L 276.218431 185.799568 
L 277.311434 184.307592 
L 279.49744 178.52164 
L 281.683446 182.472345 
L 282.776449 182.480807 
L 283.869452 176.823937 
L 284.962455 175.925561 
L 286.055458 172.974946 
L 287.148461 172.186504 
L 288.241464 175.908286 
L 289.334467 178.991194 
L 290.42747 177.448588 
L 291.520473 173.724479 
L 292.613476 171.087006 
L 293.706479 170.884403 
L 294.799482 167.2534 
L 295.892485 170.500076 
L 296.985487 171.871006 
L 299.171493 168.346321 
L 300.264496 167.206487 
L 301.357499 164.36286 
L 302.450502 166.173845 
L 303.543505 169.717518 
L 304.636508 169.796134 
L 305.729511 170.884868 
L 306.822514 168.484667 
L 307.915517 166.642809 
L 309.00852 166.536363 
L 310.101523 165.170163 
L 311.194526 167.852218 
L 312.287529 173.656061 
L 313.380532 171.215679 
L 314.473535 169.422463 
L 315.566538 167.849715 
L 316.659541 166.960569 
L 317.752544 166.904063 
L 318.845547 172.345848 
L 319.93855 175.472746 
L 321.031553 177.349856 
L 322.124556 174.001406 
L 323.217559 173.911038 
L 325.403565 170.300772 
L 326.496568 173.135348 
L 327.589571 176.7716 
L 328.682574 177.532903 
L 329.775576 174.101465 
L 330.868579 173.624737 
L 331.961582 173.736328 
L 333.054585 171.0767 
L 334.147588 175.500729 
L 335.240591 180.677756 
L 336.333594 183.908313 
L 337.426597 179.962465 
L 338.5196 180.104579 
L 340.705606 176.45792 
L 341.798609 178.830495 
L 342.891612 188.055164 
L 343.984615 181.84765 
L 345.077618 182.702444 
L 346.170621 178.649812 
L 347.263624 178.470292 
L 348.356627 177.894868 
L 349.44963 179.089683 
L 350.542633 187.126562 
L 351.635636 184.688236 
L 352.728639 179.441592 
L 353.821642 187.959696 
L 354.914645 177.994953 
L 356.007648 174.765031 
L 357.100651 180.601175 
L 358.193654 190.145995 
L 359.286657 195.036912 
L 362.565665 183.511749 
L 363.658668 177.301207 
L 364.751671 182.758664 
L 365.844674 187.198318 
L 366.937677 184.384514 
L 368.03068 182.678282 
L 369.123683 182.64208 
L 370.216686 178.655344 
L 371.309689 176.538716 
L 372.402692 180.894109 
L 373.495695 184.788429 
L 374.588698 173.28096 
L 375.681701 184.00648 
L 376.774704 181.069214 
L 377.867707 178.720589 
L 378.96071 173.469665 
L 380.053713 180.311289 
L 381.146716 184.075851 
L 382.239719 184.029585 
L 383.332722 179.665089 
L 384.425725 180.730031 
L 385.518728 177.982348 
L 386.611731 173.985285 
L 387.704734 177.177331 
L 388.797737 185.797184 
L 389.89074 169.734474 
L 390.983743 180.202543 
L 392.076746 174.279538 
L 393.169749 172.565334 
L 394.262751 171.318953 
L 396.448757 178.98124 
L 397.54176 177.039496 
L 398.634763 173.56578 
L 400.820769 168.451828 
L 401.913772 166.354712 
L 403.006775 174.414372 
L 404.099778 177.117344 
L 405.192781 168.415195 
L 406.285784 170.5584 
L 407.378787 168.93205 
L 408.47179 164.56862 
L 409.564793 161.033114 
L 410.657796 163.318302 
L 411.750799 170.965454 
L 412.843802 164.751641 
L 413.936805 164.845477 
L 417.215814 156.639893 
L 418.308817 161.391381 
L 419.40182 164.91747 
L 420.494823 158.324942 
L 421.587826 158.800128 
L 422.680829 154.439136 
L 423.773832 151.212886 
L 424.866835 148.696159 
L 425.959838 150.180435 
L 427.05284 155.668227 
L 428.145843 149.19855 
L 429.238846 147.280008 
L 430.331849 146.66338 
L 431.424852 142.882024 
L 432.517855 139.998964 
L 433.610858 143.679394 
L 434.703861 148.204935 
L 435.796864 142.390708 
L 436.889867 143.228004 
L 437.98287 141.450628 
L 439.075873 139.091186 
L 440.168876 137.453944 
L 441.261879 141.506792 
L 442.354882 147.072681 
L 443.447885 140.287929 
L 444.540888 140.563003 
L 445.633891 140.138367 
L 446.726894 155.781322 
L 447.819897 136.492949 
L 448.9129 145.048074 
L 450.005903 148.012729 
L 451.098906 142.208178 
L 453.284912 137.131807 
L 454.377915 134.927474 
L 455.470918 133.236121 
L 456.563921 136.510682 
L 457.656924 141.508737 
L 458.749926 136.671615 
L 459.842929 134.675814 
L 460.935932 134.675561 
L 462.028935 133.985724 
L 463.121938 127.8707 
L 464.214941 136.264771 
L 465.307944 139.584138 
L 466.400947 137.171576 
L 467.49395 136.858839 
L 468.586953 131.66106 
L 469.679956 132.48295 
L 470.772959 130.946328 
L 471.865962 138.156694 
L 472.958965 140.243301 
L 474.051968 137.083937 
L 475.144971 137.067492 
L 476.237974 133.673574 
L 477.330977 138.213354 
L 478.42398 156.344956 
L 479.516983 135.039899 
L 480.609986 144.923063 
L 481.702989 138.868936 
L 482.795992 137.151476 
L 483.888995 133.528898 
L 484.981998 133.277569 
L 486.075001 145.824149 
L 487.168004 126.789952 
L 488.261007 137.047744 
L 489.35401 130.875444 
L 490.447013 132.800334 
L 493.726021 125.927748 
L 495.912027 136.162544 
L 497.00503 133.851112 
L 498.098033 133.404101 
L 499.191036 133.483187 
L 500.284039 132.271296 
L 501.377042 132.232828 
L 503.563048 141.806349 
L 504.656051 147.00569 
L 505.749054 139.1751 
L 506.842057 139.392906 
L 507.93506 138.652833 
L 509.028063 138.494902 
L 510.121066 142.165178 
L 511.214069 149.364109 
L 512.307072 144.113123 
L 513.400075 145.190101 
L 514.493078 144.256888 
L 515.586081 142.455674 
L 516.679084 142.718416 
L 517.772087 148.492008 
L 518.86509 153.003271 
L 519.958093 146.863744 
L 521.051096 152.647903 
L 523.237102 150.245767 
L 524.330104 149.401727 
L 525.423107 155.258048 
L 526.51611 160.3926 
L 527.609113 158.630043 
L 528.702116 157.627312 
L 529.795119 158.039273 
L 530.888122 155.074709 
L 531.981125 156.707197 
L 533.074128 161.244559 
L 534.167131 169.130936 
L 535.260134 173.119215 
L 536.353137 168.800964 
L 537.44614 166.474754 
L 538.539143 165.834992 
L 539.632146 163.520033 
L 540.725149 166.650399 
L 541.818152 173.165621 
L 542.911155 171.081852 
L 544.004158 165.787693 
L 545.097161 164.917846 
L 546.190164 163.566849 
L 547.283167 163.410981 
L 549.469173 175.411938 
L 550.562176 172.410628 
L 551.655179 171.948701 
L 552.748182 167.920716 
L 553.841185 167.64193 
L 554.934188 168.306858 
L 556.02719 172.465219 
L 557.120193 182.083053 
L 558.213196 158.175109 
L 559.306199 172.804995 
L 560.399202 171.683696 
L 561.492205 169.74608 
L 562.585208 168.962857 
L 564.771214 183.564495 
L 565.864217 172.181631 
L 566.95722 173.495195 
L 568.050223 171.333602 
L 569.143226 170.615463 
L 570.236229 170.545071 
L 571.329232 173.549396 
L 572.422235 186.497088 
L 573.515238 173.400851 
L 574.608241 172.386073 
L 575.701244 162.852853 
L 576.794247 166.892776 
L 577.88725 164.803567 
L 578.980253 170.509712 
L 580.073256 179.148444 
L 581.166259 166.246209 
L 582.259262 169.81448 
L 583.352265 167.372466 
L 584.445268 163.814025 
L 585.538271 167.105991 
L 586.631274 168.975883 
L 587.724277 184.432887 
L 588.817279 164.031027 
L 589.910282 169.932 
L 591.003285 165.33546 
L 592.096288 162.660034 
L 593.189291 162.273574 
L 594.282294 168.707031 
L 595.375297 177.062131 
L 596.4683 165.780334 
L 597.561303 163.767872 
L 598.654306 164.339683 
L 599.747309 165.106207 
L 600.840312 163.398179 
L 601.933315 173.832851 
L 603.026318 181.169963 
L 604.119321 166.435476 
L 605.212324 170.361418 
L 606.305327 169.697899 
L 607.39833 168.076298 
L 608.491333 169.129189 
L 609.584336 175.652106 
L 610.677339 186.991894 
L 611.770342 177.437404 
L 612.863345 174.885053 
L 615.049351 171.978678 
L 616.142354 171.529988 
L 617.235357 178.996172 
L 618.32836 190.485169 
L 619.421363 175.942845 
L 620.514366 181.470333 
L 621.607368 179.021078 
L 622.700371 177.226932 
L 623.793374 177.344577 
L 624.886377 186.929767 
L 625.97938 198.36888 
L 627.072383 184.634845 
L 628.165386 186.621196 
L 629.258389 185.465492 
L 630.351392 183.236461 
L 631.444395 181.452654 
L 632.537398 191.037737 
L 633.630401 206.442593 
L 634.723404 190.887594 
L 635.816407 192.199871 
L 638.002413 190.498333 
L 639.095416 191.07516 
L 640.188419 203.886284 
L 641.281422 211.074896 
L 642.374425 194.529053 
L 643.467428 197.739764 
L 644.560431 197.079242 
L 645.653434 192.316085 
L 646.746437 199.176439 
L 647.83944 216.776404 
L 648.932443 228.970929 
L 650.025446 237.11098 
L 651.118449 197.994631 
L 652.211452 206.193652 
L 653.304455 202.134237 
L 653.309847 519.92375 
M 655.485362 519.92375 
L 655.49046 219.523831 
L 656.583463 234.300117 
L 657.676466 202.208601 
L 658.769469 211.019829 
L 659.862472 200.522264 
L 660.955475 208.05365 
L 662.048478 206.266444 
L 663.141481 225.888157 
L 664.234484 231.541091 
L 665.327487 209.2611 
L 666.42049 215.936428 
L 667.513493 210.432703 
L 668.606496 215.299168 
L 669.699499 214.062399 
L 670.792502 228.492267 
L 671.885505 245.833819 
L 672.978508 207.942595 
L 674.071511 213.898519 
L 675.164514 211.316112 
L 676.257517 209.999393 
L 677.35052 209.518679 
L 678.443523 232.071467 
L 678.443523 232.071467 
" style="fill:none;stroke:#008fd5;stroke-width:4;"/>
   </g>
   <g id="line2d_98">
    <path clip-path="url(#pf70e15da78)" d="M 151.615038 519.92375 
L 151.616093 458.002315 
L 151.617148 519.92375 
M 153.801373 519.92375 
L 153.802099 477.310845 
L 153.802825 519.92375 
M 155.987379 519.92375 
L 155.988105 477.310845 
L 157.081108 446.707549 
L 158.174111 432.477826 
L 159.267114 477.310845 
L 160.360117 477.310845 
L 161.45312 416.104252 
L 162.546123 446.707549 
L 163.639126 393.860766 
L 164.732129 388.781958 
L 164.73436 519.92375 
M 166.915673 519.92375 
L 166.918134 375.257496 
L 168.011137 380.768194 
L 169.10414 359.364216 
L 170.197143 344.893311 
L 171.290146 346.883895 
L 172.383149 341.719243 
L 173.476152 329.719216 
L 174.569155 325.108593 
L 175.662158 326.81213 
L 176.755161 324.066031 
L 177.848164 303.972764 
L 178.941167 303.807444 
L 180.03417 294.037112 
L 181.127173 289.743041 
L 182.220176 287.666825 
L 183.313179 292.825777 
L 184.406182 283.606786 
L 185.499185 284.144051 
L 186.592188 279.096906 
L 187.685191 278.448275 
L 188.778194 278.074949 
L 189.871197 290.928595 
L 190.9642 278.031355 
L 192.057203 281.779065 
L 193.150206 286.285733 
L 194.243209 281.506326 
L 195.336212 281.211807 
L 196.429215 284.389243 
L 197.522218 288.542292 
L 198.615221 280.847984 
L 199.708223 298.701178 
L 200.801226 287.636061 
L 201.894229 290.894013 
L 202.987232 275.255846 
L 204.080235 293.311546 
L 205.173238 290.346451 
L 206.266241 293.123708 
L 207.359244 290.721741 
L 208.452247 307.755695 
L 209.54525 276.754295 
L 210.638253 288.289338 
L 211.731256 317.872822 
L 212.824259 295.263067 
L 213.917262 298.655474 
L 215.010265 294.505296 
L 216.103268 314.370177 
L 217.196271 304.306376 
L 218.289274 283.874123 
L 219.382277 293.462734 
L 220.47528 298.428074 
L 221.568283 290.448302 
L 222.661286 301.947895 
L 223.754289 300.888975 
L 224.847292 290.211226 
L 225.940295 312.507222 
L 227.033298 291.032602 
L 228.126301 299.349028 
L 229.219304 311.403128 
L 230.312307 286.5802 
L 231.40531 305.389973 
L 232.498312 290.824976 
L 233.591315 286.96772 
L 234.684318 295.917577 
L 235.777321 291.914763 
L 236.870324 289.282596 
L 237.963327 304.083524 
L 239.05633 302.729695 
L 240.149333 279.714689 
L 241.242336 291.950637 
L 242.335339 295.79368 
L 243.428342 293.273877 
L 244.521345 288.478838 
L 245.614348 303.697773 
L 246.707351 311.912931 
L 247.800354 296.843401 
L 248.893357 279.53021 
L 249.98636 286.997754 
L 251.079363 293.311546 
L 252.172366 296.167039 
L 253.265369 298.337632 
L 254.358372 277.21578 
L 255.451375 275.137811 
L 256.544378 277.47076 
L 257.637381 278.228066 
L 258.730384 280.275574 
L 259.823387 285.849788 
L 260.91639 282.332687 
L 263.102396 270.137638 
L 264.195398 266.977202 
L 265.288401 258.473477 
L 266.381404 265.355703 
L 267.474407 269.170307 
L 268.56741 256.374431 
L 269.660413 258.16223 
L 270.753416 252.424226 
L 271.846419 247.537171 
L 272.939422 245.92997 
L 274.032425 250.036625 
L 275.125428 254.97864 
L 276.218431 251.746339 
L 277.311434 237.34253 
L 278.404437 240.030902 
L 279.49744 223.859704 
L 280.590443 221.925358 
L 281.683446 225.173684 
L 282.776449 238.609297 
L 283.869452 234.54591 
L 284.962455 232.475983 
L 286.055458 220.442657 
L 287.148461 222.2087 
L 288.241464 216.953317 
L 289.334467 220.580779 
L 290.42747 233.45653 
L 291.520473 229.332557 
L 292.613476 220.775307 
L 293.706479 223.881519 
L 294.799482 217.014162 
L 295.892485 219.759449 
L 296.985487 208.898253 
L 298.07849 214.253716 
L 299.171493 223.085526 
L 300.264496 220.244957 
L 301.357499 211.441497 
L 302.450502 216.933874 
L 303.543505 219.845625 
L 304.636508 214.57776 
L 305.729511 219.794426 
L 306.822514 222.349983 
L 307.915517 221.350091 
L 309.00852 220.05952 
L 310.101523 214.653766 
L 311.194526 215.207678 
L 312.287529 222.634718 
L 313.380532 224.015902 
L 314.473535 222.976665 
L 315.566538 222.332283 
L 316.659541 220.867486 
L 317.752544 223.657947 
L 318.845547 221.760193 
L 319.93855 230.269479 
L 321.031553 241.470294 
L 322.124556 237.673037 
L 323.217559 237.862938 
L 324.310562 228.206784 
L 325.403565 228.076003 
L 326.496568 225.265274 
L 327.589571 233.930975 
L 328.682574 245.210093 
L 330.868579 226.583626 
L 331.961582 233.899688 
L 333.054585 234.295586 
L 334.147588 233.386274 
L 335.240591 247.852349 
L 336.333594 257.445764 
L 337.426597 247.420799 
L 338.5196 245.479564 
L 339.612603 242.649732 
L 340.705606 241.871791 
L 341.798609 244.18338 
L 342.891612 254.525374 
L 343.984615 262.197796 
L 346.170621 252.311535 
L 347.263624 251.890827 
L 348.356627 247.588236 
L 349.44963 252.511223 
L 350.542633 258.451899 
L 351.635636 267.2273 
L 352.728639 228.503306 
L 353.821642 260.475655 
L 354.914645 249.4294 
L 356.007648 252.502511 
L 357.100651 248.774108 
L 359.286657 267.930667 
L 360.37966 268.158936 
L 361.472662 264.80841 
L 362.565665 258.451899 
L 363.658668 248.819862 
L 364.751671 252.572282 
L 365.844674 260.233174 
L 366.937677 269.521107 
L 368.03068 253.226092 
L 369.123683 261.026124 
L 370.216686 252.010382 
L 371.309689 252.450296 
L 372.402692 249.413803 
L 373.495695 259.128693 
L 374.588698 270.351728 
L 375.681701 259.698006 
L 376.774704 258.37651 
L 377.867707 258.908571 
L 378.96071 255.741081 
L 380.053713 256.254576 
L 381.146716 267.271669 
L 382.239719 293.349267 
L 383.332722 251.916403 
L 384.425725 266.311513 
L 385.518728 257.970776 
L 386.611731 257.633631 
L 387.704734 256.334422 
L 388.797737 267.479664 
L 389.89074 275.216446 
L 390.983743 262.284287 
L 392.076746 258.462686 
L 393.169749 251.577308 
L 394.262751 255.150534 
L 394.267248 519.92375 
M 396.443955 519.92375 
L 396.448757 237.045889 
L 397.54176 272.985236 
L 398.634763 256.961115 
L 399.727766 255.391049 
L 400.820769 251.159163 
L 401.913772 250.397723 
L 403.006775 245.96439 
L 404.099778 258.930505 
L 405.192781 269.990379 
L 406.285784 248.72843 
L 407.378787 263.640927 
L 408.47179 237.105968 
L 409.564793 248.523798 
L 410.657796 243.168234 
L 411.750799 260.673507 
L 412.843802 250.985396 
L 413.936805 244.267508 
L 415.029808 245.479564 
L 416.122811 244.92329 
L 417.215814 236.936081 
L 418.308817 261.311466 
L 419.40182 240.815639 
L 420.494823 242.068741 
L 421.587826 242.152718 
L 422.680829 243.468912 
L 423.773832 233.806038 
L 425.959838 243.286865 
L 427.05284 231.405976 
L 428.145843 246.803499 
L 429.238846 243.913302 
L 430.331849 235.736831 
L 431.424852 236.861459 
L 432.517855 230.948209 
L 433.610858 242.717085 
L 434.703861 220.453681 
L 435.796864 241.996961 
L 436.889867 228.911111 
L 437.98287 227.222991 
L 439.075873 223.417751 
L 440.168876 223.417751 
L 441.261879 225.571662 
L 442.354882 232.374302 
L 443.447885 233.478521 
L 444.540888 225.092161 
L 445.633891 225.681195 
L 445.638885 519.92375 
M 447.81456 519.92375 
L 447.819897 205.405244 
L 448.9129 233.71714 
L 450.005903 229.271959 
L 451.098906 232.071467 
L 452.191909 224.157233 
L 453.284912 220.761367 
L 454.377915 218.420829 
L 455.470918 220.255904 
L 456.563921 219.569193 
L 457.656924 225.482363 
L 458.749926 227.985542 
L 459.842929 227.012886 
L 462.028935 217.253967 
L 463.121938 216.373482 
L 464.214941 219.181999 
L 465.307944 223.809905 
L 466.400947 225.429579 
L 467.49395 222.43569 
L 468.586953 216.752257 
L 469.679956 213.120803 
L 470.772959 213.436145 
L 471.865962 216.41399 
L 472.958965 225.598176 
L 474.051968 218.051697 
L 475.144971 219.561183 
L 476.237974 217.133807 
L 477.330977 213.122922 
L 477.336184 519.92375 
M 479.511654 519.92375 
L 479.516983 205.89456 
L 480.609986 229.166228 
L 481.702989 226.279556 
L 482.795992 215.49228 
L 483.888995 211.629635 
L 484.981998 205.650448 
L 484.98733 519.92375 
M 487.162386 519.92375 
L 487.168004 188.766324 
L 488.261007 219.113608 
L 489.35401 217.448793 
L 490.447013 208.66076 
L 491.540015 204.708938 
L 492.633018 201.693582 
L 493.726021 202.098556 
L 495.912027 214.948569 
L 497.00503 216.667906 
L 498.098033 209.643692 
L 499.191036 211.391674 
L 500.284039 211.934542 
L 501.377042 206.16888 
L 502.470045 215.390959 
L 503.563048 217.855134 
L 504.656051 226.953643 
L 506.842057 215.866196 
L 507.93506 213.709618 
L 509.028063 211.936573 
L 510.121066 214.953094 
L 511.214069 222.07105 
L 512.307072 224.560013 
L 513.400075 221.899214 
L 514.493078 225.574975 
L 515.586081 217.038538 
L 516.679084 218.150501 
L 517.772087 209.414619 
L 518.86509 227.708756 
L 519.958093 236.256985 
L 521.051096 219.298122 
L 522.144099 230.763994 
L 523.237102 227.985542 
L 524.330104 216.74743 
L 525.423107 228.810459 
L 526.51611 232.218267 
L 527.609113 236.222976 
L 528.702116 230.588922 
L 529.795119 228.621325 
L 530.888122 225.190017 
L 531.981125 228.327208 
L 533.074128 228.702755 
L 534.167131 237.724234 
L 535.260134 249.088266 
L 536.353137 233.628524 
L 537.44614 229.351521 
L 538.539143 239.40885 
L 539.632146 231.97125 
L 540.725149 229.587755 
L 541.818152 239.69338 
L 542.911155 245.236923 
L 544.004158 236.846559 
L 545.097161 230.175528 
L 546.190164 232.151063 
L 547.283167 235.338877 
L 548.37617 237.606621 
L 549.469173 237.201358 
L 550.562176 270.104846 
L 551.655179 229.976929 
L 552.748182 234.909448 
L 553.841185 234.431847 
L 554.934188 235.090681 
L 556.02719 241.836131 
L 557.120193 245.594883 
L 558.213196 251.526798 
L 559.306199 243.450025 
L 560.399202 240.884434 
L 561.492205 239.69338 
L 562.585208 238.885736 
L 563.678211 238.725918 
L 564.771214 248.448388 
L 565.864217 255.947316 
L 566.95722 241.242608 
L 568.050223 242.381939 
L 569.143226 239.53981 
L 570.236229 239.283921 
L 571.329232 239.474253 
L 572.422235 246.359817 
L 573.515238 255.5947 
L 574.608241 238.419511 
L 575.701244 239.267667 
L 576.794247 236.048722 
L 577.88725 236.159925 
L 578.980253 235.522935 
L 580.073256 240.372564 
L 581.166259 251.010154 
L 582.259262 239.709884 
L 583.352265 238.461574 
L 584.445268 231.528781 
L 585.538271 232.787564 
L 586.631274 234.895556 
L 587.724277 241.225171 
L 588.817279 250.148465 
L 589.910282 237.115993 
L 591.003285 235.513466 
L 592.096288 227.173825 
L 593.189291 230.202898 
L 594.282294 231.056905 
L 595.375297 237.297075 
L 596.4683 271.568207 
L 597.561303 223.469925 
L 598.654306 231.602725 
L 599.747309 231.64389 
L 600.840312 229.526599 
L 601.933315 233.513743 
L 603.026318 231.348851 
L 604.119321 244.665696 
L 605.212324 236.673307 
L 606.305327 237.040889 
L 607.39833 231.967082 
L 608.491333 237.581119 
L 609.584336 229.090951 
L 610.677339 241.949211 
L 611.770342 249.885555 
L 612.863345 238.582861 
L 613.956348 239.078737 
L 615.049351 236.569871 
L 616.142354 238.398503 
L 617.235357 237.811486 
L 618.32836 247.399034 
L 619.421363 253.595055 
L 621.607368 243.652157 
L 622.700371 242.963384 
L 623.793374 245.143131 
L 624.886377 246.429773 
L 625.97938 252.216536 
L 627.072383 261.732901 
L 628.165386 251.942002 
L 629.258389 252.624726 
L 630.351392 245.826963 
L 631.444395 249.281579 
L 632.537398 251.467985 
L 633.630401 259.563 
L 634.723404 265.913965 
L 635.816407 256.155089 
L 636.90941 256.095567 
L 638.002413 255.294594 
L 639.095416 260.837506 
L 640.188419 250.747201 
L 641.281422 264.63283 
L 642.374425 271.689359 
L 643.467428 267.390333 
L 644.560431 261.359309 
L 645.653434 261.227939 
L 646.746437 261.227939 
L 646.75083 519.92375 
M 651.113616 519.92375 
L 651.118449 235.268408 
L 652.211452 279.029101 
L 653.304455 267.330938 
L 653.308745 519.92375 
M 657.671742 519.92375 
L 657.676466 241.676224 
L 658.769469 280.181305 
L 659.862472 271.968274 
L 660.955475 269.682034 
L 662.048478 262.458079 
L 662.052851 519.92375 
M 664.230189 519.92375 
L 664.234484 267.035847 
L 665.327487 262.495462 
L 666.42049 285.138039 
L 667.513493 269.795238 
L 668.606496 271.344599 
L 669.699499 271.327472 
L 669.703722 519.92375 
M 672.973901 519.92375 
L 672.978508 248.606985 
L 674.071511 270.451097 
L 675.164514 267.242082 
L 676.257517 266.498036 
L 677.35052 267.420078 
L 677.354809 519.92375 
L 677.354809 519.92375 
" style="fill:none;stroke:#fc4f30;stroke-width:4;"/>
   </g>
   <g id="patch_3">
    <path d="M 80.51625 494.88 
L 80.51625 28.32 
" style="fill:none;stroke:#f0f0f0;stroke-linecap:square;stroke-linejoin:miter;stroke-width:3;"/>
   </g>
   <g id="patch_4">
    <path d="M 706.91625 494.88 
L 706.91625 28.32 
" style="fill:none;stroke:#f0f0f0;stroke-linecap:square;stroke-linejoin:miter;stroke-width:3;"/>
   </g>
   <g id="patch_5">
    <path d="M 80.51625 494.88 
L 706.91625 494.88 
" style="fill:none;stroke:#f0f0f0;stroke-linecap:square;stroke-linejoin:miter;stroke-width:3;"/>
   </g>
   <g id="patch_6">
    <path d="M 80.51625 28.32 
L 706.91625 28.32 
" style="fill:none;stroke:#f0f0f0;stroke-linecap:square;stroke-linejoin:miter;stroke-width:3;"/>
   </g>
   <g id="text_19">
    <!-- New Cases of COVID-19 -->
    <g transform="translate(285.742125 22.32)scale(0.2016 -0.2016)">
     <defs>
      <path d="M 62.890625 0 
L 53.46875 0 
L 17.671875 54.78125 
L 17.671875 0 
L 8.25 0 
L 8.25 71.09375 
L 17.671875 71.09375 
L 53.5625 16.0625 
L 53.5625 71.09375 
L 62.890625 71.09375 
z
" id="Roboto-Regular-78"/>
      <path d="M 28.765625 -0.984375 
Q 18.015625 -0.984375 11.28125 6.078125 
Q 4.546875 13.140625 4.546875 24.953125 
L 4.546875 26.609375 
Q 4.546875 34.46875 7.546875 40.640625 
Q 10.546875 46.828125 15.9375 50.3125 
Q 21.34375 53.8125 27.640625 53.8125 
Q 37.9375 53.8125 43.640625 47.015625 
Q 49.359375 40.234375 49.359375 27.59375 
L 49.359375 23.828125 
L 13.578125 23.828125 
Q 13.765625 16.015625 18.140625 11.203125 
Q 22.515625 6.390625 29.25 6.390625 
Q 34.03125 6.390625 37.34375 8.34375 
Q 40.671875 10.296875 43.171875 13.53125 
L 48.6875 9.234375 
Q 42.046875 -0.984375 28.765625 -0.984375 
z
M 27.640625 46.390625 
Q 22.171875 46.390625 18.453125 42.40625 
Q 14.75 38.421875 13.875 31.25 
L 40.328125 31.25 
L 40.328125 31.9375 
Q 39.9375 38.8125 36.609375 42.59375 
Q 33.296875 46.390625 27.640625 46.390625 
z
" id="Roboto-Regular-101"/>
      <path d="M 53.609375 12.453125 
L 63.765625 52.828125 
L 72.796875 52.828125 
L 57.421875 0 
L 50.09375 0 
L 37.25 40.046875 
L 24.75 0 
L 17.4375 0 
L 2.09375 52.828125 
L 11.078125 52.828125 
L 21.484375 13.28125 
L 33.796875 52.828125 
L 41.0625 52.828125 
z
" id="Roboto-Regular-119"/>
      <path id="Roboto-Regular-32"/>
      <path d="M 60.546875 22.5625 
Q 59.234375 11.28125 52.21875 5.140625 
Q 45.21875 -0.984375 33.59375 -0.984375 
Q 21 -0.984375 13.40625 8.046875 
Q 5.8125 17.09375 5.8125 32.234375 
L 5.8125 39.0625 
Q 5.8125 48.96875 9.34375 56.484375 
Q 12.890625 64.015625 19.375 68.046875 
Q 25.875 72.078125 34.421875 72.078125 
Q 45.75 72.078125 52.578125 65.75 
Q 59.421875 59.421875 60.546875 48.25 
L 51.125 48.25 
Q 49.90625 56.734375 45.828125 60.546875 
Q 41.75 64.359375 34.421875 64.359375 
Q 25.4375 64.359375 20.328125 57.71875 
Q 15.234375 51.078125 15.234375 38.8125 
L 15.234375 31.9375 
Q 15.234375 20.359375 20.0625 13.515625 
Q 24.90625 6.6875 33.59375 6.6875 
Q 41.40625 6.6875 45.578125 10.21875 
Q 49.75 13.765625 51.125 22.5625 
z
" id="Roboto-Regular-67"/>
      <path d="M 39.453125 0 
Q 38.671875 1.5625 38.1875 5.5625 
Q 31.890625 -0.984375 23.140625 -0.984375 
Q 15.328125 -0.984375 10.328125 3.4375 
Q 5.328125 7.859375 5.328125 14.65625 
Q 5.328125 22.90625 11.59375 27.46875 
Q 17.875 32.03125 29.25 32.03125 
L 38.03125 32.03125 
L 38.03125 36.1875 
Q 38.03125 40.921875 35.203125 43.71875 
Q 32.375 46.53125 26.859375 46.53125 
Q 22.015625 46.53125 18.75 44.09375 
Q 15.484375 41.65625 15.484375 38.1875 
L 6.390625 38.1875 
Q 6.390625 42.140625 9.203125 45.828125 
Q 12.015625 49.515625 16.8125 51.65625 
Q 21.625 53.8125 27.390625 53.8125 
Q 36.53125 53.8125 41.703125 49.234375 
Q 46.875 44.671875 47.078125 36.671875 
L 47.078125 12.359375 
Q 47.078125 5.078125 48.921875 0.78125 
L 48.921875 0 
z
M 24.46875 6.890625 
Q 28.71875 6.890625 32.515625 9.078125 
Q 36.328125 11.28125 38.03125 14.796875 
L 38.03125 25.640625 
L 30.953125 25.640625 
Q 14.359375 25.640625 14.359375 15.921875 
Q 14.359375 11.671875 17.1875 9.28125 
Q 20.015625 6.890625 24.46875 6.890625 
z
" id="Roboto-Regular-97"/>
      <path d="M 37.59375 14.015625 
Q 37.59375 17.671875 34.828125 19.703125 
Q 32.078125 21.734375 25.21875 23.1875 
Q 18.359375 24.65625 14.328125 26.703125 
Q 10.296875 28.765625 8.375 31.59375 
Q 6.453125 34.421875 6.453125 38.328125 
Q 6.453125 44.828125 11.9375 49.3125 
Q 17.4375 53.8125 25.984375 53.8125 
Q 34.96875 53.8125 40.546875 49.171875 
Q 46.140625 44.53125 46.140625 37.3125 
L 37.0625 37.3125 
Q 37.0625 41.015625 33.90625 43.703125 
Q 30.765625 46.390625 25.984375 46.390625 
Q 21.046875 46.390625 18.265625 44.234375 
Q 15.484375 42.09375 15.484375 38.625 
Q 15.484375 35.359375 18.0625 33.6875 
Q 20.65625 32.03125 27.421875 30.515625 
Q 34.1875 29 38.375 26.90625 
Q 42.578125 24.8125 44.59375 21.84375 
Q 46.625 18.890625 46.625 14.65625 
Q 46.625 7.5625 40.953125 3.28125 
Q 35.296875 -0.984375 26.265625 -0.984375 
Q 19.921875 -0.984375 15.03125 1.265625 
Q 10.15625 3.515625 7.390625 7.546875 
Q 4.640625 11.578125 4.640625 16.265625 
L 13.671875 16.265625 
Q 13.921875 11.71875 17.3125 9.046875 
Q 20.703125 6.390625 26.265625 6.390625 
Q 31.390625 6.390625 34.484375 8.46875 
Q 37.59375 10.546875 37.59375 14.015625 
z
" id="Roboto-Regular-115"/>
      <path d="M 4.4375 26.90625 
Q 4.4375 34.671875 7.484375 40.875 
Q 10.546875 47.078125 15.984375 50.4375 
Q 21.4375 53.8125 28.421875 53.8125 
Q 39.203125 53.8125 45.875 46.34375 
Q 52.546875 38.875 52.546875 26.46875 
L 52.546875 25.828125 
Q 52.546875 18.109375 49.578125 11.984375 
Q 46.625 5.859375 41.125 2.4375 
Q 35.640625 -0.984375 28.515625 -0.984375 
Q 17.78125 -0.984375 11.109375 6.484375 
Q 4.4375 13.96875 4.4375 26.265625 
z
M 13.53125 25.828125 
Q 13.53125 17.046875 17.609375 11.71875 
Q 21.6875 6.390625 28.515625 6.390625 
Q 35.40625 6.390625 39.453125 11.78125 
Q 43.5 17.1875 43.5 26.90625 
Q 43.5 35.59375 39.375 40.984375 
Q 35.25 46.390625 28.421875 46.390625 
Q 21.734375 46.390625 17.625 41.0625 
Q 13.53125 35.75 13.53125 25.828125 
z
" id="Roboto-Regular-111"/>
      <path d="M 11.28125 0 
L 11.28125 45.84375 
L 2.9375 45.84375 
L 2.9375 52.828125 
L 11.28125 52.828125 
L 11.28125 58.25 
Q 11.28125 66.75 15.8125 71.390625 
Q 20.359375 76.03125 28.65625 76.03125 
Q 31.78125 76.03125 34.859375 75.203125 
L 34.375 67.875 
Q 32.078125 68.3125 29.5 68.3125 
Q 25.09375 68.3125 22.703125 65.75 
Q 20.3125 63.1875 20.3125 58.40625 
L 20.3125 52.828125 
L 31.59375 52.828125 
L 31.59375 45.84375 
L 20.3125 45.84375 
L 20.3125 0 
z
" id="Roboto-Regular-102"/>
      <path d="M 62.9375 33.25 
Q 62.9375 22.796875 59.421875 15.015625 
Q 55.90625 7.234375 49.453125 3.125 
Q 43.015625 -0.984375 34.421875 -0.984375 
Q 26.03125 -0.984375 19.53125 3.140625 
Q 13.03125 7.28125 9.4375 14.921875 
Q 5.859375 22.5625 5.765625 32.625 
L 5.765625 37.75 
Q 5.765625 48 9.328125 55.859375 
Q 12.890625 63.71875 19.40625 67.890625 
Q 25.921875 72.078125 34.328125 72.078125 
Q 42.875 72.078125 49.390625 67.9375 
Q 55.90625 63.8125 59.421875 55.96875 
Q 62.9375 48.140625 62.9375 37.75 
z
M 53.609375 37.84375 
Q 53.609375 50.484375 48.53125 57.25 
Q 43.453125 64.015625 34.328125 64.015625 
Q 25.4375 64.015625 20.328125 57.25 
Q 15.234375 50.484375 15.09375 38.484375 
L 15.09375 33.25 
Q 15.09375 21 20.234375 13.984375 
Q 25.390625 6.984375 34.421875 6.984375 
Q 43.5 6.984375 48.484375 13.59375 
Q 53.46875 20.21875 53.609375 32.5625 
z
" id="Roboto-Regular-79"/>
      <path d="M 31.78125 12.453125 
L 52.09375 71.09375 
L 62.359375 71.09375 
L 35.984375 0 
L 27.6875 0 
L 1.375 71.09375 
L 11.578125 71.09375 
z
" id="Roboto-Regular-86"/>
      <path d="M 18.3125 0 
L 8.9375 0 
L 8.9375 71.09375 
L 18.3125 71.09375 
z
" id="Roboto-Regular-73"/>
      <path d="M 8.25 0 
L 8.25 71.09375 
L 28.328125 71.09375 
Q 37.59375 71.09375 44.71875 66.984375 
Q 51.859375 62.890625 55.734375 55.3125 
Q 59.625 47.75 59.671875 37.9375 
L 59.671875 33.40625 
Q 59.671875 23.34375 55.78125 15.765625 
Q 51.90625 8.203125 44.703125 4.140625 
Q 37.5 0.09375 27.9375 0 
z
M 17.625 63.375 
L 17.625 7.671875 
L 27.484375 7.671875 
Q 38.328125 7.671875 44.359375 14.40625 
Q 50.390625 21.140625 50.390625 33.59375 
L 50.390625 37.75 
Q 50.390625 49.859375 44.703125 56.5625 
Q 39.015625 63.28125 28.5625 63.375 
z
" id="Roboto-Regular-68"/>
      <path d="M 25.640625 26.515625 
L 1.8125 26.515625 
L 1.8125 33.890625 
L 25.640625 33.890625 
z
" id="Roboto-Regular-45"/>
      <path d="M 35.59375 0 
L 26.515625 0 
L 26.515625 60.203125 
L 8.296875 53.515625 
L 8.296875 61.71875 
L 34.1875 71.4375 
L 35.59375 71.4375 
z
" id="Roboto-Regular-49"/>
      <path d="M 40.53125 31.25 
Q 37.703125 27.875 33.765625 25.828125 
Q 29.828125 23.78125 25.140625 23.78125 
Q 19 23.78125 14.421875 26.796875 
Q 9.859375 29.828125 7.375 35.328125 
Q 4.890625 40.828125 4.890625 47.46875 
Q 4.890625 54.59375 7.59375 60.296875 
Q 10.296875 66.015625 15.28125 69.046875 
Q 20.265625 72.078125 26.90625 72.078125 
Q 37.453125 72.078125 43.53125 64.1875 
Q 49.609375 56.296875 49.609375 42.671875 
L 49.609375 40.046875 
Q 49.609375 19.28125 41.40625 9.734375 
Q 33.203125 0.203125 16.65625 -0.046875 
L 14.890625 -0.046875 
L 14.890625 7.5625 
L 16.796875 7.5625 
Q 27.984375 7.765625 33.984375 13.40625 
Q 39.984375 19.046875 40.53125 31.25 
z
M 26.609375 31.25 
Q 31.15625 31.25 34.984375 34.03125 
Q 38.8125 36.8125 40.578125 40.921875 
L 40.578125 44.53125 
Q 40.578125 53.421875 36.71875 58.984375 
Q 32.859375 64.546875 26.953125 64.546875 
Q 21 64.546875 17.375 59.984375 
Q 13.765625 55.421875 13.765625 47.953125 
Q 13.765625 40.671875 17.25 35.953125 
Q 20.75 31.25 26.609375 31.25 
z
" id="Roboto-Regular-57"/>
     </defs>
     <use xlink:href="#Roboto-Regular-78"/>
     <use x="71.289062" xlink:href="#Roboto-Regular-101"/>
     <use x="124.267578" xlink:href="#Roboto-Regular-119"/>
     <use x="199.414062" xlink:href="#Roboto-Regular-32"/>
     <use x="224.169922" xlink:href="#Roboto-Regular-67"/>
     <use x="289.257812" xlink:href="#Roboto-Regular-97"/>
     <use x="343.652344" xlink:href="#Roboto-Regular-115"/>
     <use x="395.214844" xlink:href="#Roboto-Regular-101"/>
     <use x="448.193359" xlink:href="#Roboto-Regular-115"/>
     <use x="499.755859" xlink:href="#Roboto-Regular-32"/>
     <use x="524.511719" xlink:href="#Roboto-Regular-111"/>
     <use x="581.542969" xlink:href="#Roboto-Regular-102"/>
     <use x="616.259766" xlink:href="#Roboto-Regular-32"/>
     <use x="641.015625" xlink:href="#Roboto-Regular-67"/>
     <use x="706.103516" xlink:href="#Roboto-Regular-79"/>
     <use x="774.853516" xlink:href="#Roboto-Regular-86"/>
     <use x="838.476562" xlink:href="#Roboto-Regular-73"/>
     <use x="865.673828" xlink:href="#Roboto-Regular-68"/>
     <use x="931.25" xlink:href="#Roboto-Regular-45"/>
     <use x="958.837891" xlink:href="#Roboto-Regular-49"/>
     <use x="1014.990234" xlink:href="#Roboto-Regular-57"/>
    </g>
   </g>
   <g id="legend_1">
    <g id="patch_7">
     <path d="M 568.200312 80.2075 
L 697.11625 80.2075 
Q 699.91625 80.2075 699.91625 77.4075 
L 699.91625 38.12 
Q 699.91625 35.32 697.11625 35.32 
L 568.200312 35.32 
Q 565.400312 35.32 565.400312 38.12 
L 565.400312 77.4075 
Q 565.400312 80.2075 568.200312 80.2075 
z
" style="fill:#f0f0f0;opacity:0.8;stroke:#cccccc;stroke-linejoin:miter;stroke-width:0.5;"/>
    </g>
    <g id="line2d_99">
     <path d="M 571.000312 46.52 
L 599.000312 46.52 
" style="fill:none;stroke:#008fd5;stroke-width:4;"/>
    </g>
    <g id="line2d_100"/>
    <g id="text_20">
     <!-- United States -->
     <g transform="translate(610.200312 51.42)scale(0.14 -0.14)">
      <defs>
       <path d="M 59.234375 71.09375 
L 59.234375 23.578125 
Q 59.234375 12.25 51.984375 5.625 
Q 44.734375 -0.984375 32.671875 -0.984375 
Q 20.453125 -0.984375 13.28125 5.53125 
Q 6.109375 12.0625 6.109375 23.640625 
L 6.109375 71.09375 
L 18.40625 71.09375 
L 18.40625 23.53125 
Q 18.40625 16.40625 22.015625 12.640625 
Q 25.640625 8.890625 32.671875 8.890625 
Q 46.921875 8.890625 46.921875 23.921875 
L 46.921875 71.09375 
z
" id="Roboto-Medium-85"/>
       <path d="M 17.09375 52.828125 
L 17.4375 46.734375 
Q 23.296875 53.8125 32.8125 53.8125 
Q 49.3125 53.8125 49.609375 34.90625 
L 49.609375 0 
L 37.75 0 
L 37.75 34.234375 
Q 37.75 39.265625 35.578125 41.671875 
Q 33.40625 44.09375 28.46875 44.09375 
Q 21.296875 44.09375 17.78125 37.59375 
L 17.78125 0 
L 5.90625 0 
L 5.90625 52.828125 
z
" id="Roboto-Medium-110"/>
       <path d="M 18.703125 0 
L 6.84375 0 
L 6.84375 52.828125 
L 18.703125 52.828125 
z
M 6.109375 66.546875 
Q 6.109375 69.28125 7.84375 71.09375 
Q 9.578125 72.90625 12.796875 72.90625 
Q 16.015625 72.90625 17.765625 71.09375 
Q 19.53125 69.28125 19.53125 66.546875 
Q 19.53125 63.875 17.765625 62.078125 
Q 16.015625 60.296875 12.796875 60.296875 
Q 9.578125 60.296875 7.84375 62.078125 
Q 6.109375 63.875 6.109375 66.546875 
z
" id="Roboto-Medium-105"/>
       <path d="M 20.953125 65.671875 
L 20.953125 52.828125 
L 30.28125 52.828125 
L 30.28125 44.046875 
L 20.953125 44.046875 
L 20.953125 14.546875 
Q 20.953125 11.53125 22.140625 10.1875 
Q 23.34375 8.84375 26.421875 8.84375 
Q 28.46875 8.84375 30.5625 9.328125 
L 30.5625 0.140625 
Q 26.515625 -0.984375 22.75 -0.984375 
Q 9.078125 -0.984375 9.078125 14.109375 
L 9.078125 44.046875 
L 0.390625 44.046875 
L 0.390625 52.828125 
L 9.078125 52.828125 
L 9.078125 65.671875 
z
" id="Roboto-Medium-116"/>
       <path d="M 29.34375 -0.984375 
Q 18.0625 -0.984375 11.046875 6.125 
Q 4.046875 13.234375 4.046875 25.046875 
L 4.046875 26.515625 
Q 4.046875 34.421875 7.09375 40.640625 
Q 10.15625 46.875 15.671875 50.34375 
Q 21.1875 53.8125 27.984375 53.8125 
Q 38.765625 53.8125 44.640625 46.921875 
Q 50.53125 40.046875 50.53125 27.4375 
L 50.53125 22.65625 
L 16.015625 22.65625 
Q 16.546875 16.109375 20.375 12.296875 
Q 24.21875 8.5 30.03125 8.5 
Q 38.1875 8.5 43.3125 15.09375 
L 49.703125 8.984375 
Q 46.53125 4.25 41.234375 1.625 
Q 35.9375 -0.984375 29.34375 -0.984375 
z
M 27.9375 44.28125 
Q 23.046875 44.28125 20.046875 40.859375 
Q 17.046875 37.453125 16.21875 31.34375 
L 38.8125 31.34375 
L 38.8125 32.234375 
Q 38.421875 38.1875 35.640625 41.234375 
Q 32.859375 44.28125 27.9375 44.28125 
z
" id="Roboto-Medium-101"/>
       <path d="M 3.859375 26.8125 
Q 3.859375 39.015625 9.515625 46.40625 
Q 15.1875 53.8125 24.703125 53.8125 
Q 33.109375 53.8125 38.28125 47.953125 
L 38.28125 75 
L 50.140625 75 
L 50.140625 0 
L 39.40625 0 
L 38.8125 5.46875 
Q 33.5 -0.984375 24.609375 -0.984375 
Q 15.328125 -0.984375 9.59375 6.484375 
Q 3.859375 13.96875 3.859375 26.8125 
z
M 15.71875 25.78125 
Q 15.71875 17.71875 18.8125 13.203125 
Q 21.921875 8.6875 27.640625 8.6875 
Q 34.90625 8.6875 38.28125 15.1875 
L 38.28125 37.75 
Q 35.015625 44.09375 27.734375 44.09375 
Q 21.96875 44.09375 18.84375 39.53125 
Q 15.71875 34.96875 15.71875 25.78125 
z
" id="Roboto-Medium-100"/>
       <path id="Roboto-Medium-32"/>
       <path d="M 44.390625 18.3125 
Q 44.390625 23 41.09375 25.53125 
Q 37.796875 28.078125 29.203125 30.65625 
Q 20.609375 33.25 15.53125 36.421875 
Q 5.8125 42.53125 5.8125 52.34375 
Q 5.8125 60.9375 12.8125 66.5 
Q 19.828125 72.078125 31 72.078125 
Q 38.421875 72.078125 44.234375 69.34375 
Q 50.046875 66.609375 53.359375 61.546875 
Q 56.6875 56.5 56.6875 50.34375 
L 44.390625 50.34375 
Q 44.390625 55.90625 40.890625 59.046875 
Q 37.40625 62.203125 30.90625 62.203125 
Q 24.859375 62.203125 21.515625 59.609375 
Q 18.171875 57.03125 18.171875 52.390625 
Q 18.171875 48.484375 21.78125 45.875 
Q 25.390625 43.265625 33.6875 40.796875 
Q 42 38.328125 47.015625 35.171875 
Q 52.046875 32.03125 54.390625 27.953125 
Q 56.734375 23.875 56.734375 18.40625 
Q 56.734375 9.515625 49.921875 4.265625 
Q 43.109375 -0.984375 31.453125 -0.984375 
Q 23.734375 -0.984375 17.265625 1.875 
Q 10.796875 4.734375 7.203125 9.765625 
Q 3.609375 14.796875 3.609375 21.484375 
L 15.96875 21.484375 
Q 15.96875 15.4375 19.96875 12.109375 
Q 23.96875 8.796875 31.453125 8.796875 
Q 37.890625 8.796875 41.140625 11.40625 
Q 44.390625 14.015625 44.390625 18.3125 
z
" id="Roboto-Medium-83"/>
       <path d="M 37.640625 0 
Q 36.859375 1.515625 36.28125 4.9375 
Q 30.609375 -0.984375 22.40625 -0.984375 
Q 14.453125 -0.984375 9.421875 3.5625 
Q 4.390625 8.109375 4.390625 14.796875 
Q 4.390625 23.25 10.65625 27.765625 
Q 16.9375 32.28125 28.609375 32.28125 
L 35.890625 32.28125 
L 35.890625 35.75 
Q 35.890625 39.84375 33.59375 42.3125 
Q 31.296875 44.78125 26.609375 44.78125 
Q 22.5625 44.78125 19.96875 42.75 
Q 17.390625 40.71875 17.390625 37.59375 
L 5.515625 37.59375 
Q 5.515625 41.9375 8.390625 45.71875 
Q 11.28125 49.515625 16.234375 51.65625 
Q 21.1875 53.8125 27.296875 53.8125 
Q 36.578125 53.8125 42.09375 49.140625 
Q 47.609375 44.484375 47.75 36.03125 
L 47.75 12.203125 
Q 47.75 5.078125 49.75 0.828125 
L 49.75 0 
z
M 24.609375 8.546875 
Q 28.125 8.546875 31.21875 10.25 
Q 34.328125 11.96875 35.890625 14.84375 
L 35.890625 24.8125 
L 29.5 24.8125 
Q 22.90625 24.8125 19.578125 22.515625 
Q 16.265625 20.21875 16.265625 16.015625 
Q 16.265625 12.59375 18.53125 10.5625 
Q 20.796875 8.546875 24.609375 8.546875 
z
" id="Roboto-Medium-97"/>
       <path d="M 35.6875 14.359375 
Q 35.6875 17.53125 33.078125 19.1875 
Q 30.46875 20.84375 24.40625 22.109375 
Q 18.359375 23.390625 14.3125 25.34375 
Q 5.421875 29.640625 5.421875 37.796875 
Q 5.421875 44.625 11.171875 49.21875 
Q 16.9375 53.8125 25.828125 53.8125 
Q 35.296875 53.8125 41.125 49.125 
Q 46.96875 44.4375 46.96875 36.96875 
L 35.109375 36.96875 
Q 35.109375 40.375 32.5625 42.640625 
Q 30.03125 44.921875 25.828125 44.921875 
Q 21.921875 44.921875 19.453125 43.109375 
Q 17 41.3125 17 38.28125 
Q 17 35.546875 19.28125 34.03125 
Q 21.578125 32.515625 28.5625 30.96875 
Q 35.546875 29.4375 39.515625 27.3125 
Q 43.5 25.203125 45.421875 22.21875 
Q 47.359375 19.234375 47.359375 14.984375 
Q 47.359375 7.859375 41.453125 3.4375 
Q 35.546875 -0.984375 25.984375 -0.984375 
Q 19.484375 -0.984375 14.40625 1.359375 
Q 9.328125 3.71875 6.484375 7.8125 
Q 3.65625 11.921875 3.65625 16.65625 
L 15.1875 16.65625 
Q 15.4375 12.453125 18.359375 10.171875 
Q 21.296875 7.90625 26.125 7.90625 
Q 30.8125 7.90625 33.25 9.6875 
Q 35.6875 11.46875 35.6875 14.359375 
z
" id="Roboto-Medium-115"/>
      </defs>
      <use xlink:href="#Roboto-Medium-85"/>
      <use x="65.185547" xlink:href="#Roboto-Medium-110"/>
      <use x="120.800781" xlink:href="#Roboto-Medium-105"/>
      <use x="146.337891" xlink:href="#Roboto-Medium-116"/>
      <use x="179.589844" xlink:href="#Roboto-Medium-101"/>
      <use x="233.251953" xlink:href="#Roboto-Medium-100"/>
      <use x="289.697266" xlink:href="#Roboto-Medium-32"/>
      <use x="314.599609" xlink:href="#Roboto-Medium-83"/>
      <use x="374.951172" xlink:href="#Roboto-Medium-116"/>
      <use x="408.203125" xlink:href="#Roboto-Medium-97"/>
      <use x="462.304688" xlink:href="#Roboto-Medium-116"/>
      <use x="495.556641" xlink:href="#Roboto-Medium-101"/>
      <use x="549.21875" xlink:href="#Roboto-Medium-115"/>
     </g>
    </g>
    <g id="line2d_101">
     <path d="M 571.000312 66.86375 
L 599.000312 66.86375 
" style="fill:none;stroke:#fc4f30;stroke-width:4;"/>
    </g>
    <g id="line2d_102"/>
    <g id="text_21">
     <!-- Florida -->
     <g transform="translate(610.200312 71.76375)scale(0.14 -0.14)">
      <defs>
       <path d="M 48.1875 30.125 
L 19.578125 30.125 
L 19.578125 0 
L 7.234375 0 
L 7.234375 71.09375 
L 52.390625 71.09375 
L 52.390625 61.140625 
L 19.578125 61.140625 
L 19.578125 39.984375 
L 48.1875 39.984375 
z
" id="Roboto-Medium-70"/>
       <path d="M 18.703125 0 
L 6.84375 0 
L 6.84375 75 
L 18.703125 75 
z
" id="Roboto-Medium-108"/>
       <path d="M 3.859375 26.90625 
Q 3.859375 34.671875 6.9375 40.890625 
Q 10.015625 47.125 15.578125 50.46875 
Q 21.140625 53.8125 28.375 53.8125 
Q 39.0625 53.8125 45.71875 46.921875 
Q 52.390625 40.046875 52.9375 28.65625 
L 52.984375 25.875 
Q 52.984375 18.0625 49.96875 11.90625 
Q 46.96875 5.765625 41.375 2.390625 
Q 35.796875 -0.984375 28.46875 -0.984375 
Q 17.28125 -0.984375 10.5625 6.46875 
Q 3.859375 13.921875 3.859375 26.3125 
z
M 15.71875 25.875 
Q 15.71875 17.71875 19.09375 13.109375 
Q 22.46875 8.5 28.46875 8.5 
Q 34.46875 8.5 37.8125 13.1875 
Q 41.15625 17.875 41.15625 26.90625 
Q 41.15625 34.90625 37.71875 39.59375 
Q 34.28125 44.28125 28.375 44.28125 
Q 22.5625 44.28125 19.140625 39.671875 
Q 15.71875 35.0625 15.71875 25.875 
z
" id="Roboto-Medium-111"/>
       <path d="M 33.734375 42 
Q 31.390625 42.390625 28.90625 42.390625 
Q 20.75 42.390625 17.921875 36.140625 
L 17.921875 0 
L 6.0625 0 
L 6.0625 52.828125 
L 17.390625 52.828125 
L 17.671875 46.921875 
Q 21.96875 53.8125 29.59375 53.8125 
Q 32.125 53.8125 33.796875 53.125 
z
" id="Roboto-Medium-114"/>
      </defs>
      <use xlink:href="#Roboto-Medium-70"/>
      <use x="54.931641" xlink:href="#Roboto-Medium-108"/>
      <use x="80.46875" xlink:href="#Roboto-Medium-111"/>
      <use x="137.402344" xlink:href="#Roboto-Medium-114"/>
      <use x="172.558594" xlink:href="#Roboto-Medium-105"/>
      <use x="198.095703" xlink:href="#Roboto-Medium-100"/>
      <use x="254.541016" xlink:href="#Roboto-Medium-97"/>
     </g>
    </g>
   </g>
  </g>
 </g>
 <defs>
  <clipPath id="pf70e15da78">
   <rect height="466.56" width="626.4" x="80.51625" y="28.32"/>
  </clipPath>
 </defs>
</svg>
