<?xml version="1.0" encoding="utf-8" standalone="no"?>
<!DOCTYPE svg PUBLIC "-//W3C//DTD SVG 1.1//EN"
  "http://www.w3.org/Graphics/SVG/1.1/DTD/svg11.dtd">
<!-- Created with matplotlib (https://matplotlib.org/) -->
<svg height="538.890812pt" version="1.1" viewBox="0 0 714.348125 538.890812" width="714.348125pt" xmlns="http://www.w3.org/2000/svg" xmlns:xlink="http://www.w3.org/1999/xlink">
 <metadata>
  <rdf:RDF xmlns:cc="http://creativecommons.org/ns#" xmlns:dc="http://purl.org/dc/elements/1.1/" xmlns:rdf="http://www.w3.org/1999/02/22-rdf-syntax-ns#">
   <cc:Work>
    <dc:type rdf:resource="http://purl.org/dc/dcmitype/StillImage"/>
    <dc:date>2021-06-30T08:19:46.399298</dc:date>
    <dc:format>image/svg+xml</dc:format>
    <dc:creator>
     <cc:Agent>
      <dc:title>Matplotlib v3.3.4, https://matplotlib.org/</dc:title>
     </cc:Agent>
    </dc:creator>
   </cc:Work>
  </rdf:RDF>
 </metadata>
 <defs>
  <style type="text/css">*{stroke-linecap:butt;stroke-linejoin:round;}</style>
 </defs>
 <g id="figure_1">
  <g id="patch_1">
   <path d="M 0 538.890812 
L 714.348125 538.890812 
L 714.348125 0 
L 0 0 
z
" style="fill:#f0f0f0;"/>
  </g>
  <g id="axes_1">
   <g id="patch_2">
    <path d="M 80.748125 515.4355 
L 707.148125 515.4355 
L 707.148125 31.5955 
L 80.748125 31.5955 
z
" style="fill:#f0f0f0;"/>
   </g>
   <g id="matplotlib.axis_1">
    <g id="xtick_1">
     <g id="line2d_1">
      <path clip-path="url(#p6a2dc9d0d1)" d="M 86.399201 515.4355 
L 86.399201 31.5955 
" style="fill:none;stroke:#cbcbcb;"/>
     </g>
     <g id="line2d_2"/>
     <g id="text_1">
      <!-- 2020-01 -->
      <g style="fill:#555555;" transform="translate(60.326388 528.932375)scale(0.14 -0.14)">
       <defs>
        <path d="M 4.40625 45.796875 
L 12.90625 45.796875 
Q 12.796875 49 13.546875 52.140625 
Q 14.296875 55.296875 16 57.796875 
Q 17.703125 60.296875 20.34375 61.84375 
Q 23 63.40625 26.703125 63.40625 
Q 29.5 63.40625 32 62.5 
Q 34.5 61.59375 36.34375 59.890625 
Q 38.203125 58.203125 39.296875 55.84375 
Q 40.40625 53.5 40.40625 50.59375 
Q 40.40625 46.90625 39.25 44.09375 
Q 38.09375 41.296875 35.84375 38.890625 
Q 33.59375 36.5 30.1875 34.140625 
Q 26.796875 31.796875 22.296875 29 
Q 18.59375 26.796875 15.1875 24.296875 
Q 11.796875 21.796875 9.09375 18.5 
Q 6.40625 15.203125 4.65625 10.75 
Q 2.90625 6.296875 2.40625 0 
L 48.703125 0 
L 48.703125 7.5 
L 12.296875 7.5 
Q 12.90625 10.796875 14.84375 13.34375 
Q 16.796875 15.90625 19.546875 18.09375 
Q 22.296875 20.296875 25.59375 22.25 
Q 28.90625 24.203125 32.203125 26.203125 
Q 35.5 28.296875 38.59375 30.59375 
Q 41.703125 32.90625 44.09375 35.75 
Q 46.5 38.59375 47.953125 42.1875 
Q 49.40625 45.796875 49.40625 50.5 
Q 49.40625 55.5 47.65625 59.296875 
Q 45.90625 63.09375 42.90625 65.640625 
Q 39.90625 68.203125 35.84375 69.546875 
Q 31.796875 70.90625 27.203125 70.90625 
Q 21.59375 70.90625 17.1875 69 
Q 12.796875 67.09375 9.84375 63.75 
Q 6.90625 60.40625 5.5 55.796875 
Q 4.09375 51.203125 4.40625 45.796875 
z
" id="HelveticaNeue-50"/>
        <path d="M 13.203125 34.90625 
Q 13.203125 37.5 13.25 40.640625 
Q 13.296875 43.796875 13.75 46.9375 
Q 14.203125 50.09375 15.046875 53.09375 
Q 15.90625 56.09375 17.546875 58.34375 
Q 19.203125 60.59375 21.703125 62 
Q 24.203125 63.40625 27.796875 63.40625 
Q 31.40625 63.40625 33.90625 62 
Q 36.40625 60.59375 38.046875 58.34375 
Q 39.703125 56.09375 40.546875 53.09375 
Q 41.40625 50.09375 41.84375 46.9375 
Q 42.296875 43.796875 42.34375 40.640625 
Q 42.40625 37.5 42.40625 34.90625 
Q 42.40625 30.90625 42.15625 25.953125 
Q 41.90625 21 40.546875 16.640625 
Q 39.203125 12.296875 36.203125 9.296875 
Q 33.203125 6.296875 27.796875 6.296875 
Q 22.40625 6.296875 19.40625 9.296875 
Q 16.40625 12.296875 15.046875 16.640625 
Q 13.703125 21 13.453125 25.953125 
Q 13.203125 30.90625 13.203125 34.90625 
z
M 4.203125 34.796875 
Q 4.203125 30.90625 4.390625 26.703125 
Q 4.59375 22.5 5.390625 18.5 
Q 6.203125 14.5 7.703125 10.953125 
Q 9.203125 7.40625 11.796875 4.703125 
Q 14.40625 2 18.34375 0.453125 
Q 22.296875 -1.09375 27.796875 -1.09375 
Q 33.40625 -1.09375 37.296875 0.453125 
Q 41.203125 2 43.796875 4.703125 
Q 46.40625 7.40625 47.90625 10.953125 
Q 49.40625 14.5 50.203125 18.5 
Q 51 22.5 51.203125 26.703125 
Q 51.40625 30.90625 51.40625 34.796875 
Q 51.40625 38.703125 51.203125 42.890625 
Q 51 47.09375 50.203125 51.09375 
Q 49.40625 55.09375 47.90625 58.6875 
Q 46.40625 62.296875 43.796875 65 
Q 41.203125 67.703125 37.25 69.296875 
Q 33.296875 70.90625 27.796875 70.90625 
Q 22.296875 70.90625 18.34375 69.296875 
Q 14.40625 67.703125 11.796875 65 
Q 9.203125 62.296875 7.703125 58.6875 
Q 6.203125 55.09375 5.390625 51.09375 
Q 4.59375 47.09375 4.390625 42.890625 
Q 4.203125 38.703125 4.203125 34.796875 
z
" id="HelveticaNeue-48"/>
        <path d="M 5 31.796875 
L 5 23.796875 
L 33.90625 23.796875 
L 33.90625 31.796875 
z
" id="HelveticaNeue-45"/>
        <path d="M 35.59375 0 
L 35.59375 70.90625 
L 29.09375 70.90625 
Q 28.40625 66.90625 26.5 64.296875 
Q 24.59375 61.703125 21.84375 60.203125 
Q 19.09375 58.703125 15.6875 58.140625 
Q 12.296875 57.59375 8.703125 57.59375 
L 8.703125 50.796875 
L 27.09375 50.796875 
L 27.09375 0 
z
" id="HelveticaNeue-49"/>
       </defs>
       <use xlink:href="#HelveticaNeue-50"/>
       <use x="55.599991" xlink:href="#HelveticaNeue-48"/>
       <use x="111.199982" xlink:href="#HelveticaNeue-50"/>
       <use x="166.799973" xlink:href="#HelveticaNeue-48"/>
       <use x="222.399963" xlink:href="#HelveticaNeue-45"/>
       <use x="261.299957" xlink:href="#HelveticaNeue-48"/>
       <use x="316.899948" xlink:href="#HelveticaNeue-49"/>
      </g>
     </g>
    </g>
    <g id="xtick_2">
     <g id="line2d_3">
      <path clip-path="url(#p6a2dc9d0d1)" d="M 151.60392 515.4355 
L 151.60392 31.5955 
" style="fill:none;stroke:#cbcbcb;"/>
     </g>
     <g id="line2d_4"/>
     <g id="text_2">
      <!-- 2020-03 -->
      <g style="fill:#555555;" transform="translate(125.531107 528.932375)scale(0.14 -0.14)">
       <defs>
        <path d="M 21.796875 40.5 
L 21.796875 33.296875 
Q 24.203125 33.59375 26.90625 33.59375 
Q 30.09375 33.59375 32.84375 32.75 
Q 35.59375 31.90625 37.59375 30.15625 
Q 39.59375 28.40625 40.796875 25.84375 
Q 42 23.296875 42 20 
Q 42 16.796875 40.75 14.25 
Q 39.5 11.703125 37.390625 9.953125 
Q 35.296875 8.203125 32.5 7.25 
Q 29.703125 6.296875 26.59375 6.296875 
Q 19.296875 6.296875 15.5 10.640625 
Q 11.703125 15 11.5 21.90625 
L 3 21.90625 
Q 2.90625 16.40625 4.546875 12.09375 
Q 6.203125 7.796875 9.296875 4.84375 
Q 12.40625 1.90625 16.796875 0.40625 
Q 21.203125 -1.09375 26.59375 -1.09375 
Q 31.59375 -1.09375 36.046875 0.25 
Q 40.5 1.59375 43.796875 4.296875 
Q 47.09375 7 49.046875 11.046875 
Q 51 15.09375 51 20.40625 
Q 51 26.796875 47.84375 31.5 
Q 44.703125 36.203125 38.203125 37.59375 
L 38.203125 37.796875 
Q 42.40625 39.703125 45.203125 43.390625 
Q 48 47.09375 48 51.90625 
Q 48 56.796875 46.34375 60.390625 
Q 44.703125 64 41.796875 66.296875 
Q 38.90625 68.59375 34.953125 69.75 
Q 31 70.90625 26.40625 70.90625 
Q 21.09375 70.90625 17.046875 69.203125 
Q 13 67.5 10.296875 64.5 
Q 7.59375 61.5 6.140625 57.296875 
Q 4.703125 53.09375 4.5 48 
L 13 48 
Q 13 51.09375 13.796875 53.890625 
Q 14.59375 56.703125 16.25 58.796875 
Q 17.90625 60.90625 20.453125 62.15625 
Q 23 63.40625 26.40625 63.40625 
Q 31.796875 63.40625 35.390625 60.546875 
Q 39 57.703125 39 52 
Q 39 49.203125 37.890625 47 
Q 36.796875 44.796875 34.9375 43.34375 
Q 33.09375 41.90625 30.640625 41.15625 
Q 28.203125 40.40625 25.5 40.40625 
L 23.703125 40.40625 
Q 23.203125 40.40625 22.703125 40.40625 
Q 22.296875 40.40625 21.796875 40.5 
z
" id="HelveticaNeue-51"/>
       </defs>
       <use xlink:href="#HelveticaNeue-50"/>
       <use x="55.599991" xlink:href="#HelveticaNeue-48"/>
       <use x="111.199982" xlink:href="#HelveticaNeue-50"/>
       <use x="166.799973" xlink:href="#HelveticaNeue-48"/>
       <use x="222.399963" xlink:href="#HelveticaNeue-45"/>
       <use x="261.299957" xlink:href="#HelveticaNeue-48"/>
       <use x="316.899948" xlink:href="#HelveticaNeue-51"/>
      </g>
     </g>
    </g>
    <g id="xtick_3">
     <g id="line2d_5">
      <path clip-path="url(#p6a2dc9d0d1)" d="M 217.895384 515.4355 
L 217.895384 31.5955 
" style="fill:none;stroke:#cbcbcb;"/>
     </g>
     <g id="line2d_6"/>
     <g id="text_3">
      <!-- 2020-05 -->
      <g style="fill:#555555;" transform="translate(191.822571 528.932375)scale(0.14 -0.14)">
       <defs>
        <path d="M 47 62.203125 
L 47 69.703125 
L 12 69.703125 
L 5.40625 32.90625 
L 12.703125 32.5 
Q 15.203125 35.5 18.453125 37.34375 
Q 21.703125 39.203125 25.90625 39.203125 
Q 29.5 39.203125 32.453125 38 
Q 35.40625 36.796875 37.5 34.640625 
Q 39.59375 32.5 40.75 29.546875 
Q 41.90625 26.59375 41.90625 23.09375 
Q 41.90625 18.90625 40.703125 15.75 
Q 39.5 12.59375 37.453125 10.5 
Q 35.40625 8.40625 32.65625 7.34375 
Q 29.90625 6.296875 26.90625 6.296875 
Q 23.703125 6.296875 21.046875 7.25 
Q 18.40625 8.203125 16.453125 9.953125 
Q 14.5 11.703125 13.34375 14.046875 
Q 12.203125 16.40625 12 19.09375 
L 3.5 19.09375 
Q 3.59375 14.296875 5.390625 10.5 
Q 7.203125 6.703125 10.296875 4.140625 
Q 13.40625 1.59375 17.453125 0.25 
Q 21.5 -1.09375 26.09375 -1.09375 
Q 32.296875 -1.09375 36.9375 0.84375 
Q 41.59375 2.796875 44.6875 6.09375 
Q 47.796875 9.40625 49.34375 13.65625 
Q 50.90625 17.90625 50.90625 22.40625 
Q 50.90625 28.5 49.09375 33.046875 
Q 47.296875 37.59375 44.1875 40.640625 
Q 41.09375 43.703125 36.890625 45.203125 
Q 32.703125 46.703125 28 46.703125 
Q 24.40625 46.703125 20.75 45.453125 
Q 17.09375 44.203125 14.796875 41.59375 
L 14.59375 41.796875 
L 18.40625 62.203125 
z
" id="HelveticaNeue-53"/>
       </defs>
       <use xlink:href="#HelveticaNeue-50"/>
       <use x="55.599991" xlink:href="#HelveticaNeue-48"/>
       <use x="111.199982" xlink:href="#HelveticaNeue-50"/>
       <use x="166.799973" xlink:href="#HelveticaNeue-48"/>
       <use x="222.399963" xlink:href="#HelveticaNeue-45"/>
       <use x="261.299957" xlink:href="#HelveticaNeue-48"/>
       <use x="316.899948" xlink:href="#HelveticaNeue-53"/>
      </g>
     </g>
    </g>
    <g id="xtick_4">
     <g id="line2d_7">
      <path clip-path="url(#p6a2dc9d0d1)" d="M 284.186848 515.4355 
L 284.186848 31.5955 
" style="fill:none;stroke:#cbcbcb;"/>
     </g>
     <g id="line2d_8"/>
     <g id="text_4">
      <!-- 2020-07 -->
      <g style="fill:#555555;" transform="translate(258.114036 528.932375)scale(0.14 -0.14)">
       <defs>
        <path d="M 50.90625 62.40625 
L 50.90625 69.703125 
L 5 69.703125 
L 5 61.703125 
L 42.203125 61.703125 
Q 36.59375 55.796875 31.75 48.796875 
Q 26.90625 41.796875 23.203125 33.9375 
Q 19.5 26.09375 17.140625 17.546875 
Q 14.796875 9 14.203125 0 
L 23.703125 0 
Q 24.203125 8.296875 26.5 17.09375 
Q 28.796875 25.90625 32.4375 34.203125 
Q 36.09375 42.5 40.796875 49.796875 
Q 45.5 57.09375 50.90625 62.40625 
z
" id="HelveticaNeue-55"/>
       </defs>
       <use xlink:href="#HelveticaNeue-50"/>
       <use x="55.599991" xlink:href="#HelveticaNeue-48"/>
       <use x="111.199982" xlink:href="#HelveticaNeue-50"/>
       <use x="166.799973" xlink:href="#HelveticaNeue-48"/>
       <use x="222.399963" xlink:href="#HelveticaNeue-45"/>
       <use x="261.299957" xlink:href="#HelveticaNeue-48"/>
       <use x="316.899948" xlink:href="#HelveticaNeue-55"/>
      </g>
     </g>
    </g>
    <g id="xtick_5">
     <g id="line2d_9">
      <path clip-path="url(#p6a2dc9d0d1)" d="M 351.565058 515.4355 
L 351.565058 31.5955 
" style="fill:none;stroke:#cbcbcb;"/>
     </g>
     <g id="line2d_10"/>
     <g id="text_5">
      <!-- 2020-09 -->
      <g style="fill:#555555;" transform="translate(325.492245 528.932375)scale(0.14 -0.14)">
       <defs>
        <path d="M 13.40625 17.09375 
L 4.90625 17.09375 
Q 5.703125 7.90625 11.59375 3.40625 
Q 17.5 -1.09375 26.40625 -1.09375 
Q 39.296875 -1.09375 45.140625 8.75 
Q 51 18.59375 51 37 
Q 51 47.09375 49.046875 53.640625 
Q 47.09375 60.203125 43.796875 64 
Q 40.5 67.796875 36.09375 69.34375 
Q 31.703125 70.90625 26.703125 70.90625 
Q 21.59375 70.90625 17.296875 69.203125 
Q 13 67.5 9.890625 64.453125 
Q 6.796875 61.40625 5.09375 57.15625 
Q 3.40625 52.90625 3.40625 47.796875 
Q 3.40625 42.59375 4.84375 38.1875 
Q 6.296875 33.796875 9.140625 30.6875 
Q 12 27.59375 16.203125 25.84375 
Q 20.40625 24.09375 25.796875 24.09375 
Q 31 24.09375 35.390625 26.75 
Q 39.796875 29.40625 42.203125 33.90625 
L 42.40625 33.703125 
Q 42 19.796875 38.09375 13.046875 
Q 34.203125 6.296875 26.40625 6.296875 
Q 21.296875 6.296875 17.59375 9.09375 
Q 13.90625 11.90625 13.40625 17.09375 
z
M 40.90625 47.203125 
Q 40.90625 44.09375 39.90625 41.25 
Q 38.90625 38.40625 37 36.25 
Q 35.09375 34.09375 32.390625 32.84375 
Q 29.703125 31.59375 26.40625 31.59375 
Q 23.296875 31.59375 20.75 32.84375 
Q 18.203125 34.09375 16.34375 36.1875 
Q 14.5 38.296875 13.453125 41 
Q 12.40625 43.703125 12.40625 46.59375 
Q 12.40625 49.90625 13.15625 52.90625 
Q 13.90625 55.90625 15.546875 58.25 
Q 17.203125 60.59375 19.84375 62 
Q 22.5 63.40625 26.296875 63.40625 
Q 29.90625 63.40625 32.59375 62.09375 
Q 35.296875 60.796875 37.140625 58.546875 
Q 39 56.296875 39.953125 53.390625 
Q 40.90625 50.5 40.90625 47.203125 
z
" id="HelveticaNeue-57"/>
       </defs>
       <use xlink:href="#HelveticaNeue-50"/>
       <use x="55.599991" xlink:href="#HelveticaNeue-48"/>
       <use x="111.199982" xlink:href="#HelveticaNeue-50"/>
       <use x="166.799973" xlink:href="#HelveticaNeue-48"/>
       <use x="222.399963" xlink:href="#HelveticaNeue-45"/>
       <use x="261.299957" xlink:href="#HelveticaNeue-48"/>
       <use x="316.899948" xlink:href="#HelveticaNeue-57"/>
      </g>
     </g>
    </g>
    <g id="xtick_6">
     <g id="line2d_11">
      <path clip-path="url(#p6a2dc9d0d1)" d="M 417.856522 515.4355 
L 417.856522 31.5955 
" style="fill:none;stroke:#cbcbcb;"/>
     </g>
     <g id="line2d_12"/>
     <g id="text_6">
      <!-- 2020-11 -->
      <g style="fill:#555555;" transform="translate(391.783709 528.932375)scale(0.14 -0.14)">
       <use xlink:href="#HelveticaNeue-50"/>
       <use x="55.599991" xlink:href="#HelveticaNeue-48"/>
       <use x="111.199982" xlink:href="#HelveticaNeue-50"/>
       <use x="166.799973" xlink:href="#HelveticaNeue-48"/>
       <use x="222.399963" xlink:href="#HelveticaNeue-45"/>
       <use x="261.299957" xlink:href="#HelveticaNeue-49"/>
       <use x="316.899948" xlink:href="#HelveticaNeue-49"/>
      </g>
     </g>
    </g>
    <g id="xtick_7">
     <g id="line2d_13">
      <path clip-path="url(#p6a2dc9d0d1)" d="M 484.147986 515.4355 
L 484.147986 31.5955 
" style="fill:none;stroke:#cbcbcb;"/>
     </g>
     <g id="line2d_14"/>
     <g id="text_7">
      <!-- 2021-01 -->
      <g style="fill:#555555;" transform="translate(458.075174 528.932375)scale(0.14 -0.14)">
       <use xlink:href="#HelveticaNeue-50"/>
       <use x="55.599991" xlink:href="#HelveticaNeue-48"/>
       <use x="111.199982" xlink:href="#HelveticaNeue-50"/>
       <use x="166.799973" xlink:href="#HelveticaNeue-49"/>
       <use x="222.399963" xlink:href="#HelveticaNeue-45"/>
       <use x="261.299957" xlink:href="#HelveticaNeue-48"/>
       <use x="316.899948" xlink:href="#HelveticaNeue-49"/>
      </g>
     </g>
    </g>
    <g id="xtick_8">
     <g id="line2d_15">
      <path clip-path="url(#p6a2dc9d0d1)" d="M 548.26596 515.4355 
L 548.26596 31.5955 
" style="fill:none;stroke:#cbcbcb;"/>
     </g>
     <g id="line2d_16"/>
     <g id="text_8">
      <!-- 2021-03 -->
      <g style="fill:#555555;" transform="translate(522.193147 528.932375)scale(0.14 -0.14)">
       <use xlink:href="#HelveticaNeue-50"/>
       <use x="55.599991" xlink:href="#HelveticaNeue-48"/>
       <use x="111.199982" xlink:href="#HelveticaNeue-50"/>
       <use x="166.799973" xlink:href="#HelveticaNeue-49"/>
       <use x="222.399963" xlink:href="#HelveticaNeue-45"/>
       <use x="261.299957" xlink:href="#HelveticaNeue-48"/>
       <use x="316.899948" xlink:href="#HelveticaNeue-51"/>
      </g>
     </g>
    </g>
    <g id="xtick_9">
     <g id="line2d_17">
      <path clip-path="url(#p6a2dc9d0d1)" d="M 614.557424 515.4355 
L 614.557424 31.5955 
" style="fill:none;stroke:#cbcbcb;"/>
     </g>
     <g id="line2d_18"/>
     <g id="text_9">
      <!-- 2021-05 -->
      <g style="fill:#555555;" transform="translate(588.484612 528.932375)scale(0.14 -0.14)">
       <use xlink:href="#HelveticaNeue-50"/>
       <use x="55.599991" xlink:href="#HelveticaNeue-48"/>
       <use x="111.199982" xlink:href="#HelveticaNeue-50"/>
       <use x="166.799973" xlink:href="#HelveticaNeue-49"/>
       <use x="222.399963" xlink:href="#HelveticaNeue-45"/>
       <use x="261.299957" xlink:href="#HelveticaNeue-48"/>
       <use x="316.899948" xlink:href="#HelveticaNeue-53"/>
      </g>
     </g>
    </g>
    <g id="xtick_10">
     <g id="line2d_19">
      <path clip-path="url(#p6a2dc9d0d1)" d="M 680.848888 515.4355 
L 680.848888 31.5955 
" style="fill:none;stroke:#cbcbcb;"/>
     </g>
     <g id="line2d_20"/>
     <g id="text_10">
      <!-- 2021-07 -->
      <g style="fill:#555555;" transform="translate(654.776076 528.932375)scale(0.14 -0.14)">
       <use xlink:href="#HelveticaNeue-50"/>
       <use x="55.599991" xlink:href="#HelveticaNeue-48"/>
       <use x="111.199982" xlink:href="#HelveticaNeue-50"/>
       <use x="166.799973" xlink:href="#HelveticaNeue-49"/>
       <use x="222.399963" xlink:href="#HelveticaNeue-45"/>
       <use x="261.299957" xlink:href="#HelveticaNeue-48"/>
       <use x="316.899948" xlink:href="#HelveticaNeue-55"/>
      </g>
     </g>
    </g>
   </g>
   <g id="matplotlib.axis_2">
    <g id="ytick_1">
     <g id="line2d_21">
      <path clip-path="url(#p6a2dc9d0d1)" d="M 80.748125 497.215636 
L 707.148125 497.215636 
" style="fill:none;stroke:#cbcbcb;"/>
     </g>
     <g id="line2d_22"/>
     <g id="text_11">
      <!-- 1 -->
      <g style="fill:#555555;" transform="translate(69.465 502.214073)scale(0.14 -0.14)">
       <use xlink:href="#HelveticaNeue-49"/>
      </g>
     </g>
    </g>
    <g id="ytick_2">
     <g id="line2d_23">
      <path clip-path="url(#p6a2dc9d0d1)" d="M 80.748125 430.698473 
L 707.148125 430.698473 
" style="fill:none;stroke:#cbcbcb;"/>
     </g>
     <g id="line2d_24"/>
     <g id="text_12">
      <!-- 10 -->
      <g style="fill:#555555;" transform="translate(61.681875 435.696911)scale(0.14 -0.14)">
       <use xlink:href="#HelveticaNeue-49"/>
       <use x="55.599991" xlink:href="#HelveticaNeue-48"/>
      </g>
     </g>
    </g>
    <g id="ytick_3">
     <g id="line2d_25">
      <path clip-path="url(#p6a2dc9d0d1)" d="M 80.748125 364.181311 
L 707.148125 364.181311 
" style="fill:none;stroke:#cbcbcb;"/>
     </g>
     <g id="line2d_26"/>
     <g id="text_13">
      <!-- 100 -->
      <g style="fill:#555555;" transform="translate(53.89875 369.179749)scale(0.14 -0.14)">
       <use xlink:href="#HelveticaNeue-49"/>
       <use x="55.599991" xlink:href="#HelveticaNeue-48"/>
       <use x="111.199982" xlink:href="#HelveticaNeue-48"/>
      </g>
     </g>
    </g>
    <g id="ytick_4">
     <g id="line2d_27">
      <path clip-path="url(#p6a2dc9d0d1)" d="M 80.748125 297.664149 
L 707.148125 297.664149 
" style="fill:none;stroke:#cbcbcb;"/>
     </g>
     <g id="line2d_28"/>
     <g id="text_14">
      <!-- 1,000 -->
      <g style="fill:#555555;" transform="translate(42.224063 302.662586)scale(0.14 -0.14)">
       <defs>
        <path d="M 8.296875 11.09375 
L 8.296875 0 
L 14.203125 0 
Q 14.296875 -1.203125 14.046875 -2.59375 
Q 13.796875 -4 13.09375 -5.34375 
Q 12.40625 -6.703125 11.25 -7.84375 
Q 10.09375 -9 8.40625 -9.59375 
L 8.40625 -14.59375 
Q 14.203125 -12.90625 16.796875 -8.796875 
Q 19.40625 -4.703125 19.40625 1 
L 19.40625 11.09375 
z
" id="HelveticaNeue-44"/>
       </defs>
       <use xlink:href="#HelveticaNeue-49"/>
       <use x="55.599991" xlink:href="#HelveticaNeue-44"/>
       <use x="83.399979" xlink:href="#HelveticaNeue-48"/>
       <use x="138.999969" xlink:href="#HelveticaNeue-48"/>
       <use x="194.59996" xlink:href="#HelveticaNeue-48"/>
      </g>
     </g>
    </g>
    <g id="ytick_5">
     <g id="line2d_29">
      <path clip-path="url(#p6a2dc9d0d1)" d="M 80.748125 231.146987 
L 707.148125 231.146987 
" style="fill:none;stroke:#cbcbcb;"/>
     </g>
     <g id="line2d_30"/>
     <g id="text_15">
      <!-- 10,000 -->
      <g style="fill:#555555;" transform="translate(34.440938 236.145424)scale(0.14 -0.14)">
       <use xlink:href="#HelveticaNeue-49"/>
       <use x="55.599991" xlink:href="#HelveticaNeue-48"/>
       <use x="111.199982" xlink:href="#HelveticaNeue-44"/>
       <use x="138.999969" xlink:href="#HelveticaNeue-48"/>
       <use x="194.59996" xlink:href="#HelveticaNeue-48"/>
       <use x="250.199951" xlink:href="#HelveticaNeue-48"/>
      </g>
     </g>
    </g>
    <g id="ytick_6">
     <g id="line2d_31">
      <path clip-path="url(#p6a2dc9d0d1)" d="M 80.748125 164.629824 
L 707.148125 164.629824 
" style="fill:none;stroke:#cbcbcb;"/>
     </g>
     <g id="line2d_32"/>
     <g id="text_16">
      <!-- 100,000 -->
      <g style="fill:#555555;" transform="translate(26.657813 169.628262)scale(0.14 -0.14)">
       <use xlink:href="#HelveticaNeue-49"/>
       <use x="55.599991" xlink:href="#HelveticaNeue-48"/>
       <use x="111.199982" xlink:href="#HelveticaNeue-48"/>
       <use x="166.799973" xlink:href="#HelveticaNeue-44"/>
       <use x="194.59996" xlink:href="#HelveticaNeue-48"/>
       <use x="250.199951" xlink:href="#HelveticaNeue-48"/>
       <use x="305.799942" xlink:href="#HelveticaNeue-48"/>
      </g>
     </g>
    </g>
    <g id="ytick_7">
     <g id="line2d_33">
      <path clip-path="url(#p6a2dc9d0d1)" d="M 80.748125 98.112662 
L 707.148125 98.112662 
" style="fill:none;stroke:#cbcbcb;"/>
     </g>
     <g id="line2d_34"/>
     <g id="text_17">
      <!-- 1,000,000 -->
      <g style="fill:#555555;" transform="translate(14.983125 103.1111)scale(0.14 -0.14)">
       <use xlink:href="#HelveticaNeue-49"/>
       <use x="55.599991" xlink:href="#HelveticaNeue-44"/>
       <use x="83.399979" xlink:href="#HelveticaNeue-48"/>
       <use x="138.999969" xlink:href="#HelveticaNeue-48"/>
       <use x="194.59996" xlink:href="#HelveticaNeue-48"/>
       <use x="250.199951" xlink:href="#HelveticaNeue-44"/>
       <use x="277.999939" xlink:href="#HelveticaNeue-48"/>
       <use x="333.59993" xlink:href="#HelveticaNeue-48"/>
       <use x="389.199921" xlink:href="#HelveticaNeue-48"/>
      </g>
     </g>
    </g>
    <g id="ytick_8">
     <g id="line2d_35">
      <path clip-path="url(#p6a2dc9d0d1)" d="M 80.748125 31.5955 
L 707.148125 31.5955 
" style="fill:none;stroke:#cbcbcb;"/>
     </g>
     <g id="line2d_36"/>
     <g id="text_18">
      <!-- 10,000,000 -->
      <g style="fill:#555555;" transform="translate(7.2 36.593937)scale(0.14 -0.14)">
       <use xlink:href="#HelveticaNeue-49"/>
       <use x="55.599991" xlink:href="#HelveticaNeue-48"/>
       <use x="111.199982" xlink:href="#HelveticaNeue-44"/>
       <use x="138.999969" xlink:href="#HelveticaNeue-48"/>
       <use x="194.59996" xlink:href="#HelveticaNeue-48"/>
       <use x="250.199951" xlink:href="#HelveticaNeue-48"/>
       <use x="305.799942" xlink:href="#HelveticaNeue-44"/>
       <use x="333.59993" xlink:href="#HelveticaNeue-48"/>
       <use x="389.199921" xlink:href="#HelveticaNeue-48"/>
       <use x="444.799911" xlink:href="#HelveticaNeue-48"/>
      </g>
     </g>
    </g>
    <g id="ytick_9">
     <g id="line2d_37"/>
    </g>
    <g id="ytick_10">
     <g id="line2d_38"/>
    </g>
    <g id="ytick_11">
     <g id="line2d_39"/>
    </g>
    <g id="ytick_12">
     <g id="line2d_40"/>
    </g>
    <g id="ytick_13">
     <g id="line2d_41"/>
    </g>
    <g id="ytick_14">
     <g id="line2d_42"/>
    </g>
    <g id="ytick_15">
     <g id="line2d_43"/>
    </g>
    <g id="ytick_16">
     <g id="line2d_44"/>
    </g>
    <g id="ytick_17">
     <g id="line2d_45"/>
    </g>
    <g id="ytick_18">
     <g id="line2d_46"/>
    </g>
    <g id="ytick_19">
     <g id="line2d_47"/>
    </g>
    <g id="ytick_20">
     <g id="line2d_48"/>
    </g>
    <g id="ytick_21">
     <g id="line2d_49"/>
    </g>
    <g id="ytick_22">
     <g id="line2d_50"/>
    </g>
    <g id="ytick_23">
     <g id="line2d_51"/>
    </g>
    <g id="ytick_24">
     <g id="line2d_52"/>
    </g>
    <g id="ytick_25">
     <g id="line2d_53"/>
    </g>
    <g id="ytick_26">
     <g id="line2d_54"/>
    </g>
    <g id="ytick_27">
     <g id="line2d_55"/>
    </g>
    <g id="ytick_28">
     <g id="line2d_56"/>
    </g>
    <g id="ytick_29">
     <g id="line2d_57"/>
    </g>
    <g id="ytick_30">
     <g id="line2d_58"/>
    </g>
    <g id="ytick_31">
     <g id="line2d_59"/>
    </g>
    <g id="ytick_32">
     <g id="line2d_60"/>
    </g>
    <g id="ytick_33">
     <g id="line2d_61"/>
    </g>
    <g id="ytick_34">
     <g id="line2d_62"/>
    </g>
    <g id="ytick_35">
     <g id="line2d_63"/>
    </g>
    <g id="ytick_36">
     <g id="line2d_64"/>
    </g>
    <g id="ytick_37">
     <g id="line2d_65"/>
    </g>
    <g id="ytick_38">
     <g id="line2d_66"/>
    </g>
    <g id="ytick_39">
     <g id="line2d_67"/>
    </g>
    <g id="ytick_40">
     <g id="line2d_68"/>
    </g>
    <g id="ytick_41">
     <g id="line2d_69"/>
    </g>
    <g id="ytick_42">
     <g id="line2d_70"/>
    </g>
    <g id="ytick_43">
     <g id="line2d_71"/>
    </g>
    <g id="ytick_44">
     <g id="line2d_72"/>
    </g>
    <g id="ytick_45">
     <g id="line2d_73"/>
    </g>
    <g id="ytick_46">
     <g id="line2d_74"/>
    </g>
    <g id="ytick_47">
     <g id="line2d_75"/>
    </g>
    <g id="ytick_48">
     <g id="line2d_76"/>
    </g>
    <g id="ytick_49">
     <g id="line2d_77"/>
    </g>
    <g id="ytick_50">
     <g id="line2d_78"/>
    </g>
    <g id="ytick_51">
     <g id="line2d_79"/>
    </g>
    <g id="ytick_52">
     <g id="line2d_80"/>
    </g>
    <g id="ytick_53">
     <g id="line2d_81"/>
    </g>
    <g id="ytick_54">
     <g id="line2d_82"/>
    </g>
    <g id="ytick_55">
     <g id="line2d_83"/>
    </g>
    <g id="ytick_56">
     <g id="line2d_84"/>
    </g>
    <g id="ytick_57">
     <g id="line2d_85"/>
    </g>
    <g id="ytick_58">
     <g id="line2d_86"/>
    </g>
    <g id="ytick_59">
     <g id="line2d_87"/>
    </g>
    <g id="ytick_60">
     <g id="line2d_88"/>
    </g>
    <g id="ytick_61">
     <g id="line2d_89"/>
    </g>
    <g id="ytick_62">
     <g id="line2d_90"/>
    </g>
    <g id="ytick_63">
     <g id="line2d_91"/>
    </g>
    <g id="ytick_64">
     <g id="line2d_92"/>
    </g>
    <g id="ytick_65">
     <g id="line2d_93"/>
    </g>
    <g id="ytick_66">
     <g id="line2d_94"/>
    </g>
    <g id="ytick_67">
     <g id="line2d_95"/>
    </g>
    <g id="ytick_68">
     <g id="line2d_96"/>
    </g>
   </g>
   <g id="line2d_97">
    <path clip-path="url(#p6a2dc9d0d1)" d="M 111.393646 539.890812 
L 111.394343 497.215636 
L 112.481088 497.215636 
L 113.567834 477.191975 
L 113.568858 539.890812 
M 117.914118 539.890812 
L 117.914815 497.215636 
L 120.088305 497.215636 
L 121.175051 465.478884 
L 121.176266 539.890812 
M 124.434589 539.890812 
L 124.435287 497.215636 
L 124.435984 539.890812 
M 129.868316 539.890812 
L 129.869013 497.215636 
L 129.86971 539.890812 
M 132.041807 539.890812 
L 132.042504 497.215636 
L 133.129249 497.215636 
L 133.129946 539.890812 
M 137.474448 539.890812 
L 137.47623 430.698473 
L 137.478013 539.890812 
M 140.735442 539.890812 
L 140.736466 477.191975 
L 141.823212 465.478884 
L 141.824427 539.890812 
M 145.081542 539.890812 
L 145.083448 423.119285 
L 146.170193 477.191975 
L 147.256938 418.985383 
L 147.258911 539.890812 
M 149.428973 539.890812 
L 149.430429 450.722135 
L 150.517174 450.722135 
L 151.60392 413.718471 
L 152.690665 417.120991 
L 153.77741 409.26536 
L 154.864156 393.69481 
L 155.950901 375.750322 
L 157.037646 369.564007 
L 158.124391 359.645781 
L 159.211137 359.156142 
L 160.297882 344.01357 
L 161.384627 335.488218 
L 162.471373 338.295088 
L 163.558118 323.775127 
L 164.644863 314.62105 
L 165.731609 309.061206 
L 166.818354 307.885368 
L 167.905099 300.483992 
L 168.991845 287.964768 
L 171.165335 257.307938 
L 172.252081 247.798957 
L 173.338826 243.520438 
L 174.425571 235.689306 
L 175.512317 229.925228 
L 176.599062 229.922458 
L 177.685807 220.147506 
L 178.772552 215.821577 
L 179.859298 215.262784 
L 180.946043 209.623225 
L 182.032788 213.344268 
L 184.206279 205.253689 
L 187.466515 197.260186 
L 188.55326 194.875528 
L 189.640006 203.973973 
L 190.726751 198.541385 
L 191.813496 199.087535 
L 192.900242 197.708798 
L 193.986987 195.206636 
L 195.073732 196.245788 
L 196.160478 197.799726 
L 197.247223 202.301297 
L 198.333968 203.801943 
L 199.420713 202.786407 
L 200.507459 199.378475 
L 201.594204 197.897338 
L 202.680949 197.99253 
L 204.85444 204.293758 
L 205.941185 202.034334 
L 207.027931 204.089232 
L 208.114676 200.558424 
L 209.201421 195.985468 
L 210.288167 193.554748 
L 211.374912 195.449924 
L 212.461657 202.738825 
L 213.548403 206.839499 
L 214.635148 205.083265 
L 215.721893 202.933978 
L 216.808639 199.068497 
L 217.895384 195.820018 
L 218.982129 199.921231 
L 220.068874 203.389004 
L 221.15562 208.419942 
L 222.242365 206.208822 
L 223.32911 205.253689 
L 224.415856 200.914306 
L 225.502601 201.768769 
L 226.589346 204.83008 
L 227.676092 210.669041 
L 228.762837 214.781733 
L 229.849582 207.978736 
L 230.936328 209.515094 
L 232.023073 202.494579 
L 233.109818 203.282005 
L 234.196564 206.269809 
L 235.283309 212.58381 
L 236.370054 208.598065 
L 237.4568 209.74553 
L 238.543545 206.998091 
L 239.63029 203.842329 
L 240.717035 206.09937 
L 241.803781 208.020219 
L 242.890526 211.078584 
L 243.977271 212.453445 
L 246.150762 212.996962 
L 247.237507 207.705402 
L 248.324253 205.204222 
L 249.410998 206.591499 
L 250.497743 210.22179 
L 251.584489 208.505568 
L 252.671234 210.002819 
L 253.757979 211.142109 
L 254.844725 208.878682 
L 255.93147 200.680925 
L 257.018215 207.70027 
L 258.104961 213.194911 
L 259.191706 213.836667 
L 260.278451 212.903103 
L 261.365196 207.272366 
L 262.451942 206.833273 
L 263.538687 204.113019 
L 264.625432 204.293758 
L 265.712178 212.408106 
L 266.798923 210.954823 
L 267.885668 204.810338 
L 268.972414 203.930025 
L 271.145904 198.616234 
L 272.23265 197.523284 
L 273.319395 203.126078 
L 275.492886 194.907644 
L 276.579631 193.36041 
L 278.753122 187.360164 
L 280.926612 191.457191 
L 282.013357 191.465966 
L 283.100103 185.599583 
L 284.186848 184.667933 
L 285.273593 181.608036 
L 286.360339 180.790393 
L 287.447084 184.650019 
L 288.533829 187.847108 
L 289.620575 186.247369 
L 290.70732 182.38533 
L 291.794065 179.650172 
L 292.880811 179.440066 
L 293.967556 175.674582 
L 295.054301 179.041505 
L 296.141047 180.46321 
L 298.314537 176.807981 
L 299.401283 175.625931 
L 300.488028 172.676985 
L 301.574773 174.555043 
L 302.661518 178.229964 
L 303.748264 178.311491 
L 304.835009 179.440548 
L 305.921754 176.951451 
L 307.0085 175.041376 
L 308.095245 174.930987 
L 309.18199 173.514187 
L 310.268736 176.295578 
L 311.355481 182.314378 
L 312.442226 179.783611 
L 313.528972 177.92398 
L 314.615717 176.292982 
L 315.702462 175.370905 
L 316.789208 175.312306 
L 317.875953 180.955639 
L 318.962698 184.198348 
L 320.049444 186.14498 
L 321.136189 182.672514 
L 322.222934 182.578798 
L 324.396425 178.834819 
L 325.48317 181.774379 
L 326.569915 185.545307 
L 327.656661 186.334807 
L 328.743406 182.776278 
L 329.830151 182.281894 
L 330.916897 182.397618 
L 332.003642 179.639485 
L 333.090387 184.227368 
L 334.177133 189.596136 
L 335.263878 192.946343 
L 336.350623 188.854352 
L 337.437369 189.00173 
L 339.610859 185.22001 
L 340.697605 187.680458 
L 341.78435 197.246781 
L 342.871095 190.809359 
L 343.95784 191.695812 
L 345.044586 187.493082 
L 346.131331 187.306914 
L 347.218076 186.710178 
L 348.304822 187.949246 
L 349.391567 196.283786 
L 350.478312 193.755152 
L 351.565058 188.314188 
L 352.651803 197.147777 
L 353.738548 186.81397 
L 354.825294 183.464421 
L 355.912039 189.516719 
L 356.998784 199.41505 
L 358.08553 204.487112 
L 361.345766 192.535091 
L 362.432511 186.094529 
L 363.519256 191.754114 
L 364.606001 196.3582 
L 365.692747 193.440181 
L 366.779492 191.670756 
L 367.866237 191.633213 
L 368.952983 187.49882 
L 370.039728 185.303798 
L 371.126473 189.820502 
L 372.213219 193.859056 
L 373.299964 181.925384 
L 374.386709 193.048146 
L 375.473455 190.002093 
L 376.5602 187.566481 
L 377.646945 182.121078 
L 378.733691 189.216096 
L 379.820436 193.120087 
L 380.907181 193.072106 
L 381.993927 188.545962 
L 383.080672 189.650347 
L 384.167417 186.800898 
L 385.254162 182.655795 
L 386.340908 185.966065 
L 387.427653 194.905173 
L 388.514398 178.247547 
L 389.601144 189.103322 
L 390.687889 182.960947 
L 391.774634 181.183254 
L 392.86138 179.89071 
L 395.03487 187.836785 
L 396.121616 185.823125 
L 397.208361 182.220753 
L 399.381852 176.917395 
L 400.468597 174.742609 
L 401.555342 183.100774 
L 402.642088 185.903857 
L 403.728833 176.879406 
L 404.815578 179.101989 
L 405.902323 177.415404 
L 406.989069 172.890365 
L 408.075814 169.223915 
L 409.162559 171.593739 
L 410.249305 179.524119 
L 411.33605 173.080165 
L 412.422795 173.177476 
L 415.683031 164.667982 
L 416.769777 169.595451 
L 417.856522 173.252136 
L 418.943267 166.41544 
L 420.030013 166.908226 
L 421.116758 162.385715 
L 422.203503 159.039975 
L 423.290249 156.430035 
L 424.376994 157.969285 
L 425.463739 163.660328 
L 426.550484 156.951033 
L 427.63723 154.961434 
L 428.723975 154.321968 
L 429.81072 150.400562 
L 430.897466 147.410722 
L 431.984211 151.227464 
L 433.070956 155.920618 
L 434.157702 149.891049 
L 435.244447 150.759356 
L 436.331192 148.916152 
L 437.417938 146.469322 
L 438.504683 144.771442 
L 439.591428 148.974396 
L 440.678174 154.746429 
L 441.764919 147.71039 
L 442.851664 147.995651 
L 443.93841 147.555288 
L 445.025155 163.777612 
L 446.1119 143.774854 
L 447.198645 152.646836 
L 448.285391 155.721293 
L 449.372136 149.701758 
L 451.545627 144.437374 
L 452.632372 142.151399 
L 453.719117 140.397403 
L 454.805863 143.793245 
L 455.892608 148.976412 
L 456.979353 143.960138 
L 458.066099 141.890418 
L 459.152844 141.890155 
L 460.239589 141.174769 
L 461.326335 134.833263 
L 462.41308 143.538225 
L 463.499825 146.980532 
L 464.586571 144.478616 
L 465.673316 144.154296 
L 466.760061 138.764007 
L 467.846806 139.616337 
L 468.933552 138.022804 
L 470.020297 145.50022 
L 471.107042 147.664109 
L 472.193788 144.387731 
L 473.280533 144.370677 
L 474.367278 140.851058 
L 475.454024 145.558978 
L 476.540769 164.362121 
L 477.627514 142.267988 
L 478.71426 152.517195 
L 479.801005 146.238841 
L 480.88775 144.457772 
L 481.974496 140.701024 
L 483.061241 140.440386 
L 484.147986 153.451655 
L 485.234732 133.712487 
L 486.321477 144.350197 
L 487.408222 137.949294 
L 488.494967 139.945477 
L 491.755203 132.818349 
L 493.928694 143.432212 
L 495.015439 141.035172 
L 496.102185 140.571604 
L 497.18893 140.65362 
L 498.275675 139.396844 
L 499.362421 139.356951 
L 501.535911 149.285047 
L 502.622657 154.676956 
L 503.709402 146.556344 
L 504.796147 146.782218 
L 505.882893 146.014734 
L 506.969638 145.850954 
L 508.056383 149.657166 
L 509.143128 157.122724 
L 510.229874 151.677257 
L 511.316619 152.794124 
L 512.403364 151.826347 
L 513.49011 149.958421 
L 514.576855 150.230894 
L 515.6636 156.218323 
L 516.750346 160.89667 
L 517.837091 154.529753 
L 518.923836 160.528141 
L 521.097327 158.037036 
L 522.184072 157.161735 
L 523.270818 163.234958 
L 524.357563 168.559677 
L 525.444308 166.731841 
L 526.531054 165.691972 
L 527.617799 166.11919 
L 528.704544 163.044827 
L 529.791289 164.737778 
L 530.878035 169.443191 
L 531.96478 177.621656 
L 533.051525 181.757649 
L 534.138271 177.279462 
L 535.225016 174.867097 
L 536.311761 174.203639 
L 537.398507 171.802941 
L 538.485252 175.049247 
L 539.571997 181.805773 
L 540.658743 179.644828 
L 541.745488 174.154589 
L 542.832233 173.252525 
L 543.918979 171.851492 
L 545.005724 171.68985 
L 547.179215 184.135288 
L 548.26596 181.022818 
L 549.352705 180.543782 
L 550.43945 176.366613 
L 551.526196 176.077502 
L 552.612941 176.767057 
L 553.699686 181.079431 
L 554.786432 191.053481 
L 555.873177 166.260057 
L 556.959922 181.431791 
L 558.046668 180.268962 
L 559.133413 178.259583 
L 560.220158 177.447351 
L 562.393649 192.589791 
L 563.480394 180.785339 
L 564.56714 182.147554 
L 565.653885 179.905902 
L 566.74063 179.161166 
L 567.827376 179.088166 
L 568.914121 182.203763 
L 570.000866 195.630999 
L 571.087611 182.049715 
L 572.174357 180.997353 
L 573.261102 171.111052 
L 574.347847 175.300601 
L 575.434593 173.134014 
L 576.521338 179.051497 
L 577.608083 188.010183 
L 578.694829 174.630087 
L 579.781574 178.330516 
L 580.868319 175.798058 
L 581.955065 172.107822 
L 583.04181 175.521712 
L 584.128555 177.460861 
L 585.215301 193.490346 
L 586.302046 172.332861 
L 587.388791 178.452389 
L 588.475537 173.685607 
L 589.562282 170.911091 
L 590.649027 170.510318 
L 591.735772 177.18205 
L 592.822518 185.846598 
L 593.909263 174.146958 
L 594.996008 172.05996 
L 596.082754 172.652949 
L 597.169499 173.447863 
L 598.256244 171.676575 
L 599.34299 182.497716 
L 600.429735 190.106573 
L 601.51648 174.826364 
L 602.603226 178.897711 
L 603.689971 178.209618 
L 604.776716 176.527957 
L 605.863462 177.619845 
L 606.950207 184.384351 
L 608.036952 196.144131 
L 609.123698 186.235771 
L 610.210443 183.588888 
L 612.383933 180.57487 
L 613.470679 180.109562 
L 614.557424 187.852271 
L 615.644169 199.766786 
L 616.730915 184.685858 
L 617.81766 190.418067 
L 618.904405 187.878099 
L 619.991151 186.017504 
L 621.077896 186.139506 
L 622.164641 196.079703 
L 623.251387 207.942486 
L 624.338132 193.699783 
L 625.424877 195.759703 
L 626.511623 194.561195 
L 627.598368 192.249607 
L 628.685113 190.399734 
L 629.771859 200.33982 
L 630.858604 216.315226 
L 631.945349 200.184116 
L 633.032094 201.544995 
L 635.205585 199.780438 
L 636.29233 200.378629 
L 637.379076 213.664239 
L 638.465821 221.119096 
L 639.552566 203.960444 
L 640.639312 207.29007 
L 641.726057 206.605084 
L 642.812802 201.665514 
L 643.899548 208.779956 
L 644.986293 227.031771 
L 646.073038 239.677945 
L 647.159784 248.119479 
L 648.246529 207.554377 
L 649.333274 216.057065 
L 650.42002 211.847301 
L 650.425356 539.890812 
M 652.588466 539.890812 
L 652.59351 229.880955 
L 653.680255 245.20451 
L 654.767001 211.924419 
L 655.853746 221.061989 
L 656.940491 210.175626 
L 658.027237 217.920085 
L 659.113982 216.132553 
L 660.200727 236.606355 
L 661.287473 242.343299 
L 662.374218 219.238122 
L 663.460963 226.141244 
L 664.547709 220.469083 
L 665.634454 225.48557 
L 666.721199 224.21043 
L 667.807945 239.181554 
L 668.89469 257.165386 
L 669.981435 217.870784 
L 671.068181 224.067639 
L 672.154926 221.369246 
L 673.241671 220.003759 
L 674.328416 219.52069 
L 675.415162 242.411481 
L 676.501907 256.995247 
L 677.588652 218.356494 
L 678.675398 229.403818 
L 678.675398 229.403818 
" style="fill:none;stroke:#008fd5;stroke-width:4;"/>
   </g>
   <g id="line2d_98">
    <path clip-path="url(#p6a2dc9d0d1)" d="M 151.602896 539.890812 
L 151.60392 477.191975 
L 151.604944 539.890812 
M 153.776713 539.890812 
L 153.77741 497.215636 
L 153.778107 539.890812 
M 155.950204 539.890812 
L 155.950901 497.215636 
L 157.037646 465.478884 
L 158.124391 450.722135 
L 159.211137 497.215636 
L 160.297882 497.215636 
L 161.384627 433.742132 
L 162.471373 465.478884 
L 163.558118 410.674812 
L 164.644863 405.407901 
L 164.647058 539.890812 
M 166.815932 539.890812 
L 166.818354 391.382533 
L 167.905099 397.09733 
L 168.991845 374.900612 
L 170.07859 359.893749 
L 171.165335 361.958058 
L 172.252081 356.602123 
L 173.338826 344.15765 
L 174.425571 339.376263 
L 175.512317 341.142894 
L 176.599062 338.295088 
L 177.685807 317.457625 
L 178.772552 317.286182 
L 179.859298 307.153986 
L 180.946043 302.700876 
L 182.032788 300.547762 
L 183.119534 305.897787 
L 184.206279 296.337352 
L 185.293024 296.894516 
L 186.37977 291.660439 
L 187.466515 290.987785 
L 188.55326 290.600632 
L 189.640006 303.93034 
L 190.726751 290.555424 
L 191.813496 294.441938 
L 192.900242 299.115519 
L 193.986987 294.159097 
L 195.073732 293.85367 
L 196.160478 297.148789 
L 197.247223 301.455654 
L 198.333968 293.476372 
L 199.420713 311.990795 
L 200.507459 300.51586 
L 201.594204 303.894476 
L 202.680949 287.677118 
L 203.767695 306.401548 
L 204.85444 303.326634 
L 205.941185 306.206753 
L 207.027931 303.715824 
L 208.114676 321.380665 
L 209.201421 289.231065 
L 210.288167 301.193332 
L 211.374912 331.8725 
L 212.461657 308.425347 
L 213.548403 311.943399 
L 214.635148 307.639511 
L 215.721893 328.240128 
L 216.808639 317.803594 
L 217.895384 296.614591 
L 218.982129 306.558336 
L 220.068874 311.707577 
L 221.15562 303.432258 
L 222.242365 315.357762 
L 223.32911 314.259623 
L 224.415856 303.186401 
L 225.502601 326.308174 
L 226.589346 304.038198 
L 227.676092 312.662641 
L 228.762837 325.163188 
L 229.849582 299.420892 
L 230.936328 318.927323 
L 232.023073 303.822882 
L 233.109818 299.822765 
L 234.196564 309.104099 
L 235.283309 304.953032 
L 236.370054 302.223377 
L 237.4568 317.572488 
L 238.543545 316.168517 
L 239.63029 292.301104 
L 240.717035 304.990235 
L 241.803781 308.975612 
L 242.890526 306.362484 
L 243.977271 301.38985 
L 245.064017 317.17245 
L 246.150762 325.691873 
L 247.237507 310.064213 
L 248.324253 292.109792 
L 249.410998 299.853912 
L 250.497743 306.401548 
L 251.584489 309.362799 
L 252.671234 311.613785 
L 253.757979 289.709643 
L 254.844725 287.554711 
L 255.93147 289.974066 
L 257.018215 290.75942 
L 258.104961 292.882762 
L 259.191706 298.663428 
L 260.278451 295.016064 
L 262.451942 282.369347 
L 263.538687 279.091858 
L 264.625432 270.273179 
L 265.712178 277.410303 
L 266.798923 281.366189 
L 267.885668 268.096392 
L 268.972414 269.950405 
L 270.059159 263.999882 
L 271.145904 258.931825 
L 272.23265 257.265098 
L 273.319395 261.523851 
L 274.40614 266.648904 
L 275.492886 263.296889 
L 276.579631 248.359605 
L 277.666376 251.147547 
L 278.753122 234.377415 
L 279.839867 232.371427 
L 280.926612 235.740061 
L 282.013357 249.67329 
L 283.100103 245.459406 
L 284.186848 243.312816 
L 285.273593 230.833811 
L 286.360339 232.665262 
L 287.447084 227.215236 
L 288.533829 230.977048 
L 289.620575 244.329679 
L 290.70732 240.052967 
L 291.794065 231.178781 
L 292.880811 234.400038 
L 293.967556 227.278335 
L 295.054301 230.125299 
L 296.141047 218.861837 
L 297.227792 224.41565 
L 298.314537 233.574564 
L 299.401283 230.628789 
L 300.488028 221.499275 
L 301.574773 227.195073 
L 302.661518 230.214667 
L 303.748264 224.751695 
L 304.835009 230.161572 
L 305.921754 232.811779 
L 307.0085 231.774854 
L 308.095245 230.436484 
L 309.18199 224.830517 
L 310.268736 225.404944 
L 311.355481 233.107059 
L 312.442226 234.539398 
L 313.528972 233.461671 
L 314.615717 232.793423 
L 315.702462 231.274375 
L 316.789208 234.168185 
L 317.875953 232.200144 
L 318.962698 241.024589 
L 320.049444 252.64025 
L 321.136189 248.702353 
L 322.222934 248.899288 
L 323.309679 238.885498 
L 324.396425 238.749873 
L 325.48317 235.835043 
L 326.569915 244.821696 
L 327.656661 256.51856 
L 329.830151 237.202224 
L 330.916897 244.789251 
L 332.003642 245.199811 
L 333.090387 244.256822 
L 334.177133 259.258677 
L 335.263878 269.207404 
L 336.350623 258.811144 
L 337.437369 256.798011 
L 338.524114 253.86337 
L 339.610859 253.056617 
L 340.697605 255.45382 
L 341.78435 266.178851 
L 342.871095 274.135436 
L 345.044586 263.883018 
L 346.131331 263.446728 
L 347.218076 258.984782 
L 348.304822 264.090101 
L 349.391567 270.250803 
L 350.478312 279.351219 
L 351.565058 239.193002 
L 352.651803 272.349513 
L 353.738548 260.894137 
L 354.825294 264.081067 
L 355.912039 260.214575 
L 358.08553 280.080636 
L 359.172275 280.31736 
L 360.25902 276.84274 
L 361.345766 270.250803 
L 362.432511 260.262023 
L 363.519256 264.153422 
L 364.606001 272.098051 
L 365.692747 281.729981 
L 366.779492 264.831447 
L 367.866237 272.920369 
L 368.952983 263.570711 
L 370.039728 264.026918 
L 371.126473 260.877962 
L 372.213219 270.952663 
L 373.299964 282.591366 
L 374.386709 271.543062 
L 375.473455 270.172621 
L 376.5602 270.724388 
L 377.646945 267.439584 
L 378.733691 267.972098 
L 379.820436 279.397231 
L 380.907181 306.440665 
L 381.993927 263.473251 
L 383.080672 278.401514 
L 384.167417 269.751861 
L 385.254162 269.402228 
L 386.340908 268.054901 
L 387.427653 279.61293 
L 388.514398 287.636258 
L 389.601144 274.225131 
L 390.687889 270.261989 
L 391.774634 263.121597 
L 392.86138 266.827165 
L 392.865826 539.890812 
M 395.03012 539.890812 
L 395.03487 248.051978 
L 396.121616 285.322411 
L 397.208361 268.704804 
L 398.295106 267.076588 
L 399.381852 262.687965 
L 400.468597 261.898324 
L 401.555342 257.300793 
L 402.642088 270.747134 
L 403.728833 282.216634 
L 404.815578 260.167205 
L 405.902323 275.632016 
L 406.989069 248.114281 
L 408.075814 259.954994 
L 409.162559 254.401076 
L 410.249305 272.554693 
L 411.33605 262.507763 
L 412.422795 255.541064 
L 413.509541 256.798011 
L 414.596286 256.221134 
L 415.683031 247.938103 
L 416.769777 273.21628 
L 417.856522 251.961348 
L 418.943267 253.260861 
L 420.030013 253.347948 
L 421.116758 254.712891 
L 422.203503 244.692132 
L 424.376994 254.5241 
L 425.463739 242.203178 
L 426.550484 258.170981 
L 427.63723 255.17374 
L 428.723975 246.694436 
L 429.81072 247.860717 
L 430.897466 241.728457 
L 431.984211 253.933217 
L 433.070956 230.845244 
L 434.157702 253.186423 
L 435.244447 239.615911 
L 436.331192 237.865269 
L 437.417938 233.919094 
L 438.504683 233.919094 
L 439.591428 236.152779 
L 440.678174 243.207369 
L 441.764919 244.352485 
L 442.851664 235.655519 
L 443.93841 236.266369 
L 443.943351 539.890812 
M 446.106618 539.890812 
L 446.1119 215.239456 
L 447.198645 244.599941 
L 448.285391 239.990124 
L 449.372136 242.893318 
L 450.458881 234.685964 
L 451.545627 231.164325 
L 452.632372 228.7371 
L 453.719117 230.640141 
L 454.805863 229.927997 
L 455.892608 236.060172 
L 456.979353 238.656062 
L 458.066099 237.647382 
L 460.239589 227.527021 
L 461.326335 226.613926 
L 462.41308 229.526462 
L 463.499825 234.325772 
L 464.586571 236.005434 
L 465.673316 232.90066 
L 466.760061 227.00673 
L 467.846806 223.240777 
L 468.933552 223.567798 
L 470.020297 226.655934 
L 471.107042 236.180275 
L 472.193788 228.354297 
L 473.280533 229.91969 
L 474.367278 227.402411 
L 475.454024 223.242974 
L 475.459176 539.890812 
M 477.622241 539.890812 
L 477.627514 215.746896 
L 478.71426 239.880477 
L 479.801005 236.886891 
L 480.88775 225.700087 
L 481.974496 221.694381 
L 483.061241 215.493742 
L 483.066518 539.890812 
M 485.229171 539.890812 
L 485.234732 197.98428 
L 486.321477 229.455538 
L 487.408222 227.729063 
L 488.494967 218.615548 
L 489.581713 214.517362 
L 490.668458 211.390326 
L 491.755203 211.810298 
L 493.928694 225.136238 
L 495.015439 226.919254 
L 496.102185 219.634884 
L 497.18893 221.447606 
L 498.275675 222.010581 
L 499.362421 216.031375 
L 500.449166 225.595013 
L 501.535911 228.150454 
L 502.622657 237.585945 
L 504.796147 226.087851 
L 505.882893 223.8514 
L 506.969638 222.012687 
L 508.056383 225.140931 
L 509.143128 232.522515 
L 510.229874 235.103661 
L 511.316619 232.344315 
L 512.403364 236.156214 
L 513.49011 227.303613 
L 514.576855 228.45676 
L 515.6636 219.397328 
L 516.750346 238.369025 
L 517.837091 247.233855 
L 518.923836 229.646886 
L 520.010582 241.53742 
L 521.097327 238.656062 
L 522.184072 227.001724 
L 523.270818 239.511532 
L 524.357563 243.045555 
L 525.444308 247.198586 
L 526.531054 241.355863 
L 527.617799 239.315393 
L 528.704544 235.756999 
L 529.791289 239.010383 
L 530.878035 239.399839 
L 531.96478 248.755447 
L 533.051525 260.540369 
L 534.138271 244.508043 
L 535.225016 240.072633 
L 536.311761 250.502455 
L 537.398507 242.789388 
L 538.485252 240.317616 
L 539.571997 250.797523 
L 540.658743 256.546383 
L 541.745488 247.845265 
L 542.832233 240.927159 
L 543.918979 242.975861 
L 545.005724 246.281743 
L 546.092469 248.633478 
L 547.179215 248.213204 
L 548.26596 282.335341 
L 549.352705 240.721204 
L 550.43945 245.836409 
L 551.526196 245.341119 
L 552.612941 246.024354 
L 553.699686 253.019636 
L 554.786432 256.917601 
L 555.873177 263.069216 
L 556.959922 254.693303 
L 558.046668 252.032691 
L 559.133413 250.797523 
L 560.220158 249.959967 
L 561.306904 249.79423 
L 562.393649 259.876791 
L 563.480394 267.653457 
L 564.56714 252.404131 
L 565.653885 253.585659 
L 566.74063 250.638266 
L 567.827376 250.3729 
L 568.914121 250.570281 
L 570.000866 257.710866 
L 571.087611 267.287781 
L 572.174357 249.476474 
L 573.261102 250.356044 
L 574.347847 247.017878 
L 575.434593 247.1332 
L 576.521338 246.472618 
L 577.608083 251.501863 
L 578.694829 262.533437 
L 579.781574 250.814639 
L 580.868319 249.520095 
L 581.955065 242.330532 
L 583.04181 243.635937 
L 584.128555 245.822002 
L 585.215301 252.386048 
L 586.302046 261.639835 
L 587.388791 248.124678 
L 588.475537 246.462798 
L 589.562282 237.814281 
L 590.649027 240.955542 
L 591.735772 241.841179 
L 592.822518 248.312467 
L 593.909263 283.8529 
L 594.996008 233.9732 
L 596.082754 242.407215 
L 597.169499 242.449904 
L 598.256244 240.254196 
L 599.34299 244.389012 
L 600.429735 242.143938 
L 601.51648 255.953999 
L 602.603226 247.665596 
L 603.689971 248.046792 
L 604.776716 242.785066 
L 605.863462 248.607031 
L 606.950207 239.802412 
L 608.036952 253.136904 
L 609.123698 261.367187 
L 610.210443 249.645874 
L 611.297188 250.160116 
L 612.383933 247.558329 
L 613.470679 249.454688 
L 614.557424 248.84593 
L 615.644169 258.788572 
L 616.730915 265.214076 
L 618.904405 254.902923 
L 619.991151 254.188639 
L 621.077896 256.449117 
L 622.164641 257.783412 
L 623.251387 263.7845 
L 624.338132 273.653324 
L 625.424877 263.499799 
L 626.511623 264.207808 
L 627.598368 257.158277 
L 628.685113 260.740841 
L 629.771859 263.008225 
L 630.858604 271.403055 
L 631.945349 277.989241 
L 633.032094 267.868926 
L 634.11884 267.807199 
L 635.205585 266.97656 
L 636.29233 272.724766 
L 637.379076 262.260746 
L 638.465821 276.660657 
L 639.552566 283.978539 
L 640.639312 279.52029 
L 641.726057 273.265894 
L 642.812802 273.129659 
L 643.899548 273.129659 
L 643.903891 539.890812 
M 648.241749 539.890812 
L 648.246529 246.208664 
L 649.333274 291.590124 
L 650.42002 279.458695 
L 650.424261 539.890812 
M 654.762328 539.890812 
L 654.767001 252.853807 
L 655.853746 292.785002 
L 656.940491 284.267784 
L 658.027237 281.896868 
L 659.113982 274.40536 
L 659.118305 539.890812 
M 661.283227 539.890812 
L 661.287473 279.152675 
L 662.374218 274.444127 
L 663.460963 297.925318 
L 664.547709 282.014265 
L 665.634454 283.62101 
L 666.721199 283.603249 
L 666.725373 539.890812 
M 669.976879 539.890812 
L 669.981435 260.041262 
L 671.068181 282.694415 
L 672.154926 279.366548 
L 673.241671 278.594944 
L 674.328416 279.551137 
L 674.332656 539.890812 
L 674.332656 539.890812 
" style="fill:none;stroke:#fc4f30;stroke-width:4;"/>
   </g>
   <g id="patch_3">
    <path d="M 80.748125 515.4355 
L 80.748125 31.5955 
" style="fill:none;stroke:#f0f0f0;stroke-linecap:square;stroke-linejoin:miter;stroke-width:3;"/>
   </g>
   <g id="patch_4">
    <path d="M 80.748125 515.4355 
L 707.148125 515.4355 
" style="fill:none;stroke:#f0f0f0;stroke-linecap:square;stroke-linejoin:miter;stroke-width:3;"/>
   </g>
   <g id="text_19">
    <!-- New Cases of COVID-19 -->
    <g style="fill:#555555;" transform="translate(282.321575 21.5955)scale(0.2016 -0.2016)">
     <defs>
      <path d="M 7.703125 71.40625 
L 7.703125 0 
L 16.703125 0 
L 16.703125 57.296875 
L 16.90625 57.296875 
L 54.203125 0 
L 64.59375 0 
L 64.59375 71.40625 
L 55.59375 71.40625 
L 55.59375 13.5 
L 55.40625 13.5 
L 17.796875 71.40625 
z
" id="HelveticaNeue-78"/>
      <path d="M 42.296875 30.796875 
L 12.59375 30.796875 
Q 12.796875 33.796875 13.890625 36.4375 
Q 15 39.09375 16.890625 41.09375 
Q 18.796875 43.09375 21.4375 44.25 
Q 24.09375 45.40625 27.40625 45.40625 
Q 30.59375 45.40625 33.25 44.25 
Q 35.90625 43.09375 37.84375 41.140625 
Q 39.796875 39.203125 40.9375 36.5 
Q 42.09375 33.796875 42.296875 30.796875 
z
M 50.5 16.40625 
L 42.09375 16.40625 
Q 41 11.296875 37.546875 8.796875 
Q 34.09375 6.296875 28.703125 6.296875 
Q 24.5 6.296875 21.390625 7.6875 
Q 18.296875 9.09375 16.296875 11.4375 
Q 14.296875 13.796875 13.390625 16.84375 
Q 12.5 19.90625 12.59375 23.296875 
L 51.296875 23.296875 
Q 51.5 28 50.453125 33.203125 
Q 49.40625 38.40625 46.65625 42.796875 
Q 43.90625 47.203125 39.34375 50.046875 
Q 34.796875 52.90625 27.90625 52.90625 
Q 22.59375 52.90625 18.140625 50.90625 
Q 13.703125 48.90625 10.453125 45.296875 
Q 7.203125 41.703125 5.390625 36.796875 
Q 3.59375 31.90625 3.59375 26 
Q 3.796875 20.09375 5.34375 15.09375 
Q 6.90625 10.09375 10 6.5 
Q 13.09375 2.90625 17.640625 0.90625 
Q 22.203125 -1.09375 28.40625 -1.09375 
Q 37.203125 -1.09375 43 3.296875 
Q 48.796875 7.703125 50.5 16.40625 
z
" id="HelveticaNeue-101"/>
      <path d="M 57.59375 0 
L 74.09375 51.703125 
L 65.296875 51.703125 
L 53.703125 9.40625 
L 53.5 9.40625 
L 42.703125 51.703125 
L 33.40625 51.703125 
L 23 9.40625 
L 22.796875 9.40625 
L 11.09375 51.703125 
L 1.703125 51.703125 
L 18.296875 0 
L 27.5 0 
L 37.90625 41.09375 
L 38.09375 41.09375 
L 48.59375 0 
z
" id="HelveticaNeue-119"/>
      <path id="HelveticaNeue-32"/>
      <path d="M 58 49.90625 
L 67.5 49.90625 
Q 66.703125 55.59375 64.09375 59.9375 
Q 61.5 64.296875 57.59375 67.1875 
Q 53.703125 70.09375 48.703125 71.59375 
Q 43.703125 73.09375 38.09375 73.09375 
Q 29.90625 73.09375 23.546875 70.140625 
Q 17.203125 67.203125 12.953125 62.09375 
Q 8.703125 57 6.5 50.140625 
Q 4.296875 43.296875 4.296875 35.5 
Q 4.296875 27.703125 6.34375 20.890625 
Q 8.40625 14.09375 12.5 9.09375 
Q 16.59375 4.09375 22.796875 1.25 
Q 29 -1.59375 37.296875 -1.59375 
Q 51 -1.59375 58.890625 5.90625 
Q 66.796875 13.40625 68.203125 26.90625 
L 58.703125 26.90625 
Q 58.40625 22.5 56.90625 18.703125 
Q 55.40625 14.90625 52.75 12.15625 
Q 50.09375 9.40625 46.4375 7.84375 
Q 42.796875 6.296875 38.09375 6.296875 
Q 31.703125 6.296875 27.09375 8.6875 
Q 22.5 11.09375 19.546875 15.140625 
Q 16.59375 19.203125 15.1875 24.640625 
Q 13.796875 30.09375 13.796875 36.203125 
Q 13.796875 41.796875 15.1875 47 
Q 16.59375 52.203125 19.546875 56.25 
Q 22.5 60.296875 27.046875 62.6875 
Q 31.59375 65.09375 38 65.09375 
Q 45.5 65.09375 50.953125 61.296875 
Q 56.40625 57.5 58 49.90625 
z
" id="HelveticaNeue-67"/>
      <path d="M 52.203125 0.203125 
Q 50 -1.09375 46.09375 -1.09375 
Q 42.796875 -1.09375 40.84375 0.75 
Q 38.90625 2.59375 38.90625 6.796875 
Q 35.40625 2.59375 30.75 0.75 
Q 26.09375 -1.09375 20.703125 -1.09375 
Q 17.203125 -1.09375 14.046875 -0.296875 
Q 10.90625 0.5 8.59375 2.203125 
Q 6.296875 3.90625 4.9375 6.65625 
Q 3.59375 9.40625 3.59375 13.296875 
Q 3.59375 17.703125 5.09375 20.5 
Q 6.59375 23.296875 9.046875 25.046875 
Q 11.5 26.796875 14.640625 27.6875 
Q 17.796875 28.59375 21.09375 29.203125 
Q 24.59375 29.90625 27.75 30.25 
Q 30.90625 30.59375 33.296875 31.25 
Q 35.703125 31.90625 37.09375 33.15625 
Q 38.5 34.40625 38.5 36.796875 
Q 38.5 39.59375 37.453125 41.296875 
Q 36.40625 43 34.75 43.890625 
Q 33.09375 44.796875 31.046875 45.09375 
Q 29 45.40625 27 45.40625 
Q 21.59375 45.40625 18 43.34375 
Q 14.40625 41.296875 14.09375 35.59375 
L 5.59375 35.59375 
Q 5.796875 40.40625 7.59375 43.703125 
Q 9.40625 47 12.40625 49.046875 
Q 15.40625 51.09375 19.25 52 
Q 23.09375 52.90625 27.5 52.90625 
Q 31 52.90625 34.453125 52.40625 
Q 37.90625 51.90625 40.703125 50.34375 
Q 43.5 48.796875 45.203125 46 
Q 46.90625 43.203125 46.90625 38.703125 
L 46.90625 12.09375 
Q 46.90625 9.09375 47.25 7.6875 
Q 47.59375 6.296875 49.59375 6.296875 
Q 50.703125 6.296875 52.203125 6.796875 
z
M 38.40625 26.703125 
Q 36.796875 25.5 34.1875 24.953125 
Q 31.59375 24.40625 28.75 24.046875 
Q 25.90625 23.703125 23 23.25 
Q 20.09375 22.796875 17.796875 21.796875 
Q 15.5 20.796875 14.046875 18.9375 
Q 12.59375 17.09375 12.59375 13.90625 
Q 12.59375 11.796875 13.4375 10.34375 
Q 14.296875 8.90625 15.640625 8 
Q 17 7.09375 18.796875 6.6875 
Q 20.59375 6.296875 22.59375 6.296875 
Q 26.796875 6.296875 29.796875 7.4375 
Q 32.796875 8.59375 34.6875 10.34375 
Q 36.59375 12.09375 37.5 14.140625 
Q 38.40625 16.203125 38.40625 18 
z
" id="HelveticaNeue-97"/>
      <path d="M 11.59375 16.296875 
L 3.09375 16.296875 
Q 3.296875 11.5 5.09375 8.140625 
Q 6.90625 4.796875 9.90625 2.75 
Q 12.90625 0.703125 16.796875 -0.1875 
Q 20.703125 -1.09375 25 -1.09375 
Q 28.90625 -1.09375 32.84375 -0.34375 
Q 36.796875 0.40625 39.9375 2.296875 
Q 43.09375 4.203125 45.046875 7.296875 
Q 47 10.40625 47 15.09375 
Q 47 18.796875 45.546875 21.296875 
Q 44.09375 23.796875 41.75 25.4375 
Q 39.40625 27.09375 36.34375 28.09375 
Q 33.296875 29.09375 30.09375 29.796875 
Q 27.09375 30.5 24.09375 31.140625 
Q 21.09375 31.796875 18.6875 32.75 
Q 16.296875 33.703125 14.75 35.140625 
Q 13.203125 36.59375 13.203125 38.796875 
Q 13.203125 40.796875 14.203125 42.046875 
Q 15.203125 43.296875 16.796875 44.046875 
Q 18.40625 44.796875 20.34375 45.09375 
Q 22.296875 45.40625 24.203125 45.40625 
Q 26.296875 45.40625 28.34375 44.953125 
Q 30.40625 44.5 32.09375 43.5 
Q 33.796875 42.5 34.890625 40.84375 
Q 36 39.203125 36.203125 36.703125 
L 44.703125 36.703125 
Q 44.40625 41.40625 42.703125 44.546875 
Q 41 47.703125 38.140625 49.546875 
Q 35.296875 51.40625 31.59375 52.15625 
Q 27.90625 52.90625 23.5 52.90625 
Q 20.09375 52.90625 16.640625 52.046875 
Q 13.203125 51.203125 10.453125 49.453125 
Q 7.703125 47.703125 5.953125 44.890625 
Q 4.203125 42.09375 4.203125 38.203125 
Q 4.203125 33.203125 6.703125 30.390625 
Q 9.203125 27.59375 12.953125 26.046875 
Q 16.703125 24.5 21.09375 23.640625 
Q 25.5 22.796875 29.25 21.75 
Q 33 20.703125 35.5 19 
Q 38 17.296875 38 14 
Q 38 11.59375 36.796875 10.046875 
Q 35.59375 8.5 33.75 7.703125 
Q 31.90625 6.90625 29.703125 6.59375 
Q 27.5 6.296875 25.5 6.296875 
Q 22.90625 6.296875 20.453125 6.796875 
Q 18 7.296875 16.046875 8.4375 
Q 14.09375 9.59375 12.890625 11.546875 
Q 11.703125 13.5 11.59375 16.296875 
z
" id="HelveticaNeue-115"/>
      <path d="M 12.59375 25.796875 
Q 12.59375 30.5 13.84375 34.140625 
Q 15.09375 37.796875 17.296875 40.296875 
Q 19.5 42.796875 22.453125 44.09375 
Q 25.40625 45.40625 28.703125 45.40625 
Q 32 45.40625 34.953125 44.09375 
Q 37.90625 42.796875 40.09375 40.296875 
Q 42.296875 37.796875 43.546875 34.140625 
Q 44.796875 30.5 44.796875 25.796875 
Q 44.796875 21.09375 43.546875 17.4375 
Q 42.296875 13.796875 40.09375 11.34375 
Q 37.90625 8.90625 34.953125 7.59375 
Q 32 6.296875 28.703125 6.296875 
Q 25.40625 6.296875 22.453125 7.59375 
Q 19.5 8.90625 17.296875 11.34375 
Q 15.09375 13.796875 13.84375 17.4375 
Q 12.59375 21.09375 12.59375 25.796875 
z
M 3.59375 25.796875 
Q 3.59375 20.09375 5.1875 15.1875 
Q 6.796875 10.296875 10 6.640625 
Q 13.203125 3 17.890625 0.953125 
Q 22.59375 -1.09375 28.703125 -1.09375 
Q 34.90625 -1.09375 39.546875 0.953125 
Q 44.203125 3 47.390625 6.640625 
Q 50.59375 10.296875 52.1875 15.1875 
Q 53.796875 20.09375 53.796875 25.796875 
Q 53.796875 31.5 52.1875 36.453125 
Q 50.59375 41.40625 47.390625 45.046875 
Q 44.203125 48.703125 39.546875 50.796875 
Q 34.90625 52.90625 28.703125 52.90625 
Q 22.59375 52.90625 17.890625 50.796875 
Q 13.203125 48.703125 10 45.046875 
Q 6.796875 41.40625 5.1875 36.453125 
Q 3.59375 31.5 3.59375 25.796875 
z
" id="HelveticaNeue-111"/>
      <path d="M 9.90625 44.203125 
L 9.90625 0 
L 18.40625 0 
L 18.40625 44.203125 
L 28.40625 44.203125 
L 28.40625 51.703125 
L 18.40625 51.703125 
L 18.40625 58.90625 
Q 18.40625 62.296875 20.09375 63.5 
Q 21.796875 64.703125 24.90625 64.703125 
Q 26 64.703125 27.296875 64.546875 
Q 28.59375 64.40625 29.703125 64 
L 29.703125 71.40625 
Q 28.5 71.796875 26.953125 72 
Q 25.40625 72.203125 24.203125 72.203125 
Q 17.203125 72.203125 13.546875 68.953125 
Q 9.90625 65.703125 9.90625 59.40625 
L 9.90625 51.703125 
L 1.203125 51.703125 
L 1.203125 44.203125 
z
" id="HelveticaNeue-102"/>
      <path d="M 13.296875 35.703125 
Q 13.296875 41.09375 14.6875 46.34375 
Q 16.09375 51.59375 19.09375 55.796875 
Q 22.09375 60 26.796875 62.546875 
Q 31.5 65.09375 38 65.09375 
Q 44.5 65.09375 49.203125 62.546875 
Q 53.90625 60 56.90625 55.796875 
Q 59.90625 51.59375 61.296875 46.34375 
Q 62.703125 41.09375 62.703125 35.703125 
Q 62.703125 30.296875 61.296875 25.046875 
Q 59.90625 19.796875 56.90625 15.59375 
Q 53.90625 11.40625 49.203125 8.84375 
Q 44.5 6.296875 38 6.296875 
Q 31.5 6.296875 26.796875 8.84375 
Q 22.09375 11.40625 19.09375 15.59375 
Q 16.09375 19.796875 14.6875 25.046875 
Q 13.296875 30.296875 13.296875 35.703125 
z
M 3.796875 35.703125 
Q 3.796875 28.40625 5.9375 21.65625 
Q 8.09375 14.90625 12.390625 9.703125 
Q 16.703125 4.5 23.09375 1.453125 
Q 29.5 -1.59375 38 -1.59375 
Q 46.5 -1.59375 52.890625 1.453125 
Q 59.296875 4.5 63.59375 9.703125 
Q 67.90625 14.90625 70.046875 21.65625 
Q 72.203125 28.40625 72.203125 35.703125 
Q 72.203125 43 70.046875 49.75 
Q 67.90625 56.5 63.59375 61.703125 
Q 59.296875 66.90625 52.890625 70 
Q 46.5 73.09375 38 73.09375 
Q 29.5 73.09375 23.09375 70 
Q 16.703125 66.90625 12.390625 61.703125 
Q 8.09375 56.5 5.9375 49.75 
Q 3.796875 43 3.796875 35.703125 
z
" id="HelveticaNeue-79"/>
      <path d="M 35.90625 0 
L 61.296875 71.40625 
L 51.40625 71.40625 
L 30.796875 9.5 
L 30.59375 9.5 
L 10.203125 71.40625 
L 0 71.40625 
L 25.09375 0 
z
" id="HelveticaNeue-86"/>
      <path d="M 8.203125 71.40625 
L 8.203125 0 
L 17.703125 0 
L 17.703125 71.40625 
z
" id="HelveticaNeue-73"/>
      <path d="M 17.296875 8 
L 17.296875 63.40625 
L 33.296875 63.40625 
Q 39.90625 63.40625 44.40625 61.546875 
Q 48.90625 59.703125 51.75 56.140625 
Q 54.59375 52.59375 55.84375 47.546875 
Q 57.09375 42.5 57.09375 36.09375 
Q 57.09375 29.5 55.75 24.84375 
Q 54.40625 20.203125 52.296875 17.09375 
Q 50.203125 14 47.546875 12.203125 
Q 44.90625 10.40625 42.203125 9.453125 
Q 39.5 8.5 37.09375 8.25 
Q 34.703125 8 33.09375 8 
z
M 7.796875 71.40625 
L 7.796875 0 
L 32.296875 0 
Q 41.203125 0 47.703125 2.5 
Q 54.203125 5 58.390625 9.75 
Q 62.59375 14.5 64.59375 21.453125 
Q 66.59375 28.40625 66.59375 37.40625 
Q 66.59375 54.59375 57.6875 63 
Q 48.796875 71.40625 32.296875 71.40625 
z
" id="HelveticaNeue-68"/>
     </defs>
     <use xlink:href="#HelveticaNeue-78"/>
     <use x="72.199982" xlink:href="#HelveticaNeue-101"/>
     <use x="125.899979" xlink:href="#HelveticaNeue-119"/>
     <use x="201.699966" xlink:href="#HelveticaNeue-32"/>
     <use x="229.499954" xlink:href="#HelveticaNeue-67"/>
     <use x="301.699936" xlink:href="#HelveticaNeue-97"/>
     <use x="355.399933" xlink:href="#HelveticaNeue-115"/>
     <use x="405.399918" xlink:href="#HelveticaNeue-101"/>
     <use x="459.099915" xlink:href="#HelveticaNeue-115"/>
     <use x="509.099899" xlink:href="#HelveticaNeue-32"/>
     <use x="536.899887" xlink:href="#HelveticaNeue-111"/>
     <use x="594.299881" xlink:href="#HelveticaNeue-102"/>
     <use x="623.899872" xlink:href="#HelveticaNeue-32"/>
     <use x="651.69986" xlink:href="#HelveticaNeue-67"/>
     <use x="723.899841" xlink:href="#HelveticaNeue-79"/>
     <use x="799.899826" xlink:href="#HelveticaNeue-86"/>
     <use x="860.999817" xlink:href="#HelveticaNeue-73"/>
     <use x="886.899811" xlink:href="#HelveticaNeue-68"/>
     <use x="957.299805" xlink:href="#HelveticaNeue-45"/>
     <use x="996.199799" xlink:href="#HelveticaNeue-49"/>
     <use x="1051.799789" xlink:href="#HelveticaNeue-57"/>
    </g>
   </g>
   <g id="legend_1">
    <g id="line2d_99">
     <path d="M 570.298125 49.292375 
L 598.298125 49.292375 
" style="fill:none;stroke:#008fd5;stroke-width:4;"/>
    </g>
    <g id="line2d_100"/>
    <g id="text_20">
     <!-- United States -->
     <g style="fill:#555555;" transform="translate(609.498125 54.192375)scale(0.14 -0.14)">
      <defs>
       <path d="M 64.796875 25.796875 
L 64.796875 71.40625 
L 55.296875 71.40625 
L 55.296875 25.796875 
Q 55.296875 16.203125 50.546875 11.25 
Q 45.796875 6.296875 36.703125 6.296875 
Q 27.09375 6.296875 22 11.25 
Q 16.90625 16.203125 16.90625 25.796875 
L 16.90625 71.40625 
L 7.40625 71.40625 
L 7.40625 25.796875 
Q 7.40625 11.5 15.15625 4.953125 
Q 22.90625 -1.59375 36.703125 -1.59375 
Q 50.203125 -1.59375 57.5 5.25 
Q 64.796875 12.09375 64.796875 25.796875 
z
" id="HelveticaNeue-85"/>
       <path d="M 6.40625 51.703125 
L 6.40625 0 
L 14.90625 0 
L 14.90625 29.203125 
Q 14.90625 32.703125 15.84375 35.640625 
Q 16.796875 38.59375 18.6875 40.796875 
Q 20.59375 43 23.4375 44.203125 
Q 26.296875 45.40625 30.203125 45.40625 
Q 35.09375 45.40625 37.890625 42.59375 
Q 40.703125 39.796875 40.703125 35 
L 40.703125 0 
L 49.203125 0 
L 49.203125 34 
Q 49.203125 38.203125 48.34375 41.640625 
Q 47.5 45.09375 45.390625 47.59375 
Q 43.296875 50.09375 39.890625 51.5 
Q 36.5 52.90625 31.40625 52.90625 
Q 19.90625 52.90625 14.59375 43.5 
L 14.40625 43.5 
L 14.40625 51.703125 
z
" id="HelveticaNeue-110"/>
       <path d="M 15.40625 61 
L 15.40625 71.40625 
L 6.90625 71.40625 
L 6.90625 61 
z
M 6.90625 51.703125 
L 6.90625 0 
L 15.40625 0 
L 15.40625 51.703125 
z
" id="HelveticaNeue-105"/>
       <path d="M 18.203125 51.703125 
L 18.203125 67.203125 
L 9.703125 67.203125 
L 9.703125 51.703125 
L 0.90625 51.703125 
L 0.90625 44.203125 
L 9.703125 44.203125 
L 9.703125 11.296875 
Q 9.703125 7.703125 10.390625 5.5 
Q 11.09375 3.296875 12.546875 2.09375 
Q 14 0.90625 16.34375 0.453125 
Q 18.703125 0 22 0 
L 28.5 0 
L 28.5 7.5 
L 24.59375 7.5 
Q 22.59375 7.5 21.34375 7.640625 
Q 20.09375 7.796875 19.390625 8.296875 
Q 18.703125 8.796875 18.453125 9.6875 
Q 18.203125 10.59375 18.203125 12.09375 
L 18.203125 44.203125 
L 28.5 44.203125 
L 28.5 51.703125 
z
" id="HelveticaNeue-116"/>
       <path d="M 12.59375 25.40625 
Q 12.59375 29.203125 13.390625 32.796875 
Q 14.203125 36.40625 16 39.203125 
Q 17.796875 42 20.796875 43.703125 
Q 23.796875 45.40625 28.09375 45.40625 
Q 32.5 45.40625 35.59375 43.75 
Q 38.703125 42.09375 40.640625 39.390625 
Q 42.59375 36.703125 43.5 33.140625 
Q 44.40625 29.59375 44.40625 25.796875 
Q 44.40625 22.203125 43.546875 18.703125 
Q 42.703125 15.203125 40.796875 12.453125 
Q 38.90625 9.703125 35.90625 8 
Q 32.90625 6.296875 28.59375 6.296875 
Q 24.5 6.296875 21.453125 7.890625 
Q 18.40625 9.5 16.453125 12.203125 
Q 14.5 14.90625 13.546875 18.34375 
Q 12.59375 21.796875 12.59375 25.40625 
z
M 52.59375 0 
L 52.59375 71.40625 
L 44.09375 71.40625 
L 44.09375 44.796875 
L 43.90625 44.796875 
Q 42.5 47.09375 40.453125 48.640625 
Q 38.40625 50.203125 36.09375 51.140625 
Q 33.796875 52.09375 31.5 52.5 
Q 29.203125 52.90625 27.203125 52.90625 
Q 21.296875 52.90625 16.84375 50.75 
Q 12.40625 48.59375 9.453125 44.9375 
Q 6.5 41.296875 5.046875 36.390625 
Q 3.59375 31.5 3.59375 26 
Q 3.59375 20.5 5.09375 15.59375 
Q 6.59375 10.703125 9.546875 7 
Q 12.5 3.296875 16.953125 1.09375 
Q 21.40625 -1.09375 27.40625 -1.09375 
Q 32.796875 -1.09375 37.296875 0.796875 
Q 41.796875 2.703125 43.90625 7 
L 44.09375 7 
L 44.09375 0 
z
" id="HelveticaNeue-100"/>
       <path d="M 49.09375 50.5 
L 58.09375 50.5 
Q 57.90625 56.40625 55.84375 60.65625 
Q 53.796875 64.90625 50.25 67.703125 
Q 46.703125 70.5 42 71.796875 
Q 37.296875 73.09375 31.796875 73.09375 
Q 26.90625 73.09375 22.25 71.84375 
Q 17.59375 70.59375 13.9375 68.046875 
Q 10.296875 65.5 8.09375 61.546875 
Q 5.90625 57.59375 5.90625 52.203125 
Q 5.90625 47.296875 7.84375 44.046875 
Q 9.796875 40.796875 13.046875 38.75 
Q 16.296875 36.703125 20.390625 35.453125 
Q 24.5 34.203125 28.75 33.25 
Q 33 32.296875 37.09375 31.390625 
Q 41.203125 30.5 44.453125 29.046875 
Q 47.703125 27.59375 49.640625 25.296875 
Q 51.59375 23 51.59375 19.296875 
Q 51.59375 15.40625 50 12.90625 
Q 48.40625 10.40625 45.796875 8.953125 
Q 43.203125 7.5 39.953125 6.890625 
Q 36.703125 6.296875 33.5 6.296875 
Q 29.5 6.296875 25.703125 7.296875 
Q 21.90625 8.296875 19.046875 10.390625 
Q 16.203125 12.5 14.453125 15.75 
Q 12.703125 19 12.703125 23.5 
L 3.703125 23.5 
Q 3.703125 17 6.046875 12.25 
Q 8.40625 7.5 12.453125 4.453125 
Q 16.5 1.40625 21.84375 -0.09375 
Q 27.203125 -1.59375 33.203125 -1.59375 
Q 38.09375 -1.59375 43.046875 -0.4375 
Q 48 0.703125 52 3.25 
Q 56 5.796875 58.546875 9.84375 
Q 61.09375 13.90625 61.09375 19.59375 
Q 61.09375 24.90625 59.140625 28.40625 
Q 57.203125 31.90625 53.953125 34.203125 
Q 50.703125 36.5 46.59375 37.84375 
Q 42.5 39.203125 38.25 40.203125 
Q 34 41.203125 29.890625 42.046875 
Q 25.796875 42.90625 22.546875 44.203125 
Q 19.296875 45.5 17.34375 47.546875 
Q 15.40625 49.59375 15.40625 52.90625 
Q 15.40625 56.40625 16.75 58.75 
Q 18.09375 61.09375 20.34375 62.5 
Q 22.59375 63.90625 25.5 64.5 
Q 28.40625 65.09375 31.40625 65.09375 
Q 38.796875 65.09375 43.546875 61.640625 
Q 48.296875 58.203125 49.09375 50.5 
z
" id="HelveticaNeue-83"/>
      </defs>
      <use xlink:href="#HelveticaNeue-85"/>
      <use x="72.199982" xlink:href="#HelveticaNeue-110"/>
      <use x="127.799973" xlink:href="#HelveticaNeue-105"/>
      <use x="149.999969" xlink:href="#HelveticaNeue-116"/>
      <use x="181.499954" xlink:href="#HelveticaNeue-101"/>
      <use x="235.199951" xlink:href="#HelveticaNeue-100"/>
      <use x="294.499939" xlink:href="#HelveticaNeue-32"/>
      <use x="322.299927" xlink:href="#HelveticaNeue-83"/>
      <use x="387.099915" xlink:href="#HelveticaNeue-116"/>
      <use x="418.599899" xlink:href="#HelveticaNeue-97"/>
      <use x="472.299896" xlink:href="#HelveticaNeue-116"/>
      <use x="503.799881" xlink:href="#HelveticaNeue-101"/>
      <use x="557.499878" xlink:href="#HelveticaNeue-115"/>
     </g>
    </g>
    <g id="line2d_101">
     <path d="M 570.298125 69.047687 
L 598.298125 69.047687 
" style="fill:none;stroke:#fc4f30;stroke-width:4;"/>
    </g>
    <g id="line2d_102"/>
    <g id="text_21">
     <!-- Florida -->
     <g style="fill:#555555;" transform="translate(609.498125 73.947687)scale(0.14 -0.14)">
      <defs>
       <path d="M 7.796875 71.40625 
L 7.796875 0 
L 17.296875 0 
L 17.296875 32.703125 
L 50.09375 32.703125 
L 50.09375 40.703125 
L 17.296875 40.703125 
L 17.296875 63.40625 
L 54.703125 63.40625 
L 54.703125 71.40625 
z
" id="HelveticaNeue-70"/>
       <path d="M 6.90625 71.40625 
L 6.90625 0 
L 15.40625 0 
L 15.40625 71.40625 
z
" id="HelveticaNeue-108"/>
       <path d="M 6.09375 51.703125 
L 6.09375 0 
L 14.59375 0 
L 14.59375 23 
Q 14.59375 28 15.59375 31.84375 
Q 16.59375 35.703125 18.796875 38.390625 
Q 21 41.09375 24.59375 42.5 
Q 28.203125 43.90625 33.296875 43.90625 
L 33.296875 52.90625 
Q 26.40625 53.09375 21.90625 50.09375 
Q 17.40625 47.09375 14.296875 40.796875 
L 14.09375 40.796875 
L 14.09375 51.703125 
z
" id="HelveticaNeue-114"/>
      </defs>
      <use xlink:href="#HelveticaNeue-70"/>
      <use x="57.399994" xlink:href="#HelveticaNeue-108"/>
      <use x="79.599991" xlink:href="#HelveticaNeue-111"/>
      <use x="136.999985" xlink:href="#HelveticaNeue-114"/>
      <use x="170.299973" xlink:href="#HelveticaNeue-105"/>
      <use x="192.499969" xlink:href="#HelveticaNeue-100"/>
      <use x="251.799957" xlink:href="#HelveticaNeue-97"/>
     </g>
    </g>
   </g>
  </g>
 </g>
 <defs>
  <clipPath id="p6a2dc9d0d1">
   <rect height="483.84" width="626.4" x="80.748125" y="31.5955"/>
  </clipPath>
 </defs>
</svg>
