<?xml version="1.0" encoding="utf-8" standalone="no"?>
<!DOCTYPE svg PUBLIC "-//W3C//DTD SVG 1.1//EN"
  "http://www.w3.org/Graphics/SVG/1.1/DTD/svg11.dtd">
<!-- Created with matplotlib (https://matplotlib.org/) -->
<svg height="538.890812pt" version="1.1" viewBox="0 0 719.628715 538.890812" width="719.628715pt" xmlns="http://www.w3.org/2000/svg" xmlns:xlink="http://www.w3.org/1999/xlink">
 <metadata>
  <rdf:RDF xmlns:cc="http://creativecommons.org/ns#" xmlns:dc="http://purl.org/dc/elements/1.1/" xmlns:rdf="http://www.w3.org/1999/02/22-rdf-syntax-ns#">
   <cc:Work>
    <dc:type rdf:resource="http://purl.org/dc/dcmitype/StillImage"/>
    <dc:date>2021-06-24T21:51:55.989454</dc:date>
    <dc:format>image/svg+xml</dc:format>
    <dc:creator>
     <cc:Agent>
      <dc:title>Matplotlib v3.3.4, https://matplotlib.org/</dc:title>
     </cc:Agent>
    </dc:creator>
   </cc:Work>
  </rdf:RDF>
 </metadata>
 <defs>
  <style type="text/css">*{stroke-linecap:butt;stroke-linejoin:round;}</style>
 </defs>
 <g id="figure_1">
  <g id="patch_1">
   <path d="M 0 538.890812 
L 719.628715 538.890812 
L 719.628715 0 
L 0 0 
z
" style="fill:#f0f0f0;"/>
  </g>
  <g id="axes_1">
   <g id="patch_2">
    <path d="M 80.748125 515.4355 
L 707.148125 515.4355 
L 707.148125 31.5955 
L 80.748125 31.5955 
z
" style="fill:#f0f0f0;"/>
   </g>
   <g id="matplotlib.axis_1">
    <g id="xtick_1">
     <g id="line2d_1">
      <path clip-path="url(#p13e25b26bd)" d="M 86.179339 515.4355 
L 86.179339 31.5955 
" style="fill:none;stroke:#cbcbcb;"/>
     </g>
     <g id="line2d_2"/>
     <g id="text_1">
      <!-- 2020-01 -->
      <g style="fill:#555555;" transform="translate(60.106526 528.932375)scale(0.14 -0.14)">
       <defs>
        <path d="M 4.40625 45.796875 
L 12.90625 45.796875 
Q 12.796875 49 13.546875 52.140625 
Q 14.296875 55.296875 16 57.796875 
Q 17.703125 60.296875 20.34375 61.84375 
Q 23 63.40625 26.703125 63.40625 
Q 29.5 63.40625 32 62.5 
Q 34.5 61.59375 36.34375 59.890625 
Q 38.203125 58.203125 39.296875 55.84375 
Q 40.40625 53.5 40.40625 50.59375 
Q 40.40625 46.90625 39.25 44.09375 
Q 38.09375 41.296875 35.84375 38.890625 
Q 33.59375 36.5 30.1875 34.140625 
Q 26.796875 31.796875 22.296875 29 
Q 18.59375 26.796875 15.1875 24.296875 
Q 11.796875 21.796875 9.09375 18.5 
Q 6.40625 15.203125 4.65625 10.75 
Q 2.90625 6.296875 2.40625 0 
L 48.703125 0 
L 48.703125 7.5 
L 12.296875 7.5 
Q 12.90625 10.796875 14.84375 13.34375 
Q 16.796875 15.90625 19.546875 18.09375 
Q 22.296875 20.296875 25.59375 22.25 
Q 28.90625 24.203125 32.203125 26.203125 
Q 35.5 28.296875 38.59375 30.59375 
Q 41.703125 32.90625 44.09375 35.75 
Q 46.5 38.59375 47.953125 42.1875 
Q 49.40625 45.796875 49.40625 50.5 
Q 49.40625 55.5 47.65625 59.296875 
Q 45.90625 63.09375 42.90625 65.640625 
Q 39.90625 68.203125 35.84375 69.546875 
Q 31.796875 70.90625 27.203125 70.90625 
Q 21.59375 70.90625 17.1875 69 
Q 12.796875 67.09375 9.84375 63.75 
Q 6.90625 60.40625 5.5 55.796875 
Q 4.09375 51.203125 4.40625 45.796875 
z
" id="HelveticaNeue-50"/>
        <path d="M 13.203125 34.90625 
Q 13.203125 37.5 13.25 40.640625 
Q 13.296875 43.796875 13.75 46.9375 
Q 14.203125 50.09375 15.046875 53.09375 
Q 15.90625 56.09375 17.546875 58.34375 
Q 19.203125 60.59375 21.703125 62 
Q 24.203125 63.40625 27.796875 63.40625 
Q 31.40625 63.40625 33.90625 62 
Q 36.40625 60.59375 38.046875 58.34375 
Q 39.703125 56.09375 40.546875 53.09375 
Q 41.40625 50.09375 41.84375 46.9375 
Q 42.296875 43.796875 42.34375 40.640625 
Q 42.40625 37.5 42.40625 34.90625 
Q 42.40625 30.90625 42.15625 25.953125 
Q 41.90625 21 40.546875 16.640625 
Q 39.203125 12.296875 36.203125 9.296875 
Q 33.203125 6.296875 27.796875 6.296875 
Q 22.40625 6.296875 19.40625 9.296875 
Q 16.40625 12.296875 15.046875 16.640625 
Q 13.703125 21 13.453125 25.953125 
Q 13.203125 30.90625 13.203125 34.90625 
z
M 4.203125 34.796875 
Q 4.203125 30.90625 4.390625 26.703125 
Q 4.59375 22.5 5.390625 18.5 
Q 6.203125 14.5 7.703125 10.953125 
Q 9.203125 7.40625 11.796875 4.703125 
Q 14.40625 2 18.34375 0.453125 
Q 22.296875 -1.09375 27.796875 -1.09375 
Q 33.40625 -1.09375 37.296875 0.453125 
Q 41.203125 2 43.796875 4.703125 
Q 46.40625 7.40625 47.90625 10.953125 
Q 49.40625 14.5 50.203125 18.5 
Q 51 22.5 51.203125 26.703125 
Q 51.40625 30.90625 51.40625 34.796875 
Q 51.40625 38.703125 51.203125 42.890625 
Q 51 47.09375 50.203125 51.09375 
Q 49.40625 55.09375 47.90625 58.6875 
Q 46.40625 62.296875 43.796875 65 
Q 41.203125 67.703125 37.25 69.296875 
Q 33.296875 70.90625 27.796875 70.90625 
Q 22.296875 70.90625 18.34375 69.296875 
Q 14.40625 67.703125 11.796875 65 
Q 9.203125 62.296875 7.703125 58.6875 
Q 6.203125 55.09375 5.390625 51.09375 
Q 4.59375 47.09375 4.390625 42.890625 
Q 4.203125 38.703125 4.203125 34.796875 
z
" id="HelveticaNeue-48"/>
        <path d="M 5 31.796875 
L 5 23.796875 
L 33.90625 23.796875 
L 33.90625 31.796875 
z
" id="HelveticaNeue-45"/>
        <path d="M 35.59375 0 
L 35.59375 70.90625 
L 29.09375 70.90625 
Q 28.40625 66.90625 26.5 64.296875 
Q 24.59375 61.703125 21.84375 60.203125 
Q 19.09375 58.703125 15.6875 58.140625 
Q 12.296875 57.59375 8.703125 57.59375 
L 8.703125 50.796875 
L 27.09375 50.796875 
L 27.09375 0 
z
" id="HelveticaNeue-49"/>
       </defs>
       <use xlink:href="#HelveticaNeue-50"/>
       <use x="55.599991" xlink:href="#HelveticaNeue-48"/>
       <use x="111.199982" xlink:href="#HelveticaNeue-50"/>
       <use x="166.799973" xlink:href="#HelveticaNeue-48"/>
       <use x="222.399963" xlink:href="#HelveticaNeue-45"/>
       <use x="261.299957" xlink:href="#HelveticaNeue-48"/>
       <use x="316.899948" xlink:href="#HelveticaNeue-49"/>
      </g>
     </g>
    </g>
    <g id="xtick_2">
     <g id="line2d_3">
      <path clip-path="url(#p13e25b26bd)" d="M 152.012234 515.4355 
L 152.012234 31.5955 
" style="fill:none;stroke:#cbcbcb;"/>
     </g>
     <g id="line2d_4"/>
     <g id="text_2">
      <!-- 2020-03 -->
      <g style="fill:#555555;" transform="translate(125.939422 528.932375)scale(0.14 -0.14)">
       <defs>
        <path d="M 21.796875 40.5 
L 21.796875 33.296875 
Q 24.203125 33.59375 26.90625 33.59375 
Q 30.09375 33.59375 32.84375 32.75 
Q 35.59375 31.90625 37.59375 30.15625 
Q 39.59375 28.40625 40.796875 25.84375 
Q 42 23.296875 42 20 
Q 42 16.796875 40.75 14.25 
Q 39.5 11.703125 37.390625 9.953125 
Q 35.296875 8.203125 32.5 7.25 
Q 29.703125 6.296875 26.59375 6.296875 
Q 19.296875 6.296875 15.5 10.640625 
Q 11.703125 15 11.5 21.90625 
L 3 21.90625 
Q 2.90625 16.40625 4.546875 12.09375 
Q 6.203125 7.796875 9.296875 4.84375 
Q 12.40625 1.90625 16.796875 0.40625 
Q 21.203125 -1.09375 26.59375 -1.09375 
Q 31.59375 -1.09375 36.046875 0.25 
Q 40.5 1.59375 43.796875 4.296875 
Q 47.09375 7 49.046875 11.046875 
Q 51 15.09375 51 20.40625 
Q 51 26.796875 47.84375 31.5 
Q 44.703125 36.203125 38.203125 37.59375 
L 38.203125 37.796875 
Q 42.40625 39.703125 45.203125 43.390625 
Q 48 47.09375 48 51.90625 
Q 48 56.796875 46.34375 60.390625 
Q 44.703125 64 41.796875 66.296875 
Q 38.90625 68.59375 34.953125 69.75 
Q 31 70.90625 26.40625 70.90625 
Q 21.09375 70.90625 17.046875 69.203125 
Q 13 67.5 10.296875 64.5 
Q 7.59375 61.5 6.140625 57.296875 
Q 4.703125 53.09375 4.5 48 
L 13 48 
Q 13 51.09375 13.796875 53.890625 
Q 14.59375 56.703125 16.25 58.796875 
Q 17.90625 60.90625 20.453125 62.15625 
Q 23 63.40625 26.40625 63.40625 
Q 31.796875 63.40625 35.390625 60.546875 
Q 39 57.703125 39 52 
Q 39 49.203125 37.890625 47 
Q 36.796875 44.796875 34.9375 43.34375 
Q 33.09375 41.90625 30.640625 41.15625 
Q 28.203125 40.40625 25.5 40.40625 
L 23.703125 40.40625 
Q 23.203125 40.40625 22.703125 40.40625 
Q 22.296875 40.40625 21.796875 40.5 
z
" id="HelveticaNeue-51"/>
       </defs>
       <use xlink:href="#HelveticaNeue-50"/>
       <use x="55.599991" xlink:href="#HelveticaNeue-48"/>
       <use x="111.199982" xlink:href="#HelveticaNeue-50"/>
       <use x="166.799973" xlink:href="#HelveticaNeue-48"/>
       <use x="222.399963" xlink:href="#HelveticaNeue-45"/>
       <use x="261.299957" xlink:href="#HelveticaNeue-48"/>
       <use x="316.899948" xlink:href="#HelveticaNeue-51"/>
      </g>
     </g>
    </g>
    <g id="xtick_3">
     <g id="line2d_5">
      <path clip-path="url(#p13e25b26bd)" d="M 218.942345 515.4355 
L 218.942345 31.5955 
" style="fill:none;stroke:#cbcbcb;"/>
     </g>
     <g id="line2d_6"/>
     <g id="text_3">
      <!-- 2020-05 -->
      <g style="fill:#555555;" transform="translate(192.869532 528.932375)scale(0.14 -0.14)">
       <defs>
        <path d="M 47 62.203125 
L 47 69.703125 
L 12 69.703125 
L 5.40625 32.90625 
L 12.703125 32.5 
Q 15.203125 35.5 18.453125 37.34375 
Q 21.703125 39.203125 25.90625 39.203125 
Q 29.5 39.203125 32.453125 38 
Q 35.40625 36.796875 37.5 34.640625 
Q 39.59375 32.5 40.75 29.546875 
Q 41.90625 26.59375 41.90625 23.09375 
Q 41.90625 18.90625 40.703125 15.75 
Q 39.5 12.59375 37.453125 10.5 
Q 35.40625 8.40625 32.65625 7.34375 
Q 29.90625 6.296875 26.90625 6.296875 
Q 23.703125 6.296875 21.046875 7.25 
Q 18.40625 8.203125 16.453125 9.953125 
Q 14.5 11.703125 13.34375 14.046875 
Q 12.203125 16.40625 12 19.09375 
L 3.5 19.09375 
Q 3.59375 14.296875 5.390625 10.5 
Q 7.203125 6.703125 10.296875 4.140625 
Q 13.40625 1.59375 17.453125 0.25 
Q 21.5 -1.09375 26.09375 -1.09375 
Q 32.296875 -1.09375 36.9375 0.84375 
Q 41.59375 2.796875 44.6875 6.09375 
Q 47.796875 9.40625 49.34375 13.65625 
Q 50.90625 17.90625 50.90625 22.40625 
Q 50.90625 28.5 49.09375 33.046875 
Q 47.296875 37.59375 44.1875 40.640625 
Q 41.09375 43.703125 36.890625 45.203125 
Q 32.703125 46.703125 28 46.703125 
Q 24.40625 46.703125 20.75 45.453125 
Q 17.09375 44.203125 14.796875 41.59375 
L 14.59375 41.796875 
L 18.40625 62.203125 
z
" id="HelveticaNeue-53"/>
       </defs>
       <use xlink:href="#HelveticaNeue-50"/>
       <use x="55.599991" xlink:href="#HelveticaNeue-48"/>
       <use x="111.199982" xlink:href="#HelveticaNeue-50"/>
       <use x="166.799973" xlink:href="#HelveticaNeue-48"/>
       <use x="222.399963" xlink:href="#HelveticaNeue-45"/>
       <use x="261.299957" xlink:href="#HelveticaNeue-48"/>
       <use x="316.899948" xlink:href="#HelveticaNeue-53"/>
      </g>
     </g>
    </g>
    <g id="xtick_4">
     <g id="line2d_7">
      <path clip-path="url(#p13e25b26bd)" d="M 285.872455 515.4355 
L 285.872455 31.5955 
" style="fill:none;stroke:#cbcbcb;"/>
     </g>
     <g id="line2d_8"/>
     <g id="text_4">
      <!-- 2020-07 -->
      <g style="fill:#555555;" transform="translate(259.799643 528.932375)scale(0.14 -0.14)">
       <defs>
        <path d="M 50.90625 62.40625 
L 50.90625 69.703125 
L 5 69.703125 
L 5 61.703125 
L 42.203125 61.703125 
Q 36.59375 55.796875 31.75 48.796875 
Q 26.90625 41.796875 23.203125 33.9375 
Q 19.5 26.09375 17.140625 17.546875 
Q 14.796875 9 14.203125 0 
L 23.703125 0 
Q 24.203125 8.296875 26.5 17.09375 
Q 28.796875 25.90625 32.4375 34.203125 
Q 36.09375 42.5 40.796875 49.796875 
Q 45.5 57.09375 50.90625 62.40625 
z
" id="HelveticaNeue-55"/>
       </defs>
       <use xlink:href="#HelveticaNeue-50"/>
       <use x="55.599991" xlink:href="#HelveticaNeue-48"/>
       <use x="111.199982" xlink:href="#HelveticaNeue-50"/>
       <use x="166.799973" xlink:href="#HelveticaNeue-48"/>
       <use x="222.399963" xlink:href="#HelveticaNeue-45"/>
       <use x="261.299957" xlink:href="#HelveticaNeue-48"/>
       <use x="316.899948" xlink:href="#HelveticaNeue-55"/>
      </g>
     </g>
    </g>
    <g id="xtick_5">
     <g id="line2d_9">
      <path clip-path="url(#p13e25b26bd)" d="M 353.89978 515.4355 
L 353.89978 31.5955 
" style="fill:none;stroke:#cbcbcb;"/>
     </g>
     <g id="line2d_10"/>
     <g id="text_5">
      <!-- 2020-09 -->
      <g style="fill:#555555;" transform="translate(327.826968 528.932375)scale(0.14 -0.14)">
       <defs>
        <path d="M 13.40625 17.09375 
L 4.90625 17.09375 
Q 5.703125 7.90625 11.59375 3.40625 
Q 17.5 -1.09375 26.40625 -1.09375 
Q 39.296875 -1.09375 45.140625 8.75 
Q 51 18.59375 51 37 
Q 51 47.09375 49.046875 53.640625 
Q 47.09375 60.203125 43.796875 64 
Q 40.5 67.796875 36.09375 69.34375 
Q 31.703125 70.90625 26.703125 70.90625 
Q 21.59375 70.90625 17.296875 69.203125 
Q 13 67.5 9.890625 64.453125 
Q 6.796875 61.40625 5.09375 57.15625 
Q 3.40625 52.90625 3.40625 47.796875 
Q 3.40625 42.59375 4.84375 38.1875 
Q 6.296875 33.796875 9.140625 30.6875 
Q 12 27.59375 16.203125 25.84375 
Q 20.40625 24.09375 25.796875 24.09375 
Q 31 24.09375 35.390625 26.75 
Q 39.796875 29.40625 42.203125 33.90625 
L 42.40625 33.703125 
Q 42 19.796875 38.09375 13.046875 
Q 34.203125 6.296875 26.40625 6.296875 
Q 21.296875 6.296875 17.59375 9.09375 
Q 13.90625 11.90625 13.40625 17.09375 
z
M 40.90625 47.203125 
Q 40.90625 44.09375 39.90625 41.25 
Q 38.90625 38.40625 37 36.25 
Q 35.09375 34.09375 32.390625 32.84375 
Q 29.703125 31.59375 26.40625 31.59375 
Q 23.296875 31.59375 20.75 32.84375 
Q 18.203125 34.09375 16.34375 36.1875 
Q 14.5 38.296875 13.453125 41 
Q 12.40625 43.703125 12.40625 46.59375 
Q 12.40625 49.90625 13.15625 52.90625 
Q 13.90625 55.90625 15.546875 58.25 
Q 17.203125 60.59375 19.84375 62 
Q 22.5 63.40625 26.296875 63.40625 
Q 29.90625 63.40625 32.59375 62.09375 
Q 35.296875 60.796875 37.140625 58.546875 
Q 39 56.296875 39.953125 53.390625 
Q 40.90625 50.5 40.90625 47.203125 
z
" id="HelveticaNeue-57"/>
       </defs>
       <use xlink:href="#HelveticaNeue-50"/>
       <use x="55.599991" xlink:href="#HelveticaNeue-48"/>
       <use x="111.199982" xlink:href="#HelveticaNeue-50"/>
       <use x="166.799973" xlink:href="#HelveticaNeue-48"/>
       <use x="222.399963" xlink:href="#HelveticaNeue-45"/>
       <use x="261.299957" xlink:href="#HelveticaNeue-48"/>
       <use x="316.899948" xlink:href="#HelveticaNeue-57"/>
      </g>
     </g>
    </g>
    <g id="xtick_6">
     <g id="line2d_11">
      <path clip-path="url(#p13e25b26bd)" d="M 420.829891 515.4355 
L 420.829891 31.5955 
" style="fill:none;stroke:#cbcbcb;"/>
     </g>
     <g id="line2d_12"/>
     <g id="text_6">
      <!-- 2020-11 -->
      <g style="fill:#555555;" transform="translate(394.757078 528.932375)scale(0.14 -0.14)">
       <use xlink:href="#HelveticaNeue-50"/>
       <use x="55.599991" xlink:href="#HelveticaNeue-48"/>
       <use x="111.199982" xlink:href="#HelveticaNeue-50"/>
       <use x="166.799973" xlink:href="#HelveticaNeue-48"/>
       <use x="222.399963" xlink:href="#HelveticaNeue-45"/>
       <use x="261.299957" xlink:href="#HelveticaNeue-49"/>
       <use x="316.899948" xlink:href="#HelveticaNeue-49"/>
      </g>
     </g>
    </g>
    <g id="xtick_7">
     <g id="line2d_13">
      <path clip-path="url(#p13e25b26bd)" d="M 487.760001 515.4355 
L 487.760001 31.5955 
" style="fill:none;stroke:#cbcbcb;"/>
     </g>
     <g id="line2d_14"/>
     <g id="text_7">
      <!-- 2021-01 -->
      <g style="fill:#555555;" transform="translate(461.687188 528.932375)scale(0.14 -0.14)">
       <use xlink:href="#HelveticaNeue-50"/>
       <use x="55.599991" xlink:href="#HelveticaNeue-48"/>
       <use x="111.199982" xlink:href="#HelveticaNeue-50"/>
       <use x="166.799973" xlink:href="#HelveticaNeue-49"/>
       <use x="222.399963" xlink:href="#HelveticaNeue-45"/>
       <use x="261.299957" xlink:href="#HelveticaNeue-48"/>
       <use x="316.899948" xlink:href="#HelveticaNeue-49"/>
      </g>
     </g>
    </g>
    <g id="xtick_8">
     <g id="line2d_15">
      <path clip-path="url(#p13e25b26bd)" d="M 552.495681 515.4355 
L 552.495681 31.5955 
" style="fill:none;stroke:#cbcbcb;"/>
     </g>
     <g id="line2d_16"/>
     <g id="text_8">
      <!-- 2021-03 -->
      <g style="fill:#555555;" transform="translate(526.422869 528.932375)scale(0.14 -0.14)">
       <use xlink:href="#HelveticaNeue-50"/>
       <use x="55.599991" xlink:href="#HelveticaNeue-48"/>
       <use x="111.199982" xlink:href="#HelveticaNeue-50"/>
       <use x="166.799973" xlink:href="#HelveticaNeue-49"/>
       <use x="222.399963" xlink:href="#HelveticaNeue-45"/>
       <use x="261.299957" xlink:href="#HelveticaNeue-48"/>
       <use x="316.899948" xlink:href="#HelveticaNeue-51"/>
      </g>
     </g>
    </g>
    <g id="xtick_9">
     <g id="line2d_17">
      <path clip-path="url(#p13e25b26bd)" d="M 619.425792 515.4355 
L 619.425792 31.5955 
" style="fill:none;stroke:#cbcbcb;"/>
     </g>
     <g id="line2d_18"/>
     <g id="text_9">
      <!-- 2021-05 -->
      <g style="fill:#555555;" transform="translate(593.352979 528.932375)scale(0.14 -0.14)">
       <use xlink:href="#HelveticaNeue-50"/>
       <use x="55.599991" xlink:href="#HelveticaNeue-48"/>
       <use x="111.199982" xlink:href="#HelveticaNeue-50"/>
       <use x="166.799973" xlink:href="#HelveticaNeue-49"/>
       <use x="222.399963" xlink:href="#HelveticaNeue-45"/>
       <use x="261.299957" xlink:href="#HelveticaNeue-48"/>
       <use x="316.899948" xlink:href="#HelveticaNeue-53"/>
      </g>
     </g>
    </g>
    <g id="xtick_10">
     <g id="line2d_19">
      <path clip-path="url(#p13e25b26bd)" d="M 686.355902 515.4355 
L 686.355902 31.5955 
" style="fill:none;stroke:#cbcbcb;"/>
     </g>
     <g id="line2d_20"/>
     <g id="text_10">
      <!-- 2021-07 -->
      <g style="fill:#555555;" transform="translate(660.28309 528.932375)scale(0.14 -0.14)">
       <use xlink:href="#HelveticaNeue-50"/>
       <use x="55.599991" xlink:href="#HelveticaNeue-48"/>
       <use x="111.199982" xlink:href="#HelveticaNeue-50"/>
       <use x="166.799973" xlink:href="#HelveticaNeue-49"/>
       <use x="222.399963" xlink:href="#HelveticaNeue-45"/>
       <use x="261.299957" xlink:href="#HelveticaNeue-48"/>
       <use x="316.899948" xlink:href="#HelveticaNeue-55"/>
      </g>
     </g>
    </g>
   </g>
   <g id="matplotlib.axis_2">
    <g id="ytick_1">
     <g id="line2d_21">
      <path clip-path="url(#p13e25b26bd)" d="M 80.748125 497.215636 
L 707.148125 497.215636 
" style="fill:none;stroke:#cbcbcb;"/>
     </g>
     <g id="line2d_22"/>
     <g id="text_11">
      <!-- 1 -->
      <g style="fill:#555555;" transform="translate(69.465 502.214073)scale(0.14 -0.14)">
       <use xlink:href="#HelveticaNeue-49"/>
      </g>
     </g>
    </g>
    <g id="ytick_2">
     <g id="line2d_23">
      <path clip-path="url(#p13e25b26bd)" d="M 80.748125 430.698473 
L 707.148125 430.698473 
" style="fill:none;stroke:#cbcbcb;"/>
     </g>
     <g id="line2d_24"/>
     <g id="text_12">
      <!-- 10 -->
      <g style="fill:#555555;" transform="translate(61.681875 435.696911)scale(0.14 -0.14)">
       <use xlink:href="#HelveticaNeue-49"/>
       <use x="55.599991" xlink:href="#HelveticaNeue-48"/>
      </g>
     </g>
    </g>
    <g id="ytick_3">
     <g id="line2d_25">
      <path clip-path="url(#p13e25b26bd)" d="M 80.748125 364.181311 
L 707.148125 364.181311 
" style="fill:none;stroke:#cbcbcb;"/>
     </g>
     <g id="line2d_26"/>
     <g id="text_13">
      <!-- 100 -->
      <g style="fill:#555555;" transform="translate(53.89875 369.179749)scale(0.14 -0.14)">
       <use xlink:href="#HelveticaNeue-49"/>
       <use x="55.599991" xlink:href="#HelveticaNeue-48"/>
       <use x="111.199982" xlink:href="#HelveticaNeue-48"/>
      </g>
     </g>
    </g>
    <g id="ytick_4">
     <g id="line2d_27">
      <path clip-path="url(#p13e25b26bd)" d="M 80.748125 297.664149 
L 707.148125 297.664149 
" style="fill:none;stroke:#cbcbcb;"/>
     </g>
     <g id="line2d_28"/>
     <g id="text_14">
      <!-- 1,000 -->
      <g style="fill:#555555;" transform="translate(42.224063 302.662586)scale(0.14 -0.14)">
       <defs>
        <path d="M 8.296875 11.09375 
L 8.296875 0 
L 14.203125 0 
Q 14.296875 -1.203125 14.046875 -2.59375 
Q 13.796875 -4 13.09375 -5.34375 
Q 12.40625 -6.703125 11.25 -7.84375 
Q 10.09375 -9 8.40625 -9.59375 
L 8.40625 -14.59375 
Q 14.203125 -12.90625 16.796875 -8.796875 
Q 19.40625 -4.703125 19.40625 1 
L 19.40625 11.09375 
z
" id="HelveticaNeue-44"/>
       </defs>
       <use xlink:href="#HelveticaNeue-49"/>
       <use x="55.599991" xlink:href="#HelveticaNeue-44"/>
       <use x="83.399979" xlink:href="#HelveticaNeue-48"/>
       <use x="138.999969" xlink:href="#HelveticaNeue-48"/>
       <use x="194.59996" xlink:href="#HelveticaNeue-48"/>
      </g>
     </g>
    </g>
    <g id="ytick_5">
     <g id="line2d_29">
      <path clip-path="url(#p13e25b26bd)" d="M 80.748125 231.146987 
L 707.148125 231.146987 
" style="fill:none;stroke:#cbcbcb;"/>
     </g>
     <g id="line2d_30"/>
     <g id="text_15">
      <!-- 10,000 -->
      <g style="fill:#555555;" transform="translate(34.440938 236.145424)scale(0.14 -0.14)">
       <use xlink:href="#HelveticaNeue-49"/>
       <use x="55.599991" xlink:href="#HelveticaNeue-48"/>
       <use x="111.199982" xlink:href="#HelveticaNeue-44"/>
       <use x="138.999969" xlink:href="#HelveticaNeue-48"/>
       <use x="194.59996" xlink:href="#HelveticaNeue-48"/>
       <use x="250.199951" xlink:href="#HelveticaNeue-48"/>
      </g>
     </g>
    </g>
    <g id="ytick_6">
     <g id="line2d_31">
      <path clip-path="url(#p13e25b26bd)" d="M 80.748125 164.629824 
L 707.148125 164.629824 
" style="fill:none;stroke:#cbcbcb;"/>
     </g>
     <g id="line2d_32"/>
     <g id="text_16">
      <!-- 100,000 -->
      <g style="fill:#555555;" transform="translate(26.657813 169.628262)scale(0.14 -0.14)">
       <use xlink:href="#HelveticaNeue-49"/>
       <use x="55.599991" xlink:href="#HelveticaNeue-48"/>
       <use x="111.199982" xlink:href="#HelveticaNeue-48"/>
       <use x="166.799973" xlink:href="#HelveticaNeue-44"/>
       <use x="194.59996" xlink:href="#HelveticaNeue-48"/>
       <use x="250.199951" xlink:href="#HelveticaNeue-48"/>
       <use x="305.799942" xlink:href="#HelveticaNeue-48"/>
      </g>
     </g>
    </g>
    <g id="ytick_7">
     <g id="line2d_33">
      <path clip-path="url(#p13e25b26bd)" d="M 80.748125 98.112662 
L 707.148125 98.112662 
" style="fill:none;stroke:#cbcbcb;"/>
     </g>
     <g id="line2d_34"/>
     <g id="text_17">
      <!-- 1,000,000 -->
      <g style="fill:#555555;" transform="translate(14.983125 103.1111)scale(0.14 -0.14)">
       <use xlink:href="#HelveticaNeue-49"/>
       <use x="55.599991" xlink:href="#HelveticaNeue-44"/>
       <use x="83.399979" xlink:href="#HelveticaNeue-48"/>
       <use x="138.999969" xlink:href="#HelveticaNeue-48"/>
       <use x="194.59996" xlink:href="#HelveticaNeue-48"/>
       <use x="250.199951" xlink:href="#HelveticaNeue-44"/>
       <use x="277.999939" xlink:href="#HelveticaNeue-48"/>
       <use x="333.59993" xlink:href="#HelveticaNeue-48"/>
       <use x="389.199921" xlink:href="#HelveticaNeue-48"/>
      </g>
     </g>
    </g>
    <g id="ytick_8">
     <g id="line2d_35">
      <path clip-path="url(#p13e25b26bd)" d="M 80.748125 31.5955 
L 707.148125 31.5955 
" style="fill:none;stroke:#cbcbcb;"/>
     </g>
     <g id="line2d_36"/>
     <g id="text_18">
      <!-- 10,000,000 -->
      <g style="fill:#555555;" transform="translate(7.2 36.593937)scale(0.14 -0.14)">
       <use xlink:href="#HelveticaNeue-49"/>
       <use x="55.599991" xlink:href="#HelveticaNeue-48"/>
       <use x="111.199982" xlink:href="#HelveticaNeue-44"/>
       <use x="138.999969" xlink:href="#HelveticaNeue-48"/>
       <use x="194.59996" xlink:href="#HelveticaNeue-48"/>
       <use x="250.199951" xlink:href="#HelveticaNeue-48"/>
       <use x="305.799942" xlink:href="#HelveticaNeue-44"/>
       <use x="333.59993" xlink:href="#HelveticaNeue-48"/>
       <use x="389.199921" xlink:href="#HelveticaNeue-48"/>
       <use x="444.799911" xlink:href="#HelveticaNeue-48"/>
      </g>
     </g>
    </g>
    <g id="ytick_9">
     <g id="line2d_37"/>
    </g>
    <g id="ytick_10">
     <g id="line2d_38"/>
    </g>
    <g id="ytick_11">
     <g id="line2d_39"/>
    </g>
    <g id="ytick_12">
     <g id="line2d_40"/>
    </g>
    <g id="ytick_13">
     <g id="line2d_41"/>
    </g>
    <g id="ytick_14">
     <g id="line2d_42"/>
    </g>
    <g id="ytick_15">
     <g id="line2d_43"/>
    </g>
    <g id="ytick_16">
     <g id="line2d_44"/>
    </g>
    <g id="ytick_17">
     <g id="line2d_45"/>
    </g>
    <g id="ytick_18">
     <g id="line2d_46"/>
    </g>
    <g id="ytick_19">
     <g id="line2d_47"/>
    </g>
    <g id="ytick_20">
     <g id="line2d_48"/>
    </g>
    <g id="ytick_21">
     <g id="line2d_49"/>
    </g>
    <g id="ytick_22">
     <g id="line2d_50"/>
    </g>
    <g id="ytick_23">
     <g id="line2d_51"/>
    </g>
    <g id="ytick_24">
     <g id="line2d_52"/>
    </g>
    <g id="ytick_25">
     <g id="line2d_53"/>
    </g>
    <g id="ytick_26">
     <g id="line2d_54"/>
    </g>
    <g id="ytick_27">
     <g id="line2d_55"/>
    </g>
    <g id="ytick_28">
     <g id="line2d_56"/>
    </g>
    <g id="ytick_29">
     <g id="line2d_57"/>
    </g>
    <g id="ytick_30">
     <g id="line2d_58"/>
    </g>
    <g id="ytick_31">
     <g id="line2d_59"/>
    </g>
    <g id="ytick_32">
     <g id="line2d_60"/>
    </g>
    <g id="ytick_33">
     <g id="line2d_61"/>
    </g>
    <g id="ytick_34">
     <g id="line2d_62"/>
    </g>
    <g id="ytick_35">
     <g id="line2d_63"/>
    </g>
    <g id="ytick_36">
     <g id="line2d_64"/>
    </g>
    <g id="ytick_37">
     <g id="line2d_65"/>
    </g>
    <g id="ytick_38">
     <g id="line2d_66"/>
    </g>
    <g id="ytick_39">
     <g id="line2d_67"/>
    </g>
    <g id="ytick_40">
     <g id="line2d_68"/>
    </g>
    <g id="ytick_41">
     <g id="line2d_69"/>
    </g>
    <g id="ytick_42">
     <g id="line2d_70"/>
    </g>
    <g id="ytick_43">
     <g id="line2d_71"/>
    </g>
    <g id="ytick_44">
     <g id="line2d_72"/>
    </g>
    <g id="ytick_45">
     <g id="line2d_73"/>
    </g>
    <g id="ytick_46">
     <g id="line2d_74"/>
    </g>
    <g id="ytick_47">
     <g id="line2d_75"/>
    </g>
    <g id="ytick_48">
     <g id="line2d_76"/>
    </g>
    <g id="ytick_49">
     <g id="line2d_77"/>
    </g>
    <g id="ytick_50">
     <g id="line2d_78"/>
    </g>
    <g id="ytick_51">
     <g id="line2d_79"/>
    </g>
    <g id="ytick_52">
     <g id="line2d_80"/>
    </g>
    <g id="ytick_53">
     <g id="line2d_81"/>
    </g>
    <g id="ytick_54">
     <g id="line2d_82"/>
    </g>
    <g id="ytick_55">
     <g id="line2d_83"/>
    </g>
    <g id="ytick_56">
     <g id="line2d_84"/>
    </g>
    <g id="ytick_57">
     <g id="line2d_85"/>
    </g>
    <g id="ytick_58">
     <g id="line2d_86"/>
    </g>
    <g id="ytick_59">
     <g id="line2d_87"/>
    </g>
    <g id="ytick_60">
     <g id="line2d_88"/>
    </g>
    <g id="ytick_61">
     <g id="line2d_89"/>
    </g>
    <g id="ytick_62">
     <g id="line2d_90"/>
    </g>
    <g id="ytick_63">
     <g id="line2d_91"/>
    </g>
    <g id="ytick_64">
     <g id="line2d_92"/>
    </g>
    <g id="ytick_65">
     <g id="line2d_93"/>
    </g>
    <g id="ytick_66">
     <g id="line2d_94"/>
    </g>
    <g id="ytick_67">
     <g id="line2d_95"/>
    </g>
    <g id="ytick_68">
     <g id="line2d_96"/>
    </g>
   </g>
   <g id="line2d_97">
    <path clip-path="url(#p13e25b26bd)" d="M 111.414578 539.890812 
L 111.415282 497.215636 
L 112.512497 497.215636 
L 113.609712 477.191975 
L 113.610746 539.890812 
M 117.997868 539.890812 
L 117.998572 497.215636 
L 120.193002 497.215636 
L 121.290216 465.478884 
L 121.291443 539.890812 
M 124.581157 539.890812 
L 124.581861 497.215636 
L 124.582565 539.890812 
M 130.067232 539.890812 
L 130.067936 497.215636 
L 130.06864 539.890812 
M 132.261662 539.890812 
L 132.262366 497.215636 
L 133.359581 497.215636 
L 133.360285 539.890812 
M 137.746641 539.890812 
L 137.74844 430.698473 
L 137.75024 539.890812 
M 141.039051 539.890812 
L 141.040085 477.191975 
L 142.1373 465.478884 
L 142.138527 539.890812 
M 145.427021 539.890812 
L 145.428945 423.119285 
L 146.52616 477.191975 
L 147.623375 418.985383 
L 147.625367 539.890812 
M 149.816335 539.890812 
L 149.817804 450.722135 
L 150.915019 450.722135 
L 152.012234 413.718471 
L 153.109449 417.120991 
L 154.206664 409.26536 
L 155.303879 393.69481 
L 156.401094 375.750322 
L 157.498309 369.564007 
L 158.595524 359.645781 
L 159.692739 359.156142 
L 160.789954 344.01357 
L 161.887169 335.488218 
L 162.984384 338.295088 
L 164.081598 323.775127 
L 165.178813 314.62105 
L 166.276028 309.061206 
L 167.373243 307.885368 
L 168.470458 300.483992 
L 169.567673 287.964768 
L 171.762103 257.307938 
L 172.859318 247.798957 
L 173.956533 243.520438 
L 175.053748 235.689306 
L 176.150963 229.925228 
L 177.248178 229.922458 
L 178.345392 220.147506 
L 179.442607 215.821577 
L 180.539822 215.262784 
L 181.637037 209.623225 
L 182.734252 213.344268 
L 183.831467 209.075806 
L 184.928682 205.253689 
L 188.220327 197.260186 
L 189.317542 194.875528 
L 190.414757 203.973973 
L 191.511972 198.541385 
L 192.609186 199.087535 
L 193.706401 197.708798 
L 194.803616 195.206636 
L 195.900831 196.245788 
L 196.998046 197.799726 
L 198.095261 202.301297 
L 199.192476 203.801943 
L 200.289691 202.786407 
L 201.386906 199.378475 
L 202.484121 197.897338 
L 203.581336 197.99253 
L 205.775766 204.293758 
L 206.87298 202.034334 
L 207.970195 204.089232 
L 209.06741 200.558424 
L 210.164625 195.985468 
L 211.26184 193.554748 
L 212.359055 195.449924 
L 213.45627 202.738825 
L 214.553485 206.839499 
L 215.6507 205.083265 
L 216.747915 202.933978 
L 217.84513 199.068497 
L 218.942345 195.820018 
L 220.03956 199.921231 
L 221.136775 203.389004 
L 222.233989 208.419942 
L 223.331204 206.208822 
L 224.428419 205.253689 
L 225.525634 200.914306 
L 226.622849 201.768769 
L 227.720064 204.83008 
L 228.817279 210.669041 
L 229.914494 214.781733 
L 231.011709 207.978736 
L 232.108924 209.515094 
L 233.206139 202.494579 
L 234.303354 203.282005 
L 235.400569 206.269809 
L 236.497783 212.58381 
L 237.594998 208.598065 
L 238.692213 209.74553 
L 239.789428 206.998091 
L 240.886643 203.842329 
L 241.983858 206.09937 
L 243.081073 208.020219 
L 244.178288 211.078584 
L 245.275503 212.453445 
L 247.469933 212.996962 
L 248.567148 207.705402 
L 249.664363 205.204222 
L 250.761577 206.591499 
L 251.858792 210.22179 
L 252.956007 208.505568 
L 254.053222 210.002819 
L 255.150437 211.142109 
L 256.247652 208.878682 
L 257.344867 200.680925 
L 258.442082 207.70027 
L 259.539297 213.194911 
L 260.636512 213.836667 
L 261.733727 212.903103 
L 262.830942 207.272366 
L 263.928157 206.833273 
L 265.025371 204.113019 
L 266.122586 204.293758 
L 267.219801 212.408106 
L 268.317016 210.954823 
L 269.414231 204.810338 
L 270.511446 203.930025 
L 272.705876 198.616234 
L 273.803091 197.523284 
L 274.900306 203.126078 
L 277.094736 194.907644 
L 278.191951 193.36041 
L 280.38638 187.360164 
L 282.58081 191.457191 
L 283.678025 191.465966 
L 284.77524 185.599583 
L 285.872455 184.667933 
L 286.96967 181.608036 
L 288.066885 180.790393 
L 289.1641 184.650019 
L 290.261315 187.847108 
L 291.35853 186.247369 
L 292.455745 182.38533 
L 293.552959 179.650172 
L 294.650174 179.440066 
L 295.747389 175.674582 
L 296.844604 179.041505 
L 297.941819 180.46321 
L 300.136249 176.807981 
L 301.233464 175.625931 
L 302.330679 172.676985 
L 303.427894 174.555043 
L 304.525109 178.229964 
L 305.622324 178.311491 
L 306.719539 179.440548 
L 307.816753 176.951451 
L 308.913968 175.041376 
L 310.011183 174.930987 
L 311.108398 173.514187 
L 312.205613 176.295578 
L 313.302828 182.314378 
L 314.400043 179.783611 
L 315.497258 177.92398 
L 316.594473 176.292982 
L 317.691688 175.370905 
L 318.788903 175.312306 
L 319.886118 180.955639 
L 320.983333 184.198348 
L 322.080547 186.14498 
L 323.177762 182.672514 
L 324.274977 182.578798 
L 326.469407 178.834819 
L 327.566622 181.774379 
L 328.663837 185.545307 
L 329.761052 186.334807 
L 330.858267 182.776278 
L 331.955482 182.281894 
L 333.052697 182.397618 
L 334.149912 179.639485 
L 335.247127 184.227368 
L 336.344342 189.596136 
L 337.441556 192.946343 
L 338.538771 188.854352 
L 339.635986 189.00173 
L 341.830416 185.22001 
L 342.927631 187.680458 
L 344.024846 197.246781 
L 345.122061 190.809359 
L 346.219276 191.695812 
L 347.316491 187.493082 
L 348.413706 187.306914 
L 349.510921 186.710178 
L 350.608136 187.949246 
L 351.70535 196.283786 
L 352.802565 193.755152 
L 353.89978 188.314188 
L 354.996995 197.147777 
L 356.09421 186.81397 
L 357.191425 183.464421 
L 358.28864 189.516719 
L 359.385855 199.41505 
L 360.48307 204.487112 
L 363.774715 192.535091 
L 364.87193 186.094529 
L 365.969144 191.754114 
L 367.066359 196.3582 
L 368.163574 193.440181 
L 369.260789 191.670756 
L 370.358004 191.633213 
L 371.455219 187.49882 
L 372.552434 185.303798 
L 373.649649 189.820502 
L 374.746864 193.859056 
L 375.844079 181.925384 
L 376.941294 193.048146 
L 378.038509 190.002093 
L 379.135724 187.566481 
L 380.232938 182.121078 
L 381.330153 189.216096 
L 382.427368 193.120087 
L 383.524583 193.072106 
L 384.621798 188.545962 
L 385.719013 189.650347 
L 386.816228 186.800898 
L 387.913443 182.655795 
L 389.010658 185.966065 
L 390.107873 194.905173 
L 391.205088 178.247547 
L 392.302303 189.103322 
L 393.399518 182.960947 
L 394.496732 181.183254 
L 395.593947 179.89071 
L 397.788377 187.836785 
L 398.885592 185.823125 
L 399.982807 182.220753 
L 402.177237 176.917395 
L 403.274452 174.742609 
L 404.371667 183.100774 
L 405.468882 185.903857 
L 406.566097 176.879406 
L 407.663312 179.101989 
L 408.760526 177.415404 
L 409.857741 172.890365 
L 410.954956 169.223915 
L 412.052171 171.593739 
L 413.149386 179.524119 
L 414.246601 173.080165 
L 415.343816 173.177476 
L 418.635461 164.667982 
L 419.732676 169.595451 
L 420.829891 173.252136 
L 421.927106 166.41544 
L 423.02432 166.908226 
L 424.121535 162.385715 
L 425.21875 159.039975 
L 426.315965 156.430035 
L 427.41318 157.969285 
L 428.510395 163.660328 
L 429.60761 156.951033 
L 430.704825 154.961434 
L 431.80204 154.321968 
L 432.899255 150.400562 
L 433.99647 147.410722 
L 435.093685 151.227464 
L 436.1909 155.920618 
L 437.288114 149.891049 
L 438.385329 150.759356 
L 439.482544 148.916152 
L 440.579759 146.469322 
L 441.676974 144.771442 
L 442.774189 148.974396 
L 443.871404 154.746429 
L 444.968619 147.71039 
L 446.065834 147.995651 
L 447.163049 147.555288 
L 448.260264 163.777612 
L 449.357479 143.774854 
L 450.454694 152.646836 
L 451.551908 155.721293 
L 452.649123 149.701758 
L 454.843553 144.437374 
L 455.940768 142.151399 
L 457.037983 140.397403 
L 458.135198 143.793245 
L 459.232413 148.976412 
L 460.329628 143.960138 
L 461.426843 141.890418 
L 462.524058 141.890155 
L 463.621273 141.174769 
L 464.718488 134.833263 
L 465.815703 143.538225 
L 466.912917 146.980532 
L 468.010132 144.478616 
L 469.107347 144.154296 
L 470.204562 138.764007 
L 471.301777 139.616337 
L 472.398992 138.022804 
L 473.496207 145.50022 
L 474.593422 147.664109 
L 475.690637 144.387731 
L 476.787852 144.370677 
L 477.885067 140.851058 
L 478.982282 145.558978 
L 480.079497 164.362121 
L 481.176711 142.267988 
L 482.273926 152.517195 
L 483.371141 146.238841 
L 484.468356 144.457772 
L 485.565571 140.701024 
L 486.662786 140.440386 
L 487.760001 153.451655 
L 488.857216 133.712487 
L 489.954431 144.350197 
L 491.051646 137.949294 
L 492.148861 139.945477 
L 495.440505 132.818349 
L 497.634935 143.432212 
L 498.73215 141.035172 
L 499.829365 140.571604 
L 500.92658 140.65362 
L 502.023795 139.396844 
L 503.12101 139.356951 
L 505.31544 149.285047 
L 506.412655 154.676956 
L 507.50987 146.556344 
L 508.607085 146.782218 
L 509.704299 146.014734 
L 510.801514 145.850954 
L 511.898729 149.657166 
L 512.995944 157.122724 
L 514.093159 151.677257 
L 515.190374 152.794124 
L 516.287589 151.826347 
L 517.384804 149.958421 
L 518.482019 150.230894 
L 519.579234 156.218323 
L 520.676449 160.89667 
L 521.773664 154.529753 
L 522.870879 160.528141 
L 525.065308 158.037036 
L 526.162523 157.161735 
L 527.259738 163.234958 
L 528.356953 168.559677 
L 529.454168 166.731841 
L 530.551383 165.691972 
L 531.648598 166.11919 
L 532.745813 163.044827 
L 533.843028 164.737778 
L 534.940243 169.443191 
L 536.037458 177.621656 
L 537.134673 181.757649 
L 538.231887 177.279462 
L 539.329102 174.867097 
L 540.426317 174.203639 
L 541.523532 171.802941 
L 542.620747 175.049247 
L 543.717962 181.805773 
L 544.815177 179.644828 
L 545.912392 174.154589 
L 547.009607 173.252525 
L 548.106822 171.851492 
L 549.204037 171.68985 
L 551.398467 184.135288 
L 552.495681 181.022818 
L 553.592896 180.543782 
L 554.690111 176.366613 
L 555.787326 176.077502 
L 556.884541 176.767057 
L 557.981756 181.079431 
L 559.078971 191.053481 
L 560.176186 166.260057 
L 561.273401 181.431791 
L 562.370616 180.268962 
L 563.467831 178.259583 
L 564.565046 177.447351 
L 566.759475 192.589791 
L 567.85669 180.785339 
L 568.953905 182.147554 
L 570.05112 179.905902 
L 571.148335 179.161166 
L 572.24555 179.088166 
L 573.342765 182.203763 
L 574.43998 195.630999 
L 575.537195 182.049715 
L 576.63441 180.997353 
L 577.731625 171.111052 
L 578.82884 175.300601 
L 579.926055 173.134014 
L 581.02327 179.051497 
L 582.120484 188.010183 
L 583.217699 174.630087 
L 584.314914 178.330516 
L 585.412129 175.798058 
L 586.509344 172.107822 
L 587.606559 175.521712 
L 588.703774 177.460861 
L 589.800989 193.490346 
L 590.898204 172.332861 
L 591.995419 178.452389 
L 593.092634 173.685607 
L 594.189849 170.911091 
L 595.287064 170.510318 
L 596.384278 177.18205 
L 597.481493 185.846598 
L 598.578708 174.146958 
L 599.675923 172.05996 
L 600.773138 172.652949 
L 601.870353 173.447863 
L 602.967568 171.676575 
L 604.064783 182.497716 
L 605.161998 190.106573 
L 606.259213 174.826364 
L 607.356428 178.897711 
L 608.453643 178.209618 
L 609.550858 176.527957 
L 610.648072 177.619845 
L 611.745287 184.384351 
L 612.842502 196.144131 
L 613.939717 186.235771 
L 615.036932 183.588888 
L 617.231362 180.57487 
L 618.328577 180.109562 
L 619.425792 187.852271 
L 620.523007 199.766786 
L 621.620222 184.685858 
L 622.717437 190.418067 
L 623.814652 187.878099 
L 624.911866 186.017504 
L 626.009081 186.139506 
L 627.106296 196.079703 
L 628.203511 207.942486 
L 629.300726 193.699783 
L 630.397941 195.759703 
L 631.495156 194.561195 
L 632.592371 192.249607 
L 633.689586 190.399734 
L 634.786801 200.33982 
L 635.884016 216.315226 
L 636.981231 200.184116 
L 638.078446 201.544995 
L 640.272875 199.780438 
L 641.37009 200.378629 
L 642.467305 213.664239 
L 643.56452 221.119096 
L 644.661735 203.960444 
L 645.75895 207.29007 
L 646.856165 206.605084 
L 647.95338 201.665514 
L 649.050595 208.779956 
L 650.14781 227.031771 
L 651.245025 239.677945 
L 652.34224 248.119479 
L 653.439454 207.554377 
L 654.536669 216.057065 
L 655.633884 211.847301 
L 655.639272 539.890812 
M 657.823221 539.890812 
L 657.828314 229.880955 
L 658.925529 245.20451 
L 660.022744 211.924419 
L 661.119959 221.061989 
L 662.217174 210.175626 
L 663.314389 217.985952 
L 664.411604 216.132553 
L 665.508819 236.480997 
L 666.606034 242.343299 
L 667.703248 219.238122 
L 668.800463 226.160684 
L 669.897678 220.453118 
L 670.994893 225.499822 
L 672.092108 224.217247 
L 673.189323 239.181554 
L 674.286538 257.165386 
L 675.383753 217.870784 
L 676.480968 224.047297 
L 677.578183 221.369246 
L 678.675398 221.019233 
L 678.675398 221.019233 
" style="fill:none;stroke:#008fd5;stroke-width:4;"/>
   </g>
   <g id="line2d_98">
    <path clip-path="url(#p13e25b26bd)" d="M 152.0112 539.890812 
L 152.012234 477.191975 
L 152.013268 539.890812 
M 154.20596 539.890812 
L 154.206664 497.215636 
L 154.207368 539.890812 
M 156.40039 539.890812 
L 156.401094 497.215636 
L 157.498309 465.478884 
L 158.595524 450.722135 
L 159.692739 497.215636 
L 160.789954 497.215636 
L 161.887169 433.742132 
L 162.984384 465.478884 
L 164.081598 410.674812 
L 165.178813 405.407901 
L 165.181029 539.890812 
M 167.370797 539.890812 
L 167.373243 391.382533 
L 168.470458 397.09733 
L 169.567673 374.900612 
L 170.664888 359.893749 
L 171.762103 361.958058 
L 172.859318 356.602123 
L 173.956533 344.15765 
L 175.053748 339.376263 
L 176.150963 341.142894 
L 177.248178 338.295088 
L 178.345392 317.457625 
L 179.442607 317.286182 
L 180.539822 307.153986 
L 181.637037 302.700876 
L 182.734252 300.547762 
L 183.831467 305.897787 
L 184.928682 296.337352 
L 186.025897 296.894516 
L 187.123112 291.660439 
L 188.220327 290.987785 
L 189.317542 290.600632 
L 190.414757 303.93034 
L 191.511972 290.555424 
L 192.609186 294.441938 
L 193.706401 299.115519 
L 194.803616 294.159097 
L 195.900831 293.85367 
L 196.998046 297.148789 
L 198.095261 301.455654 
L 199.192476 293.476372 
L 200.289691 311.990795 
L 201.386906 300.51586 
L 202.484121 303.894476 
L 203.581336 287.677118 
L 204.678551 306.401548 
L 205.775766 303.326634 
L 206.87298 306.206753 
L 207.970195 303.715824 
L 209.06741 321.380665 
L 210.164625 289.231065 
L 211.26184 301.193332 
L 212.359055 331.8725 
L 213.45627 308.425347 
L 214.553485 311.943399 
L 215.6507 307.639511 
L 216.747915 328.240128 
L 217.84513 317.803594 
L 218.942345 296.614591 
L 220.03956 306.558336 
L 221.136775 311.707577 
L 222.233989 303.432258 
L 223.331204 315.357762 
L 224.428419 314.259623 
L 225.525634 303.186401 
L 226.622849 326.308174 
L 227.720064 304.038198 
L 228.817279 312.662641 
L 229.914494 325.163188 
L 231.011709 299.420892 
L 232.108924 318.927323 
L 233.206139 303.822882 
L 234.303354 299.822765 
L 235.400569 309.104099 
L 236.497783 304.953032 
L 237.594998 302.223377 
L 238.692213 317.572488 
L 239.789428 316.168517 
L 240.886643 292.301104 
L 241.983858 304.990235 
L 243.081073 308.975612 
L 244.178288 306.362484 
L 245.275503 301.38985 
L 246.372718 317.17245 
L 247.469933 325.691873 
L 248.567148 310.064213 
L 249.664363 292.109792 
L 250.761577 299.853912 
L 251.858792 306.401548 
L 252.956007 309.362799 
L 254.053222 311.613785 
L 255.150437 289.709643 
L 256.247652 287.554711 
L 257.344867 289.974066 
L 258.442082 290.75942 
L 259.539297 292.882762 
L 260.636512 298.663428 
L 261.733727 295.016064 
L 263.928157 282.369347 
L 265.025371 279.091858 
L 266.122586 270.273179 
L 267.219801 277.410303 
L 268.317016 281.366189 
L 269.414231 268.096392 
L 270.511446 269.950405 
L 271.608661 263.999882 
L 272.705876 258.931825 
L 273.803091 257.265098 
L 274.900306 261.523851 
L 275.997521 266.648904 
L 277.094736 263.296889 
L 278.191951 248.359605 
L 279.289165 251.147547 
L 280.38638 234.377415 
L 281.483595 232.371427 
L 282.58081 235.740061 
L 283.678025 249.67329 
L 284.77524 245.459406 
L 285.872455 243.312816 
L 286.96967 230.833811 
L 288.066885 232.665262 
L 289.1641 227.215236 
L 290.261315 230.977048 
L 291.35853 244.329679 
L 292.455745 240.052967 
L 293.552959 231.178781 
L 294.650174 234.400038 
L 295.747389 227.278335 
L 296.844604 230.125299 
L 297.941819 218.861837 
L 299.039034 224.41565 
L 300.136249 233.574564 
L 301.233464 230.628789 
L 302.330679 221.499275 
L 303.427894 227.195073 
L 304.525109 230.214667 
L 305.622324 224.751695 
L 306.719539 230.161572 
L 307.816753 232.811779 
L 308.913968 231.774854 
L 310.011183 230.436484 
L 311.108398 224.830517 
L 312.205613 225.404944 
L 313.302828 233.107059 
L 314.400043 234.539398 
L 315.497258 233.461671 
L 316.594473 232.793423 
L 317.691688 231.274375 
L 318.788903 234.168185 
L 319.886118 232.200144 
L 320.983333 241.024589 
L 322.080547 252.64025 
L 323.177762 248.702353 
L 324.274977 248.899288 
L 325.372192 238.885498 
L 326.469407 238.749873 
L 327.566622 235.835043 
L 328.663837 244.821696 
L 329.761052 256.51856 
L 331.955482 237.202224 
L 333.052697 244.789251 
L 334.149912 245.199811 
L 335.247127 244.256822 
L 336.344342 259.258677 
L 337.441556 269.207404 
L 338.538771 258.811144 
L 339.635986 256.798011 
L 340.733201 253.86337 
L 341.830416 253.056617 
L 342.927631 255.45382 
L 344.024846 266.178851 
L 345.122061 274.135436 
L 347.316491 263.883018 
L 348.413706 263.446728 
L 349.510921 258.984782 
L 350.608136 264.090101 
L 351.70535 270.250803 
L 352.802565 279.351219 
L 353.89978 239.193002 
L 354.996995 272.349513 
L 356.09421 260.894137 
L 357.191425 264.081067 
L 358.28864 260.214575 
L 360.48307 280.080636 
L 361.580285 280.31736 
L 362.6775 276.84274 
L 363.774715 270.250803 
L 364.87193 260.262023 
L 365.969144 264.153422 
L 367.066359 272.098051 
L 368.163574 281.729981 
L 369.260789 264.831447 
L 370.358004 272.920369 
L 371.455219 263.570711 
L 372.552434 264.026918 
L 373.649649 260.877962 
L 374.746864 270.952663 
L 375.844079 282.591366 
L 376.941294 271.543062 
L 378.038509 270.172621 
L 379.135724 270.724388 
L 380.232938 267.439584 
L 381.330153 267.972098 
L 382.427368 279.397231 
L 383.524583 306.440665 
L 384.621798 263.473251 
L 385.719013 278.401514 
L 386.816228 269.751861 
L 387.913443 269.402228 
L 389.010658 268.054901 
L 390.107873 279.61293 
L 391.205088 287.636258 
L 392.302303 274.225131 
L 393.399518 270.261989 
L 394.496732 263.121597 
L 395.593947 266.827165 
L 395.598436 539.890812 
M 397.783581 539.890812 
L 397.788377 248.051978 
L 398.885592 285.322411 
L 399.982807 268.704804 
L 401.080022 267.076588 
L 402.177237 262.687965 
L 403.274452 261.898324 
L 404.371667 257.300793 
L 405.468882 270.747134 
L 406.566097 282.216634 
L 407.663312 260.167205 
L 408.760526 275.632016 
L 409.857741 248.114281 
L 410.954956 259.954994 
L 412.052171 254.401076 
L 413.149386 272.554693 
L 414.246601 262.507763 
L 415.343816 255.541064 
L 416.441031 256.798011 
L 417.538246 256.221134 
L 418.635461 247.938103 
L 419.732676 273.21628 
L 420.829891 251.961348 
L 421.927106 253.260861 
L 423.02432 253.347948 
L 424.121535 254.712891 
L 425.21875 244.692132 
L 427.41318 254.5241 
L 428.510395 242.203178 
L 429.60761 258.170981 
L 430.704825 255.17374 
L 431.80204 246.694436 
L 432.899255 247.860717 
L 433.99647 241.728457 
L 435.093685 253.933217 
L 436.1909 230.845244 
L 437.288114 253.186423 
L 438.385329 239.615911 
L 439.482544 237.865269 
L 440.579759 233.919094 
L 441.676974 233.919094 
L 442.774189 236.152779 
L 443.871404 243.207369 
L 444.968619 244.352485 
L 446.065834 235.655519 
L 447.163049 236.266369 
L 447.168038 539.890812 
M 449.352146 539.890812 
L 449.357479 215.239456 
L 450.454694 244.599941 
L 451.551908 239.990124 
L 452.649123 242.893318 
L 453.746338 234.685964 
L 454.843553 231.164325 
L 455.940768 228.7371 
L 457.037983 230.640141 
L 458.135198 229.927997 
L 459.232413 236.060172 
L 460.329628 238.656062 
L 461.426843 237.647382 
L 463.621273 227.527021 
L 464.718488 226.613926 
L 465.815703 229.526462 
L 466.912917 234.325772 
L 468.010132 236.005434 
L 469.107347 232.90066 
L 470.204562 227.00673 
L 471.301777 223.240777 
L 472.398992 223.567798 
L 473.496207 226.655934 
L 474.593422 236.180275 
L 475.690637 228.354297 
L 476.787852 229.91969 
L 477.885067 227.402411 
L 478.982282 223.242974 
L 478.987483 539.890812 
M 481.171387 539.890812 
L 481.176711 215.746896 
L 482.273926 239.880477 
L 483.371141 236.886891 
L 484.468356 225.700087 
L 485.565571 221.694381 
L 486.662786 215.493742 
L 486.668114 539.890812 
M 488.851601 539.890812 
L 488.857216 197.98428 
L 489.954431 229.455538 
L 491.051646 227.729063 
L 492.148861 218.615548 
L 493.246076 214.517362 
L 494.343291 211.390326 
L 495.440505 211.810298 
L 497.634935 225.136238 
L 498.73215 226.919254 
L 499.829365 219.634884 
L 500.92658 221.447606 
L 502.023795 222.010581 
L 503.12101 216.031375 
L 504.218225 225.595013 
L 505.31544 228.150454 
L 506.412655 237.585945 
L 508.607085 226.087851 
L 509.704299 223.8514 
L 510.801514 222.012687 
L 511.898729 225.140931 
L 512.995944 232.522515 
L 514.093159 235.103661 
L 515.190374 232.344315 
L 516.287589 236.156214 
L 517.384804 227.303613 
L 518.482019 228.45676 
L 519.579234 219.397328 
L 520.676449 238.369025 
L 521.773664 247.233855 
L 522.870879 229.646886 
L 523.968093 241.53742 
L 525.065308 238.656062 
L 526.162523 227.001724 
L 527.259738 239.511532 
L 528.356953 243.045555 
L 529.454168 247.198586 
L 530.551383 241.355863 
L 531.648598 239.315393 
L 532.745813 235.756999 
L 533.843028 239.010383 
L 534.940243 239.399839 
L 536.037458 248.755447 
L 537.134673 260.540369 
L 538.231887 244.508043 
L 539.329102 240.072633 
L 540.426317 250.502455 
L 541.523532 242.789388 
L 542.620747 240.317616 
L 543.717962 250.797523 
L 544.815177 256.546383 
L 545.912392 247.845265 
L 547.009607 240.927159 
L 548.106822 242.975861 
L 549.204037 246.281743 
L 550.301252 248.633478 
L 551.398467 248.213204 
L 552.495681 282.335341 
L 553.592896 240.721204 
L 554.690111 245.836409 
L 555.787326 245.341119 
L 556.884541 246.024354 
L 557.981756 253.019636 
L 559.078971 256.917601 
L 560.176186 263.069216 
L 561.273401 254.693303 
L 562.370616 252.032691 
L 563.467831 250.797523 
L 564.565046 249.959967 
L 565.662261 249.79423 
L 566.759475 259.876791 
L 567.85669 267.653457 
L 568.953905 252.404131 
L 570.05112 253.585659 
L 571.148335 250.638266 
L 572.24555 250.3729 
L 573.342765 250.570281 
L 574.43998 257.710866 
L 575.537195 267.287781 
L 576.63441 249.476474 
L 577.731625 250.356044 
L 578.82884 247.017878 
L 579.926055 247.1332 
L 581.02327 246.472618 
L 582.120484 251.501863 
L 583.217699 262.533437 
L 584.314914 250.814639 
L 585.412129 249.520095 
L 586.509344 242.330532 
L 587.606559 243.635937 
L 588.703774 245.822002 
L 589.800989 252.386048 
L 590.898204 261.639835 
L 591.995419 248.124678 
L 593.092634 246.462798 
L 594.189849 237.814281 
L 595.287064 240.955542 
L 596.384278 241.841179 
L 597.481493 248.312467 
L 598.578708 283.8529 
L 599.675923 233.9732 
L 600.773138 242.407215 
L 601.870353 242.449904 
L 602.967568 240.254196 
L 604.064783 244.389012 
L 605.161998 242.143938 
L 606.259213 255.953999 
L 607.356428 247.665596 
L 608.453643 248.046792 
L 609.550858 242.785066 
L 610.648072 248.607031 
L 611.745287 239.802412 
L 612.842502 253.136904 
L 613.939717 261.367187 
L 615.036932 249.645874 
L 616.134147 250.160116 
L 617.231362 247.558329 
L 618.328577 249.454688 
L 619.425792 248.84593 
L 620.523007 258.788572 
L 621.620222 265.214076 
L 623.814652 254.902923 
L 624.911866 254.188639 
L 626.009081 256.449117 
L 627.106296 257.783412 
L 628.203511 263.7845 
L 629.300726 273.653324 
L 630.397941 263.499799 
L 631.495156 264.207808 
L 632.592371 257.158277 
L 633.689586 260.740841 
L 634.786801 263.008225 
L 635.884016 271.403055 
L 636.981231 277.989241 
L 638.078446 267.868926 
L 639.17566 267.807199 
L 640.272875 266.97656 
L 641.37009 272.724766 
L 642.467305 262.260746 
L 643.56452 276.660657 
L 644.661735 283.978539 
L 645.75895 279.52029 
L 646.856165 273.265894 
L 647.95338 273.129659 
L 649.050595 273.129659 
L 649.05498 539.890812 
M 653.434628 539.890812 
L 653.439454 246.208664 
L 654.536669 291.590124 
L 655.633884 279.458695 
L 655.638166 539.890812 
M 660.018027 539.890812 
L 660.022744 252.853807 
L 661.119959 292.785002 
L 662.217174 284.267784 
L 663.314389 281.896868 
L 664.411604 274.40536 
L 664.415968 539.890812 
M 666.601747 539.890812 
L 666.606034 279.152675 
L 667.703248 274.444127 
L 668.800463 297.925318 
L 669.897678 282.014265 
L 670.994893 283.62101 
L 672.092108 283.603249 
L 672.096322 539.890812 
M 675.379153 539.890812 
L 675.383753 260.041262 
L 676.480968 282.694415 
L 677.578183 279.366548 
L 678.675398 278.594944 
L 678.675398 278.594944 
" style="fill:none;stroke:#fc4f30;stroke-width:4;"/>
   </g>
   <g id="patch_3">
    <path d="M 80.748125 515.4355 
L 80.748125 31.5955 
" style="fill:none;stroke:#f0f0f0;stroke-linecap:square;stroke-linejoin:miter;stroke-width:3;"/>
   </g>
   <g id="patch_4">
    <path d="M 80.748125 515.4355 
L 707.148125 515.4355 
" style="fill:none;stroke:#f0f0f0;stroke-linecap:square;stroke-linejoin:miter;stroke-width:3;"/>
   </g>
   <g id="text_19">
    <!-- New Cases of COVID-19 -->
    <g style="fill:#555555;" transform="translate(282.321575 21.5955)scale(0.2016 -0.2016)">
     <defs>
      <path d="M 7.703125 71.40625 
L 7.703125 0 
L 16.703125 0 
L 16.703125 57.296875 
L 16.90625 57.296875 
L 54.203125 0 
L 64.59375 0 
L 64.59375 71.40625 
L 55.59375 71.40625 
L 55.59375 13.5 
L 55.40625 13.5 
L 17.796875 71.40625 
z
" id="HelveticaNeue-78"/>
      <path d="M 42.296875 30.796875 
L 12.59375 30.796875 
Q 12.796875 33.796875 13.890625 36.4375 
Q 15 39.09375 16.890625 41.09375 
Q 18.796875 43.09375 21.4375 44.25 
Q 24.09375 45.40625 27.40625 45.40625 
Q 30.59375 45.40625 33.25 44.25 
Q 35.90625 43.09375 37.84375 41.140625 
Q 39.796875 39.203125 40.9375 36.5 
Q 42.09375 33.796875 42.296875 30.796875 
z
M 50.5 16.40625 
L 42.09375 16.40625 
Q 41 11.296875 37.546875 8.796875 
Q 34.09375 6.296875 28.703125 6.296875 
Q 24.5 6.296875 21.390625 7.6875 
Q 18.296875 9.09375 16.296875 11.4375 
Q 14.296875 13.796875 13.390625 16.84375 
Q 12.5 19.90625 12.59375 23.296875 
L 51.296875 23.296875 
Q 51.5 28 50.453125 33.203125 
Q 49.40625 38.40625 46.65625 42.796875 
Q 43.90625 47.203125 39.34375 50.046875 
Q 34.796875 52.90625 27.90625 52.90625 
Q 22.59375 52.90625 18.140625 50.90625 
Q 13.703125 48.90625 10.453125 45.296875 
Q 7.203125 41.703125 5.390625 36.796875 
Q 3.59375 31.90625 3.59375 26 
Q 3.796875 20.09375 5.34375 15.09375 
Q 6.90625 10.09375 10 6.5 
Q 13.09375 2.90625 17.640625 0.90625 
Q 22.203125 -1.09375 28.40625 -1.09375 
Q 37.203125 -1.09375 43 3.296875 
Q 48.796875 7.703125 50.5 16.40625 
z
" id="HelveticaNeue-101"/>
      <path d="M 57.59375 0 
L 74.09375 51.703125 
L 65.296875 51.703125 
L 53.703125 9.40625 
L 53.5 9.40625 
L 42.703125 51.703125 
L 33.40625 51.703125 
L 23 9.40625 
L 22.796875 9.40625 
L 11.09375 51.703125 
L 1.703125 51.703125 
L 18.296875 0 
L 27.5 0 
L 37.90625 41.09375 
L 38.09375 41.09375 
L 48.59375 0 
z
" id="HelveticaNeue-119"/>
      <path id="HelveticaNeue-32"/>
      <path d="M 58 49.90625 
L 67.5 49.90625 
Q 66.703125 55.59375 64.09375 59.9375 
Q 61.5 64.296875 57.59375 67.1875 
Q 53.703125 70.09375 48.703125 71.59375 
Q 43.703125 73.09375 38.09375 73.09375 
Q 29.90625 73.09375 23.546875 70.140625 
Q 17.203125 67.203125 12.953125 62.09375 
Q 8.703125 57 6.5 50.140625 
Q 4.296875 43.296875 4.296875 35.5 
Q 4.296875 27.703125 6.34375 20.890625 
Q 8.40625 14.09375 12.5 9.09375 
Q 16.59375 4.09375 22.796875 1.25 
Q 29 -1.59375 37.296875 -1.59375 
Q 51 -1.59375 58.890625 5.90625 
Q 66.796875 13.40625 68.203125 26.90625 
L 58.703125 26.90625 
Q 58.40625 22.5 56.90625 18.703125 
Q 55.40625 14.90625 52.75 12.15625 
Q 50.09375 9.40625 46.4375 7.84375 
Q 42.796875 6.296875 38.09375 6.296875 
Q 31.703125 6.296875 27.09375 8.6875 
Q 22.5 11.09375 19.546875 15.140625 
Q 16.59375 19.203125 15.1875 24.640625 
Q 13.796875 30.09375 13.796875 36.203125 
Q 13.796875 41.796875 15.1875 47 
Q 16.59375 52.203125 19.546875 56.25 
Q 22.5 60.296875 27.046875 62.6875 
Q 31.59375 65.09375 38 65.09375 
Q 45.5 65.09375 50.953125 61.296875 
Q 56.40625 57.5 58 49.90625 
z
" id="HelveticaNeue-67"/>
      <path d="M 52.203125 0.203125 
Q 50 -1.09375 46.09375 -1.09375 
Q 42.796875 -1.09375 40.84375 0.75 
Q 38.90625 2.59375 38.90625 6.796875 
Q 35.40625 2.59375 30.75 0.75 
Q 26.09375 -1.09375 20.703125 -1.09375 
Q 17.203125 -1.09375 14.046875 -0.296875 
Q 10.90625 0.5 8.59375 2.203125 
Q 6.296875 3.90625 4.9375 6.65625 
Q 3.59375 9.40625 3.59375 13.296875 
Q 3.59375 17.703125 5.09375 20.5 
Q 6.59375 23.296875 9.046875 25.046875 
Q 11.5 26.796875 14.640625 27.6875 
Q 17.796875 28.59375 21.09375 29.203125 
Q 24.59375 29.90625 27.75 30.25 
Q 30.90625 30.59375 33.296875 31.25 
Q 35.703125 31.90625 37.09375 33.15625 
Q 38.5 34.40625 38.5 36.796875 
Q 38.5 39.59375 37.453125 41.296875 
Q 36.40625 43 34.75 43.890625 
Q 33.09375 44.796875 31.046875 45.09375 
Q 29 45.40625 27 45.40625 
Q 21.59375 45.40625 18 43.34375 
Q 14.40625 41.296875 14.09375 35.59375 
L 5.59375 35.59375 
Q 5.796875 40.40625 7.59375 43.703125 
Q 9.40625 47 12.40625 49.046875 
Q 15.40625 51.09375 19.25 52 
Q 23.09375 52.90625 27.5 52.90625 
Q 31 52.90625 34.453125 52.40625 
Q 37.90625 51.90625 40.703125 50.34375 
Q 43.5 48.796875 45.203125 46 
Q 46.90625 43.203125 46.90625 38.703125 
L 46.90625 12.09375 
Q 46.90625 9.09375 47.25 7.6875 
Q 47.59375 6.296875 49.59375 6.296875 
Q 50.703125 6.296875 52.203125 6.796875 
z
M 38.40625 26.703125 
Q 36.796875 25.5 34.1875 24.953125 
Q 31.59375 24.40625 28.75 24.046875 
Q 25.90625 23.703125 23 23.25 
Q 20.09375 22.796875 17.796875 21.796875 
Q 15.5 20.796875 14.046875 18.9375 
Q 12.59375 17.09375 12.59375 13.90625 
Q 12.59375 11.796875 13.4375 10.34375 
Q 14.296875 8.90625 15.640625 8 
Q 17 7.09375 18.796875 6.6875 
Q 20.59375 6.296875 22.59375 6.296875 
Q 26.796875 6.296875 29.796875 7.4375 
Q 32.796875 8.59375 34.6875 10.34375 
Q 36.59375 12.09375 37.5 14.140625 
Q 38.40625 16.203125 38.40625 18 
z
" id="HelveticaNeue-97"/>
      <path d="M 11.59375 16.296875 
L 3.09375 16.296875 
Q 3.296875 11.5 5.09375 8.140625 
Q 6.90625 4.796875 9.90625 2.75 
Q 12.90625 0.703125 16.796875 -0.1875 
Q 20.703125 -1.09375 25 -1.09375 
Q 28.90625 -1.09375 32.84375 -0.34375 
Q 36.796875 0.40625 39.9375 2.296875 
Q 43.09375 4.203125 45.046875 7.296875 
Q 47 10.40625 47 15.09375 
Q 47 18.796875 45.546875 21.296875 
Q 44.09375 23.796875 41.75 25.4375 
Q 39.40625 27.09375 36.34375 28.09375 
Q 33.296875 29.09375 30.09375 29.796875 
Q 27.09375 30.5 24.09375 31.140625 
Q 21.09375 31.796875 18.6875 32.75 
Q 16.296875 33.703125 14.75 35.140625 
Q 13.203125 36.59375 13.203125 38.796875 
Q 13.203125 40.796875 14.203125 42.046875 
Q 15.203125 43.296875 16.796875 44.046875 
Q 18.40625 44.796875 20.34375 45.09375 
Q 22.296875 45.40625 24.203125 45.40625 
Q 26.296875 45.40625 28.34375 44.953125 
Q 30.40625 44.5 32.09375 43.5 
Q 33.796875 42.5 34.890625 40.84375 
Q 36 39.203125 36.203125 36.703125 
L 44.703125 36.703125 
Q 44.40625 41.40625 42.703125 44.546875 
Q 41 47.703125 38.140625 49.546875 
Q 35.296875 51.40625 31.59375 52.15625 
Q 27.90625 52.90625 23.5 52.90625 
Q 20.09375 52.90625 16.640625 52.046875 
Q 13.203125 51.203125 10.453125 49.453125 
Q 7.703125 47.703125 5.953125 44.890625 
Q 4.203125 42.09375 4.203125 38.203125 
Q 4.203125 33.203125 6.703125 30.390625 
Q 9.203125 27.59375 12.953125 26.046875 
Q 16.703125 24.5 21.09375 23.640625 
Q 25.5 22.796875 29.25 21.75 
Q 33 20.703125 35.5 19 
Q 38 17.296875 38 14 
Q 38 11.59375 36.796875 10.046875 
Q 35.59375 8.5 33.75 7.703125 
Q 31.90625 6.90625 29.703125 6.59375 
Q 27.5 6.296875 25.5 6.296875 
Q 22.90625 6.296875 20.453125 6.796875 
Q 18 7.296875 16.046875 8.4375 
Q 14.09375 9.59375 12.890625 11.546875 
Q 11.703125 13.5 11.59375 16.296875 
z
" id="HelveticaNeue-115"/>
      <path d="M 12.59375 25.796875 
Q 12.59375 30.5 13.84375 34.140625 
Q 15.09375 37.796875 17.296875 40.296875 
Q 19.5 42.796875 22.453125 44.09375 
Q 25.40625 45.40625 28.703125 45.40625 
Q 32 45.40625 34.953125 44.09375 
Q 37.90625 42.796875 40.09375 40.296875 
Q 42.296875 37.796875 43.546875 34.140625 
Q 44.796875 30.5 44.796875 25.796875 
Q 44.796875 21.09375 43.546875 17.4375 
Q 42.296875 13.796875 40.09375 11.34375 
Q 37.90625 8.90625 34.953125 7.59375 
Q 32 6.296875 28.703125 6.296875 
Q 25.40625 6.296875 22.453125 7.59375 
Q 19.5 8.90625 17.296875 11.34375 
Q 15.09375 13.796875 13.84375 17.4375 
Q 12.59375 21.09375 12.59375 25.796875 
z
M 3.59375 25.796875 
Q 3.59375 20.09375 5.1875 15.1875 
Q 6.796875 10.296875 10 6.640625 
Q 13.203125 3 17.890625 0.953125 
Q 22.59375 -1.09375 28.703125 -1.09375 
Q 34.90625 -1.09375 39.546875 0.953125 
Q 44.203125 3 47.390625 6.640625 
Q 50.59375 10.296875 52.1875 15.1875 
Q 53.796875 20.09375 53.796875 25.796875 
Q 53.796875 31.5 52.1875 36.453125 
Q 50.59375 41.40625 47.390625 45.046875 
Q 44.203125 48.703125 39.546875 50.796875 
Q 34.90625 52.90625 28.703125 52.90625 
Q 22.59375 52.90625 17.890625 50.796875 
Q 13.203125 48.703125 10 45.046875 
Q 6.796875 41.40625 5.1875 36.453125 
Q 3.59375 31.5 3.59375 25.796875 
z
" id="HelveticaNeue-111"/>
      <path d="M 9.90625 44.203125 
L 9.90625 0 
L 18.40625 0 
L 18.40625 44.203125 
L 28.40625 44.203125 
L 28.40625 51.703125 
L 18.40625 51.703125 
L 18.40625 58.90625 
Q 18.40625 62.296875 20.09375 63.5 
Q 21.796875 64.703125 24.90625 64.703125 
Q 26 64.703125 27.296875 64.546875 
Q 28.59375 64.40625 29.703125 64 
L 29.703125 71.40625 
Q 28.5 71.796875 26.953125 72 
Q 25.40625 72.203125 24.203125 72.203125 
Q 17.203125 72.203125 13.546875 68.953125 
Q 9.90625 65.703125 9.90625 59.40625 
L 9.90625 51.703125 
L 1.203125 51.703125 
L 1.203125 44.203125 
z
" id="HelveticaNeue-102"/>
      <path d="M 13.296875 35.703125 
Q 13.296875 41.09375 14.6875 46.34375 
Q 16.09375 51.59375 19.09375 55.796875 
Q 22.09375 60 26.796875 62.546875 
Q 31.5 65.09375 38 65.09375 
Q 44.5 65.09375 49.203125 62.546875 
Q 53.90625 60 56.90625 55.796875 
Q 59.90625 51.59375 61.296875 46.34375 
Q 62.703125 41.09375 62.703125 35.703125 
Q 62.703125 30.296875 61.296875 25.046875 
Q 59.90625 19.796875 56.90625 15.59375 
Q 53.90625 11.40625 49.203125 8.84375 
Q 44.5 6.296875 38 6.296875 
Q 31.5 6.296875 26.796875 8.84375 
Q 22.09375 11.40625 19.09375 15.59375 
Q 16.09375 19.796875 14.6875 25.046875 
Q 13.296875 30.296875 13.296875 35.703125 
z
M 3.796875 35.703125 
Q 3.796875 28.40625 5.9375 21.65625 
Q 8.09375 14.90625 12.390625 9.703125 
Q 16.703125 4.5 23.09375 1.453125 
Q 29.5 -1.59375 38 -1.59375 
Q 46.5 -1.59375 52.890625 1.453125 
Q 59.296875 4.5 63.59375 9.703125 
Q 67.90625 14.90625 70.046875 21.65625 
Q 72.203125 28.40625 72.203125 35.703125 
Q 72.203125 43 70.046875 49.75 
Q 67.90625 56.5 63.59375 61.703125 
Q 59.296875 66.90625 52.890625 70 
Q 46.5 73.09375 38 73.09375 
Q 29.5 73.09375 23.09375 70 
Q 16.703125 66.90625 12.390625 61.703125 
Q 8.09375 56.5 5.9375 49.75 
Q 3.796875 43 3.796875 35.703125 
z
" id="HelveticaNeue-79"/>
      <path d="M 35.90625 0 
L 61.296875 71.40625 
L 51.40625 71.40625 
L 30.796875 9.5 
L 30.59375 9.5 
L 10.203125 71.40625 
L 0 71.40625 
L 25.09375 0 
z
" id="HelveticaNeue-86"/>
      <path d="M 8.203125 71.40625 
L 8.203125 0 
L 17.703125 0 
L 17.703125 71.40625 
z
" id="HelveticaNeue-73"/>
      <path d="M 17.296875 8 
L 17.296875 63.40625 
L 33.296875 63.40625 
Q 39.90625 63.40625 44.40625 61.546875 
Q 48.90625 59.703125 51.75 56.140625 
Q 54.59375 52.59375 55.84375 47.546875 
Q 57.09375 42.5 57.09375 36.09375 
Q 57.09375 29.5 55.75 24.84375 
Q 54.40625 20.203125 52.296875 17.09375 
Q 50.203125 14 47.546875 12.203125 
Q 44.90625 10.40625 42.203125 9.453125 
Q 39.5 8.5 37.09375 8.25 
Q 34.703125 8 33.09375 8 
z
M 7.796875 71.40625 
L 7.796875 0 
L 32.296875 0 
Q 41.203125 0 47.703125 2.5 
Q 54.203125 5 58.390625 9.75 
Q 62.59375 14.5 64.59375 21.453125 
Q 66.59375 28.40625 66.59375 37.40625 
Q 66.59375 54.59375 57.6875 63 
Q 48.796875 71.40625 32.296875 71.40625 
z
" id="HelveticaNeue-68"/>
     </defs>
     <use xlink:href="#HelveticaNeue-78"/>
     <use x="72.199982" xlink:href="#HelveticaNeue-101"/>
     <use x="125.899979" xlink:href="#HelveticaNeue-119"/>
     <use x="201.699966" xlink:href="#HelveticaNeue-32"/>
     <use x="229.499954" xlink:href="#HelveticaNeue-67"/>
     <use x="301.699936" xlink:href="#HelveticaNeue-97"/>
     <use x="355.399933" xlink:href="#HelveticaNeue-115"/>
     <use x="405.399918" xlink:href="#HelveticaNeue-101"/>
     <use x="459.099915" xlink:href="#HelveticaNeue-115"/>
     <use x="509.099899" xlink:href="#HelveticaNeue-32"/>
     <use x="536.899887" xlink:href="#HelveticaNeue-111"/>
     <use x="594.299881" xlink:href="#HelveticaNeue-102"/>
     <use x="623.899872" xlink:href="#HelveticaNeue-32"/>
     <use x="651.69986" xlink:href="#HelveticaNeue-67"/>
     <use x="723.899841" xlink:href="#HelveticaNeue-79"/>
     <use x="799.899826" xlink:href="#HelveticaNeue-86"/>
     <use x="860.999817" xlink:href="#HelveticaNeue-73"/>
     <use x="886.899811" xlink:href="#HelveticaNeue-68"/>
     <use x="957.299805" xlink:href="#HelveticaNeue-45"/>
     <use x="996.199799" xlink:href="#HelveticaNeue-49"/>
     <use x="1051.799789" xlink:href="#HelveticaNeue-57"/>
    </g>
   </g>
   <g id="legend_1">
    <g id="line2d_99">
     <path d="M 570.298125 49.292375 
L 598.298125 49.292375 
" style="fill:none;stroke:#008fd5;stroke-width:4;"/>
    </g>
    <g id="line2d_100"/>
    <g id="text_20">
     <!-- United States -->
     <g style="fill:#555555;" transform="translate(609.498125 54.192375)scale(0.14 -0.14)">
      <defs>
       <path d="M 64.796875 25.796875 
L 64.796875 71.40625 
L 55.296875 71.40625 
L 55.296875 25.796875 
Q 55.296875 16.203125 50.546875 11.25 
Q 45.796875 6.296875 36.703125 6.296875 
Q 27.09375 6.296875 22 11.25 
Q 16.90625 16.203125 16.90625 25.796875 
L 16.90625 71.40625 
L 7.40625 71.40625 
L 7.40625 25.796875 
Q 7.40625 11.5 15.15625 4.953125 
Q 22.90625 -1.59375 36.703125 -1.59375 
Q 50.203125 -1.59375 57.5 5.25 
Q 64.796875 12.09375 64.796875 25.796875 
z
" id="HelveticaNeue-85"/>
       <path d="M 6.40625 51.703125 
L 6.40625 0 
L 14.90625 0 
L 14.90625 29.203125 
Q 14.90625 32.703125 15.84375 35.640625 
Q 16.796875 38.59375 18.6875 40.796875 
Q 20.59375 43 23.4375 44.203125 
Q 26.296875 45.40625 30.203125 45.40625 
Q 35.09375 45.40625 37.890625 42.59375 
Q 40.703125 39.796875 40.703125 35 
L 40.703125 0 
L 49.203125 0 
L 49.203125 34 
Q 49.203125 38.203125 48.34375 41.640625 
Q 47.5 45.09375 45.390625 47.59375 
Q 43.296875 50.09375 39.890625 51.5 
Q 36.5 52.90625 31.40625 52.90625 
Q 19.90625 52.90625 14.59375 43.5 
L 14.40625 43.5 
L 14.40625 51.703125 
z
" id="HelveticaNeue-110"/>
       <path d="M 15.40625 61 
L 15.40625 71.40625 
L 6.90625 71.40625 
L 6.90625 61 
z
M 6.90625 51.703125 
L 6.90625 0 
L 15.40625 0 
L 15.40625 51.703125 
z
" id="HelveticaNeue-105"/>
       <path d="M 18.203125 51.703125 
L 18.203125 67.203125 
L 9.703125 67.203125 
L 9.703125 51.703125 
L 0.90625 51.703125 
L 0.90625 44.203125 
L 9.703125 44.203125 
L 9.703125 11.296875 
Q 9.703125 7.703125 10.390625 5.5 
Q 11.09375 3.296875 12.546875 2.09375 
Q 14 0.90625 16.34375 0.453125 
Q 18.703125 0 22 0 
L 28.5 0 
L 28.5 7.5 
L 24.59375 7.5 
Q 22.59375 7.5 21.34375 7.640625 
Q 20.09375 7.796875 19.390625 8.296875 
Q 18.703125 8.796875 18.453125 9.6875 
Q 18.203125 10.59375 18.203125 12.09375 
L 18.203125 44.203125 
L 28.5 44.203125 
L 28.5 51.703125 
z
" id="HelveticaNeue-116"/>
       <path d="M 12.59375 25.40625 
Q 12.59375 29.203125 13.390625 32.796875 
Q 14.203125 36.40625 16 39.203125 
Q 17.796875 42 20.796875 43.703125 
Q 23.796875 45.40625 28.09375 45.40625 
Q 32.5 45.40625 35.59375 43.75 
Q 38.703125 42.09375 40.640625 39.390625 
Q 42.59375 36.703125 43.5 33.140625 
Q 44.40625 29.59375 44.40625 25.796875 
Q 44.40625 22.203125 43.546875 18.703125 
Q 42.703125 15.203125 40.796875 12.453125 
Q 38.90625 9.703125 35.90625 8 
Q 32.90625 6.296875 28.59375 6.296875 
Q 24.5 6.296875 21.453125 7.890625 
Q 18.40625 9.5 16.453125 12.203125 
Q 14.5 14.90625 13.546875 18.34375 
Q 12.59375 21.796875 12.59375 25.40625 
z
M 52.59375 0 
L 52.59375 71.40625 
L 44.09375 71.40625 
L 44.09375 44.796875 
L 43.90625 44.796875 
Q 42.5 47.09375 40.453125 48.640625 
Q 38.40625 50.203125 36.09375 51.140625 
Q 33.796875 52.09375 31.5 52.5 
Q 29.203125 52.90625 27.203125 52.90625 
Q 21.296875 52.90625 16.84375 50.75 
Q 12.40625 48.59375 9.453125 44.9375 
Q 6.5 41.296875 5.046875 36.390625 
Q 3.59375 31.5 3.59375 26 
Q 3.59375 20.5 5.09375 15.59375 
Q 6.59375 10.703125 9.546875 7 
Q 12.5 3.296875 16.953125 1.09375 
Q 21.40625 -1.09375 27.40625 -1.09375 
Q 32.796875 -1.09375 37.296875 0.796875 
Q 41.796875 2.703125 43.90625 7 
L 44.09375 7 
L 44.09375 0 
z
" id="HelveticaNeue-100"/>
       <path d="M 49.09375 50.5 
L 58.09375 50.5 
Q 57.90625 56.40625 55.84375 60.65625 
Q 53.796875 64.90625 50.25 67.703125 
Q 46.703125 70.5 42 71.796875 
Q 37.296875 73.09375 31.796875 73.09375 
Q 26.90625 73.09375 22.25 71.84375 
Q 17.59375 70.59375 13.9375 68.046875 
Q 10.296875 65.5 8.09375 61.546875 
Q 5.90625 57.59375 5.90625 52.203125 
Q 5.90625 47.296875 7.84375 44.046875 
Q 9.796875 40.796875 13.046875 38.75 
Q 16.296875 36.703125 20.390625 35.453125 
Q 24.5 34.203125 28.75 33.25 
Q 33 32.296875 37.09375 31.390625 
Q 41.203125 30.5 44.453125 29.046875 
Q 47.703125 27.59375 49.640625 25.296875 
Q 51.59375 23 51.59375 19.296875 
Q 51.59375 15.40625 50 12.90625 
Q 48.40625 10.40625 45.796875 8.953125 
Q 43.203125 7.5 39.953125 6.890625 
Q 36.703125 6.296875 33.5 6.296875 
Q 29.5 6.296875 25.703125 7.296875 
Q 21.90625 8.296875 19.046875 10.390625 
Q 16.203125 12.5 14.453125 15.75 
Q 12.703125 19 12.703125 23.5 
L 3.703125 23.5 
Q 3.703125 17 6.046875 12.25 
Q 8.40625 7.5 12.453125 4.453125 
Q 16.5 1.40625 21.84375 -0.09375 
Q 27.203125 -1.59375 33.203125 -1.59375 
Q 38.09375 -1.59375 43.046875 -0.4375 
Q 48 0.703125 52 3.25 
Q 56 5.796875 58.546875 9.84375 
Q 61.09375 13.90625 61.09375 19.59375 
Q 61.09375 24.90625 59.140625 28.40625 
Q 57.203125 31.90625 53.953125 34.203125 
Q 50.703125 36.5 46.59375 37.84375 
Q 42.5 39.203125 38.25 40.203125 
Q 34 41.203125 29.890625 42.046875 
Q 25.796875 42.90625 22.546875 44.203125 
Q 19.296875 45.5 17.34375 47.546875 
Q 15.40625 49.59375 15.40625 52.90625 
Q 15.40625 56.40625 16.75 58.75 
Q 18.09375 61.09375 20.34375 62.5 
Q 22.59375 63.90625 25.5 64.5 
Q 28.40625 65.09375 31.40625 65.09375 
Q 38.796875 65.09375 43.546875 61.640625 
Q 48.296875 58.203125 49.09375 50.5 
z
" id="HelveticaNeue-83"/>
      </defs>
      <use xlink:href="#HelveticaNeue-85"/>
      <use x="72.199982" xlink:href="#HelveticaNeue-110"/>
      <use x="127.799973" xlink:href="#HelveticaNeue-105"/>
      <use x="149.999969" xlink:href="#HelveticaNeue-116"/>
      <use x="181.499954" xlink:href="#HelveticaNeue-101"/>
      <use x="235.199951" xlink:href="#HelveticaNeue-100"/>
      <use x="294.499939" xlink:href="#HelveticaNeue-32"/>
      <use x="322.299927" xlink:href="#HelveticaNeue-83"/>
      <use x="387.099915" xlink:href="#HelveticaNeue-116"/>
      <use x="418.599899" xlink:href="#HelveticaNeue-97"/>
      <use x="472.299896" xlink:href="#HelveticaNeue-116"/>
      <use x="503.799881" xlink:href="#HelveticaNeue-101"/>
      <use x="557.499878" xlink:href="#HelveticaNeue-115"/>
     </g>
    </g>
    <g id="line2d_101">
     <path d="M 570.298125 69.047687 
L 598.298125 69.047687 
" style="fill:none;stroke:#fc4f30;stroke-width:4;"/>
    </g>
    <g id="line2d_102"/>
    <g id="text_21">
     <!-- Florida -->
     <g style="fill:#555555;" transform="translate(609.498125 73.947687)scale(0.14 -0.14)">
      <defs>
       <path d="M 7.796875 71.40625 
L 7.796875 0 
L 17.296875 0 
L 17.296875 32.703125 
L 50.09375 32.703125 
L 50.09375 40.703125 
L 17.296875 40.703125 
L 17.296875 63.40625 
L 54.703125 63.40625 
L 54.703125 71.40625 
z
" id="HelveticaNeue-70"/>
       <path d="M 6.90625 71.40625 
L 6.90625 0 
L 15.40625 0 
L 15.40625 71.40625 
z
" id="HelveticaNeue-108"/>
       <path d="M 6.09375 51.703125 
L 6.09375 0 
L 14.59375 0 
L 14.59375 23 
Q 14.59375 28 15.59375 31.84375 
Q 16.59375 35.703125 18.796875 38.390625 
Q 21 41.09375 24.59375 42.5 
Q 28.203125 43.90625 33.296875 43.90625 
L 33.296875 52.90625 
Q 26.40625 53.09375 21.90625 50.09375 
Q 17.40625 47.09375 14.296875 40.796875 
L 14.09375 40.796875 
L 14.09375 51.703125 
z
" id="HelveticaNeue-114"/>
      </defs>
      <use xlink:href="#HelveticaNeue-70"/>
      <use x="57.399994" xlink:href="#HelveticaNeue-108"/>
      <use x="79.599991" xlink:href="#HelveticaNeue-111"/>
      <use x="136.999985" xlink:href="#HelveticaNeue-114"/>
      <use x="170.299973" xlink:href="#HelveticaNeue-105"/>
      <use x="192.499969" xlink:href="#HelveticaNeue-100"/>
      <use x="251.799957" xlink:href="#HelveticaNeue-97"/>
     </g>
    </g>
   </g>
  </g>
 </g>
 <defs>
  <clipPath id="p13e25b26bd">
   <rect height="483.84" width="626.4" x="80.748125" y="31.5955"/>
  </clipPath>
 </defs>
</svg>
