<?xml version="1.0" encoding="utf-8" standalone="no"?>
<!DOCTYPE svg PUBLIC "-//W3C//DTD SVG 1.1//EN"
  "http://www.w3.org/Graphics/SVG/1.1/DTD/svg11.dtd">
<!-- Created with matplotlib (https://matplotlib.org/) -->
<svg height="538.890812pt" version="1.1" viewBox="0 0 726.378832 538.890812" width="726.378832pt" xmlns="http://www.w3.org/2000/svg" xmlns:xlink="http://www.w3.org/1999/xlink">
 <metadata>
  <rdf:RDF xmlns:cc="http://creativecommons.org/ns#" xmlns:dc="http://purl.org/dc/elements/1.1/" xmlns:rdf="http://www.w3.org/1999/02/22-rdf-syntax-ns#">
   <cc:Work>
    <dc:type rdf:resource="http://purl.org/dc/dcmitype/StillImage"/>
    <dc:date>2021-06-19T20:44:11.593880</dc:date>
    <dc:format>image/svg+xml</dc:format>
    <dc:creator>
     <cc:Agent>
      <dc:title>Matplotlib v3.3.4, https://matplotlib.org/</dc:title>
     </cc:Agent>
    </dc:creator>
   </cc:Work>
  </rdf:RDF>
 </metadata>
 <defs>
  <style type="text/css">*{stroke-linecap:butt;stroke-linejoin:round;}</style>
 </defs>
 <g id="figure_1">
  <g id="patch_1">
   <path d="M 0 538.890812 
L 726.378832 538.890812 
L 726.378832 0 
L 0 0 
z
" style="fill:#f0f0f0;"/>
  </g>
  <g id="axes_1">
   <g id="patch_2">
    <path d="M 80.748125 515.4355 
L 707.148125 515.4355 
L 707.148125 31.5955 
L 80.748125 31.5955 
z
" style="fill:#f0f0f0;"/>
   </g>
   <g id="matplotlib.axis_1">
    <g id="xtick_1">
     <g id="line2d_1">
      <path clip-path="url(#p4f7e2a3bd6)" d="M 85.909847 515.4355 
L 85.909847 31.5955 
" style="fill:none;stroke:#cbcbcb;"/>
     </g>
     <g id="line2d_2"/>
     <g id="text_1">
      <!-- 2020-01 -->
      <g style="fill:#555555;" transform="translate(59.837035 528.932375)scale(0.14 -0.14)">
       <defs>
        <path d="M 4.40625 45.796875 
L 12.90625 45.796875 
Q 12.796875 49 13.546875 52.140625 
Q 14.296875 55.296875 16 57.796875 
Q 17.703125 60.296875 20.34375 61.84375 
Q 23 63.40625 26.703125 63.40625 
Q 29.5 63.40625 32 62.5 
Q 34.5 61.59375 36.34375 59.890625 
Q 38.203125 58.203125 39.296875 55.84375 
Q 40.40625 53.5 40.40625 50.59375 
Q 40.40625 46.90625 39.25 44.09375 
Q 38.09375 41.296875 35.84375 38.890625 
Q 33.59375 36.5 30.1875 34.140625 
Q 26.796875 31.796875 22.296875 29 
Q 18.59375 26.796875 15.1875 24.296875 
Q 11.796875 21.796875 9.09375 18.5 
Q 6.40625 15.203125 4.65625 10.75 
Q 2.90625 6.296875 2.40625 0 
L 48.703125 0 
L 48.703125 7.5 
L 12.296875 7.5 
Q 12.90625 10.796875 14.84375 13.34375 
Q 16.796875 15.90625 19.546875 18.09375 
Q 22.296875 20.296875 25.59375 22.25 
Q 28.90625 24.203125 32.203125 26.203125 
Q 35.5 28.296875 38.59375 30.59375 
Q 41.703125 32.90625 44.09375 35.75 
Q 46.5 38.59375 47.953125 42.1875 
Q 49.40625 45.796875 49.40625 50.5 
Q 49.40625 55.5 47.65625 59.296875 
Q 45.90625 63.09375 42.90625 65.640625 
Q 39.90625 68.203125 35.84375 69.546875 
Q 31.796875 70.90625 27.203125 70.90625 
Q 21.59375 70.90625 17.1875 69 
Q 12.796875 67.09375 9.84375 63.75 
Q 6.90625 60.40625 5.5 55.796875 
Q 4.09375 51.203125 4.40625 45.796875 
z
" id="HelveticaNeue-50"/>
        <path d="M 13.203125 34.90625 
Q 13.203125 37.5 13.25 40.640625 
Q 13.296875 43.796875 13.75 46.9375 
Q 14.203125 50.09375 15.046875 53.09375 
Q 15.90625 56.09375 17.546875 58.34375 
Q 19.203125 60.59375 21.703125 62 
Q 24.203125 63.40625 27.796875 63.40625 
Q 31.40625 63.40625 33.90625 62 
Q 36.40625 60.59375 38.046875 58.34375 
Q 39.703125 56.09375 40.546875 53.09375 
Q 41.40625 50.09375 41.84375 46.9375 
Q 42.296875 43.796875 42.34375 40.640625 
Q 42.40625 37.5 42.40625 34.90625 
Q 42.40625 30.90625 42.15625 25.953125 
Q 41.90625 21 40.546875 16.640625 
Q 39.203125 12.296875 36.203125 9.296875 
Q 33.203125 6.296875 27.796875 6.296875 
Q 22.40625 6.296875 19.40625 9.296875 
Q 16.40625 12.296875 15.046875 16.640625 
Q 13.703125 21 13.453125 25.953125 
Q 13.203125 30.90625 13.203125 34.90625 
z
M 4.203125 34.796875 
Q 4.203125 30.90625 4.390625 26.703125 
Q 4.59375 22.5 5.390625 18.5 
Q 6.203125 14.5 7.703125 10.953125 
Q 9.203125 7.40625 11.796875 4.703125 
Q 14.40625 2 18.34375 0.453125 
Q 22.296875 -1.09375 27.796875 -1.09375 
Q 33.40625 -1.09375 37.296875 0.453125 
Q 41.203125 2 43.796875 4.703125 
Q 46.40625 7.40625 47.90625 10.953125 
Q 49.40625 14.5 50.203125 18.5 
Q 51 22.5 51.203125 26.703125 
Q 51.40625 30.90625 51.40625 34.796875 
Q 51.40625 38.703125 51.203125 42.890625 
Q 51 47.09375 50.203125 51.09375 
Q 49.40625 55.09375 47.90625 58.6875 
Q 46.40625 62.296875 43.796875 65 
Q 41.203125 67.703125 37.25 69.296875 
Q 33.296875 70.90625 27.796875 70.90625 
Q 22.296875 70.90625 18.34375 69.296875 
Q 14.40625 67.703125 11.796875 65 
Q 9.203125 62.296875 7.703125 58.6875 
Q 6.203125 55.09375 5.390625 51.09375 
Q 4.59375 47.09375 4.390625 42.890625 
Q 4.203125 38.703125 4.203125 34.796875 
z
" id="HelveticaNeue-48"/>
        <path d="M 5 31.796875 
L 5 23.796875 
L 33.90625 23.796875 
L 33.90625 31.796875 
z
" id="HelveticaNeue-45"/>
        <path d="M 35.59375 0 
L 35.59375 70.90625 
L 29.09375 70.90625 
Q 28.40625 66.90625 26.5 64.296875 
Q 24.59375 61.703125 21.84375 60.203125 
Q 19.09375 58.703125 15.6875 58.140625 
Q 12.296875 57.59375 8.703125 57.59375 
L 8.703125 50.796875 
L 27.09375 50.796875 
L 27.09375 0 
z
" id="HelveticaNeue-49"/>
       </defs>
       <use xlink:href="#HelveticaNeue-50"/>
       <use x="55.599991" xlink:href="#HelveticaNeue-48"/>
       <use x="111.199982" xlink:href="#HelveticaNeue-50"/>
       <use x="166.799973" xlink:href="#HelveticaNeue-48"/>
       <use x="222.399963" xlink:href="#HelveticaNeue-45"/>
       <use x="261.299957" xlink:href="#HelveticaNeue-48"/>
       <use x="316.899948" xlink:href="#HelveticaNeue-49"/>
      </g>
     </g>
    </g>
    <g id="xtick_2">
     <g id="line2d_3">
      <path clip-path="url(#p4f7e2a3bd6)" d="M 152.512718 515.4355 
L 152.512718 31.5955 
" style="fill:none;stroke:#cbcbcb;"/>
     </g>
     <g id="line2d_4"/>
     <g id="text_2">
      <!-- 2020-03 -->
      <g style="fill:#555555;" transform="translate(126.439906 528.932375)scale(0.14 -0.14)">
       <defs>
        <path d="M 21.796875 40.5 
L 21.796875 33.296875 
Q 24.203125 33.59375 26.90625 33.59375 
Q 30.09375 33.59375 32.84375 32.75 
Q 35.59375 31.90625 37.59375 30.15625 
Q 39.59375 28.40625 40.796875 25.84375 
Q 42 23.296875 42 20 
Q 42 16.796875 40.75 14.25 
Q 39.5 11.703125 37.390625 9.953125 
Q 35.296875 8.203125 32.5 7.25 
Q 29.703125 6.296875 26.59375 6.296875 
Q 19.296875 6.296875 15.5 10.640625 
Q 11.703125 15 11.5 21.90625 
L 3 21.90625 
Q 2.90625 16.40625 4.546875 12.09375 
Q 6.203125 7.796875 9.296875 4.84375 
Q 12.40625 1.90625 16.796875 0.40625 
Q 21.203125 -1.09375 26.59375 -1.09375 
Q 31.59375 -1.09375 36.046875 0.25 
Q 40.5 1.59375 43.796875 4.296875 
Q 47.09375 7 49.046875 11.046875 
Q 51 15.09375 51 20.40625 
Q 51 26.796875 47.84375 31.5 
Q 44.703125 36.203125 38.203125 37.59375 
L 38.203125 37.796875 
Q 42.40625 39.703125 45.203125 43.390625 
Q 48 47.09375 48 51.90625 
Q 48 56.796875 46.34375 60.390625 
Q 44.703125 64 41.796875 66.296875 
Q 38.90625 68.59375 34.953125 69.75 
Q 31 70.90625 26.40625 70.90625 
Q 21.09375 70.90625 17.046875 69.203125 
Q 13 67.5 10.296875 64.5 
Q 7.59375 61.5 6.140625 57.296875 
Q 4.703125 53.09375 4.5 48 
L 13 48 
Q 13 51.09375 13.796875 53.890625 
Q 14.59375 56.703125 16.25 58.796875 
Q 17.90625 60.90625 20.453125 62.15625 
Q 23 63.40625 26.40625 63.40625 
Q 31.796875 63.40625 35.390625 60.546875 
Q 39 57.703125 39 52 
Q 39 49.203125 37.890625 47 
Q 36.796875 44.796875 34.9375 43.34375 
Q 33.09375 41.90625 30.640625 41.15625 
Q 28.203125 40.40625 25.5 40.40625 
L 23.703125 40.40625 
Q 23.203125 40.40625 22.703125 40.40625 
Q 22.296875 40.40625 21.796875 40.5 
z
" id="HelveticaNeue-51"/>
       </defs>
       <use xlink:href="#HelveticaNeue-50"/>
       <use x="55.599991" xlink:href="#HelveticaNeue-48"/>
       <use x="111.199982" xlink:href="#HelveticaNeue-50"/>
       <use x="166.799973" xlink:href="#HelveticaNeue-48"/>
       <use x="222.399963" xlink:href="#HelveticaNeue-45"/>
       <use x="261.299957" xlink:href="#HelveticaNeue-48"/>
       <use x="316.899948" xlink:href="#HelveticaNeue-51"/>
      </g>
     </g>
    </g>
    <g id="xtick_3">
     <g id="line2d_5">
      <path clip-path="url(#p4f7e2a3bd6)" d="M 220.225637 515.4355 
L 220.225637 31.5955 
" style="fill:none;stroke:#cbcbcb;"/>
     </g>
     <g id="line2d_6"/>
     <g id="text_3">
      <!-- 2020-05 -->
      <g style="fill:#555555;" transform="translate(194.152824 528.932375)scale(0.14 -0.14)">
       <defs>
        <path d="M 47 62.203125 
L 47 69.703125 
L 12 69.703125 
L 5.40625 32.90625 
L 12.703125 32.5 
Q 15.203125 35.5 18.453125 37.34375 
Q 21.703125 39.203125 25.90625 39.203125 
Q 29.5 39.203125 32.453125 38 
Q 35.40625 36.796875 37.5 34.640625 
Q 39.59375 32.5 40.75 29.546875 
Q 41.90625 26.59375 41.90625 23.09375 
Q 41.90625 18.90625 40.703125 15.75 
Q 39.5 12.59375 37.453125 10.5 
Q 35.40625 8.40625 32.65625 7.34375 
Q 29.90625 6.296875 26.90625 6.296875 
Q 23.703125 6.296875 21.046875 7.25 
Q 18.40625 8.203125 16.453125 9.953125 
Q 14.5 11.703125 13.34375 14.046875 
Q 12.203125 16.40625 12 19.09375 
L 3.5 19.09375 
Q 3.59375 14.296875 5.390625 10.5 
Q 7.203125 6.703125 10.296875 4.140625 
Q 13.40625 1.59375 17.453125 0.25 
Q 21.5 -1.09375 26.09375 -1.09375 
Q 32.296875 -1.09375 36.9375 0.84375 
Q 41.59375 2.796875 44.6875 6.09375 
Q 47.796875 9.40625 49.34375 13.65625 
Q 50.90625 17.90625 50.90625 22.40625 
Q 50.90625 28.5 49.09375 33.046875 
Q 47.296875 37.59375 44.1875 40.640625 
Q 41.09375 43.703125 36.890625 45.203125 
Q 32.703125 46.703125 28 46.703125 
Q 24.40625 46.703125 20.75 45.453125 
Q 17.09375 44.203125 14.796875 41.59375 
L 14.59375 41.796875 
L 18.40625 62.203125 
z
" id="HelveticaNeue-53"/>
       </defs>
       <use xlink:href="#HelveticaNeue-50"/>
       <use x="55.599991" xlink:href="#HelveticaNeue-48"/>
       <use x="111.199982" xlink:href="#HelveticaNeue-50"/>
       <use x="166.799973" xlink:href="#HelveticaNeue-48"/>
       <use x="222.399963" xlink:href="#HelveticaNeue-45"/>
       <use x="261.299957" xlink:href="#HelveticaNeue-48"/>
       <use x="316.899948" xlink:href="#HelveticaNeue-53"/>
      </g>
     </g>
    </g>
    <g id="xtick_4">
     <g id="line2d_7">
      <path clip-path="url(#p4f7e2a3bd6)" d="M 287.938556 515.4355 
L 287.938556 31.5955 
" style="fill:none;stroke:#cbcbcb;"/>
     </g>
     <g id="line2d_8"/>
     <g id="text_4">
      <!-- 2020-07 -->
      <g style="fill:#555555;" transform="translate(261.865743 528.932375)scale(0.14 -0.14)">
       <defs>
        <path d="M 50.90625 62.40625 
L 50.90625 69.703125 
L 5 69.703125 
L 5 61.703125 
L 42.203125 61.703125 
Q 36.59375 55.796875 31.75 48.796875 
Q 26.90625 41.796875 23.203125 33.9375 
Q 19.5 26.09375 17.140625 17.546875 
Q 14.796875 9 14.203125 0 
L 23.703125 0 
Q 24.203125 8.296875 26.5 17.09375 
Q 28.796875 25.90625 32.4375 34.203125 
Q 36.09375 42.5 40.796875 49.796875 
Q 45.5 57.09375 50.90625 62.40625 
z
" id="HelveticaNeue-55"/>
       </defs>
       <use xlink:href="#HelveticaNeue-50"/>
       <use x="55.599991" xlink:href="#HelveticaNeue-48"/>
       <use x="111.199982" xlink:href="#HelveticaNeue-50"/>
       <use x="166.799973" xlink:href="#HelveticaNeue-48"/>
       <use x="222.399963" xlink:href="#HelveticaNeue-45"/>
       <use x="261.299957" xlink:href="#HelveticaNeue-48"/>
       <use x="316.899948" xlink:href="#HelveticaNeue-55"/>
      </g>
     </g>
    </g>
    <g id="xtick_5">
     <g id="line2d_9">
      <path clip-path="url(#p4f7e2a3bd6)" d="M 356.761522 515.4355 
L 356.761522 31.5955 
" style="fill:none;stroke:#cbcbcb;"/>
     </g>
     <g id="line2d_10"/>
     <g id="text_5">
      <!-- 2020-09 -->
      <g style="fill:#555555;" transform="translate(330.68871 528.932375)scale(0.14 -0.14)">
       <defs>
        <path d="M 13.40625 17.09375 
L 4.90625 17.09375 
Q 5.703125 7.90625 11.59375 3.40625 
Q 17.5 -1.09375 26.40625 -1.09375 
Q 39.296875 -1.09375 45.140625 8.75 
Q 51 18.59375 51 37 
Q 51 47.09375 49.046875 53.640625 
Q 47.09375 60.203125 43.796875 64 
Q 40.5 67.796875 36.09375 69.34375 
Q 31.703125 70.90625 26.703125 70.90625 
Q 21.59375 70.90625 17.296875 69.203125 
Q 13 67.5 9.890625 64.453125 
Q 6.796875 61.40625 5.09375 57.15625 
Q 3.40625 52.90625 3.40625 47.796875 
Q 3.40625 42.59375 4.84375 38.1875 
Q 6.296875 33.796875 9.140625 30.6875 
Q 12 27.59375 16.203125 25.84375 
Q 20.40625 24.09375 25.796875 24.09375 
Q 31 24.09375 35.390625 26.75 
Q 39.796875 29.40625 42.203125 33.90625 
L 42.40625 33.703125 
Q 42 19.796875 38.09375 13.046875 
Q 34.203125 6.296875 26.40625 6.296875 
Q 21.296875 6.296875 17.59375 9.09375 
Q 13.90625 11.90625 13.40625 17.09375 
z
M 40.90625 47.203125 
Q 40.90625 44.09375 39.90625 41.25 
Q 38.90625 38.40625 37 36.25 
Q 35.09375 34.09375 32.390625 32.84375 
Q 29.703125 31.59375 26.40625 31.59375 
Q 23.296875 31.59375 20.75 32.84375 
Q 18.203125 34.09375 16.34375 36.1875 
Q 14.5 38.296875 13.453125 41 
Q 12.40625 43.703125 12.40625 46.59375 
Q 12.40625 49.90625 13.15625 52.90625 
Q 13.90625 55.90625 15.546875 58.25 
Q 17.203125 60.59375 19.84375 62 
Q 22.5 63.40625 26.296875 63.40625 
Q 29.90625 63.40625 32.59375 62.09375 
Q 35.296875 60.796875 37.140625 58.546875 
Q 39 56.296875 39.953125 53.390625 
Q 40.90625 50.5 40.90625 47.203125 
z
" id="HelveticaNeue-57"/>
       </defs>
       <use xlink:href="#HelveticaNeue-50"/>
       <use x="55.599991" xlink:href="#HelveticaNeue-48"/>
       <use x="111.199982" xlink:href="#HelveticaNeue-50"/>
       <use x="166.799973" xlink:href="#HelveticaNeue-48"/>
       <use x="222.399963" xlink:href="#HelveticaNeue-45"/>
       <use x="261.299957" xlink:href="#HelveticaNeue-48"/>
       <use x="316.899948" xlink:href="#HelveticaNeue-57"/>
      </g>
     </g>
    </g>
    <g id="xtick_6">
     <g id="line2d_11">
      <path clip-path="url(#p4f7e2a3bd6)" d="M 424.474441 515.4355 
L 424.474441 31.5955 
" style="fill:none;stroke:#cbcbcb;"/>
     </g>
     <g id="line2d_12"/>
     <g id="text_6">
      <!-- 2020-11 -->
      <g style="fill:#555555;" transform="translate(398.401628 528.932375)scale(0.14 -0.14)">
       <use xlink:href="#HelveticaNeue-50"/>
       <use x="55.599991" xlink:href="#HelveticaNeue-48"/>
       <use x="111.199982" xlink:href="#HelveticaNeue-50"/>
       <use x="166.799973" xlink:href="#HelveticaNeue-48"/>
       <use x="222.399963" xlink:href="#HelveticaNeue-45"/>
       <use x="261.299957" xlink:href="#HelveticaNeue-49"/>
       <use x="316.899948" xlink:href="#HelveticaNeue-49"/>
      </g>
     </g>
    </g>
    <g id="xtick_7">
     <g id="line2d_13">
      <path clip-path="url(#p4f7e2a3bd6)" d="M 492.187359 515.4355 
L 492.187359 31.5955 
" style="fill:none;stroke:#cbcbcb;"/>
     </g>
     <g id="line2d_14"/>
     <g id="text_7">
      <!-- 2021-01 -->
      <g style="fill:#555555;" transform="translate(466.114547 528.932375)scale(0.14 -0.14)">
       <use xlink:href="#HelveticaNeue-50"/>
       <use x="55.599991" xlink:href="#HelveticaNeue-48"/>
       <use x="111.199982" xlink:href="#HelveticaNeue-50"/>
       <use x="166.799973" xlink:href="#HelveticaNeue-49"/>
       <use x="222.399963" xlink:href="#HelveticaNeue-45"/>
       <use x="261.299957" xlink:href="#HelveticaNeue-48"/>
       <use x="316.899948" xlink:href="#HelveticaNeue-49"/>
      </g>
     </g>
    </g>
    <g id="xtick_8">
     <g id="line2d_15">
      <path clip-path="url(#p4f7e2a3bd6)" d="M 557.680182 515.4355 
L 557.680182 31.5955 
" style="fill:none;stroke:#cbcbcb;"/>
     </g>
     <g id="line2d_16"/>
     <g id="text_8">
      <!-- 2021-03 -->
      <g style="fill:#555555;" transform="translate(531.60737 528.932375)scale(0.14 -0.14)">
       <use xlink:href="#HelveticaNeue-50"/>
       <use x="55.599991" xlink:href="#HelveticaNeue-48"/>
       <use x="111.199982" xlink:href="#HelveticaNeue-50"/>
       <use x="166.799973" xlink:href="#HelveticaNeue-49"/>
       <use x="222.399963" xlink:href="#HelveticaNeue-45"/>
       <use x="261.299957" xlink:href="#HelveticaNeue-48"/>
       <use x="316.899948" xlink:href="#HelveticaNeue-51"/>
      </g>
     </g>
    </g>
    <g id="xtick_9">
     <g id="line2d_17">
      <path clip-path="url(#p4f7e2a3bd6)" d="M 625.393101 515.4355 
L 625.393101 31.5955 
" style="fill:none;stroke:#cbcbcb;"/>
     </g>
     <g id="line2d_18"/>
     <g id="text_9">
      <!-- 2021-05 -->
      <g style="fill:#555555;" transform="translate(599.320289 528.932375)scale(0.14 -0.14)">
       <use xlink:href="#HelveticaNeue-50"/>
       <use x="55.599991" xlink:href="#HelveticaNeue-48"/>
       <use x="111.199982" xlink:href="#HelveticaNeue-50"/>
       <use x="166.799973" xlink:href="#HelveticaNeue-49"/>
       <use x="222.399963" xlink:href="#HelveticaNeue-45"/>
       <use x="261.299957" xlink:href="#HelveticaNeue-48"/>
       <use x="316.899948" xlink:href="#HelveticaNeue-53"/>
      </g>
     </g>
    </g>
    <g id="xtick_10">
     <g id="line2d_19">
      <path clip-path="url(#p4f7e2a3bd6)" d="M 693.10602 515.4355 
L 693.10602 31.5955 
" style="fill:none;stroke:#cbcbcb;"/>
     </g>
     <g id="line2d_20"/>
     <g id="text_10">
      <!-- 2021-07 -->
      <g style="fill:#555555;" transform="translate(667.033207 528.932375)scale(0.14 -0.14)">
       <use xlink:href="#HelveticaNeue-50"/>
       <use x="55.599991" xlink:href="#HelveticaNeue-48"/>
       <use x="111.199982" xlink:href="#HelveticaNeue-50"/>
       <use x="166.799973" xlink:href="#HelveticaNeue-49"/>
       <use x="222.399963" xlink:href="#HelveticaNeue-45"/>
       <use x="261.299957" xlink:href="#HelveticaNeue-48"/>
       <use x="316.899948" xlink:href="#HelveticaNeue-55"/>
      </g>
     </g>
    </g>
   </g>
   <g id="matplotlib.axis_2">
    <g id="ytick_1">
     <g id="line2d_21">
      <path clip-path="url(#p4f7e2a3bd6)" d="M 80.748125 497.215626 
L 707.148125 497.215626 
" style="fill:none;stroke:#cbcbcb;"/>
     </g>
     <g id="line2d_22"/>
     <g id="text_11">
      <!-- 1 -->
      <g style="fill:#555555;" transform="translate(69.465 502.214064)scale(0.14 -0.14)">
       <use xlink:href="#HelveticaNeue-49"/>
      </g>
     </g>
    </g>
    <g id="ytick_2">
     <g id="line2d_23">
      <path clip-path="url(#p4f7e2a3bd6)" d="M 80.748125 430.698466 
L 707.148125 430.698466 
" style="fill:none;stroke:#cbcbcb;"/>
     </g>
     <g id="line2d_24"/>
     <g id="text_12">
      <!-- 10 -->
      <g style="fill:#555555;" transform="translate(61.681875 435.696903)scale(0.14 -0.14)">
       <use xlink:href="#HelveticaNeue-49"/>
       <use x="55.599991" xlink:href="#HelveticaNeue-48"/>
      </g>
     </g>
    </g>
    <g id="ytick_3">
     <g id="line2d_25">
      <path clip-path="url(#p4f7e2a3bd6)" d="M 80.748125 364.181305 
L 707.148125 364.181305 
" style="fill:none;stroke:#cbcbcb;"/>
     </g>
     <g id="line2d_26"/>
     <g id="text_13">
      <!-- 100 -->
      <g style="fill:#555555;" transform="translate(53.89875 369.179742)scale(0.14 -0.14)">
       <use xlink:href="#HelveticaNeue-49"/>
       <use x="55.599991" xlink:href="#HelveticaNeue-48"/>
       <use x="111.199982" xlink:href="#HelveticaNeue-48"/>
      </g>
     </g>
    </g>
    <g id="ytick_4">
     <g id="line2d_27">
      <path clip-path="url(#p4f7e2a3bd6)" d="M 80.748125 297.664144 
L 707.148125 297.664144 
" style="fill:none;stroke:#cbcbcb;"/>
     </g>
     <g id="line2d_28"/>
     <g id="text_14">
      <!-- 1,000 -->
      <g style="fill:#555555;" transform="translate(42.224063 302.662581)scale(0.14 -0.14)">
       <defs>
        <path d="M 8.296875 11.09375 
L 8.296875 0 
L 14.203125 0 
Q 14.296875 -1.203125 14.046875 -2.59375 
Q 13.796875 -4 13.09375 -5.34375 
Q 12.40625 -6.703125 11.25 -7.84375 
Q 10.09375 -9 8.40625 -9.59375 
L 8.40625 -14.59375 
Q 14.203125 -12.90625 16.796875 -8.796875 
Q 19.40625 -4.703125 19.40625 1 
L 19.40625 11.09375 
z
" id="HelveticaNeue-44"/>
       </defs>
       <use xlink:href="#HelveticaNeue-49"/>
       <use x="55.599991" xlink:href="#HelveticaNeue-44"/>
       <use x="83.399979" xlink:href="#HelveticaNeue-48"/>
       <use x="138.999969" xlink:href="#HelveticaNeue-48"/>
       <use x="194.59996" xlink:href="#HelveticaNeue-48"/>
      </g>
     </g>
    </g>
    <g id="ytick_5">
     <g id="line2d_29">
      <path clip-path="url(#p4f7e2a3bd6)" d="M 80.748125 231.146983 
L 707.148125 231.146983 
" style="fill:none;stroke:#cbcbcb;"/>
     </g>
     <g id="line2d_30"/>
     <g id="text_15">
      <!-- 10,000 -->
      <g style="fill:#555555;" transform="translate(34.440938 236.14542)scale(0.14 -0.14)">
       <use xlink:href="#HelveticaNeue-49"/>
       <use x="55.599991" xlink:href="#HelveticaNeue-48"/>
       <use x="111.199982" xlink:href="#HelveticaNeue-44"/>
       <use x="138.999969" xlink:href="#HelveticaNeue-48"/>
       <use x="194.59996" xlink:href="#HelveticaNeue-48"/>
       <use x="250.199951" xlink:href="#HelveticaNeue-48"/>
      </g>
     </g>
    </g>
    <g id="ytick_6">
     <g id="line2d_31">
      <path clip-path="url(#p4f7e2a3bd6)" d="M 80.748125 164.629822 
L 707.148125 164.629822 
" style="fill:none;stroke:#cbcbcb;"/>
     </g>
     <g id="line2d_32"/>
     <g id="text_16">
      <!-- 100,000 -->
      <g style="fill:#555555;" transform="translate(26.657813 169.628259)scale(0.14 -0.14)">
       <use xlink:href="#HelveticaNeue-49"/>
       <use x="55.599991" xlink:href="#HelveticaNeue-48"/>
       <use x="111.199982" xlink:href="#HelveticaNeue-48"/>
       <use x="166.799973" xlink:href="#HelveticaNeue-44"/>
       <use x="194.59996" xlink:href="#HelveticaNeue-48"/>
       <use x="250.199951" xlink:href="#HelveticaNeue-48"/>
       <use x="305.799942" xlink:href="#HelveticaNeue-48"/>
      </g>
     </g>
    </g>
    <g id="ytick_7">
     <g id="line2d_33">
      <path clip-path="url(#p4f7e2a3bd6)" d="M 80.748125 98.112661 
L 707.148125 98.112661 
" style="fill:none;stroke:#cbcbcb;"/>
     </g>
     <g id="line2d_34"/>
     <g id="text_17">
      <!-- 1,000,000 -->
      <g style="fill:#555555;" transform="translate(14.983125 103.111098)scale(0.14 -0.14)">
       <use xlink:href="#HelveticaNeue-49"/>
       <use x="55.599991" xlink:href="#HelveticaNeue-44"/>
       <use x="83.399979" xlink:href="#HelveticaNeue-48"/>
       <use x="138.999969" xlink:href="#HelveticaNeue-48"/>
       <use x="194.59996" xlink:href="#HelveticaNeue-48"/>
       <use x="250.199951" xlink:href="#HelveticaNeue-44"/>
       <use x="277.999939" xlink:href="#HelveticaNeue-48"/>
       <use x="333.59993" xlink:href="#HelveticaNeue-48"/>
       <use x="389.199921" xlink:href="#HelveticaNeue-48"/>
      </g>
     </g>
    </g>
    <g id="ytick_8">
     <g id="line2d_35">
      <path clip-path="url(#p4f7e2a3bd6)" d="M 80.748125 31.5955 
L 707.148125 31.5955 
" style="fill:none;stroke:#cbcbcb;"/>
     </g>
     <g id="line2d_36"/>
     <g id="text_18">
      <!-- 10,000,000 -->
      <g style="fill:#555555;" transform="translate(7.2 36.593937)scale(0.14 -0.14)">
       <use xlink:href="#HelveticaNeue-49"/>
       <use x="55.599991" xlink:href="#HelveticaNeue-48"/>
       <use x="111.199982" xlink:href="#HelveticaNeue-44"/>
       <use x="138.999969" xlink:href="#HelveticaNeue-48"/>
       <use x="194.59996" xlink:href="#HelveticaNeue-48"/>
       <use x="250.199951" xlink:href="#HelveticaNeue-48"/>
       <use x="305.799942" xlink:href="#HelveticaNeue-44"/>
       <use x="333.59993" xlink:href="#HelveticaNeue-48"/>
       <use x="389.199921" xlink:href="#HelveticaNeue-48"/>
       <use x="444.799911" xlink:href="#HelveticaNeue-48"/>
      </g>
     </g>
    </g>
    <g id="ytick_9">
     <g id="line2d_37"/>
    </g>
    <g id="ytick_10">
     <g id="line2d_38"/>
    </g>
    <g id="ytick_11">
     <g id="line2d_39"/>
    </g>
    <g id="ytick_12">
     <g id="line2d_40"/>
    </g>
    <g id="ytick_13">
     <g id="line2d_41"/>
    </g>
    <g id="ytick_14">
     <g id="line2d_42"/>
    </g>
    <g id="ytick_15">
     <g id="line2d_43"/>
    </g>
    <g id="ytick_16">
     <g id="line2d_44"/>
    </g>
    <g id="ytick_17">
     <g id="line2d_45"/>
    </g>
    <g id="ytick_18">
     <g id="line2d_46"/>
    </g>
    <g id="ytick_19">
     <g id="line2d_47"/>
    </g>
    <g id="ytick_20">
     <g id="line2d_48"/>
    </g>
    <g id="ytick_21">
     <g id="line2d_49"/>
    </g>
    <g id="ytick_22">
     <g id="line2d_50"/>
    </g>
    <g id="ytick_23">
     <g id="line2d_51"/>
    </g>
    <g id="ytick_24">
     <g id="line2d_52"/>
    </g>
    <g id="ytick_25">
     <g id="line2d_53"/>
    </g>
    <g id="ytick_26">
     <g id="line2d_54"/>
    </g>
    <g id="ytick_27">
     <g id="line2d_55"/>
    </g>
    <g id="ytick_28">
     <g id="line2d_56"/>
    </g>
    <g id="ytick_29">
     <g id="line2d_57"/>
    </g>
    <g id="ytick_30">
     <g id="line2d_58"/>
    </g>
    <g id="ytick_31">
     <g id="line2d_59"/>
    </g>
    <g id="ytick_32">
     <g id="line2d_60"/>
    </g>
    <g id="ytick_33">
     <g id="line2d_61"/>
    </g>
    <g id="ytick_34">
     <g id="line2d_62"/>
    </g>
    <g id="ytick_35">
     <g id="line2d_63"/>
    </g>
    <g id="ytick_36">
     <g id="line2d_64"/>
    </g>
    <g id="ytick_37">
     <g id="line2d_65"/>
    </g>
    <g id="ytick_38">
     <g id="line2d_66"/>
    </g>
    <g id="ytick_39">
     <g id="line2d_67"/>
    </g>
    <g id="ytick_40">
     <g id="line2d_68"/>
    </g>
    <g id="ytick_41">
     <g id="line2d_69"/>
    </g>
    <g id="ytick_42">
     <g id="line2d_70"/>
    </g>
    <g id="ytick_43">
     <g id="line2d_71"/>
    </g>
    <g id="ytick_44">
     <g id="line2d_72"/>
    </g>
    <g id="ytick_45">
     <g id="line2d_73"/>
    </g>
    <g id="ytick_46">
     <g id="line2d_74"/>
    </g>
    <g id="ytick_47">
     <g id="line2d_75"/>
    </g>
    <g id="ytick_48">
     <g id="line2d_76"/>
    </g>
    <g id="ytick_49">
     <g id="line2d_77"/>
    </g>
    <g id="ytick_50">
     <g id="line2d_78"/>
    </g>
    <g id="ytick_51">
     <g id="line2d_79"/>
    </g>
    <g id="ytick_52">
     <g id="line2d_80"/>
    </g>
    <g id="ytick_53">
     <g id="line2d_81"/>
    </g>
    <g id="ytick_54">
     <g id="line2d_82"/>
    </g>
    <g id="ytick_55">
     <g id="line2d_83"/>
    </g>
    <g id="ytick_56">
     <g id="line2d_84"/>
    </g>
    <g id="ytick_57">
     <g id="line2d_85"/>
    </g>
    <g id="ytick_58">
     <g id="line2d_86"/>
    </g>
    <g id="ytick_59">
     <g id="line2d_87"/>
    </g>
    <g id="ytick_60">
     <g id="line2d_88"/>
    </g>
    <g id="ytick_61">
     <g id="line2d_89"/>
    </g>
    <g id="ytick_62">
     <g id="line2d_90"/>
    </g>
    <g id="ytick_63">
     <g id="line2d_91"/>
    </g>
    <g id="ytick_64">
     <g id="line2d_92"/>
    </g>
    <g id="ytick_65">
     <g id="line2d_93"/>
    </g>
    <g id="ytick_66">
     <g id="line2d_94"/>
    </g>
    <g id="ytick_67">
     <g id="line2d_95"/>
    </g>
    <g id="ytick_68">
     <g id="line2d_96"/>
    </g>
   </g>
   <g id="line2d_97">
    <path clip-path="url(#p4f7e2a3bd6)" d="M 111.440236 539.890812 
L 111.440948 497.215626 
L 112.550996 497.215626 
L 113.661044 477.191966 
L 113.66209 539.890812 
M 118.100523 539.890812 
L 118.101235 497.215626 
L 120.321331 497.215626 
L 121.431379 465.478875 
L 121.43262 539.890812 
M 124.76081 539.890812 
L 124.761522 497.215626 
L 124.762234 539.890812 
M 130.311049 539.890812 
L 130.311761 497.215626 
L 130.312474 539.890812 
M 132.531145 539.890812 
L 132.531857 497.215626 
L 133.641905 497.215626 
L 133.642617 539.890812 
M 138.080276 539.890812 
L 138.082096 430.698466 
L 138.083917 539.890812 
M 141.411194 539.890812 
L 141.41224 477.191966 
L 142.522288 465.478875 
L 142.523529 539.890812 
M 145.850485 539.890812 
L 145.852431 423.119277 
L 146.962479 477.191966 
L 148.072527 418.985375 
L 148.074542 539.890812 
M 150.291136 539.890812 
L 150.292623 450.722126 
L 151.40267 450.722126 
L 152.512718 413.718463 
L 153.622766 417.120984 
L 154.732814 409.265353 
L 155.842862 393.694803 
L 156.95291 375.750315 
L 158.062958 369.564 
L 159.173005 359.645775 
L 160.283053 359.156135 
L 161.393101 344.013564 
L 162.503149 335.488212 
L 163.613197 338.295082 
L 164.723245 323.775121 
L 165.833292 314.621045 
L 166.94334 309.061201 
L 168.053388 307.885363 
L 169.163436 300.483987 
L 170.273484 287.964763 
L 172.49358 257.307933 
L 173.603627 247.798953 
L 174.713675 243.520433 
L 175.823723 235.689302 
L 176.933771 229.925224 
L 178.043819 229.922455 
L 179.153867 220.147502 
L 180.263914 215.821574 
L 181.373962 215.26278 
L 182.48401 209.623221 
L 183.594058 213.344264 
L 184.704106 209.075803 
L 185.814154 205.253686 
L 189.144297 197.260183 
L 190.254345 194.875525 
L 191.364393 203.97397 
L 192.474441 198.541381 
L 193.584489 199.087532 
L 194.694536 197.708794 
L 195.804584 195.206633 
L 196.914632 196.245785 
L 198.02468 197.799723 
L 199.134728 202.301294 
L 200.244776 203.80194 
L 201.354824 202.786404 
L 202.464871 199.378472 
L 203.574919 197.897335 
L 204.684967 197.992527 
L 206.905063 204.293754 
L 208.015111 202.03433 
L 209.125158 204.089228 
L 210.235206 200.558421 
L 211.345254 195.985465 
L 212.455302 193.554745 
L 213.56535 195.449921 
L 214.675398 202.738821 
L 215.785446 206.839495 
L 216.895493 205.083261 
L 218.005541 202.933975 
L 219.115589 199.068493 
L 220.225637 195.820015 
L 221.335685 199.921228 
L 222.445733 203.389 
L 223.555781 208.419939 
L 224.665828 206.208819 
L 225.775876 205.253686 
L 226.885924 200.914302 
L 227.995972 201.768766 
L 229.10602 204.830076 
L 230.216068 210.669037 
L 231.326115 214.781729 
L 232.436163 207.978732 
L 233.546211 209.515091 
L 234.656259 202.494576 
L 235.766307 203.282001 
L 236.876355 206.269805 
L 237.986403 212.583807 
L 239.09645 208.598061 
L 240.206498 209.745527 
L 241.316546 206.998087 
L 242.426594 203.842325 
L 243.536642 206.099367 
L 244.64669 208.020216 
L 245.756737 211.07858 
L 246.866785 212.453441 
L 249.086881 212.996959 
L 250.196929 207.705399 
L 251.306977 205.204218 
L 252.417025 206.591496 
L 253.527072 210.221786 
L 254.63712 208.505564 
L 255.747168 210.002815 
L 256.857216 211.142105 
L 257.967264 208.878678 
L 259.077312 200.680921 
L 260.187359 207.700266 
L 261.297407 213.194908 
L 262.407455 213.836664 
L 263.517503 212.903099 
L 264.627551 207.272363 
L 265.737599 206.833269 
L 266.847647 204.113015 
L 267.957694 204.293754 
L 269.067742 212.408103 
L 270.17779 210.954819 
L 271.287838 204.810335 
L 272.397886 203.930022 
L 274.617981 198.616231 
L 275.728029 197.52328 
L 276.838077 203.126075 
L 279.058173 194.907641 
L 280.168221 193.360407 
L 282.388316 187.360161 
L 284.608412 191.457188 
L 285.71846 191.465963 
L 286.828508 185.59958 
L 287.938556 184.66793 
L 289.048603 181.608033 
L 290.158651 180.79039 
L 291.268699 184.650016 
L 292.378747 187.847105 
L 293.488795 186.247365 
L 294.598843 182.385327 
L 295.708891 179.650169 
L 296.818938 179.440063 
L 297.928986 175.674579 
L 299.039034 179.041502 
L 300.149082 180.463207 
L 302.369178 176.807978 
L 303.479225 175.625928 
L 304.589273 172.676982 
L 305.699321 174.55504 
L 306.809369 178.229961 
L 307.919417 178.311488 
L 309.029465 179.440546 
L 310.139513 176.951448 
L 311.24956 175.041373 
L 312.359608 174.930984 
L 313.469656 173.514184 
L 314.579704 176.295575 
L 315.689752 182.314375 
L 316.7998 179.783608 
L 317.909847 177.923977 
L 319.019895 176.292979 
L 320.129943 175.370902 
L 321.239991 175.312304 
L 322.350039 180.955636 
L 323.460087 184.198345 
L 324.570135 186.144977 
L 325.680182 182.672511 
L 326.79023 182.578795 
L 329.010326 178.834816 
L 330.120374 181.774376 
L 331.230422 185.545304 
L 332.340469 186.334804 
L 333.450517 182.776275 
L 334.560565 182.281891 
L 335.670613 182.397615 
L 336.780661 179.639482 
L 337.890709 184.227365 
L 339.000757 189.596133 
L 340.110804 192.94634 
L 341.220852 188.854349 
L 342.3309 189.001727 
L 344.550996 185.220007 
L 345.661044 187.680455 
L 346.771092 197.246778 
L 347.881139 190.809356 
L 348.991187 191.695809 
L 350.101235 187.493079 
L 351.211283 187.308178 
L 352.321331 186.710175 
L 353.431379 187.948595 
L 354.541426 196.282919 
L 355.651474 193.756732 
L 356.761522 188.314185 
L 357.87157 197.147774 
L 358.981618 186.815835 
L 360.091666 183.462755 
L 361.201714 189.516032 
L 362.311761 199.411194 
L 363.421809 204.485961 
L 366.751953 192.535847 
L 367.862001 186.093919 
L 368.972048 191.754111 
L 370.082096 196.358197 
L 371.192144 193.440178 
L 372.302192 191.670753 
L 373.41224 191.633209 
L 374.522288 187.498817 
L 375.632336 185.303795 
L 376.742383 189.820499 
L 377.852431 193.859052 
L 378.962479 181.926432 
L 380.072527 193.048143 
L 381.182575 190.000699 
L 382.292623 187.567756 
L 383.40267 182.121075 
L 384.512718 189.21474 
L 385.622766 193.120083 
L 386.732814 193.072103 
L 387.842862 188.545959 
L 388.95291 189.650344 
L 390.062958 186.800895 
L 391.173005 182.655792 
L 392.283053 185.966062 
L 393.393101 194.905169 
L 394.503149 178.248007 
L 395.613197 189.103319 
L 396.723245 182.960944 
L 397.833292 181.182738 
L 398.94334 179.890707 
L 401.163436 187.836782 
L 402.273484 185.823122 
L 403.383532 182.220219 
L 405.603627 176.917834 
L 406.713675 174.743016 
L 407.823723 183.100771 
L 408.933771 185.903854 
L 410.043819 176.879403 
L 411.153867 179.101986 
L 412.263914 177.415401 
L 413.373962 172.891132 
L 414.48401 169.223912 
L 415.594058 171.593001 
L 416.704106 179.524116 
L 417.814154 173.082872 
L 418.924202 173.177474 
L 422.254345 164.667979 
L 423.364393 169.594419 
L 424.474441 173.252133 
L 425.584489 166.413286 
L 426.694536 166.908223 
L 427.804584 162.385178 
L 428.914632 159.043781 
L 430.02468 156.430033 
L 431.134728 157.969053 
L 432.244776 163.659487 
L 433.354824 156.952802 
L 434.464871 154.961432 
L 435.574919 154.320551 
L 436.684967 150.402501 
L 437.795015 147.410561 
L 438.905063 151.227462 
L 440.015111 155.920402 
L 441.125158 149.891567 
L 442.235206 150.758817 
L 443.345254 148.916149 
L 444.455302 146.469936 
L 445.56535 144.770713 
L 446.675398 148.974225 
L 447.785446 154.745605 
L 448.895493 147.711996 
L 450.005541 147.994999 
L 451.115589 147.555286 
L 452.225637 163.776207 
L 453.335685 143.77429 
L 454.445733 152.646834 
L 455.555781 155.720653 
L 456.665828 149.707098 
L 458.885924 144.437371 
L 459.995972 142.152988 
L 461.10602 140.397276 
L 462.216068 143.793102 
L 463.326115 148.975906 
L 464.436163 143.96395 
L 465.546211 141.890022 
L 466.656259 141.888838 
L 467.766307 141.177332 
L 468.876355 134.831304 
L 469.986403 143.537806 
L 471.09645 146.980373 
L 472.206498 144.477176 
L 473.316546 144.159129 
L 474.426594 138.764122 
L 475.536642 139.617307 
L 476.64669 138.022686 
L 477.756737 145.500218 
L 478.866785 147.663785 
L 479.976833 144.387729 
L 481.086881 144.374257 
L 482.196929 140.850929 
L 483.306977 145.556736 
L 484.417025 164.355536 
L 485.527072 142.267853 
L 486.63712 152.517003 
L 487.747168 146.238992 
L 488.857216 144.457913 
L 489.967264 140.699507 
L 491.077312 140.444261 
L 492.187359 153.450475 
L 493.297407 133.712188 
L 494.407455 144.349622 
L 495.517503 137.949292 
L 496.627551 139.948302 
L 498.847647 134.851391 
L 499.957694 132.818155 
L 502.17779 143.431516 
L 503.287838 141.03517 
L 504.397886 140.571602 
L 505.507934 140.65324 
L 506.617981 139.399375 
L 507.728029 139.357069 
L 509.948125 149.285045 
L 511.058173 154.676749 
L 512.168221 146.557115 
L 513.278269 146.782215 
L 514.388316 146.01458 
L 515.498364 145.850651 
L 516.608412 149.656992 
L 517.71846 157.122721 
L 518.828508 151.677255 
L 519.938556 152.795847 
L 521.048603 151.825788 
L 522.158651 149.957897 
L 523.268699 150.230892 
L 524.378747 156.21832 
L 525.488795 160.895144 
L 526.598843 154.529547 
L 527.708891 160.533151 
L 529.928986 158.037723 
L 531.039034 157.161509 
L 532.149082 163.234129 
L 533.25913 168.559344 
L 534.369178 166.730596 
L 535.479225 165.695566 
L 536.589273 166.119796 
L 537.699321 163.046192 
L 538.809369 164.737196 
L 539.919417 169.4408 
L 541.029465 177.6212 
L 542.139513 181.757124 
L 543.24956 177.281698 
L 544.359608 174.867094 
L 545.469656 174.203234 
L 546.579704 171.802939 
L 547.689752 175.04883 
L 548.7998 181.80577 
L 549.909847 179.644339 
L 551.019895 174.156193 
L 552.129943 173.252912 
L 553.239991 171.851118 
L 554.350039 171.689848 
L 556.570135 184.134717 
L 557.680182 181.022815 
L 558.79023 180.543779 
L 559.900278 176.366177 
L 561.010326 176.07707 
L 562.120374 176.765735 
L 563.230422 181.078917 
L 564.340469 191.052756 
L 565.450517 166.260054 
L 566.560565 181.43799 
L 567.670613 180.268959 
L 568.780661 178.260043 
L 569.890709 177.446448 
L 572.110804 192.589788 
L 573.220852 180.785336 
L 574.3309 182.147551 
L 575.440948 179.905409 
L 576.550996 179.163074 
L 577.661044 179.088163 
L 578.771092 182.20376 
L 579.881139 195.630996 
L 580.991187 182.049712 
L 582.101235 180.996841 
L 583.211283 171.111049 
L 584.321331 175.303106 
L 585.431379 173.133236 
L 586.541426 179.051019 
L 587.651474 188.01018 
L 588.761522 174.630084 
L 589.87157 178.331442 
L 590.981618 175.797205 
L 592.091666 172.107819 
L 593.201714 175.52171 
L 594.311761 177.460858 
L 595.421809 193.490343 
L 596.531857 172.332858 
L 597.641905 178.452386 
L 598.751953 173.683628 
L 599.862001 170.913961 
L 600.972048 170.509961 
L 602.082096 177.182047 
L 603.192144 185.846595 
L 604.302192 174.146955 
L 605.41224 172.062199 
L 606.522288 172.651802 
L 607.632336 173.44786 
L 608.742383 171.676572 
L 609.852431 182.497713 
L 610.962479 190.105174 
L 612.072527 174.825538 
L 613.182575 178.898655 
L 614.292623 178.209615 
L 615.40267 176.527518 
L 616.512718 177.619842 
L 617.622766 184.384348 
L 618.732814 196.144127 
L 619.842862 186.235768 
L 620.95291 183.589999 
L 623.173005 180.574867 
L 624.283053 180.109559 
L 625.393101 187.852268 
L 626.503149 199.765808 
L 627.613197 184.686434 
L 628.723245 190.418064 
L 629.833292 187.878096 
L 630.94334 186.018712 
L 632.053388 186.140111 
L 633.163436 196.0797 
L 634.273484 207.942483 
L 635.383532 193.69978 
L 636.49358 195.758851 
L 637.603627 194.560378 
L 638.713675 192.254114 
L 639.823723 190.399731 
L 640.933771 200.339817 
L 642.043819 216.315222 
L 643.153867 200.184112 
L 644.263914 201.544992 
L 646.48401 199.785312 
L 647.594058 200.37763 
L 648.704106 213.664235 
L 649.814154 221.117051 
L 650.924202 203.96044 
L 652.034249 207.296392 
L 653.144297 206.603846 
L 654.254345 201.661346 
L 655.364393 208.775957 
L 656.474441 227.031767 
L 657.584489 239.67794 
L 658.694536 248.119475 
L 659.804584 207.558203 
L 660.914632 216.055348 
L 662.02468 211.847298 
L 662.030131 539.890812 
M 664.239623 539.890812 
L 664.244776 229.883716 
L 665.354824 245.204506 
L 666.464871 211.924415 
L 667.574919 221.086446 
L 668.684967 210.172827 
L 669.795015 217.998773 
L 670.905063 216.125679 
L 672.015111 236.477518 
L 673.125158 242.343294 
L 674.235206 219.238118 
L 675.345254 226.160681 
L 676.455302 220.451119 
L 677.56535 225.559276 
L 678.675398 224.606206 
L 678.675398 224.606206 
" style="fill:none;stroke:#008fd5;stroke-width:4;"/>
   </g>
   <g id="line2d_98">
    <path clip-path="url(#p4f7e2a3bd6)" d="M 152.511672 539.890812 
L 152.512718 477.191966 
L 152.513764 539.890812 
M 154.732102 539.890812 
L 154.732814 497.215626 
L 154.733526 539.890812 
M 156.952198 539.890812 
L 156.95291 497.215626 
L 158.062958 465.478875 
L 159.173005 450.722126 
L 160.283053 497.215626 
L 161.393101 497.215626 
L 162.503149 433.742124 
L 163.613197 465.478875 
L 164.723245 410.674805 
L 165.833292 405.407893 
L 165.835534 539.890812 
M 168.050914 539.890812 
L 168.053388 391.382526 
L 169.163436 397.097323 
L 170.273484 374.900606 
L 171.383532 359.893742 
L 172.49358 361.958051 
L 173.603627 356.602116 
L 174.713675 344.157644 
L 175.823723 339.376257 
L 176.933771 341.142888 
L 178.043819 338.295082 
L 179.153867 317.45762 
L 180.263914 317.286177 
L 181.373962 307.153981 
L 182.48401 302.700871 
L 183.594058 300.547757 
L 184.704106 305.897781 
L 185.814154 296.337347 
L 186.924202 296.894511 
L 188.034249 291.660434 
L 189.144297 290.98778 
L 190.254345 290.600627 
L 191.364393 303.930334 
L 192.474441 290.555418 
L 193.584489 294.441932 
L 194.694536 299.115514 
L 195.804584 294.159092 
L 196.914632 293.853665 
L 198.02468 297.148783 
L 199.134728 301.455649 
L 200.244776 293.476367 
L 201.354824 311.99079 
L 202.464871 300.515854 
L 203.574919 303.894471 
L 204.684967 287.677113 
L 205.795015 306.401543 
L 206.905063 303.326629 
L 208.015111 306.206747 
L 209.125158 303.715818 
L 210.235206 321.380659 
L 211.345254 289.23106 
L 212.455302 301.193327 
L 213.56535 331.872494 
L 214.675398 308.425342 
L 215.785446 311.943394 
L 216.895493 307.639506 
L 218.005541 328.240122 
L 219.115589 317.803588 
L 220.225637 296.614586 
L 221.335685 306.55833 
L 222.445733 311.707572 
L 223.555781 303.432252 
L 224.665828 315.357756 
L 225.775876 314.259617 
L 226.885924 303.186395 
L 227.995972 326.308169 
L 229.10602 304.038193 
L 230.216068 312.662635 
L 231.326115 325.163182 
L 232.436163 299.420887 
L 233.546211 318.927318 
L 234.656259 303.822877 
L 235.766307 299.82276 
L 236.876355 309.104093 
L 237.986403 304.953026 
L 239.09645 302.223372 
L 240.206498 317.572483 
L 241.316546 316.168512 
L 242.426594 292.301099 
L 243.536642 304.990229 
L 244.64669 308.975607 
L 245.756737 306.362478 
L 246.866785 301.389845 
L 247.976833 317.172444 
L 249.086881 325.691867 
L 250.196929 310.064207 
L 251.306977 292.109786 
L 252.417025 299.853906 
L 253.527072 306.401543 
L 254.63712 309.362794 
L 255.747168 311.613779 
L 256.857216 289.709637 
L 257.967264 287.554706 
L 259.077312 289.974061 
L 260.187359 290.759415 
L 261.297407 292.882757 
L 262.407455 298.663423 
L 263.517503 295.016059 
L 265.737599 282.369342 
L 266.847647 279.091853 
L 267.957694 270.273175 
L 269.067742 277.410298 
L 270.17779 281.366184 
L 271.287838 268.096387 
L 272.397886 269.9504 
L 273.507934 263.999878 
L 274.617981 258.931821 
L 275.728029 257.265094 
L 276.838077 261.523847 
L 277.948125 266.6489 
L 279.058173 263.296885 
L 280.168221 248.359601 
L 281.278269 251.147542 
L 282.388316 234.377411 
L 283.498364 232.371423 
L 284.608412 235.740057 
L 285.71846 249.673286 
L 286.828508 245.459402 
L 287.938556 243.312812 
L 289.048603 230.833807 
L 290.158651 232.665259 
L 291.268699 227.215232 
L 292.378747 230.977044 
L 293.488795 244.329675 
L 294.598843 240.052963 
L 295.708891 231.178777 
L 296.818938 234.400034 
L 297.928986 227.278331 
L 299.039034 230.125295 
L 300.149082 218.861833 
L 301.25913 224.415647 
L 302.369178 233.57456 
L 303.479225 230.628785 
L 304.589273 221.499271 
L 305.699321 227.195069 
L 306.809369 230.214663 
L 307.919417 224.751692 
L 309.029465 230.161568 
L 310.139513 232.811775 
L 311.24956 231.77485 
L 312.359608 230.43648 
L 313.469656 224.830513 
L 314.579704 225.40494 
L 315.689752 233.107055 
L 316.7998 234.539394 
L 317.909847 233.461667 
L 319.019895 232.793419 
L 320.129943 231.274371 
L 321.239991 234.168181 
L 322.350039 232.200141 
L 323.460087 241.024585 
L 324.570135 252.640245 
L 325.680182 248.702349 
L 326.79023 248.899283 
L 327.900278 238.885494 
L 329.010326 238.749869 
L 330.120374 235.835039 
L 331.230422 244.821692 
L 332.340469 256.518555 
L 334.560565 237.202219 
L 335.670613 244.789246 
L 336.780661 245.199807 
L 337.890709 244.256817 
L 339.000757 259.258672 
L 340.110804 269.207399 
L 341.220852 258.811139 
L 342.3309 256.798006 
L 343.440948 253.863366 
L 344.550996 253.056612 
L 345.661044 255.453815 
L 346.771092 266.178847 
L 347.881139 274.135432 
L 348.991187 269.261385 
L 350.101235 263.883013 
L 351.211283 263.446724 
L 352.321331 258.984778 
L 353.431379 264.090097 
L 354.541426 270.250798 
L 355.651474 279.351214 
L 356.761522 239.192998 
L 357.87157 272.349508 
L 358.981618 260.894132 
L 360.091666 264.081062 
L 361.201714 260.214571 
L 363.421809 280.080631 
L 364.531857 280.317355 
L 365.641905 276.842735 
L 366.751953 270.250798 
L 367.862001 260.262019 
L 368.972048 264.153418 
L 370.082096 272.098046 
L 371.192144 281.729976 
L 372.302192 264.831443 
L 373.41224 272.920364 
L 374.522288 263.570707 
L 375.632336 264.026914 
L 376.742383 260.877958 
L 377.852431 270.952658 
L 378.962479 282.591361 
L 380.072527 271.543057 
L 381.182575 270.172617 
L 382.292623 270.724383 
L 383.40267 267.439579 
L 384.512718 267.972093 
L 385.622766 279.397226 
L 386.732814 306.44066 
L 387.842862 263.473247 
L 388.95291 278.401509 
L 390.062958 269.751856 
L 391.173005 269.402223 
L 392.283053 268.054896 
L 393.393101 279.612925 
L 394.503149 287.636253 
L 395.613197 274.225126 
L 396.723245 270.261984 
L 397.833292 263.121592 
L 398.94334 266.82716 
L 398.947882 539.890812 
M 401.158584 539.890812 
L 401.163436 248.051974 
L 402.273484 285.322406 
L 403.383532 268.7048 
L 404.49358 267.076584 
L 405.603627 262.68796 
L 406.713675 261.898319 
L 407.823723 257.300789 
L 408.933771 270.74713 
L 410.043819 282.216629 
L 411.153867 260.1672 
L 412.263914 275.632012 
L 413.373962 248.114277 
L 414.48401 259.954989 
L 415.594058 254.401072 
L 416.704106 272.554688 
L 417.814154 262.507758 
L 418.924202 255.54106 
L 420.034249 256.798006 
L 421.144297 256.22113 
L 422.254345 247.938098 
L 423.364393 273.216275 
L 424.474441 251.961344 
L 425.584489 253.260856 
L 426.694536 253.347944 
L 427.804584 254.712886 
L 428.914632 244.692128 
L 431.134728 254.524096 
L 432.244776 242.203174 
L 433.354824 258.170976 
L 434.464871 255.173735 
L 435.574919 246.694432 
L 436.684967 247.860713 
L 437.795015 241.728453 
L 438.905063 253.933213 
L 440.015111 230.84524 
L 441.125158 253.186419 
L 442.235206 239.615907 
L 443.345254 237.865265 
L 444.455302 233.91909 
L 445.56535 233.91909 
L 446.675398 236.152775 
L 447.785446 243.207365 
L 448.895493 244.352481 
L 450.005541 235.655515 
L 451.115589 236.266365 
L 451.120636 539.890812 
M 453.33029 539.890812 
L 453.335685 215.239453 
L 454.445733 244.599937 
L 455.555781 239.99012 
L 456.665828 242.893314 
L 457.775876 234.68596 
L 458.885924 231.164321 
L 459.995972 228.737096 
L 461.10602 230.640137 
L 462.216068 229.927993 
L 463.326115 236.060168 
L 464.436163 238.656058 
L 465.546211 237.647378 
L 467.766307 227.527017 
L 468.876355 226.613922 
L 469.986403 229.526458 
L 471.09645 234.325767 
L 472.206498 236.00543 
L 473.316546 232.900656 
L 474.426594 227.006726 
L 475.536642 223.240773 
L 476.64669 223.567794 
L 477.756737 226.65593 
L 478.866785 236.180271 
L 479.976833 228.354293 
L 481.086881 229.919686 
L 482.196929 227.402407 
L 483.306977 223.24297 
L 483.312239 539.890812 
M 485.521686 539.890812 
L 485.527072 215.746892 
L 486.63712 239.880473 
L 487.747168 236.886887 
L 488.857216 225.700083 
L 489.967264 221.694377 
L 491.077312 215.493739 
L 491.082702 539.890812 
M 493.291727 539.890812 
L 493.297407 197.984277 
L 494.407455 229.455534 
L 495.517503 227.729059 
L 496.627551 218.615544 
L 497.737599 214.517358 
L 498.847647 211.390322 
L 499.957694 211.810295 
L 502.17779 225.136234 
L 503.287838 226.919251 
L 504.397886 219.63488 
L 505.507934 221.447602 
L 506.617981 222.010577 
L 507.728029 216.031372 
L 508.838077 225.595009 
L 509.948125 228.15045 
L 511.058173 237.585941 
L 513.278269 226.087847 
L 514.388316 223.851396 
L 515.498364 222.012683 
L 516.608412 225.140927 
L 517.71846 232.522511 
L 518.828508 235.103657 
L 519.938556 232.344311 
L 521.048603 236.15621 
L 522.158651 227.303609 
L 523.268699 228.456756 
L 524.378747 219.397324 
L 525.488795 238.369021 
L 526.598843 247.233851 
L 527.708891 229.646882 
L 528.818938 241.537416 
L 529.928986 238.656058 
L 531.039034 227.00172 
L 532.149082 239.511528 
L 533.25913 243.045551 
L 534.369178 247.198581 
L 535.479225 241.355859 
L 536.589273 239.315389 
L 537.699321 235.756995 
L 538.809369 239.010378 
L 539.919417 239.399834 
L 541.029465 248.755442 
L 542.139513 260.540364 
L 543.24956 244.508039 
L 544.359608 240.072629 
L 545.469656 250.502451 
L 546.579704 242.789384 
L 547.689752 240.317612 
L 548.7998 250.797519 
L 549.909847 256.546379 
L 551.019895 247.845261 
L 552.129943 240.927155 
L 553.239991 242.975857 
L 554.350039 246.281739 
L 555.460087 248.633473 
L 556.570135 248.2132 
L 557.680182 282.335336 
L 558.79023 240.7212 
L 559.900278 245.836405 
L 561.010326 245.341115 
L 562.120374 246.02435 
L 563.230422 253.019632 
L 564.340469 256.917596 
L 565.450517 263.069212 
L 566.560565 254.693299 
L 567.670613 252.032687 
L 568.780661 250.797519 
L 569.890709 249.959963 
L 571.000757 249.794225 
L 572.110804 259.876787 
L 573.220852 267.653453 
L 574.3309 252.404127 
L 575.440948 253.585655 
L 576.550996 250.638262 
L 577.661044 250.372895 
L 578.771092 250.570277 
L 579.881139 257.710861 
L 580.991187 267.287776 
L 582.101235 249.47647 
L 583.211283 250.35604 
L 584.321331 247.017874 
L 585.431379 247.133195 
L 586.541426 246.472613 
L 587.651474 251.501859 
L 588.761522 262.533433 
L 589.87157 250.814634 
L 590.981618 249.520091 
L 592.091666 242.330528 
L 593.201714 243.635932 
L 594.311761 245.821998 
L 595.421809 252.386043 
L 596.531857 261.63983 
L 597.641905 248.124674 
L 598.751953 246.462794 
L 599.862001 237.814277 
L 600.972048 240.955538 
L 602.082096 241.841175 
L 603.192144 248.312463 
L 604.302192 283.852895 
L 605.41224 233.973196 
L 606.522288 242.407211 
L 607.632336 242.4499 
L 608.742383 240.254191 
L 609.852431 244.389008 
L 610.962479 242.143934 
L 612.072527 255.953995 
L 613.182575 247.665592 
L 614.292623 248.046788 
L 615.40267 242.785062 
L 616.512718 248.607026 
L 617.622766 239.802408 
L 618.732814 253.1369 
L 619.842862 261.367182 
L 620.95291 249.64587 
L 622.062958 250.160112 
L 623.173005 247.558325 
L 624.283053 249.454684 
L 625.393101 248.845925 
L 626.503149 258.788568 
L 627.613197 265.214071 
L 629.833292 254.902918 
L 630.94334 254.188635 
L 632.053388 256.449113 
L 633.163436 257.783408 
L 634.273484 263.784495 
L 635.383532 273.653319 
L 636.49358 263.499794 
L 637.603627 264.207804 
L 638.713675 257.158272 
L 639.823723 260.740837 
L 640.933771 263.00822 
L 642.043819 271.40305 
L 643.153867 277.989236 
L 644.263914 267.868921 
L 645.373962 267.807195 
L 646.48401 266.976556 
L 647.594058 272.724761 
L 648.704106 262.260741 
L 649.814154 276.660652 
L 650.924202 283.978534 
L 652.034249 279.520285 
L 653.144297 273.26589 
L 654.254345 273.129654 
L 655.364393 273.129654 
L 655.36883 539.890812 
M 659.799702 539.890812 
L 659.804584 246.20866 
L 660.914632 291.590119 
L 662.02468 279.45869 
L 662.029012 539.890812 
M 666.460099 539.890812 
L 666.464871 252.853802 
L 667.574919 292.784997 
L 668.684967 284.267779 
L 669.795015 281.896863 
L 670.905063 274.405355 
L 670.909478 539.890812 
M 673.120821 539.890812 
L 673.125158 279.15267 
L 674.235206 274.444122 
L 675.345254 297.925313 
L 676.455302 282.01426 
L 677.56535 283.621005 
L 678.675398 283.603244 
L 678.675398 283.603244 
" style="fill:none;stroke:#fc4f30;stroke-width:4;"/>
   </g>
   <g id="patch_3">
    <path d="M 80.748125 515.4355 
L 80.748125 31.5955 
" style="fill:none;stroke:#f0f0f0;stroke-linecap:square;stroke-linejoin:miter;stroke-width:3;"/>
   </g>
   <g id="patch_4">
    <path d="M 80.748125 515.4355 
L 707.148125 515.4355 
" style="fill:none;stroke:#f0f0f0;stroke-linecap:square;stroke-linejoin:miter;stroke-width:3;"/>
   </g>
   <g id="text_19">
    <!-- New Cases of COVID-19 -->
    <g style="fill:#555555;" transform="translate(282.321575 21.5955)scale(0.2016 -0.2016)">
     <defs>
      <path d="M 7.703125 71.40625 
L 7.703125 0 
L 16.703125 0 
L 16.703125 57.296875 
L 16.90625 57.296875 
L 54.203125 0 
L 64.59375 0 
L 64.59375 71.40625 
L 55.59375 71.40625 
L 55.59375 13.5 
L 55.40625 13.5 
L 17.796875 71.40625 
z
" id="HelveticaNeue-78"/>
      <path d="M 42.296875 30.796875 
L 12.59375 30.796875 
Q 12.796875 33.796875 13.890625 36.4375 
Q 15 39.09375 16.890625 41.09375 
Q 18.796875 43.09375 21.4375 44.25 
Q 24.09375 45.40625 27.40625 45.40625 
Q 30.59375 45.40625 33.25 44.25 
Q 35.90625 43.09375 37.84375 41.140625 
Q 39.796875 39.203125 40.9375 36.5 
Q 42.09375 33.796875 42.296875 30.796875 
z
M 50.5 16.40625 
L 42.09375 16.40625 
Q 41 11.296875 37.546875 8.796875 
Q 34.09375 6.296875 28.703125 6.296875 
Q 24.5 6.296875 21.390625 7.6875 
Q 18.296875 9.09375 16.296875 11.4375 
Q 14.296875 13.796875 13.390625 16.84375 
Q 12.5 19.90625 12.59375 23.296875 
L 51.296875 23.296875 
Q 51.5 28 50.453125 33.203125 
Q 49.40625 38.40625 46.65625 42.796875 
Q 43.90625 47.203125 39.34375 50.046875 
Q 34.796875 52.90625 27.90625 52.90625 
Q 22.59375 52.90625 18.140625 50.90625 
Q 13.703125 48.90625 10.453125 45.296875 
Q 7.203125 41.703125 5.390625 36.796875 
Q 3.59375 31.90625 3.59375 26 
Q 3.796875 20.09375 5.34375 15.09375 
Q 6.90625 10.09375 10 6.5 
Q 13.09375 2.90625 17.640625 0.90625 
Q 22.203125 -1.09375 28.40625 -1.09375 
Q 37.203125 -1.09375 43 3.296875 
Q 48.796875 7.703125 50.5 16.40625 
z
" id="HelveticaNeue-101"/>
      <path d="M 57.59375 0 
L 74.09375 51.703125 
L 65.296875 51.703125 
L 53.703125 9.40625 
L 53.5 9.40625 
L 42.703125 51.703125 
L 33.40625 51.703125 
L 23 9.40625 
L 22.796875 9.40625 
L 11.09375 51.703125 
L 1.703125 51.703125 
L 18.296875 0 
L 27.5 0 
L 37.90625 41.09375 
L 38.09375 41.09375 
L 48.59375 0 
z
" id="HelveticaNeue-119"/>
      <path id="HelveticaNeue-32"/>
      <path d="M 58 49.90625 
L 67.5 49.90625 
Q 66.703125 55.59375 64.09375 59.9375 
Q 61.5 64.296875 57.59375 67.1875 
Q 53.703125 70.09375 48.703125 71.59375 
Q 43.703125 73.09375 38.09375 73.09375 
Q 29.90625 73.09375 23.546875 70.140625 
Q 17.203125 67.203125 12.953125 62.09375 
Q 8.703125 57 6.5 50.140625 
Q 4.296875 43.296875 4.296875 35.5 
Q 4.296875 27.703125 6.34375 20.890625 
Q 8.40625 14.09375 12.5 9.09375 
Q 16.59375 4.09375 22.796875 1.25 
Q 29 -1.59375 37.296875 -1.59375 
Q 51 -1.59375 58.890625 5.90625 
Q 66.796875 13.40625 68.203125 26.90625 
L 58.703125 26.90625 
Q 58.40625 22.5 56.90625 18.703125 
Q 55.40625 14.90625 52.75 12.15625 
Q 50.09375 9.40625 46.4375 7.84375 
Q 42.796875 6.296875 38.09375 6.296875 
Q 31.703125 6.296875 27.09375 8.6875 
Q 22.5 11.09375 19.546875 15.140625 
Q 16.59375 19.203125 15.1875 24.640625 
Q 13.796875 30.09375 13.796875 36.203125 
Q 13.796875 41.796875 15.1875 47 
Q 16.59375 52.203125 19.546875 56.25 
Q 22.5 60.296875 27.046875 62.6875 
Q 31.59375 65.09375 38 65.09375 
Q 45.5 65.09375 50.953125 61.296875 
Q 56.40625 57.5 58 49.90625 
z
" id="HelveticaNeue-67"/>
      <path d="M 52.203125 0.203125 
Q 50 -1.09375 46.09375 -1.09375 
Q 42.796875 -1.09375 40.84375 0.75 
Q 38.90625 2.59375 38.90625 6.796875 
Q 35.40625 2.59375 30.75 0.75 
Q 26.09375 -1.09375 20.703125 -1.09375 
Q 17.203125 -1.09375 14.046875 -0.296875 
Q 10.90625 0.5 8.59375 2.203125 
Q 6.296875 3.90625 4.9375 6.65625 
Q 3.59375 9.40625 3.59375 13.296875 
Q 3.59375 17.703125 5.09375 20.5 
Q 6.59375 23.296875 9.046875 25.046875 
Q 11.5 26.796875 14.640625 27.6875 
Q 17.796875 28.59375 21.09375 29.203125 
Q 24.59375 29.90625 27.75 30.25 
Q 30.90625 30.59375 33.296875 31.25 
Q 35.703125 31.90625 37.09375 33.15625 
Q 38.5 34.40625 38.5 36.796875 
Q 38.5 39.59375 37.453125 41.296875 
Q 36.40625 43 34.75 43.890625 
Q 33.09375 44.796875 31.046875 45.09375 
Q 29 45.40625 27 45.40625 
Q 21.59375 45.40625 18 43.34375 
Q 14.40625 41.296875 14.09375 35.59375 
L 5.59375 35.59375 
Q 5.796875 40.40625 7.59375 43.703125 
Q 9.40625 47 12.40625 49.046875 
Q 15.40625 51.09375 19.25 52 
Q 23.09375 52.90625 27.5 52.90625 
Q 31 52.90625 34.453125 52.40625 
Q 37.90625 51.90625 40.703125 50.34375 
Q 43.5 48.796875 45.203125 46 
Q 46.90625 43.203125 46.90625 38.703125 
L 46.90625 12.09375 
Q 46.90625 9.09375 47.25 7.6875 
Q 47.59375 6.296875 49.59375 6.296875 
Q 50.703125 6.296875 52.203125 6.796875 
z
M 38.40625 26.703125 
Q 36.796875 25.5 34.1875 24.953125 
Q 31.59375 24.40625 28.75 24.046875 
Q 25.90625 23.703125 23 23.25 
Q 20.09375 22.796875 17.796875 21.796875 
Q 15.5 20.796875 14.046875 18.9375 
Q 12.59375 17.09375 12.59375 13.90625 
Q 12.59375 11.796875 13.4375 10.34375 
Q 14.296875 8.90625 15.640625 8 
Q 17 7.09375 18.796875 6.6875 
Q 20.59375 6.296875 22.59375 6.296875 
Q 26.796875 6.296875 29.796875 7.4375 
Q 32.796875 8.59375 34.6875 10.34375 
Q 36.59375 12.09375 37.5 14.140625 
Q 38.40625 16.203125 38.40625 18 
z
" id="HelveticaNeue-97"/>
      <path d="M 11.59375 16.296875 
L 3.09375 16.296875 
Q 3.296875 11.5 5.09375 8.140625 
Q 6.90625 4.796875 9.90625 2.75 
Q 12.90625 0.703125 16.796875 -0.1875 
Q 20.703125 -1.09375 25 -1.09375 
Q 28.90625 -1.09375 32.84375 -0.34375 
Q 36.796875 0.40625 39.9375 2.296875 
Q 43.09375 4.203125 45.046875 7.296875 
Q 47 10.40625 47 15.09375 
Q 47 18.796875 45.546875 21.296875 
Q 44.09375 23.796875 41.75 25.4375 
Q 39.40625 27.09375 36.34375 28.09375 
Q 33.296875 29.09375 30.09375 29.796875 
Q 27.09375 30.5 24.09375 31.140625 
Q 21.09375 31.796875 18.6875 32.75 
Q 16.296875 33.703125 14.75 35.140625 
Q 13.203125 36.59375 13.203125 38.796875 
Q 13.203125 40.796875 14.203125 42.046875 
Q 15.203125 43.296875 16.796875 44.046875 
Q 18.40625 44.796875 20.34375 45.09375 
Q 22.296875 45.40625 24.203125 45.40625 
Q 26.296875 45.40625 28.34375 44.953125 
Q 30.40625 44.5 32.09375 43.5 
Q 33.796875 42.5 34.890625 40.84375 
Q 36 39.203125 36.203125 36.703125 
L 44.703125 36.703125 
Q 44.40625 41.40625 42.703125 44.546875 
Q 41 47.703125 38.140625 49.546875 
Q 35.296875 51.40625 31.59375 52.15625 
Q 27.90625 52.90625 23.5 52.90625 
Q 20.09375 52.90625 16.640625 52.046875 
Q 13.203125 51.203125 10.453125 49.453125 
Q 7.703125 47.703125 5.953125 44.890625 
Q 4.203125 42.09375 4.203125 38.203125 
Q 4.203125 33.203125 6.703125 30.390625 
Q 9.203125 27.59375 12.953125 26.046875 
Q 16.703125 24.5 21.09375 23.640625 
Q 25.5 22.796875 29.25 21.75 
Q 33 20.703125 35.5 19 
Q 38 17.296875 38 14 
Q 38 11.59375 36.796875 10.046875 
Q 35.59375 8.5 33.75 7.703125 
Q 31.90625 6.90625 29.703125 6.59375 
Q 27.5 6.296875 25.5 6.296875 
Q 22.90625 6.296875 20.453125 6.796875 
Q 18 7.296875 16.046875 8.4375 
Q 14.09375 9.59375 12.890625 11.546875 
Q 11.703125 13.5 11.59375 16.296875 
z
" id="HelveticaNeue-115"/>
      <path d="M 12.59375 25.796875 
Q 12.59375 30.5 13.84375 34.140625 
Q 15.09375 37.796875 17.296875 40.296875 
Q 19.5 42.796875 22.453125 44.09375 
Q 25.40625 45.40625 28.703125 45.40625 
Q 32 45.40625 34.953125 44.09375 
Q 37.90625 42.796875 40.09375 40.296875 
Q 42.296875 37.796875 43.546875 34.140625 
Q 44.796875 30.5 44.796875 25.796875 
Q 44.796875 21.09375 43.546875 17.4375 
Q 42.296875 13.796875 40.09375 11.34375 
Q 37.90625 8.90625 34.953125 7.59375 
Q 32 6.296875 28.703125 6.296875 
Q 25.40625 6.296875 22.453125 7.59375 
Q 19.5 8.90625 17.296875 11.34375 
Q 15.09375 13.796875 13.84375 17.4375 
Q 12.59375 21.09375 12.59375 25.796875 
z
M 3.59375 25.796875 
Q 3.59375 20.09375 5.1875 15.1875 
Q 6.796875 10.296875 10 6.640625 
Q 13.203125 3 17.890625 0.953125 
Q 22.59375 -1.09375 28.703125 -1.09375 
Q 34.90625 -1.09375 39.546875 0.953125 
Q 44.203125 3 47.390625 6.640625 
Q 50.59375 10.296875 52.1875 15.1875 
Q 53.796875 20.09375 53.796875 25.796875 
Q 53.796875 31.5 52.1875 36.453125 
Q 50.59375 41.40625 47.390625 45.046875 
Q 44.203125 48.703125 39.546875 50.796875 
Q 34.90625 52.90625 28.703125 52.90625 
Q 22.59375 52.90625 17.890625 50.796875 
Q 13.203125 48.703125 10 45.046875 
Q 6.796875 41.40625 5.1875 36.453125 
Q 3.59375 31.5 3.59375 25.796875 
z
" id="HelveticaNeue-111"/>
      <path d="M 9.90625 44.203125 
L 9.90625 0 
L 18.40625 0 
L 18.40625 44.203125 
L 28.40625 44.203125 
L 28.40625 51.703125 
L 18.40625 51.703125 
L 18.40625 58.90625 
Q 18.40625 62.296875 20.09375 63.5 
Q 21.796875 64.703125 24.90625 64.703125 
Q 26 64.703125 27.296875 64.546875 
Q 28.59375 64.40625 29.703125 64 
L 29.703125 71.40625 
Q 28.5 71.796875 26.953125 72 
Q 25.40625 72.203125 24.203125 72.203125 
Q 17.203125 72.203125 13.546875 68.953125 
Q 9.90625 65.703125 9.90625 59.40625 
L 9.90625 51.703125 
L 1.203125 51.703125 
L 1.203125 44.203125 
z
" id="HelveticaNeue-102"/>
      <path d="M 13.296875 35.703125 
Q 13.296875 41.09375 14.6875 46.34375 
Q 16.09375 51.59375 19.09375 55.796875 
Q 22.09375 60 26.796875 62.546875 
Q 31.5 65.09375 38 65.09375 
Q 44.5 65.09375 49.203125 62.546875 
Q 53.90625 60 56.90625 55.796875 
Q 59.90625 51.59375 61.296875 46.34375 
Q 62.703125 41.09375 62.703125 35.703125 
Q 62.703125 30.296875 61.296875 25.046875 
Q 59.90625 19.796875 56.90625 15.59375 
Q 53.90625 11.40625 49.203125 8.84375 
Q 44.5 6.296875 38 6.296875 
Q 31.5 6.296875 26.796875 8.84375 
Q 22.09375 11.40625 19.09375 15.59375 
Q 16.09375 19.796875 14.6875 25.046875 
Q 13.296875 30.296875 13.296875 35.703125 
z
M 3.796875 35.703125 
Q 3.796875 28.40625 5.9375 21.65625 
Q 8.09375 14.90625 12.390625 9.703125 
Q 16.703125 4.5 23.09375 1.453125 
Q 29.5 -1.59375 38 -1.59375 
Q 46.5 -1.59375 52.890625 1.453125 
Q 59.296875 4.5 63.59375 9.703125 
Q 67.90625 14.90625 70.046875 21.65625 
Q 72.203125 28.40625 72.203125 35.703125 
Q 72.203125 43 70.046875 49.75 
Q 67.90625 56.5 63.59375 61.703125 
Q 59.296875 66.90625 52.890625 70 
Q 46.5 73.09375 38 73.09375 
Q 29.5 73.09375 23.09375 70 
Q 16.703125 66.90625 12.390625 61.703125 
Q 8.09375 56.5 5.9375 49.75 
Q 3.796875 43 3.796875 35.703125 
z
" id="HelveticaNeue-79"/>
      <path d="M 35.90625 0 
L 61.296875 71.40625 
L 51.40625 71.40625 
L 30.796875 9.5 
L 30.59375 9.5 
L 10.203125 71.40625 
L 0 71.40625 
L 25.09375 0 
z
" id="HelveticaNeue-86"/>
      <path d="M 8.203125 71.40625 
L 8.203125 0 
L 17.703125 0 
L 17.703125 71.40625 
z
" id="HelveticaNeue-73"/>
      <path d="M 17.296875 8 
L 17.296875 63.40625 
L 33.296875 63.40625 
Q 39.90625 63.40625 44.40625 61.546875 
Q 48.90625 59.703125 51.75 56.140625 
Q 54.59375 52.59375 55.84375 47.546875 
Q 57.09375 42.5 57.09375 36.09375 
Q 57.09375 29.5 55.75 24.84375 
Q 54.40625 20.203125 52.296875 17.09375 
Q 50.203125 14 47.546875 12.203125 
Q 44.90625 10.40625 42.203125 9.453125 
Q 39.5 8.5 37.09375 8.25 
Q 34.703125 8 33.09375 8 
z
M 7.796875 71.40625 
L 7.796875 0 
L 32.296875 0 
Q 41.203125 0 47.703125 2.5 
Q 54.203125 5 58.390625 9.75 
Q 62.59375 14.5 64.59375 21.453125 
Q 66.59375 28.40625 66.59375 37.40625 
Q 66.59375 54.59375 57.6875 63 
Q 48.796875 71.40625 32.296875 71.40625 
z
" id="HelveticaNeue-68"/>
     </defs>
     <use xlink:href="#HelveticaNeue-78"/>
     <use x="72.199982" xlink:href="#HelveticaNeue-101"/>
     <use x="125.899979" xlink:href="#HelveticaNeue-119"/>
     <use x="201.699966" xlink:href="#HelveticaNeue-32"/>
     <use x="229.499954" xlink:href="#HelveticaNeue-67"/>
     <use x="301.699936" xlink:href="#HelveticaNeue-97"/>
     <use x="355.399933" xlink:href="#HelveticaNeue-115"/>
     <use x="405.399918" xlink:href="#HelveticaNeue-101"/>
     <use x="459.099915" xlink:href="#HelveticaNeue-115"/>
     <use x="509.099899" xlink:href="#HelveticaNeue-32"/>
     <use x="536.899887" xlink:href="#HelveticaNeue-111"/>
     <use x="594.299881" xlink:href="#HelveticaNeue-102"/>
     <use x="623.899872" xlink:href="#HelveticaNeue-32"/>
     <use x="651.69986" xlink:href="#HelveticaNeue-67"/>
     <use x="723.899841" xlink:href="#HelveticaNeue-79"/>
     <use x="799.899826" xlink:href="#HelveticaNeue-86"/>
     <use x="860.999817" xlink:href="#HelveticaNeue-73"/>
     <use x="886.899811" xlink:href="#HelveticaNeue-68"/>
     <use x="957.299805" xlink:href="#HelveticaNeue-45"/>
     <use x="996.199799" xlink:href="#HelveticaNeue-49"/>
     <use x="1051.799789" xlink:href="#HelveticaNeue-57"/>
    </g>
   </g>
   <g id="legend_1">
    <g id="line2d_99">
     <path d="M 570.298125 49.292375 
L 598.298125 49.292375 
" style="fill:none;stroke:#008fd5;stroke-width:4;"/>
    </g>
    <g id="line2d_100"/>
    <g id="text_20">
     <!-- United States -->
     <g style="fill:#555555;" transform="translate(609.498125 54.192375)scale(0.14 -0.14)">
      <defs>
       <path d="M 64.796875 25.796875 
L 64.796875 71.40625 
L 55.296875 71.40625 
L 55.296875 25.796875 
Q 55.296875 16.203125 50.546875 11.25 
Q 45.796875 6.296875 36.703125 6.296875 
Q 27.09375 6.296875 22 11.25 
Q 16.90625 16.203125 16.90625 25.796875 
L 16.90625 71.40625 
L 7.40625 71.40625 
L 7.40625 25.796875 
Q 7.40625 11.5 15.15625 4.953125 
Q 22.90625 -1.59375 36.703125 -1.59375 
Q 50.203125 -1.59375 57.5 5.25 
Q 64.796875 12.09375 64.796875 25.796875 
z
" id="HelveticaNeue-85"/>
       <path d="M 6.40625 51.703125 
L 6.40625 0 
L 14.90625 0 
L 14.90625 29.203125 
Q 14.90625 32.703125 15.84375 35.640625 
Q 16.796875 38.59375 18.6875 40.796875 
Q 20.59375 43 23.4375 44.203125 
Q 26.296875 45.40625 30.203125 45.40625 
Q 35.09375 45.40625 37.890625 42.59375 
Q 40.703125 39.796875 40.703125 35 
L 40.703125 0 
L 49.203125 0 
L 49.203125 34 
Q 49.203125 38.203125 48.34375 41.640625 
Q 47.5 45.09375 45.390625 47.59375 
Q 43.296875 50.09375 39.890625 51.5 
Q 36.5 52.90625 31.40625 52.90625 
Q 19.90625 52.90625 14.59375 43.5 
L 14.40625 43.5 
L 14.40625 51.703125 
z
" id="HelveticaNeue-110"/>
       <path d="M 15.40625 61 
L 15.40625 71.40625 
L 6.90625 71.40625 
L 6.90625 61 
z
M 6.90625 51.703125 
L 6.90625 0 
L 15.40625 0 
L 15.40625 51.703125 
z
" id="HelveticaNeue-105"/>
       <path d="M 18.203125 51.703125 
L 18.203125 67.203125 
L 9.703125 67.203125 
L 9.703125 51.703125 
L 0.90625 51.703125 
L 0.90625 44.203125 
L 9.703125 44.203125 
L 9.703125 11.296875 
Q 9.703125 7.703125 10.390625 5.5 
Q 11.09375 3.296875 12.546875 2.09375 
Q 14 0.90625 16.34375 0.453125 
Q 18.703125 0 22 0 
L 28.5 0 
L 28.5 7.5 
L 24.59375 7.5 
Q 22.59375 7.5 21.34375 7.640625 
Q 20.09375 7.796875 19.390625 8.296875 
Q 18.703125 8.796875 18.453125 9.6875 
Q 18.203125 10.59375 18.203125 12.09375 
L 18.203125 44.203125 
L 28.5 44.203125 
L 28.5 51.703125 
z
" id="HelveticaNeue-116"/>
       <path d="M 12.59375 25.40625 
Q 12.59375 29.203125 13.390625 32.796875 
Q 14.203125 36.40625 16 39.203125 
Q 17.796875 42 20.796875 43.703125 
Q 23.796875 45.40625 28.09375 45.40625 
Q 32.5 45.40625 35.59375 43.75 
Q 38.703125 42.09375 40.640625 39.390625 
Q 42.59375 36.703125 43.5 33.140625 
Q 44.40625 29.59375 44.40625 25.796875 
Q 44.40625 22.203125 43.546875 18.703125 
Q 42.703125 15.203125 40.796875 12.453125 
Q 38.90625 9.703125 35.90625 8 
Q 32.90625 6.296875 28.59375 6.296875 
Q 24.5 6.296875 21.453125 7.890625 
Q 18.40625 9.5 16.453125 12.203125 
Q 14.5 14.90625 13.546875 18.34375 
Q 12.59375 21.796875 12.59375 25.40625 
z
M 52.59375 0 
L 52.59375 71.40625 
L 44.09375 71.40625 
L 44.09375 44.796875 
L 43.90625 44.796875 
Q 42.5 47.09375 40.453125 48.640625 
Q 38.40625 50.203125 36.09375 51.140625 
Q 33.796875 52.09375 31.5 52.5 
Q 29.203125 52.90625 27.203125 52.90625 
Q 21.296875 52.90625 16.84375 50.75 
Q 12.40625 48.59375 9.453125 44.9375 
Q 6.5 41.296875 5.046875 36.390625 
Q 3.59375 31.5 3.59375 26 
Q 3.59375 20.5 5.09375 15.59375 
Q 6.59375 10.703125 9.546875 7 
Q 12.5 3.296875 16.953125 1.09375 
Q 21.40625 -1.09375 27.40625 -1.09375 
Q 32.796875 -1.09375 37.296875 0.796875 
Q 41.796875 2.703125 43.90625 7 
L 44.09375 7 
L 44.09375 0 
z
" id="HelveticaNeue-100"/>
       <path d="M 49.09375 50.5 
L 58.09375 50.5 
Q 57.90625 56.40625 55.84375 60.65625 
Q 53.796875 64.90625 50.25 67.703125 
Q 46.703125 70.5 42 71.796875 
Q 37.296875 73.09375 31.796875 73.09375 
Q 26.90625 73.09375 22.25 71.84375 
Q 17.59375 70.59375 13.9375 68.046875 
Q 10.296875 65.5 8.09375 61.546875 
Q 5.90625 57.59375 5.90625 52.203125 
Q 5.90625 47.296875 7.84375 44.046875 
Q 9.796875 40.796875 13.046875 38.75 
Q 16.296875 36.703125 20.390625 35.453125 
Q 24.5 34.203125 28.75 33.25 
Q 33 32.296875 37.09375 31.390625 
Q 41.203125 30.5 44.453125 29.046875 
Q 47.703125 27.59375 49.640625 25.296875 
Q 51.59375 23 51.59375 19.296875 
Q 51.59375 15.40625 50 12.90625 
Q 48.40625 10.40625 45.796875 8.953125 
Q 43.203125 7.5 39.953125 6.890625 
Q 36.703125 6.296875 33.5 6.296875 
Q 29.5 6.296875 25.703125 7.296875 
Q 21.90625 8.296875 19.046875 10.390625 
Q 16.203125 12.5 14.453125 15.75 
Q 12.703125 19 12.703125 23.5 
L 3.703125 23.5 
Q 3.703125 17 6.046875 12.25 
Q 8.40625 7.5 12.453125 4.453125 
Q 16.5 1.40625 21.84375 -0.09375 
Q 27.203125 -1.59375 33.203125 -1.59375 
Q 38.09375 -1.59375 43.046875 -0.4375 
Q 48 0.703125 52 3.25 
Q 56 5.796875 58.546875 9.84375 
Q 61.09375 13.90625 61.09375 19.59375 
Q 61.09375 24.90625 59.140625 28.40625 
Q 57.203125 31.90625 53.953125 34.203125 
Q 50.703125 36.5 46.59375 37.84375 
Q 42.5 39.203125 38.25 40.203125 
Q 34 41.203125 29.890625 42.046875 
Q 25.796875 42.90625 22.546875 44.203125 
Q 19.296875 45.5 17.34375 47.546875 
Q 15.40625 49.59375 15.40625 52.90625 
Q 15.40625 56.40625 16.75 58.75 
Q 18.09375 61.09375 20.34375 62.5 
Q 22.59375 63.90625 25.5 64.5 
Q 28.40625 65.09375 31.40625 65.09375 
Q 38.796875 65.09375 43.546875 61.640625 
Q 48.296875 58.203125 49.09375 50.5 
z
" id="HelveticaNeue-83"/>
      </defs>
      <use xlink:href="#HelveticaNeue-85"/>
      <use x="72.199982" xlink:href="#HelveticaNeue-110"/>
      <use x="127.799973" xlink:href="#HelveticaNeue-105"/>
      <use x="149.999969" xlink:href="#HelveticaNeue-116"/>
      <use x="181.499954" xlink:href="#HelveticaNeue-101"/>
      <use x="235.199951" xlink:href="#HelveticaNeue-100"/>
      <use x="294.499939" xlink:href="#HelveticaNeue-32"/>
      <use x="322.299927" xlink:href="#HelveticaNeue-83"/>
      <use x="387.099915" xlink:href="#HelveticaNeue-116"/>
      <use x="418.599899" xlink:href="#HelveticaNeue-97"/>
      <use x="472.299896" xlink:href="#HelveticaNeue-116"/>
      <use x="503.799881" xlink:href="#HelveticaNeue-101"/>
      <use x="557.499878" xlink:href="#HelveticaNeue-115"/>
     </g>
    </g>
    <g id="line2d_101">
     <path d="M 570.298125 69.047687 
L 598.298125 69.047687 
" style="fill:none;stroke:#fc4f30;stroke-width:4;"/>
    </g>
    <g id="line2d_102"/>
    <g id="text_21">
     <!-- Florida -->
     <g style="fill:#555555;" transform="translate(609.498125 73.947687)scale(0.14 -0.14)">
      <defs>
       <path d="M 7.796875 71.40625 
L 7.796875 0 
L 17.296875 0 
L 17.296875 32.703125 
L 50.09375 32.703125 
L 50.09375 40.703125 
L 17.296875 40.703125 
L 17.296875 63.40625 
L 54.703125 63.40625 
L 54.703125 71.40625 
z
" id="HelveticaNeue-70"/>
       <path d="M 6.90625 71.40625 
L 6.90625 0 
L 15.40625 0 
L 15.40625 71.40625 
z
" id="HelveticaNeue-108"/>
       <path d="M 6.09375 51.703125 
L 6.09375 0 
L 14.59375 0 
L 14.59375 23 
Q 14.59375 28 15.59375 31.84375 
Q 16.59375 35.703125 18.796875 38.390625 
Q 21 41.09375 24.59375 42.5 
Q 28.203125 43.90625 33.296875 43.90625 
L 33.296875 52.90625 
Q 26.40625 53.09375 21.90625 50.09375 
Q 17.40625 47.09375 14.296875 40.796875 
L 14.09375 40.796875 
L 14.09375 51.703125 
z
" id="HelveticaNeue-114"/>
      </defs>
      <use xlink:href="#HelveticaNeue-70"/>
      <use x="57.399994" xlink:href="#HelveticaNeue-108"/>
      <use x="79.599991" xlink:href="#HelveticaNeue-111"/>
      <use x="136.999985" xlink:href="#HelveticaNeue-114"/>
      <use x="170.299973" xlink:href="#HelveticaNeue-105"/>
      <use x="192.499969" xlink:href="#HelveticaNeue-100"/>
      <use x="251.799957" xlink:href="#HelveticaNeue-97"/>
     </g>
    </g>
   </g>
  </g>
 </g>
 <defs>
  <clipPath id="p4f7e2a3bd6">
   <rect height="483.84" width="626.4" x="80.748125" y="31.5955"/>
  </clipPath>
 </defs>
</svg>
