<?xml version="1.0" encoding="utf-8" standalone="no"?>
<!DOCTYPE svg PUBLIC "-//W3C//DTD SVG 1.1//EN"
  "http://www.w3.org/Graphics/SVG/1.1/DTD/svg11.dtd">
<!-- Created with matplotlib (https://matplotlib.org/) -->
<svg height="538.890812pt" version="1.1" viewBox="0 0 714.348125 538.890812" width="714.348125pt" xmlns="http://www.w3.org/2000/svg" xmlns:xlink="http://www.w3.org/1999/xlink">
 <metadata>
  <rdf:RDF xmlns:cc="http://creativecommons.org/ns#" xmlns:dc="http://purl.org/dc/elements/1.1/" xmlns:rdf="http://www.w3.org/1999/02/22-rdf-syntax-ns#">
   <cc:Work>
    <dc:type rdf:resource="http://purl.org/dc/dcmitype/StillImage"/>
    <dc:date>2021-06-05T20:51:43.817208</dc:date>
    <dc:format>image/svg+xml</dc:format>
    <dc:creator>
     <cc:Agent>
      <dc:title>Matplotlib v3.3.4, https://matplotlib.org/</dc:title>
     </cc:Agent>
    </dc:creator>
   </cc:Work>
  </rdf:RDF>
 </metadata>
 <defs>
  <style type="text/css">*{stroke-linecap:butt;stroke-linejoin:round;}</style>
 </defs>
 <g id="figure_1">
  <g id="patch_1">
   <path d="M 0 538.890812 
L 714.348125 538.890812 
L 714.348125 0 
L 0 0 
z
" style="fill:#f0f0f0;"/>
  </g>
  <g id="axes_1">
   <g id="patch_2">
    <path d="M 80.748125 515.4355 
L 707.148125 515.4355 
L 707.148125 31.5955 
L 80.748125 31.5955 
z
" style="fill:#f0f0f0;"/>
   </g>
   <g id="matplotlib.axis_1">
    <g id="xtick_1">
     <g id="line2d_1">
      <path clip-path="url(#pd121516220)" d="M 85.255831 515.4355 
L 85.255831 31.5955 
" style="fill:none;stroke:#cbcbcb;"/>
     </g>
     <g id="line2d_2"/>
     <g id="text_1">
      <!-- 2020-01 -->
      <g style="fill:#555555;" transform="translate(59.183019 528.932375)scale(0.14 -0.14)">
       <defs>
        <path d="M 4.40625 45.796875 
L 12.90625 45.796875 
Q 12.796875 49 13.546875 52.140625 
Q 14.296875 55.296875 16 57.796875 
Q 17.703125 60.296875 20.34375 61.84375 
Q 23 63.40625 26.703125 63.40625 
Q 29.5 63.40625 32 62.5 
Q 34.5 61.59375 36.34375 59.890625 
Q 38.203125 58.203125 39.296875 55.84375 
Q 40.40625 53.5 40.40625 50.59375 
Q 40.40625 46.90625 39.25 44.09375 
Q 38.09375 41.296875 35.84375 38.890625 
Q 33.59375 36.5 30.1875 34.140625 
Q 26.796875 31.796875 22.296875 29 
Q 18.59375 26.796875 15.1875 24.296875 
Q 11.796875 21.796875 9.09375 18.5 
Q 6.40625 15.203125 4.65625 10.75 
Q 2.90625 6.296875 2.40625 0 
L 48.703125 0 
L 48.703125 7.5 
L 12.296875 7.5 
Q 12.90625 10.796875 14.84375 13.34375 
Q 16.796875 15.90625 19.546875 18.09375 
Q 22.296875 20.296875 25.59375 22.25 
Q 28.90625 24.203125 32.203125 26.203125 
Q 35.5 28.296875 38.59375 30.59375 
Q 41.703125 32.90625 44.09375 35.75 
Q 46.5 38.59375 47.953125 42.1875 
Q 49.40625 45.796875 49.40625 50.5 
Q 49.40625 55.5 47.65625 59.296875 
Q 45.90625 63.09375 42.90625 65.640625 
Q 39.90625 68.203125 35.84375 69.546875 
Q 31.796875 70.90625 27.203125 70.90625 
Q 21.59375 70.90625 17.1875 69 
Q 12.796875 67.09375 9.84375 63.75 
Q 6.90625 60.40625 5.5 55.796875 
Q 4.09375 51.203125 4.40625 45.796875 
z
" id="HelveticaNeue-50"/>
        <path d="M 13.203125 34.90625 
Q 13.203125 37.5 13.25 40.640625 
Q 13.296875 43.796875 13.75 46.9375 
Q 14.203125 50.09375 15.046875 53.09375 
Q 15.90625 56.09375 17.546875 58.34375 
Q 19.203125 60.59375 21.703125 62 
Q 24.203125 63.40625 27.796875 63.40625 
Q 31.40625 63.40625 33.90625 62 
Q 36.40625 60.59375 38.046875 58.34375 
Q 39.703125 56.09375 40.546875 53.09375 
Q 41.40625 50.09375 41.84375 46.9375 
Q 42.296875 43.796875 42.34375 40.640625 
Q 42.40625 37.5 42.40625 34.90625 
Q 42.40625 30.90625 42.15625 25.953125 
Q 41.90625 21 40.546875 16.640625 
Q 39.203125 12.296875 36.203125 9.296875 
Q 33.203125 6.296875 27.796875 6.296875 
Q 22.40625 6.296875 19.40625 9.296875 
Q 16.40625 12.296875 15.046875 16.640625 
Q 13.703125 21 13.453125 25.953125 
Q 13.203125 30.90625 13.203125 34.90625 
z
M 4.203125 34.796875 
Q 4.203125 30.90625 4.390625 26.703125 
Q 4.59375 22.5 5.390625 18.5 
Q 6.203125 14.5 7.703125 10.953125 
Q 9.203125 7.40625 11.796875 4.703125 
Q 14.40625 2 18.34375 0.453125 
Q 22.296875 -1.09375 27.796875 -1.09375 
Q 33.40625 -1.09375 37.296875 0.453125 
Q 41.203125 2 43.796875 4.703125 
Q 46.40625 7.40625 47.90625 10.953125 
Q 49.40625 14.5 50.203125 18.5 
Q 51 22.5 51.203125 26.703125 
Q 51.40625 30.90625 51.40625 34.796875 
Q 51.40625 38.703125 51.203125 42.890625 
Q 51 47.09375 50.203125 51.09375 
Q 49.40625 55.09375 47.90625 58.6875 
Q 46.40625 62.296875 43.796875 65 
Q 41.203125 67.703125 37.25 69.296875 
Q 33.296875 70.90625 27.796875 70.90625 
Q 22.296875 70.90625 18.34375 69.296875 
Q 14.40625 67.703125 11.796875 65 
Q 9.203125 62.296875 7.703125 58.6875 
Q 6.203125 55.09375 5.390625 51.09375 
Q 4.59375 47.09375 4.390625 42.890625 
Q 4.203125 38.703125 4.203125 34.796875 
z
" id="HelveticaNeue-48"/>
        <path d="M 5 31.796875 
L 5 23.796875 
L 33.90625 23.796875 
L 33.90625 31.796875 
z
" id="HelveticaNeue-45"/>
        <path d="M 35.59375 0 
L 35.59375 70.90625 
L 29.09375 70.90625 
Q 28.40625 66.90625 26.5 64.296875 
Q 24.59375 61.703125 21.84375 60.203125 
Q 19.09375 58.703125 15.6875 58.140625 
Q 12.296875 57.59375 8.703125 57.59375 
L 8.703125 50.796875 
L 27.09375 50.796875 
L 27.09375 0 
z
" id="HelveticaNeue-49"/>
       </defs>
       <use xlink:href="#HelveticaNeue-50"/>
       <use x="55.599991" xlink:href="#HelveticaNeue-48"/>
       <use x="111.199982" xlink:href="#HelveticaNeue-50"/>
       <use x="166.799973" xlink:href="#HelveticaNeue-48"/>
       <use x="222.399963" xlink:href="#HelveticaNeue-45"/>
       <use x="261.299957" xlink:href="#HelveticaNeue-48"/>
       <use x="316.899948" xlink:href="#HelveticaNeue-49"/>
      </g>
     </g>
    </g>
    <g id="xtick_2">
     <g id="line2d_3">
      <path clip-path="url(#pd121516220)" d="M 153.72732 515.4355 
L 153.72732 31.5955 
" style="fill:none;stroke:#cbcbcb;"/>
     </g>
     <g id="line2d_4"/>
     <g id="text_2">
      <!-- 2020-03 -->
      <g style="fill:#555555;" transform="translate(127.654507 528.932375)scale(0.14 -0.14)">
       <defs>
        <path d="M 21.796875 40.5 
L 21.796875 33.296875 
Q 24.203125 33.59375 26.90625 33.59375 
Q 30.09375 33.59375 32.84375 32.75 
Q 35.59375 31.90625 37.59375 30.15625 
Q 39.59375 28.40625 40.796875 25.84375 
Q 42 23.296875 42 20 
Q 42 16.796875 40.75 14.25 
Q 39.5 11.703125 37.390625 9.953125 
Q 35.296875 8.203125 32.5 7.25 
Q 29.703125 6.296875 26.59375 6.296875 
Q 19.296875 6.296875 15.5 10.640625 
Q 11.703125 15 11.5 21.90625 
L 3 21.90625 
Q 2.90625 16.40625 4.546875 12.09375 
Q 6.203125 7.796875 9.296875 4.84375 
Q 12.40625 1.90625 16.796875 0.40625 
Q 21.203125 -1.09375 26.59375 -1.09375 
Q 31.59375 -1.09375 36.046875 0.25 
Q 40.5 1.59375 43.796875 4.296875 
Q 47.09375 7 49.046875 11.046875 
Q 51 15.09375 51 20.40625 
Q 51 26.796875 47.84375 31.5 
Q 44.703125 36.203125 38.203125 37.59375 
L 38.203125 37.796875 
Q 42.40625 39.703125 45.203125 43.390625 
Q 48 47.09375 48 51.90625 
Q 48 56.796875 46.34375 60.390625 
Q 44.703125 64 41.796875 66.296875 
Q 38.90625 68.59375 34.953125 69.75 
Q 31 70.90625 26.40625 70.90625 
Q 21.09375 70.90625 17.046875 69.203125 
Q 13 67.5 10.296875 64.5 
Q 7.59375 61.5 6.140625 57.296875 
Q 4.703125 53.09375 4.5 48 
L 13 48 
Q 13 51.09375 13.796875 53.890625 
Q 14.59375 56.703125 16.25 58.796875 
Q 17.90625 60.90625 20.453125 62.15625 
Q 23 63.40625 26.40625 63.40625 
Q 31.796875 63.40625 35.390625 60.546875 
Q 39 57.703125 39 52 
Q 39 49.203125 37.890625 47 
Q 36.796875 44.796875 34.9375 43.34375 
Q 33.09375 41.90625 30.640625 41.15625 
Q 28.203125 40.40625 25.5 40.40625 
L 23.703125 40.40625 
Q 23.203125 40.40625 22.703125 40.40625 
Q 22.296875 40.40625 21.796875 40.5 
z
" id="HelveticaNeue-51"/>
       </defs>
       <use xlink:href="#HelveticaNeue-50"/>
       <use x="55.599991" xlink:href="#HelveticaNeue-48"/>
       <use x="111.199982" xlink:href="#HelveticaNeue-50"/>
       <use x="166.799973" xlink:href="#HelveticaNeue-48"/>
       <use x="222.399963" xlink:href="#HelveticaNeue-45"/>
       <use x="261.299957" xlink:href="#HelveticaNeue-48"/>
       <use x="316.899948" xlink:href="#HelveticaNeue-51"/>
      </g>
     </g>
    </g>
    <g id="xtick_3">
     <g id="line2d_5">
      <path clip-path="url(#pd121516220)" d="M 223.34 515.4355 
L 223.34 31.5955 
" style="fill:none;stroke:#cbcbcb;"/>
     </g>
     <g id="line2d_6"/>
     <g id="text_3">
      <!-- 2020-05 -->
      <g style="fill:#555555;" transform="translate(197.267187 528.932375)scale(0.14 -0.14)">
       <defs>
        <path d="M 47 62.203125 
L 47 69.703125 
L 12 69.703125 
L 5.40625 32.90625 
L 12.703125 32.5 
Q 15.203125 35.5 18.453125 37.34375 
Q 21.703125 39.203125 25.90625 39.203125 
Q 29.5 39.203125 32.453125 38 
Q 35.40625 36.796875 37.5 34.640625 
Q 39.59375 32.5 40.75 29.546875 
Q 41.90625 26.59375 41.90625 23.09375 
Q 41.90625 18.90625 40.703125 15.75 
Q 39.5 12.59375 37.453125 10.5 
Q 35.40625 8.40625 32.65625 7.34375 
Q 29.90625 6.296875 26.90625 6.296875 
Q 23.703125 6.296875 21.046875 7.25 
Q 18.40625 8.203125 16.453125 9.953125 
Q 14.5 11.703125 13.34375 14.046875 
Q 12.203125 16.40625 12 19.09375 
L 3.5 19.09375 
Q 3.59375 14.296875 5.390625 10.5 
Q 7.203125 6.703125 10.296875 4.140625 
Q 13.40625 1.59375 17.453125 0.25 
Q 21.5 -1.09375 26.09375 -1.09375 
Q 32.296875 -1.09375 36.9375 0.84375 
Q 41.59375 2.796875 44.6875 6.09375 
Q 47.796875 9.40625 49.34375 13.65625 
Q 50.90625 17.90625 50.90625 22.40625 
Q 50.90625 28.5 49.09375 33.046875 
Q 47.296875 37.59375 44.1875 40.640625 
Q 41.09375 43.703125 36.890625 45.203125 
Q 32.703125 46.703125 28 46.703125 
Q 24.40625 46.703125 20.75 45.453125 
Q 17.09375 44.203125 14.796875 41.59375 
L 14.59375 41.796875 
L 18.40625 62.203125 
z
" id="HelveticaNeue-53"/>
       </defs>
       <use xlink:href="#HelveticaNeue-50"/>
       <use x="55.599991" xlink:href="#HelveticaNeue-48"/>
       <use x="111.199982" xlink:href="#HelveticaNeue-50"/>
       <use x="166.799973" xlink:href="#HelveticaNeue-48"/>
       <use x="222.399963" xlink:href="#HelveticaNeue-45"/>
       <use x="261.299957" xlink:href="#HelveticaNeue-48"/>
       <use x="316.899948" xlink:href="#HelveticaNeue-53"/>
      </g>
     </g>
    </g>
    <g id="xtick_4">
     <g id="line2d_7">
      <path clip-path="url(#pd121516220)" d="M 292.95268 515.4355 
L 292.95268 31.5955 
" style="fill:none;stroke:#cbcbcb;"/>
     </g>
     <g id="line2d_8"/>
     <g id="text_4">
      <!-- 2020-07 -->
      <g style="fill:#555555;" transform="translate(266.879867 528.932375)scale(0.14 -0.14)">
       <defs>
        <path d="M 50.90625 62.40625 
L 50.90625 69.703125 
L 5 69.703125 
L 5 61.703125 
L 42.203125 61.703125 
Q 36.59375 55.796875 31.75 48.796875 
Q 26.90625 41.796875 23.203125 33.9375 
Q 19.5 26.09375 17.140625 17.546875 
Q 14.796875 9 14.203125 0 
L 23.703125 0 
Q 24.203125 8.296875 26.5 17.09375 
Q 28.796875 25.90625 32.4375 34.203125 
Q 36.09375 42.5 40.796875 49.796875 
Q 45.5 57.09375 50.90625 62.40625 
z
" id="HelveticaNeue-55"/>
       </defs>
       <use xlink:href="#HelveticaNeue-50"/>
       <use x="55.599991" xlink:href="#HelveticaNeue-48"/>
       <use x="111.199982" xlink:href="#HelveticaNeue-50"/>
       <use x="166.799973" xlink:href="#HelveticaNeue-48"/>
       <use x="222.399963" xlink:href="#HelveticaNeue-45"/>
       <use x="261.299957" xlink:href="#HelveticaNeue-48"/>
       <use x="316.899948" xlink:href="#HelveticaNeue-55"/>
      </g>
     </g>
    </g>
    <g id="xtick_5">
     <g id="line2d_9">
      <path clip-path="url(#pd121516220)" d="M 363.706551 515.4355 
L 363.706551 31.5955 
" style="fill:none;stroke:#cbcbcb;"/>
     </g>
     <g id="line2d_10"/>
     <g id="text_5">
      <!-- 2020-09 -->
      <g style="fill:#555555;" transform="translate(337.633738 528.932375)scale(0.14 -0.14)">
       <defs>
        <path d="M 13.40625 17.09375 
L 4.90625 17.09375 
Q 5.703125 7.90625 11.59375 3.40625 
Q 17.5 -1.09375 26.40625 -1.09375 
Q 39.296875 -1.09375 45.140625 8.75 
Q 51 18.59375 51 37 
Q 51 47.09375 49.046875 53.640625 
Q 47.09375 60.203125 43.796875 64 
Q 40.5 67.796875 36.09375 69.34375 
Q 31.703125 70.90625 26.703125 70.90625 
Q 21.59375 70.90625 17.296875 69.203125 
Q 13 67.5 9.890625 64.453125 
Q 6.796875 61.40625 5.09375 57.15625 
Q 3.40625 52.90625 3.40625 47.796875 
Q 3.40625 42.59375 4.84375 38.1875 
Q 6.296875 33.796875 9.140625 30.6875 
Q 12 27.59375 16.203125 25.84375 
Q 20.40625 24.09375 25.796875 24.09375 
Q 31 24.09375 35.390625 26.75 
Q 39.796875 29.40625 42.203125 33.90625 
L 42.40625 33.703125 
Q 42 19.796875 38.09375 13.046875 
Q 34.203125 6.296875 26.40625 6.296875 
Q 21.296875 6.296875 17.59375 9.09375 
Q 13.90625 11.90625 13.40625 17.09375 
z
M 40.90625 47.203125 
Q 40.90625 44.09375 39.90625 41.25 
Q 38.90625 38.40625 37 36.25 
Q 35.09375 34.09375 32.390625 32.84375 
Q 29.703125 31.59375 26.40625 31.59375 
Q 23.296875 31.59375 20.75 32.84375 
Q 18.203125 34.09375 16.34375 36.1875 
Q 14.5 38.296875 13.453125 41 
Q 12.40625 43.703125 12.40625 46.59375 
Q 12.40625 49.90625 13.15625 52.90625 
Q 13.90625 55.90625 15.546875 58.25 
Q 17.203125 60.59375 19.84375 62 
Q 22.5 63.40625 26.296875 63.40625 
Q 29.90625 63.40625 32.59375 62.09375 
Q 35.296875 60.796875 37.140625 58.546875 
Q 39 56.296875 39.953125 53.390625 
Q 40.90625 50.5 40.90625 47.203125 
z
" id="HelveticaNeue-57"/>
       </defs>
       <use xlink:href="#HelveticaNeue-50"/>
       <use x="55.599991" xlink:href="#HelveticaNeue-48"/>
       <use x="111.199982" xlink:href="#HelveticaNeue-50"/>
       <use x="166.799973" xlink:href="#HelveticaNeue-48"/>
       <use x="222.399963" xlink:href="#HelveticaNeue-45"/>
       <use x="261.299957" xlink:href="#HelveticaNeue-48"/>
       <use x="316.899948" xlink:href="#HelveticaNeue-57"/>
      </g>
     </g>
    </g>
    <g id="xtick_6">
     <g id="line2d_11">
      <path clip-path="url(#pd121516220)" d="M 433.319231 515.4355 
L 433.319231 31.5955 
" style="fill:none;stroke:#cbcbcb;"/>
     </g>
     <g id="line2d_12"/>
     <g id="text_6">
      <!-- 2020-11 -->
      <g style="fill:#555555;" transform="translate(407.246418 528.932375)scale(0.14 -0.14)">
       <use xlink:href="#HelveticaNeue-50"/>
       <use x="55.599991" xlink:href="#HelveticaNeue-48"/>
       <use x="111.199982" xlink:href="#HelveticaNeue-50"/>
       <use x="166.799973" xlink:href="#HelveticaNeue-48"/>
       <use x="222.399963" xlink:href="#HelveticaNeue-45"/>
       <use x="261.299957" xlink:href="#HelveticaNeue-49"/>
       <use x="316.899948" xlink:href="#HelveticaNeue-49"/>
      </g>
     </g>
    </g>
    <g id="xtick_7">
     <g id="line2d_13">
      <path clip-path="url(#pd121516220)" d="M 502.931911 515.4355 
L 502.931911 31.5955 
" style="fill:none;stroke:#cbcbcb;"/>
     </g>
     <g id="line2d_14"/>
     <g id="text_7">
      <!-- 2021-01 -->
      <g style="fill:#555555;" transform="translate(476.859098 528.932375)scale(0.14 -0.14)">
       <use xlink:href="#HelveticaNeue-50"/>
       <use x="55.599991" xlink:href="#HelveticaNeue-48"/>
       <use x="111.199982" xlink:href="#HelveticaNeue-50"/>
       <use x="166.799973" xlink:href="#HelveticaNeue-49"/>
       <use x="222.399963" xlink:href="#HelveticaNeue-45"/>
       <use x="261.299957" xlink:href="#HelveticaNeue-48"/>
       <use x="316.899948" xlink:href="#HelveticaNeue-49"/>
      </g>
     </g>
    </g>
    <g id="xtick_8">
     <g id="line2d_15">
      <path clip-path="url(#pd121516220)" d="M 570.262208 515.4355 
L 570.262208 31.5955 
" style="fill:none;stroke:#cbcbcb;"/>
     </g>
     <g id="line2d_16"/>
     <g id="text_8">
      <!-- 2021-03 -->
      <g style="fill:#555555;" transform="translate(544.189395 528.932375)scale(0.14 -0.14)">
       <use xlink:href="#HelveticaNeue-50"/>
       <use x="55.599991" xlink:href="#HelveticaNeue-48"/>
       <use x="111.199982" xlink:href="#HelveticaNeue-50"/>
       <use x="166.799973" xlink:href="#HelveticaNeue-49"/>
       <use x="222.399963" xlink:href="#HelveticaNeue-45"/>
       <use x="261.299957" xlink:href="#HelveticaNeue-48"/>
       <use x="316.899948" xlink:href="#HelveticaNeue-51"/>
      </g>
     </g>
    </g>
    <g id="xtick_9">
     <g id="line2d_17">
      <path clip-path="url(#pd121516220)" d="M 639.874888 515.4355 
L 639.874888 31.5955 
" style="fill:none;stroke:#cbcbcb;"/>
     </g>
     <g id="line2d_18"/>
     <g id="text_9">
      <!-- 2021-05 -->
      <g style="fill:#555555;" transform="translate(613.802075 528.932375)scale(0.14 -0.14)">
       <use xlink:href="#HelveticaNeue-50"/>
       <use x="55.599991" xlink:href="#HelveticaNeue-48"/>
       <use x="111.199982" xlink:href="#HelveticaNeue-50"/>
       <use x="166.799973" xlink:href="#HelveticaNeue-49"/>
       <use x="222.399963" xlink:href="#HelveticaNeue-45"/>
       <use x="261.299957" xlink:href="#HelveticaNeue-48"/>
       <use x="316.899948" xlink:href="#HelveticaNeue-53"/>
      </g>
     </g>
    </g>
   </g>
   <g id="matplotlib.axis_2">
    <g id="ytick_1">
     <g id="line2d_19">
      <path clip-path="url(#pd121516220)" d="M 80.748125 497.215626 
L 707.148125 497.215626 
" style="fill:none;stroke:#cbcbcb;"/>
     </g>
     <g id="line2d_20"/>
     <g id="text_10">
      <!-- 1 -->
      <g style="fill:#555555;" transform="translate(69.465 502.214064)scale(0.14 -0.14)">
       <use xlink:href="#HelveticaNeue-49"/>
      </g>
     </g>
    </g>
    <g id="ytick_2">
     <g id="line2d_21">
      <path clip-path="url(#pd121516220)" d="M 80.748125 430.698466 
L 707.148125 430.698466 
" style="fill:none;stroke:#cbcbcb;"/>
     </g>
     <g id="line2d_22"/>
     <g id="text_11">
      <!-- 10 -->
      <g style="fill:#555555;" transform="translate(61.681875 435.696903)scale(0.14 -0.14)">
       <use xlink:href="#HelveticaNeue-49"/>
       <use x="55.599991" xlink:href="#HelveticaNeue-48"/>
      </g>
     </g>
    </g>
    <g id="ytick_3">
     <g id="line2d_23">
      <path clip-path="url(#pd121516220)" d="M 80.748125 364.181305 
L 707.148125 364.181305 
" style="fill:none;stroke:#cbcbcb;"/>
     </g>
     <g id="line2d_24"/>
     <g id="text_12">
      <!-- 100 -->
      <g style="fill:#555555;" transform="translate(53.89875 369.179742)scale(0.14 -0.14)">
       <use xlink:href="#HelveticaNeue-49"/>
       <use x="55.599991" xlink:href="#HelveticaNeue-48"/>
       <use x="111.199982" xlink:href="#HelveticaNeue-48"/>
      </g>
     </g>
    </g>
    <g id="ytick_4">
     <g id="line2d_25">
      <path clip-path="url(#pd121516220)" d="M 80.748125 297.664144 
L 707.148125 297.664144 
" style="fill:none;stroke:#cbcbcb;"/>
     </g>
     <g id="line2d_26"/>
     <g id="text_13">
      <!-- 1,000 -->
      <g style="fill:#555555;" transform="translate(42.224063 302.662581)scale(0.14 -0.14)">
       <defs>
        <path d="M 8.296875 11.09375 
L 8.296875 0 
L 14.203125 0 
Q 14.296875 -1.203125 14.046875 -2.59375 
Q 13.796875 -4 13.09375 -5.34375 
Q 12.40625 -6.703125 11.25 -7.84375 
Q 10.09375 -9 8.40625 -9.59375 
L 8.40625 -14.59375 
Q 14.203125 -12.90625 16.796875 -8.796875 
Q 19.40625 -4.703125 19.40625 1 
L 19.40625 11.09375 
z
" id="HelveticaNeue-44"/>
       </defs>
       <use xlink:href="#HelveticaNeue-49"/>
       <use x="55.599991" xlink:href="#HelveticaNeue-44"/>
       <use x="83.399979" xlink:href="#HelveticaNeue-48"/>
       <use x="138.999969" xlink:href="#HelveticaNeue-48"/>
       <use x="194.59996" xlink:href="#HelveticaNeue-48"/>
      </g>
     </g>
    </g>
    <g id="ytick_5">
     <g id="line2d_27">
      <path clip-path="url(#pd121516220)" d="M 80.748125 231.146983 
L 707.148125 231.146983 
" style="fill:none;stroke:#cbcbcb;"/>
     </g>
     <g id="line2d_28"/>
     <g id="text_14">
      <!-- 10,000 -->
      <g style="fill:#555555;" transform="translate(34.440938 236.14542)scale(0.14 -0.14)">
       <use xlink:href="#HelveticaNeue-49"/>
       <use x="55.599991" xlink:href="#HelveticaNeue-48"/>
       <use x="111.199982" xlink:href="#HelveticaNeue-44"/>
       <use x="138.999969" xlink:href="#HelveticaNeue-48"/>
       <use x="194.59996" xlink:href="#HelveticaNeue-48"/>
       <use x="250.199951" xlink:href="#HelveticaNeue-48"/>
      </g>
     </g>
    </g>
    <g id="ytick_6">
     <g id="line2d_29">
      <path clip-path="url(#pd121516220)" d="M 80.748125 164.629822 
L 707.148125 164.629822 
" style="fill:none;stroke:#cbcbcb;"/>
     </g>
     <g id="line2d_30"/>
     <g id="text_15">
      <!-- 100,000 -->
      <g style="fill:#555555;" transform="translate(26.657813 169.628259)scale(0.14 -0.14)">
       <use xlink:href="#HelveticaNeue-49"/>
       <use x="55.599991" xlink:href="#HelveticaNeue-48"/>
       <use x="111.199982" xlink:href="#HelveticaNeue-48"/>
       <use x="166.799973" xlink:href="#HelveticaNeue-44"/>
       <use x="194.59996" xlink:href="#HelveticaNeue-48"/>
       <use x="250.199951" xlink:href="#HelveticaNeue-48"/>
       <use x="305.799942" xlink:href="#HelveticaNeue-48"/>
      </g>
     </g>
    </g>
    <g id="ytick_7">
     <g id="line2d_31">
      <path clip-path="url(#pd121516220)" d="M 80.748125 98.112661 
L 707.148125 98.112661 
" style="fill:none;stroke:#cbcbcb;"/>
     </g>
     <g id="line2d_32"/>
     <g id="text_16">
      <!-- 1,000,000 -->
      <g style="fill:#555555;" transform="translate(14.983125 103.111098)scale(0.14 -0.14)">
       <use xlink:href="#HelveticaNeue-49"/>
       <use x="55.599991" xlink:href="#HelveticaNeue-44"/>
       <use x="83.399979" xlink:href="#HelveticaNeue-48"/>
       <use x="138.999969" xlink:href="#HelveticaNeue-48"/>
       <use x="194.59996" xlink:href="#HelveticaNeue-48"/>
       <use x="250.199951" xlink:href="#HelveticaNeue-44"/>
       <use x="277.999939" xlink:href="#HelveticaNeue-48"/>
       <use x="333.59993" xlink:href="#HelveticaNeue-48"/>
       <use x="389.199921" xlink:href="#HelveticaNeue-48"/>
      </g>
     </g>
    </g>
    <g id="ytick_8">
     <g id="line2d_33">
      <path clip-path="url(#pd121516220)" d="M 80.748125 31.5955 
L 707.148125 31.5955 
" style="fill:none;stroke:#cbcbcb;"/>
     </g>
     <g id="line2d_34"/>
     <g id="text_17">
      <!-- 10,000,000 -->
      <g style="fill:#555555;" transform="translate(7.2 36.593937)scale(0.14 -0.14)">
       <use xlink:href="#HelveticaNeue-49"/>
       <use x="55.599991" xlink:href="#HelveticaNeue-48"/>
       <use x="111.199982" xlink:href="#HelveticaNeue-44"/>
       <use x="138.999969" xlink:href="#HelveticaNeue-48"/>
       <use x="194.59996" xlink:href="#HelveticaNeue-48"/>
       <use x="250.199951" xlink:href="#HelveticaNeue-48"/>
       <use x="305.799942" xlink:href="#HelveticaNeue-44"/>
       <use x="333.59993" xlink:href="#HelveticaNeue-48"/>
       <use x="389.199921" xlink:href="#HelveticaNeue-48"/>
       <use x="444.799911" xlink:href="#HelveticaNeue-48"/>
      </g>
     </g>
    </g>
    <g id="ytick_9">
     <g id="line2d_35"/>
    </g>
    <g id="ytick_10">
     <g id="line2d_36"/>
    </g>
    <g id="ytick_11">
     <g id="line2d_37"/>
    </g>
    <g id="ytick_12">
     <g id="line2d_38"/>
    </g>
    <g id="ytick_13">
     <g id="line2d_39"/>
    </g>
    <g id="ytick_14">
     <g id="line2d_40"/>
    </g>
    <g id="ytick_15">
     <g id="line2d_41"/>
    </g>
    <g id="ytick_16">
     <g id="line2d_42"/>
    </g>
    <g id="ytick_17">
     <g id="line2d_43"/>
    </g>
    <g id="ytick_18">
     <g id="line2d_44"/>
    </g>
    <g id="ytick_19">
     <g id="line2d_45"/>
    </g>
    <g id="ytick_20">
     <g id="line2d_46"/>
    </g>
    <g id="ytick_21">
     <g id="line2d_47"/>
    </g>
    <g id="ytick_22">
     <g id="line2d_48"/>
    </g>
    <g id="ytick_23">
     <g id="line2d_49"/>
    </g>
    <g id="ytick_24">
     <g id="line2d_50"/>
    </g>
    <g id="ytick_25">
     <g id="line2d_51"/>
    </g>
    <g id="ytick_26">
     <g id="line2d_52"/>
    </g>
    <g id="ytick_27">
     <g id="line2d_53"/>
    </g>
    <g id="ytick_28">
     <g id="line2d_54"/>
    </g>
    <g id="ytick_29">
     <g id="line2d_55"/>
    </g>
    <g id="ytick_30">
     <g id="line2d_56"/>
    </g>
    <g id="ytick_31">
     <g id="line2d_57"/>
    </g>
    <g id="ytick_32">
     <g id="line2d_58"/>
    </g>
    <g id="ytick_33">
     <g id="line2d_59"/>
    </g>
    <g id="ytick_34">
     <g id="line2d_60"/>
    </g>
    <g id="ytick_35">
     <g id="line2d_61"/>
    </g>
    <g id="ytick_36">
     <g id="line2d_62"/>
    </g>
    <g id="ytick_37">
     <g id="line2d_63"/>
    </g>
    <g id="ytick_38">
     <g id="line2d_64"/>
    </g>
    <g id="ytick_39">
     <g id="line2d_65"/>
    </g>
    <g id="ytick_40">
     <g id="line2d_66"/>
    </g>
    <g id="ytick_41">
     <g id="line2d_67"/>
    </g>
    <g id="ytick_42">
     <g id="line2d_68"/>
    </g>
    <g id="ytick_43">
     <g id="line2d_69"/>
    </g>
    <g id="ytick_44">
     <g id="line2d_70"/>
    </g>
    <g id="ytick_45">
     <g id="line2d_71"/>
    </g>
    <g id="ytick_46">
     <g id="line2d_72"/>
    </g>
    <g id="ytick_47">
     <g id="line2d_73"/>
    </g>
    <g id="ytick_48">
     <g id="line2d_74"/>
    </g>
    <g id="ytick_49">
     <g id="line2d_75"/>
    </g>
    <g id="ytick_50">
     <g id="line2d_76"/>
    </g>
    <g id="ytick_51">
     <g id="line2d_77"/>
    </g>
    <g id="ytick_52">
     <g id="line2d_78"/>
    </g>
    <g id="ytick_53">
     <g id="line2d_79"/>
    </g>
    <g id="ytick_54">
     <g id="line2d_80"/>
    </g>
    <g id="ytick_55">
     <g id="line2d_81"/>
    </g>
    <g id="ytick_56">
     <g id="line2d_82"/>
    </g>
    <g id="ytick_57">
     <g id="line2d_83"/>
    </g>
    <g id="ytick_58">
     <g id="line2d_84"/>
    </g>
    <g id="ytick_59">
     <g id="line2d_85"/>
    </g>
    <g id="ytick_60">
     <g id="line2d_86"/>
    </g>
    <g id="ytick_61">
     <g id="line2d_87"/>
    </g>
    <g id="ytick_62">
     <g id="line2d_88"/>
    </g>
    <g id="ytick_63">
     <g id="line2d_89"/>
    </g>
    <g id="ytick_64">
     <g id="line2d_90"/>
    </g>
    <g id="ytick_65">
     <g id="line2d_91"/>
    </g>
    <g id="ytick_66">
     <g id="line2d_92"/>
    </g>
    <g id="ytick_67">
     <g id="line2d_93"/>
    </g>
    <g id="ytick_68">
     <g id="line2d_94"/>
    </g>
   </g>
   <g id="line2d_95">
    <path clip-path="url(#pd121516220)" d="M 111.502503 539.890812 
L 111.503235 497.215626 
L 112.644427 497.215626 
L 113.785618 477.191966 
L 113.786694 539.890812 
M 118.349652 539.890812 
L 118.350384 497.215626 
L 120.632767 497.215626 
L 121.773958 465.478875 
L 121.775235 539.890812 
M 125.196801 539.890812 
L 125.197533 497.215626 
L 125.198265 539.890812 
M 130.902758 539.890812 
L 130.90349 497.215626 
L 130.904222 539.890812 
M 133.185141 539.890812 
L 133.185873 497.215626 
L 134.327065 497.215626 
L 134.327797 539.890812 
M 138.889959 539.890812 
L 138.891831 430.698466 
L 138.893702 539.890812 
M 142.31433 539.890812 
L 142.315405 477.191966 
L 143.456596 465.478875 
L 143.457873 539.890812 
M 146.87817 539.890812 
L 146.880171 423.119277 
L 148.021362 477.191966 
L 149.162554 418.985375 
L 149.164626 539.890812 
M 151.443408 539.890812 
L 151.444937 450.722126 
L 152.586128 450.722126 
L 153.72732 413.718463 
L 154.868511 417.120984 
L 156.009703 409.265353 
L 157.150894 393.694803 
L 158.292086 375.750315 
L 159.433277 369.564 
L 160.574469 359.645775 
L 161.71566 359.156135 
L 162.856852 344.013564 
L 163.998043 335.488212 
L 165.139234 338.295082 
L 166.280426 323.775121 
L 167.421617 314.621045 
L 168.562809 309.061201 
L 169.704 307.885363 
L 170.845192 300.483987 
L 171.986383 287.964763 
L 173.127575 271.848754 
L 174.268766 257.307933 
L 175.409958 247.798953 
L 176.551149 243.520433 
L 177.692341 235.689302 
L 178.833532 229.925224 
L 179.974724 229.922455 
L 181.115915 220.147502 
L 182.257107 215.821574 
L 183.398298 215.26278 
L 184.53949 209.623221 
L 185.680681 213.344264 
L 186.821872 209.075803 
L 187.963064 205.253686 
L 191.386638 197.260183 
L 192.52783 194.875525 
L 193.669021 203.97397 
L 194.810213 198.541381 
L 195.951404 199.087532 
L 197.092596 197.708794 
L 198.233787 195.206633 
L 199.374979 196.245785 
L 200.51617 197.799723 
L 201.657362 202.301294 
L 202.798553 203.80194 
L 203.939745 202.786404 
L 205.080936 199.378472 
L 206.222128 197.897335 
L 207.363319 197.992527 
L 209.645702 204.293754 
L 210.786893 202.03433 
L 211.928085 204.089228 
L 213.069276 200.558421 
L 214.210468 195.985465 
L 215.351659 193.554745 
L 216.492851 195.449921 
L 217.634042 202.738821 
L 218.775234 206.839495 
L 219.916425 205.083261 
L 221.057617 202.933975 
L 222.198808 199.068493 
L 223.34 195.820015 
L 224.481191 199.921228 
L 225.622383 203.389 
L 226.763574 208.419939 
L 227.904766 206.208819 
L 229.045957 205.253686 
L 230.187149 200.914302 
L 231.32834 201.768766 
L 232.469531 204.830076 
L 233.610723 210.669037 
L 234.751914 214.781729 
L 235.893106 207.978732 
L 237.034297 209.515091 
L 238.175489 202.494576 
L 239.31668 203.282001 
L 240.457872 206.269805 
L 241.599063 212.583807 
L 242.740255 208.598061 
L 243.881446 209.745527 
L 245.022638 206.998087 
L 246.163829 203.842325 
L 247.305021 206.099367 
L 248.446212 208.020216 
L 249.587404 211.07858 
L 250.728595 212.453441 
L 253.010978 212.996959 
L 254.152169 207.705399 
L 255.293361 205.204218 
L 256.434552 206.591496 
L 257.575744 210.221786 
L 258.716935 208.505564 
L 259.858127 210.002815 
L 260.999318 211.142105 
L 262.14051 208.878678 
L 263.281701 200.680921 
L 264.422893 207.700266 
L 265.564084 213.194908 
L 266.705276 213.836664 
L 267.846467 212.903099 
L 268.987659 207.272363 
L 270.12885 206.833269 
L 271.270042 204.113015 
L 272.411233 204.293754 
L 273.552425 212.408103 
L 274.693616 210.954819 
L 275.834807 204.810335 
L 276.975999 203.930022 
L 279.258382 198.616231 
L 280.399573 197.52328 
L 281.540765 203.126075 
L 283.823148 194.907641 
L 284.964339 193.360407 
L 287.246722 187.360161 
L 289.529105 191.457188 
L 290.670297 191.465963 
L 291.811488 185.59958 
L 292.95268 184.66793 
L 294.093871 181.608033 
L 295.235063 180.79039 
L 296.376254 184.650016 
L 297.517445 187.847105 
L 298.658637 186.247365 
L 299.799828 182.385327 
L 300.94102 179.650169 
L 302.082211 179.440063 
L 303.223403 175.674579 
L 304.364594 179.041502 
L 305.505786 180.463207 
L 307.788169 176.807978 
L 308.92936 175.625928 
L 310.070552 172.676982 
L 311.211743 174.55504 
L 312.352935 178.229961 
L 313.494126 178.311488 
L 314.635318 179.440546 
L 315.776509 176.951448 
L 316.917701 175.041373 
L 318.058892 174.930984 
L 319.200083 173.514184 
L 320.341275 176.295575 
L 321.482466 182.314375 
L 322.623658 179.783608 
L 323.764849 177.923977 
L 324.906041 176.292979 
L 326.047232 175.370902 
L 327.188424 175.312304 
L 328.329615 180.955636 
L 329.470807 184.198345 
L 330.611998 186.144977 
L 331.75319 182.672511 
L 332.894381 182.578795 
L 335.176764 178.834816 
L 336.317956 181.774376 
L 337.459147 185.545304 
L 338.600339 186.334804 
L 339.74153 182.776275 
L 340.882721 182.281891 
L 342.023913 182.397615 
L 343.165104 179.639482 
L 344.306296 184.227365 
L 345.447487 189.596133 
L 346.588679 192.94634 
L 347.72987 188.854349 
L 348.871062 189.001727 
L 351.153445 185.220007 
L 352.294636 187.680455 
L 353.435828 197.246778 
L 354.577019 190.809356 
L 355.718211 191.695809 
L 356.859402 187.493079 
L 358.000594 187.308178 
L 359.141785 186.710175 
L 360.282977 187.948595 
L 361.424168 196.282919 
L 362.565359 193.756732 
L 363.706551 188.314185 
L 364.847742 197.147774 
L 365.988934 186.815835 
L 367.130125 183.462755 
L 368.271317 189.516032 
L 369.412508 199.411194 
L 370.5537 204.485961 
L 373.977274 192.535847 
L 375.118466 186.093919 
L 376.259657 191.754111 
L 377.400849 196.358197 
L 378.54204 193.440178 
L 379.683232 191.670753 
L 380.824423 191.633209 
L 381.965615 187.498817 
L 383.106806 185.303795 
L 384.247997 189.820499 
L 385.389189 193.859052 
L 386.53038 181.926432 
L 387.671572 193.048143 
L 388.812763 190.000699 
L 389.953955 187.567756 
L 391.095146 182.121075 
L 392.236338 189.21474 
L 393.377529 193.120083 
L 394.518721 193.072103 
L 395.659912 188.545959 
L 396.801104 189.650344 
L 397.942295 186.800895 
L 399.083487 182.655792 
L 400.224678 185.966062 
L 401.36587 194.905169 
L 402.507061 178.248007 
L 403.648253 189.103319 
L 404.789444 182.960944 
L 405.930635 181.182738 
L 407.071827 179.890707 
L 409.35421 187.836782 
L 410.495401 185.823122 
L 411.636593 182.220219 
L 413.918976 176.917834 
L 415.060167 174.743016 
L 416.201359 183.100771 
L 417.34255 185.903854 
L 418.483742 176.879403 
L 419.624933 179.101986 
L 420.766125 177.415401 
L 421.907316 172.891132 
L 423.048508 169.223912 
L 424.189699 171.593001 
L 425.330891 179.524116 
L 426.472082 173.082872 
L 427.613273 173.177474 
L 431.036848 164.667979 
L 432.178039 169.594419 
L 433.319231 173.252133 
L 434.460422 166.413286 
L 435.601614 166.908223 
L 436.742805 162.385178 
L 437.883997 159.043781 
L 439.025188 156.430033 
L 440.16638 157.969053 
L 441.307571 163.659487 
L 442.448763 156.952802 
L 443.589954 154.961432 
L 444.731146 154.320551 
L 445.872337 150.402501 
L 447.013529 147.410561 
L 448.15472 151.227462 
L 449.295911 155.920402 
L 450.437103 149.891567 
L 451.578294 150.758817 
L 452.719486 148.916149 
L 453.860677 146.469936 
L 455.001869 144.770713 
L 456.14306 148.974225 
L 457.284252 154.745605 
L 458.425443 147.711996 
L 459.566635 147.994999 
L 460.707826 147.555286 
L 461.849018 163.776207 
L 462.990209 143.77429 
L 464.131401 152.646834 
L 465.272592 155.720653 
L 466.413784 149.707098 
L 468.696167 144.437371 
L 469.837358 142.152988 
L 470.978549 140.397276 
L 472.119741 143.793102 
L 473.260932 148.975906 
L 474.402124 143.96395 
L 475.543315 141.890022 
L 476.684507 141.888838 
L 477.825698 141.177332 
L 478.96689 134.831304 
L 480.108081 143.537806 
L 481.249273 146.980373 
L 482.390464 144.477176 
L 483.531656 144.159129 
L 484.672847 138.764122 
L 485.814039 139.617307 
L 486.95523 138.022686 
L 488.096422 145.500218 
L 489.237613 147.663785 
L 490.378805 144.387729 
L 491.519996 144.374257 
L 492.661187 140.850929 
L 493.802379 145.556736 
L 494.94357 164.355536 
L 496.084762 142.267853 
L 497.225953 152.517003 
L 498.367145 146.238992 
L 499.508336 144.457913 
L 500.649528 140.699507 
L 501.790719 140.444261 
L 502.931911 153.450475 
L 504.073102 133.712188 
L 505.214294 144.349622 
L 506.355485 137.949292 
L 507.496677 139.948302 
L 509.77906 134.851391 
L 510.920251 132.818155 
L 513.202634 143.431516 
L 514.343825 141.03517 
L 515.485017 140.571602 
L 516.626208 140.65324 
L 517.7674 139.399375 
L 518.908591 139.357069 
L 521.190974 149.285045 
L 522.332166 154.676749 
L 523.473357 146.557115 
L 524.614549 146.782215 
L 525.75574 146.01458 
L 526.896932 145.850651 
L 528.038123 149.656992 
L 529.179315 157.122721 
L 530.320506 151.677255 
L 531.461698 152.795847 
L 532.602889 151.825788 
L 533.744081 149.957897 
L 534.885272 150.230892 
L 536.026463 156.21832 
L 537.167655 160.895144 
L 538.308846 154.529547 
L 539.450038 160.533151 
L 541.732421 158.037723 
L 542.873612 157.161509 
L 544.014804 163.234129 
L 545.155995 168.559344 
L 546.297187 166.730596 
L 547.438378 165.695566 
L 548.57957 166.119796 
L 549.720761 163.046192 
L 550.861953 164.737196 
L 552.003144 169.4408 
L 553.144336 177.6212 
L 554.285527 181.757124 
L 555.426719 177.281698 
L 556.56791 174.867094 
L 557.709101 174.203234 
L 558.850293 171.802939 
L 559.991484 175.04883 
L 561.132676 181.80577 
L 562.273867 179.644339 
L 563.415059 174.156193 
L 564.55625 173.252912 
L 565.697442 171.851118 
L 566.838633 171.689848 
L 569.121016 184.134717 
L 570.262208 181.022815 
L 571.403399 180.543779 
L 572.544591 176.366177 
L 573.685782 176.07707 
L 574.826974 176.765735 
L 575.968165 181.078917 
L 577.109357 191.052756 
L 578.250548 166.260054 
L 579.39174 181.43799 
L 580.532931 180.268959 
L 581.674122 178.260043 
L 582.815314 177.446448 
L 585.097697 192.589788 
L 586.238888 180.785336 
L 587.38008 182.147551 
L 588.521271 179.905409 
L 589.662463 179.163074 
L 590.803654 179.088163 
L 591.944846 182.20376 
L 593.086037 195.630996 
L 594.227229 182.049712 
L 595.36842 180.996841 
L 596.509612 171.111049 
L 597.650803 175.303106 
L 598.791995 173.133236 
L 599.933186 179.051019 
L 601.074378 188.01018 
L 602.215569 174.630084 
L 603.35676 178.331442 
L 604.497952 175.797205 
L 605.639143 172.107819 
L 606.780335 175.52171 
L 607.921526 177.460858 
L 609.062718 193.490343 
L 610.203909 172.332858 
L 611.345101 178.452386 
L 612.486292 173.683628 
L 613.627484 170.913961 
L 614.768675 170.509961 
L 615.909867 177.182047 
L 617.051058 185.846595 
L 618.19225 174.146955 
L 619.333441 172.062199 
L 620.474633 172.651802 
L 621.615824 173.44786 
L 622.757016 171.676572 
L 623.898207 182.497713 
L 625.039398 190.105174 
L 626.18059 174.825538 
L 627.321781 177.788815 
L 628.462973 179.336061 
L 629.604164 176.527518 
L 630.745356 177.619842 
L 631.886547 184.384348 
L 633.027739 196.144127 
L 634.16893 186.235768 
L 635.310122 183.589999 
L 637.592505 180.574867 
L 638.733696 180.109559 
L 639.874888 187.852268 
L 641.016079 199.765808 
L 642.157271 184.686434 
L 643.298462 190.418064 
L 644.439654 187.878096 
L 645.580845 186.018712 
L 646.722036 186.140111 
L 647.863228 196.0797 
L 649.004419 207.942483 
L 650.145611 193.69978 
L 651.286802 195.758851 
L 652.427994 194.560378 
L 653.569185 192.254114 
L 654.710377 190.406781 
L 655.851568 200.339817 
L 656.99276 216.315222 
L 658.133951 200.184112 
L 659.275143 201.544992 
L 660.416334 200.583481 
L 661.557526 199.785312 
L 662.698717 200.37763 
L 663.839909 213.664235 
L 664.9811 221.117051 
L 666.122292 203.96044 
L 667.263483 207.316642 
L 668.404674 206.584089 
L 669.545866 201.669675 
L 670.687057 208.774625 
L 671.828249 227.031767 
L 672.96944 239.67794 
L 674.110632 248.119475 
L 675.251823 207.666927 
L 676.393015 216.031372 
L 677.534206 211.859148 
L 678.675398 216.661316 
L 678.675398 216.661316 
" style="fill:none;stroke:#008fd5;stroke-width:4;"/>
   </g>
   <g id="line2d_96">
    <path clip-path="url(#pd121516220)" d="M 153.726244 539.890812 
L 153.72732 477.191966 
L 153.728395 539.890812 
M 156.008971 539.890812 
L 156.009703 497.215626 
L 156.010435 539.890812 
M 158.291353 539.890812 
L 158.292086 497.215626 
L 159.433277 465.478875 
L 160.574469 450.722126 
L 161.71566 497.215626 
L 162.856852 497.215626 
L 163.998043 433.742124 
L 165.139234 465.478875 
L 166.280426 410.674805 
L 167.421617 405.407893 
L 167.423921 539.890812 
M 169.701457 539.890812 
L 169.704 391.382526 
L 170.845192 397.097323 
L 171.986383 374.900606 
L 173.127575 359.893742 
L 174.268766 361.958051 
L 175.409958 356.602116 
L 176.551149 344.157644 
L 177.692341 339.376257 
L 178.833532 341.142888 
L 179.974724 338.295082 
L 181.115915 317.45762 
L 182.257107 317.286177 
L 183.398298 307.153981 
L 184.53949 302.700871 
L 185.680681 300.547757 
L 186.821872 305.897781 
L 187.963064 296.337347 
L 189.104255 296.894511 
L 190.245447 291.660434 
L 191.386638 290.98778 
L 192.52783 290.600627 
L 193.669021 303.930334 
L 194.810213 290.555418 
L 195.951404 294.441932 
L 197.092596 299.115514 
L 198.233787 294.159092 
L 199.374979 293.853665 
L 200.51617 297.148783 
L 201.657362 301.455649 
L 202.798553 293.476367 
L 203.939745 311.99079 
L 205.080936 300.515854 
L 206.222128 303.894471 
L 207.363319 287.677113 
L 208.50451 306.401543 
L 209.645702 303.326629 
L 210.786893 306.206747 
L 211.928085 303.715818 
L 213.069276 321.380659 
L 214.210468 289.23106 
L 215.351659 301.193327 
L 216.492851 331.872494 
L 217.634042 308.425342 
L 218.775234 311.943394 
L 219.916425 307.639506 
L 221.057617 328.240122 
L 222.198808 317.803588 
L 223.34 296.614586 
L 224.481191 306.55833 
L 225.622383 311.707572 
L 226.763574 303.432252 
L 227.904766 315.357756 
L 229.045957 314.259617 
L 230.187149 303.186395 
L 231.32834 326.308169 
L 232.469531 304.038193 
L 233.610723 312.662635 
L 234.751914 325.163182 
L 235.893106 299.420887 
L 237.034297 318.927318 
L 238.175489 303.822877 
L 239.31668 299.82276 
L 240.457872 309.104093 
L 241.599063 304.953026 
L 242.740255 302.223372 
L 243.881446 317.572483 
L 245.022638 316.168512 
L 246.163829 292.301099 
L 247.305021 304.990229 
L 248.446212 308.975607 
L 249.587404 306.362478 
L 250.728595 301.389845 
L 251.869787 317.172444 
L 253.010978 325.691867 
L 254.152169 310.064207 
L 255.293361 292.109786 
L 256.434552 299.853906 
L 257.575744 306.401543 
L 258.716935 309.362794 
L 259.858127 311.613779 
L 260.999318 289.709637 
L 262.14051 287.554706 
L 263.281701 289.974061 
L 264.422893 290.759415 
L 265.564084 292.882757 
L 266.705276 298.663423 
L 267.846467 295.016059 
L 270.12885 282.369342 
L 271.270042 279.091853 
L 272.411233 270.273175 
L 273.552425 277.410298 
L 274.693616 281.366184 
L 275.834807 268.096387 
L 276.975999 269.9504 
L 278.11719 263.999878 
L 279.258382 258.931821 
L 280.399573 257.265094 
L 281.540765 261.523847 
L 282.681956 266.6489 
L 283.823148 263.296885 
L 284.964339 248.359601 
L 286.105531 251.147542 
L 287.246722 234.377411 
L 288.387914 232.371423 
L 289.529105 235.740057 
L 290.670297 249.673286 
L 291.811488 245.459402 
L 292.95268 243.312812 
L 294.093871 230.833807 
L 295.235063 232.665259 
L 296.376254 227.215232 
L 297.517445 230.977044 
L 298.658637 244.329675 
L 299.799828 240.052963 
L 300.94102 231.178777 
L 302.082211 234.400034 
L 303.223403 227.278331 
L 304.364594 230.125295 
L 305.505786 218.861833 
L 306.646977 224.415647 
L 307.788169 233.57456 
L 308.92936 230.628785 
L 310.070552 221.499271 
L 311.211743 227.195069 
L 312.352935 230.214663 
L 313.494126 224.751692 
L 314.635318 230.161568 
L 315.776509 232.811775 
L 316.917701 231.77485 
L 318.058892 230.43648 
L 319.200083 224.830513 
L 320.341275 225.40494 
L 321.482466 233.107055 
L 322.623658 234.539394 
L 323.764849 233.461667 
L 324.906041 232.793419 
L 326.047232 231.274371 
L 327.188424 234.168181 
L 328.329615 232.200141 
L 329.470807 241.024585 
L 330.611998 252.640245 
L 331.75319 248.702349 
L 332.894381 248.899283 
L 334.035573 238.885494 
L 335.176764 238.749869 
L 336.317956 235.835039 
L 337.459147 244.821692 
L 338.600339 256.518555 
L 340.882721 237.202219 
L 342.023913 244.789246 
L 343.165104 245.199807 
L 344.306296 244.256817 
L 345.447487 259.258672 
L 346.588679 269.207399 
L 347.72987 258.811139 
L 348.871062 256.798006 
L 350.012253 253.863366 
L 351.153445 253.056612 
L 352.294636 255.453815 
L 353.435828 266.178847 
L 354.577019 274.135432 
L 355.718211 269.261385 
L 356.859402 263.883013 
L 358.000594 263.446724 
L 359.141785 258.984778 
L 360.282977 264.090097 
L 361.424168 270.250798 
L 362.565359 279.351214 
L 363.706551 239.192998 
L 364.847742 272.349508 
L 365.988934 260.894132 
L 367.130125 264.081062 
L 368.271317 260.214571 
L 370.5537 280.080631 
L 371.694891 280.317355 
L 372.836083 276.842735 
L 373.977274 270.250798 
L 375.118466 260.262019 
L 376.259657 264.153418 
L 377.400849 272.098046 
L 378.54204 281.729976 
L 379.683232 264.831443 
L 380.824423 272.920364 
L 381.965615 263.570707 
L 383.106806 264.026914 
L 384.247997 260.877958 
L 385.389189 270.952658 
L 386.53038 282.591361 
L 387.671572 271.543057 
L 388.812763 270.172617 
L 389.953955 270.724383 
L 391.095146 267.439579 
L 392.236338 267.972093 
L 393.377529 279.397226 
L 394.518721 306.44066 
L 395.659912 263.473247 
L 396.801104 278.401509 
L 397.942295 269.751856 
L 399.083487 269.402223 
L 400.224678 268.054896 
L 401.36587 279.612925 
L 402.507061 287.636253 
L 403.648253 274.225126 
L 404.789444 270.261984 
L 405.930635 263.121592 
L 407.071827 266.82716 
L 407.076496 539.890812 
M 409.349222 539.890812 
L 409.35421 248.051974 
L 410.495401 285.322406 
L 411.636593 268.7048 
L 412.777784 267.076584 
L 413.918976 262.68796 
L 415.060167 261.898319 
L 416.201359 257.300789 
L 417.34255 270.74713 
L 418.483742 282.216629 
L 419.624933 260.1672 
L 420.766125 275.632012 
L 421.907316 248.114277 
L 423.048508 259.954989 
L 424.189699 254.401072 
L 425.330891 272.554688 
L 426.472082 262.507758 
L 427.613273 255.54106 
L 428.754465 256.798006 
L 429.895656 256.22113 
L 431.036848 247.938098 
L 432.178039 273.216275 
L 433.319231 251.961344 
L 434.460422 253.260856 
L 435.601614 253.347944 
L 436.742805 254.712886 
L 437.883997 244.692128 
L 440.16638 254.524096 
L 441.307571 242.203174 
L 442.448763 258.170976 
L 443.589954 255.173735 
L 444.731146 246.694432 
L 445.872337 247.860713 
L 447.013529 241.728453 
L 448.15472 253.933213 
L 449.295911 230.84524 
L 450.437103 253.186419 
L 451.578294 239.615907 
L 452.719486 237.865265 
L 453.860677 233.91909 
L 455.001869 233.91909 
L 456.14306 236.152775 
L 457.284252 243.207365 
L 458.425443 244.352481 
L 459.566635 235.655515 
L 460.707826 236.266365 
L 460.713015 539.890812 
M 462.984663 539.890812 
L 462.990209 215.239453 
L 464.131401 244.599937 
L 465.272592 239.99012 
L 466.413784 242.893314 
L 467.554975 234.68596 
L 468.696167 231.164321 
L 469.837358 228.737096 
L 470.978549 230.640137 
L 472.119741 229.927993 
L 473.260932 236.060168 
L 474.402124 238.656058 
L 475.543315 237.647378 
L 477.825698 227.527017 
L 478.96689 226.613922 
L 480.108081 229.526458 
L 481.249273 234.325767 
L 482.390464 236.00543 
L 483.531656 232.900656 
L 484.672847 227.006726 
L 485.814039 223.240773 
L 486.95523 223.567794 
L 488.096422 226.65593 
L 489.237613 236.180271 
L 490.378805 228.354293 
L 491.519996 229.919686 
L 492.661187 227.402407 
L 493.802379 223.24297 
L 493.807789 539.890812 
M 496.079224 539.890812 
L 496.084762 215.746892 
L 497.225953 239.880473 
L 498.367145 236.886887 
L 499.508336 225.700083 
L 500.649528 221.694377 
L 501.790719 215.493739 
L 501.796261 539.890812 
M 504.067263 539.890812 
L 504.073102 197.984277 
L 505.214294 229.455534 
L 506.355485 227.729059 
L 507.496677 218.615544 
L 508.637868 214.517358 
L 509.77906 211.390322 
L 510.920251 211.810295 
L 513.202634 225.136234 
L 514.343825 226.919251 
L 515.485017 219.63488 
L 516.626208 221.447602 
L 517.7674 222.010577 
L 518.908591 216.031372 
L 520.049783 225.595009 
L 521.190974 228.15045 
L 522.332166 237.585941 
L 524.614549 226.087847 
L 525.75574 223.851396 
L 526.896932 222.012683 
L 528.038123 225.140927 
L 529.179315 232.522511 
L 530.320506 235.103657 
L 531.461698 232.344311 
L 532.602889 236.15621 
L 533.744081 227.303609 
L 534.885272 228.456756 
L 536.026463 219.397324 
L 537.167655 238.369021 
L 538.308846 247.233851 
L 539.450038 229.646882 
L 540.591229 241.537416 
L 541.732421 238.656058 
L 542.873612 227.00172 
L 544.014804 239.511528 
L 545.155995 243.045551 
L 546.297187 247.198581 
L 547.438378 241.355859 
L 548.57957 239.315389 
L 549.720761 235.756995 
L 550.861953 239.010378 
L 552.003144 239.399834 
L 553.144336 248.755442 
L 554.285527 260.540364 
L 555.426719 244.508039 
L 556.56791 240.072629 
L 557.709101 250.502451 
L 558.850293 242.789384 
L 559.991484 240.317612 
L 561.132676 250.797519 
L 562.273867 256.546379 
L 563.415059 247.845261 
L 564.55625 240.927155 
L 565.697442 242.975857 
L 566.838633 246.281739 
L 567.979825 248.633473 
L 569.121016 248.2132 
L 570.262208 282.335336 
L 571.403399 240.7212 
L 572.544591 245.836405 
L 573.685782 245.341115 
L 574.826974 246.02435 
L 575.968165 253.019632 
L 577.109357 256.917596 
L 578.250548 263.069212 
L 579.39174 254.693299 
L 580.532931 252.032687 
L 581.674122 250.797519 
L 582.815314 249.959963 
L 583.956505 249.794225 
L 585.097697 259.876787 
L 586.238888 267.653453 
L 587.38008 252.404127 
L 588.521271 253.585655 
L 589.662463 250.638262 
L 590.803654 250.372895 
L 591.944846 250.570277 
L 593.086037 257.710861 
L 594.227229 267.287776 
L 595.36842 249.47647 
L 596.509612 250.35604 
L 597.650803 247.017874 
L 598.791995 247.133195 
L 599.933186 246.472613 
L 601.074378 251.501859 
L 602.215569 262.533433 
L 603.35676 250.814634 
L 604.497952 249.520091 
L 605.639143 242.330528 
L 606.780335 243.635932 
L 607.921526 245.821998 
L 609.062718 252.386043 
L 610.203909 261.63983 
L 611.345101 248.124674 
L 612.486292 246.462794 
L 613.627484 237.814277 
L 614.768675 240.955538 
L 615.909867 241.841175 
L 617.051058 248.312463 
L 618.19225 283.852895 
L 619.333441 233.973196 
L 620.474633 242.407211 
L 621.615824 242.4499 
L 622.757016 240.254191 
L 623.898207 244.389008 
L 625.039398 242.143934 
L 626.18059 255.953995 
L 627.321781 247.665592 
L 628.462973 248.046788 
L 629.604164 242.785062 
L 630.745356 248.607026 
L 631.886547 239.802408 
L 633.027739 253.1369 
L 634.16893 261.367182 
L 635.310122 249.64587 
L 636.451313 250.160112 
L 637.592505 247.558325 
L 638.733696 249.454684 
L 639.874888 248.845925 
L 641.016079 258.788568 
L 642.157271 265.214071 
L 644.439654 254.902918 
L 645.580845 254.188635 
L 646.722036 256.449113 
L 647.863228 257.783408 
L 649.004419 263.784495 
L 650.145611 273.653319 
L 651.286802 263.499794 
L 652.427994 264.207804 
L 653.569185 257.158272 
L 654.710377 260.740837 
L 655.851568 263.00822 
L 656.99276 271.40305 
L 658.133951 277.989236 
L 659.275143 267.868921 
L 660.416334 267.807195 
L 661.557526 266.976556 
L 662.698717 272.724761 
L 663.839909 262.260741 
L 664.9811 276.660652 
L 666.122292 283.978534 
L 667.263483 279.520285 
L 668.404674 273.26589 
L 669.545866 273.129654 
L 670.687057 273.129654 
L 670.691619 539.890812 
M 675.246804 539.890812 
L 675.251823 246.20866 
L 676.393015 291.590119 
L 677.534206 279.45869 
L 677.53866 539.890812 
L 677.53866 539.890812 
" style="fill:none;stroke:#fc4f30;stroke-width:4;"/>
   </g>
   <g id="patch_3">
    <path d="M 80.748125 515.4355 
L 80.748125 31.5955 
" style="fill:none;stroke:#f0f0f0;stroke-linecap:square;stroke-linejoin:miter;stroke-width:3;"/>
   </g>
   <g id="patch_4">
    <path d="M 80.748125 515.4355 
L 707.148125 515.4355 
" style="fill:none;stroke:#f0f0f0;stroke-linecap:square;stroke-linejoin:miter;stroke-width:3;"/>
   </g>
   <g id="text_18">
    <!-- New Cases of COVID-19 -->
    <g style="fill:#555555;" transform="translate(282.321575 21.5955)scale(0.2016 -0.2016)">
     <defs>
      <path d="M 7.703125 71.40625 
L 7.703125 0 
L 16.703125 0 
L 16.703125 57.296875 
L 16.90625 57.296875 
L 54.203125 0 
L 64.59375 0 
L 64.59375 71.40625 
L 55.59375 71.40625 
L 55.59375 13.5 
L 55.40625 13.5 
L 17.796875 71.40625 
z
" id="HelveticaNeue-78"/>
      <path d="M 42.296875 30.796875 
L 12.59375 30.796875 
Q 12.796875 33.796875 13.890625 36.4375 
Q 15 39.09375 16.890625 41.09375 
Q 18.796875 43.09375 21.4375 44.25 
Q 24.09375 45.40625 27.40625 45.40625 
Q 30.59375 45.40625 33.25 44.25 
Q 35.90625 43.09375 37.84375 41.140625 
Q 39.796875 39.203125 40.9375 36.5 
Q 42.09375 33.796875 42.296875 30.796875 
z
M 50.5 16.40625 
L 42.09375 16.40625 
Q 41 11.296875 37.546875 8.796875 
Q 34.09375 6.296875 28.703125 6.296875 
Q 24.5 6.296875 21.390625 7.6875 
Q 18.296875 9.09375 16.296875 11.4375 
Q 14.296875 13.796875 13.390625 16.84375 
Q 12.5 19.90625 12.59375 23.296875 
L 51.296875 23.296875 
Q 51.5 28 50.453125 33.203125 
Q 49.40625 38.40625 46.65625 42.796875 
Q 43.90625 47.203125 39.34375 50.046875 
Q 34.796875 52.90625 27.90625 52.90625 
Q 22.59375 52.90625 18.140625 50.90625 
Q 13.703125 48.90625 10.453125 45.296875 
Q 7.203125 41.703125 5.390625 36.796875 
Q 3.59375 31.90625 3.59375 26 
Q 3.796875 20.09375 5.34375 15.09375 
Q 6.90625 10.09375 10 6.5 
Q 13.09375 2.90625 17.640625 0.90625 
Q 22.203125 -1.09375 28.40625 -1.09375 
Q 37.203125 -1.09375 43 3.296875 
Q 48.796875 7.703125 50.5 16.40625 
z
" id="HelveticaNeue-101"/>
      <path d="M 57.59375 0 
L 74.09375 51.703125 
L 65.296875 51.703125 
L 53.703125 9.40625 
L 53.5 9.40625 
L 42.703125 51.703125 
L 33.40625 51.703125 
L 23 9.40625 
L 22.796875 9.40625 
L 11.09375 51.703125 
L 1.703125 51.703125 
L 18.296875 0 
L 27.5 0 
L 37.90625 41.09375 
L 38.09375 41.09375 
L 48.59375 0 
z
" id="HelveticaNeue-119"/>
      <path id="HelveticaNeue-32"/>
      <path d="M 58 49.90625 
L 67.5 49.90625 
Q 66.703125 55.59375 64.09375 59.9375 
Q 61.5 64.296875 57.59375 67.1875 
Q 53.703125 70.09375 48.703125 71.59375 
Q 43.703125 73.09375 38.09375 73.09375 
Q 29.90625 73.09375 23.546875 70.140625 
Q 17.203125 67.203125 12.953125 62.09375 
Q 8.703125 57 6.5 50.140625 
Q 4.296875 43.296875 4.296875 35.5 
Q 4.296875 27.703125 6.34375 20.890625 
Q 8.40625 14.09375 12.5 9.09375 
Q 16.59375 4.09375 22.796875 1.25 
Q 29 -1.59375 37.296875 -1.59375 
Q 51 -1.59375 58.890625 5.90625 
Q 66.796875 13.40625 68.203125 26.90625 
L 58.703125 26.90625 
Q 58.40625 22.5 56.90625 18.703125 
Q 55.40625 14.90625 52.75 12.15625 
Q 50.09375 9.40625 46.4375 7.84375 
Q 42.796875 6.296875 38.09375 6.296875 
Q 31.703125 6.296875 27.09375 8.6875 
Q 22.5 11.09375 19.546875 15.140625 
Q 16.59375 19.203125 15.1875 24.640625 
Q 13.796875 30.09375 13.796875 36.203125 
Q 13.796875 41.796875 15.1875 47 
Q 16.59375 52.203125 19.546875 56.25 
Q 22.5 60.296875 27.046875 62.6875 
Q 31.59375 65.09375 38 65.09375 
Q 45.5 65.09375 50.953125 61.296875 
Q 56.40625 57.5 58 49.90625 
z
" id="HelveticaNeue-67"/>
      <path d="M 52.203125 0.203125 
Q 50 -1.09375 46.09375 -1.09375 
Q 42.796875 -1.09375 40.84375 0.75 
Q 38.90625 2.59375 38.90625 6.796875 
Q 35.40625 2.59375 30.75 0.75 
Q 26.09375 -1.09375 20.703125 -1.09375 
Q 17.203125 -1.09375 14.046875 -0.296875 
Q 10.90625 0.5 8.59375 2.203125 
Q 6.296875 3.90625 4.9375 6.65625 
Q 3.59375 9.40625 3.59375 13.296875 
Q 3.59375 17.703125 5.09375 20.5 
Q 6.59375 23.296875 9.046875 25.046875 
Q 11.5 26.796875 14.640625 27.6875 
Q 17.796875 28.59375 21.09375 29.203125 
Q 24.59375 29.90625 27.75 30.25 
Q 30.90625 30.59375 33.296875 31.25 
Q 35.703125 31.90625 37.09375 33.15625 
Q 38.5 34.40625 38.5 36.796875 
Q 38.5 39.59375 37.453125 41.296875 
Q 36.40625 43 34.75 43.890625 
Q 33.09375 44.796875 31.046875 45.09375 
Q 29 45.40625 27 45.40625 
Q 21.59375 45.40625 18 43.34375 
Q 14.40625 41.296875 14.09375 35.59375 
L 5.59375 35.59375 
Q 5.796875 40.40625 7.59375 43.703125 
Q 9.40625 47 12.40625 49.046875 
Q 15.40625 51.09375 19.25 52 
Q 23.09375 52.90625 27.5 52.90625 
Q 31 52.90625 34.453125 52.40625 
Q 37.90625 51.90625 40.703125 50.34375 
Q 43.5 48.796875 45.203125 46 
Q 46.90625 43.203125 46.90625 38.703125 
L 46.90625 12.09375 
Q 46.90625 9.09375 47.25 7.6875 
Q 47.59375 6.296875 49.59375 6.296875 
Q 50.703125 6.296875 52.203125 6.796875 
z
M 38.40625 26.703125 
Q 36.796875 25.5 34.1875 24.953125 
Q 31.59375 24.40625 28.75 24.046875 
Q 25.90625 23.703125 23 23.25 
Q 20.09375 22.796875 17.796875 21.796875 
Q 15.5 20.796875 14.046875 18.9375 
Q 12.59375 17.09375 12.59375 13.90625 
Q 12.59375 11.796875 13.4375 10.34375 
Q 14.296875 8.90625 15.640625 8 
Q 17 7.09375 18.796875 6.6875 
Q 20.59375 6.296875 22.59375 6.296875 
Q 26.796875 6.296875 29.796875 7.4375 
Q 32.796875 8.59375 34.6875 10.34375 
Q 36.59375 12.09375 37.5 14.140625 
Q 38.40625 16.203125 38.40625 18 
z
" id="HelveticaNeue-97"/>
      <path d="M 11.59375 16.296875 
L 3.09375 16.296875 
Q 3.296875 11.5 5.09375 8.140625 
Q 6.90625 4.796875 9.90625 2.75 
Q 12.90625 0.703125 16.796875 -0.1875 
Q 20.703125 -1.09375 25 -1.09375 
Q 28.90625 -1.09375 32.84375 -0.34375 
Q 36.796875 0.40625 39.9375 2.296875 
Q 43.09375 4.203125 45.046875 7.296875 
Q 47 10.40625 47 15.09375 
Q 47 18.796875 45.546875 21.296875 
Q 44.09375 23.796875 41.75 25.4375 
Q 39.40625 27.09375 36.34375 28.09375 
Q 33.296875 29.09375 30.09375 29.796875 
Q 27.09375 30.5 24.09375 31.140625 
Q 21.09375 31.796875 18.6875 32.75 
Q 16.296875 33.703125 14.75 35.140625 
Q 13.203125 36.59375 13.203125 38.796875 
Q 13.203125 40.796875 14.203125 42.046875 
Q 15.203125 43.296875 16.796875 44.046875 
Q 18.40625 44.796875 20.34375 45.09375 
Q 22.296875 45.40625 24.203125 45.40625 
Q 26.296875 45.40625 28.34375 44.953125 
Q 30.40625 44.5 32.09375 43.5 
Q 33.796875 42.5 34.890625 40.84375 
Q 36 39.203125 36.203125 36.703125 
L 44.703125 36.703125 
Q 44.40625 41.40625 42.703125 44.546875 
Q 41 47.703125 38.140625 49.546875 
Q 35.296875 51.40625 31.59375 52.15625 
Q 27.90625 52.90625 23.5 52.90625 
Q 20.09375 52.90625 16.640625 52.046875 
Q 13.203125 51.203125 10.453125 49.453125 
Q 7.703125 47.703125 5.953125 44.890625 
Q 4.203125 42.09375 4.203125 38.203125 
Q 4.203125 33.203125 6.703125 30.390625 
Q 9.203125 27.59375 12.953125 26.046875 
Q 16.703125 24.5 21.09375 23.640625 
Q 25.5 22.796875 29.25 21.75 
Q 33 20.703125 35.5 19 
Q 38 17.296875 38 14 
Q 38 11.59375 36.796875 10.046875 
Q 35.59375 8.5 33.75 7.703125 
Q 31.90625 6.90625 29.703125 6.59375 
Q 27.5 6.296875 25.5 6.296875 
Q 22.90625 6.296875 20.453125 6.796875 
Q 18 7.296875 16.046875 8.4375 
Q 14.09375 9.59375 12.890625 11.546875 
Q 11.703125 13.5 11.59375 16.296875 
z
" id="HelveticaNeue-115"/>
      <path d="M 12.59375 25.796875 
Q 12.59375 30.5 13.84375 34.140625 
Q 15.09375 37.796875 17.296875 40.296875 
Q 19.5 42.796875 22.453125 44.09375 
Q 25.40625 45.40625 28.703125 45.40625 
Q 32 45.40625 34.953125 44.09375 
Q 37.90625 42.796875 40.09375 40.296875 
Q 42.296875 37.796875 43.546875 34.140625 
Q 44.796875 30.5 44.796875 25.796875 
Q 44.796875 21.09375 43.546875 17.4375 
Q 42.296875 13.796875 40.09375 11.34375 
Q 37.90625 8.90625 34.953125 7.59375 
Q 32 6.296875 28.703125 6.296875 
Q 25.40625 6.296875 22.453125 7.59375 
Q 19.5 8.90625 17.296875 11.34375 
Q 15.09375 13.796875 13.84375 17.4375 
Q 12.59375 21.09375 12.59375 25.796875 
z
M 3.59375 25.796875 
Q 3.59375 20.09375 5.1875 15.1875 
Q 6.796875 10.296875 10 6.640625 
Q 13.203125 3 17.890625 0.953125 
Q 22.59375 -1.09375 28.703125 -1.09375 
Q 34.90625 -1.09375 39.546875 0.953125 
Q 44.203125 3 47.390625 6.640625 
Q 50.59375 10.296875 52.1875 15.1875 
Q 53.796875 20.09375 53.796875 25.796875 
Q 53.796875 31.5 52.1875 36.453125 
Q 50.59375 41.40625 47.390625 45.046875 
Q 44.203125 48.703125 39.546875 50.796875 
Q 34.90625 52.90625 28.703125 52.90625 
Q 22.59375 52.90625 17.890625 50.796875 
Q 13.203125 48.703125 10 45.046875 
Q 6.796875 41.40625 5.1875 36.453125 
Q 3.59375 31.5 3.59375 25.796875 
z
" id="HelveticaNeue-111"/>
      <path d="M 9.90625 44.203125 
L 9.90625 0 
L 18.40625 0 
L 18.40625 44.203125 
L 28.40625 44.203125 
L 28.40625 51.703125 
L 18.40625 51.703125 
L 18.40625 58.90625 
Q 18.40625 62.296875 20.09375 63.5 
Q 21.796875 64.703125 24.90625 64.703125 
Q 26 64.703125 27.296875 64.546875 
Q 28.59375 64.40625 29.703125 64 
L 29.703125 71.40625 
Q 28.5 71.796875 26.953125 72 
Q 25.40625 72.203125 24.203125 72.203125 
Q 17.203125 72.203125 13.546875 68.953125 
Q 9.90625 65.703125 9.90625 59.40625 
L 9.90625 51.703125 
L 1.203125 51.703125 
L 1.203125 44.203125 
z
" id="HelveticaNeue-102"/>
      <path d="M 13.296875 35.703125 
Q 13.296875 41.09375 14.6875 46.34375 
Q 16.09375 51.59375 19.09375 55.796875 
Q 22.09375 60 26.796875 62.546875 
Q 31.5 65.09375 38 65.09375 
Q 44.5 65.09375 49.203125 62.546875 
Q 53.90625 60 56.90625 55.796875 
Q 59.90625 51.59375 61.296875 46.34375 
Q 62.703125 41.09375 62.703125 35.703125 
Q 62.703125 30.296875 61.296875 25.046875 
Q 59.90625 19.796875 56.90625 15.59375 
Q 53.90625 11.40625 49.203125 8.84375 
Q 44.5 6.296875 38 6.296875 
Q 31.5 6.296875 26.796875 8.84375 
Q 22.09375 11.40625 19.09375 15.59375 
Q 16.09375 19.796875 14.6875 25.046875 
Q 13.296875 30.296875 13.296875 35.703125 
z
M 3.796875 35.703125 
Q 3.796875 28.40625 5.9375 21.65625 
Q 8.09375 14.90625 12.390625 9.703125 
Q 16.703125 4.5 23.09375 1.453125 
Q 29.5 -1.59375 38 -1.59375 
Q 46.5 -1.59375 52.890625 1.453125 
Q 59.296875 4.5 63.59375 9.703125 
Q 67.90625 14.90625 70.046875 21.65625 
Q 72.203125 28.40625 72.203125 35.703125 
Q 72.203125 43 70.046875 49.75 
Q 67.90625 56.5 63.59375 61.703125 
Q 59.296875 66.90625 52.890625 70 
Q 46.5 73.09375 38 73.09375 
Q 29.5 73.09375 23.09375 70 
Q 16.703125 66.90625 12.390625 61.703125 
Q 8.09375 56.5 5.9375 49.75 
Q 3.796875 43 3.796875 35.703125 
z
" id="HelveticaNeue-79"/>
      <path d="M 35.90625 0 
L 61.296875 71.40625 
L 51.40625 71.40625 
L 30.796875 9.5 
L 30.59375 9.5 
L 10.203125 71.40625 
L 0 71.40625 
L 25.09375 0 
z
" id="HelveticaNeue-86"/>
      <path d="M 8.203125 71.40625 
L 8.203125 0 
L 17.703125 0 
L 17.703125 71.40625 
z
" id="HelveticaNeue-73"/>
      <path d="M 17.296875 8 
L 17.296875 63.40625 
L 33.296875 63.40625 
Q 39.90625 63.40625 44.40625 61.546875 
Q 48.90625 59.703125 51.75 56.140625 
Q 54.59375 52.59375 55.84375 47.546875 
Q 57.09375 42.5 57.09375 36.09375 
Q 57.09375 29.5 55.75 24.84375 
Q 54.40625 20.203125 52.296875 17.09375 
Q 50.203125 14 47.546875 12.203125 
Q 44.90625 10.40625 42.203125 9.453125 
Q 39.5 8.5 37.09375 8.25 
Q 34.703125 8 33.09375 8 
z
M 7.796875 71.40625 
L 7.796875 0 
L 32.296875 0 
Q 41.203125 0 47.703125 2.5 
Q 54.203125 5 58.390625 9.75 
Q 62.59375 14.5 64.59375 21.453125 
Q 66.59375 28.40625 66.59375 37.40625 
Q 66.59375 54.59375 57.6875 63 
Q 48.796875 71.40625 32.296875 71.40625 
z
" id="HelveticaNeue-68"/>
     </defs>
     <use xlink:href="#HelveticaNeue-78"/>
     <use x="72.199982" xlink:href="#HelveticaNeue-101"/>
     <use x="125.899979" xlink:href="#HelveticaNeue-119"/>
     <use x="201.699966" xlink:href="#HelveticaNeue-32"/>
     <use x="229.499954" xlink:href="#HelveticaNeue-67"/>
     <use x="301.699936" xlink:href="#HelveticaNeue-97"/>
     <use x="355.399933" xlink:href="#HelveticaNeue-115"/>
     <use x="405.399918" xlink:href="#HelveticaNeue-101"/>
     <use x="459.099915" xlink:href="#HelveticaNeue-115"/>
     <use x="509.099899" xlink:href="#HelveticaNeue-32"/>
     <use x="536.899887" xlink:href="#HelveticaNeue-111"/>
     <use x="594.299881" xlink:href="#HelveticaNeue-102"/>
     <use x="623.899872" xlink:href="#HelveticaNeue-32"/>
     <use x="651.69986" xlink:href="#HelveticaNeue-67"/>
     <use x="723.899841" xlink:href="#HelveticaNeue-79"/>
     <use x="799.899826" xlink:href="#HelveticaNeue-86"/>
     <use x="860.999817" xlink:href="#HelveticaNeue-73"/>
     <use x="886.899811" xlink:href="#HelveticaNeue-68"/>
     <use x="957.299805" xlink:href="#HelveticaNeue-45"/>
     <use x="996.199799" xlink:href="#HelveticaNeue-49"/>
     <use x="1051.799789" xlink:href="#HelveticaNeue-57"/>
    </g>
   </g>
   <g id="legend_1">
    <g id="line2d_97">
     <path d="M 570.298125 49.292375 
L 598.298125 49.292375 
" style="fill:none;stroke:#008fd5;stroke-width:4;"/>
    </g>
    <g id="line2d_98"/>
    <g id="text_19">
     <!-- United States -->
     <g style="fill:#555555;" transform="translate(609.498125 54.192375)scale(0.14 -0.14)">
      <defs>
       <path d="M 64.796875 25.796875 
L 64.796875 71.40625 
L 55.296875 71.40625 
L 55.296875 25.796875 
Q 55.296875 16.203125 50.546875 11.25 
Q 45.796875 6.296875 36.703125 6.296875 
Q 27.09375 6.296875 22 11.25 
Q 16.90625 16.203125 16.90625 25.796875 
L 16.90625 71.40625 
L 7.40625 71.40625 
L 7.40625 25.796875 
Q 7.40625 11.5 15.15625 4.953125 
Q 22.90625 -1.59375 36.703125 -1.59375 
Q 50.203125 -1.59375 57.5 5.25 
Q 64.796875 12.09375 64.796875 25.796875 
z
" id="HelveticaNeue-85"/>
       <path d="M 6.40625 51.703125 
L 6.40625 0 
L 14.90625 0 
L 14.90625 29.203125 
Q 14.90625 32.703125 15.84375 35.640625 
Q 16.796875 38.59375 18.6875 40.796875 
Q 20.59375 43 23.4375 44.203125 
Q 26.296875 45.40625 30.203125 45.40625 
Q 35.09375 45.40625 37.890625 42.59375 
Q 40.703125 39.796875 40.703125 35 
L 40.703125 0 
L 49.203125 0 
L 49.203125 34 
Q 49.203125 38.203125 48.34375 41.640625 
Q 47.5 45.09375 45.390625 47.59375 
Q 43.296875 50.09375 39.890625 51.5 
Q 36.5 52.90625 31.40625 52.90625 
Q 19.90625 52.90625 14.59375 43.5 
L 14.40625 43.5 
L 14.40625 51.703125 
z
" id="HelveticaNeue-110"/>
       <path d="M 15.40625 61 
L 15.40625 71.40625 
L 6.90625 71.40625 
L 6.90625 61 
z
M 6.90625 51.703125 
L 6.90625 0 
L 15.40625 0 
L 15.40625 51.703125 
z
" id="HelveticaNeue-105"/>
       <path d="M 18.203125 51.703125 
L 18.203125 67.203125 
L 9.703125 67.203125 
L 9.703125 51.703125 
L 0.90625 51.703125 
L 0.90625 44.203125 
L 9.703125 44.203125 
L 9.703125 11.296875 
Q 9.703125 7.703125 10.390625 5.5 
Q 11.09375 3.296875 12.546875 2.09375 
Q 14 0.90625 16.34375 0.453125 
Q 18.703125 0 22 0 
L 28.5 0 
L 28.5 7.5 
L 24.59375 7.5 
Q 22.59375 7.5 21.34375 7.640625 
Q 20.09375 7.796875 19.390625 8.296875 
Q 18.703125 8.796875 18.453125 9.6875 
Q 18.203125 10.59375 18.203125 12.09375 
L 18.203125 44.203125 
L 28.5 44.203125 
L 28.5 51.703125 
z
" id="HelveticaNeue-116"/>
       <path d="M 12.59375 25.40625 
Q 12.59375 29.203125 13.390625 32.796875 
Q 14.203125 36.40625 16 39.203125 
Q 17.796875 42 20.796875 43.703125 
Q 23.796875 45.40625 28.09375 45.40625 
Q 32.5 45.40625 35.59375 43.75 
Q 38.703125 42.09375 40.640625 39.390625 
Q 42.59375 36.703125 43.5 33.140625 
Q 44.40625 29.59375 44.40625 25.796875 
Q 44.40625 22.203125 43.546875 18.703125 
Q 42.703125 15.203125 40.796875 12.453125 
Q 38.90625 9.703125 35.90625 8 
Q 32.90625 6.296875 28.59375 6.296875 
Q 24.5 6.296875 21.453125 7.890625 
Q 18.40625 9.5 16.453125 12.203125 
Q 14.5 14.90625 13.546875 18.34375 
Q 12.59375 21.796875 12.59375 25.40625 
z
M 52.59375 0 
L 52.59375 71.40625 
L 44.09375 71.40625 
L 44.09375 44.796875 
L 43.90625 44.796875 
Q 42.5 47.09375 40.453125 48.640625 
Q 38.40625 50.203125 36.09375 51.140625 
Q 33.796875 52.09375 31.5 52.5 
Q 29.203125 52.90625 27.203125 52.90625 
Q 21.296875 52.90625 16.84375 50.75 
Q 12.40625 48.59375 9.453125 44.9375 
Q 6.5 41.296875 5.046875 36.390625 
Q 3.59375 31.5 3.59375 26 
Q 3.59375 20.5 5.09375 15.59375 
Q 6.59375 10.703125 9.546875 7 
Q 12.5 3.296875 16.953125 1.09375 
Q 21.40625 -1.09375 27.40625 -1.09375 
Q 32.796875 -1.09375 37.296875 0.796875 
Q 41.796875 2.703125 43.90625 7 
L 44.09375 7 
L 44.09375 0 
z
" id="HelveticaNeue-100"/>
       <path d="M 49.09375 50.5 
L 58.09375 50.5 
Q 57.90625 56.40625 55.84375 60.65625 
Q 53.796875 64.90625 50.25 67.703125 
Q 46.703125 70.5 42 71.796875 
Q 37.296875 73.09375 31.796875 73.09375 
Q 26.90625 73.09375 22.25 71.84375 
Q 17.59375 70.59375 13.9375 68.046875 
Q 10.296875 65.5 8.09375 61.546875 
Q 5.90625 57.59375 5.90625 52.203125 
Q 5.90625 47.296875 7.84375 44.046875 
Q 9.796875 40.796875 13.046875 38.75 
Q 16.296875 36.703125 20.390625 35.453125 
Q 24.5 34.203125 28.75 33.25 
Q 33 32.296875 37.09375 31.390625 
Q 41.203125 30.5 44.453125 29.046875 
Q 47.703125 27.59375 49.640625 25.296875 
Q 51.59375 23 51.59375 19.296875 
Q 51.59375 15.40625 50 12.90625 
Q 48.40625 10.40625 45.796875 8.953125 
Q 43.203125 7.5 39.953125 6.890625 
Q 36.703125 6.296875 33.5 6.296875 
Q 29.5 6.296875 25.703125 7.296875 
Q 21.90625 8.296875 19.046875 10.390625 
Q 16.203125 12.5 14.453125 15.75 
Q 12.703125 19 12.703125 23.5 
L 3.703125 23.5 
Q 3.703125 17 6.046875 12.25 
Q 8.40625 7.5 12.453125 4.453125 
Q 16.5 1.40625 21.84375 -0.09375 
Q 27.203125 -1.59375 33.203125 -1.59375 
Q 38.09375 -1.59375 43.046875 -0.4375 
Q 48 0.703125 52 3.25 
Q 56 5.796875 58.546875 9.84375 
Q 61.09375 13.90625 61.09375 19.59375 
Q 61.09375 24.90625 59.140625 28.40625 
Q 57.203125 31.90625 53.953125 34.203125 
Q 50.703125 36.5 46.59375 37.84375 
Q 42.5 39.203125 38.25 40.203125 
Q 34 41.203125 29.890625 42.046875 
Q 25.796875 42.90625 22.546875 44.203125 
Q 19.296875 45.5 17.34375 47.546875 
Q 15.40625 49.59375 15.40625 52.90625 
Q 15.40625 56.40625 16.75 58.75 
Q 18.09375 61.09375 20.34375 62.5 
Q 22.59375 63.90625 25.5 64.5 
Q 28.40625 65.09375 31.40625 65.09375 
Q 38.796875 65.09375 43.546875 61.640625 
Q 48.296875 58.203125 49.09375 50.5 
z
" id="HelveticaNeue-83"/>
      </defs>
      <use xlink:href="#HelveticaNeue-85"/>
      <use x="72.199982" xlink:href="#HelveticaNeue-110"/>
      <use x="127.799973" xlink:href="#HelveticaNeue-105"/>
      <use x="149.999969" xlink:href="#HelveticaNeue-116"/>
      <use x="181.499954" xlink:href="#HelveticaNeue-101"/>
      <use x="235.199951" xlink:href="#HelveticaNeue-100"/>
      <use x="294.499939" xlink:href="#HelveticaNeue-32"/>
      <use x="322.299927" xlink:href="#HelveticaNeue-83"/>
      <use x="387.099915" xlink:href="#HelveticaNeue-116"/>
      <use x="418.599899" xlink:href="#HelveticaNeue-97"/>
      <use x="472.299896" xlink:href="#HelveticaNeue-116"/>
      <use x="503.799881" xlink:href="#HelveticaNeue-101"/>
      <use x="557.499878" xlink:href="#HelveticaNeue-115"/>
     </g>
    </g>
    <g id="line2d_99">
     <path d="M 570.298125 69.047687 
L 598.298125 69.047687 
" style="fill:none;stroke:#fc4f30;stroke-width:4;"/>
    </g>
    <g id="line2d_100"/>
    <g id="text_20">
     <!-- Florida -->
     <g style="fill:#555555;" transform="translate(609.498125 73.947687)scale(0.14 -0.14)">
      <defs>
       <path d="M 7.796875 71.40625 
L 7.796875 0 
L 17.296875 0 
L 17.296875 32.703125 
L 50.09375 32.703125 
L 50.09375 40.703125 
L 17.296875 40.703125 
L 17.296875 63.40625 
L 54.703125 63.40625 
L 54.703125 71.40625 
z
" id="HelveticaNeue-70"/>
       <path d="M 6.90625 71.40625 
L 6.90625 0 
L 15.40625 0 
L 15.40625 71.40625 
z
" id="HelveticaNeue-108"/>
       <path d="M 6.09375 51.703125 
L 6.09375 0 
L 14.59375 0 
L 14.59375 23 
Q 14.59375 28 15.59375 31.84375 
Q 16.59375 35.703125 18.796875 38.390625 
Q 21 41.09375 24.59375 42.5 
Q 28.203125 43.90625 33.296875 43.90625 
L 33.296875 52.90625 
Q 26.40625 53.09375 21.90625 50.09375 
Q 17.40625 47.09375 14.296875 40.796875 
L 14.09375 40.796875 
L 14.09375 51.703125 
z
" id="HelveticaNeue-114"/>
      </defs>
      <use xlink:href="#HelveticaNeue-70"/>
      <use x="57.399994" xlink:href="#HelveticaNeue-108"/>
      <use x="79.599991" xlink:href="#HelveticaNeue-111"/>
      <use x="136.999985" xlink:href="#HelveticaNeue-114"/>
      <use x="170.299973" xlink:href="#HelveticaNeue-105"/>
      <use x="192.499969" xlink:href="#HelveticaNeue-100"/>
      <use x="251.799957" xlink:href="#HelveticaNeue-97"/>
     </g>
    </g>
   </g>
  </g>
 </g>
 <defs>
  <clipPath id="pd121516220">
   <rect height="483.84" width="626.4" x="80.748125" y="31.5955"/>
  </clipPath>
 </defs>
</svg>
