<?xml version="1.0" encoding="utf-8" standalone="no"?>
<!DOCTYPE svg PUBLIC "-//W3C//DTD SVG 1.1//EN"
  "http://www.w3.org/Graphics/SVG/1.1/DTD/svg11.dtd">
<!-- Created with matplotlib (https://matplotlib.org/) -->
<svg height="538.890812pt" version="1.1" viewBox="0 0 716.208469 538.890812" width="716.208469pt" xmlns="http://www.w3.org/2000/svg" xmlns:xlink="http://www.w3.org/1999/xlink">
 <metadata>
  <rdf:RDF xmlns:cc="http://creativecommons.org/ns#" xmlns:dc="http://purl.org/dc/elements/1.1/" xmlns:rdf="http://www.w3.org/1999/02/22-rdf-syntax-ns#">
   <cc:Work>
    <dc:type rdf:resource="http://purl.org/dc/dcmitype/StillImage"/>
    <dc:date>2021-02-27T13:42:48.258509</dc:date>
    <dc:format>image/svg+xml</dc:format>
    <dc:creator>
     <cc:Agent>
      <dc:title>Matplotlib v3.3.4, https://matplotlib.org/</dc:title>
     </cc:Agent>
    </dc:creator>
   </cc:Work>
  </rdf:RDF>
 </metadata>
 <defs>
  <style type="text/css">*{stroke-linecap:butt;stroke-linejoin:round;}</style>
 </defs>
 <g id="figure_1">
  <g id="patch_1">
   <path d="M 0 538.890812 
L 716.208469 538.890812 
L 716.208469 0 
L 0 0 
z
" style="fill:#f0f0f0;"/>
  </g>
  <g id="axes_1">
   <g id="patch_2">
    <path d="M 80.748125 515.4355 
L 707.148125 515.4355 
L 707.148125 31.5955 
L 80.748125 31.5955 
z
" style="fill:#f0f0f0;"/>
   </g>
   <g id="matplotlib.axis_1">
    <g id="xtick_1">
     <g id="line2d_1">
      <path clip-path="url(#p2de48439ac)" d="M 164.604212 515.4355 
L 164.604212 31.5955 
" style="fill:none;stroke:#cbcbcb;"/>
     </g>
     <g id="line2d_2"/>
     <g id="text_1">
      <!-- 2020-03 -->
      <g style="fill:#555555;" transform="translate(138.5314 528.932375)scale(0.14 -0.14)">
       <defs>
        <path d="M 4.40625 45.796875 
L 12.90625 45.796875 
Q 12.796875 49 13.546875 52.140625 
Q 14.296875 55.296875 16 57.796875 
Q 17.703125 60.296875 20.34375 61.84375 
Q 23 63.40625 26.703125 63.40625 
Q 29.5 63.40625 32 62.5 
Q 34.5 61.59375 36.34375 59.890625 
Q 38.203125 58.203125 39.296875 55.84375 
Q 40.40625 53.5 40.40625 50.59375 
Q 40.40625 46.90625 39.25 44.09375 
Q 38.09375 41.296875 35.84375 38.890625 
Q 33.59375 36.5 30.1875 34.140625 
Q 26.796875 31.796875 22.296875 29 
Q 18.59375 26.796875 15.1875 24.296875 
Q 11.796875 21.796875 9.09375 18.5 
Q 6.40625 15.203125 4.65625 10.75 
Q 2.90625 6.296875 2.40625 0 
L 48.703125 0 
L 48.703125 7.5 
L 12.296875 7.5 
Q 12.90625 10.796875 14.84375 13.34375 
Q 16.796875 15.90625 19.546875 18.09375 
Q 22.296875 20.296875 25.59375 22.25 
Q 28.90625 24.203125 32.203125 26.203125 
Q 35.5 28.296875 38.59375 30.59375 
Q 41.703125 32.90625 44.09375 35.75 
Q 46.5 38.59375 47.953125 42.1875 
Q 49.40625 45.796875 49.40625 50.5 
Q 49.40625 55.5 47.65625 59.296875 
Q 45.90625 63.09375 42.90625 65.640625 
Q 39.90625 68.203125 35.84375 69.546875 
Q 31.796875 70.90625 27.203125 70.90625 
Q 21.59375 70.90625 17.1875 69 
Q 12.796875 67.09375 9.84375 63.75 
Q 6.90625 60.40625 5.5 55.796875 
Q 4.09375 51.203125 4.40625 45.796875 
z
" id="HelveticaNeue-50"/>
        <path d="M 13.203125 34.90625 
Q 13.203125 37.5 13.25 40.640625 
Q 13.296875 43.796875 13.75 46.9375 
Q 14.203125 50.09375 15.046875 53.09375 
Q 15.90625 56.09375 17.546875 58.34375 
Q 19.203125 60.59375 21.703125 62 
Q 24.203125 63.40625 27.796875 63.40625 
Q 31.40625 63.40625 33.90625 62 
Q 36.40625 60.59375 38.046875 58.34375 
Q 39.703125 56.09375 40.546875 53.09375 
Q 41.40625 50.09375 41.84375 46.9375 
Q 42.296875 43.796875 42.34375 40.640625 
Q 42.40625 37.5 42.40625 34.90625 
Q 42.40625 30.90625 42.15625 25.953125 
Q 41.90625 21 40.546875 16.640625 
Q 39.203125 12.296875 36.203125 9.296875 
Q 33.203125 6.296875 27.796875 6.296875 
Q 22.40625 6.296875 19.40625 9.296875 
Q 16.40625 12.296875 15.046875 16.640625 
Q 13.703125 21 13.453125 25.953125 
Q 13.203125 30.90625 13.203125 34.90625 
z
M 4.203125 34.796875 
Q 4.203125 30.90625 4.390625 26.703125 
Q 4.59375 22.5 5.390625 18.5 
Q 6.203125 14.5 7.703125 10.953125 
Q 9.203125 7.40625 11.796875 4.703125 
Q 14.40625 2 18.34375 0.453125 
Q 22.296875 -1.09375 27.796875 -1.09375 
Q 33.40625 -1.09375 37.296875 0.453125 
Q 41.203125 2 43.796875 4.703125 
Q 46.40625 7.40625 47.90625 10.953125 
Q 49.40625 14.5 50.203125 18.5 
Q 51 22.5 51.203125 26.703125 
Q 51.40625 30.90625 51.40625 34.796875 
Q 51.40625 38.703125 51.203125 42.890625 
Q 51 47.09375 50.203125 51.09375 
Q 49.40625 55.09375 47.90625 58.6875 
Q 46.40625 62.296875 43.796875 65 
Q 41.203125 67.703125 37.25 69.296875 
Q 33.296875 70.90625 27.796875 70.90625 
Q 22.296875 70.90625 18.34375 69.296875 
Q 14.40625 67.703125 11.796875 65 
Q 9.203125 62.296875 7.703125 58.6875 
Q 6.203125 55.09375 5.390625 51.09375 
Q 4.59375 47.09375 4.390625 42.890625 
Q 4.203125 38.703125 4.203125 34.796875 
z
" id="HelveticaNeue-48"/>
        <path d="M 5 31.796875 
L 5 23.796875 
L 33.90625 23.796875 
L 33.90625 31.796875 
z
" id="HelveticaNeue-45"/>
        <path d="M 21.796875 40.5 
L 21.796875 33.296875 
Q 24.203125 33.59375 26.90625 33.59375 
Q 30.09375 33.59375 32.84375 32.75 
Q 35.59375 31.90625 37.59375 30.15625 
Q 39.59375 28.40625 40.796875 25.84375 
Q 42 23.296875 42 20 
Q 42 16.796875 40.75 14.25 
Q 39.5 11.703125 37.390625 9.953125 
Q 35.296875 8.203125 32.5 7.25 
Q 29.703125 6.296875 26.59375 6.296875 
Q 19.296875 6.296875 15.5 10.640625 
Q 11.703125 15 11.5 21.90625 
L 3 21.90625 
Q 2.90625 16.40625 4.546875 12.09375 
Q 6.203125 7.796875 9.296875 4.84375 
Q 12.40625 1.90625 16.796875 0.40625 
Q 21.203125 -1.09375 26.59375 -1.09375 
Q 31.59375 -1.09375 36.046875 0.25 
Q 40.5 1.59375 43.796875 4.296875 
Q 47.09375 7 49.046875 11.046875 
Q 51 15.09375 51 20.40625 
Q 51 26.796875 47.84375 31.5 
Q 44.703125 36.203125 38.203125 37.59375 
L 38.203125 37.796875 
Q 42.40625 39.703125 45.203125 43.390625 
Q 48 47.09375 48 51.90625 
Q 48 56.796875 46.34375 60.390625 
Q 44.703125 64 41.796875 66.296875 
Q 38.90625 68.59375 34.953125 69.75 
Q 31 70.90625 26.40625 70.90625 
Q 21.09375 70.90625 17.046875 69.203125 
Q 13 67.5 10.296875 64.5 
Q 7.59375 61.5 6.140625 57.296875 
Q 4.703125 53.09375 4.5 48 
L 13 48 
Q 13 51.09375 13.796875 53.890625 
Q 14.59375 56.703125 16.25 58.796875 
Q 17.90625 60.90625 20.453125 62.15625 
Q 23 63.40625 26.40625 63.40625 
Q 31.796875 63.40625 35.390625 60.546875 
Q 39 57.703125 39 52 
Q 39 49.203125 37.890625 47 
Q 36.796875 44.796875 34.9375 43.34375 
Q 33.09375 41.90625 30.640625 41.15625 
Q 28.203125 40.40625 25.5 40.40625 
L 23.703125 40.40625 
Q 23.203125 40.40625 22.703125 40.40625 
Q 22.296875 40.40625 21.796875 40.5 
z
" id="HelveticaNeue-51"/>
       </defs>
       <use xlink:href="#HelveticaNeue-50"/>
       <use x="55.599991" xlink:href="#HelveticaNeue-48"/>
       <use x="111.199982" xlink:href="#HelveticaNeue-50"/>
       <use x="166.799973" xlink:href="#HelveticaNeue-48"/>
       <use x="222.399963" xlink:href="#HelveticaNeue-45"/>
       <use x="261.299957" xlink:href="#HelveticaNeue-48"/>
       <use x="316.899948" xlink:href="#HelveticaNeue-51"/>
      </g>
     </g>
    </g>
    <g id="xtick_2">
     <g id="line2d_3">
      <path clip-path="url(#p2de48439ac)" d="M 251.229467 515.4355 
L 251.229467 31.5955 
" style="fill:none;stroke:#cbcbcb;"/>
     </g>
     <g id="line2d_4"/>
     <g id="text_2">
      <!-- 2020-05 -->
      <g style="fill:#555555;" transform="translate(225.156655 528.932375)scale(0.14 -0.14)">
       <defs>
        <path d="M 47 62.203125 
L 47 69.703125 
L 12 69.703125 
L 5.40625 32.90625 
L 12.703125 32.5 
Q 15.203125 35.5 18.453125 37.34375 
Q 21.703125 39.203125 25.90625 39.203125 
Q 29.5 39.203125 32.453125 38 
Q 35.40625 36.796875 37.5 34.640625 
Q 39.59375 32.5 40.75 29.546875 
Q 41.90625 26.59375 41.90625 23.09375 
Q 41.90625 18.90625 40.703125 15.75 
Q 39.5 12.59375 37.453125 10.5 
Q 35.40625 8.40625 32.65625 7.34375 
Q 29.90625 6.296875 26.90625 6.296875 
Q 23.703125 6.296875 21.046875 7.25 
Q 18.40625 8.203125 16.453125 9.953125 
Q 14.5 11.703125 13.34375 14.046875 
Q 12.203125 16.40625 12 19.09375 
L 3.5 19.09375 
Q 3.59375 14.296875 5.390625 10.5 
Q 7.203125 6.703125 10.296875 4.140625 
Q 13.40625 1.59375 17.453125 0.25 
Q 21.5 -1.09375 26.09375 -1.09375 
Q 32.296875 -1.09375 36.9375 0.84375 
Q 41.59375 2.796875 44.6875 6.09375 
Q 47.796875 9.40625 49.34375 13.65625 
Q 50.90625 17.90625 50.90625 22.40625 
Q 50.90625 28.5 49.09375 33.046875 
Q 47.296875 37.59375 44.1875 40.640625 
Q 41.09375 43.703125 36.890625 45.203125 
Q 32.703125 46.703125 28 46.703125 
Q 24.40625 46.703125 20.75 45.453125 
Q 17.09375 44.203125 14.796875 41.59375 
L 14.59375 41.796875 
L 18.40625 62.203125 
z
" id="HelveticaNeue-53"/>
       </defs>
       <use xlink:href="#HelveticaNeue-50"/>
       <use x="55.599991" xlink:href="#HelveticaNeue-48"/>
       <use x="111.199982" xlink:href="#HelveticaNeue-50"/>
       <use x="166.799973" xlink:href="#HelveticaNeue-48"/>
       <use x="222.399963" xlink:href="#HelveticaNeue-45"/>
       <use x="261.299957" xlink:href="#HelveticaNeue-48"/>
       <use x="316.899948" xlink:href="#HelveticaNeue-53"/>
      </g>
     </g>
    </g>
    <g id="xtick_3">
     <g id="line2d_5">
      <path clip-path="url(#p2de48439ac)" d="M 337.854722 515.4355 
L 337.854722 31.5955 
" style="fill:none;stroke:#cbcbcb;"/>
     </g>
     <g id="line2d_6"/>
     <g id="text_3">
      <!-- 2020-07 -->
      <g style="fill:#555555;" transform="translate(311.78191 528.932375)scale(0.14 -0.14)">
       <defs>
        <path d="M 50.90625 62.40625 
L 50.90625 69.703125 
L 5 69.703125 
L 5 61.703125 
L 42.203125 61.703125 
Q 36.59375 55.796875 31.75 48.796875 
Q 26.90625 41.796875 23.203125 33.9375 
Q 19.5 26.09375 17.140625 17.546875 
Q 14.796875 9 14.203125 0 
L 23.703125 0 
Q 24.203125 8.296875 26.5 17.09375 
Q 28.796875 25.90625 32.4375 34.203125 
Q 36.09375 42.5 40.796875 49.796875 
Q 45.5 57.09375 50.90625 62.40625 
z
" id="HelveticaNeue-55"/>
       </defs>
       <use xlink:href="#HelveticaNeue-50"/>
       <use x="55.599991" xlink:href="#HelveticaNeue-48"/>
       <use x="111.199982" xlink:href="#HelveticaNeue-50"/>
       <use x="166.799973" xlink:href="#HelveticaNeue-48"/>
       <use x="222.399963" xlink:href="#HelveticaNeue-45"/>
       <use x="261.299957" xlink:href="#HelveticaNeue-48"/>
       <use x="316.899948" xlink:href="#HelveticaNeue-55"/>
      </g>
     </g>
    </g>
    <g id="xtick_4">
     <g id="line2d_7">
      <path clip-path="url(#p2de48439ac)" d="M 425.900063 515.4355 
L 425.900063 31.5955 
" style="fill:none;stroke:#cbcbcb;"/>
     </g>
     <g id="line2d_8"/>
     <g id="text_4">
      <!-- 2020-09 -->
      <g style="fill:#555555;" transform="translate(399.827251 528.932375)scale(0.14 -0.14)">
       <defs>
        <path d="M 13.40625 17.09375 
L 4.90625 17.09375 
Q 5.703125 7.90625 11.59375 3.40625 
Q 17.5 -1.09375 26.40625 -1.09375 
Q 39.296875 -1.09375 45.140625 8.75 
Q 51 18.59375 51 37 
Q 51 47.09375 49.046875 53.640625 
Q 47.09375 60.203125 43.796875 64 
Q 40.5 67.796875 36.09375 69.34375 
Q 31.703125 70.90625 26.703125 70.90625 
Q 21.59375 70.90625 17.296875 69.203125 
Q 13 67.5 9.890625 64.453125 
Q 6.796875 61.40625 5.09375 57.15625 
Q 3.40625 52.90625 3.40625 47.796875 
Q 3.40625 42.59375 4.84375 38.1875 
Q 6.296875 33.796875 9.140625 30.6875 
Q 12 27.59375 16.203125 25.84375 
Q 20.40625 24.09375 25.796875 24.09375 
Q 31 24.09375 35.390625 26.75 
Q 39.796875 29.40625 42.203125 33.90625 
L 42.40625 33.703125 
Q 42 19.796875 38.09375 13.046875 
Q 34.203125 6.296875 26.40625 6.296875 
Q 21.296875 6.296875 17.59375 9.09375 
Q 13.90625 11.90625 13.40625 17.09375 
z
M 40.90625 47.203125 
Q 40.90625 44.09375 39.90625 41.25 
Q 38.90625 38.40625 37 36.25 
Q 35.09375 34.09375 32.390625 32.84375 
Q 29.703125 31.59375 26.40625 31.59375 
Q 23.296875 31.59375 20.75 32.84375 
Q 18.203125 34.09375 16.34375 36.1875 
Q 14.5 38.296875 13.453125 41 
Q 12.40625 43.703125 12.40625 46.59375 
Q 12.40625 49.90625 13.15625 52.90625 
Q 13.90625 55.90625 15.546875 58.25 
Q 17.203125 60.59375 19.84375 62 
Q 22.5 63.40625 26.296875 63.40625 
Q 29.90625 63.40625 32.59375 62.09375 
Q 35.296875 60.796875 37.140625 58.546875 
Q 39 56.296875 39.953125 53.390625 
Q 40.90625 50.5 40.90625 47.203125 
z
" id="HelveticaNeue-57"/>
       </defs>
       <use xlink:href="#HelveticaNeue-50"/>
       <use x="55.599991" xlink:href="#HelveticaNeue-48"/>
       <use x="111.199982" xlink:href="#HelveticaNeue-50"/>
       <use x="166.799973" xlink:href="#HelveticaNeue-48"/>
       <use x="222.399963" xlink:href="#HelveticaNeue-45"/>
       <use x="261.299957" xlink:href="#HelveticaNeue-48"/>
       <use x="316.899948" xlink:href="#HelveticaNeue-57"/>
      </g>
     </g>
    </g>
    <g id="xtick_5">
     <g id="line2d_9">
      <path clip-path="url(#p2de48439ac)" d="M 512.525318 515.4355 
L 512.525318 31.5955 
" style="fill:none;stroke:#cbcbcb;"/>
     </g>
     <g id="line2d_10"/>
     <g id="text_5">
      <!-- 2020-11 -->
      <g style="fill:#555555;" transform="translate(486.452506 528.932375)scale(0.14 -0.14)">
       <defs>
        <path d="M 35.59375 0 
L 35.59375 70.90625 
L 29.09375 70.90625 
Q 28.40625 66.90625 26.5 64.296875 
Q 24.59375 61.703125 21.84375 60.203125 
Q 19.09375 58.703125 15.6875 58.140625 
Q 12.296875 57.59375 8.703125 57.59375 
L 8.703125 50.796875 
L 27.09375 50.796875 
L 27.09375 0 
z
" id="HelveticaNeue-49"/>
       </defs>
       <use xlink:href="#HelveticaNeue-50"/>
       <use x="55.599991" xlink:href="#HelveticaNeue-48"/>
       <use x="111.199982" xlink:href="#HelveticaNeue-50"/>
       <use x="166.799973" xlink:href="#HelveticaNeue-48"/>
       <use x="222.399963" xlink:href="#HelveticaNeue-45"/>
       <use x="261.299957" xlink:href="#HelveticaNeue-49"/>
       <use x="316.899948" xlink:href="#HelveticaNeue-49"/>
      </g>
     </g>
    </g>
    <g id="xtick_6">
     <g id="line2d_11">
      <path clip-path="url(#p2de48439ac)" d="M 599.150573 515.4355 
L 599.150573 31.5955 
" style="fill:none;stroke:#cbcbcb;"/>
     </g>
     <g id="line2d_12"/>
     <g id="text_6">
      <!-- 2021-01 -->
      <g style="fill:#555555;" transform="translate(573.077761 528.932375)scale(0.14 -0.14)">
       <use xlink:href="#HelveticaNeue-50"/>
       <use x="55.599991" xlink:href="#HelveticaNeue-48"/>
       <use x="111.199982" xlink:href="#HelveticaNeue-50"/>
       <use x="166.799973" xlink:href="#HelveticaNeue-49"/>
       <use x="222.399963" xlink:href="#HelveticaNeue-45"/>
       <use x="261.299957" xlink:href="#HelveticaNeue-48"/>
       <use x="316.899948" xlink:href="#HelveticaNeue-49"/>
      </g>
     </g>
    </g>
    <g id="xtick_7">
     <g id="line2d_13">
      <path clip-path="url(#p2de48439ac)" d="M 682.935656 515.4355 
L 682.935656 31.5955 
" style="fill:none;stroke:#cbcbcb;"/>
     </g>
     <g id="line2d_14"/>
     <g id="text_7">
      <!-- 2021-03 -->
      <g style="fill:#555555;" transform="translate(656.862844 528.932375)scale(0.14 -0.14)">
       <use xlink:href="#HelveticaNeue-50"/>
       <use x="55.599991" xlink:href="#HelveticaNeue-48"/>
       <use x="111.199982" xlink:href="#HelveticaNeue-50"/>
       <use x="166.799973" xlink:href="#HelveticaNeue-49"/>
       <use x="222.399963" xlink:href="#HelveticaNeue-45"/>
       <use x="261.299957" xlink:href="#HelveticaNeue-48"/>
       <use x="316.899948" xlink:href="#HelveticaNeue-51"/>
      </g>
     </g>
    </g>
   </g>
   <g id="matplotlib.axis_2">
    <g id="ytick_1">
     <g id="line2d_15">
      <path clip-path="url(#p2de48439ac)" d="M 80.748125 497.216366 
L 707.148125 497.216366 
" style="fill:none;stroke:#cbcbcb;"/>
     </g>
     <g id="line2d_16"/>
     <g id="text_8">
      <!-- 1 -->
      <g style="fill:#555555;" transform="translate(69.465 502.214804)scale(0.14 -0.14)">
       <use xlink:href="#HelveticaNeue-49"/>
      </g>
     </g>
    </g>
    <g id="ytick_2">
     <g id="line2d_17">
      <path clip-path="url(#p2de48439ac)" d="M 80.748125 430.699099 
L 707.148125 430.699099 
" style="fill:none;stroke:#cbcbcb;"/>
     </g>
     <g id="line2d_18"/>
     <g id="text_9">
      <!-- 10 -->
      <g style="fill:#555555;" transform="translate(61.681875 435.697537)scale(0.14 -0.14)">
       <use xlink:href="#HelveticaNeue-49"/>
       <use x="55.599991" xlink:href="#HelveticaNeue-48"/>
      </g>
     </g>
    </g>
    <g id="ytick_3">
     <g id="line2d_19">
      <path clip-path="url(#p2de48439ac)" d="M 80.748125 364.181833 
L 707.148125 364.181833 
" style="fill:none;stroke:#cbcbcb;"/>
     </g>
     <g id="line2d_20"/>
     <g id="text_10">
      <!-- 100 -->
      <g style="fill:#555555;" transform="translate(53.89875 369.18027)scale(0.14 -0.14)">
       <use xlink:href="#HelveticaNeue-49"/>
       <use x="55.599991" xlink:href="#HelveticaNeue-48"/>
       <use x="111.199982" xlink:href="#HelveticaNeue-48"/>
      </g>
     </g>
    </g>
    <g id="ytick_4">
     <g id="line2d_21">
      <path clip-path="url(#p2de48439ac)" d="M 80.748125 297.664566 
L 707.148125 297.664566 
" style="fill:none;stroke:#cbcbcb;"/>
     </g>
     <g id="line2d_22"/>
     <g id="text_11">
      <!-- 1,000 -->
      <g style="fill:#555555;" transform="translate(42.224063 302.663004)scale(0.14 -0.14)">
       <defs>
        <path d="M 8.296875 11.09375 
L 8.296875 0 
L 14.203125 0 
Q 14.296875 -1.203125 14.046875 -2.59375 
Q 13.796875 -4 13.09375 -5.34375 
Q 12.40625 -6.703125 11.25 -7.84375 
Q 10.09375 -9 8.40625 -9.59375 
L 8.40625 -14.59375 
Q 14.203125 -12.90625 16.796875 -8.796875 
Q 19.40625 -4.703125 19.40625 1 
L 19.40625 11.09375 
z
" id="HelveticaNeue-44"/>
       </defs>
       <use xlink:href="#HelveticaNeue-49"/>
       <use x="55.599991" xlink:href="#HelveticaNeue-44"/>
       <use x="83.399979" xlink:href="#HelveticaNeue-48"/>
       <use x="138.999969" xlink:href="#HelveticaNeue-48"/>
       <use x="194.59996" xlink:href="#HelveticaNeue-48"/>
      </g>
     </g>
    </g>
    <g id="ytick_5">
     <g id="line2d_23">
      <path clip-path="url(#p2de48439ac)" d="M 80.748125 231.1473 
L 707.148125 231.1473 
" style="fill:none;stroke:#cbcbcb;"/>
     </g>
     <g id="line2d_24"/>
     <g id="text_12">
      <!-- 10,000 -->
      <g style="fill:#555555;" transform="translate(34.440938 236.145737)scale(0.14 -0.14)">
       <use xlink:href="#HelveticaNeue-49"/>
       <use x="55.599991" xlink:href="#HelveticaNeue-48"/>
       <use x="111.199982" xlink:href="#HelveticaNeue-44"/>
       <use x="138.999969" xlink:href="#HelveticaNeue-48"/>
       <use x="194.59996" xlink:href="#HelveticaNeue-48"/>
       <use x="250.199951" xlink:href="#HelveticaNeue-48"/>
      </g>
     </g>
    </g>
    <g id="ytick_6">
     <g id="line2d_25">
      <path clip-path="url(#p2de48439ac)" d="M 80.748125 164.630033 
L 707.148125 164.630033 
" style="fill:none;stroke:#cbcbcb;"/>
     </g>
     <g id="line2d_26"/>
     <g id="text_13">
      <!-- 100,000 -->
      <g style="fill:#555555;" transform="translate(26.657813 169.628471)scale(0.14 -0.14)">
       <use xlink:href="#HelveticaNeue-49"/>
       <use x="55.599991" xlink:href="#HelveticaNeue-48"/>
       <use x="111.199982" xlink:href="#HelveticaNeue-48"/>
       <use x="166.799973" xlink:href="#HelveticaNeue-44"/>
       <use x="194.59996" xlink:href="#HelveticaNeue-48"/>
       <use x="250.199951" xlink:href="#HelveticaNeue-48"/>
       <use x="305.799942" xlink:href="#HelveticaNeue-48"/>
      </g>
     </g>
    </g>
    <g id="ytick_7">
     <g id="line2d_27">
      <path clip-path="url(#p2de48439ac)" d="M 80.748125 98.112767 
L 707.148125 98.112767 
" style="fill:none;stroke:#cbcbcb;"/>
     </g>
     <g id="line2d_28"/>
     <g id="text_14">
      <!-- 1,000,000 -->
      <g style="fill:#555555;" transform="translate(14.983125 103.111204)scale(0.14 -0.14)">
       <use xlink:href="#HelveticaNeue-49"/>
       <use x="55.599991" xlink:href="#HelveticaNeue-44"/>
       <use x="83.399979" xlink:href="#HelveticaNeue-48"/>
       <use x="138.999969" xlink:href="#HelveticaNeue-48"/>
       <use x="194.59996" xlink:href="#HelveticaNeue-48"/>
       <use x="250.199951" xlink:href="#HelveticaNeue-44"/>
       <use x="277.999939" xlink:href="#HelveticaNeue-48"/>
       <use x="333.59993" xlink:href="#HelveticaNeue-48"/>
       <use x="389.199921" xlink:href="#HelveticaNeue-48"/>
      </g>
     </g>
    </g>
    <g id="ytick_8">
     <g id="line2d_29">
      <path clip-path="url(#p2de48439ac)" d="M 80.748125 31.5955 
L 707.148125 31.5955 
" style="fill:none;stroke:#cbcbcb;"/>
     </g>
     <g id="line2d_30"/>
     <g id="text_15">
      <!-- 10,000,000 -->
      <g style="fill:#555555;" transform="translate(7.2 36.593937)scale(0.14 -0.14)">
       <use xlink:href="#HelveticaNeue-49"/>
       <use x="55.599991" xlink:href="#HelveticaNeue-48"/>
       <use x="111.199982" xlink:href="#HelveticaNeue-44"/>
       <use x="138.999969" xlink:href="#HelveticaNeue-48"/>
       <use x="194.59996" xlink:href="#HelveticaNeue-48"/>
       <use x="250.199951" xlink:href="#HelveticaNeue-48"/>
       <use x="305.799942" xlink:href="#HelveticaNeue-44"/>
       <use x="333.59993" xlink:href="#HelveticaNeue-48"/>
       <use x="389.199921" xlink:href="#HelveticaNeue-48"/>
       <use x="444.799911" xlink:href="#HelveticaNeue-48"/>
      </g>
     </g>
    </g>
    <g id="ytick_9">
     <g id="line2d_31"/>
    </g>
    <g id="ytick_10">
     <g id="line2d_32"/>
    </g>
    <g id="ytick_11">
     <g id="line2d_33"/>
    </g>
    <g id="ytick_12">
     <g id="line2d_34"/>
    </g>
    <g id="ytick_13">
     <g id="line2d_35"/>
    </g>
    <g id="ytick_14">
     <g id="line2d_36"/>
    </g>
    <g id="ytick_15">
     <g id="line2d_37"/>
    </g>
    <g id="ytick_16">
     <g id="line2d_38"/>
    </g>
    <g id="ytick_17">
     <g id="line2d_39"/>
    </g>
    <g id="ytick_18">
     <g id="line2d_40"/>
    </g>
    <g id="ytick_19">
     <g id="line2d_41"/>
    </g>
    <g id="ytick_20">
     <g id="line2d_42"/>
    </g>
    <g id="ytick_21">
     <g id="line2d_43"/>
    </g>
    <g id="ytick_22">
     <g id="line2d_44"/>
    </g>
    <g id="ytick_23">
     <g id="line2d_45"/>
    </g>
    <g id="ytick_24">
     <g id="line2d_46"/>
    </g>
    <g id="ytick_25">
     <g id="line2d_47"/>
    </g>
    <g id="ytick_26">
     <g id="line2d_48"/>
    </g>
    <g id="ytick_27">
     <g id="line2d_49"/>
    </g>
    <g id="ytick_28">
     <g id="line2d_50"/>
    </g>
    <g id="ytick_29">
     <g id="line2d_51"/>
    </g>
    <g id="ytick_30">
     <g id="line2d_52"/>
    </g>
    <g id="ytick_31">
     <g id="line2d_53"/>
    </g>
    <g id="ytick_32">
     <g id="line2d_54"/>
    </g>
    <g id="ytick_33">
     <g id="line2d_55"/>
    </g>
    <g id="ytick_34">
     <g id="line2d_56"/>
    </g>
    <g id="ytick_35">
     <g id="line2d_57"/>
    </g>
    <g id="ytick_36">
     <g id="line2d_58"/>
    </g>
    <g id="ytick_37">
     <g id="line2d_59"/>
    </g>
    <g id="ytick_38">
     <g id="line2d_60"/>
    </g>
    <g id="ytick_39">
     <g id="line2d_61"/>
    </g>
    <g id="ytick_40">
     <g id="line2d_62"/>
    </g>
    <g id="ytick_41">
     <g id="line2d_63"/>
    </g>
    <g id="ytick_42">
     <g id="line2d_64"/>
    </g>
    <g id="ytick_43">
     <g id="line2d_65"/>
    </g>
    <g id="ytick_44">
     <g id="line2d_66"/>
    </g>
    <g id="ytick_45">
     <g id="line2d_67"/>
    </g>
    <g id="ytick_46">
     <g id="line2d_68"/>
    </g>
    <g id="ytick_47">
     <g id="line2d_69"/>
    </g>
    <g id="ytick_48">
     <g id="line2d_70"/>
    </g>
    <g id="ytick_49">
     <g id="line2d_71"/>
    </g>
    <g id="ytick_50">
     <g id="line2d_72"/>
    </g>
    <g id="ytick_51">
     <g id="line2d_73"/>
    </g>
    <g id="ytick_52">
     <g id="line2d_74"/>
    </g>
    <g id="ytick_53">
     <g id="line2d_75"/>
    </g>
    <g id="ytick_54">
     <g id="line2d_76"/>
    </g>
    <g id="ytick_55">
     <g id="line2d_77"/>
    </g>
    <g id="ytick_56">
     <g id="line2d_78"/>
    </g>
    <g id="ytick_57">
     <g id="line2d_79"/>
    </g>
    <g id="ytick_58">
     <g id="line2d_80"/>
    </g>
    <g id="ytick_59">
     <g id="line2d_81"/>
    </g>
    <g id="ytick_60">
     <g id="line2d_82"/>
    </g>
    <g id="ytick_61">
     <g id="line2d_83"/>
    </g>
    <g id="ytick_62">
     <g id="line2d_84"/>
    </g>
    <g id="ytick_63">
     <g id="line2d_85"/>
    </g>
    <g id="ytick_64">
     <g id="line2d_86"/>
    </g>
    <g id="ytick_65">
     <g id="line2d_87"/>
    </g>
    <g id="ytick_66">
     <g id="line2d_88"/>
    </g>
    <g id="ytick_67">
     <g id="line2d_89"/>
    </g>
    <g id="ytick_68">
     <g id="line2d_90"/>
    </g>
   </g>
   <g id="line2d_91">
    <path clip-path="url(#p2de48439ac)" d="M 112.060114 539.890812 
L 112.061025 497.216366 
L 113.481111 497.216366 
L 114.901197 477.192674 
L 114.902535 539.890812 
M 120.58063 539.890812 
L 120.581541 497.216366 
L 123.421714 497.216366 
L 124.8418 465.479564 
L 124.843388 539.890812 
M 129.101147 539.890812 
L 129.102058 497.216366 
L 129.102969 539.890812 
M 136.201578 539.890812 
L 136.202489 497.216366 
L 136.2034 539.890812 
M 139.04175 539.890812 
L 139.042661 497.216366 
L 140.462748 497.216366 
L 140.463659 539.890812 
M 146.140763 539.890812 
L 146.143092 430.699099 
L 146.145421 539.890812 
M 150.402012 539.890812 
L 150.403351 477.192674 
L 151.823437 465.479564 
L 151.825025 539.890812 
M 156.081205 539.890812 
L 156.083695 423.119899 
L 157.503781 477.192674 
L 158.923867 418.98599 
L 158.926446 539.890812 
M 161.762137 539.890812 
L 161.76404 450.722792 
L 163.184126 450.722792 
L 164.604212 413.71907 
L 166.024298 417.121596 
L 167.444384 409.265953 
L 168.86447 393.695378 
L 170.284557 375.750862 
L 171.704643 369.564537 
L 173.124729 359.646296 
L 174.544815 359.156656 
L 175.964901 344.01406 
L 177.384987 335.488694 
L 178.805074 338.295569 
L 180.22516 323.775585 
L 181.645246 314.621494 
L 183.065332 309.061642 
L 184.485418 307.885802 
L 185.905504 300.484414 
L 187.32559 287.965171 
L 188.745677 271.849135 
L 190.165763 257.308292 
L 191.585849 247.799297 
L 193.005935 243.52077 
L 194.426021 235.689626 
L 195.846107 229.925539 
L 197.266193 229.92277 
L 198.68628 220.147802 
L 200.106366 215.821866 
L 201.526452 215.263072 
L 202.946538 209.623504 
L 204.366624 213.344553 
L 205.78671 209.076085 
L 207.206797 205.253962 
L 211.467055 197.260446 
L 212.887141 194.875784 
L 214.307227 203.974244 
L 215.727313 198.541647 
L 217.1474 199.087798 
L 218.567486 197.709058 
L 219.987572 195.206893 
L 221.407658 196.246047 
L 222.827744 197.799987 
L 224.24783 202.301565 
L 225.667916 203.802213 
L 227.088003 202.786676 
L 228.508089 199.378739 
L 229.928175 197.897599 
L 231.348261 197.992791 
L 232.768347 200.995837 
L 234.188433 204.294029 
L 235.608519 202.034601 
L 237.028606 204.089502 
L 238.448692 200.558689 
L 239.868778 195.985726 
L 241.288864 193.555002 
L 242.70895 195.450181 
L 244.129036 202.739093 
L 245.549123 206.839774 
L 246.969209 205.083537 
L 248.389295 202.934247 
L 249.809381 199.068759 
L 251.229467 195.820276 
L 252.649553 199.921495 
L 254.069639 203.389273 
L 255.489726 208.42022 
L 256.909812 206.209096 
L 258.329898 205.253962 
L 259.749984 200.914571 
L 261.17007 201.769036 
L 262.590156 204.830351 
L 264.010242 210.669322 
L 265.430329 214.78202 
L 266.850415 207.979012 
L 268.270501 209.515373 
L 269.690587 202.494847 
L 271.110673 203.282274 
L 272.530759 206.270083 
L 273.950845 212.584094 
L 275.370932 208.598342 
L 276.791018 209.74581 
L 278.211104 206.998366 
L 279.63119 203.842599 
L 281.051276 206.099644 
L 282.471362 208.020496 
L 283.891449 211.078865 
L 285.311535 212.453728 
L 288.151707 212.997247 
L 289.571793 207.705678 
L 290.991879 205.204494 
L 292.411965 206.591774 
L 293.832052 210.22207 
L 295.252138 208.505845 
L 296.672224 210.003098 
L 298.09231 211.142391 
L 299.512396 208.87896 
L 300.932482 200.68119 
L 302.352568 207.700546 
L 303.772655 213.195196 
L 305.192741 213.836953 
L 306.612827 212.903387 
L 308.032913 207.272642 
L 309.452999 206.833548 
L 310.873085 204.113289 
L 312.293171 204.294029 
L 313.713258 212.40839 
L 315.133344 210.955104 
L 316.55343 204.81061 
L 317.973516 203.930295 
L 320.813688 198.616496 
L 322.233775 197.523544 
L 323.653861 203.126347 
L 326.494033 194.907901 
L 327.914119 193.360664 
L 330.754291 187.360408 
L 333.594464 191.457442 
L 335.01455 191.466217 
L 336.434636 185.599824 
L 337.854722 184.668173 
L 339.274808 181.608271 
L 340.694894 180.790627 
L 342.114981 184.650259 
L 343.535067 187.847353 
L 344.955153 186.247611 
L 346.375239 182.385567 
L 347.795325 179.650405 
L 349.215411 179.440298 
L 350.635497 175.674808 
L 352.055584 179.041736 
L 353.47567 180.463444 
L 356.315842 176.808209 
L 357.735928 175.626157 
L 359.156014 172.677206 
L 360.576101 174.555268 
L 361.996187 178.230194 
L 363.416273 178.311721 
L 364.836359 179.44078 
L 366.256445 176.951679 
L 367.676531 175.041601 
L 369.096617 174.931212 
L 370.516704 173.51441 
L 371.93679 176.295805 
L 373.356876 182.314614 
L 374.776962 179.783844 
L 376.197048 177.924209 
L 377.617134 176.293209 
L 379.03722 175.37113 
L 380.457307 175.312532 
L 381.877393 180.955873 
L 383.297479 184.198587 
L 384.717565 186.145223 
L 386.137651 182.672751 
L 387.557737 182.579035 
L 388.977823 180.609238 
L 390.39791 178.83505 
L 391.817996 181.774615 
L 393.238082 185.545549 
L 394.658168 186.33505 
L 396.078254 182.776515 
L 397.49834 182.28213 
L 398.918427 182.397854 
L 400.338513 179.639717 
L 401.758599 184.227607 
L 403.178685 189.596384 
L 404.598771 192.946596 
L 406.018857 188.854599 
L 407.438943 189.001977 
L 410.279116 185.220251 
L 411.699202 187.680703 
L 413.119288 197.247041 
L 414.539374 190.809609 
L 415.95946 191.696063 
L 417.379546 187.493327 
L 418.799633 187.308425 
L 420.219719 186.710421 
L 421.639805 187.948843 
L 423.059891 196.283181 
L 424.479977 193.75699 
L 425.900063 188.314434 
L 427.320149 197.148037 
L 428.740236 186.816081 
L 430.160322 183.462996 
L 431.580408 189.516283 
L 433.000494 199.411461 
L 434.42058 204.486235 
L 438.680839 192.536103 
L 440.100925 186.094165 
L 441.521011 191.754365 
L 442.941097 196.358459 
L 444.361183 193.440435 
L 445.781269 191.671007 
L 447.201356 191.633464 
L 448.621442 187.499064 
L 450.041528 185.304039 
L 451.461614 189.82075 
L 452.8817 193.85931 
L 454.301786 181.926671 
L 455.721872 193.048399 
L 457.141959 190.000951 
L 458.562045 187.568004 
L 459.982131 182.121315 
L 461.402217 189.21499 
L 462.822303 193.12034 
L 464.242389 193.07236 
L 465.662475 188.546208 
L 467.082562 189.650595 
L 468.502648 186.801141 
L 469.922734 182.656032 
L 471.34282 185.966307 
L 472.762906 194.905429 
L 474.182992 178.24824 
L 475.603079 189.103569 
L 477.023165 182.961184 
L 478.443251 181.182976 
L 479.863337 179.890943 
L 482.703509 187.837031 
L 484.123595 185.823367 
L 485.543682 182.220458 
L 488.383854 176.918065 
L 489.80394 174.743243 
L 491.224026 183.101012 
L 492.644112 185.904099 
L 494.064198 176.879634 
L 495.484285 179.10222 
L 496.904371 177.415633 
L 498.324457 172.891356 
L 499.744543 169.224131 
L 501.164629 171.593224 
L 502.584715 179.524351 
L 504.004801 173.083097 
L 505.424888 173.177699 
L 509.685146 164.668191 
L 511.105232 169.594638 
L 512.525318 173.252358 
L 513.945405 166.4135 
L 515.365491 166.908438 
L 516.785577 162.385386 
L 518.205663 159.043984 
L 519.625749 156.430231 
L 521.045835 157.969253 
L 522.465921 163.659697 
L 523.886008 156.953001 
L 525.306094 154.961628 
L 526.72618 154.320746 
L 528.146266 150.40269 
L 529.566352 147.410745 
L 530.986438 151.227652 
L 532.406524 155.920599 
L 533.826611 149.891755 
L 535.246697 150.758113 
L 536.666783 148.915833 
L 538.086869 146.468424 
L 539.506955 144.768423 
L 540.927041 148.972564 
L 542.347127 154.737595 
L 543.767214 147.692886 
L 545.1873 147.988526 
L 546.607386 147.542356 
L 548.027472 163.806162 
L 549.447558 143.768435 
L 550.867644 152.697058 
L 552.287731 155.66848 
L 553.707817 149.670773 
L 556.547989 144.431951 
L 557.968075 142.148255 
L 559.388161 140.395202 
L 560.808247 143.798336 
L 562.228334 148.945191 
L 563.64842 143.992961 
L 565.068506 141.868642 
L 566.488592 141.887699 
L 567.908678 141.175454 
L 569.328764 134.827864 
L 570.74885 143.552742 
L 572.168937 146.979929 
L 573.589023 144.444444 
L 575.009109 144.180364 
L 576.429195 138.738817 
L 577.849281 139.529381 
L 579.269367 138.019176 
L 580.689453 145.498313 
L 582.10954 147.658672 
L 583.529626 144.374293 
L 584.949712 144.367559 
L 586.369798 140.848059 
L 587.789884 145.553634 
L 589.20997 164.350311 
L 590.630057 142.268828 
L 592.050143 152.516625 
L 593.470229 146.230463 
L 594.890315 144.449041 
L 596.310401 140.691859 
L 597.730487 140.439182 
L 599.150573 153.449492 
L 600.57066 133.735243 
L 601.990746 144.323614 
L 603.410832 137.934323 
L 604.830918 139.944294 
L 609.091176 132.833687 
L 610.511263 137.915182 
L 611.931349 143.426702 
L 613.351435 141.469001 
L 614.771521 140.60722 
L 616.191607 140.654673 
L 617.611693 139.508549 
L 619.03178 139.227096 
L 623.292038 154.368904 
L 624.712124 146.847572 
L 626.13221 146.560852 
L 627.552296 146.067739 
L 628.972383 145.824454 
L 630.392469 149.652879 
L 631.812555 157.157248 
L 633.232641 151.838593 
L 634.652727 152.607177 
L 636.072813 151.85084 
L 637.492899 150.119859 
L 638.912986 150.047576 
L 640.333072 156.195857 
L 641.753158 160.969059 
L 643.173244 154.940757 
L 644.59333 159.872395 
L 646.013416 159.353726 
L 647.433502 157.991054 
L 648.853589 157.145652 
L 650.273675 163.213702 
L 651.693761 168.54401 
L 653.113847 166.79488 
L 654.533933 165.665222 
L 655.954019 166.137048 
L 657.374106 163.056248 
L 658.794192 164.758001 
L 660.214278 169.417824 
L 661.634364 177.590197 
L 663.05445 181.705667 
L 664.474536 177.353191 
L 665.894622 174.861146 
L 667.314709 174.170484 
L 668.734795 171.794646 
L 670.154881 175.048229 
L 671.574967 181.798157 
L 672.995053 179.647004 
L 674.415139 174.199437 
L 675.835225 173.277677 
L 677.255312 171.880287 
L 678.675398 171.710734 
L 678.675398 171.710734 
" style="fill:none;stroke:#008fd5;stroke-width:4;"/>
   </g>
   <g id="line2d_92">
    <path clip-path="url(#p2de48439ac)" d="M 164.602874 539.890812 
L 164.604212 477.192674 
L 164.60555 539.890812 
M 167.443473 539.890812 
L 167.444384 497.216366 
L 167.445295 539.890812 
M 170.283646 539.890812 
L 170.284557 497.216366 
L 171.704643 465.479564 
L 173.124729 450.722792 
L 174.544815 497.216366 
L 175.964901 497.216366 
L 177.384987 433.742763 
L 178.805074 465.479564 
L 180.22516 410.675407 
L 181.645246 405.408487 
L 181.648113 539.890812 
M 184.482253 539.890812 
L 184.485418 391.383097 
L 185.905504 397.097904 
L 187.32559 374.901151 
L 188.745677 359.894264 
L 190.165763 361.958576 
L 191.585849 356.602633 
L 193.005935 344.15814 
L 194.426021 339.376746 
L 195.846107 341.14338 
L 197.266193 338.295569 
L 198.68628 317.458074 
L 200.106366 317.286631 
L 201.526452 307.154419 
L 202.946538 302.701301 
L 204.366624 300.548184 
L 205.78671 305.898217 
L 207.206797 296.337768 
L 208.626883 296.894932 
L 210.046969 291.660847 
L 211.467055 290.988192 
L 212.887141 290.601038 
L 214.307227 303.930767 
L 215.727313 290.55583 
L 217.1474 294.44235 
L 218.567486 299.115939 
L 219.987572 294.159509 
L 221.407658 293.854082 
L 222.827744 297.149205 
L 224.24783 301.456078 
L 225.667916 293.476783 
L 227.088003 311.991235 
L 228.508089 300.516281 
L 229.928175 303.894903 
L 231.348261 287.67752 
L 232.768347 306.401979 
L 234.188433 303.32706 
L 235.608519 306.207184 
L 237.028606 303.71625 
L 238.448692 321.38112 
L 239.868778 289.231469 
L 241.288864 301.193755 
L 242.70895 331.872971 
L 244.129036 308.425781 
L 245.549123 311.943839 
L 246.969209 307.639944 
L 248.389295 328.240593 
L 249.809381 317.804043 
L 251.229467 296.615007 
L 252.649553 306.558767 
L 254.069639 311.708017 
L 255.489726 303.432684 
L 256.909812 315.358207 
L 258.329898 314.260066 
L 259.749984 303.186827 
L 261.17007 326.308637 
L 262.590156 304.038625 
L 264.010242 312.663081 
L 265.430329 325.163649 
L 266.850415 299.421312 
L 268.270501 318.927774 
L 269.690587 303.82331 
L 271.110673 299.823186 
L 272.530759 309.104534 
L 273.950845 304.953461 
L 275.370932 302.223801 
L 276.791018 317.572937 
L 278.211104 316.168964 
L 279.63119 292.301513 
L 281.051276 304.990664 
L 282.471362 308.976047 
L 283.891449 306.362915 
L 285.311535 301.390273 
L 286.731621 317.172898 
L 288.151707 325.692334 
L 289.571793 310.064649 
L 290.991879 292.1102 
L 292.411965 299.854332 
L 293.832052 306.401979 
L 295.252138 309.363235 
L 296.672224 311.614224 
L 298.09231 289.710047 
L 299.512396 287.555113 
L 300.932482 289.974471 
L 302.352568 290.759827 
L 303.772655 292.883172 
L 305.192741 298.663847 
L 306.612827 295.016477 
L 309.452999 282.36974 
L 310.873085 279.092246 
L 312.293171 270.273554 
L 313.713258 277.410689 
L 315.133344 281.366581 
L 316.55343 268.096763 
L 317.973516 269.950779 
L 319.393602 264.000247 
L 320.813688 258.932182 
L 322.233775 257.265452 
L 323.653861 261.524212 
L 325.073947 266.649273 
L 326.494033 263.297253 
L 327.914119 248.359945 
L 329.334205 251.147891 
L 330.754291 234.377733 
L 332.174378 232.371742 
L 333.594464 235.740381 
L 335.01455 249.673632 
L 336.434636 245.459742 
L 337.854722 243.313148 
L 339.274808 230.834123 
L 340.694894 232.665578 
L 342.114981 227.215543 
L 343.535067 230.977361 
L 344.955153 244.330013 
L 346.375239 240.053294 
L 347.795325 231.179094 
L 349.215411 234.400356 
L 350.635497 227.278642 
L 352.055584 230.125611 
L 353.47567 218.862131 
L 354.895756 224.415953 
L 356.315842 233.574881 
L 357.735928 230.629101 
L 359.156014 221.499573 
L 360.576101 227.19538 
L 361.996187 230.214978 
L 363.416273 224.751998 
L 364.836359 230.161883 
L 366.256445 232.812094 
L 367.676531 231.775168 
L 369.096617 230.436796 
L 370.516704 224.83082 
L 371.93679 225.405248 
L 373.356876 233.107375 
L 374.776962 234.539717 
L 376.197048 233.461987 
L 377.617134 232.793739 
L 379.03722 231.274688 
L 380.457307 234.168503 
L 381.877393 232.200459 
L 383.297479 241.024917 
L 384.717565 252.640596 
L 386.137651 248.702694 
L 387.557737 248.899629 
L 388.977823 238.885823 
L 390.39791 238.750198 
L 391.817996 235.835363 
L 393.238082 244.82203 
L 394.658168 256.518912 
L 397.49834 237.202546 
L 398.918427 244.789585 
L 400.338513 245.200146 
L 401.758599 244.257155 
L 403.178685 259.259034 
L 404.598771 269.207776 
L 406.018857 258.8115 
L 407.438943 256.798364 
L 408.85903 253.863719 
L 410.279116 253.056964 
L 411.699202 255.454171 
L 413.119288 266.179219 
L 414.539374 274.135817 
L 415.95946 269.261763 
L 417.379546 263.883382 
L 418.799633 263.447092 
L 420.219719 258.985139 
L 421.639805 264.090466 
L 423.059891 270.251177 
L 424.479977 279.351608 
L 425.900063 239.193328 
L 427.320149 272.34989 
L 428.740236 260.894496 
L 430.160322 264.081431 
L 431.580408 260.214934 
L 434.42058 280.081026 
L 435.840666 280.31775 
L 437.260753 276.843125 
L 438.680839 270.251177 
L 440.100925 260.262382 
L 441.521011 264.153787 
L 442.941097 272.098428 
L 444.361183 281.730374 
L 445.781269 264.831813 
L 447.201356 272.920748 
L 448.621442 263.571075 
L 450.041528 264.027283 
L 451.461614 260.878322 
L 452.8817 270.953038 
L 454.301786 282.59176 
L 455.721872 271.543438 
L 457.141959 270.172996 
L 458.562045 270.724763 
L 459.982131 267.439954 
L 461.402217 267.972468 
L 462.822303 279.39762 
L 464.242389 306.441096 
L 465.662475 263.473615 
L 467.082562 278.401901 
L 468.502648 269.752234 
L 469.922734 269.402601 
L 471.34282 268.055272 
L 472.762906 279.613319 
L 474.182992 287.63666 
L 475.603079 274.225512 
L 477.023165 270.262363 
L 478.443251 263.12196 
L 479.863337 266.827534 
L 479.869147 539.890812 
M 482.697302 539.890812 
L 482.703509 248.052317 
L 484.123595 285.322809 
L 485.543682 268.705176 
L 486.963768 267.076958 
L 488.383854 262.688327 
L 489.80394 261.898685 
L 491.224026 257.301147 
L 492.644112 270.74751 
L 494.064198 282.217027 
L 495.484285 260.167563 
L 496.904371 275.632399 
L 498.324457 248.114621 
L 499.744543 259.955352 
L 501.164629 254.401426 
L 502.584715 272.555071 
L 504.004801 262.508125 
L 505.424888 255.541416 
L 506.844974 256.798364 
L 508.26506 256.221487 
L 509.685146 247.938442 
L 511.105232 273.216659 
L 512.525318 251.961694 
L 513.945405 253.261208 
L 515.365491 253.348296 
L 516.785577 254.713241 
L 518.205663 244.692466 
L 521.045835 254.52445 
L 522.465921 242.203509 
L 523.886008 258.171336 
L 525.306094 255.17409 
L 526.72618 246.694774 
L 528.146266 247.861056 
L 529.566352 241.728787 
L 530.986438 253.933566 
L 532.406524 230.845556 
L 533.826611 253.186771 
L 535.246697 239.616238 
L 536.666783 237.865592 
L 538.086869 233.919411 
L 539.506955 233.919411 
L 540.927041 236.1531 
L 542.347127 243.207701 
L 543.767214 244.352819 
L 545.1873 235.655839 
L 546.607386 236.26669 
L 546.613843 539.890812 
M 549.440656 539.890812 
L 549.447558 215.239744 
L 550.867644 244.600275 
L 552.287731 239.990451 
L 553.707817 242.893649 
L 555.127903 234.686283 
L 556.547989 231.164638 
L 557.968075 228.737409 
L 559.388161 230.640453 
L 560.808247 229.928308 
L 562.228334 236.060493 
L 563.64842 238.656387 
L 565.068506 237.647705 
L 566.488592 232.350652 
L 567.908678 227.527329 
L 569.328764 226.614232 
L 570.74885 229.526773 
L 572.168937 234.32609 
L 573.589023 236.005755 
L 575.009109 232.900976 
L 576.429195 227.007036 
L 577.849281 223.241078 
L 579.269367 223.568099 
L 580.689453 226.65624 
L 582.10954 236.180596 
L 583.529626 228.354605 
L 584.949712 229.920001 
L 586.369798 227.402718 
L 587.789884 223.243275 
L 587.796617 539.890812 
M 590.623166 539.890812 
L 590.630057 215.747185 
L 592.050143 239.880804 
L 593.470229 236.887213 
L 594.890315 225.700391 
L 596.310401 221.694679 
L 597.730487 215.494031 
L 597.737384 539.890812 
M 600.563393 539.890812 
L 600.57066 197.984541 
L 601.990746 229.455848 
L 603.410832 227.729371 
L 604.830918 218.615841 
L 606.251004 214.517649 
L 607.67109 211.390608 
L 609.091176 211.810581 
L 611.931349 225.136541 
L 613.351435 226.919561 
L 614.771521 219.635179 
L 616.191607 221.447904 
L 617.611693 222.01088 
L 619.03178 216.031665 
L 620.451866 225.595317 
L 621.871952 228.150763 
L 623.292038 237.586268 
L 626.13221 226.088156 
L 627.552296 223.851701 
L 628.972383 222.012985 
L 630.392469 225.141234 
L 631.812555 232.52283 
L 633.232641 235.103981 
L 634.652727 232.34463 
L 636.072813 236.156535 
L 637.492899 227.30392 
L 638.912986 228.457069 
L 640.333072 219.397622 
L 641.753158 238.369349 
L 643.173244 247.234193 
L 644.59333 229.647197 
L 646.013416 241.537749 
L 647.433502 238.656387 
L 648.853589 227.00203 
L 650.273675 239.511858 
L 651.693761 243.045887 
L 653.113847 247.198924 
L 654.533933 241.356192 
L 655.954019 239.315719 
L 657.374106 235.75732 
L 658.794192 239.010708 
L 660.214278 239.400165 
L 661.634364 248.755787 
L 663.05445 260.540728 
L 664.474536 244.508377 
L 665.894622 240.07296 
L 667.314709 250.502799 
L 668.734795 242.78972 
L 670.154881 240.317944 
L 671.574967 250.797867 
L 672.995053 256.546736 
L 674.415139 247.845604 
L 675.835225 240.927487 
L 677.255312 242.976193 
L 678.675398 246.28208 
L 678.675398 246.28208 
" style="fill:none;stroke:#fc4f30;stroke-width:4;"/>
   </g>
   <g id="patch_3">
    <path d="M 80.748125 515.4355 
L 80.748125 31.5955 
" style="fill:none;stroke:#f0f0f0;stroke-linecap:square;stroke-linejoin:miter;stroke-width:3;"/>
   </g>
   <g id="patch_4">
    <path d="M 80.748125 515.4355 
L 707.148125 515.4355 
" style="fill:none;stroke:#f0f0f0;stroke-linecap:square;stroke-linejoin:miter;stroke-width:3;"/>
   </g>
   <g id="text_16">
    <!-- New Cases of COVID-19 -->
    <g style="fill:#555555;" transform="translate(282.321575 21.5955)scale(0.2016 -0.2016)">
     <defs>
      <path d="M 7.703125 71.40625 
L 7.703125 0 
L 16.703125 0 
L 16.703125 57.296875 
L 16.90625 57.296875 
L 54.203125 0 
L 64.59375 0 
L 64.59375 71.40625 
L 55.59375 71.40625 
L 55.59375 13.5 
L 55.40625 13.5 
L 17.796875 71.40625 
z
" id="HelveticaNeue-78"/>
      <path d="M 42.296875 30.796875 
L 12.59375 30.796875 
Q 12.796875 33.796875 13.890625 36.4375 
Q 15 39.09375 16.890625 41.09375 
Q 18.796875 43.09375 21.4375 44.25 
Q 24.09375 45.40625 27.40625 45.40625 
Q 30.59375 45.40625 33.25 44.25 
Q 35.90625 43.09375 37.84375 41.140625 
Q 39.796875 39.203125 40.9375 36.5 
Q 42.09375 33.796875 42.296875 30.796875 
z
M 50.5 16.40625 
L 42.09375 16.40625 
Q 41 11.296875 37.546875 8.796875 
Q 34.09375 6.296875 28.703125 6.296875 
Q 24.5 6.296875 21.390625 7.6875 
Q 18.296875 9.09375 16.296875 11.4375 
Q 14.296875 13.796875 13.390625 16.84375 
Q 12.5 19.90625 12.59375 23.296875 
L 51.296875 23.296875 
Q 51.5 28 50.453125 33.203125 
Q 49.40625 38.40625 46.65625 42.796875 
Q 43.90625 47.203125 39.34375 50.046875 
Q 34.796875 52.90625 27.90625 52.90625 
Q 22.59375 52.90625 18.140625 50.90625 
Q 13.703125 48.90625 10.453125 45.296875 
Q 7.203125 41.703125 5.390625 36.796875 
Q 3.59375 31.90625 3.59375 26 
Q 3.796875 20.09375 5.34375 15.09375 
Q 6.90625 10.09375 10 6.5 
Q 13.09375 2.90625 17.640625 0.90625 
Q 22.203125 -1.09375 28.40625 -1.09375 
Q 37.203125 -1.09375 43 3.296875 
Q 48.796875 7.703125 50.5 16.40625 
z
" id="HelveticaNeue-101"/>
      <path d="M 57.59375 0 
L 74.09375 51.703125 
L 65.296875 51.703125 
L 53.703125 9.40625 
L 53.5 9.40625 
L 42.703125 51.703125 
L 33.40625 51.703125 
L 23 9.40625 
L 22.796875 9.40625 
L 11.09375 51.703125 
L 1.703125 51.703125 
L 18.296875 0 
L 27.5 0 
L 37.90625 41.09375 
L 38.09375 41.09375 
L 48.59375 0 
z
" id="HelveticaNeue-119"/>
      <path id="HelveticaNeue-32"/>
      <path d="M 58 49.90625 
L 67.5 49.90625 
Q 66.703125 55.59375 64.09375 59.9375 
Q 61.5 64.296875 57.59375 67.1875 
Q 53.703125 70.09375 48.703125 71.59375 
Q 43.703125 73.09375 38.09375 73.09375 
Q 29.90625 73.09375 23.546875 70.140625 
Q 17.203125 67.203125 12.953125 62.09375 
Q 8.703125 57 6.5 50.140625 
Q 4.296875 43.296875 4.296875 35.5 
Q 4.296875 27.703125 6.34375 20.890625 
Q 8.40625 14.09375 12.5 9.09375 
Q 16.59375 4.09375 22.796875 1.25 
Q 29 -1.59375 37.296875 -1.59375 
Q 51 -1.59375 58.890625 5.90625 
Q 66.796875 13.40625 68.203125 26.90625 
L 58.703125 26.90625 
Q 58.40625 22.5 56.90625 18.703125 
Q 55.40625 14.90625 52.75 12.15625 
Q 50.09375 9.40625 46.4375 7.84375 
Q 42.796875 6.296875 38.09375 6.296875 
Q 31.703125 6.296875 27.09375 8.6875 
Q 22.5 11.09375 19.546875 15.140625 
Q 16.59375 19.203125 15.1875 24.640625 
Q 13.796875 30.09375 13.796875 36.203125 
Q 13.796875 41.796875 15.1875 47 
Q 16.59375 52.203125 19.546875 56.25 
Q 22.5 60.296875 27.046875 62.6875 
Q 31.59375 65.09375 38 65.09375 
Q 45.5 65.09375 50.953125 61.296875 
Q 56.40625 57.5 58 49.90625 
z
" id="HelveticaNeue-67"/>
      <path d="M 52.203125 0.203125 
Q 50 -1.09375 46.09375 -1.09375 
Q 42.796875 -1.09375 40.84375 0.75 
Q 38.90625 2.59375 38.90625 6.796875 
Q 35.40625 2.59375 30.75 0.75 
Q 26.09375 -1.09375 20.703125 -1.09375 
Q 17.203125 -1.09375 14.046875 -0.296875 
Q 10.90625 0.5 8.59375 2.203125 
Q 6.296875 3.90625 4.9375 6.65625 
Q 3.59375 9.40625 3.59375 13.296875 
Q 3.59375 17.703125 5.09375 20.5 
Q 6.59375 23.296875 9.046875 25.046875 
Q 11.5 26.796875 14.640625 27.6875 
Q 17.796875 28.59375 21.09375 29.203125 
Q 24.59375 29.90625 27.75 30.25 
Q 30.90625 30.59375 33.296875 31.25 
Q 35.703125 31.90625 37.09375 33.15625 
Q 38.5 34.40625 38.5 36.796875 
Q 38.5 39.59375 37.453125 41.296875 
Q 36.40625 43 34.75 43.890625 
Q 33.09375 44.796875 31.046875 45.09375 
Q 29 45.40625 27 45.40625 
Q 21.59375 45.40625 18 43.34375 
Q 14.40625 41.296875 14.09375 35.59375 
L 5.59375 35.59375 
Q 5.796875 40.40625 7.59375 43.703125 
Q 9.40625 47 12.40625 49.046875 
Q 15.40625 51.09375 19.25 52 
Q 23.09375 52.90625 27.5 52.90625 
Q 31 52.90625 34.453125 52.40625 
Q 37.90625 51.90625 40.703125 50.34375 
Q 43.5 48.796875 45.203125 46 
Q 46.90625 43.203125 46.90625 38.703125 
L 46.90625 12.09375 
Q 46.90625 9.09375 47.25 7.6875 
Q 47.59375 6.296875 49.59375 6.296875 
Q 50.703125 6.296875 52.203125 6.796875 
z
M 38.40625 26.703125 
Q 36.796875 25.5 34.1875 24.953125 
Q 31.59375 24.40625 28.75 24.046875 
Q 25.90625 23.703125 23 23.25 
Q 20.09375 22.796875 17.796875 21.796875 
Q 15.5 20.796875 14.046875 18.9375 
Q 12.59375 17.09375 12.59375 13.90625 
Q 12.59375 11.796875 13.4375 10.34375 
Q 14.296875 8.90625 15.640625 8 
Q 17 7.09375 18.796875 6.6875 
Q 20.59375 6.296875 22.59375 6.296875 
Q 26.796875 6.296875 29.796875 7.4375 
Q 32.796875 8.59375 34.6875 10.34375 
Q 36.59375 12.09375 37.5 14.140625 
Q 38.40625 16.203125 38.40625 18 
z
" id="HelveticaNeue-97"/>
      <path d="M 11.59375 16.296875 
L 3.09375 16.296875 
Q 3.296875 11.5 5.09375 8.140625 
Q 6.90625 4.796875 9.90625 2.75 
Q 12.90625 0.703125 16.796875 -0.1875 
Q 20.703125 -1.09375 25 -1.09375 
Q 28.90625 -1.09375 32.84375 -0.34375 
Q 36.796875 0.40625 39.9375 2.296875 
Q 43.09375 4.203125 45.046875 7.296875 
Q 47 10.40625 47 15.09375 
Q 47 18.796875 45.546875 21.296875 
Q 44.09375 23.796875 41.75 25.4375 
Q 39.40625 27.09375 36.34375 28.09375 
Q 33.296875 29.09375 30.09375 29.796875 
Q 27.09375 30.5 24.09375 31.140625 
Q 21.09375 31.796875 18.6875 32.75 
Q 16.296875 33.703125 14.75 35.140625 
Q 13.203125 36.59375 13.203125 38.796875 
Q 13.203125 40.796875 14.203125 42.046875 
Q 15.203125 43.296875 16.796875 44.046875 
Q 18.40625 44.796875 20.34375 45.09375 
Q 22.296875 45.40625 24.203125 45.40625 
Q 26.296875 45.40625 28.34375 44.953125 
Q 30.40625 44.5 32.09375 43.5 
Q 33.796875 42.5 34.890625 40.84375 
Q 36 39.203125 36.203125 36.703125 
L 44.703125 36.703125 
Q 44.40625 41.40625 42.703125 44.546875 
Q 41 47.703125 38.140625 49.546875 
Q 35.296875 51.40625 31.59375 52.15625 
Q 27.90625 52.90625 23.5 52.90625 
Q 20.09375 52.90625 16.640625 52.046875 
Q 13.203125 51.203125 10.453125 49.453125 
Q 7.703125 47.703125 5.953125 44.890625 
Q 4.203125 42.09375 4.203125 38.203125 
Q 4.203125 33.203125 6.703125 30.390625 
Q 9.203125 27.59375 12.953125 26.046875 
Q 16.703125 24.5 21.09375 23.640625 
Q 25.5 22.796875 29.25 21.75 
Q 33 20.703125 35.5 19 
Q 38 17.296875 38 14 
Q 38 11.59375 36.796875 10.046875 
Q 35.59375 8.5 33.75 7.703125 
Q 31.90625 6.90625 29.703125 6.59375 
Q 27.5 6.296875 25.5 6.296875 
Q 22.90625 6.296875 20.453125 6.796875 
Q 18 7.296875 16.046875 8.4375 
Q 14.09375 9.59375 12.890625 11.546875 
Q 11.703125 13.5 11.59375 16.296875 
z
" id="HelveticaNeue-115"/>
      <path d="M 12.59375 25.796875 
Q 12.59375 30.5 13.84375 34.140625 
Q 15.09375 37.796875 17.296875 40.296875 
Q 19.5 42.796875 22.453125 44.09375 
Q 25.40625 45.40625 28.703125 45.40625 
Q 32 45.40625 34.953125 44.09375 
Q 37.90625 42.796875 40.09375 40.296875 
Q 42.296875 37.796875 43.546875 34.140625 
Q 44.796875 30.5 44.796875 25.796875 
Q 44.796875 21.09375 43.546875 17.4375 
Q 42.296875 13.796875 40.09375 11.34375 
Q 37.90625 8.90625 34.953125 7.59375 
Q 32 6.296875 28.703125 6.296875 
Q 25.40625 6.296875 22.453125 7.59375 
Q 19.5 8.90625 17.296875 11.34375 
Q 15.09375 13.796875 13.84375 17.4375 
Q 12.59375 21.09375 12.59375 25.796875 
z
M 3.59375 25.796875 
Q 3.59375 20.09375 5.1875 15.1875 
Q 6.796875 10.296875 10 6.640625 
Q 13.203125 3 17.890625 0.953125 
Q 22.59375 -1.09375 28.703125 -1.09375 
Q 34.90625 -1.09375 39.546875 0.953125 
Q 44.203125 3 47.390625 6.640625 
Q 50.59375 10.296875 52.1875 15.1875 
Q 53.796875 20.09375 53.796875 25.796875 
Q 53.796875 31.5 52.1875 36.453125 
Q 50.59375 41.40625 47.390625 45.046875 
Q 44.203125 48.703125 39.546875 50.796875 
Q 34.90625 52.90625 28.703125 52.90625 
Q 22.59375 52.90625 17.890625 50.796875 
Q 13.203125 48.703125 10 45.046875 
Q 6.796875 41.40625 5.1875 36.453125 
Q 3.59375 31.5 3.59375 25.796875 
z
" id="HelveticaNeue-111"/>
      <path d="M 9.90625 44.203125 
L 9.90625 0 
L 18.40625 0 
L 18.40625 44.203125 
L 28.40625 44.203125 
L 28.40625 51.703125 
L 18.40625 51.703125 
L 18.40625 58.90625 
Q 18.40625 62.296875 20.09375 63.5 
Q 21.796875 64.703125 24.90625 64.703125 
Q 26 64.703125 27.296875 64.546875 
Q 28.59375 64.40625 29.703125 64 
L 29.703125 71.40625 
Q 28.5 71.796875 26.953125 72 
Q 25.40625 72.203125 24.203125 72.203125 
Q 17.203125 72.203125 13.546875 68.953125 
Q 9.90625 65.703125 9.90625 59.40625 
L 9.90625 51.703125 
L 1.203125 51.703125 
L 1.203125 44.203125 
z
" id="HelveticaNeue-102"/>
      <path d="M 13.296875 35.703125 
Q 13.296875 41.09375 14.6875 46.34375 
Q 16.09375 51.59375 19.09375 55.796875 
Q 22.09375 60 26.796875 62.546875 
Q 31.5 65.09375 38 65.09375 
Q 44.5 65.09375 49.203125 62.546875 
Q 53.90625 60 56.90625 55.796875 
Q 59.90625 51.59375 61.296875 46.34375 
Q 62.703125 41.09375 62.703125 35.703125 
Q 62.703125 30.296875 61.296875 25.046875 
Q 59.90625 19.796875 56.90625 15.59375 
Q 53.90625 11.40625 49.203125 8.84375 
Q 44.5 6.296875 38 6.296875 
Q 31.5 6.296875 26.796875 8.84375 
Q 22.09375 11.40625 19.09375 15.59375 
Q 16.09375 19.796875 14.6875 25.046875 
Q 13.296875 30.296875 13.296875 35.703125 
z
M 3.796875 35.703125 
Q 3.796875 28.40625 5.9375 21.65625 
Q 8.09375 14.90625 12.390625 9.703125 
Q 16.703125 4.5 23.09375 1.453125 
Q 29.5 -1.59375 38 -1.59375 
Q 46.5 -1.59375 52.890625 1.453125 
Q 59.296875 4.5 63.59375 9.703125 
Q 67.90625 14.90625 70.046875 21.65625 
Q 72.203125 28.40625 72.203125 35.703125 
Q 72.203125 43 70.046875 49.75 
Q 67.90625 56.5 63.59375 61.703125 
Q 59.296875 66.90625 52.890625 70 
Q 46.5 73.09375 38 73.09375 
Q 29.5 73.09375 23.09375 70 
Q 16.703125 66.90625 12.390625 61.703125 
Q 8.09375 56.5 5.9375 49.75 
Q 3.796875 43 3.796875 35.703125 
z
" id="HelveticaNeue-79"/>
      <path d="M 35.90625 0 
L 61.296875 71.40625 
L 51.40625 71.40625 
L 30.796875 9.5 
L 30.59375 9.5 
L 10.203125 71.40625 
L 0 71.40625 
L 25.09375 0 
z
" id="HelveticaNeue-86"/>
      <path d="M 8.203125 71.40625 
L 8.203125 0 
L 17.703125 0 
L 17.703125 71.40625 
z
" id="HelveticaNeue-73"/>
      <path d="M 17.296875 8 
L 17.296875 63.40625 
L 33.296875 63.40625 
Q 39.90625 63.40625 44.40625 61.546875 
Q 48.90625 59.703125 51.75 56.140625 
Q 54.59375 52.59375 55.84375 47.546875 
Q 57.09375 42.5 57.09375 36.09375 
Q 57.09375 29.5 55.75 24.84375 
Q 54.40625 20.203125 52.296875 17.09375 
Q 50.203125 14 47.546875 12.203125 
Q 44.90625 10.40625 42.203125 9.453125 
Q 39.5 8.5 37.09375 8.25 
Q 34.703125 8 33.09375 8 
z
M 7.796875 71.40625 
L 7.796875 0 
L 32.296875 0 
Q 41.203125 0 47.703125 2.5 
Q 54.203125 5 58.390625 9.75 
Q 62.59375 14.5 64.59375 21.453125 
Q 66.59375 28.40625 66.59375 37.40625 
Q 66.59375 54.59375 57.6875 63 
Q 48.796875 71.40625 32.296875 71.40625 
z
" id="HelveticaNeue-68"/>
     </defs>
     <use xlink:href="#HelveticaNeue-78"/>
     <use x="72.199982" xlink:href="#HelveticaNeue-101"/>
     <use x="125.899979" xlink:href="#HelveticaNeue-119"/>
     <use x="201.699966" xlink:href="#HelveticaNeue-32"/>
     <use x="229.499954" xlink:href="#HelveticaNeue-67"/>
     <use x="301.699936" xlink:href="#HelveticaNeue-97"/>
     <use x="355.399933" xlink:href="#HelveticaNeue-115"/>
     <use x="405.399918" xlink:href="#HelveticaNeue-101"/>
     <use x="459.099915" xlink:href="#HelveticaNeue-115"/>
     <use x="509.099899" xlink:href="#HelveticaNeue-32"/>
     <use x="536.899887" xlink:href="#HelveticaNeue-111"/>
     <use x="594.299881" xlink:href="#HelveticaNeue-102"/>
     <use x="623.899872" xlink:href="#HelveticaNeue-32"/>
     <use x="651.69986" xlink:href="#HelveticaNeue-67"/>
     <use x="723.899841" xlink:href="#HelveticaNeue-79"/>
     <use x="799.899826" xlink:href="#HelveticaNeue-86"/>
     <use x="860.999817" xlink:href="#HelveticaNeue-73"/>
     <use x="886.899811" xlink:href="#HelveticaNeue-68"/>
     <use x="957.299805" xlink:href="#HelveticaNeue-45"/>
     <use x="996.199799" xlink:href="#HelveticaNeue-49"/>
     <use x="1051.799789" xlink:href="#HelveticaNeue-57"/>
    </g>
   </g>
   <g id="legend_1">
    <g id="line2d_93">
     <path d="M 570.298125 49.292375 
L 598.298125 49.292375 
" style="fill:none;stroke:#008fd5;stroke-width:4;"/>
    </g>
    <g id="line2d_94"/>
    <g id="text_17">
     <!-- United States -->
     <g style="fill:#555555;" transform="translate(609.498125 54.192375)scale(0.14 -0.14)">
      <defs>
       <path d="M 64.796875 25.796875 
L 64.796875 71.40625 
L 55.296875 71.40625 
L 55.296875 25.796875 
Q 55.296875 16.203125 50.546875 11.25 
Q 45.796875 6.296875 36.703125 6.296875 
Q 27.09375 6.296875 22 11.25 
Q 16.90625 16.203125 16.90625 25.796875 
L 16.90625 71.40625 
L 7.40625 71.40625 
L 7.40625 25.796875 
Q 7.40625 11.5 15.15625 4.953125 
Q 22.90625 -1.59375 36.703125 -1.59375 
Q 50.203125 -1.59375 57.5 5.25 
Q 64.796875 12.09375 64.796875 25.796875 
z
" id="HelveticaNeue-85"/>
       <path d="M 6.40625 51.703125 
L 6.40625 0 
L 14.90625 0 
L 14.90625 29.203125 
Q 14.90625 32.703125 15.84375 35.640625 
Q 16.796875 38.59375 18.6875 40.796875 
Q 20.59375 43 23.4375 44.203125 
Q 26.296875 45.40625 30.203125 45.40625 
Q 35.09375 45.40625 37.890625 42.59375 
Q 40.703125 39.796875 40.703125 35 
L 40.703125 0 
L 49.203125 0 
L 49.203125 34 
Q 49.203125 38.203125 48.34375 41.640625 
Q 47.5 45.09375 45.390625 47.59375 
Q 43.296875 50.09375 39.890625 51.5 
Q 36.5 52.90625 31.40625 52.90625 
Q 19.90625 52.90625 14.59375 43.5 
L 14.40625 43.5 
L 14.40625 51.703125 
z
" id="HelveticaNeue-110"/>
       <path d="M 15.40625 61 
L 15.40625 71.40625 
L 6.90625 71.40625 
L 6.90625 61 
z
M 6.90625 51.703125 
L 6.90625 0 
L 15.40625 0 
L 15.40625 51.703125 
z
" id="HelveticaNeue-105"/>
       <path d="M 18.203125 51.703125 
L 18.203125 67.203125 
L 9.703125 67.203125 
L 9.703125 51.703125 
L 0.90625 51.703125 
L 0.90625 44.203125 
L 9.703125 44.203125 
L 9.703125 11.296875 
Q 9.703125 7.703125 10.390625 5.5 
Q 11.09375 3.296875 12.546875 2.09375 
Q 14 0.90625 16.34375 0.453125 
Q 18.703125 0 22 0 
L 28.5 0 
L 28.5 7.5 
L 24.59375 7.5 
Q 22.59375 7.5 21.34375 7.640625 
Q 20.09375 7.796875 19.390625 8.296875 
Q 18.703125 8.796875 18.453125 9.6875 
Q 18.203125 10.59375 18.203125 12.09375 
L 18.203125 44.203125 
L 28.5 44.203125 
L 28.5 51.703125 
z
" id="HelveticaNeue-116"/>
       <path d="M 12.59375 25.40625 
Q 12.59375 29.203125 13.390625 32.796875 
Q 14.203125 36.40625 16 39.203125 
Q 17.796875 42 20.796875 43.703125 
Q 23.796875 45.40625 28.09375 45.40625 
Q 32.5 45.40625 35.59375 43.75 
Q 38.703125 42.09375 40.640625 39.390625 
Q 42.59375 36.703125 43.5 33.140625 
Q 44.40625 29.59375 44.40625 25.796875 
Q 44.40625 22.203125 43.546875 18.703125 
Q 42.703125 15.203125 40.796875 12.453125 
Q 38.90625 9.703125 35.90625 8 
Q 32.90625 6.296875 28.59375 6.296875 
Q 24.5 6.296875 21.453125 7.890625 
Q 18.40625 9.5 16.453125 12.203125 
Q 14.5 14.90625 13.546875 18.34375 
Q 12.59375 21.796875 12.59375 25.40625 
z
M 52.59375 0 
L 52.59375 71.40625 
L 44.09375 71.40625 
L 44.09375 44.796875 
L 43.90625 44.796875 
Q 42.5 47.09375 40.453125 48.640625 
Q 38.40625 50.203125 36.09375 51.140625 
Q 33.796875 52.09375 31.5 52.5 
Q 29.203125 52.90625 27.203125 52.90625 
Q 21.296875 52.90625 16.84375 50.75 
Q 12.40625 48.59375 9.453125 44.9375 
Q 6.5 41.296875 5.046875 36.390625 
Q 3.59375 31.5 3.59375 26 
Q 3.59375 20.5 5.09375 15.59375 
Q 6.59375 10.703125 9.546875 7 
Q 12.5 3.296875 16.953125 1.09375 
Q 21.40625 -1.09375 27.40625 -1.09375 
Q 32.796875 -1.09375 37.296875 0.796875 
Q 41.796875 2.703125 43.90625 7 
L 44.09375 7 
L 44.09375 0 
z
" id="HelveticaNeue-100"/>
       <path d="M 49.09375 50.5 
L 58.09375 50.5 
Q 57.90625 56.40625 55.84375 60.65625 
Q 53.796875 64.90625 50.25 67.703125 
Q 46.703125 70.5 42 71.796875 
Q 37.296875 73.09375 31.796875 73.09375 
Q 26.90625 73.09375 22.25 71.84375 
Q 17.59375 70.59375 13.9375 68.046875 
Q 10.296875 65.5 8.09375 61.546875 
Q 5.90625 57.59375 5.90625 52.203125 
Q 5.90625 47.296875 7.84375 44.046875 
Q 9.796875 40.796875 13.046875 38.75 
Q 16.296875 36.703125 20.390625 35.453125 
Q 24.5 34.203125 28.75 33.25 
Q 33 32.296875 37.09375 31.390625 
Q 41.203125 30.5 44.453125 29.046875 
Q 47.703125 27.59375 49.640625 25.296875 
Q 51.59375 23 51.59375 19.296875 
Q 51.59375 15.40625 50 12.90625 
Q 48.40625 10.40625 45.796875 8.953125 
Q 43.203125 7.5 39.953125 6.890625 
Q 36.703125 6.296875 33.5 6.296875 
Q 29.5 6.296875 25.703125 7.296875 
Q 21.90625 8.296875 19.046875 10.390625 
Q 16.203125 12.5 14.453125 15.75 
Q 12.703125 19 12.703125 23.5 
L 3.703125 23.5 
Q 3.703125 17 6.046875 12.25 
Q 8.40625 7.5 12.453125 4.453125 
Q 16.5 1.40625 21.84375 -0.09375 
Q 27.203125 -1.59375 33.203125 -1.59375 
Q 38.09375 -1.59375 43.046875 -0.4375 
Q 48 0.703125 52 3.25 
Q 56 5.796875 58.546875 9.84375 
Q 61.09375 13.90625 61.09375 19.59375 
Q 61.09375 24.90625 59.140625 28.40625 
Q 57.203125 31.90625 53.953125 34.203125 
Q 50.703125 36.5 46.59375 37.84375 
Q 42.5 39.203125 38.25 40.203125 
Q 34 41.203125 29.890625 42.046875 
Q 25.796875 42.90625 22.546875 44.203125 
Q 19.296875 45.5 17.34375 47.546875 
Q 15.40625 49.59375 15.40625 52.90625 
Q 15.40625 56.40625 16.75 58.75 
Q 18.09375 61.09375 20.34375 62.5 
Q 22.59375 63.90625 25.5 64.5 
Q 28.40625 65.09375 31.40625 65.09375 
Q 38.796875 65.09375 43.546875 61.640625 
Q 48.296875 58.203125 49.09375 50.5 
z
" id="HelveticaNeue-83"/>
      </defs>
      <use xlink:href="#HelveticaNeue-85"/>
      <use x="72.199982" xlink:href="#HelveticaNeue-110"/>
      <use x="127.799973" xlink:href="#HelveticaNeue-105"/>
      <use x="149.999969" xlink:href="#HelveticaNeue-116"/>
      <use x="181.499954" xlink:href="#HelveticaNeue-101"/>
      <use x="235.199951" xlink:href="#HelveticaNeue-100"/>
      <use x="294.499939" xlink:href="#HelveticaNeue-32"/>
      <use x="322.299927" xlink:href="#HelveticaNeue-83"/>
      <use x="387.099915" xlink:href="#HelveticaNeue-116"/>
      <use x="418.599899" xlink:href="#HelveticaNeue-97"/>
      <use x="472.299896" xlink:href="#HelveticaNeue-116"/>
      <use x="503.799881" xlink:href="#HelveticaNeue-101"/>
      <use x="557.499878" xlink:href="#HelveticaNeue-115"/>
     </g>
    </g>
    <g id="line2d_95">
     <path d="M 570.298125 69.047687 
L 598.298125 69.047687 
" style="fill:none;stroke:#fc4f30;stroke-width:4;"/>
    </g>
    <g id="line2d_96"/>
    <g id="text_18">
     <!-- Florida -->
     <g style="fill:#555555;" transform="translate(609.498125 73.947687)scale(0.14 -0.14)">
      <defs>
       <path d="M 7.796875 71.40625 
L 7.796875 0 
L 17.296875 0 
L 17.296875 32.703125 
L 50.09375 32.703125 
L 50.09375 40.703125 
L 17.296875 40.703125 
L 17.296875 63.40625 
L 54.703125 63.40625 
L 54.703125 71.40625 
z
" id="HelveticaNeue-70"/>
       <path d="M 6.90625 71.40625 
L 6.90625 0 
L 15.40625 0 
L 15.40625 71.40625 
z
" id="HelveticaNeue-108"/>
       <path d="M 6.09375 51.703125 
L 6.09375 0 
L 14.59375 0 
L 14.59375 23 
Q 14.59375 28 15.59375 31.84375 
Q 16.59375 35.703125 18.796875 38.390625 
Q 21 41.09375 24.59375 42.5 
Q 28.203125 43.90625 33.296875 43.90625 
L 33.296875 52.90625 
Q 26.40625 53.09375 21.90625 50.09375 
Q 17.40625 47.09375 14.296875 40.796875 
L 14.09375 40.796875 
L 14.09375 51.703125 
z
" id="HelveticaNeue-114"/>
      </defs>
      <use xlink:href="#HelveticaNeue-70"/>
      <use x="57.399994" xlink:href="#HelveticaNeue-108"/>
      <use x="79.599991" xlink:href="#HelveticaNeue-111"/>
      <use x="136.999985" xlink:href="#HelveticaNeue-114"/>
      <use x="170.299973" xlink:href="#HelveticaNeue-105"/>
      <use x="192.499969" xlink:href="#HelveticaNeue-100"/>
      <use x="251.799957" xlink:href="#HelveticaNeue-97"/>
     </g>
    </g>
   </g>
  </g>
 </g>
 <defs>
  <clipPath id="p2de48439ac">
   <rect height="483.84" width="626.4" x="80.748125" y="31.5955"/>
  </clipPath>
 </defs>
</svg>
