<?xml version="1.0" encoding="utf-8" standalone="no"?>
<!DOCTYPE svg PUBLIC "-//W3C//DTD SVG 1.1//EN"
  "http://www.w3.org/Graphics/SVG/1.1/DTD/svg11.dtd">
<!-- Created with matplotlib (https://matplotlib.org/) -->
<svg height="538.890812pt" version="1.1" viewBox="0 0 725.242869 538.890812" width="725.242869pt" xmlns="http://www.w3.org/2000/svg" xmlns:xlink="http://www.w3.org/1999/xlink">
 <metadata>
  <rdf:RDF xmlns:cc="http://creativecommons.org/ns#" xmlns:dc="http://purl.org/dc/elements/1.1/" xmlns:rdf="http://www.w3.org/1999/02/22-rdf-syntax-ns#">
   <cc:Work>
    <dc:type rdf:resource="http://purl.org/dc/dcmitype/StillImage"/>
    <dc:date>2021-06-20T18:24:28.774892</dc:date>
    <dc:format>image/svg+xml</dc:format>
    <dc:creator>
     <cc:Agent>
      <dc:title>Matplotlib v3.3.4, https://matplotlib.org/</dc:title>
     </cc:Agent>
    </dc:creator>
   </cc:Work>
  </rdf:RDF>
 </metadata>
 <defs>
  <style type="text/css">*{stroke-linecap:butt;stroke-linejoin:round;}</style>
 </defs>
 <g id="figure_1">
  <g id="patch_1">
   <path d="M 0 538.890812 
L 725.242869 538.890812 
L 725.242869 0 
L 0 0 
z
" style="fill:#f0f0f0;"/>
  </g>
  <g id="axes_1">
   <g id="patch_2">
    <path d="M 80.748125 515.4355 
L 707.148125 515.4355 
L 707.148125 31.5955 
L 80.748125 31.5955 
z
" style="fill:#f0f0f0;"/>
   </g>
   <g id="matplotlib.axis_1">
    <g id="xtick_1">
     <g id="line2d_1">
      <path clip-path="url(#p5b2f5e4c82)" d="M 85.9552 515.4355 
L 85.9552 31.5955 
" style="fill:none;stroke:#cbcbcb;"/>
     </g>
     <g id="line2d_2"/>
     <g id="text_1">
      <!-- 2020-01 -->
      <g style="fill:#555555;" transform="translate(59.882387 528.932375)scale(0.14 -0.14)">
       <defs>
        <path d="M 4.40625 45.796875 
L 12.90625 45.796875 
Q 12.796875 49 13.546875 52.140625 
Q 14.296875 55.296875 16 57.796875 
Q 17.703125 60.296875 20.34375 61.84375 
Q 23 63.40625 26.703125 63.40625 
Q 29.5 63.40625 32 62.5 
Q 34.5 61.59375 36.34375 59.890625 
Q 38.203125 58.203125 39.296875 55.84375 
Q 40.40625 53.5 40.40625 50.59375 
Q 40.40625 46.90625 39.25 44.09375 
Q 38.09375 41.296875 35.84375 38.890625 
Q 33.59375 36.5 30.1875 34.140625 
Q 26.796875 31.796875 22.296875 29 
Q 18.59375 26.796875 15.1875 24.296875 
Q 11.796875 21.796875 9.09375 18.5 
Q 6.40625 15.203125 4.65625 10.75 
Q 2.90625 6.296875 2.40625 0 
L 48.703125 0 
L 48.703125 7.5 
L 12.296875 7.5 
Q 12.90625 10.796875 14.84375 13.34375 
Q 16.796875 15.90625 19.546875 18.09375 
Q 22.296875 20.296875 25.59375 22.25 
Q 28.90625 24.203125 32.203125 26.203125 
Q 35.5 28.296875 38.59375 30.59375 
Q 41.703125 32.90625 44.09375 35.75 
Q 46.5 38.59375 47.953125 42.1875 
Q 49.40625 45.796875 49.40625 50.5 
Q 49.40625 55.5 47.65625 59.296875 
Q 45.90625 63.09375 42.90625 65.640625 
Q 39.90625 68.203125 35.84375 69.546875 
Q 31.796875 70.90625 27.203125 70.90625 
Q 21.59375 70.90625 17.1875 69 
Q 12.796875 67.09375 9.84375 63.75 
Q 6.90625 60.40625 5.5 55.796875 
Q 4.09375 51.203125 4.40625 45.796875 
z
" id="HelveticaNeue-50"/>
        <path d="M 13.203125 34.90625 
Q 13.203125 37.5 13.25 40.640625 
Q 13.296875 43.796875 13.75 46.9375 
Q 14.203125 50.09375 15.046875 53.09375 
Q 15.90625 56.09375 17.546875 58.34375 
Q 19.203125 60.59375 21.703125 62 
Q 24.203125 63.40625 27.796875 63.40625 
Q 31.40625 63.40625 33.90625 62 
Q 36.40625 60.59375 38.046875 58.34375 
Q 39.703125 56.09375 40.546875 53.09375 
Q 41.40625 50.09375 41.84375 46.9375 
Q 42.296875 43.796875 42.34375 40.640625 
Q 42.40625 37.5 42.40625 34.90625 
Q 42.40625 30.90625 42.15625 25.953125 
Q 41.90625 21 40.546875 16.640625 
Q 39.203125 12.296875 36.203125 9.296875 
Q 33.203125 6.296875 27.796875 6.296875 
Q 22.40625 6.296875 19.40625 9.296875 
Q 16.40625 12.296875 15.046875 16.640625 
Q 13.703125 21 13.453125 25.953125 
Q 13.203125 30.90625 13.203125 34.90625 
z
M 4.203125 34.796875 
Q 4.203125 30.90625 4.390625 26.703125 
Q 4.59375 22.5 5.390625 18.5 
Q 6.203125 14.5 7.703125 10.953125 
Q 9.203125 7.40625 11.796875 4.703125 
Q 14.40625 2 18.34375 0.453125 
Q 22.296875 -1.09375 27.796875 -1.09375 
Q 33.40625 -1.09375 37.296875 0.453125 
Q 41.203125 2 43.796875 4.703125 
Q 46.40625 7.40625 47.90625 10.953125 
Q 49.40625 14.5 50.203125 18.5 
Q 51 22.5 51.203125 26.703125 
Q 51.40625 30.90625 51.40625 34.796875 
Q 51.40625 38.703125 51.203125 42.890625 
Q 51 47.09375 50.203125 51.09375 
Q 49.40625 55.09375 47.90625 58.6875 
Q 46.40625 62.296875 43.796875 65 
Q 41.203125 67.703125 37.25 69.296875 
Q 33.296875 70.90625 27.796875 70.90625 
Q 22.296875 70.90625 18.34375 69.296875 
Q 14.40625 67.703125 11.796875 65 
Q 9.203125 62.296875 7.703125 58.6875 
Q 6.203125 55.09375 5.390625 51.09375 
Q 4.59375 47.09375 4.390625 42.890625 
Q 4.203125 38.703125 4.203125 34.796875 
z
" id="HelveticaNeue-48"/>
        <path d="M 5 31.796875 
L 5 23.796875 
L 33.90625 23.796875 
L 33.90625 31.796875 
z
" id="HelveticaNeue-45"/>
        <path d="M 35.59375 0 
L 35.59375 70.90625 
L 29.09375 70.90625 
Q 28.40625 66.90625 26.5 64.296875 
Q 24.59375 61.703125 21.84375 60.203125 
Q 19.09375 58.703125 15.6875 58.140625 
Q 12.296875 57.59375 8.703125 57.59375 
L 8.703125 50.796875 
L 27.09375 50.796875 
L 27.09375 0 
z
" id="HelveticaNeue-49"/>
       </defs>
       <use xlink:href="#HelveticaNeue-50"/>
       <use x="55.599991" xlink:href="#HelveticaNeue-48"/>
       <use x="111.199982" xlink:href="#HelveticaNeue-50"/>
       <use x="166.799973" xlink:href="#HelveticaNeue-48"/>
       <use x="222.399963" xlink:href="#HelveticaNeue-45"/>
       <use x="261.299957" xlink:href="#HelveticaNeue-48"/>
       <use x="316.899948" xlink:href="#HelveticaNeue-49"/>
      </g>
     </g>
    </g>
    <g id="xtick_2">
     <g id="line2d_3">
      <path clip-path="url(#p5b2f5e4c82)" d="M 152.428493 515.4355 
L 152.428493 31.5955 
" style="fill:none;stroke:#cbcbcb;"/>
     </g>
     <g id="line2d_4"/>
     <g id="text_2">
      <!-- 2020-03 -->
      <g style="fill:#555555;" transform="translate(126.35568 528.932375)scale(0.14 -0.14)">
       <defs>
        <path d="M 21.796875 40.5 
L 21.796875 33.296875 
Q 24.203125 33.59375 26.90625 33.59375 
Q 30.09375 33.59375 32.84375 32.75 
Q 35.59375 31.90625 37.59375 30.15625 
Q 39.59375 28.40625 40.796875 25.84375 
Q 42 23.296875 42 20 
Q 42 16.796875 40.75 14.25 
Q 39.5 11.703125 37.390625 9.953125 
Q 35.296875 8.203125 32.5 7.25 
Q 29.703125 6.296875 26.59375 6.296875 
Q 19.296875 6.296875 15.5 10.640625 
Q 11.703125 15 11.5 21.90625 
L 3 21.90625 
Q 2.90625 16.40625 4.546875 12.09375 
Q 6.203125 7.796875 9.296875 4.84375 
Q 12.40625 1.90625 16.796875 0.40625 
Q 21.203125 -1.09375 26.59375 -1.09375 
Q 31.59375 -1.09375 36.046875 0.25 
Q 40.5 1.59375 43.796875 4.296875 
Q 47.09375 7 49.046875 11.046875 
Q 51 15.09375 51 20.40625 
Q 51 26.796875 47.84375 31.5 
Q 44.703125 36.203125 38.203125 37.59375 
L 38.203125 37.796875 
Q 42.40625 39.703125 45.203125 43.390625 
Q 48 47.09375 48 51.90625 
Q 48 56.796875 46.34375 60.390625 
Q 44.703125 64 41.796875 66.296875 
Q 38.90625 68.59375 34.953125 69.75 
Q 31 70.90625 26.40625 70.90625 
Q 21.09375 70.90625 17.046875 69.203125 
Q 13 67.5 10.296875 64.5 
Q 7.59375 61.5 6.140625 57.296875 
Q 4.703125 53.09375 4.5 48 
L 13 48 
Q 13 51.09375 13.796875 53.890625 
Q 14.59375 56.703125 16.25 58.796875 
Q 17.90625 60.90625 20.453125 62.15625 
Q 23 63.40625 26.40625 63.40625 
Q 31.796875 63.40625 35.390625 60.546875 
Q 39 57.703125 39 52 
Q 39 49.203125 37.890625 47 
Q 36.796875 44.796875 34.9375 43.34375 
Q 33.09375 41.90625 30.640625 41.15625 
Q 28.203125 40.40625 25.5 40.40625 
L 23.703125 40.40625 
Q 23.203125 40.40625 22.703125 40.40625 
Q 22.296875 40.40625 21.796875 40.5 
z
" id="HelveticaNeue-51"/>
       </defs>
       <use xlink:href="#HelveticaNeue-50"/>
       <use x="55.599991" xlink:href="#HelveticaNeue-48"/>
       <use x="111.199982" xlink:href="#HelveticaNeue-50"/>
       <use x="166.799973" xlink:href="#HelveticaNeue-48"/>
       <use x="222.399963" xlink:href="#HelveticaNeue-45"/>
       <use x="261.299957" xlink:href="#HelveticaNeue-48"/>
       <use x="316.899948" xlink:href="#HelveticaNeue-51"/>
      </g>
     </g>
    </g>
    <g id="xtick_3">
     <g id="line2d_5">
      <path clip-path="url(#p5b2f5e4c82)" d="M 220.009674 515.4355 
L 220.009674 31.5955 
" style="fill:none;stroke:#cbcbcb;"/>
     </g>
     <g id="line2d_6"/>
     <g id="text_3">
      <!-- 2020-05 -->
      <g style="fill:#555555;" transform="translate(193.936862 528.932375)scale(0.14 -0.14)">
       <defs>
        <path d="M 47 62.203125 
L 47 69.703125 
L 12 69.703125 
L 5.40625 32.90625 
L 12.703125 32.5 
Q 15.203125 35.5 18.453125 37.34375 
Q 21.703125 39.203125 25.90625 39.203125 
Q 29.5 39.203125 32.453125 38 
Q 35.40625 36.796875 37.5 34.640625 
Q 39.59375 32.5 40.75 29.546875 
Q 41.90625 26.59375 41.90625 23.09375 
Q 41.90625 18.90625 40.703125 15.75 
Q 39.5 12.59375 37.453125 10.5 
Q 35.40625 8.40625 32.65625 7.34375 
Q 29.90625 6.296875 26.90625 6.296875 
Q 23.703125 6.296875 21.046875 7.25 
Q 18.40625 8.203125 16.453125 9.953125 
Q 14.5 11.703125 13.34375 14.046875 
Q 12.203125 16.40625 12 19.09375 
L 3.5 19.09375 
Q 3.59375 14.296875 5.390625 10.5 
Q 7.203125 6.703125 10.296875 4.140625 
Q 13.40625 1.59375 17.453125 0.25 
Q 21.5 -1.09375 26.09375 -1.09375 
Q 32.296875 -1.09375 36.9375 0.84375 
Q 41.59375 2.796875 44.6875 6.09375 
Q 47.796875 9.40625 49.34375 13.65625 
Q 50.90625 17.90625 50.90625 22.40625 
Q 50.90625 28.5 49.09375 33.046875 
Q 47.296875 37.59375 44.1875 40.640625 
Q 41.09375 43.703125 36.890625 45.203125 
Q 32.703125 46.703125 28 46.703125 
Q 24.40625 46.703125 20.75 45.453125 
Q 17.09375 44.203125 14.796875 41.59375 
L 14.59375 41.796875 
L 18.40625 62.203125 
z
" id="HelveticaNeue-53"/>
       </defs>
       <use xlink:href="#HelveticaNeue-50"/>
       <use x="55.599991" xlink:href="#HelveticaNeue-48"/>
       <use x="111.199982" xlink:href="#HelveticaNeue-50"/>
       <use x="166.799973" xlink:href="#HelveticaNeue-48"/>
       <use x="222.399963" xlink:href="#HelveticaNeue-45"/>
       <use x="261.299957" xlink:href="#HelveticaNeue-48"/>
       <use x="316.899948" xlink:href="#HelveticaNeue-53"/>
      </g>
     </g>
    </g>
    <g id="xtick_4">
     <g id="line2d_7">
      <path clip-path="url(#p5b2f5e4c82)" d="M 287.590856 515.4355 
L 287.590856 31.5955 
" style="fill:none;stroke:#cbcbcb;"/>
     </g>
     <g id="line2d_8"/>
     <g id="text_4">
      <!-- 2020-07 -->
      <g style="fill:#555555;" transform="translate(261.518043 528.932375)scale(0.14 -0.14)">
       <defs>
        <path d="M 50.90625 62.40625 
L 50.90625 69.703125 
L 5 69.703125 
L 5 61.703125 
L 42.203125 61.703125 
Q 36.59375 55.796875 31.75 48.796875 
Q 26.90625 41.796875 23.203125 33.9375 
Q 19.5 26.09375 17.140625 17.546875 
Q 14.796875 9 14.203125 0 
L 23.703125 0 
Q 24.203125 8.296875 26.5 17.09375 
Q 28.796875 25.90625 32.4375 34.203125 
Q 36.09375 42.5 40.796875 49.796875 
Q 45.5 57.09375 50.90625 62.40625 
z
" id="HelveticaNeue-55"/>
       </defs>
       <use xlink:href="#HelveticaNeue-50"/>
       <use x="55.599991" xlink:href="#HelveticaNeue-48"/>
       <use x="111.199982" xlink:href="#HelveticaNeue-50"/>
       <use x="166.799973" xlink:href="#HelveticaNeue-48"/>
       <use x="222.399963" xlink:href="#HelveticaNeue-45"/>
       <use x="261.299957" xlink:href="#HelveticaNeue-48"/>
       <use x="316.899948" xlink:href="#HelveticaNeue-55"/>
      </g>
     </g>
    </g>
    <g id="xtick_5">
     <g id="line2d_9">
      <path clip-path="url(#p5b2f5e4c82)" d="M 356.279925 515.4355 
L 356.279925 31.5955 
" style="fill:none;stroke:#cbcbcb;"/>
     </g>
     <g id="line2d_10"/>
     <g id="text_5">
      <!-- 2020-09 -->
      <g style="fill:#555555;" transform="translate(330.207113 528.932375)scale(0.14 -0.14)">
       <defs>
        <path d="M 13.40625 17.09375 
L 4.90625 17.09375 
Q 5.703125 7.90625 11.59375 3.40625 
Q 17.5 -1.09375 26.40625 -1.09375 
Q 39.296875 -1.09375 45.140625 8.75 
Q 51 18.59375 51 37 
Q 51 47.09375 49.046875 53.640625 
Q 47.09375 60.203125 43.796875 64 
Q 40.5 67.796875 36.09375 69.34375 
Q 31.703125 70.90625 26.703125 70.90625 
Q 21.59375 70.90625 17.296875 69.203125 
Q 13 67.5 9.890625 64.453125 
Q 6.796875 61.40625 5.09375 57.15625 
Q 3.40625 52.90625 3.40625 47.796875 
Q 3.40625 42.59375 4.84375 38.1875 
Q 6.296875 33.796875 9.140625 30.6875 
Q 12 27.59375 16.203125 25.84375 
Q 20.40625 24.09375 25.796875 24.09375 
Q 31 24.09375 35.390625 26.75 
Q 39.796875 29.40625 42.203125 33.90625 
L 42.40625 33.703125 
Q 42 19.796875 38.09375 13.046875 
Q 34.203125 6.296875 26.40625 6.296875 
Q 21.296875 6.296875 17.59375 9.09375 
Q 13.90625 11.90625 13.40625 17.09375 
z
M 40.90625 47.203125 
Q 40.90625 44.09375 39.90625 41.25 
Q 38.90625 38.40625 37 36.25 
Q 35.09375 34.09375 32.390625 32.84375 
Q 29.703125 31.59375 26.40625 31.59375 
Q 23.296875 31.59375 20.75 32.84375 
Q 18.203125 34.09375 16.34375 36.1875 
Q 14.5 38.296875 13.453125 41 
Q 12.40625 43.703125 12.40625 46.59375 
Q 12.40625 49.90625 13.15625 52.90625 
Q 13.90625 55.90625 15.546875 58.25 
Q 17.203125 60.59375 19.84375 62 
Q 22.5 63.40625 26.296875 63.40625 
Q 29.90625 63.40625 32.59375 62.09375 
Q 35.296875 60.796875 37.140625 58.546875 
Q 39 56.296875 39.953125 53.390625 
Q 40.90625 50.5 40.90625 47.203125 
z
" id="HelveticaNeue-57"/>
       </defs>
       <use xlink:href="#HelveticaNeue-50"/>
       <use x="55.599991" xlink:href="#HelveticaNeue-48"/>
       <use x="111.199982" xlink:href="#HelveticaNeue-50"/>
       <use x="166.799973" xlink:href="#HelveticaNeue-48"/>
       <use x="222.399963" xlink:href="#HelveticaNeue-45"/>
       <use x="261.299957" xlink:href="#HelveticaNeue-48"/>
       <use x="316.899948" xlink:href="#HelveticaNeue-57"/>
      </g>
     </g>
    </g>
    <g id="xtick_6">
     <g id="line2d_11">
      <path clip-path="url(#p5b2f5e4c82)" d="M 423.861107 515.4355 
L 423.861107 31.5955 
" style="fill:none;stroke:#cbcbcb;"/>
     </g>
     <g id="line2d_12"/>
     <g id="text_6">
      <!-- 2020-11 -->
      <g style="fill:#555555;" transform="translate(397.788294 528.932375)scale(0.14 -0.14)">
       <use xlink:href="#HelveticaNeue-50"/>
       <use x="55.599991" xlink:href="#HelveticaNeue-48"/>
       <use x="111.199982" xlink:href="#HelveticaNeue-50"/>
       <use x="166.799973" xlink:href="#HelveticaNeue-48"/>
       <use x="222.399963" xlink:href="#HelveticaNeue-45"/>
       <use x="261.299957" xlink:href="#HelveticaNeue-49"/>
       <use x="316.899948" xlink:href="#HelveticaNeue-49"/>
      </g>
     </g>
    </g>
    <g id="xtick_7">
     <g id="line2d_13">
      <path clip-path="url(#p5b2f5e4c82)" d="M 491.442288 515.4355 
L 491.442288 31.5955 
" style="fill:none;stroke:#cbcbcb;"/>
     </g>
     <g id="line2d_14"/>
     <g id="text_7">
      <!-- 2021-01 -->
      <g style="fill:#555555;" transform="translate(465.369476 528.932375)scale(0.14 -0.14)">
       <use xlink:href="#HelveticaNeue-50"/>
       <use x="55.599991" xlink:href="#HelveticaNeue-48"/>
       <use x="111.199982" xlink:href="#HelveticaNeue-50"/>
       <use x="166.799973" xlink:href="#HelveticaNeue-49"/>
       <use x="222.399963" xlink:href="#HelveticaNeue-45"/>
       <use x="261.299957" xlink:href="#HelveticaNeue-48"/>
       <use x="316.899948" xlink:href="#HelveticaNeue-49"/>
      </g>
     </g>
    </g>
    <g id="xtick_8">
     <g id="line2d_15">
      <path clip-path="url(#p5b2f5e4c82)" d="M 556.807693 515.4355 
L 556.807693 31.5955 
" style="fill:none;stroke:#cbcbcb;"/>
     </g>
     <g id="line2d_16"/>
     <g id="text_8">
      <!-- 2021-03 -->
      <g style="fill:#555555;" transform="translate(530.734881 528.932375)scale(0.14 -0.14)">
       <use xlink:href="#HelveticaNeue-50"/>
       <use x="55.599991" xlink:href="#HelveticaNeue-48"/>
       <use x="111.199982" xlink:href="#HelveticaNeue-50"/>
       <use x="166.799973" xlink:href="#HelveticaNeue-49"/>
       <use x="222.399963" xlink:href="#HelveticaNeue-45"/>
       <use x="261.299957" xlink:href="#HelveticaNeue-48"/>
       <use x="316.899948" xlink:href="#HelveticaNeue-51"/>
      </g>
     </g>
    </g>
    <g id="xtick_9">
     <g id="line2d_17">
      <path clip-path="url(#p5b2f5e4c82)" d="M 624.388875 515.4355 
L 624.388875 31.5955 
" style="fill:none;stroke:#cbcbcb;"/>
     </g>
     <g id="line2d_18"/>
     <g id="text_9">
      <!-- 2021-05 -->
      <g style="fill:#555555;" transform="translate(598.316062 528.932375)scale(0.14 -0.14)">
       <use xlink:href="#HelveticaNeue-50"/>
       <use x="55.599991" xlink:href="#HelveticaNeue-48"/>
       <use x="111.199982" xlink:href="#HelveticaNeue-50"/>
       <use x="166.799973" xlink:href="#HelveticaNeue-49"/>
       <use x="222.399963" xlink:href="#HelveticaNeue-45"/>
       <use x="261.299957" xlink:href="#HelveticaNeue-48"/>
       <use x="316.899948" xlink:href="#HelveticaNeue-53"/>
      </g>
     </g>
    </g>
    <g id="xtick_10">
     <g id="line2d_19">
      <path clip-path="url(#p5b2f5e4c82)" d="M 691.970056 515.4355 
L 691.970056 31.5955 
" style="fill:none;stroke:#cbcbcb;"/>
     </g>
     <g id="line2d_20"/>
     <g id="text_10">
      <!-- 2021-07 -->
      <g style="fill:#555555;" transform="translate(665.897244 528.932375)scale(0.14 -0.14)">
       <use xlink:href="#HelveticaNeue-50"/>
       <use x="55.599991" xlink:href="#HelveticaNeue-48"/>
       <use x="111.199982" xlink:href="#HelveticaNeue-50"/>
       <use x="166.799973" xlink:href="#HelveticaNeue-49"/>
       <use x="222.399963" xlink:href="#HelveticaNeue-45"/>
       <use x="261.299957" xlink:href="#HelveticaNeue-48"/>
       <use x="316.899948" xlink:href="#HelveticaNeue-55"/>
      </g>
     </g>
    </g>
   </g>
   <g id="matplotlib.axis_2">
    <g id="ytick_1">
     <g id="line2d_21">
      <path clip-path="url(#p5b2f5e4c82)" d="M 80.748125 497.215626 
L 707.148125 497.215626 
" style="fill:none;stroke:#cbcbcb;"/>
     </g>
     <g id="line2d_22"/>
     <g id="text_11">
      <!-- 1 -->
      <g style="fill:#555555;" transform="translate(69.465 502.214064)scale(0.14 -0.14)">
       <use xlink:href="#HelveticaNeue-49"/>
      </g>
     </g>
    </g>
    <g id="ytick_2">
     <g id="line2d_23">
      <path clip-path="url(#p5b2f5e4c82)" d="M 80.748125 430.698466 
L 707.148125 430.698466 
" style="fill:none;stroke:#cbcbcb;"/>
     </g>
     <g id="line2d_24"/>
     <g id="text_12">
      <!-- 10 -->
      <g style="fill:#555555;" transform="translate(61.681875 435.696903)scale(0.14 -0.14)">
       <use xlink:href="#HelveticaNeue-49"/>
       <use x="55.599991" xlink:href="#HelveticaNeue-48"/>
      </g>
     </g>
    </g>
    <g id="ytick_3">
     <g id="line2d_25">
      <path clip-path="url(#p5b2f5e4c82)" d="M 80.748125 364.181305 
L 707.148125 364.181305 
" style="fill:none;stroke:#cbcbcb;"/>
     </g>
     <g id="line2d_26"/>
     <g id="text_13">
      <!-- 100 -->
      <g style="fill:#555555;" transform="translate(53.89875 369.179742)scale(0.14 -0.14)">
       <use xlink:href="#HelveticaNeue-49"/>
       <use x="55.599991" xlink:href="#HelveticaNeue-48"/>
       <use x="111.199982" xlink:href="#HelveticaNeue-48"/>
      </g>
     </g>
    </g>
    <g id="ytick_4">
     <g id="line2d_27">
      <path clip-path="url(#p5b2f5e4c82)" d="M 80.748125 297.664144 
L 707.148125 297.664144 
" style="fill:none;stroke:#cbcbcb;"/>
     </g>
     <g id="line2d_28"/>
     <g id="text_14">
      <!-- 1,000 -->
      <g style="fill:#555555;" transform="translate(42.224063 302.662581)scale(0.14 -0.14)">
       <defs>
        <path d="M 8.296875 11.09375 
L 8.296875 0 
L 14.203125 0 
Q 14.296875 -1.203125 14.046875 -2.59375 
Q 13.796875 -4 13.09375 -5.34375 
Q 12.40625 -6.703125 11.25 -7.84375 
Q 10.09375 -9 8.40625 -9.59375 
L 8.40625 -14.59375 
Q 14.203125 -12.90625 16.796875 -8.796875 
Q 19.40625 -4.703125 19.40625 1 
L 19.40625 11.09375 
z
" id="HelveticaNeue-44"/>
       </defs>
       <use xlink:href="#HelveticaNeue-49"/>
       <use x="55.599991" xlink:href="#HelveticaNeue-44"/>
       <use x="83.399979" xlink:href="#HelveticaNeue-48"/>
       <use x="138.999969" xlink:href="#HelveticaNeue-48"/>
       <use x="194.59996" xlink:href="#HelveticaNeue-48"/>
      </g>
     </g>
    </g>
    <g id="ytick_5">
     <g id="line2d_29">
      <path clip-path="url(#p5b2f5e4c82)" d="M 80.748125 231.146983 
L 707.148125 231.146983 
" style="fill:none;stroke:#cbcbcb;"/>
     </g>
     <g id="line2d_30"/>
     <g id="text_15">
      <!-- 10,000 -->
      <g style="fill:#555555;" transform="translate(34.440938 236.14542)scale(0.14 -0.14)">
       <use xlink:href="#HelveticaNeue-49"/>
       <use x="55.599991" xlink:href="#HelveticaNeue-48"/>
       <use x="111.199982" xlink:href="#HelveticaNeue-44"/>
       <use x="138.999969" xlink:href="#HelveticaNeue-48"/>
       <use x="194.59996" xlink:href="#HelveticaNeue-48"/>
       <use x="250.199951" xlink:href="#HelveticaNeue-48"/>
      </g>
     </g>
    </g>
    <g id="ytick_6">
     <g id="line2d_31">
      <path clip-path="url(#p5b2f5e4c82)" d="M 80.748125 164.629822 
L 707.148125 164.629822 
" style="fill:none;stroke:#cbcbcb;"/>
     </g>
     <g id="line2d_32"/>
     <g id="text_16">
      <!-- 100,000 -->
      <g style="fill:#555555;" transform="translate(26.657813 169.628259)scale(0.14 -0.14)">
       <use xlink:href="#HelveticaNeue-49"/>
       <use x="55.599991" xlink:href="#HelveticaNeue-48"/>
       <use x="111.199982" xlink:href="#HelveticaNeue-48"/>
       <use x="166.799973" xlink:href="#HelveticaNeue-44"/>
       <use x="194.59996" xlink:href="#HelveticaNeue-48"/>
       <use x="250.199951" xlink:href="#HelveticaNeue-48"/>
       <use x="305.799942" xlink:href="#HelveticaNeue-48"/>
      </g>
     </g>
    </g>
    <g id="ytick_7">
     <g id="line2d_33">
      <path clip-path="url(#p5b2f5e4c82)" d="M 80.748125 98.112661 
L 707.148125 98.112661 
" style="fill:none;stroke:#cbcbcb;"/>
     </g>
     <g id="line2d_34"/>
     <g id="text_17">
      <!-- 1,000,000 -->
      <g style="fill:#555555;" transform="translate(14.983125 103.111098)scale(0.14 -0.14)">
       <use xlink:href="#HelveticaNeue-49"/>
       <use x="55.599991" xlink:href="#HelveticaNeue-44"/>
       <use x="83.399979" xlink:href="#HelveticaNeue-48"/>
       <use x="138.999969" xlink:href="#HelveticaNeue-48"/>
       <use x="194.59996" xlink:href="#HelveticaNeue-48"/>
       <use x="250.199951" xlink:href="#HelveticaNeue-44"/>
       <use x="277.999939" xlink:href="#HelveticaNeue-48"/>
       <use x="333.59993" xlink:href="#HelveticaNeue-48"/>
       <use x="389.199921" xlink:href="#HelveticaNeue-48"/>
      </g>
     </g>
    </g>
    <g id="ytick_8">
     <g id="line2d_35">
      <path clip-path="url(#p5b2f5e4c82)" d="M 80.748125 31.5955 
L 707.148125 31.5955 
" style="fill:none;stroke:#cbcbcb;"/>
     </g>
     <g id="line2d_36"/>
     <g id="text_18">
      <!-- 10,000,000 -->
      <g style="fill:#555555;" transform="translate(7.2 36.593937)scale(0.14 -0.14)">
       <use xlink:href="#HelveticaNeue-49"/>
       <use x="55.599991" xlink:href="#HelveticaNeue-48"/>
       <use x="111.199982" xlink:href="#HelveticaNeue-44"/>
       <use x="138.999969" xlink:href="#HelveticaNeue-48"/>
       <use x="194.59996" xlink:href="#HelveticaNeue-48"/>
       <use x="250.199951" xlink:href="#HelveticaNeue-48"/>
       <use x="305.799942" xlink:href="#HelveticaNeue-44"/>
       <use x="333.59993" xlink:href="#HelveticaNeue-48"/>
       <use x="389.199921" xlink:href="#HelveticaNeue-48"/>
       <use x="444.799911" xlink:href="#HelveticaNeue-48"/>
      </g>
     </g>
    </g>
    <g id="ytick_9">
     <g id="line2d_37"/>
    </g>
    <g id="ytick_10">
     <g id="line2d_38"/>
    </g>
    <g id="ytick_11">
     <g id="line2d_39"/>
    </g>
    <g id="ytick_12">
     <g id="line2d_40"/>
    </g>
    <g id="ytick_13">
     <g id="line2d_41"/>
    </g>
    <g id="ytick_14">
     <g id="line2d_42"/>
    </g>
    <g id="ytick_15">
     <g id="line2d_43"/>
    </g>
    <g id="ytick_16">
     <g id="line2d_44"/>
    </g>
    <g id="ytick_17">
     <g id="line2d_45"/>
    </g>
    <g id="ytick_18">
     <g id="line2d_46"/>
    </g>
    <g id="ytick_19">
     <g id="line2d_47"/>
    </g>
    <g id="ytick_20">
     <g id="line2d_48"/>
    </g>
    <g id="ytick_21">
     <g id="line2d_49"/>
    </g>
    <g id="ytick_22">
     <g id="line2d_50"/>
    </g>
    <g id="ytick_23">
     <g id="line2d_51"/>
    </g>
    <g id="ytick_24">
     <g id="line2d_52"/>
    </g>
    <g id="ytick_25">
     <g id="line2d_53"/>
    </g>
    <g id="ytick_26">
     <g id="line2d_54"/>
    </g>
    <g id="ytick_27">
     <g id="line2d_55"/>
    </g>
    <g id="ytick_28">
     <g id="line2d_56"/>
    </g>
    <g id="ytick_29">
     <g id="line2d_57"/>
    </g>
    <g id="ytick_30">
     <g id="line2d_58"/>
    </g>
    <g id="ytick_31">
     <g id="line2d_59"/>
    </g>
    <g id="ytick_32">
     <g id="line2d_60"/>
    </g>
    <g id="ytick_33">
     <g id="line2d_61"/>
    </g>
    <g id="ytick_34">
     <g id="line2d_62"/>
    </g>
    <g id="ytick_35">
     <g id="line2d_63"/>
    </g>
    <g id="ytick_36">
     <g id="line2d_64"/>
    </g>
    <g id="ytick_37">
     <g id="line2d_65"/>
    </g>
    <g id="ytick_38">
     <g id="line2d_66"/>
    </g>
    <g id="ytick_39">
     <g id="line2d_67"/>
    </g>
    <g id="ytick_40">
     <g id="line2d_68"/>
    </g>
    <g id="ytick_41">
     <g id="line2d_69"/>
    </g>
    <g id="ytick_42">
     <g id="line2d_70"/>
    </g>
    <g id="ytick_43">
     <g id="line2d_71"/>
    </g>
    <g id="ytick_44">
     <g id="line2d_72"/>
    </g>
    <g id="ytick_45">
     <g id="line2d_73"/>
    </g>
    <g id="ytick_46">
     <g id="line2d_74"/>
    </g>
    <g id="ytick_47">
     <g id="line2d_75"/>
    </g>
    <g id="ytick_48">
     <g id="line2d_76"/>
    </g>
    <g id="ytick_49">
     <g id="line2d_77"/>
    </g>
    <g id="ytick_50">
     <g id="line2d_78"/>
    </g>
    <g id="ytick_51">
     <g id="line2d_79"/>
    </g>
    <g id="ytick_52">
     <g id="line2d_80"/>
    </g>
    <g id="ytick_53">
     <g id="line2d_81"/>
    </g>
    <g id="ytick_54">
     <g id="line2d_82"/>
    </g>
    <g id="ytick_55">
     <g id="line2d_83"/>
    </g>
    <g id="ytick_56">
     <g id="line2d_84"/>
    </g>
    <g id="ytick_57">
     <g id="line2d_85"/>
    </g>
    <g id="ytick_58">
     <g id="line2d_86"/>
    </g>
    <g id="ytick_59">
     <g id="line2d_87"/>
    </g>
    <g id="ytick_60">
     <g id="line2d_88"/>
    </g>
    <g id="ytick_61">
     <g id="line2d_89"/>
    </g>
    <g id="ytick_62">
     <g id="line2d_90"/>
    </g>
    <g id="ytick_63">
     <g id="line2d_91"/>
    </g>
    <g id="ytick_64">
     <g id="line2d_92"/>
    </g>
    <g id="ytick_65">
     <g id="line2d_93"/>
    </g>
    <g id="ytick_66">
     <g id="line2d_94"/>
    </g>
    <g id="ytick_67">
     <g id="line2d_95"/>
    </g>
    <g id="ytick_68">
     <g id="line2d_96"/>
    </g>
   </g>
   <g id="line2d_97">
    <path clip-path="url(#p5b2f5e4c82)" d="M 111.435918 539.890812 
L 111.436629 497.215626 
L 112.544517 497.215626 
L 113.652405 477.191966 
L 113.653449 539.890812 
M 118.083247 539.890812 
L 118.083958 497.215626 
L 120.299734 497.215626 
L 121.407623 465.478875 
L 121.408861 539.890812 
M 124.730577 539.890812 
L 124.731287 497.215626 
L 124.731998 539.890812 
M 130.270018 539.890812 
L 130.270728 497.215626 
L 130.271439 539.890812 
M 132.485794 539.890812 
L 132.486505 497.215626 
L 133.594393 497.215626 
L 133.595104 539.890812 
M 138.024129 539.890812 
L 138.025946 430.698466 
L 138.027763 539.890812 
M 141.348567 539.890812 
L 141.349611 477.191966 
L 142.457499 465.478875 
L 142.458738 539.890812 
M 145.779221 539.890812 
L 145.781164 423.119277 
L 146.889052 477.191966 
L 147.99694 418.985375 
L 147.998951 539.890812 
M 150.211232 539.890812 
L 150.212716 450.722126 
L 151.320605 450.722126 
L 152.428493 413.718463 
L 153.536381 417.120984 
L 154.644269 409.265353 
L 155.752158 393.694803 
L 156.860046 375.750315 
L 157.967934 369.564 
L 159.075822 359.645775 
L 160.18371 359.156135 
L 161.291599 344.013564 
L 162.399487 335.488212 
L 163.507375 338.295082 
L 164.615263 323.775121 
L 165.723152 314.621045 
L 166.83104 309.061201 
L 167.938928 307.885363 
L 169.046816 300.483987 
L 170.154704 287.964763 
L 172.370481 257.307933 
L 173.478369 247.798953 
L 174.586257 243.520433 
L 175.694146 235.689302 
L 176.802034 229.925224 
L 177.909922 229.922455 
L 179.01781 220.147502 
L 180.125698 215.821574 
L 181.233587 215.26278 
L 182.341475 209.623221 
L 183.449363 213.344264 
L 184.557251 209.075803 
L 185.66514 205.253686 
L 188.988804 197.260183 
L 190.096692 194.875525 
L 191.204581 203.97397 
L 192.312469 198.541381 
L 193.420357 199.087532 
L 194.528245 197.708794 
L 195.636133 195.206633 
L 196.744022 196.245785 
L 197.85191 197.799723 
L 198.959798 202.301294 
L 200.067686 203.80194 
L 201.175575 202.786404 
L 202.283463 199.378472 
L 203.391351 197.897335 
L 204.499239 197.992527 
L 206.715016 204.293754 
L 207.822904 202.03433 
L 208.930792 204.089228 
L 210.03868 200.558421 
L 211.146569 195.985465 
L 212.254457 193.554745 
L 213.362345 195.449921 
L 214.470233 202.738821 
L 215.578121 206.839495 
L 216.68601 205.083261 
L 217.793898 202.933975 
L 218.901786 199.068493 
L 220.009674 195.820015 
L 221.117563 199.921228 
L 222.225451 203.389 
L 223.333339 208.419939 
L 224.441227 206.208819 
L 225.549115 205.253686 
L 226.657004 200.914302 
L 227.764892 201.768766 
L 228.87278 204.830076 
L 229.980668 210.669037 
L 231.088557 214.781729 
L 232.196445 207.978732 
L 233.304333 209.515091 
L 234.412221 202.494576 
L 235.520109 203.282001 
L 236.627998 206.269805 
L 237.735886 212.583807 
L 238.843774 208.598061 
L 239.951662 209.745527 
L 241.059551 206.998087 
L 242.167439 203.842325 
L 243.275327 206.099367 
L 244.383215 208.020216 
L 245.491103 211.07858 
L 246.598992 212.453441 
L 248.814768 212.996959 
L 249.922656 207.705399 
L 251.030545 205.204218 
L 252.138433 206.591496 
L 253.246321 210.221786 
L 254.354209 208.505564 
L 255.462097 210.002815 
L 256.569986 211.142105 
L 257.677874 208.878678 
L 258.785762 200.680921 
L 259.89365 207.700266 
L 261.001539 213.194908 
L 262.109427 213.836664 
L 263.217315 212.903099 
L 264.325203 207.272363 
L 265.433091 206.833269 
L 266.54098 204.113015 
L 267.648868 204.293754 
L 268.756756 212.408103 
L 269.864644 210.954819 
L 270.972532 204.810335 
L 272.080421 203.930022 
L 274.296197 198.616231 
L 275.404085 197.52328 
L 276.511974 203.126075 
L 278.72775 194.907641 
L 279.835638 193.360407 
L 282.051415 187.360161 
L 284.267191 191.457188 
L 285.375079 191.465963 
L 286.482968 185.59958 
L 287.590856 184.66793 
L 288.698744 181.608033 
L 289.806632 180.79039 
L 290.91452 184.650016 
L 292.022409 187.847105 
L 293.130297 186.247365 
L 294.238185 182.385327 
L 295.346073 179.650169 
L 296.453962 179.440063 
L 297.56185 175.674579 
L 298.669738 179.041502 
L 299.777626 180.463207 
L 301.993403 176.807978 
L 303.101291 175.625928 
L 304.209179 172.676982 
L 305.317067 174.55504 
L 306.424956 178.229961 
L 307.532844 178.311488 
L 308.640732 179.440546 
L 309.74862 176.951448 
L 310.856508 175.041373 
L 311.964397 174.930984 
L 313.072285 173.514184 
L 314.180173 176.295575 
L 315.288061 182.314375 
L 316.39595 179.783608 
L 317.503838 177.923977 
L 318.611726 176.292979 
L 319.719614 175.370902 
L 320.827502 175.312304 
L 321.935391 180.955636 
L 323.043279 184.198345 
L 324.151167 186.144977 
L 325.259055 182.672511 
L 326.366944 182.578795 
L 328.58272 178.834816 
L 329.690608 181.774376 
L 330.798496 185.545304 
L 331.906385 186.334804 
L 333.014273 182.776275 
L 334.122161 182.281891 
L 335.230049 182.397615 
L 336.337938 179.639482 
L 337.445826 184.227365 
L 338.553714 189.596133 
L 339.661602 192.94634 
L 340.76949 188.854349 
L 341.877379 189.001727 
L 344.093155 185.220007 
L 345.201043 187.680455 
L 346.308932 197.246778 
L 347.41682 190.809356 
L 348.524708 191.695809 
L 349.632596 187.493079 
L 350.740484 187.308178 
L 351.848373 186.710175 
L 352.956261 187.948595 
L 354.064149 196.282919 
L 355.172037 193.756732 
L 356.279925 188.314185 
L 357.387814 197.147774 
L 358.495702 186.815835 
L 359.60359 183.462755 
L 360.711478 189.516032 
L 361.819367 199.411194 
L 362.927255 204.485961 
L 366.250919 192.535847 
L 367.358808 186.093919 
L 368.466696 191.754111 
L 369.574584 196.358197 
L 370.682472 193.440178 
L 371.790361 191.670753 
L 372.898249 191.633209 
L 374.006137 187.498817 
L 375.114025 185.303795 
L 376.221913 189.820499 
L 377.329802 193.859052 
L 378.43769 181.926432 
L 379.545578 193.048143 
L 380.653466 190.000699 
L 381.761355 187.567756 
L 382.869243 182.121075 
L 383.977131 189.21474 
L 385.085019 193.120083 
L 386.192907 193.072103 
L 387.300796 188.545959 
L 388.408684 189.650344 
L 389.516572 186.800895 
L 390.62446 182.655792 
L 391.732349 185.966062 
L 392.840237 194.905169 
L 393.948125 178.248007 
L 395.056013 189.103319 
L 396.163901 182.960944 
L 397.27179 181.182738 
L 398.379678 179.890707 
L 400.595454 187.836782 
L 401.703343 185.823122 
L 402.811231 182.220219 
L 405.027007 176.917834 
L 406.134895 174.743016 
L 407.242784 183.100771 
L 408.350672 185.903854 
L 409.45856 176.879403 
L 410.566448 179.101986 
L 411.674337 177.415401 
L 412.782225 172.891132 
L 413.890113 169.223912 
L 414.998001 171.593001 
L 416.105889 179.524116 
L 417.213778 173.082872 
L 418.321666 173.177474 
L 421.645331 164.667979 
L 422.753219 169.594419 
L 423.861107 173.252133 
L 424.968995 166.413286 
L 426.076883 166.908223 
L 427.184772 162.385178 
L 428.29266 159.043781 
L 429.400548 156.430033 
L 430.508436 157.969053 
L 431.616325 163.659487 
L 432.724213 156.952802 
L 433.832101 154.961432 
L 434.939989 154.320551 
L 436.047877 150.402501 
L 437.155766 147.410561 
L 438.263654 151.227462 
L 439.371542 155.920402 
L 440.47943 149.891567 
L 441.587318 150.758817 
L 442.695207 148.916149 
L 443.803095 146.469936 
L 444.910983 144.770713 
L 446.018871 148.974225 
L 447.12676 154.745605 
L 448.234648 147.711996 
L 449.342536 147.994999 
L 450.450424 147.555286 
L 451.558312 163.776207 
L 452.666201 143.77429 
L 453.774089 152.646834 
L 454.881977 155.720653 
L 455.989865 149.707098 
L 458.205642 144.437371 
L 459.31353 142.152988 
L 460.421418 140.397276 
L 461.529306 143.793102 
L 462.637195 148.975906 
L 463.745083 143.96395 
L 464.852971 141.890022 
L 465.960859 141.888838 
L 467.068748 141.177332 
L 468.176636 134.831304 
L 469.284524 143.537806 
L 470.392412 146.980373 
L 471.5003 144.477176 
L 472.608189 144.159129 
L 473.716077 138.764122 
L 474.823965 139.617307 
L 475.931853 138.022686 
L 477.039742 145.500218 
L 478.14763 147.663785 
L 479.255518 144.387729 
L 480.363406 144.374257 
L 481.471294 140.850929 
L 482.579183 145.556736 
L 483.687071 164.355536 
L 484.794959 142.267853 
L 485.902847 152.517003 
L 487.010736 146.238992 
L 488.118624 144.457913 
L 489.226512 140.699507 
L 490.3344 140.444261 
L 491.442288 153.450475 
L 492.550177 133.712188 
L 493.658065 144.349622 
L 494.765953 137.949292 
L 495.873841 139.948302 
L 498.089618 134.851391 
L 499.197506 132.818155 
L 501.413282 143.431516 
L 502.521171 141.03517 
L 503.629059 140.571602 
L 504.736947 140.65324 
L 505.844835 139.399375 
L 506.952724 139.357069 
L 509.1685 149.285045 
L 510.276388 154.676749 
L 511.384276 146.557115 
L 512.492165 146.782215 
L 513.600053 146.01458 
L 514.707941 145.850651 
L 515.815829 149.656992 
L 516.923718 157.122721 
L 518.031606 151.677255 
L 519.139494 152.795847 
L 520.247382 151.825788 
L 521.35527 149.957897 
L 522.463159 150.230892 
L 523.571047 156.21832 
L 524.678935 160.895144 
L 525.786823 154.529547 
L 526.894711 160.533151 
L 529.110488 158.037723 
L 530.218376 157.161509 
L 531.326264 163.234129 
L 532.434153 168.559344 
L 533.542041 166.730596 
L 534.649929 165.695566 
L 535.757817 166.119796 
L 536.865705 163.046192 
L 537.973594 164.737196 
L 539.081482 169.4408 
L 540.18937 177.6212 
L 541.297258 181.757124 
L 542.405147 177.281698 
L 543.513035 174.867094 
L 544.620923 174.203234 
L 545.728811 171.802939 
L 546.836699 175.04883 
L 547.944588 181.80577 
L 549.052476 179.644339 
L 550.160364 174.156193 
L 551.268252 173.252912 
L 552.376141 171.851118 
L 553.484029 171.689848 
L 555.699805 184.134717 
L 556.807693 181.022815 
L 557.915582 180.543779 
L 559.02347 176.366177 
L 560.131358 176.07707 
L 561.239246 176.765735 
L 562.347135 181.078917 
L 563.455023 191.052756 
L 564.562911 166.260054 
L 565.670799 181.43799 
L 566.778687 180.268959 
L 567.886576 178.260043 
L 568.994464 177.446448 
L 571.21024 192.589788 
L 572.318129 180.785336 
L 573.426017 182.147551 
L 574.533905 179.905409 
L 575.641793 179.163074 
L 576.749681 179.088163 
L 577.85757 182.20376 
L 578.965458 195.630996 
L 580.073346 182.049712 
L 581.181234 180.996841 
L 582.289123 171.111049 
L 583.397011 175.303106 
L 584.504899 173.133236 
L 585.612787 179.051019 
L 586.720675 188.01018 
L 587.828564 174.630084 
L 588.936452 178.331442 
L 590.04434 175.797205 
L 591.152228 172.107819 
L 592.260117 175.52171 
L 593.368005 177.460858 
L 594.475893 193.490343 
L 595.583781 172.332858 
L 596.691669 178.452386 
L 597.799558 173.683628 
L 598.907446 170.913961 
L 600.015334 170.509961 
L 601.123222 177.182047 
L 602.23111 185.846595 
L 603.338999 174.146955 
L 604.446887 172.062199 
L 605.554775 172.651802 
L 606.662663 173.44786 
L 607.770552 171.676572 
L 608.87844 182.497713 
L 609.986328 190.105174 
L 611.094216 174.825538 
L 612.202104 178.898655 
L 613.309993 178.209615 
L 614.417881 176.527518 
L 615.525769 177.619842 
L 616.633657 184.384348 
L 617.741546 196.144127 
L 618.849434 186.235768 
L 619.957322 183.589999 
L 622.173098 180.574867 
L 623.280987 180.109559 
L 624.388875 187.852268 
L 625.496763 199.765808 
L 626.604651 184.686434 
L 627.71254 190.418064 
L 628.820428 187.878096 
L 629.928316 186.018712 
L 631.036204 186.140111 
L 632.144092 196.0797 
L 633.251981 207.942483 
L 634.359869 193.69978 
L 635.467757 195.758851 
L 636.575645 194.560378 
L 637.683534 192.254114 
L 638.791422 190.399731 
L 639.89931 200.339817 
L 641.007198 216.315222 
L 642.115086 200.184112 
L 643.222975 201.544992 
L 645.438751 199.785312 
L 646.546639 200.37763 
L 647.654528 213.664235 
L 648.762416 221.117051 
L 649.870304 203.96044 
L 650.978192 207.296392 
L 652.08608 206.603846 
L 653.193969 201.661346 
L 654.301857 208.775957 
L 655.409745 227.031767 
L 656.517633 239.67794 
L 657.625522 248.119475 
L 658.73341 207.558203 
L 659.841298 216.055348 
L 660.949186 211.847298 
L 660.954627 539.890812 
M 663.15982 539.890812 
L 663.164963 229.883716 
L 664.272851 245.204506 
L 665.380739 211.924415 
L 666.488627 221.086446 
L 667.596516 210.172827 
L 668.704404 217.998773 
L 669.812292 216.125679 
L 670.92018 236.477518 
L 672.028068 242.343294 
L 673.135957 219.238118 
L 674.243845 226.160681 
L 675.351733 220.451119 
L 676.459621 225.559276 
L 677.56751 224.606206 
L 678.675398 238.469346 
L 678.675398 238.469346 
" style="fill:none;stroke:#008fd5;stroke-width:4;"/>
   </g>
   <g id="line2d_98">
    <path clip-path="url(#p5b2f5e4c82)" d="M 152.427449 539.890812 
L 152.428493 477.191966 
L 152.429537 539.890812 
M 154.643559 539.890812 
L 154.644269 497.215626 
L 154.64498 539.890812 
M 156.859335 539.890812 
L 156.860046 497.215626 
L 157.967934 465.478875 
L 159.075822 450.722126 
L 160.18371 497.215626 
L 161.291599 497.215626 
L 162.399487 433.742124 
L 163.507375 465.478875 
L 164.615263 410.674805 
L 165.723152 405.407893 
L 165.725388 539.890812 
M 167.936458 539.890812 
L 167.938928 391.382526 
L 169.046816 397.097323 
L 170.154704 374.900606 
L 171.262593 359.893742 
L 172.370481 361.958051 
L 173.478369 356.602116 
L 174.586257 344.157644 
L 175.694146 339.376257 
L 176.802034 341.142888 
L 177.909922 338.295082 
L 179.01781 317.45762 
L 180.125698 317.286177 
L 181.233587 307.153981 
L 182.341475 302.700871 
L 183.449363 300.547757 
L 184.557251 305.897781 
L 185.66514 296.337347 
L 186.773028 296.894511 
L 187.880916 291.660434 
L 188.988804 290.98778 
L 190.096692 290.600627 
L 191.204581 303.930334 
L 192.312469 290.555418 
L 193.420357 294.441932 
L 194.528245 299.115514 
L 195.636133 294.159092 
L 196.744022 293.853665 
L 197.85191 297.148783 
L 198.959798 301.455649 
L 200.067686 293.476367 
L 201.175575 311.99079 
L 202.283463 300.515854 
L 203.391351 303.894471 
L 204.499239 287.677113 
L 205.607127 306.401543 
L 206.715016 303.326629 
L 207.822904 306.206747 
L 208.930792 303.715818 
L 210.03868 321.380659 
L 211.146569 289.23106 
L 212.254457 301.193327 
L 213.362345 331.872494 
L 214.470233 308.425342 
L 215.578121 311.943394 
L 216.68601 307.639506 
L 217.793898 328.240122 
L 218.901786 317.803588 
L 220.009674 296.614586 
L 221.117563 306.55833 
L 222.225451 311.707572 
L 223.333339 303.432252 
L 224.441227 315.357756 
L 225.549115 314.259617 
L 226.657004 303.186395 
L 227.764892 326.308169 
L 228.87278 304.038193 
L 229.980668 312.662635 
L 231.088557 325.163182 
L 232.196445 299.420887 
L 233.304333 318.927318 
L 234.412221 303.822877 
L 235.520109 299.82276 
L 236.627998 309.104093 
L 237.735886 304.953026 
L 238.843774 302.223372 
L 239.951662 317.572483 
L 241.059551 316.168512 
L 242.167439 292.301099 
L 243.275327 304.990229 
L 244.383215 308.975607 
L 245.491103 306.362478 
L 246.598992 301.389845 
L 247.70688 317.172444 
L 248.814768 325.691867 
L 249.922656 310.064207 
L 251.030545 292.109786 
L 252.138433 299.853906 
L 253.246321 306.401543 
L 254.354209 309.362794 
L 255.462097 311.613779 
L 256.569986 289.709637 
L 257.677874 287.554706 
L 258.785762 289.974061 
L 259.89365 290.759415 
L 261.001539 292.882757 
L 262.109427 298.663423 
L 263.217315 295.016059 
L 265.433091 282.369342 
L 266.54098 279.091853 
L 267.648868 270.273175 
L 268.756756 277.410298 
L 269.864644 281.366184 
L 270.972532 268.096387 
L 272.080421 269.9504 
L 273.188309 263.999878 
L 274.296197 258.931821 
L 275.404085 257.265094 
L 276.511974 261.523847 
L 277.619862 266.6489 
L 278.72775 263.296885 
L 279.835638 248.359601 
L 280.943526 251.147542 
L 282.051415 234.377411 
L 283.159303 232.371423 
L 284.267191 235.740057 
L 285.375079 249.673286 
L 286.482968 245.459402 
L 287.590856 243.312812 
L 288.698744 230.833807 
L 289.806632 232.665259 
L 290.91452 227.215232 
L 292.022409 230.977044 
L 293.130297 244.329675 
L 294.238185 240.052963 
L 295.346073 231.178777 
L 296.453962 234.400034 
L 297.56185 227.278331 
L 298.669738 230.125295 
L 299.777626 218.861833 
L 300.885514 224.415647 
L 301.993403 233.57456 
L 303.101291 230.628785 
L 304.209179 221.499271 
L 305.317067 227.195069 
L 306.424956 230.214663 
L 307.532844 224.751692 
L 308.640732 230.161568 
L 309.74862 232.811775 
L 310.856508 231.77485 
L 311.964397 230.43648 
L 313.072285 224.830513 
L 314.180173 225.40494 
L 315.288061 233.107055 
L 316.39595 234.539394 
L 317.503838 233.461667 
L 318.611726 232.793419 
L 319.719614 231.274371 
L 320.827502 234.168181 
L 321.935391 232.200141 
L 323.043279 241.024585 
L 324.151167 252.640245 
L 325.259055 248.702349 
L 326.366944 248.899283 
L 327.474832 238.885494 
L 328.58272 238.749869 
L 329.690608 235.835039 
L 330.798496 244.821692 
L 331.906385 256.518555 
L 334.122161 237.202219 
L 335.230049 244.789246 
L 336.337938 245.199807 
L 337.445826 244.256817 
L 338.553714 259.258672 
L 339.661602 269.207399 
L 340.76949 258.811139 
L 341.877379 256.798006 
L 342.985267 253.863366 
L 344.093155 253.056612 
L 345.201043 255.453815 
L 346.308932 266.178847 
L 347.41682 274.135432 
L 348.524708 269.261385 
L 349.632596 263.883013 
L 350.740484 263.446724 
L 351.848373 258.984778 
L 352.956261 264.090097 
L 354.064149 270.250798 
L 355.172037 279.351214 
L 356.279925 239.192998 
L 357.387814 272.349508 
L 358.495702 260.894132 
L 359.60359 264.081062 
L 360.711478 260.214571 
L 362.927255 280.080631 
L 364.035143 280.317355 
L 365.143031 276.842735 
L 366.250919 270.250798 
L 367.358808 260.262019 
L 368.466696 264.153418 
L 369.574584 272.098046 
L 370.682472 281.729976 
L 371.790361 264.831443 
L 372.898249 272.920364 
L 374.006137 263.570707 
L 375.114025 264.026914 
L 376.221913 260.877958 
L 377.329802 270.952658 
L 378.43769 282.591361 
L 379.545578 271.543057 
L 380.653466 270.172617 
L 381.761355 270.724383 
L 382.869243 267.439579 
L 383.977131 267.972093 
L 385.085019 279.397226 
L 386.192907 306.44066 
L 387.300796 263.473247 
L 388.408684 278.401509 
L 389.516572 269.751856 
L 390.62446 269.402223 
L 391.732349 268.054896 
L 392.840237 279.612925 
L 393.948125 287.636253 
L 395.056013 274.225126 
L 396.163901 270.261984 
L 397.27179 263.121592 
L 398.379678 266.82716 
L 398.38421 539.890812 
M 400.590612 539.890812 
L 400.595454 248.051974 
L 401.703343 285.322406 
L 402.811231 268.7048 
L 403.919119 267.076584 
L 405.027007 262.68796 
L 406.134895 261.898319 
L 407.242784 257.300789 
L 408.350672 270.74713 
L 409.45856 282.216629 
L 410.566448 260.1672 
L 411.674337 275.632012 
L 412.782225 248.114277 
L 413.890113 259.954989 
L 414.998001 254.401072 
L 416.105889 272.554688 
L 417.213778 262.507758 
L 418.321666 255.54106 
L 419.429554 256.798006 
L 420.537442 256.22113 
L 421.645331 247.938098 
L 422.753219 273.216275 
L 423.861107 251.961344 
L 424.968995 253.260856 
L 426.076883 253.347944 
L 427.184772 254.712886 
L 428.29266 244.692128 
L 430.508436 254.524096 
L 431.616325 242.203174 
L 432.724213 258.170976 
L 433.832101 255.173735 
L 434.939989 246.694432 
L 436.047877 247.860713 
L 437.155766 241.728453 
L 438.263654 253.933213 
L 439.371542 230.84524 
L 440.47943 253.186419 
L 441.587318 239.615907 
L 442.695207 237.865265 
L 443.803095 233.91909 
L 444.910983 233.91909 
L 446.018871 236.152775 
L 447.12676 243.207365 
L 448.234648 244.352481 
L 449.342536 235.655515 
L 450.450424 236.266365 
L 450.455462 539.890812 
M 452.660816 539.890812 
L 452.666201 215.239453 
L 453.774089 244.599937 
L 454.881977 239.99012 
L 455.989865 242.893314 
L 457.097754 234.68596 
L 458.205642 231.164321 
L 459.31353 228.737096 
L 460.421418 230.640137 
L 461.529306 229.927993 
L 462.637195 236.060168 
L 463.745083 238.656058 
L 464.852971 237.647378 
L 467.068748 227.527017 
L 468.176636 226.613922 
L 469.284524 229.526458 
L 470.392412 234.325767 
L 471.5003 236.00543 
L 472.608189 232.900656 
L 473.716077 227.006726 
L 474.823965 223.240773 
L 475.931853 223.567794 
L 477.039742 226.65593 
L 478.14763 236.180271 
L 479.255518 228.354293 
L 480.363406 229.919686 
L 481.471294 227.402407 
L 482.579183 223.24297 
L 482.584435 539.890812 
M 484.789583 539.890812 
L 484.794959 215.746892 
L 485.902847 239.880473 
L 487.010736 236.886887 
L 488.118624 225.700083 
L 489.226512 221.694377 
L 490.3344 215.493739 
L 490.33978 539.890812 
M 492.544507 539.890812 
L 492.550177 197.984277 
L 493.658065 229.455534 
L 494.765953 227.729059 
L 495.873841 218.615544 
L 496.98173 214.517358 
L 498.089618 211.390322 
L 499.197506 211.810295 
L 501.413282 225.136234 
L 502.521171 226.919251 
L 503.629059 219.63488 
L 504.736947 221.447602 
L 505.844835 222.010577 
L 506.952724 216.031372 
L 508.060612 225.595009 
L 509.1685 228.15045 
L 510.276388 237.585941 
L 512.492165 226.087847 
L 513.600053 223.851396 
L 514.707941 222.012683 
L 515.815829 225.140927 
L 516.923718 232.522511 
L 518.031606 235.103657 
L 519.139494 232.344311 
L 520.247382 236.15621 
L 521.35527 227.303609 
L 522.463159 228.456756 
L 523.571047 219.397324 
L 524.678935 238.369021 
L 525.786823 247.233851 
L 526.894711 229.646882 
L 528.0026 241.537416 
L 529.110488 238.656058 
L 530.218376 227.00172 
L 531.326264 239.511528 
L 532.434153 243.045551 
L 533.542041 247.198581 
L 534.649929 241.355859 
L 535.757817 239.315389 
L 536.865705 235.756995 
L 537.973594 239.010378 
L 539.081482 239.399834 
L 540.18937 248.755442 
L 541.297258 260.540364 
L 542.405147 244.508039 
L 543.513035 240.072629 
L 544.620923 250.502451 
L 545.728811 242.789384 
L 546.836699 240.317612 
L 547.944588 250.797519 
L 549.052476 256.546379 
L 550.160364 247.845261 
L 551.268252 240.927155 
L 552.376141 242.975857 
L 553.484029 246.281739 
L 554.591917 248.633473 
L 555.699805 248.2132 
L 556.807693 282.335336 
L 557.915582 240.7212 
L 559.02347 245.836405 
L 560.131358 245.341115 
L 561.239246 246.02435 
L 562.347135 253.019632 
L 563.455023 256.917596 
L 564.562911 263.069212 
L 565.670799 254.693299 
L 566.778687 252.032687 
L 567.886576 250.797519 
L 568.994464 249.959963 
L 570.102352 249.794225 
L 571.21024 259.876787 
L 572.318129 267.653453 
L 573.426017 252.404127 
L 574.533905 253.585655 
L 575.641793 250.638262 
L 576.749681 250.372895 
L 577.85757 250.570277 
L 578.965458 257.710861 
L 580.073346 267.287776 
L 581.181234 249.47647 
L 582.289123 250.35604 
L 583.397011 247.017874 
L 584.504899 247.133195 
L 585.612787 246.472613 
L 586.720675 251.501859 
L 587.828564 262.533433 
L 588.936452 250.814634 
L 590.04434 249.520091 
L 591.152228 242.330528 
L 592.260117 243.635932 
L 593.368005 245.821998 
L 594.475893 252.386043 
L 595.583781 261.63983 
L 596.691669 248.124674 
L 597.799558 246.462794 
L 598.907446 237.814277 
L 600.015334 240.955538 
L 601.123222 241.841175 
L 602.23111 248.312463 
L 603.338999 283.852895 
L 604.446887 233.973196 
L 605.554775 242.407211 
L 606.662663 242.4499 
L 607.770552 240.254191 
L 608.87844 244.389008 
L 609.986328 242.143934 
L 611.094216 255.953995 
L 612.202104 247.665592 
L 613.309993 248.046788 
L 614.417881 242.785062 
L 615.525769 248.607026 
L 616.633657 239.802408 
L 617.741546 253.1369 
L 618.849434 261.367182 
L 619.957322 249.64587 
L 621.06521 250.160112 
L 622.173098 247.558325 
L 623.280987 249.454684 
L 624.388875 248.845925 
L 625.496763 258.788568 
L 626.604651 265.214071 
L 628.820428 254.902918 
L 629.928316 254.188635 
L 631.036204 256.449113 
L 632.144092 257.783408 
L 633.251981 263.784495 
L 634.359869 273.653319 
L 635.467757 263.499794 
L 636.575645 264.207804 
L 637.683534 257.158272 
L 638.791422 260.740837 
L 639.89931 263.00822 
L 641.007198 271.40305 
L 642.115086 277.989236 
L 643.222975 267.868921 
L 644.330863 267.807195 
L 645.438751 266.976556 
L 646.546639 272.724761 
L 647.654528 262.260741 
L 648.762416 276.660652 
L 649.870304 283.978534 
L 650.978192 279.520285 
L 652.08608 273.26589 
L 653.193969 273.129654 
L 654.301857 273.129654 
L 654.306285 539.890812 
M 658.728537 539.890812 
L 658.73341 246.20866 
L 659.841298 291.590119 
L 660.949186 279.45869 
L 660.95351 539.890812 
M 665.375976 539.890812 
L 665.380739 252.853802 
L 666.488627 292.784997 
L 667.596516 284.267779 
L 668.704404 281.896863 
L 669.812292 274.405355 
L 669.816699 539.890812 
M 672.02374 539.890812 
L 672.028068 279.15267 
L 673.135957 274.444122 
L 674.243845 297.925313 
L 675.351733 282.01426 
L 676.459621 283.621005 
L 677.56751 283.603244 
L 677.571764 539.890812 
L 677.571764 539.890812 
" style="fill:none;stroke:#fc4f30;stroke-width:4;"/>
   </g>
   <g id="patch_3">
    <path d="M 80.748125 515.4355 
L 80.748125 31.5955 
" style="fill:none;stroke:#f0f0f0;stroke-linecap:square;stroke-linejoin:miter;stroke-width:3;"/>
   </g>
   <g id="patch_4">
    <path d="M 80.748125 515.4355 
L 707.148125 515.4355 
" style="fill:none;stroke:#f0f0f0;stroke-linecap:square;stroke-linejoin:miter;stroke-width:3;"/>
   </g>
   <g id="text_19">
    <!-- New Cases of COVID-19 -->
    <g style="fill:#555555;" transform="translate(282.321575 21.5955)scale(0.2016 -0.2016)">
     <defs>
      <path d="M 7.703125 71.40625 
L 7.703125 0 
L 16.703125 0 
L 16.703125 57.296875 
L 16.90625 57.296875 
L 54.203125 0 
L 64.59375 0 
L 64.59375 71.40625 
L 55.59375 71.40625 
L 55.59375 13.5 
L 55.40625 13.5 
L 17.796875 71.40625 
z
" id="HelveticaNeue-78"/>
      <path d="M 42.296875 30.796875 
L 12.59375 30.796875 
Q 12.796875 33.796875 13.890625 36.4375 
Q 15 39.09375 16.890625 41.09375 
Q 18.796875 43.09375 21.4375 44.25 
Q 24.09375 45.40625 27.40625 45.40625 
Q 30.59375 45.40625 33.25 44.25 
Q 35.90625 43.09375 37.84375 41.140625 
Q 39.796875 39.203125 40.9375 36.5 
Q 42.09375 33.796875 42.296875 30.796875 
z
M 50.5 16.40625 
L 42.09375 16.40625 
Q 41 11.296875 37.546875 8.796875 
Q 34.09375 6.296875 28.703125 6.296875 
Q 24.5 6.296875 21.390625 7.6875 
Q 18.296875 9.09375 16.296875 11.4375 
Q 14.296875 13.796875 13.390625 16.84375 
Q 12.5 19.90625 12.59375 23.296875 
L 51.296875 23.296875 
Q 51.5 28 50.453125 33.203125 
Q 49.40625 38.40625 46.65625 42.796875 
Q 43.90625 47.203125 39.34375 50.046875 
Q 34.796875 52.90625 27.90625 52.90625 
Q 22.59375 52.90625 18.140625 50.90625 
Q 13.703125 48.90625 10.453125 45.296875 
Q 7.203125 41.703125 5.390625 36.796875 
Q 3.59375 31.90625 3.59375 26 
Q 3.796875 20.09375 5.34375 15.09375 
Q 6.90625 10.09375 10 6.5 
Q 13.09375 2.90625 17.640625 0.90625 
Q 22.203125 -1.09375 28.40625 -1.09375 
Q 37.203125 -1.09375 43 3.296875 
Q 48.796875 7.703125 50.5 16.40625 
z
" id="HelveticaNeue-101"/>
      <path d="M 57.59375 0 
L 74.09375 51.703125 
L 65.296875 51.703125 
L 53.703125 9.40625 
L 53.5 9.40625 
L 42.703125 51.703125 
L 33.40625 51.703125 
L 23 9.40625 
L 22.796875 9.40625 
L 11.09375 51.703125 
L 1.703125 51.703125 
L 18.296875 0 
L 27.5 0 
L 37.90625 41.09375 
L 38.09375 41.09375 
L 48.59375 0 
z
" id="HelveticaNeue-119"/>
      <path id="HelveticaNeue-32"/>
      <path d="M 58 49.90625 
L 67.5 49.90625 
Q 66.703125 55.59375 64.09375 59.9375 
Q 61.5 64.296875 57.59375 67.1875 
Q 53.703125 70.09375 48.703125 71.59375 
Q 43.703125 73.09375 38.09375 73.09375 
Q 29.90625 73.09375 23.546875 70.140625 
Q 17.203125 67.203125 12.953125 62.09375 
Q 8.703125 57 6.5 50.140625 
Q 4.296875 43.296875 4.296875 35.5 
Q 4.296875 27.703125 6.34375 20.890625 
Q 8.40625 14.09375 12.5 9.09375 
Q 16.59375 4.09375 22.796875 1.25 
Q 29 -1.59375 37.296875 -1.59375 
Q 51 -1.59375 58.890625 5.90625 
Q 66.796875 13.40625 68.203125 26.90625 
L 58.703125 26.90625 
Q 58.40625 22.5 56.90625 18.703125 
Q 55.40625 14.90625 52.75 12.15625 
Q 50.09375 9.40625 46.4375 7.84375 
Q 42.796875 6.296875 38.09375 6.296875 
Q 31.703125 6.296875 27.09375 8.6875 
Q 22.5 11.09375 19.546875 15.140625 
Q 16.59375 19.203125 15.1875 24.640625 
Q 13.796875 30.09375 13.796875 36.203125 
Q 13.796875 41.796875 15.1875 47 
Q 16.59375 52.203125 19.546875 56.25 
Q 22.5 60.296875 27.046875 62.6875 
Q 31.59375 65.09375 38 65.09375 
Q 45.5 65.09375 50.953125 61.296875 
Q 56.40625 57.5 58 49.90625 
z
" id="HelveticaNeue-67"/>
      <path d="M 52.203125 0.203125 
Q 50 -1.09375 46.09375 -1.09375 
Q 42.796875 -1.09375 40.84375 0.75 
Q 38.90625 2.59375 38.90625 6.796875 
Q 35.40625 2.59375 30.75 0.75 
Q 26.09375 -1.09375 20.703125 -1.09375 
Q 17.203125 -1.09375 14.046875 -0.296875 
Q 10.90625 0.5 8.59375 2.203125 
Q 6.296875 3.90625 4.9375 6.65625 
Q 3.59375 9.40625 3.59375 13.296875 
Q 3.59375 17.703125 5.09375 20.5 
Q 6.59375 23.296875 9.046875 25.046875 
Q 11.5 26.796875 14.640625 27.6875 
Q 17.796875 28.59375 21.09375 29.203125 
Q 24.59375 29.90625 27.75 30.25 
Q 30.90625 30.59375 33.296875 31.25 
Q 35.703125 31.90625 37.09375 33.15625 
Q 38.5 34.40625 38.5 36.796875 
Q 38.5 39.59375 37.453125 41.296875 
Q 36.40625 43 34.75 43.890625 
Q 33.09375 44.796875 31.046875 45.09375 
Q 29 45.40625 27 45.40625 
Q 21.59375 45.40625 18 43.34375 
Q 14.40625 41.296875 14.09375 35.59375 
L 5.59375 35.59375 
Q 5.796875 40.40625 7.59375 43.703125 
Q 9.40625 47 12.40625 49.046875 
Q 15.40625 51.09375 19.25 52 
Q 23.09375 52.90625 27.5 52.90625 
Q 31 52.90625 34.453125 52.40625 
Q 37.90625 51.90625 40.703125 50.34375 
Q 43.5 48.796875 45.203125 46 
Q 46.90625 43.203125 46.90625 38.703125 
L 46.90625 12.09375 
Q 46.90625 9.09375 47.25 7.6875 
Q 47.59375 6.296875 49.59375 6.296875 
Q 50.703125 6.296875 52.203125 6.796875 
z
M 38.40625 26.703125 
Q 36.796875 25.5 34.1875 24.953125 
Q 31.59375 24.40625 28.75 24.046875 
Q 25.90625 23.703125 23 23.25 
Q 20.09375 22.796875 17.796875 21.796875 
Q 15.5 20.796875 14.046875 18.9375 
Q 12.59375 17.09375 12.59375 13.90625 
Q 12.59375 11.796875 13.4375 10.34375 
Q 14.296875 8.90625 15.640625 8 
Q 17 7.09375 18.796875 6.6875 
Q 20.59375 6.296875 22.59375 6.296875 
Q 26.796875 6.296875 29.796875 7.4375 
Q 32.796875 8.59375 34.6875 10.34375 
Q 36.59375 12.09375 37.5 14.140625 
Q 38.40625 16.203125 38.40625 18 
z
" id="HelveticaNeue-97"/>
      <path d="M 11.59375 16.296875 
L 3.09375 16.296875 
Q 3.296875 11.5 5.09375 8.140625 
Q 6.90625 4.796875 9.90625 2.75 
Q 12.90625 0.703125 16.796875 -0.1875 
Q 20.703125 -1.09375 25 -1.09375 
Q 28.90625 -1.09375 32.84375 -0.34375 
Q 36.796875 0.40625 39.9375 2.296875 
Q 43.09375 4.203125 45.046875 7.296875 
Q 47 10.40625 47 15.09375 
Q 47 18.796875 45.546875 21.296875 
Q 44.09375 23.796875 41.75 25.4375 
Q 39.40625 27.09375 36.34375 28.09375 
Q 33.296875 29.09375 30.09375 29.796875 
Q 27.09375 30.5 24.09375 31.140625 
Q 21.09375 31.796875 18.6875 32.75 
Q 16.296875 33.703125 14.75 35.140625 
Q 13.203125 36.59375 13.203125 38.796875 
Q 13.203125 40.796875 14.203125 42.046875 
Q 15.203125 43.296875 16.796875 44.046875 
Q 18.40625 44.796875 20.34375 45.09375 
Q 22.296875 45.40625 24.203125 45.40625 
Q 26.296875 45.40625 28.34375 44.953125 
Q 30.40625 44.5 32.09375 43.5 
Q 33.796875 42.5 34.890625 40.84375 
Q 36 39.203125 36.203125 36.703125 
L 44.703125 36.703125 
Q 44.40625 41.40625 42.703125 44.546875 
Q 41 47.703125 38.140625 49.546875 
Q 35.296875 51.40625 31.59375 52.15625 
Q 27.90625 52.90625 23.5 52.90625 
Q 20.09375 52.90625 16.640625 52.046875 
Q 13.203125 51.203125 10.453125 49.453125 
Q 7.703125 47.703125 5.953125 44.890625 
Q 4.203125 42.09375 4.203125 38.203125 
Q 4.203125 33.203125 6.703125 30.390625 
Q 9.203125 27.59375 12.953125 26.046875 
Q 16.703125 24.5 21.09375 23.640625 
Q 25.5 22.796875 29.25 21.75 
Q 33 20.703125 35.5 19 
Q 38 17.296875 38 14 
Q 38 11.59375 36.796875 10.046875 
Q 35.59375 8.5 33.75 7.703125 
Q 31.90625 6.90625 29.703125 6.59375 
Q 27.5 6.296875 25.5 6.296875 
Q 22.90625 6.296875 20.453125 6.796875 
Q 18 7.296875 16.046875 8.4375 
Q 14.09375 9.59375 12.890625 11.546875 
Q 11.703125 13.5 11.59375 16.296875 
z
" id="HelveticaNeue-115"/>
      <path d="M 12.59375 25.796875 
Q 12.59375 30.5 13.84375 34.140625 
Q 15.09375 37.796875 17.296875 40.296875 
Q 19.5 42.796875 22.453125 44.09375 
Q 25.40625 45.40625 28.703125 45.40625 
Q 32 45.40625 34.953125 44.09375 
Q 37.90625 42.796875 40.09375 40.296875 
Q 42.296875 37.796875 43.546875 34.140625 
Q 44.796875 30.5 44.796875 25.796875 
Q 44.796875 21.09375 43.546875 17.4375 
Q 42.296875 13.796875 40.09375 11.34375 
Q 37.90625 8.90625 34.953125 7.59375 
Q 32 6.296875 28.703125 6.296875 
Q 25.40625 6.296875 22.453125 7.59375 
Q 19.5 8.90625 17.296875 11.34375 
Q 15.09375 13.796875 13.84375 17.4375 
Q 12.59375 21.09375 12.59375 25.796875 
z
M 3.59375 25.796875 
Q 3.59375 20.09375 5.1875 15.1875 
Q 6.796875 10.296875 10 6.640625 
Q 13.203125 3 17.890625 0.953125 
Q 22.59375 -1.09375 28.703125 -1.09375 
Q 34.90625 -1.09375 39.546875 0.953125 
Q 44.203125 3 47.390625 6.640625 
Q 50.59375 10.296875 52.1875 15.1875 
Q 53.796875 20.09375 53.796875 25.796875 
Q 53.796875 31.5 52.1875 36.453125 
Q 50.59375 41.40625 47.390625 45.046875 
Q 44.203125 48.703125 39.546875 50.796875 
Q 34.90625 52.90625 28.703125 52.90625 
Q 22.59375 52.90625 17.890625 50.796875 
Q 13.203125 48.703125 10 45.046875 
Q 6.796875 41.40625 5.1875 36.453125 
Q 3.59375 31.5 3.59375 25.796875 
z
" id="HelveticaNeue-111"/>
      <path d="M 9.90625 44.203125 
L 9.90625 0 
L 18.40625 0 
L 18.40625 44.203125 
L 28.40625 44.203125 
L 28.40625 51.703125 
L 18.40625 51.703125 
L 18.40625 58.90625 
Q 18.40625 62.296875 20.09375 63.5 
Q 21.796875 64.703125 24.90625 64.703125 
Q 26 64.703125 27.296875 64.546875 
Q 28.59375 64.40625 29.703125 64 
L 29.703125 71.40625 
Q 28.5 71.796875 26.953125 72 
Q 25.40625 72.203125 24.203125 72.203125 
Q 17.203125 72.203125 13.546875 68.953125 
Q 9.90625 65.703125 9.90625 59.40625 
L 9.90625 51.703125 
L 1.203125 51.703125 
L 1.203125 44.203125 
z
" id="HelveticaNeue-102"/>
      <path d="M 13.296875 35.703125 
Q 13.296875 41.09375 14.6875 46.34375 
Q 16.09375 51.59375 19.09375 55.796875 
Q 22.09375 60 26.796875 62.546875 
Q 31.5 65.09375 38 65.09375 
Q 44.5 65.09375 49.203125 62.546875 
Q 53.90625 60 56.90625 55.796875 
Q 59.90625 51.59375 61.296875 46.34375 
Q 62.703125 41.09375 62.703125 35.703125 
Q 62.703125 30.296875 61.296875 25.046875 
Q 59.90625 19.796875 56.90625 15.59375 
Q 53.90625 11.40625 49.203125 8.84375 
Q 44.5 6.296875 38 6.296875 
Q 31.5 6.296875 26.796875 8.84375 
Q 22.09375 11.40625 19.09375 15.59375 
Q 16.09375 19.796875 14.6875 25.046875 
Q 13.296875 30.296875 13.296875 35.703125 
z
M 3.796875 35.703125 
Q 3.796875 28.40625 5.9375 21.65625 
Q 8.09375 14.90625 12.390625 9.703125 
Q 16.703125 4.5 23.09375 1.453125 
Q 29.5 -1.59375 38 -1.59375 
Q 46.5 -1.59375 52.890625 1.453125 
Q 59.296875 4.5 63.59375 9.703125 
Q 67.90625 14.90625 70.046875 21.65625 
Q 72.203125 28.40625 72.203125 35.703125 
Q 72.203125 43 70.046875 49.75 
Q 67.90625 56.5 63.59375 61.703125 
Q 59.296875 66.90625 52.890625 70 
Q 46.5 73.09375 38 73.09375 
Q 29.5 73.09375 23.09375 70 
Q 16.703125 66.90625 12.390625 61.703125 
Q 8.09375 56.5 5.9375 49.75 
Q 3.796875 43 3.796875 35.703125 
z
" id="HelveticaNeue-79"/>
      <path d="M 35.90625 0 
L 61.296875 71.40625 
L 51.40625 71.40625 
L 30.796875 9.5 
L 30.59375 9.5 
L 10.203125 71.40625 
L 0 71.40625 
L 25.09375 0 
z
" id="HelveticaNeue-86"/>
      <path d="M 8.203125 71.40625 
L 8.203125 0 
L 17.703125 0 
L 17.703125 71.40625 
z
" id="HelveticaNeue-73"/>
      <path d="M 17.296875 8 
L 17.296875 63.40625 
L 33.296875 63.40625 
Q 39.90625 63.40625 44.40625 61.546875 
Q 48.90625 59.703125 51.75 56.140625 
Q 54.59375 52.59375 55.84375 47.546875 
Q 57.09375 42.5 57.09375 36.09375 
Q 57.09375 29.5 55.75 24.84375 
Q 54.40625 20.203125 52.296875 17.09375 
Q 50.203125 14 47.546875 12.203125 
Q 44.90625 10.40625 42.203125 9.453125 
Q 39.5 8.5 37.09375 8.25 
Q 34.703125 8 33.09375 8 
z
M 7.796875 71.40625 
L 7.796875 0 
L 32.296875 0 
Q 41.203125 0 47.703125 2.5 
Q 54.203125 5 58.390625 9.75 
Q 62.59375 14.5 64.59375 21.453125 
Q 66.59375 28.40625 66.59375 37.40625 
Q 66.59375 54.59375 57.6875 63 
Q 48.796875 71.40625 32.296875 71.40625 
z
" id="HelveticaNeue-68"/>
     </defs>
     <use xlink:href="#HelveticaNeue-78"/>
     <use x="72.199982" xlink:href="#HelveticaNeue-101"/>
     <use x="125.899979" xlink:href="#HelveticaNeue-119"/>
     <use x="201.699966" xlink:href="#HelveticaNeue-32"/>
     <use x="229.499954" xlink:href="#HelveticaNeue-67"/>
     <use x="301.699936" xlink:href="#HelveticaNeue-97"/>
     <use x="355.399933" xlink:href="#HelveticaNeue-115"/>
     <use x="405.399918" xlink:href="#HelveticaNeue-101"/>
     <use x="459.099915" xlink:href="#HelveticaNeue-115"/>
     <use x="509.099899" xlink:href="#HelveticaNeue-32"/>
     <use x="536.899887" xlink:href="#HelveticaNeue-111"/>
     <use x="594.299881" xlink:href="#HelveticaNeue-102"/>
     <use x="623.899872" xlink:href="#HelveticaNeue-32"/>
     <use x="651.69986" xlink:href="#HelveticaNeue-67"/>
     <use x="723.899841" xlink:href="#HelveticaNeue-79"/>
     <use x="799.899826" xlink:href="#HelveticaNeue-86"/>
     <use x="860.999817" xlink:href="#HelveticaNeue-73"/>
     <use x="886.899811" xlink:href="#HelveticaNeue-68"/>
     <use x="957.299805" xlink:href="#HelveticaNeue-45"/>
     <use x="996.199799" xlink:href="#HelveticaNeue-49"/>
     <use x="1051.799789" xlink:href="#HelveticaNeue-57"/>
    </g>
   </g>
   <g id="legend_1">
    <g id="line2d_99">
     <path d="M 570.298125 49.292375 
L 598.298125 49.292375 
" style="fill:none;stroke:#008fd5;stroke-width:4;"/>
    </g>
    <g id="line2d_100"/>
    <g id="text_20">
     <!-- United States -->
     <g style="fill:#555555;" transform="translate(609.498125 54.192375)scale(0.14 -0.14)">
      <defs>
       <path d="M 64.796875 25.796875 
L 64.796875 71.40625 
L 55.296875 71.40625 
L 55.296875 25.796875 
Q 55.296875 16.203125 50.546875 11.25 
Q 45.796875 6.296875 36.703125 6.296875 
Q 27.09375 6.296875 22 11.25 
Q 16.90625 16.203125 16.90625 25.796875 
L 16.90625 71.40625 
L 7.40625 71.40625 
L 7.40625 25.796875 
Q 7.40625 11.5 15.15625 4.953125 
Q 22.90625 -1.59375 36.703125 -1.59375 
Q 50.203125 -1.59375 57.5 5.25 
Q 64.796875 12.09375 64.796875 25.796875 
z
" id="HelveticaNeue-85"/>
       <path d="M 6.40625 51.703125 
L 6.40625 0 
L 14.90625 0 
L 14.90625 29.203125 
Q 14.90625 32.703125 15.84375 35.640625 
Q 16.796875 38.59375 18.6875 40.796875 
Q 20.59375 43 23.4375 44.203125 
Q 26.296875 45.40625 30.203125 45.40625 
Q 35.09375 45.40625 37.890625 42.59375 
Q 40.703125 39.796875 40.703125 35 
L 40.703125 0 
L 49.203125 0 
L 49.203125 34 
Q 49.203125 38.203125 48.34375 41.640625 
Q 47.5 45.09375 45.390625 47.59375 
Q 43.296875 50.09375 39.890625 51.5 
Q 36.5 52.90625 31.40625 52.90625 
Q 19.90625 52.90625 14.59375 43.5 
L 14.40625 43.5 
L 14.40625 51.703125 
z
" id="HelveticaNeue-110"/>
       <path d="M 15.40625 61 
L 15.40625 71.40625 
L 6.90625 71.40625 
L 6.90625 61 
z
M 6.90625 51.703125 
L 6.90625 0 
L 15.40625 0 
L 15.40625 51.703125 
z
" id="HelveticaNeue-105"/>
       <path d="M 18.203125 51.703125 
L 18.203125 67.203125 
L 9.703125 67.203125 
L 9.703125 51.703125 
L 0.90625 51.703125 
L 0.90625 44.203125 
L 9.703125 44.203125 
L 9.703125 11.296875 
Q 9.703125 7.703125 10.390625 5.5 
Q 11.09375 3.296875 12.546875 2.09375 
Q 14 0.90625 16.34375 0.453125 
Q 18.703125 0 22 0 
L 28.5 0 
L 28.5 7.5 
L 24.59375 7.5 
Q 22.59375 7.5 21.34375 7.640625 
Q 20.09375 7.796875 19.390625 8.296875 
Q 18.703125 8.796875 18.453125 9.6875 
Q 18.203125 10.59375 18.203125 12.09375 
L 18.203125 44.203125 
L 28.5 44.203125 
L 28.5 51.703125 
z
" id="HelveticaNeue-116"/>
       <path d="M 12.59375 25.40625 
Q 12.59375 29.203125 13.390625 32.796875 
Q 14.203125 36.40625 16 39.203125 
Q 17.796875 42 20.796875 43.703125 
Q 23.796875 45.40625 28.09375 45.40625 
Q 32.5 45.40625 35.59375 43.75 
Q 38.703125 42.09375 40.640625 39.390625 
Q 42.59375 36.703125 43.5 33.140625 
Q 44.40625 29.59375 44.40625 25.796875 
Q 44.40625 22.203125 43.546875 18.703125 
Q 42.703125 15.203125 40.796875 12.453125 
Q 38.90625 9.703125 35.90625 8 
Q 32.90625 6.296875 28.59375 6.296875 
Q 24.5 6.296875 21.453125 7.890625 
Q 18.40625 9.5 16.453125 12.203125 
Q 14.5 14.90625 13.546875 18.34375 
Q 12.59375 21.796875 12.59375 25.40625 
z
M 52.59375 0 
L 52.59375 71.40625 
L 44.09375 71.40625 
L 44.09375 44.796875 
L 43.90625 44.796875 
Q 42.5 47.09375 40.453125 48.640625 
Q 38.40625 50.203125 36.09375 51.140625 
Q 33.796875 52.09375 31.5 52.5 
Q 29.203125 52.90625 27.203125 52.90625 
Q 21.296875 52.90625 16.84375 50.75 
Q 12.40625 48.59375 9.453125 44.9375 
Q 6.5 41.296875 5.046875 36.390625 
Q 3.59375 31.5 3.59375 26 
Q 3.59375 20.5 5.09375 15.59375 
Q 6.59375 10.703125 9.546875 7 
Q 12.5 3.296875 16.953125 1.09375 
Q 21.40625 -1.09375 27.40625 -1.09375 
Q 32.796875 -1.09375 37.296875 0.796875 
Q 41.796875 2.703125 43.90625 7 
L 44.09375 7 
L 44.09375 0 
z
" id="HelveticaNeue-100"/>
       <path d="M 49.09375 50.5 
L 58.09375 50.5 
Q 57.90625 56.40625 55.84375 60.65625 
Q 53.796875 64.90625 50.25 67.703125 
Q 46.703125 70.5 42 71.796875 
Q 37.296875 73.09375 31.796875 73.09375 
Q 26.90625 73.09375 22.25 71.84375 
Q 17.59375 70.59375 13.9375 68.046875 
Q 10.296875 65.5 8.09375 61.546875 
Q 5.90625 57.59375 5.90625 52.203125 
Q 5.90625 47.296875 7.84375 44.046875 
Q 9.796875 40.796875 13.046875 38.75 
Q 16.296875 36.703125 20.390625 35.453125 
Q 24.5 34.203125 28.75 33.25 
Q 33 32.296875 37.09375 31.390625 
Q 41.203125 30.5 44.453125 29.046875 
Q 47.703125 27.59375 49.640625 25.296875 
Q 51.59375 23 51.59375 19.296875 
Q 51.59375 15.40625 50 12.90625 
Q 48.40625 10.40625 45.796875 8.953125 
Q 43.203125 7.5 39.953125 6.890625 
Q 36.703125 6.296875 33.5 6.296875 
Q 29.5 6.296875 25.703125 7.296875 
Q 21.90625 8.296875 19.046875 10.390625 
Q 16.203125 12.5 14.453125 15.75 
Q 12.703125 19 12.703125 23.5 
L 3.703125 23.5 
Q 3.703125 17 6.046875 12.25 
Q 8.40625 7.5 12.453125 4.453125 
Q 16.5 1.40625 21.84375 -0.09375 
Q 27.203125 -1.59375 33.203125 -1.59375 
Q 38.09375 -1.59375 43.046875 -0.4375 
Q 48 0.703125 52 3.25 
Q 56 5.796875 58.546875 9.84375 
Q 61.09375 13.90625 61.09375 19.59375 
Q 61.09375 24.90625 59.140625 28.40625 
Q 57.203125 31.90625 53.953125 34.203125 
Q 50.703125 36.5 46.59375 37.84375 
Q 42.5 39.203125 38.25 40.203125 
Q 34 41.203125 29.890625 42.046875 
Q 25.796875 42.90625 22.546875 44.203125 
Q 19.296875 45.5 17.34375 47.546875 
Q 15.40625 49.59375 15.40625 52.90625 
Q 15.40625 56.40625 16.75 58.75 
Q 18.09375 61.09375 20.34375 62.5 
Q 22.59375 63.90625 25.5 64.5 
Q 28.40625 65.09375 31.40625 65.09375 
Q 38.796875 65.09375 43.546875 61.640625 
Q 48.296875 58.203125 49.09375 50.5 
z
" id="HelveticaNeue-83"/>
      </defs>
      <use xlink:href="#HelveticaNeue-85"/>
      <use x="72.199982" xlink:href="#HelveticaNeue-110"/>
      <use x="127.799973" xlink:href="#HelveticaNeue-105"/>
      <use x="149.999969" xlink:href="#HelveticaNeue-116"/>
      <use x="181.499954" xlink:href="#HelveticaNeue-101"/>
      <use x="235.199951" xlink:href="#HelveticaNeue-100"/>
      <use x="294.499939" xlink:href="#HelveticaNeue-32"/>
      <use x="322.299927" xlink:href="#HelveticaNeue-83"/>
      <use x="387.099915" xlink:href="#HelveticaNeue-116"/>
      <use x="418.599899" xlink:href="#HelveticaNeue-97"/>
      <use x="472.299896" xlink:href="#HelveticaNeue-116"/>
      <use x="503.799881" xlink:href="#HelveticaNeue-101"/>
      <use x="557.499878" xlink:href="#HelveticaNeue-115"/>
     </g>
    </g>
    <g id="line2d_101">
     <path d="M 570.298125 69.047687 
L 598.298125 69.047687 
" style="fill:none;stroke:#fc4f30;stroke-width:4;"/>
    </g>
    <g id="line2d_102"/>
    <g id="text_21">
     <!-- Florida -->
     <g style="fill:#555555;" transform="translate(609.498125 73.947687)scale(0.14 -0.14)">
      <defs>
       <path d="M 7.796875 71.40625 
L 7.796875 0 
L 17.296875 0 
L 17.296875 32.703125 
L 50.09375 32.703125 
L 50.09375 40.703125 
L 17.296875 40.703125 
L 17.296875 63.40625 
L 54.703125 63.40625 
L 54.703125 71.40625 
z
" id="HelveticaNeue-70"/>
       <path d="M 6.90625 71.40625 
L 6.90625 0 
L 15.40625 0 
L 15.40625 71.40625 
z
" id="HelveticaNeue-108"/>
       <path d="M 6.09375 51.703125 
L 6.09375 0 
L 14.59375 0 
L 14.59375 23 
Q 14.59375 28 15.59375 31.84375 
Q 16.59375 35.703125 18.796875 38.390625 
Q 21 41.09375 24.59375 42.5 
Q 28.203125 43.90625 33.296875 43.90625 
L 33.296875 52.90625 
Q 26.40625 53.09375 21.90625 50.09375 
Q 17.40625 47.09375 14.296875 40.796875 
L 14.09375 40.796875 
L 14.09375 51.703125 
z
" id="HelveticaNeue-114"/>
      </defs>
      <use xlink:href="#HelveticaNeue-70"/>
      <use x="57.399994" xlink:href="#HelveticaNeue-108"/>
      <use x="79.599991" xlink:href="#HelveticaNeue-111"/>
      <use x="136.999985" xlink:href="#HelveticaNeue-114"/>
      <use x="170.299973" xlink:href="#HelveticaNeue-105"/>
      <use x="192.499969" xlink:href="#HelveticaNeue-100"/>
      <use x="251.799957" xlink:href="#HelveticaNeue-97"/>
     </g>
    </g>
   </g>
  </g>
 </g>
 <defs>
  <clipPath id="p5b2f5e4c82">
   <rect height="483.84" width="626.4" x="80.748125" y="31.5955"/>
  </clipPath>
 </defs>
</svg>
