<?xml version="1.0" encoding="utf-8" standalone="no"?>
<!DOCTYPE svg PUBLIC "-//W3C//DTD SVG 1.1//EN"
  "http://www.w3.org/Graphics/SVG/1.1/DTD/svg11.dtd">
<!-- Created with matplotlib (https://matplotlib.org/) -->
<svg height="538.890812pt" version="1.1" viewBox="0 0 714.348125 538.890812" width="714.348125pt" xmlns="http://www.w3.org/2000/svg" xmlns:xlink="http://www.w3.org/1999/xlink">
 <metadata>
  <rdf:RDF xmlns:cc="http://creativecommons.org/ns#" xmlns:dc="http://purl.org/dc/elements/1.1/" xmlns:rdf="http://www.w3.org/1999/02/22-rdf-syntax-ns#">
   <cc:Work>
    <dc:type rdf:resource="http://purl.org/dc/dcmitype/StillImage"/>
    <dc:date>2021-07-07T23:33:14.279901</dc:date>
    <dc:format>image/svg+xml</dc:format>
    <dc:creator>
     <cc:Agent>
      <dc:title>Matplotlib v3.3.4, https://matplotlib.org/</dc:title>
     </cc:Agent>
    </dc:creator>
   </cc:Work>
  </rdf:RDF>
 </metadata>
 <defs>
  <style type="text/css">*{stroke-linecap:butt;stroke-linejoin:round;}</style>
 </defs>
 <g id="figure_1">
  <g id="patch_1">
   <path d="M 0 538.890812 
L 714.348125 538.890812 
L 714.348125 0 
L 0 0 
z
" style="fill:#f0f0f0;"/>
  </g>
  <g id="axes_1">
   <g id="patch_2">
    <path d="M 80.748125 515.4355 
L 707.148125 515.4355 
L 707.148125 31.5955 
L 80.748125 31.5955 
z
" style="fill:#f0f0f0;"/>
   </g>
   <g id="matplotlib.axis_1">
    <g id="xtick_1">
     <g id="line2d_1">
      <path clip-path="url(#p832e615439)" d="M 86.742383 515.4355 
L 86.742383 31.5955 
" style="fill:none;stroke:#cbcbcb;"/>
     </g>
     <g id="line2d_2"/>
     <g id="text_1">
      <!-- 2020-01 -->
      <g style="fill:#555555;" transform="translate(60.669571 528.932375)scale(0.14 -0.14)">
       <defs>
        <path d="M 4.40625 45.796875 
L 12.90625 45.796875 
Q 12.796875 49 13.546875 52.140625 
Q 14.296875 55.296875 16 57.796875 
Q 17.703125 60.296875 20.34375 61.84375 
Q 23 63.40625 26.703125 63.40625 
Q 29.5 63.40625 32 62.5 
Q 34.5 61.59375 36.34375 59.890625 
Q 38.203125 58.203125 39.296875 55.84375 
Q 40.40625 53.5 40.40625 50.59375 
Q 40.40625 46.90625 39.25 44.09375 
Q 38.09375 41.296875 35.84375 38.890625 
Q 33.59375 36.5 30.1875 34.140625 
Q 26.796875 31.796875 22.296875 29 
Q 18.59375 26.796875 15.1875 24.296875 
Q 11.796875 21.796875 9.09375 18.5 
Q 6.40625 15.203125 4.65625 10.75 
Q 2.90625 6.296875 2.40625 0 
L 48.703125 0 
L 48.703125 7.5 
L 12.296875 7.5 
Q 12.90625 10.796875 14.84375 13.34375 
Q 16.796875 15.90625 19.546875 18.09375 
Q 22.296875 20.296875 25.59375 22.25 
Q 28.90625 24.203125 32.203125 26.203125 
Q 35.5 28.296875 38.59375 30.59375 
Q 41.703125 32.90625 44.09375 35.75 
Q 46.5 38.59375 47.953125 42.1875 
Q 49.40625 45.796875 49.40625 50.5 
Q 49.40625 55.5 47.65625 59.296875 
Q 45.90625 63.09375 42.90625 65.640625 
Q 39.90625 68.203125 35.84375 69.546875 
Q 31.796875 70.90625 27.203125 70.90625 
Q 21.59375 70.90625 17.1875 69 
Q 12.796875 67.09375 9.84375 63.75 
Q 6.90625 60.40625 5.5 55.796875 
Q 4.09375 51.203125 4.40625 45.796875 
z
" id="HelveticaNeue-50"/>
        <path d="M 13.203125 34.90625 
Q 13.203125 37.5 13.25 40.640625 
Q 13.296875 43.796875 13.75 46.9375 
Q 14.203125 50.09375 15.046875 53.09375 
Q 15.90625 56.09375 17.546875 58.34375 
Q 19.203125 60.59375 21.703125 62 
Q 24.203125 63.40625 27.796875 63.40625 
Q 31.40625 63.40625 33.90625 62 
Q 36.40625 60.59375 38.046875 58.34375 
Q 39.703125 56.09375 40.546875 53.09375 
Q 41.40625 50.09375 41.84375 46.9375 
Q 42.296875 43.796875 42.34375 40.640625 
Q 42.40625 37.5 42.40625 34.90625 
Q 42.40625 30.90625 42.15625 25.953125 
Q 41.90625 21 40.546875 16.640625 
Q 39.203125 12.296875 36.203125 9.296875 
Q 33.203125 6.296875 27.796875 6.296875 
Q 22.40625 6.296875 19.40625 9.296875 
Q 16.40625 12.296875 15.046875 16.640625 
Q 13.703125 21 13.453125 25.953125 
Q 13.203125 30.90625 13.203125 34.90625 
z
M 4.203125 34.796875 
Q 4.203125 30.90625 4.390625 26.703125 
Q 4.59375 22.5 5.390625 18.5 
Q 6.203125 14.5 7.703125 10.953125 
Q 9.203125 7.40625 11.796875 4.703125 
Q 14.40625 2 18.34375 0.453125 
Q 22.296875 -1.09375 27.796875 -1.09375 
Q 33.40625 -1.09375 37.296875 0.453125 
Q 41.203125 2 43.796875 4.703125 
Q 46.40625 7.40625 47.90625 10.953125 
Q 49.40625 14.5 50.203125 18.5 
Q 51 22.5 51.203125 26.703125 
Q 51.40625 30.90625 51.40625 34.796875 
Q 51.40625 38.703125 51.203125 42.890625 
Q 51 47.09375 50.203125 51.09375 
Q 49.40625 55.09375 47.90625 58.6875 
Q 46.40625 62.296875 43.796875 65 
Q 41.203125 67.703125 37.25 69.296875 
Q 33.296875 70.90625 27.796875 70.90625 
Q 22.296875 70.90625 18.34375 69.296875 
Q 14.40625 67.703125 11.796875 65 
Q 9.203125 62.296875 7.703125 58.6875 
Q 6.203125 55.09375 5.390625 51.09375 
Q 4.59375 47.09375 4.390625 42.890625 
Q 4.203125 38.703125 4.203125 34.796875 
z
" id="HelveticaNeue-48"/>
        <path d="M 5 31.796875 
L 5 23.796875 
L 33.90625 23.796875 
L 33.90625 31.796875 
z
" id="HelveticaNeue-45"/>
        <path d="M 35.59375 0 
L 35.59375 70.90625 
L 29.09375 70.90625 
Q 28.40625 66.90625 26.5 64.296875 
Q 24.59375 61.703125 21.84375 60.203125 
Q 19.09375 58.703125 15.6875 58.140625 
Q 12.296875 57.59375 8.703125 57.59375 
L 8.703125 50.796875 
L 27.09375 50.796875 
L 27.09375 0 
z
" id="HelveticaNeue-49"/>
       </defs>
       <use xlink:href="#HelveticaNeue-50"/>
       <use x="55.599991" xlink:href="#HelveticaNeue-48"/>
       <use x="111.199982" xlink:href="#HelveticaNeue-50"/>
       <use x="166.799973" xlink:href="#HelveticaNeue-48"/>
       <use x="222.399963" xlink:href="#HelveticaNeue-45"/>
       <use x="261.299957" xlink:href="#HelveticaNeue-48"/>
       <use x="316.899948" xlink:href="#HelveticaNeue-49"/>
      </g>
     </g>
    </g>
    <g id="xtick_2">
     <g id="line2d_3">
      <path clip-path="url(#p832e615439)" d="M 150.96658 515.4355 
L 150.96658 31.5955 
" style="fill:none;stroke:#cbcbcb;"/>
     </g>
     <g id="line2d_4"/>
     <g id="text_2">
      <!-- 2020-03 -->
      <g style="fill:#555555;" transform="translate(124.893768 528.932375)scale(0.14 -0.14)">
       <defs>
        <path d="M 21.796875 40.5 
L 21.796875 33.296875 
Q 24.203125 33.59375 26.90625 33.59375 
Q 30.09375 33.59375 32.84375 32.75 
Q 35.59375 31.90625 37.59375 30.15625 
Q 39.59375 28.40625 40.796875 25.84375 
Q 42 23.296875 42 20 
Q 42 16.796875 40.75 14.25 
Q 39.5 11.703125 37.390625 9.953125 
Q 35.296875 8.203125 32.5 7.25 
Q 29.703125 6.296875 26.59375 6.296875 
Q 19.296875 6.296875 15.5 10.640625 
Q 11.703125 15 11.5 21.90625 
L 3 21.90625 
Q 2.90625 16.40625 4.546875 12.09375 
Q 6.203125 7.796875 9.296875 4.84375 
Q 12.40625 1.90625 16.796875 0.40625 
Q 21.203125 -1.09375 26.59375 -1.09375 
Q 31.59375 -1.09375 36.046875 0.25 
Q 40.5 1.59375 43.796875 4.296875 
Q 47.09375 7 49.046875 11.046875 
Q 51 15.09375 51 20.40625 
Q 51 26.796875 47.84375 31.5 
Q 44.703125 36.203125 38.203125 37.59375 
L 38.203125 37.796875 
Q 42.40625 39.703125 45.203125 43.390625 
Q 48 47.09375 48 51.90625 
Q 48 56.796875 46.34375 60.390625 
Q 44.703125 64 41.796875 66.296875 
Q 38.90625 68.59375 34.953125 69.75 
Q 31 70.90625 26.40625 70.90625 
Q 21.09375 70.90625 17.046875 69.203125 
Q 13 67.5 10.296875 64.5 
Q 7.59375 61.5 6.140625 57.296875 
Q 4.703125 53.09375 4.5 48 
L 13 48 
Q 13 51.09375 13.796875 53.890625 
Q 14.59375 56.703125 16.25 58.796875 
Q 17.90625 60.90625 20.453125 62.15625 
Q 23 63.40625 26.40625 63.40625 
Q 31.796875 63.40625 35.390625 60.546875 
Q 39 57.703125 39 52 
Q 39 49.203125 37.890625 47 
Q 36.796875 44.796875 34.9375 43.34375 
Q 33.09375 41.90625 30.640625 41.15625 
Q 28.203125 40.40625 25.5 40.40625 
L 23.703125 40.40625 
Q 23.203125 40.40625 22.703125 40.40625 
Q 22.296875 40.40625 21.796875 40.5 
z
" id="HelveticaNeue-51"/>
       </defs>
       <use xlink:href="#HelveticaNeue-50"/>
       <use x="55.599991" xlink:href="#HelveticaNeue-48"/>
       <use x="111.199982" xlink:href="#HelveticaNeue-50"/>
       <use x="166.799973" xlink:href="#HelveticaNeue-48"/>
       <use x="222.399963" xlink:href="#HelveticaNeue-45"/>
       <use x="261.299957" xlink:href="#HelveticaNeue-48"/>
       <use x="316.899948" xlink:href="#HelveticaNeue-51"/>
      </g>
     </g>
    </g>
    <g id="xtick_3">
     <g id="line2d_5">
      <path clip-path="url(#p832e615439)" d="M 216.26118 515.4355 
L 216.26118 31.5955 
" style="fill:none;stroke:#cbcbcb;"/>
     </g>
     <g id="line2d_6"/>
     <g id="text_3">
      <!-- 2020-05 -->
      <g style="fill:#555555;" transform="translate(190.188368 528.932375)scale(0.14 -0.14)">
       <defs>
        <path d="M 47 62.203125 
L 47 69.703125 
L 12 69.703125 
L 5.40625 32.90625 
L 12.703125 32.5 
Q 15.203125 35.5 18.453125 37.34375 
Q 21.703125 39.203125 25.90625 39.203125 
Q 29.5 39.203125 32.453125 38 
Q 35.40625 36.796875 37.5 34.640625 
Q 39.59375 32.5 40.75 29.546875 
Q 41.90625 26.59375 41.90625 23.09375 
Q 41.90625 18.90625 40.703125 15.75 
Q 39.5 12.59375 37.453125 10.5 
Q 35.40625 8.40625 32.65625 7.34375 
Q 29.90625 6.296875 26.90625 6.296875 
Q 23.703125 6.296875 21.046875 7.25 
Q 18.40625 8.203125 16.453125 9.953125 
Q 14.5 11.703125 13.34375 14.046875 
Q 12.203125 16.40625 12 19.09375 
L 3.5 19.09375 
Q 3.59375 14.296875 5.390625 10.5 
Q 7.203125 6.703125 10.296875 4.140625 
Q 13.40625 1.59375 17.453125 0.25 
Q 21.5 -1.09375 26.09375 -1.09375 
Q 32.296875 -1.09375 36.9375 0.84375 
Q 41.59375 2.796875 44.6875 6.09375 
Q 47.796875 9.40625 49.34375 13.65625 
Q 50.90625 17.90625 50.90625 22.40625 
Q 50.90625 28.5 49.09375 33.046875 
Q 47.296875 37.59375 44.1875 40.640625 
Q 41.09375 43.703125 36.890625 45.203125 
Q 32.703125 46.703125 28 46.703125 
Q 24.40625 46.703125 20.75 45.453125 
Q 17.09375 44.203125 14.796875 41.59375 
L 14.59375 41.796875 
L 18.40625 62.203125 
z
" id="HelveticaNeue-53"/>
       </defs>
       <use xlink:href="#HelveticaNeue-50"/>
       <use x="55.599991" xlink:href="#HelveticaNeue-48"/>
       <use x="111.199982" xlink:href="#HelveticaNeue-50"/>
       <use x="166.799973" xlink:href="#HelveticaNeue-48"/>
       <use x="222.399963" xlink:href="#HelveticaNeue-45"/>
       <use x="261.299957" xlink:href="#HelveticaNeue-48"/>
       <use x="316.899948" xlink:href="#HelveticaNeue-53"/>
      </g>
     </g>
    </g>
    <g id="xtick_4">
     <g id="line2d_7">
      <path clip-path="url(#p832e615439)" d="M 281.555781 515.4355 
L 281.555781 31.5955 
" style="fill:none;stroke:#cbcbcb;"/>
     </g>
     <g id="line2d_8"/>
     <g id="text_4">
      <!-- 2020-07 -->
      <g style="fill:#555555;" transform="translate(255.482968 528.932375)scale(0.14 -0.14)">
       <defs>
        <path d="M 50.90625 62.40625 
L 50.90625 69.703125 
L 5 69.703125 
L 5 61.703125 
L 42.203125 61.703125 
Q 36.59375 55.796875 31.75 48.796875 
Q 26.90625 41.796875 23.203125 33.9375 
Q 19.5 26.09375 17.140625 17.546875 
Q 14.796875 9 14.203125 0 
L 23.703125 0 
Q 24.203125 8.296875 26.5 17.09375 
Q 28.796875 25.90625 32.4375 34.203125 
Q 36.09375 42.5 40.796875 49.796875 
Q 45.5 57.09375 50.90625 62.40625 
z
" id="HelveticaNeue-55"/>
       </defs>
       <use xlink:href="#HelveticaNeue-50"/>
       <use x="55.599991" xlink:href="#HelveticaNeue-48"/>
       <use x="111.199982" xlink:href="#HelveticaNeue-50"/>
       <use x="166.799973" xlink:href="#HelveticaNeue-48"/>
       <use x="222.399963" xlink:href="#HelveticaNeue-45"/>
       <use x="261.299957" xlink:href="#HelveticaNeue-48"/>
       <use x="316.899948" xlink:href="#HelveticaNeue-55"/>
      </g>
     </g>
    </g>
    <g id="xtick_5">
     <g id="line2d_9">
      <path clip-path="url(#p832e615439)" d="M 347.920784 515.4355 
L 347.920784 31.5955 
" style="fill:none;stroke:#cbcbcb;"/>
     </g>
     <g id="line2d_10"/>
     <g id="text_5">
      <!-- 2020-09 -->
      <g style="fill:#555555;" transform="translate(321.847971 528.932375)scale(0.14 -0.14)">
       <defs>
        <path d="M 13.40625 17.09375 
L 4.90625 17.09375 
Q 5.703125 7.90625 11.59375 3.40625 
Q 17.5 -1.09375 26.40625 -1.09375 
Q 39.296875 -1.09375 45.140625 8.75 
Q 51 18.59375 51 37 
Q 51 47.09375 49.046875 53.640625 
Q 47.09375 60.203125 43.796875 64 
Q 40.5 67.796875 36.09375 69.34375 
Q 31.703125 70.90625 26.703125 70.90625 
Q 21.59375 70.90625 17.296875 69.203125 
Q 13 67.5 9.890625 64.453125 
Q 6.796875 61.40625 5.09375 57.15625 
Q 3.40625 52.90625 3.40625 47.796875 
Q 3.40625 42.59375 4.84375 38.1875 
Q 6.296875 33.796875 9.140625 30.6875 
Q 12 27.59375 16.203125 25.84375 
Q 20.40625 24.09375 25.796875 24.09375 
Q 31 24.09375 35.390625 26.75 
Q 39.796875 29.40625 42.203125 33.90625 
L 42.40625 33.703125 
Q 42 19.796875 38.09375 13.046875 
Q 34.203125 6.296875 26.40625 6.296875 
Q 21.296875 6.296875 17.59375 9.09375 
Q 13.90625 11.90625 13.40625 17.09375 
z
M 40.90625 47.203125 
Q 40.90625 44.09375 39.90625 41.25 
Q 38.90625 38.40625 37 36.25 
Q 35.09375 34.09375 32.390625 32.84375 
Q 29.703125 31.59375 26.40625 31.59375 
Q 23.296875 31.59375 20.75 32.84375 
Q 18.203125 34.09375 16.34375 36.1875 
Q 14.5 38.296875 13.453125 41 
Q 12.40625 43.703125 12.40625 46.59375 
Q 12.40625 49.90625 13.15625 52.90625 
Q 13.90625 55.90625 15.546875 58.25 
Q 17.203125 60.59375 19.84375 62 
Q 22.5 63.40625 26.296875 63.40625 
Q 29.90625 63.40625 32.59375 62.09375 
Q 35.296875 60.796875 37.140625 58.546875 
Q 39 56.296875 39.953125 53.390625 
Q 40.90625 50.5 40.90625 47.203125 
z
" id="HelveticaNeue-57"/>
       </defs>
       <use xlink:href="#HelveticaNeue-50"/>
       <use x="55.599991" xlink:href="#HelveticaNeue-48"/>
       <use x="111.199982" xlink:href="#HelveticaNeue-50"/>
       <use x="166.799973" xlink:href="#HelveticaNeue-48"/>
       <use x="222.399963" xlink:href="#HelveticaNeue-45"/>
       <use x="261.299957" xlink:href="#HelveticaNeue-48"/>
       <use x="316.899948" xlink:href="#HelveticaNeue-57"/>
      </g>
     </g>
    </g>
    <g id="xtick_6">
     <g id="line2d_11">
      <path clip-path="url(#p832e615439)" d="M 413.215384 515.4355 
L 413.215384 31.5955 
" style="fill:none;stroke:#cbcbcb;"/>
     </g>
     <g id="line2d_12"/>
     <g id="text_6">
      <!-- 2020-11 -->
      <g style="fill:#555555;" transform="translate(387.142572 528.932375)scale(0.14 -0.14)">
       <use xlink:href="#HelveticaNeue-50"/>
       <use x="55.599991" xlink:href="#HelveticaNeue-48"/>
       <use x="111.199982" xlink:href="#HelveticaNeue-50"/>
       <use x="166.799973" xlink:href="#HelveticaNeue-48"/>
       <use x="222.399963" xlink:href="#HelveticaNeue-45"/>
       <use x="261.299957" xlink:href="#HelveticaNeue-49"/>
       <use x="316.899948" xlink:href="#HelveticaNeue-49"/>
      </g>
     </g>
    </g>
    <g id="xtick_7">
     <g id="line2d_13">
      <path clip-path="url(#p832e615439)" d="M 478.509984 515.4355 
L 478.509984 31.5955 
" style="fill:none;stroke:#cbcbcb;"/>
     </g>
     <g id="line2d_14"/>
     <g id="text_7">
      <!-- 2021-01 -->
      <g style="fill:#555555;" transform="translate(452.437172 528.932375)scale(0.14 -0.14)">
       <use xlink:href="#HelveticaNeue-50"/>
       <use x="55.599991" xlink:href="#HelveticaNeue-48"/>
       <use x="111.199982" xlink:href="#HelveticaNeue-50"/>
       <use x="166.799973" xlink:href="#HelveticaNeue-49"/>
       <use x="222.399963" xlink:href="#HelveticaNeue-45"/>
       <use x="261.299957" xlink:href="#HelveticaNeue-48"/>
       <use x="316.899948" xlink:href="#HelveticaNeue-49"/>
      </g>
     </g>
    </g>
    <g id="xtick_8">
     <g id="line2d_15">
      <path clip-path="url(#p832e615439)" d="M 541.663778 515.4355 
L 541.663778 31.5955 
" style="fill:none;stroke:#cbcbcb;"/>
     </g>
     <g id="line2d_16"/>
     <g id="text_8">
      <!-- 2021-03 -->
      <g style="fill:#555555;" transform="translate(515.590965 528.932375)scale(0.14 -0.14)">
       <use xlink:href="#HelveticaNeue-50"/>
       <use x="55.599991" xlink:href="#HelveticaNeue-48"/>
       <use x="111.199982" xlink:href="#HelveticaNeue-50"/>
       <use x="166.799973" xlink:href="#HelveticaNeue-49"/>
       <use x="222.399963" xlink:href="#HelveticaNeue-45"/>
       <use x="261.299957" xlink:href="#HelveticaNeue-48"/>
       <use x="316.899948" xlink:href="#HelveticaNeue-51"/>
      </g>
     </g>
    </g>
    <g id="xtick_9">
     <g id="line2d_17">
      <path clip-path="url(#p832e615439)" d="M 606.958378 515.4355 
L 606.958378 31.5955 
" style="fill:none;stroke:#cbcbcb;"/>
     </g>
     <g id="line2d_18"/>
     <g id="text_9">
      <!-- 2021-05 -->
      <g style="fill:#555555;" transform="translate(580.885565 528.932375)scale(0.14 -0.14)">
       <use xlink:href="#HelveticaNeue-50"/>
       <use x="55.599991" xlink:href="#HelveticaNeue-48"/>
       <use x="111.199982" xlink:href="#HelveticaNeue-50"/>
       <use x="166.799973" xlink:href="#HelveticaNeue-49"/>
       <use x="222.399963" xlink:href="#HelveticaNeue-45"/>
       <use x="261.299957" xlink:href="#HelveticaNeue-48"/>
       <use x="316.899948" xlink:href="#HelveticaNeue-53"/>
      </g>
     </g>
    </g>
    <g id="xtick_10">
     <g id="line2d_19">
      <path clip-path="url(#p832e615439)" d="M 672.252978 515.4355 
L 672.252978 31.5955 
" style="fill:none;stroke:#cbcbcb;"/>
     </g>
     <g id="line2d_20"/>
     <g id="text_10">
      <!-- 2021-07 -->
      <g style="fill:#555555;" transform="translate(646.180166 528.932375)scale(0.14 -0.14)">
       <use xlink:href="#HelveticaNeue-50"/>
       <use x="55.599991" xlink:href="#HelveticaNeue-48"/>
       <use x="111.199982" xlink:href="#HelveticaNeue-50"/>
       <use x="166.799973" xlink:href="#HelveticaNeue-49"/>
       <use x="222.399963" xlink:href="#HelveticaNeue-45"/>
       <use x="261.299957" xlink:href="#HelveticaNeue-48"/>
       <use x="316.899948" xlink:href="#HelveticaNeue-55"/>
      </g>
     </g>
    </g>
   </g>
   <g id="matplotlib.axis_2">
    <g id="ytick_1">
     <g id="line2d_21">
      <path clip-path="url(#p832e615439)" d="M 80.748125 497.215636 
L 707.148125 497.215636 
" style="fill:none;stroke:#cbcbcb;"/>
     </g>
     <g id="line2d_22"/>
     <g id="text_11">
      <!-- 1 -->
      <g style="fill:#555555;" transform="translate(69.465 502.214073)scale(0.14 -0.14)">
       <use xlink:href="#HelveticaNeue-49"/>
      </g>
     </g>
    </g>
    <g id="ytick_2">
     <g id="line2d_23">
      <path clip-path="url(#p832e615439)" d="M 80.748125 430.698473 
L 707.148125 430.698473 
" style="fill:none;stroke:#cbcbcb;"/>
     </g>
     <g id="line2d_24"/>
     <g id="text_12">
      <!-- 10 -->
      <g style="fill:#555555;" transform="translate(61.681875 435.696911)scale(0.14 -0.14)">
       <use xlink:href="#HelveticaNeue-49"/>
       <use x="55.599991" xlink:href="#HelveticaNeue-48"/>
      </g>
     </g>
    </g>
    <g id="ytick_3">
     <g id="line2d_25">
      <path clip-path="url(#p832e615439)" d="M 80.748125 364.181311 
L 707.148125 364.181311 
" style="fill:none;stroke:#cbcbcb;"/>
     </g>
     <g id="line2d_26"/>
     <g id="text_13">
      <!-- 100 -->
      <g style="fill:#555555;" transform="translate(53.89875 369.179749)scale(0.14 -0.14)">
       <use xlink:href="#HelveticaNeue-49"/>
       <use x="55.599991" xlink:href="#HelveticaNeue-48"/>
       <use x="111.199982" xlink:href="#HelveticaNeue-48"/>
      </g>
     </g>
    </g>
    <g id="ytick_4">
     <g id="line2d_27">
      <path clip-path="url(#p832e615439)" d="M 80.748125 297.664149 
L 707.148125 297.664149 
" style="fill:none;stroke:#cbcbcb;"/>
     </g>
     <g id="line2d_28"/>
     <g id="text_14">
      <!-- 1,000 -->
      <g style="fill:#555555;" transform="translate(42.224063 302.662586)scale(0.14 -0.14)">
       <defs>
        <path d="M 8.296875 11.09375 
L 8.296875 0 
L 14.203125 0 
Q 14.296875 -1.203125 14.046875 -2.59375 
Q 13.796875 -4 13.09375 -5.34375 
Q 12.40625 -6.703125 11.25 -7.84375 
Q 10.09375 -9 8.40625 -9.59375 
L 8.40625 -14.59375 
Q 14.203125 -12.90625 16.796875 -8.796875 
Q 19.40625 -4.703125 19.40625 1 
L 19.40625 11.09375 
z
" id="HelveticaNeue-44"/>
       </defs>
       <use xlink:href="#HelveticaNeue-49"/>
       <use x="55.599991" xlink:href="#HelveticaNeue-44"/>
       <use x="83.399979" xlink:href="#HelveticaNeue-48"/>
       <use x="138.999969" xlink:href="#HelveticaNeue-48"/>
       <use x="194.59996" xlink:href="#HelveticaNeue-48"/>
      </g>
     </g>
    </g>
    <g id="ytick_5">
     <g id="line2d_29">
      <path clip-path="url(#p832e615439)" d="M 80.748125 231.146987 
L 707.148125 231.146987 
" style="fill:none;stroke:#cbcbcb;"/>
     </g>
     <g id="line2d_30"/>
     <g id="text_15">
      <!-- 10,000 -->
      <g style="fill:#555555;" transform="translate(34.440938 236.145424)scale(0.14 -0.14)">
       <use xlink:href="#HelveticaNeue-49"/>
       <use x="55.599991" xlink:href="#HelveticaNeue-48"/>
       <use x="111.199982" xlink:href="#HelveticaNeue-44"/>
       <use x="138.999969" xlink:href="#HelveticaNeue-48"/>
       <use x="194.59996" xlink:href="#HelveticaNeue-48"/>
       <use x="250.199951" xlink:href="#HelveticaNeue-48"/>
      </g>
     </g>
    </g>
    <g id="ytick_6">
     <g id="line2d_31">
      <path clip-path="url(#p832e615439)" d="M 80.748125 164.629824 
L 707.148125 164.629824 
" style="fill:none;stroke:#cbcbcb;"/>
     </g>
     <g id="line2d_32"/>
     <g id="text_16">
      <!-- 100,000 -->
      <g style="fill:#555555;" transform="translate(26.657813 169.628262)scale(0.14 -0.14)">
       <use xlink:href="#HelveticaNeue-49"/>
       <use x="55.599991" xlink:href="#HelveticaNeue-48"/>
       <use x="111.199982" xlink:href="#HelveticaNeue-48"/>
       <use x="166.799973" xlink:href="#HelveticaNeue-44"/>
       <use x="194.59996" xlink:href="#HelveticaNeue-48"/>
       <use x="250.199951" xlink:href="#HelveticaNeue-48"/>
       <use x="305.799942" xlink:href="#HelveticaNeue-48"/>
      </g>
     </g>
    </g>
    <g id="ytick_7">
     <g id="line2d_33">
      <path clip-path="url(#p832e615439)" d="M 80.748125 98.112662 
L 707.148125 98.112662 
" style="fill:none;stroke:#cbcbcb;"/>
     </g>
     <g id="line2d_34"/>
     <g id="text_17">
      <!-- 1,000,000 -->
      <g style="fill:#555555;" transform="translate(14.983125 103.1111)scale(0.14 -0.14)">
       <use xlink:href="#HelveticaNeue-49"/>
       <use x="55.599991" xlink:href="#HelveticaNeue-44"/>
       <use x="83.399979" xlink:href="#HelveticaNeue-48"/>
       <use x="138.999969" xlink:href="#HelveticaNeue-48"/>
       <use x="194.59996" xlink:href="#HelveticaNeue-48"/>
       <use x="250.199951" xlink:href="#HelveticaNeue-44"/>
       <use x="277.999939" xlink:href="#HelveticaNeue-48"/>
       <use x="333.59993" xlink:href="#HelveticaNeue-48"/>
       <use x="389.199921" xlink:href="#HelveticaNeue-48"/>
      </g>
     </g>
    </g>
    <g id="ytick_8">
     <g id="line2d_35">
      <path clip-path="url(#p832e615439)" d="M 80.748125 31.5955 
L 707.148125 31.5955 
" style="fill:none;stroke:#cbcbcb;"/>
     </g>
     <g id="line2d_36"/>
     <g id="text_18">
      <!-- 10,000,000 -->
      <g style="fill:#555555;" transform="translate(7.2 36.593937)scale(0.14 -0.14)">
       <use xlink:href="#HelveticaNeue-49"/>
       <use x="55.599991" xlink:href="#HelveticaNeue-48"/>
       <use x="111.199982" xlink:href="#HelveticaNeue-44"/>
       <use x="138.999969" xlink:href="#HelveticaNeue-48"/>
       <use x="194.59996" xlink:href="#HelveticaNeue-48"/>
       <use x="250.199951" xlink:href="#HelveticaNeue-48"/>
       <use x="305.799942" xlink:href="#HelveticaNeue-44"/>
       <use x="333.59993" xlink:href="#HelveticaNeue-48"/>
       <use x="389.199921" xlink:href="#HelveticaNeue-48"/>
       <use x="444.799911" xlink:href="#HelveticaNeue-48"/>
      </g>
     </g>
    </g>
    <g id="ytick_9">
     <g id="line2d_37"/>
    </g>
    <g id="ytick_10">
     <g id="line2d_38"/>
    </g>
    <g id="ytick_11">
     <g id="line2d_39"/>
    </g>
    <g id="ytick_12">
     <g id="line2d_40"/>
    </g>
    <g id="ytick_13">
     <g id="line2d_41"/>
    </g>
    <g id="ytick_14">
     <g id="line2d_42"/>
    </g>
    <g id="ytick_15">
     <g id="line2d_43"/>
    </g>
    <g id="ytick_16">
     <g id="line2d_44"/>
    </g>
    <g id="ytick_17">
     <g id="line2d_45"/>
    </g>
    <g id="ytick_18">
     <g id="line2d_46"/>
    </g>
    <g id="ytick_19">
     <g id="line2d_47"/>
    </g>
    <g id="ytick_20">
     <g id="line2d_48"/>
    </g>
    <g id="ytick_21">
     <g id="line2d_49"/>
    </g>
    <g id="ytick_22">
     <g id="line2d_50"/>
    </g>
    <g id="ytick_23">
     <g id="line2d_51"/>
    </g>
    <g id="ytick_24">
     <g id="line2d_52"/>
    </g>
    <g id="ytick_25">
     <g id="line2d_53"/>
    </g>
    <g id="ytick_26">
     <g id="line2d_54"/>
    </g>
    <g id="ytick_27">
     <g id="line2d_55"/>
    </g>
    <g id="ytick_28">
     <g id="line2d_56"/>
    </g>
    <g id="ytick_29">
     <g id="line2d_57"/>
    </g>
    <g id="ytick_30">
     <g id="line2d_58"/>
    </g>
    <g id="ytick_31">
     <g id="line2d_59"/>
    </g>
    <g id="ytick_32">
     <g id="line2d_60"/>
    </g>
    <g id="ytick_33">
     <g id="line2d_61"/>
    </g>
    <g id="ytick_34">
     <g id="line2d_62"/>
    </g>
    <g id="ytick_35">
     <g id="line2d_63"/>
    </g>
    <g id="ytick_36">
     <g id="line2d_64"/>
    </g>
    <g id="ytick_37">
     <g id="line2d_65"/>
    </g>
    <g id="ytick_38">
     <g id="line2d_66"/>
    </g>
    <g id="ytick_39">
     <g id="line2d_67"/>
    </g>
    <g id="ytick_40">
     <g id="line2d_68"/>
    </g>
    <g id="ytick_41">
     <g id="line2d_69"/>
    </g>
    <g id="ytick_42">
     <g id="line2d_70"/>
    </g>
    <g id="ytick_43">
     <g id="line2d_71"/>
    </g>
    <g id="ytick_44">
     <g id="line2d_72"/>
    </g>
    <g id="ytick_45">
     <g id="line2d_73"/>
    </g>
    <g id="ytick_46">
     <g id="line2d_74"/>
    </g>
    <g id="ytick_47">
     <g id="line2d_75"/>
    </g>
    <g id="ytick_48">
     <g id="line2d_76"/>
    </g>
    <g id="ytick_49">
     <g id="line2d_77"/>
    </g>
    <g id="ytick_50">
     <g id="line2d_78"/>
    </g>
    <g id="ytick_51">
     <g id="line2d_79"/>
    </g>
    <g id="ytick_52">
     <g id="line2d_80"/>
    </g>
    <g id="ytick_53">
     <g id="line2d_81"/>
    </g>
    <g id="ytick_54">
     <g id="line2d_82"/>
    </g>
    <g id="ytick_55">
     <g id="line2d_83"/>
    </g>
    <g id="ytick_56">
     <g id="line2d_84"/>
    </g>
    <g id="ytick_57">
     <g id="line2d_85"/>
    </g>
    <g id="ytick_58">
     <g id="line2d_86"/>
    </g>
    <g id="ytick_59">
     <g id="line2d_87"/>
    </g>
    <g id="ytick_60">
     <g id="line2d_88"/>
    </g>
    <g id="ytick_61">
     <g id="line2d_89"/>
    </g>
    <g id="ytick_62">
     <g id="line2d_90"/>
    </g>
    <g id="ytick_63">
     <g id="line2d_91"/>
    </g>
    <g id="ytick_64">
     <g id="line2d_92"/>
    </g>
    <g id="ytick_65">
     <g id="line2d_93"/>
    </g>
    <g id="ytick_66">
     <g id="line2d_94"/>
    </g>
    <g id="ytick_67">
     <g id="line2d_95"/>
    </g>
    <g id="ytick_68">
     <g id="line2d_96"/>
    </g>
   </g>
   <g id="line2d_97">
    <path clip-path="url(#p832e615439)" d="M 111.360972 539.890812 
L 111.361659 497.215636 
L 112.432062 497.215636 
L 113.502465 477.191975 
L 113.503474 539.890812 
M 117.783392 539.890812 
L 117.784079 497.215636 
L 119.924885 497.215636 
L 120.995288 465.478884 
L 120.996485 539.890812 
M 124.205811 539.890812 
L 124.206498 497.215636 
L 124.207185 539.890812 
M 129.557828 539.890812 
L 129.558515 497.215636 
L 129.559201 539.890812 
M 131.698634 539.890812 
L 131.699321 497.215636 
L 132.769724 497.215636 
L 132.770411 539.890812 
M 137.049582 539.890812 
L 137.051338 430.698473 
L 137.053093 539.890812 
M 140.261539 539.890812 
L 140.262547 477.191975 
L 141.332951 465.478884 
L 141.334148 539.890812 
M 144.542284 539.890812 
L 144.544161 423.119285 
L 145.614564 477.191975 
L 146.684967 418.985383 
L 146.68691 539.890812 
M 148.82434 539.890812 
L 148.825774 450.722135 
L 149.896177 450.722135 
L 150.96658 413.718471 
L 152.036984 417.120991 
L 153.107387 409.26536 
L 154.17779 393.69481 
L 155.248193 375.750322 
L 156.318597 369.564007 
L 157.389 359.645781 
L 158.459403 359.156142 
L 159.529806 344.01357 
L 160.60021 335.488218 
L 161.670613 338.295088 
L 162.741016 323.775127 
L 163.81142 314.62105 
L 164.881823 309.061206 
L 165.952226 307.885368 
L 167.022629 300.483992 
L 168.093033 287.964768 
L 170.233839 257.307938 
L 171.304243 247.798957 
L 172.374646 243.520438 
L 173.445049 235.689306 
L 174.515452 229.925228 
L 175.585856 229.922458 
L 176.656259 220.147506 
L 177.726662 215.821577 
L 178.797066 215.262784 
L 179.867469 209.623225 
L 180.937872 213.344268 
L 183.078679 205.253689 
L 186.289888 197.260186 
L 187.360292 194.875528 
L 188.430695 203.973973 
L 189.501098 198.541385 
L 190.571502 199.087535 
L 191.641905 197.708798 
L 192.712308 195.206636 
L 193.782711 196.245788 
L 194.853115 197.799726 
L 195.923518 202.301297 
L 196.993921 203.801943 
L 198.064325 202.786407 
L 199.134728 199.378475 
L 200.205131 197.897338 
L 201.275534 197.99253 
L 203.416341 204.293758 
L 204.486744 202.034334 
L 205.557148 204.089232 
L 206.627551 200.558424 
L 207.697954 195.985468 
L 208.768357 193.554748 
L 209.838761 195.449924 
L 210.909164 202.738825 
L 211.979567 206.839499 
L 213.049971 205.083265 
L 214.120374 202.933978 
L 215.190777 199.068497 
L 216.26118 195.820018 
L 217.331584 199.921231 
L 218.401987 203.389004 
L 219.47239 208.419942 
L 220.542793 206.208822 
L 221.613197 205.253689 
L 222.6836 200.914306 
L 223.754003 201.768769 
L 224.824407 204.83008 
L 225.89481 210.669041 
L 226.965213 214.781733 
L 228.035616 207.978736 
L 229.10602 209.515094 
L 230.176423 202.494579 
L 231.246826 203.282005 
L 232.31723 206.269809 
L 233.387633 212.58381 
L 234.458036 208.598065 
L 235.528439 209.74553 
L 236.598843 206.998091 
L 237.669246 203.842329 
L 238.739649 206.09937 
L 239.810053 208.020219 
L 240.880456 211.078584 
L 241.950859 212.453445 
L 244.091666 212.996962 
L 245.162069 207.705402 
L 246.232472 205.204222 
L 247.302876 206.591499 
L 248.373279 210.22179 
L 249.443682 208.505568 
L 250.514085 210.002819 
L 251.584489 211.142109 
L 252.654892 208.878682 
L 253.725295 200.680925 
L 254.795698 207.70027 
L 255.866102 213.194911 
L 256.936505 213.836667 
L 258.006908 212.903103 
L 259.077312 207.272366 
L 260.147715 206.833273 
L 261.218118 204.113019 
L 262.288521 204.293758 
L 263.358925 212.408106 
L 264.429328 210.954823 
L 265.499731 204.810338 
L 266.570135 203.930025 
L 268.710941 198.616234 
L 269.781344 197.523284 
L 270.851748 203.126078 
L 272.992554 194.907644 
L 274.062958 193.36041 
L 276.203764 187.360164 
L 278.344571 191.457191 
L 279.414974 191.465966 
L 280.485377 185.599583 
L 281.555781 184.667933 
L 282.626184 181.608036 
L 283.696587 180.790393 
L 284.76699 184.650019 
L 285.837394 187.847108 
L 286.907797 186.247369 
L 287.9782 182.38533 
L 289.048603 179.650172 
L 290.119007 179.440066 
L 291.18941 175.674582 
L 292.259813 179.041505 
L 293.330217 180.46321 
L 295.471023 176.807981 
L 296.541426 175.625931 
L 297.61183 172.676985 
L 298.682233 174.555043 
L 299.752636 178.229964 
L 300.82304 178.311491 
L 301.893443 179.440548 
L 302.963846 176.951451 
L 304.034249 175.041376 
L 305.104653 174.930987 
L 306.175056 173.514187 
L 307.245459 176.295578 
L 308.315863 182.314378 
L 309.386266 179.783611 
L 310.456669 177.92398 
L 311.527072 176.292982 
L 312.597476 175.370905 
L 313.667879 175.312306 
L 314.738282 180.955639 
L 315.808685 184.198348 
L 316.879089 186.14498 
L 317.949492 182.672514 
L 319.019895 182.578798 
L 321.160702 178.834819 
L 322.231105 181.774379 
L 323.301508 185.545307 
L 324.371912 186.334807 
L 325.442315 182.776278 
L 326.512718 182.281894 
L 327.583122 182.397618 
L 328.653525 179.639485 
L 329.723928 184.227368 
L 330.794331 189.596136 
L 331.864735 192.946343 
L 332.935138 188.854352 
L 334.005541 189.00173 
L 336.146348 185.22001 
L 337.216751 187.680458 
L 338.287154 197.246781 
L 339.357558 190.809359 
L 340.427961 191.695812 
L 341.498364 187.493082 
L 342.568768 187.306914 
L 343.639171 186.710178 
L 344.709574 187.949246 
L 345.779977 196.283786 
L 346.850381 193.755152 
L 347.920784 188.314188 
L 348.991187 197.147777 
L 350.06159 186.81397 
L 351.131994 183.464421 
L 352.202397 189.516719 
L 353.2728 199.41505 
L 354.343204 204.487112 
L 357.554413 192.535091 
L 358.624817 186.094529 
L 359.69522 191.754114 
L 360.765623 196.3582 
L 361.836027 193.440181 
L 362.90643 191.670756 
L 363.976833 191.633213 
L 365.047236 187.49882 
L 366.11764 185.303798 
L 368.258446 193.859056 
L 369.32885 181.925384 
L 370.399253 193.048146 
L 371.469656 190.002093 
L 372.540059 187.566481 
L 373.610463 182.121078 
L 374.680866 189.216096 
L 375.751269 193.120087 
L 376.821673 193.072106 
L 377.892076 188.545962 
L 378.962479 189.650347 
L 380.032882 186.800898 
L 381.103286 182.655795 
L 382.173689 185.966065 
L 383.244092 194.905173 
L 384.314495 178.247547 
L 385.384899 189.103322 
L 386.455302 182.960947 
L 387.525705 181.183254 
L 388.596109 179.89071 
L 390.736915 187.836785 
L 391.807318 185.823125 
L 392.877722 182.220753 
L 395.018528 176.917395 
L 396.088932 174.742609 
L 397.159335 183.100774 
L 398.229738 185.903857 
L 399.300141 176.879406 
L 400.370545 179.101989 
L 401.440948 177.415404 
L 402.511351 172.890365 
L 403.581755 169.223915 
L 404.652158 171.593739 
L 405.722561 179.524119 
L 406.792964 173.080165 
L 407.863368 173.177476 
L 411.074577 164.667982 
L 412.144981 169.595451 
L 413.215384 173.252136 
L 414.285787 166.41544 
L 415.356191 166.908226 
L 416.426594 162.385715 
L 417.496997 159.039975 
L 418.5674 156.430035 
L 419.637804 157.969285 
L 420.708207 163.660328 
L 421.77861 156.951033 
L 422.849014 154.961434 
L 423.919417 154.321968 
L 424.98982 150.400562 
L 426.060223 147.410722 
L 427.130627 151.227464 
L 428.20103 155.920618 
L 429.271433 149.891049 
L 430.341837 150.759356 
L 431.41224 148.916152 
L 432.482643 146.469322 
L 433.553046 144.771442 
L 434.62345 148.974396 
L 435.693853 154.746429 
L 436.764256 147.71039 
L 437.83466 147.995651 
L 438.905063 147.555288 
L 439.975466 163.777612 
L 441.045869 143.774854 
L 442.116273 152.646836 
L 443.186676 155.721293 
L 444.257079 149.701758 
L 446.397886 144.437374 
L 447.468289 142.151399 
L 448.538692 140.397403 
L 449.609096 143.793245 
L 450.679499 148.976412 
L 451.749902 143.960138 
L 452.820305 141.890418 
L 453.890709 141.890155 
L 454.961112 141.174769 
L 456.031515 134.833263 
L 457.101919 143.538225 
L 458.172322 146.980532 
L 459.242725 144.478616 
L 460.313128 144.154296 
L 461.383532 138.764007 
L 462.453935 139.616337 
L 463.524338 138.022804 
L 464.594742 145.50022 
L 465.665145 147.664109 
L 466.735548 144.387731 
L 467.805951 144.370677 
L 468.876355 140.851058 
L 469.946758 145.558978 
L 471.017161 164.362121 
L 472.087565 142.267988 
L 473.157968 152.517195 
L 474.228371 146.238841 
L 475.298774 144.457772 
L 476.369178 140.701024 
L 477.439581 140.440386 
L 478.509984 153.451655 
L 479.580387 133.712487 
L 480.650791 144.350197 
L 481.721194 137.949294 
L 482.791597 139.945477 
L 486.002807 132.818349 
L 488.143614 143.432212 
L 489.214017 141.035172 
L 490.28442 140.571604 
L 491.354824 140.65362 
L 492.425227 139.396844 
L 493.49563 139.356951 
L 496.70684 154.676956 
L 497.777243 146.556344 
L 498.847647 146.782218 
L 499.91805 146.014734 
L 500.988453 145.850954 
L 502.058856 149.657166 
L 503.12926 157.122724 
L 504.199663 151.677257 
L 505.270066 152.794124 
L 506.340469 151.826347 
L 507.410873 149.958421 
L 508.481276 150.230894 
L 509.551679 156.218323 
L 510.622083 160.89667 
L 511.692486 154.529753 
L 512.762889 160.528141 
L 514.903696 158.037036 
L 515.974099 157.161735 
L 517.044502 163.234958 
L 518.114906 168.559677 
L 519.185309 166.731841 
L 520.255712 165.691972 
L 521.326115 166.11919 
L 522.396519 163.044827 
L 523.466922 164.737778 
L 524.537325 169.443191 
L 525.607729 177.621656 
L 526.678132 181.757649 
L 527.748535 177.279462 
L 528.818938 174.867097 
L 529.889342 174.203639 
L 530.959745 171.802941 
L 532.030148 175.049247 
L 533.100552 181.805773 
L 534.170955 179.644828 
L 535.241358 174.154589 
L 536.311761 173.252525 
L 537.382165 171.851492 
L 538.452568 171.68985 
L 540.593374 184.135288 
L 541.663778 181.022818 
L 542.734181 180.543782 
L 543.804584 176.366613 
L 544.874988 176.077502 
L 545.945391 176.767057 
L 547.015794 181.079431 
L 548.086197 191.053481 
L 549.156601 166.260057 
L 550.227004 181.431791 
L 551.297407 180.268962 
L 552.367811 178.259583 
L 553.438214 177.447351 
L 555.57902 192.589791 
L 556.649424 180.785339 
L 557.719827 182.147554 
L 558.79023 179.905902 
L 559.860634 179.161166 
L 560.931037 179.088166 
L 562.00144 182.203763 
L 563.071843 195.630999 
L 564.142247 182.049715 
L 565.21265 180.997353 
L 566.283053 171.111052 
L 567.353457 175.300601 
L 568.42386 173.134014 
L 569.494263 179.051497 
L 570.564666 188.010183 
L 571.63507 174.630087 
L 572.705473 178.330516 
L 573.775876 175.798058 
L 574.846279 172.107822 
L 575.916683 175.521712 
L 576.987086 177.460861 
L 578.057489 193.490346 
L 579.127893 172.332861 
L 580.198296 178.452389 
L 581.268699 173.685607 
L 582.339102 170.911091 
L 583.409506 170.510318 
L 584.479909 177.18205 
L 585.550312 185.846598 
L 586.620716 174.146958 
L 587.691119 172.05996 
L 588.761522 172.652949 
L 589.831925 173.447863 
L 590.902329 171.676575 
L 591.972732 182.497716 
L 593.043135 190.106573 
L 594.113539 174.826364 
L 595.183942 178.897711 
L 596.254345 178.209618 
L 597.324748 176.527957 
L 598.395152 177.619845 
L 599.465555 184.384351 
L 600.535958 196.144131 
L 601.606362 186.235771 
L 602.676765 183.588888 
L 604.817571 180.57487 
L 605.887975 180.109562 
L 606.958378 187.852271 
L 608.028781 199.766786 
L 609.099184 184.685858 
L 610.169588 190.418067 
L 611.239991 187.878099 
L 612.310394 186.017504 
L 613.380798 186.139506 
L 614.451201 196.079703 
L 615.521604 207.942486 
L 616.592007 193.699783 
L 617.662411 195.759703 
L 618.732814 194.561195 
L 619.803217 192.249607 
L 620.873621 190.399734 
L 621.944024 200.33982 
L 623.014427 216.315226 
L 624.08483 200.184116 
L 625.155234 201.544995 
L 627.29604 199.780438 
L 628.366444 200.378629 
L 629.436847 213.664239 
L 630.50725 221.119096 
L 631.577653 203.960444 
L 632.648057 207.29007 
L 633.71846 206.605084 
L 634.788863 201.665514 
L 635.859266 208.779956 
L 636.92967 227.031771 
L 638.000073 239.677945 
L 639.070476 248.119479 
L 640.14088 207.554377 
L 641.211283 216.057065 
L 642.281686 211.847301 
L 642.286943 539.890812 
M 644.417524 539.890812 
L 644.422493 229.880955 
L 645.492896 245.20451 
L 646.563299 211.924419 
L 647.633703 221.061989 
L 648.704106 210.175626 
L 649.774509 217.920085 
L 650.844912 216.132553 
L 651.915316 236.606355 
L 652.985719 242.343299 
L 654.056122 219.238122 
L 655.126526 226.141244 
L 656.196929 220.575072 
L 657.267332 225.473699 
L 658.337735 224.201343 
L 659.408139 239.181554 
L 660.478542 257.165386 
L 661.548945 217.861663 
L 662.619349 224.051816 
L 663.689752 221.363069 
L 664.760155 220.001795 
L 665.830558 219.518759 
L 666.900962 242.411481 
L 667.971365 256.995247 
L 669.041768 218.352783 
L 670.112171 218.064824 
L 671.182575 217.517193 
L 672.252978 216.650824 
L 673.323381 210.05149 
L 674.393785 253.019636 
L 675.464188 261.598359 
L 676.534591 249.102952 
L 677.604994 206.404434 
L 678.675398 197.145106 
L 678.675398 197.145106 
" style="fill:none;stroke:#008fd5;stroke-width:4;"/>
   </g>
   <g id="line2d_98">
    <path clip-path="url(#p832e615439)" d="M 150.965572 539.890812 
L 150.96658 477.191975 
L 150.967589 539.890812 
M 153.1067 539.890812 
L 153.107387 497.215636 
L 153.108074 539.890812 
M 155.247507 539.890812 
L 155.248193 497.215636 
L 156.318597 465.478884 
L 157.389 450.722135 
L 158.459403 497.215636 
L 159.529806 497.215636 
L 160.60021 433.742132 
L 161.670613 465.478884 
L 162.741016 410.674812 
L 163.81142 405.407901 
L 163.813581 539.890812 
M 165.94984 539.890812 
L 165.952226 391.382533 
L 167.022629 397.09733 
L 168.093033 374.900612 
L 169.163436 359.893749 
L 170.233839 361.958058 
L 171.304243 356.602123 
L 172.374646 344.15765 
L 173.445049 339.376263 
L 174.515452 341.142894 
L 175.585856 338.295088 
L 176.656259 317.457625 
L 177.726662 317.286182 
L 178.797066 307.153986 
L 179.867469 302.700876 
L 180.937872 300.547762 
L 182.008275 305.897787 
L 183.078679 296.337352 
L 184.149082 296.894516 
L 185.219485 291.660439 
L 186.289888 290.987785 
L 187.360292 290.600632 
L 188.430695 303.93034 
L 189.501098 290.555424 
L 190.571502 294.441938 
L 191.641905 299.115519 
L 192.712308 294.159097 
L 193.782711 293.85367 
L 194.853115 297.148789 
L 195.923518 301.455654 
L 196.993921 293.476372 
L 198.064325 311.990795 
L 199.134728 300.51586 
L 200.205131 303.894476 
L 201.275534 287.677118 
L 202.345938 306.401548 
L 203.416341 303.326634 
L 204.486744 306.206753 
L 205.557148 303.715824 
L 206.627551 321.380665 
L 207.697954 289.231065 
L 208.768357 301.193332 
L 209.838761 331.8725 
L 210.909164 308.425347 
L 211.979567 311.943399 
L 213.049971 307.639511 
L 214.120374 328.240128 
L 215.190777 317.803594 
L 216.26118 296.614591 
L 217.331584 306.558336 
L 218.401987 311.707577 
L 219.47239 303.432258 
L 220.542793 315.357762 
L 221.613197 314.259623 
L 222.6836 303.186401 
L 223.754003 326.308174 
L 224.824407 304.038198 
L 225.89481 312.662641 
L 226.965213 325.163188 
L 228.035616 299.420892 
L 229.10602 318.927323 
L 230.176423 303.822882 
L 231.246826 299.822765 
L 232.31723 309.104099 
L 233.387633 304.953032 
L 234.458036 302.223377 
L 235.528439 317.572488 
L 236.598843 316.168517 
L 237.669246 292.301104 
L 238.739649 304.990235 
L 239.810053 308.975612 
L 240.880456 306.362484 
L 241.950859 301.38985 
L 243.021262 317.17245 
L 244.091666 325.691873 
L 245.162069 310.064213 
L 246.232472 292.109792 
L 247.302876 299.853912 
L 248.373279 306.401548 
L 249.443682 309.362799 
L 250.514085 311.613785 
L 251.584489 289.709643 
L 252.654892 287.554711 
L 253.725295 289.974066 
L 254.795698 290.75942 
L 255.866102 292.882762 
L 256.936505 298.663428 
L 258.006908 295.016064 
L 260.147715 282.369347 
L 261.218118 279.091858 
L 262.288521 270.273179 
L 263.358925 277.410303 
L 264.429328 281.366189 
L 265.499731 268.096392 
L 266.570135 269.950405 
L 267.640538 263.999882 
L 268.710941 258.931825 
L 269.781344 257.265098 
L 270.851748 261.523851 
L 271.922151 266.648904 
L 272.992554 263.296889 
L 274.062958 248.359605 
L 275.133361 251.147547 
L 276.203764 234.377415 
L 277.274167 232.371427 
L 278.344571 235.740061 
L 279.414974 249.67329 
L 280.485377 245.459406 
L 281.555781 243.312816 
L 282.626184 230.833811 
L 283.696587 232.665262 
L 284.76699 227.215236 
L 285.837394 230.977048 
L 286.907797 244.329679 
L 287.9782 240.052967 
L 289.048603 231.178781 
L 290.119007 234.400038 
L 291.18941 227.278335 
L 292.259813 230.125299 
L 293.330217 218.861837 
L 294.40062 224.41565 
L 295.471023 233.574564 
L 296.541426 230.628789 
L 297.61183 221.499275 
L 298.682233 227.195073 
L 299.752636 230.214667 
L 300.82304 224.751695 
L 301.893443 230.161572 
L 302.963846 232.811779 
L 304.034249 231.774854 
L 305.104653 230.436484 
L 306.175056 224.830517 
L 307.245459 225.404944 
L 308.315863 233.107059 
L 309.386266 234.539398 
L 310.456669 233.461671 
L 311.527072 232.793423 
L 312.597476 231.274375 
L 313.667879 234.168185 
L 314.738282 232.200144 
L 315.808685 241.024589 
L 316.879089 252.64025 
L 317.949492 248.702353 
L 319.019895 248.899288 
L 320.090299 238.885498 
L 321.160702 238.749873 
L 322.231105 235.835043 
L 323.301508 244.821696 
L 324.371912 256.51856 
L 326.512718 237.202224 
L 327.583122 244.789251 
L 328.653525 245.199811 
L 329.723928 244.256822 
L 330.794331 259.258677 
L 331.864735 269.207404 
L 332.935138 258.811144 
L 334.005541 256.798011 
L 335.075945 253.86337 
L 336.146348 253.056617 
L 337.216751 255.45382 
L 338.287154 266.178851 
L 339.357558 274.135436 
L 341.498364 263.883018 
L 342.568768 263.446728 
L 343.639171 258.984782 
L 344.709574 264.090101 
L 345.779977 270.250803 
L 346.850381 279.351219 
L 347.920784 239.193002 
L 348.991187 272.349513 
L 350.06159 260.894137 
L 351.131994 264.081067 
L 352.202397 260.214575 
L 354.343204 280.080636 
L 355.413607 280.31736 
L 356.48401 276.84274 
L 357.554413 270.250803 
L 358.624817 260.262023 
L 359.69522 264.153422 
L 360.765623 272.098051 
L 361.836027 281.729981 
L 362.90643 264.831447 
L 363.976833 272.920369 
L 365.047236 263.570711 
L 366.11764 264.026918 
L 367.188043 260.877962 
L 368.258446 270.952663 
L 369.32885 282.591366 
L 370.399253 271.543062 
L 371.469656 270.172621 
L 372.540059 270.724388 
L 373.610463 267.439584 
L 374.680866 267.972098 
L 375.751269 279.397231 
L 376.821673 306.440665 
L 377.892076 263.473251 
L 378.962479 278.401514 
L 380.032882 269.751861 
L 381.103286 269.402228 
L 382.173689 268.054901 
L 383.244092 279.61293 
L 384.314495 287.636258 
L 385.384899 274.225131 
L 386.455302 270.261989 
L 387.525705 263.121597 
L 388.596109 266.827165 
L 388.600488 539.890812 
M 390.732236 539.890812 
L 390.736915 248.051978 
L 391.807318 285.322411 
L 392.877722 268.704804 
L 393.948125 267.076588 
L 395.018528 262.687965 
L 396.088932 261.898324 
L 397.159335 257.300793 
L 398.229738 270.747134 
L 399.300141 282.216634 
L 400.370545 260.167205 
L 401.440948 275.632016 
L 402.511351 248.114281 
L 403.581755 259.954994 
L 404.652158 254.401076 
L 405.722561 272.554693 
L 406.792964 262.507763 
L 407.863368 255.541064 
L 408.933771 256.798011 
L 410.004174 256.221134 
L 411.074577 247.938103 
L 412.144981 273.21628 
L 413.215384 251.961348 
L 414.285787 253.260861 
L 415.356191 253.347948 
L 416.426594 254.712891 
L 417.496997 244.692132 
L 419.637804 254.5241 
L 420.708207 242.203178 
L 421.77861 258.170981 
L 422.849014 255.17374 
L 423.919417 246.694436 
L 424.98982 247.860717 
L 426.060223 241.728457 
L 427.130627 253.933217 
L 428.20103 230.845244 
L 429.271433 253.186423 
L 430.341837 239.615911 
L 431.41224 237.865269 
L 432.482643 233.919094 
L 433.553046 233.919094 
L 434.62345 236.152779 
L 435.693853 243.207369 
L 436.764256 244.352485 
L 437.83466 235.655519 
L 438.905063 236.266369 
L 438.90993 539.890812 
M 441.040667 539.890812 
L 441.045869 215.239456 
L 442.116273 244.599941 
L 443.186676 239.990124 
L 444.257079 242.893318 
L 445.327482 234.685964 
L 446.397886 231.164325 
L 447.468289 228.7371 
L 448.538692 230.640141 
L 449.609096 229.927997 
L 450.679499 236.060172 
L 451.749902 238.656062 
L 452.820305 237.647382 
L 454.961112 227.527021 
L 456.031515 226.613926 
L 457.101919 229.526462 
L 458.172322 234.325772 
L 459.242725 236.005434 
L 460.313128 232.90066 
L 461.383532 227.00673 
L 462.453935 223.240777 
L 463.524338 223.567798 
L 464.594742 226.655934 
L 465.665145 236.180275 
L 466.735548 228.354297 
L 467.805951 229.91969 
L 468.876355 227.402411 
L 469.946758 223.242974 
L 469.951833 539.890812 
M 472.08237 539.890812 
L 472.087565 215.746896 
L 473.157968 239.880477 
L 474.228371 236.886891 
L 475.298774 225.700087 
L 476.369178 221.694381 
L 477.439581 215.493742 
L 477.444779 539.890812 
M 479.57491 539.890812 
L 479.580387 197.98428 
L 480.650791 229.455538 
L 481.721194 227.729063 
L 482.791597 218.615548 
L 483.862001 214.517362 
L 484.932404 211.390326 
L 486.002807 211.810298 
L 488.143614 225.136238 
L 489.214017 226.919254 
L 490.28442 219.634884 
L 491.354824 221.447606 
L 492.425227 222.010581 
L 493.49563 216.031375 
L 494.566033 225.595013 
L 495.636437 228.150454 
L 496.70684 237.585945 
L 498.847647 226.087851 
L 499.91805 223.8514 
L 500.988453 222.012687 
L 502.058856 225.140931 
L 503.12926 232.522515 
L 504.199663 235.103661 
L 505.270066 232.344315 
L 506.340469 236.156214 
L 507.410873 227.303613 
L 508.481276 228.45676 
L 509.551679 219.397328 
L 510.622083 238.369025 
L 511.692486 247.233855 
L 512.762889 229.646886 
L 513.833292 241.53742 
L 514.903696 238.656062 
L 515.974099 227.001724 
L 517.044502 239.511532 
L 518.114906 243.045555 
L 519.185309 247.198586 
L 520.255712 241.355863 
L 521.326115 239.315393 
L 522.396519 235.756999 
L 523.466922 239.010383 
L 524.537325 239.399839 
L 525.607729 248.755447 
L 526.678132 260.540369 
L 527.748535 244.508043 
L 528.818938 240.072633 
L 529.889342 250.502455 
L 530.959745 242.789388 
L 532.030148 240.317616 
L 533.100552 250.797523 
L 534.170955 256.546383 
L 535.241358 247.845265 
L 536.311761 240.927159 
L 537.382165 242.975861 
L 538.452568 246.281743 
L 539.522971 248.633478 
L 540.593374 248.213204 
L 541.663778 282.335341 
L 542.734181 240.721204 
L 543.804584 245.836409 
L 544.874988 245.341119 
L 545.945391 246.024354 
L 547.015794 253.019636 
L 548.086197 256.917601 
L 549.156601 263.069216 
L 550.227004 254.693303 
L 551.297407 252.032691 
L 552.367811 250.797523 
L 553.438214 249.959967 
L 554.508617 249.79423 
L 555.57902 259.876791 
L 556.649424 267.653457 
L 557.719827 252.404131 
L 558.79023 253.585659 
L 559.860634 250.638266 
L 560.931037 250.3729 
L 562.00144 250.570281 
L 563.071843 257.710866 
L 564.142247 267.287781 
L 565.21265 249.476474 
L 566.283053 250.356044 
L 567.353457 247.017878 
L 568.42386 247.1332 
L 569.494263 246.472618 
L 570.564666 251.501863 
L 571.63507 262.533437 
L 572.705473 250.814639 
L 573.775876 249.520095 
L 574.846279 242.330532 
L 575.916683 243.635937 
L 576.987086 245.822002 
L 578.057489 252.386048 
L 579.127893 261.639835 
L 580.198296 248.124678 
L 581.268699 246.462798 
L 582.339102 237.814281 
L 583.409506 240.955542 
L 584.479909 241.841179 
L 585.550312 248.312467 
L 586.620716 283.8529 
L 587.691119 233.9732 
L 588.761522 242.407215 
L 589.831925 242.449904 
L 590.902329 240.254196 
L 591.972732 244.389012 
L 593.043135 242.143938 
L 594.113539 255.953999 
L 595.183942 247.665596 
L 596.254345 248.046792 
L 597.324748 242.785066 
L 598.395152 248.607031 
L 599.465555 239.802412 
L 600.535958 253.136904 
L 601.606362 261.367187 
L 602.676765 249.645874 
L 603.747168 250.160116 
L 604.817571 247.558329 
L 605.887975 249.454688 
L 606.958378 248.84593 
L 608.028781 258.788572 
L 609.099184 265.214076 
L 611.239991 254.902923 
L 612.310394 254.188639 
L 613.380798 256.449117 
L 614.451201 257.783412 
L 615.521604 263.7845 
L 616.592007 273.653324 
L 617.662411 263.499799 
L 618.732814 264.207808 
L 619.803217 257.158277 
L 620.873621 260.740841 
L 621.944024 263.008225 
L 623.014427 271.403055 
L 624.08483 277.989241 
L 625.155234 267.868926 
L 626.225637 267.807199 
L 627.29604 266.97656 
L 628.366444 272.724766 
L 629.436847 262.260746 
L 630.50725 276.660657 
L 631.577653 283.978539 
L 632.648057 279.52029 
L 633.71846 273.265894 
L 634.788863 273.129659 
L 635.859266 273.129659 
L 635.863545 539.890812 
M 640.136171 539.890812 
L 640.14088 246.208664 
L 641.211283 291.590124 
L 642.281686 279.458695 
L 642.285863 539.890812 
M 646.558697 539.890812 
L 646.563299 252.853807 
L 647.633703 292.785002 
L 648.704106 284.267784 
L 649.774509 281.896868 
L 650.844912 274.40536 
L 650.84917 539.890812 
M 652.981537 539.890812 
L 652.985719 279.152675 
L 654.056122 274.444127 
L 655.126526 297.925318 
L 656.196929 282.014265 
L 657.267332 283.62101 
L 658.337735 283.603249 
L 658.341846 539.890812 
M 661.544458 539.890812 
L 661.548945 260.041262 
L 662.619349 282.694415 
L 663.689752 279.366548 
L 664.760155 278.594944 
L 665.830558 279.551137 
L 665.834734 539.890812 
M 670.107521 539.890812 
L 670.112171 249.838333 
L 671.182575 273.36538 
L 672.252978 271.990948 
L 673.323381 247.400707 
L 673.328071 539.890812 
M 678.670487 539.890812 
L 678.675398 233.536884 
L 678.675398 233.536884 
" style="fill:none;stroke:#fc4f30;stroke-width:4;"/>
   </g>
   <g id="patch_3">
    <path d="M 80.748125 515.4355 
L 80.748125 31.5955 
" style="fill:none;stroke:#f0f0f0;stroke-linecap:square;stroke-linejoin:miter;stroke-width:3;"/>
   </g>
   <g id="patch_4">
    <path d="M 80.748125 515.4355 
L 707.148125 515.4355 
" style="fill:none;stroke:#f0f0f0;stroke-linecap:square;stroke-linejoin:miter;stroke-width:3;"/>
   </g>
   <g id="text_19">
    <!-- New Cases of COVID-19 -->
    <g style="fill:#555555;" transform="translate(282.321575 21.5955)scale(0.2016 -0.2016)">
     <defs>
      <path d="M 7.703125 71.40625 
L 7.703125 0 
L 16.703125 0 
L 16.703125 57.296875 
L 16.90625 57.296875 
L 54.203125 0 
L 64.59375 0 
L 64.59375 71.40625 
L 55.59375 71.40625 
L 55.59375 13.5 
L 55.40625 13.5 
L 17.796875 71.40625 
z
" id="HelveticaNeue-78"/>
      <path d="M 42.296875 30.796875 
L 12.59375 30.796875 
Q 12.796875 33.796875 13.890625 36.4375 
Q 15 39.09375 16.890625 41.09375 
Q 18.796875 43.09375 21.4375 44.25 
Q 24.09375 45.40625 27.40625 45.40625 
Q 30.59375 45.40625 33.25 44.25 
Q 35.90625 43.09375 37.84375 41.140625 
Q 39.796875 39.203125 40.9375 36.5 
Q 42.09375 33.796875 42.296875 30.796875 
z
M 50.5 16.40625 
L 42.09375 16.40625 
Q 41 11.296875 37.546875 8.796875 
Q 34.09375 6.296875 28.703125 6.296875 
Q 24.5 6.296875 21.390625 7.6875 
Q 18.296875 9.09375 16.296875 11.4375 
Q 14.296875 13.796875 13.390625 16.84375 
Q 12.5 19.90625 12.59375 23.296875 
L 51.296875 23.296875 
Q 51.5 28 50.453125 33.203125 
Q 49.40625 38.40625 46.65625 42.796875 
Q 43.90625 47.203125 39.34375 50.046875 
Q 34.796875 52.90625 27.90625 52.90625 
Q 22.59375 52.90625 18.140625 50.90625 
Q 13.703125 48.90625 10.453125 45.296875 
Q 7.203125 41.703125 5.390625 36.796875 
Q 3.59375 31.90625 3.59375 26 
Q 3.796875 20.09375 5.34375 15.09375 
Q 6.90625 10.09375 10 6.5 
Q 13.09375 2.90625 17.640625 0.90625 
Q 22.203125 -1.09375 28.40625 -1.09375 
Q 37.203125 -1.09375 43 3.296875 
Q 48.796875 7.703125 50.5 16.40625 
z
" id="HelveticaNeue-101"/>
      <path d="M 57.59375 0 
L 74.09375 51.703125 
L 65.296875 51.703125 
L 53.703125 9.40625 
L 53.5 9.40625 
L 42.703125 51.703125 
L 33.40625 51.703125 
L 23 9.40625 
L 22.796875 9.40625 
L 11.09375 51.703125 
L 1.703125 51.703125 
L 18.296875 0 
L 27.5 0 
L 37.90625 41.09375 
L 38.09375 41.09375 
L 48.59375 0 
z
" id="HelveticaNeue-119"/>
      <path id="HelveticaNeue-32"/>
      <path d="M 58 49.90625 
L 67.5 49.90625 
Q 66.703125 55.59375 64.09375 59.9375 
Q 61.5 64.296875 57.59375 67.1875 
Q 53.703125 70.09375 48.703125 71.59375 
Q 43.703125 73.09375 38.09375 73.09375 
Q 29.90625 73.09375 23.546875 70.140625 
Q 17.203125 67.203125 12.953125 62.09375 
Q 8.703125 57 6.5 50.140625 
Q 4.296875 43.296875 4.296875 35.5 
Q 4.296875 27.703125 6.34375 20.890625 
Q 8.40625 14.09375 12.5 9.09375 
Q 16.59375 4.09375 22.796875 1.25 
Q 29 -1.59375 37.296875 -1.59375 
Q 51 -1.59375 58.890625 5.90625 
Q 66.796875 13.40625 68.203125 26.90625 
L 58.703125 26.90625 
Q 58.40625 22.5 56.90625 18.703125 
Q 55.40625 14.90625 52.75 12.15625 
Q 50.09375 9.40625 46.4375 7.84375 
Q 42.796875 6.296875 38.09375 6.296875 
Q 31.703125 6.296875 27.09375 8.6875 
Q 22.5 11.09375 19.546875 15.140625 
Q 16.59375 19.203125 15.1875 24.640625 
Q 13.796875 30.09375 13.796875 36.203125 
Q 13.796875 41.796875 15.1875 47 
Q 16.59375 52.203125 19.546875 56.25 
Q 22.5 60.296875 27.046875 62.6875 
Q 31.59375 65.09375 38 65.09375 
Q 45.5 65.09375 50.953125 61.296875 
Q 56.40625 57.5 58 49.90625 
z
" id="HelveticaNeue-67"/>
      <path d="M 52.203125 0.203125 
Q 50 -1.09375 46.09375 -1.09375 
Q 42.796875 -1.09375 40.84375 0.75 
Q 38.90625 2.59375 38.90625 6.796875 
Q 35.40625 2.59375 30.75 0.75 
Q 26.09375 -1.09375 20.703125 -1.09375 
Q 17.203125 -1.09375 14.046875 -0.296875 
Q 10.90625 0.5 8.59375 2.203125 
Q 6.296875 3.90625 4.9375 6.65625 
Q 3.59375 9.40625 3.59375 13.296875 
Q 3.59375 17.703125 5.09375 20.5 
Q 6.59375 23.296875 9.046875 25.046875 
Q 11.5 26.796875 14.640625 27.6875 
Q 17.796875 28.59375 21.09375 29.203125 
Q 24.59375 29.90625 27.75 30.25 
Q 30.90625 30.59375 33.296875 31.25 
Q 35.703125 31.90625 37.09375 33.15625 
Q 38.5 34.40625 38.5 36.796875 
Q 38.5 39.59375 37.453125 41.296875 
Q 36.40625 43 34.75 43.890625 
Q 33.09375 44.796875 31.046875 45.09375 
Q 29 45.40625 27 45.40625 
Q 21.59375 45.40625 18 43.34375 
Q 14.40625 41.296875 14.09375 35.59375 
L 5.59375 35.59375 
Q 5.796875 40.40625 7.59375 43.703125 
Q 9.40625 47 12.40625 49.046875 
Q 15.40625 51.09375 19.25 52 
Q 23.09375 52.90625 27.5 52.90625 
Q 31 52.90625 34.453125 52.40625 
Q 37.90625 51.90625 40.703125 50.34375 
Q 43.5 48.796875 45.203125 46 
Q 46.90625 43.203125 46.90625 38.703125 
L 46.90625 12.09375 
Q 46.90625 9.09375 47.25 7.6875 
Q 47.59375 6.296875 49.59375 6.296875 
Q 50.703125 6.296875 52.203125 6.796875 
z
M 38.40625 26.703125 
Q 36.796875 25.5 34.1875 24.953125 
Q 31.59375 24.40625 28.75 24.046875 
Q 25.90625 23.703125 23 23.25 
Q 20.09375 22.796875 17.796875 21.796875 
Q 15.5 20.796875 14.046875 18.9375 
Q 12.59375 17.09375 12.59375 13.90625 
Q 12.59375 11.796875 13.4375 10.34375 
Q 14.296875 8.90625 15.640625 8 
Q 17 7.09375 18.796875 6.6875 
Q 20.59375 6.296875 22.59375 6.296875 
Q 26.796875 6.296875 29.796875 7.4375 
Q 32.796875 8.59375 34.6875 10.34375 
Q 36.59375 12.09375 37.5 14.140625 
Q 38.40625 16.203125 38.40625 18 
z
" id="HelveticaNeue-97"/>
      <path d="M 11.59375 16.296875 
L 3.09375 16.296875 
Q 3.296875 11.5 5.09375 8.140625 
Q 6.90625 4.796875 9.90625 2.75 
Q 12.90625 0.703125 16.796875 -0.1875 
Q 20.703125 -1.09375 25 -1.09375 
Q 28.90625 -1.09375 32.84375 -0.34375 
Q 36.796875 0.40625 39.9375 2.296875 
Q 43.09375 4.203125 45.046875 7.296875 
Q 47 10.40625 47 15.09375 
Q 47 18.796875 45.546875 21.296875 
Q 44.09375 23.796875 41.75 25.4375 
Q 39.40625 27.09375 36.34375 28.09375 
Q 33.296875 29.09375 30.09375 29.796875 
Q 27.09375 30.5 24.09375 31.140625 
Q 21.09375 31.796875 18.6875 32.75 
Q 16.296875 33.703125 14.75 35.140625 
Q 13.203125 36.59375 13.203125 38.796875 
Q 13.203125 40.796875 14.203125 42.046875 
Q 15.203125 43.296875 16.796875 44.046875 
Q 18.40625 44.796875 20.34375 45.09375 
Q 22.296875 45.40625 24.203125 45.40625 
Q 26.296875 45.40625 28.34375 44.953125 
Q 30.40625 44.5 32.09375 43.5 
Q 33.796875 42.5 34.890625 40.84375 
Q 36 39.203125 36.203125 36.703125 
L 44.703125 36.703125 
Q 44.40625 41.40625 42.703125 44.546875 
Q 41 47.703125 38.140625 49.546875 
Q 35.296875 51.40625 31.59375 52.15625 
Q 27.90625 52.90625 23.5 52.90625 
Q 20.09375 52.90625 16.640625 52.046875 
Q 13.203125 51.203125 10.453125 49.453125 
Q 7.703125 47.703125 5.953125 44.890625 
Q 4.203125 42.09375 4.203125 38.203125 
Q 4.203125 33.203125 6.703125 30.390625 
Q 9.203125 27.59375 12.953125 26.046875 
Q 16.703125 24.5 21.09375 23.640625 
Q 25.5 22.796875 29.25 21.75 
Q 33 20.703125 35.5 19 
Q 38 17.296875 38 14 
Q 38 11.59375 36.796875 10.046875 
Q 35.59375 8.5 33.75 7.703125 
Q 31.90625 6.90625 29.703125 6.59375 
Q 27.5 6.296875 25.5 6.296875 
Q 22.90625 6.296875 20.453125 6.796875 
Q 18 7.296875 16.046875 8.4375 
Q 14.09375 9.59375 12.890625 11.546875 
Q 11.703125 13.5 11.59375 16.296875 
z
" id="HelveticaNeue-115"/>
      <path d="M 12.59375 25.796875 
Q 12.59375 30.5 13.84375 34.140625 
Q 15.09375 37.796875 17.296875 40.296875 
Q 19.5 42.796875 22.453125 44.09375 
Q 25.40625 45.40625 28.703125 45.40625 
Q 32 45.40625 34.953125 44.09375 
Q 37.90625 42.796875 40.09375 40.296875 
Q 42.296875 37.796875 43.546875 34.140625 
Q 44.796875 30.5 44.796875 25.796875 
Q 44.796875 21.09375 43.546875 17.4375 
Q 42.296875 13.796875 40.09375 11.34375 
Q 37.90625 8.90625 34.953125 7.59375 
Q 32 6.296875 28.703125 6.296875 
Q 25.40625 6.296875 22.453125 7.59375 
Q 19.5 8.90625 17.296875 11.34375 
Q 15.09375 13.796875 13.84375 17.4375 
Q 12.59375 21.09375 12.59375 25.796875 
z
M 3.59375 25.796875 
Q 3.59375 20.09375 5.1875 15.1875 
Q 6.796875 10.296875 10 6.640625 
Q 13.203125 3 17.890625 0.953125 
Q 22.59375 -1.09375 28.703125 -1.09375 
Q 34.90625 -1.09375 39.546875 0.953125 
Q 44.203125 3 47.390625 6.640625 
Q 50.59375 10.296875 52.1875 15.1875 
Q 53.796875 20.09375 53.796875 25.796875 
Q 53.796875 31.5 52.1875 36.453125 
Q 50.59375 41.40625 47.390625 45.046875 
Q 44.203125 48.703125 39.546875 50.796875 
Q 34.90625 52.90625 28.703125 52.90625 
Q 22.59375 52.90625 17.890625 50.796875 
Q 13.203125 48.703125 10 45.046875 
Q 6.796875 41.40625 5.1875 36.453125 
Q 3.59375 31.5 3.59375 25.796875 
z
" id="HelveticaNeue-111"/>
      <path d="M 9.90625 44.203125 
L 9.90625 0 
L 18.40625 0 
L 18.40625 44.203125 
L 28.40625 44.203125 
L 28.40625 51.703125 
L 18.40625 51.703125 
L 18.40625 58.90625 
Q 18.40625 62.296875 20.09375 63.5 
Q 21.796875 64.703125 24.90625 64.703125 
Q 26 64.703125 27.296875 64.546875 
Q 28.59375 64.40625 29.703125 64 
L 29.703125 71.40625 
Q 28.5 71.796875 26.953125 72 
Q 25.40625 72.203125 24.203125 72.203125 
Q 17.203125 72.203125 13.546875 68.953125 
Q 9.90625 65.703125 9.90625 59.40625 
L 9.90625 51.703125 
L 1.203125 51.703125 
L 1.203125 44.203125 
z
" id="HelveticaNeue-102"/>
      <path d="M 13.296875 35.703125 
Q 13.296875 41.09375 14.6875 46.34375 
Q 16.09375 51.59375 19.09375 55.796875 
Q 22.09375 60 26.796875 62.546875 
Q 31.5 65.09375 38 65.09375 
Q 44.5 65.09375 49.203125 62.546875 
Q 53.90625 60 56.90625 55.796875 
Q 59.90625 51.59375 61.296875 46.34375 
Q 62.703125 41.09375 62.703125 35.703125 
Q 62.703125 30.296875 61.296875 25.046875 
Q 59.90625 19.796875 56.90625 15.59375 
Q 53.90625 11.40625 49.203125 8.84375 
Q 44.5 6.296875 38 6.296875 
Q 31.5 6.296875 26.796875 8.84375 
Q 22.09375 11.40625 19.09375 15.59375 
Q 16.09375 19.796875 14.6875 25.046875 
Q 13.296875 30.296875 13.296875 35.703125 
z
M 3.796875 35.703125 
Q 3.796875 28.40625 5.9375 21.65625 
Q 8.09375 14.90625 12.390625 9.703125 
Q 16.703125 4.5 23.09375 1.453125 
Q 29.5 -1.59375 38 -1.59375 
Q 46.5 -1.59375 52.890625 1.453125 
Q 59.296875 4.5 63.59375 9.703125 
Q 67.90625 14.90625 70.046875 21.65625 
Q 72.203125 28.40625 72.203125 35.703125 
Q 72.203125 43 70.046875 49.75 
Q 67.90625 56.5 63.59375 61.703125 
Q 59.296875 66.90625 52.890625 70 
Q 46.5 73.09375 38 73.09375 
Q 29.5 73.09375 23.09375 70 
Q 16.703125 66.90625 12.390625 61.703125 
Q 8.09375 56.5 5.9375 49.75 
Q 3.796875 43 3.796875 35.703125 
z
" id="HelveticaNeue-79"/>
      <path d="M 35.90625 0 
L 61.296875 71.40625 
L 51.40625 71.40625 
L 30.796875 9.5 
L 30.59375 9.5 
L 10.203125 71.40625 
L 0 71.40625 
L 25.09375 0 
z
" id="HelveticaNeue-86"/>
      <path d="M 8.203125 71.40625 
L 8.203125 0 
L 17.703125 0 
L 17.703125 71.40625 
z
" id="HelveticaNeue-73"/>
      <path d="M 17.296875 8 
L 17.296875 63.40625 
L 33.296875 63.40625 
Q 39.90625 63.40625 44.40625 61.546875 
Q 48.90625 59.703125 51.75 56.140625 
Q 54.59375 52.59375 55.84375 47.546875 
Q 57.09375 42.5 57.09375 36.09375 
Q 57.09375 29.5 55.75 24.84375 
Q 54.40625 20.203125 52.296875 17.09375 
Q 50.203125 14 47.546875 12.203125 
Q 44.90625 10.40625 42.203125 9.453125 
Q 39.5 8.5 37.09375 8.25 
Q 34.703125 8 33.09375 8 
z
M 7.796875 71.40625 
L 7.796875 0 
L 32.296875 0 
Q 41.203125 0 47.703125 2.5 
Q 54.203125 5 58.390625 9.75 
Q 62.59375 14.5 64.59375 21.453125 
Q 66.59375 28.40625 66.59375 37.40625 
Q 66.59375 54.59375 57.6875 63 
Q 48.796875 71.40625 32.296875 71.40625 
z
" id="HelveticaNeue-68"/>
     </defs>
     <use xlink:href="#HelveticaNeue-78"/>
     <use x="72.199982" xlink:href="#HelveticaNeue-101"/>
     <use x="125.899979" xlink:href="#HelveticaNeue-119"/>
     <use x="201.699966" xlink:href="#HelveticaNeue-32"/>
     <use x="229.499954" xlink:href="#HelveticaNeue-67"/>
     <use x="301.699936" xlink:href="#HelveticaNeue-97"/>
     <use x="355.399933" xlink:href="#HelveticaNeue-115"/>
     <use x="405.399918" xlink:href="#HelveticaNeue-101"/>
     <use x="459.099915" xlink:href="#HelveticaNeue-115"/>
     <use x="509.099899" xlink:href="#HelveticaNeue-32"/>
     <use x="536.899887" xlink:href="#HelveticaNeue-111"/>
     <use x="594.299881" xlink:href="#HelveticaNeue-102"/>
     <use x="623.899872" xlink:href="#HelveticaNeue-32"/>
     <use x="651.69986" xlink:href="#HelveticaNeue-67"/>
     <use x="723.899841" xlink:href="#HelveticaNeue-79"/>
     <use x="799.899826" xlink:href="#HelveticaNeue-86"/>
     <use x="860.999817" xlink:href="#HelveticaNeue-73"/>
     <use x="886.899811" xlink:href="#HelveticaNeue-68"/>
     <use x="957.299805" xlink:href="#HelveticaNeue-45"/>
     <use x="996.199799" xlink:href="#HelveticaNeue-49"/>
     <use x="1051.799789" xlink:href="#HelveticaNeue-57"/>
    </g>
   </g>
   <g id="legend_1">
    <g id="line2d_99">
     <path d="M 570.298125 49.292375 
L 598.298125 49.292375 
" style="fill:none;stroke:#008fd5;stroke-width:4;"/>
    </g>
    <g id="line2d_100"/>
    <g id="text_20">
     <!-- United States -->
     <g style="fill:#555555;" transform="translate(609.498125 54.192375)scale(0.14 -0.14)">
      <defs>
       <path d="M 64.796875 25.796875 
L 64.796875 71.40625 
L 55.296875 71.40625 
L 55.296875 25.796875 
Q 55.296875 16.203125 50.546875 11.25 
Q 45.796875 6.296875 36.703125 6.296875 
Q 27.09375 6.296875 22 11.25 
Q 16.90625 16.203125 16.90625 25.796875 
L 16.90625 71.40625 
L 7.40625 71.40625 
L 7.40625 25.796875 
Q 7.40625 11.5 15.15625 4.953125 
Q 22.90625 -1.59375 36.703125 -1.59375 
Q 50.203125 -1.59375 57.5 5.25 
Q 64.796875 12.09375 64.796875 25.796875 
z
" id="HelveticaNeue-85"/>
       <path d="M 6.40625 51.703125 
L 6.40625 0 
L 14.90625 0 
L 14.90625 29.203125 
Q 14.90625 32.703125 15.84375 35.640625 
Q 16.796875 38.59375 18.6875 40.796875 
Q 20.59375 43 23.4375 44.203125 
Q 26.296875 45.40625 30.203125 45.40625 
Q 35.09375 45.40625 37.890625 42.59375 
Q 40.703125 39.796875 40.703125 35 
L 40.703125 0 
L 49.203125 0 
L 49.203125 34 
Q 49.203125 38.203125 48.34375 41.640625 
Q 47.5 45.09375 45.390625 47.59375 
Q 43.296875 50.09375 39.890625 51.5 
Q 36.5 52.90625 31.40625 52.90625 
Q 19.90625 52.90625 14.59375 43.5 
L 14.40625 43.5 
L 14.40625 51.703125 
z
" id="HelveticaNeue-110"/>
       <path d="M 15.40625 61 
L 15.40625 71.40625 
L 6.90625 71.40625 
L 6.90625 61 
z
M 6.90625 51.703125 
L 6.90625 0 
L 15.40625 0 
L 15.40625 51.703125 
z
" id="HelveticaNeue-105"/>
       <path d="M 18.203125 51.703125 
L 18.203125 67.203125 
L 9.703125 67.203125 
L 9.703125 51.703125 
L 0.90625 51.703125 
L 0.90625 44.203125 
L 9.703125 44.203125 
L 9.703125 11.296875 
Q 9.703125 7.703125 10.390625 5.5 
Q 11.09375 3.296875 12.546875 2.09375 
Q 14 0.90625 16.34375 0.453125 
Q 18.703125 0 22 0 
L 28.5 0 
L 28.5 7.5 
L 24.59375 7.5 
Q 22.59375 7.5 21.34375 7.640625 
Q 20.09375 7.796875 19.390625 8.296875 
Q 18.703125 8.796875 18.453125 9.6875 
Q 18.203125 10.59375 18.203125 12.09375 
L 18.203125 44.203125 
L 28.5 44.203125 
L 28.5 51.703125 
z
" id="HelveticaNeue-116"/>
       <path d="M 12.59375 25.40625 
Q 12.59375 29.203125 13.390625 32.796875 
Q 14.203125 36.40625 16 39.203125 
Q 17.796875 42 20.796875 43.703125 
Q 23.796875 45.40625 28.09375 45.40625 
Q 32.5 45.40625 35.59375 43.75 
Q 38.703125 42.09375 40.640625 39.390625 
Q 42.59375 36.703125 43.5 33.140625 
Q 44.40625 29.59375 44.40625 25.796875 
Q 44.40625 22.203125 43.546875 18.703125 
Q 42.703125 15.203125 40.796875 12.453125 
Q 38.90625 9.703125 35.90625 8 
Q 32.90625 6.296875 28.59375 6.296875 
Q 24.5 6.296875 21.453125 7.890625 
Q 18.40625 9.5 16.453125 12.203125 
Q 14.5 14.90625 13.546875 18.34375 
Q 12.59375 21.796875 12.59375 25.40625 
z
M 52.59375 0 
L 52.59375 71.40625 
L 44.09375 71.40625 
L 44.09375 44.796875 
L 43.90625 44.796875 
Q 42.5 47.09375 40.453125 48.640625 
Q 38.40625 50.203125 36.09375 51.140625 
Q 33.796875 52.09375 31.5 52.5 
Q 29.203125 52.90625 27.203125 52.90625 
Q 21.296875 52.90625 16.84375 50.75 
Q 12.40625 48.59375 9.453125 44.9375 
Q 6.5 41.296875 5.046875 36.390625 
Q 3.59375 31.5 3.59375 26 
Q 3.59375 20.5 5.09375 15.59375 
Q 6.59375 10.703125 9.546875 7 
Q 12.5 3.296875 16.953125 1.09375 
Q 21.40625 -1.09375 27.40625 -1.09375 
Q 32.796875 -1.09375 37.296875 0.796875 
Q 41.796875 2.703125 43.90625 7 
L 44.09375 7 
L 44.09375 0 
z
" id="HelveticaNeue-100"/>
       <path d="M 49.09375 50.5 
L 58.09375 50.5 
Q 57.90625 56.40625 55.84375 60.65625 
Q 53.796875 64.90625 50.25 67.703125 
Q 46.703125 70.5 42 71.796875 
Q 37.296875 73.09375 31.796875 73.09375 
Q 26.90625 73.09375 22.25 71.84375 
Q 17.59375 70.59375 13.9375 68.046875 
Q 10.296875 65.5 8.09375 61.546875 
Q 5.90625 57.59375 5.90625 52.203125 
Q 5.90625 47.296875 7.84375 44.046875 
Q 9.796875 40.796875 13.046875 38.75 
Q 16.296875 36.703125 20.390625 35.453125 
Q 24.5 34.203125 28.75 33.25 
Q 33 32.296875 37.09375 31.390625 
Q 41.203125 30.5 44.453125 29.046875 
Q 47.703125 27.59375 49.640625 25.296875 
Q 51.59375 23 51.59375 19.296875 
Q 51.59375 15.40625 50 12.90625 
Q 48.40625 10.40625 45.796875 8.953125 
Q 43.203125 7.5 39.953125 6.890625 
Q 36.703125 6.296875 33.5 6.296875 
Q 29.5 6.296875 25.703125 7.296875 
Q 21.90625 8.296875 19.046875 10.390625 
Q 16.203125 12.5 14.453125 15.75 
Q 12.703125 19 12.703125 23.5 
L 3.703125 23.5 
Q 3.703125 17 6.046875 12.25 
Q 8.40625 7.5 12.453125 4.453125 
Q 16.5 1.40625 21.84375 -0.09375 
Q 27.203125 -1.59375 33.203125 -1.59375 
Q 38.09375 -1.59375 43.046875 -0.4375 
Q 48 0.703125 52 3.25 
Q 56 5.796875 58.546875 9.84375 
Q 61.09375 13.90625 61.09375 19.59375 
Q 61.09375 24.90625 59.140625 28.40625 
Q 57.203125 31.90625 53.953125 34.203125 
Q 50.703125 36.5 46.59375 37.84375 
Q 42.5 39.203125 38.25 40.203125 
Q 34 41.203125 29.890625 42.046875 
Q 25.796875 42.90625 22.546875 44.203125 
Q 19.296875 45.5 17.34375 47.546875 
Q 15.40625 49.59375 15.40625 52.90625 
Q 15.40625 56.40625 16.75 58.75 
Q 18.09375 61.09375 20.34375 62.5 
Q 22.59375 63.90625 25.5 64.5 
Q 28.40625 65.09375 31.40625 65.09375 
Q 38.796875 65.09375 43.546875 61.640625 
Q 48.296875 58.203125 49.09375 50.5 
z
" id="HelveticaNeue-83"/>
      </defs>
      <use xlink:href="#HelveticaNeue-85"/>
      <use x="72.199982" xlink:href="#HelveticaNeue-110"/>
      <use x="127.799973" xlink:href="#HelveticaNeue-105"/>
      <use x="149.999969" xlink:href="#HelveticaNeue-116"/>
      <use x="181.499954" xlink:href="#HelveticaNeue-101"/>
      <use x="235.199951" xlink:href="#HelveticaNeue-100"/>
      <use x="294.499939" xlink:href="#HelveticaNeue-32"/>
      <use x="322.299927" xlink:href="#HelveticaNeue-83"/>
      <use x="387.099915" xlink:href="#HelveticaNeue-116"/>
      <use x="418.599899" xlink:href="#HelveticaNeue-97"/>
      <use x="472.299896" xlink:href="#HelveticaNeue-116"/>
      <use x="503.799881" xlink:href="#HelveticaNeue-101"/>
      <use x="557.499878" xlink:href="#HelveticaNeue-115"/>
     </g>
    </g>
    <g id="line2d_101">
     <path d="M 570.298125 69.047687 
L 598.298125 69.047687 
" style="fill:none;stroke:#fc4f30;stroke-width:4;"/>
    </g>
    <g id="line2d_102"/>
    <g id="text_21">
     <!-- Florida -->
     <g style="fill:#555555;" transform="translate(609.498125 73.947687)scale(0.14 -0.14)">
      <defs>
       <path d="M 7.796875 71.40625 
L 7.796875 0 
L 17.296875 0 
L 17.296875 32.703125 
L 50.09375 32.703125 
L 50.09375 40.703125 
L 17.296875 40.703125 
L 17.296875 63.40625 
L 54.703125 63.40625 
L 54.703125 71.40625 
z
" id="HelveticaNeue-70"/>
       <path d="M 6.90625 71.40625 
L 6.90625 0 
L 15.40625 0 
L 15.40625 71.40625 
z
" id="HelveticaNeue-108"/>
       <path d="M 6.09375 51.703125 
L 6.09375 0 
L 14.59375 0 
L 14.59375 23 
Q 14.59375 28 15.59375 31.84375 
Q 16.59375 35.703125 18.796875 38.390625 
Q 21 41.09375 24.59375 42.5 
Q 28.203125 43.90625 33.296875 43.90625 
L 33.296875 52.90625 
Q 26.40625 53.09375 21.90625 50.09375 
Q 17.40625 47.09375 14.296875 40.796875 
L 14.09375 40.796875 
L 14.09375 51.703125 
z
" id="HelveticaNeue-114"/>
      </defs>
      <use xlink:href="#HelveticaNeue-70"/>
      <use x="57.399994" xlink:href="#HelveticaNeue-108"/>
      <use x="79.599991" xlink:href="#HelveticaNeue-111"/>
      <use x="136.999985" xlink:href="#HelveticaNeue-114"/>
      <use x="170.299973" xlink:href="#HelveticaNeue-105"/>
      <use x="192.499969" xlink:href="#HelveticaNeue-100"/>
      <use x="251.799957" xlink:href="#HelveticaNeue-97"/>
     </g>
    </g>
   </g>
  </g>
 </g>
 <defs>
  <clipPath id="p832e615439">
   <rect height="483.84" width="626.4" x="80.748125" y="31.5955"/>
  </clipPath>
 </defs>
</svg>
