<?xml version="1.0" encoding="utf-8" standalone="no"?>
<!DOCTYPE svg PUBLIC "-//W3C//DTD SVG 1.1//EN"
  "http://www.w3.org/Graphics/SVG/1.1/DTD/svg11.dtd">
<!-- Created with matplotlib (https://matplotlib.org/) -->
<svg height="538.890812pt" version="1.1" viewBox="0 0 714.348125 538.890812" width="714.348125pt" xmlns="http://www.w3.org/2000/svg" xmlns:xlink="http://www.w3.org/1999/xlink">
 <metadata>
  <rdf:RDF xmlns:cc="http://creativecommons.org/ns#" xmlns:dc="http://purl.org/dc/elements/1.1/" xmlns:rdf="http://www.w3.org/1999/02/22-rdf-syntax-ns#">
   <cc:Work>
    <dc:type rdf:resource="http://purl.org/dc/dcmitype/StillImage"/>
    <dc:date>2021-03-01T12:33:15.665327</dc:date>
    <dc:format>image/svg+xml</dc:format>
    <dc:creator>
     <cc:Agent>
      <dc:title>Matplotlib v3.3.4, https://matplotlib.org/</dc:title>
     </cc:Agent>
    </dc:creator>
   </cc:Work>
  </rdf:RDF>
 </metadata>
 <defs>
  <style type="text/css">*{stroke-linecap:butt;stroke-linejoin:round;}</style>
 </defs>
 <g id="figure_1">
  <g id="patch_1">
   <path d="M 0 538.890812 
L 714.348125 538.890812 
L 714.348125 0 
L 0 0 
z
" style="fill:#f0f0f0;"/>
  </g>
  <g id="axes_1">
   <g id="patch_2">
    <path d="M 80.748125 515.4355 
L 707.148125 515.4355 
L 707.148125 31.5955 
L 80.748125 31.5955 
z
" style="fill:#f0f0f0;"/>
   </g>
   <g id="matplotlib.axis_1">
    <g id="xtick_1">
     <g id="line2d_1">
      <path clip-path="url(#p9dc194da50)" d="M 164.329357 515.4355 
L 164.329357 31.5955 
" style="fill:none;stroke:#cbcbcb;"/>
     </g>
     <g id="line2d_2"/>
     <g id="text_1">
      <!-- 2020-03 -->
      <g style="fill:#555555;" transform="translate(138.256544 528.932375)scale(0.14 -0.14)">
       <defs>
        <path d="M 4.40625 45.796875 
L 12.90625 45.796875 
Q 12.796875 49 13.546875 52.140625 
Q 14.296875 55.296875 16 57.796875 
Q 17.703125 60.296875 20.34375 61.84375 
Q 23 63.40625 26.703125 63.40625 
Q 29.5 63.40625 32 62.5 
Q 34.5 61.59375 36.34375 59.890625 
Q 38.203125 58.203125 39.296875 55.84375 
Q 40.40625 53.5 40.40625 50.59375 
Q 40.40625 46.90625 39.25 44.09375 
Q 38.09375 41.296875 35.84375 38.890625 
Q 33.59375 36.5 30.1875 34.140625 
Q 26.796875 31.796875 22.296875 29 
Q 18.59375 26.796875 15.1875 24.296875 
Q 11.796875 21.796875 9.09375 18.5 
Q 6.40625 15.203125 4.65625 10.75 
Q 2.90625 6.296875 2.40625 0 
L 48.703125 0 
L 48.703125 7.5 
L 12.296875 7.5 
Q 12.90625 10.796875 14.84375 13.34375 
Q 16.796875 15.90625 19.546875 18.09375 
Q 22.296875 20.296875 25.59375 22.25 
Q 28.90625 24.203125 32.203125 26.203125 
Q 35.5 28.296875 38.59375 30.59375 
Q 41.703125 32.90625 44.09375 35.75 
Q 46.5 38.59375 47.953125 42.1875 
Q 49.40625 45.796875 49.40625 50.5 
Q 49.40625 55.5 47.65625 59.296875 
Q 45.90625 63.09375 42.90625 65.640625 
Q 39.90625 68.203125 35.84375 69.546875 
Q 31.796875 70.90625 27.203125 70.90625 
Q 21.59375 70.90625 17.1875 69 
Q 12.796875 67.09375 9.84375 63.75 
Q 6.90625 60.40625 5.5 55.796875 
Q 4.09375 51.203125 4.40625 45.796875 
z
" id="HelveticaNeue-50"/>
        <path d="M 13.203125 34.90625 
Q 13.203125 37.5 13.25 40.640625 
Q 13.296875 43.796875 13.75 46.9375 
Q 14.203125 50.09375 15.046875 53.09375 
Q 15.90625 56.09375 17.546875 58.34375 
Q 19.203125 60.59375 21.703125 62 
Q 24.203125 63.40625 27.796875 63.40625 
Q 31.40625 63.40625 33.90625 62 
Q 36.40625 60.59375 38.046875 58.34375 
Q 39.703125 56.09375 40.546875 53.09375 
Q 41.40625 50.09375 41.84375 46.9375 
Q 42.296875 43.796875 42.34375 40.640625 
Q 42.40625 37.5 42.40625 34.90625 
Q 42.40625 30.90625 42.15625 25.953125 
Q 41.90625 21 40.546875 16.640625 
Q 39.203125 12.296875 36.203125 9.296875 
Q 33.203125 6.296875 27.796875 6.296875 
Q 22.40625 6.296875 19.40625 9.296875 
Q 16.40625 12.296875 15.046875 16.640625 
Q 13.703125 21 13.453125 25.953125 
Q 13.203125 30.90625 13.203125 34.90625 
z
M 4.203125 34.796875 
Q 4.203125 30.90625 4.390625 26.703125 
Q 4.59375 22.5 5.390625 18.5 
Q 6.203125 14.5 7.703125 10.953125 
Q 9.203125 7.40625 11.796875 4.703125 
Q 14.40625 2 18.34375 0.453125 
Q 22.296875 -1.09375 27.796875 -1.09375 
Q 33.40625 -1.09375 37.296875 0.453125 
Q 41.203125 2 43.796875 4.703125 
Q 46.40625 7.40625 47.90625 10.953125 
Q 49.40625 14.5 50.203125 18.5 
Q 51 22.5 51.203125 26.703125 
Q 51.40625 30.90625 51.40625 34.796875 
Q 51.40625 38.703125 51.203125 42.890625 
Q 51 47.09375 50.203125 51.09375 
Q 49.40625 55.09375 47.90625 58.6875 
Q 46.40625 62.296875 43.796875 65 
Q 41.203125 67.703125 37.25 69.296875 
Q 33.296875 70.90625 27.796875 70.90625 
Q 22.296875 70.90625 18.34375 69.296875 
Q 14.40625 67.703125 11.796875 65 
Q 9.203125 62.296875 7.703125 58.6875 
Q 6.203125 55.09375 5.390625 51.09375 
Q 4.59375 47.09375 4.390625 42.890625 
Q 4.203125 38.703125 4.203125 34.796875 
z
" id="HelveticaNeue-48"/>
        <path d="M 5 31.796875 
L 5 23.796875 
L 33.90625 23.796875 
L 33.90625 31.796875 
z
" id="HelveticaNeue-45"/>
        <path d="M 21.796875 40.5 
L 21.796875 33.296875 
Q 24.203125 33.59375 26.90625 33.59375 
Q 30.09375 33.59375 32.84375 32.75 
Q 35.59375 31.90625 37.59375 30.15625 
Q 39.59375 28.40625 40.796875 25.84375 
Q 42 23.296875 42 20 
Q 42 16.796875 40.75 14.25 
Q 39.5 11.703125 37.390625 9.953125 
Q 35.296875 8.203125 32.5 7.25 
Q 29.703125 6.296875 26.59375 6.296875 
Q 19.296875 6.296875 15.5 10.640625 
Q 11.703125 15 11.5 21.90625 
L 3 21.90625 
Q 2.90625 16.40625 4.546875 12.09375 
Q 6.203125 7.796875 9.296875 4.84375 
Q 12.40625 1.90625 16.796875 0.40625 
Q 21.203125 -1.09375 26.59375 -1.09375 
Q 31.59375 -1.09375 36.046875 0.25 
Q 40.5 1.59375 43.796875 4.296875 
Q 47.09375 7 49.046875 11.046875 
Q 51 15.09375 51 20.40625 
Q 51 26.796875 47.84375 31.5 
Q 44.703125 36.203125 38.203125 37.59375 
L 38.203125 37.796875 
Q 42.40625 39.703125 45.203125 43.390625 
Q 48 47.09375 48 51.90625 
Q 48 56.796875 46.34375 60.390625 
Q 44.703125 64 41.796875 66.296875 
Q 38.90625 68.59375 34.953125 69.75 
Q 31 70.90625 26.40625 70.90625 
Q 21.09375 70.90625 17.046875 69.203125 
Q 13 67.5 10.296875 64.5 
Q 7.59375 61.5 6.140625 57.296875 
Q 4.703125 53.09375 4.5 48 
L 13 48 
Q 13 51.09375 13.796875 53.890625 
Q 14.59375 56.703125 16.25 58.796875 
Q 17.90625 60.90625 20.453125 62.15625 
Q 23 63.40625 26.40625 63.40625 
Q 31.796875 63.40625 35.390625 60.546875 
Q 39 57.703125 39 52 
Q 39 49.203125 37.890625 47 
Q 36.796875 44.796875 34.9375 43.34375 
Q 33.09375 41.90625 30.640625 41.15625 
Q 28.203125 40.40625 25.5 40.40625 
L 23.703125 40.40625 
Q 23.203125 40.40625 22.703125 40.40625 
Q 22.296875 40.40625 21.796875 40.5 
z
" id="HelveticaNeue-51"/>
       </defs>
       <use xlink:href="#HelveticaNeue-50"/>
       <use x="55.599991" xlink:href="#HelveticaNeue-48"/>
       <use x="111.199982" xlink:href="#HelveticaNeue-50"/>
       <use x="166.799973" xlink:href="#HelveticaNeue-48"/>
       <use x="222.399963" xlink:href="#HelveticaNeue-45"/>
       <use x="261.299957" xlink:href="#HelveticaNeue-48"/>
       <use x="316.899948" xlink:href="#HelveticaNeue-51"/>
      </g>
     </g>
    </g>
    <g id="xtick_2">
     <g id="line2d_3">
      <path clip-path="url(#p9dc194da50)" d="M 250.52471 515.4355 
L 250.52471 31.5955 
" style="fill:none;stroke:#cbcbcb;"/>
     </g>
     <g id="line2d_4"/>
     <g id="text_2">
      <!-- 2020-05 -->
      <g style="fill:#555555;" transform="translate(224.451897 528.932375)scale(0.14 -0.14)">
       <defs>
        <path d="M 47 62.203125 
L 47 69.703125 
L 12 69.703125 
L 5.40625 32.90625 
L 12.703125 32.5 
Q 15.203125 35.5 18.453125 37.34375 
Q 21.703125 39.203125 25.90625 39.203125 
Q 29.5 39.203125 32.453125 38 
Q 35.40625 36.796875 37.5 34.640625 
Q 39.59375 32.5 40.75 29.546875 
Q 41.90625 26.59375 41.90625 23.09375 
Q 41.90625 18.90625 40.703125 15.75 
Q 39.5 12.59375 37.453125 10.5 
Q 35.40625 8.40625 32.65625 7.34375 
Q 29.90625 6.296875 26.90625 6.296875 
Q 23.703125 6.296875 21.046875 7.25 
Q 18.40625 8.203125 16.453125 9.953125 
Q 14.5 11.703125 13.34375 14.046875 
Q 12.203125 16.40625 12 19.09375 
L 3.5 19.09375 
Q 3.59375 14.296875 5.390625 10.5 
Q 7.203125 6.703125 10.296875 4.140625 
Q 13.40625 1.59375 17.453125 0.25 
Q 21.5 -1.09375 26.09375 -1.09375 
Q 32.296875 -1.09375 36.9375 0.84375 
Q 41.59375 2.796875 44.6875 6.09375 
Q 47.796875 9.40625 49.34375 13.65625 
Q 50.90625 17.90625 50.90625 22.40625 
Q 50.90625 28.5 49.09375 33.046875 
Q 47.296875 37.59375 44.1875 40.640625 
Q 41.09375 43.703125 36.890625 45.203125 
Q 32.703125 46.703125 28 46.703125 
Q 24.40625 46.703125 20.75 45.453125 
Q 17.09375 44.203125 14.796875 41.59375 
L 14.59375 41.796875 
L 18.40625 62.203125 
z
" id="HelveticaNeue-53"/>
       </defs>
       <use xlink:href="#HelveticaNeue-50"/>
       <use x="55.599991" xlink:href="#HelveticaNeue-48"/>
       <use x="111.199982" xlink:href="#HelveticaNeue-50"/>
       <use x="166.799973" xlink:href="#HelveticaNeue-48"/>
       <use x="222.399963" xlink:href="#HelveticaNeue-45"/>
       <use x="261.299957" xlink:href="#HelveticaNeue-48"/>
       <use x="316.899948" xlink:href="#HelveticaNeue-53"/>
      </g>
     </g>
    </g>
    <g id="xtick_3">
     <g id="line2d_5">
      <path clip-path="url(#p9dc194da50)" d="M 336.720063 515.4355 
L 336.720063 31.5955 
" style="fill:none;stroke:#cbcbcb;"/>
     </g>
     <g id="line2d_6"/>
     <g id="text_3">
      <!-- 2020-07 -->
      <g style="fill:#555555;" transform="translate(310.64725 528.932375)scale(0.14 -0.14)">
       <defs>
        <path d="M 50.90625 62.40625 
L 50.90625 69.703125 
L 5 69.703125 
L 5 61.703125 
L 42.203125 61.703125 
Q 36.59375 55.796875 31.75 48.796875 
Q 26.90625 41.796875 23.203125 33.9375 
Q 19.5 26.09375 17.140625 17.546875 
Q 14.796875 9 14.203125 0 
L 23.703125 0 
Q 24.203125 8.296875 26.5 17.09375 
Q 28.796875 25.90625 32.4375 34.203125 
Q 36.09375 42.5 40.796875 49.796875 
Q 45.5 57.09375 50.90625 62.40625 
z
" id="HelveticaNeue-55"/>
       </defs>
       <use xlink:href="#HelveticaNeue-50"/>
       <use x="55.599991" xlink:href="#HelveticaNeue-48"/>
       <use x="111.199982" xlink:href="#HelveticaNeue-50"/>
       <use x="166.799973" xlink:href="#HelveticaNeue-48"/>
       <use x="222.399963" xlink:href="#HelveticaNeue-45"/>
       <use x="261.299957" xlink:href="#HelveticaNeue-48"/>
       <use x="316.899948" xlink:href="#HelveticaNeue-55"/>
      </g>
     </g>
    </g>
    <g id="xtick_4">
     <g id="line2d_7">
      <path clip-path="url(#p9dc194da50)" d="M 424.328454 515.4355 
L 424.328454 31.5955 
" style="fill:none;stroke:#cbcbcb;"/>
     </g>
     <g id="line2d_8"/>
     <g id="text_4">
      <!-- 2020-09 -->
      <g style="fill:#555555;" transform="translate(398.255642 528.932375)scale(0.14 -0.14)">
       <defs>
        <path d="M 13.40625 17.09375 
L 4.90625 17.09375 
Q 5.703125 7.90625 11.59375 3.40625 
Q 17.5 -1.09375 26.40625 -1.09375 
Q 39.296875 -1.09375 45.140625 8.75 
Q 51 18.59375 51 37 
Q 51 47.09375 49.046875 53.640625 
Q 47.09375 60.203125 43.796875 64 
Q 40.5 67.796875 36.09375 69.34375 
Q 31.703125 70.90625 26.703125 70.90625 
Q 21.59375 70.90625 17.296875 69.203125 
Q 13 67.5 9.890625 64.453125 
Q 6.796875 61.40625 5.09375 57.15625 
Q 3.40625 52.90625 3.40625 47.796875 
Q 3.40625 42.59375 4.84375 38.1875 
Q 6.296875 33.796875 9.140625 30.6875 
Q 12 27.59375 16.203125 25.84375 
Q 20.40625 24.09375 25.796875 24.09375 
Q 31 24.09375 35.390625 26.75 
Q 39.796875 29.40625 42.203125 33.90625 
L 42.40625 33.703125 
Q 42 19.796875 38.09375 13.046875 
Q 34.203125 6.296875 26.40625 6.296875 
Q 21.296875 6.296875 17.59375 9.09375 
Q 13.90625 11.90625 13.40625 17.09375 
z
M 40.90625 47.203125 
Q 40.90625 44.09375 39.90625 41.25 
Q 38.90625 38.40625 37 36.25 
Q 35.09375 34.09375 32.390625 32.84375 
Q 29.703125 31.59375 26.40625 31.59375 
Q 23.296875 31.59375 20.75 32.84375 
Q 18.203125 34.09375 16.34375 36.1875 
Q 14.5 38.296875 13.453125 41 
Q 12.40625 43.703125 12.40625 46.59375 
Q 12.40625 49.90625 13.15625 52.90625 
Q 13.90625 55.90625 15.546875 58.25 
Q 17.203125 60.59375 19.84375 62 
Q 22.5 63.40625 26.296875 63.40625 
Q 29.90625 63.40625 32.59375 62.09375 
Q 35.296875 60.796875 37.140625 58.546875 
Q 39 56.296875 39.953125 53.390625 
Q 40.90625 50.5 40.90625 47.203125 
z
" id="HelveticaNeue-57"/>
       </defs>
       <use xlink:href="#HelveticaNeue-50"/>
       <use x="55.599991" xlink:href="#HelveticaNeue-48"/>
       <use x="111.199982" xlink:href="#HelveticaNeue-50"/>
       <use x="166.799973" xlink:href="#HelveticaNeue-48"/>
       <use x="222.399963" xlink:href="#HelveticaNeue-45"/>
       <use x="261.299957" xlink:href="#HelveticaNeue-48"/>
       <use x="316.899948" xlink:href="#HelveticaNeue-57"/>
      </g>
     </g>
    </g>
    <g id="xtick_5">
     <g id="line2d_9">
      <path clip-path="url(#p9dc194da50)" d="M 510.523807 515.4355 
L 510.523807 31.5955 
" style="fill:none;stroke:#cbcbcb;"/>
     </g>
     <g id="line2d_10"/>
     <g id="text_5">
      <!-- 2020-11 -->
      <g style="fill:#555555;" transform="translate(484.450995 528.932375)scale(0.14 -0.14)">
       <defs>
        <path d="M 35.59375 0 
L 35.59375 70.90625 
L 29.09375 70.90625 
Q 28.40625 66.90625 26.5 64.296875 
Q 24.59375 61.703125 21.84375 60.203125 
Q 19.09375 58.703125 15.6875 58.140625 
Q 12.296875 57.59375 8.703125 57.59375 
L 8.703125 50.796875 
L 27.09375 50.796875 
L 27.09375 0 
z
" id="HelveticaNeue-49"/>
       </defs>
       <use xlink:href="#HelveticaNeue-50"/>
       <use x="55.599991" xlink:href="#HelveticaNeue-48"/>
       <use x="111.199982" xlink:href="#HelveticaNeue-50"/>
       <use x="166.799973" xlink:href="#HelveticaNeue-48"/>
       <use x="222.399963" xlink:href="#HelveticaNeue-45"/>
       <use x="261.299957" xlink:href="#HelveticaNeue-49"/>
       <use x="316.899948" xlink:href="#HelveticaNeue-49"/>
      </g>
     </g>
    </g>
    <g id="xtick_6">
     <g id="line2d_11">
      <path clip-path="url(#p9dc194da50)" d="M 596.71916 515.4355 
L 596.71916 31.5955 
" style="fill:none;stroke:#cbcbcb;"/>
     </g>
     <g id="line2d_12"/>
     <g id="text_6">
      <!-- 2021-01 -->
      <g style="fill:#555555;" transform="translate(570.646348 528.932375)scale(0.14 -0.14)">
       <use xlink:href="#HelveticaNeue-50"/>
       <use x="55.599991" xlink:href="#HelveticaNeue-48"/>
       <use x="111.199982" xlink:href="#HelveticaNeue-50"/>
       <use x="166.799973" xlink:href="#HelveticaNeue-49"/>
       <use x="222.399963" xlink:href="#HelveticaNeue-45"/>
       <use x="261.299957" xlink:href="#HelveticaNeue-48"/>
       <use x="316.899948" xlink:href="#HelveticaNeue-49"/>
      </g>
     </g>
    </g>
    <g id="xtick_7">
     <g id="line2d_13">
      <path clip-path="url(#p9dc194da50)" d="M 680.088436 515.4355 
L 680.088436 31.5955 
" style="fill:none;stroke:#cbcbcb;"/>
     </g>
     <g id="line2d_14"/>
     <g id="text_7">
      <!-- 2021-03 -->
      <g style="fill:#555555;" transform="translate(654.015624 528.932375)scale(0.14 -0.14)">
       <use xlink:href="#HelveticaNeue-50"/>
       <use x="55.599991" xlink:href="#HelveticaNeue-48"/>
       <use x="111.199982" xlink:href="#HelveticaNeue-50"/>
       <use x="166.799973" xlink:href="#HelveticaNeue-49"/>
       <use x="222.399963" xlink:href="#HelveticaNeue-45"/>
       <use x="261.299957" xlink:href="#HelveticaNeue-48"/>
       <use x="316.899948" xlink:href="#HelveticaNeue-51"/>
      </g>
     </g>
    </g>
   </g>
   <g id="matplotlib.axis_2">
    <g id="ytick_1">
     <g id="line2d_15">
      <path clip-path="url(#p9dc194da50)" d="M 80.748125 497.216366 
L 707.148125 497.216366 
" style="fill:none;stroke:#cbcbcb;"/>
     </g>
     <g id="line2d_16"/>
     <g id="text_8">
      <!-- 1 -->
      <g style="fill:#555555;" transform="translate(69.465 502.214804)scale(0.14 -0.14)">
       <use xlink:href="#HelveticaNeue-49"/>
      </g>
     </g>
    </g>
    <g id="ytick_2">
     <g id="line2d_17">
      <path clip-path="url(#p9dc194da50)" d="M 80.748125 430.699099 
L 707.148125 430.699099 
" style="fill:none;stroke:#cbcbcb;"/>
     </g>
     <g id="line2d_18"/>
     <g id="text_9">
      <!-- 10 -->
      <g style="fill:#555555;" transform="translate(61.681875 435.697537)scale(0.14 -0.14)">
       <use xlink:href="#HelveticaNeue-49"/>
       <use x="55.599991" xlink:href="#HelveticaNeue-48"/>
      </g>
     </g>
    </g>
    <g id="ytick_3">
     <g id="line2d_19">
      <path clip-path="url(#p9dc194da50)" d="M 80.748125 364.181833 
L 707.148125 364.181833 
" style="fill:none;stroke:#cbcbcb;"/>
     </g>
     <g id="line2d_20"/>
     <g id="text_10">
      <!-- 100 -->
      <g style="fill:#555555;" transform="translate(53.89875 369.18027)scale(0.14 -0.14)">
       <use xlink:href="#HelveticaNeue-49"/>
       <use x="55.599991" xlink:href="#HelveticaNeue-48"/>
       <use x="111.199982" xlink:href="#HelveticaNeue-48"/>
      </g>
     </g>
    </g>
    <g id="ytick_4">
     <g id="line2d_21">
      <path clip-path="url(#p9dc194da50)" d="M 80.748125 297.664566 
L 707.148125 297.664566 
" style="fill:none;stroke:#cbcbcb;"/>
     </g>
     <g id="line2d_22"/>
     <g id="text_11">
      <!-- 1,000 -->
      <g style="fill:#555555;" transform="translate(42.224063 302.663004)scale(0.14 -0.14)">
       <defs>
        <path d="M 8.296875 11.09375 
L 8.296875 0 
L 14.203125 0 
Q 14.296875 -1.203125 14.046875 -2.59375 
Q 13.796875 -4 13.09375 -5.34375 
Q 12.40625 -6.703125 11.25 -7.84375 
Q 10.09375 -9 8.40625 -9.59375 
L 8.40625 -14.59375 
Q 14.203125 -12.90625 16.796875 -8.796875 
Q 19.40625 -4.703125 19.40625 1 
L 19.40625 11.09375 
z
" id="HelveticaNeue-44"/>
       </defs>
       <use xlink:href="#HelveticaNeue-49"/>
       <use x="55.599991" xlink:href="#HelveticaNeue-44"/>
       <use x="83.399979" xlink:href="#HelveticaNeue-48"/>
       <use x="138.999969" xlink:href="#HelveticaNeue-48"/>
       <use x="194.59996" xlink:href="#HelveticaNeue-48"/>
      </g>
     </g>
    </g>
    <g id="ytick_5">
     <g id="line2d_23">
      <path clip-path="url(#p9dc194da50)" d="M 80.748125 231.1473 
L 707.148125 231.1473 
" style="fill:none;stroke:#cbcbcb;"/>
     </g>
     <g id="line2d_24"/>
     <g id="text_12">
      <!-- 10,000 -->
      <g style="fill:#555555;" transform="translate(34.440938 236.145737)scale(0.14 -0.14)">
       <use xlink:href="#HelveticaNeue-49"/>
       <use x="55.599991" xlink:href="#HelveticaNeue-48"/>
       <use x="111.199982" xlink:href="#HelveticaNeue-44"/>
       <use x="138.999969" xlink:href="#HelveticaNeue-48"/>
       <use x="194.59996" xlink:href="#HelveticaNeue-48"/>
       <use x="250.199951" xlink:href="#HelveticaNeue-48"/>
      </g>
     </g>
    </g>
    <g id="ytick_6">
     <g id="line2d_25">
      <path clip-path="url(#p9dc194da50)" d="M 80.748125 164.630033 
L 707.148125 164.630033 
" style="fill:none;stroke:#cbcbcb;"/>
     </g>
     <g id="line2d_26"/>
     <g id="text_13">
      <!-- 100,000 -->
      <g style="fill:#555555;" transform="translate(26.657813 169.628471)scale(0.14 -0.14)">
       <use xlink:href="#HelveticaNeue-49"/>
       <use x="55.599991" xlink:href="#HelveticaNeue-48"/>
       <use x="111.199982" xlink:href="#HelveticaNeue-48"/>
       <use x="166.799973" xlink:href="#HelveticaNeue-44"/>
       <use x="194.59996" xlink:href="#HelveticaNeue-48"/>
       <use x="250.199951" xlink:href="#HelveticaNeue-48"/>
       <use x="305.799942" xlink:href="#HelveticaNeue-48"/>
      </g>
     </g>
    </g>
    <g id="ytick_7">
     <g id="line2d_27">
      <path clip-path="url(#p9dc194da50)" d="M 80.748125 98.112767 
L 707.148125 98.112767 
" style="fill:none;stroke:#cbcbcb;"/>
     </g>
     <g id="line2d_28"/>
     <g id="text_14">
      <!-- 1,000,000 -->
      <g style="fill:#555555;" transform="translate(14.983125 103.111204)scale(0.14 -0.14)">
       <use xlink:href="#HelveticaNeue-49"/>
       <use x="55.599991" xlink:href="#HelveticaNeue-44"/>
       <use x="83.399979" xlink:href="#HelveticaNeue-48"/>
       <use x="138.999969" xlink:href="#HelveticaNeue-48"/>
       <use x="194.59996" xlink:href="#HelveticaNeue-48"/>
       <use x="250.199951" xlink:href="#HelveticaNeue-44"/>
       <use x="277.999939" xlink:href="#HelveticaNeue-48"/>
       <use x="333.59993" xlink:href="#HelveticaNeue-48"/>
       <use x="389.199921" xlink:href="#HelveticaNeue-48"/>
      </g>
     </g>
    </g>
    <g id="ytick_8">
     <g id="line2d_29">
      <path clip-path="url(#p9dc194da50)" d="M 80.748125 31.5955 
L 707.148125 31.5955 
" style="fill:none;stroke:#cbcbcb;"/>
     </g>
     <g id="line2d_30"/>
     <g id="text_15">
      <!-- 10,000,000 -->
      <g style="fill:#555555;" transform="translate(7.2 36.593937)scale(0.14 -0.14)">
       <use xlink:href="#HelveticaNeue-49"/>
       <use x="55.599991" xlink:href="#HelveticaNeue-48"/>
       <use x="111.199982" xlink:href="#HelveticaNeue-44"/>
       <use x="138.999969" xlink:href="#HelveticaNeue-48"/>
       <use x="194.59996" xlink:href="#HelveticaNeue-48"/>
       <use x="250.199951" xlink:href="#HelveticaNeue-48"/>
       <use x="305.799942" xlink:href="#HelveticaNeue-44"/>
       <use x="333.59993" xlink:href="#HelveticaNeue-48"/>
       <use x="389.199921" xlink:href="#HelveticaNeue-48"/>
       <use x="444.799911" xlink:href="#HelveticaNeue-48"/>
      </g>
     </g>
    </g>
    <g id="ytick_9">
     <g id="line2d_31"/>
    </g>
    <g id="ytick_10">
     <g id="line2d_32"/>
    </g>
    <g id="ytick_11">
     <g id="line2d_33"/>
    </g>
    <g id="ytick_12">
     <g id="line2d_34"/>
    </g>
    <g id="ytick_13">
     <g id="line2d_35"/>
    </g>
    <g id="ytick_14">
     <g id="line2d_36"/>
    </g>
    <g id="ytick_15">
     <g id="line2d_37"/>
    </g>
    <g id="ytick_16">
     <g id="line2d_38"/>
    </g>
    <g id="ytick_17">
     <g id="line2d_39"/>
    </g>
    <g id="ytick_18">
     <g id="line2d_40"/>
    </g>
    <g id="ytick_19">
     <g id="line2d_41"/>
    </g>
    <g id="ytick_20">
     <g id="line2d_42"/>
    </g>
    <g id="ytick_21">
     <g id="line2d_43"/>
    </g>
    <g id="ytick_22">
     <g id="line2d_44"/>
    </g>
    <g id="ytick_23">
     <g id="line2d_45"/>
    </g>
    <g id="ytick_24">
     <g id="line2d_46"/>
    </g>
    <g id="ytick_25">
     <g id="line2d_47"/>
    </g>
    <g id="ytick_26">
     <g id="line2d_48"/>
    </g>
    <g id="ytick_27">
     <g id="line2d_49"/>
    </g>
    <g id="ytick_28">
     <g id="line2d_50"/>
    </g>
    <g id="ytick_29">
     <g id="line2d_51"/>
    </g>
    <g id="ytick_30">
     <g id="line2d_52"/>
    </g>
    <g id="ytick_31">
     <g id="line2d_53"/>
    </g>
    <g id="ytick_32">
     <g id="line2d_54"/>
    </g>
    <g id="ytick_33">
     <g id="line2d_55"/>
    </g>
    <g id="ytick_34">
     <g id="line2d_56"/>
    </g>
    <g id="ytick_35">
     <g id="line2d_57"/>
    </g>
    <g id="ytick_36">
     <g id="line2d_58"/>
    </g>
    <g id="ytick_37">
     <g id="line2d_59"/>
    </g>
    <g id="ytick_38">
     <g id="line2d_60"/>
    </g>
    <g id="ytick_39">
     <g id="line2d_61"/>
    </g>
    <g id="ytick_40">
     <g id="line2d_62"/>
    </g>
    <g id="ytick_41">
     <g id="line2d_63"/>
    </g>
    <g id="ytick_42">
     <g id="line2d_64"/>
    </g>
    <g id="ytick_43">
     <g id="line2d_65"/>
    </g>
    <g id="ytick_44">
     <g id="line2d_66"/>
    </g>
    <g id="ytick_45">
     <g id="line2d_67"/>
    </g>
    <g id="ytick_46">
     <g id="line2d_68"/>
    </g>
    <g id="ytick_47">
     <g id="line2d_69"/>
    </g>
    <g id="ytick_48">
     <g id="line2d_70"/>
    </g>
    <g id="ytick_49">
     <g id="line2d_71"/>
    </g>
    <g id="ytick_50">
     <g id="line2d_72"/>
    </g>
    <g id="ytick_51">
     <g id="line2d_73"/>
    </g>
    <g id="ytick_52">
     <g id="line2d_74"/>
    </g>
    <g id="ytick_53">
     <g id="line2d_75"/>
    </g>
    <g id="ytick_54">
     <g id="line2d_76"/>
    </g>
    <g id="ytick_55">
     <g id="line2d_77"/>
    </g>
    <g id="ytick_56">
     <g id="line2d_78"/>
    </g>
    <g id="ytick_57">
     <g id="line2d_79"/>
    </g>
    <g id="ytick_58">
     <g id="line2d_80"/>
    </g>
    <g id="ytick_59">
     <g id="line2d_81"/>
    </g>
    <g id="ytick_60">
     <g id="line2d_82"/>
    </g>
    <g id="ytick_61">
     <g id="line2d_83"/>
    </g>
    <g id="ytick_62">
     <g id="line2d_84"/>
    </g>
    <g id="ytick_63">
     <g id="line2d_85"/>
    </g>
    <g id="ytick_64">
     <g id="line2d_86"/>
    </g>
    <g id="ytick_65">
     <g id="line2d_87"/>
    </g>
    <g id="ytick_66">
     <g id="line2d_88"/>
    </g>
    <g id="ytick_67">
     <g id="line2d_89"/>
    </g>
    <g id="ytick_68">
     <g id="line2d_90"/>
    </g>
   </g>
   <g id="line2d_91">
    <path clip-path="url(#p9dc194da50)" d="M 112.046023 539.890812 
L 112.046929 497.216366 
L 113.459968 497.216366 
L 114.873007 477.192674 
L 114.874338 539.890812 
M 120.524254 539.890812 
L 120.525161 497.216366 
L 123.351238 497.216366 
L 124.764277 465.479564 
L 124.765857 539.890812 
M 129.002486 539.890812 
L 129.003392 497.216366 
L 129.004299 539.890812 
M 136.067679 539.890812 
L 136.068585 497.216366 
L 136.069492 539.890812 
M 138.893756 539.890812 
L 138.894662 497.216366 
L 140.307701 497.216366 
L 140.308607 539.890812 
M 145.957538 539.890812 
L 145.959855 430.699099 
L 145.962172 539.890812 
M 150.197639 539.890812 
L 150.198971 477.192674 
L 151.61201 465.479564 
L 151.613589 539.890812 
M 155.848647 539.890812 
L 155.851125 423.119899 
L 157.264164 477.192674 
L 158.677202 418.98599 
L 158.679768 539.890812 
M 161.501387 539.890812 
L 161.50328 450.722792 
L 162.916318 450.722792 
L 164.329357 413.71907 
L 165.742395 417.121596 
L 167.155434 409.265953 
L 168.568472 393.695378 
L 169.981511 375.750862 
L 171.39455 369.564537 
L 172.807588 359.646296 
L 174.220627 359.156656 
L 175.633665 344.01406 
L 177.046704 335.488694 
L 178.459742 338.295569 
L 179.872781 323.775585 
L 181.28582 314.621494 
L 182.698858 309.061642 
L 184.111897 307.885802 
L 185.524935 300.484414 
L 186.937974 287.965171 
L 188.351012 271.849135 
L 189.764051 257.308292 
L 191.17709 247.799297 
L 192.590128 243.52077 
L 194.003167 235.689626 
L 195.416205 229.925539 
L 196.829244 229.92277 
L 198.242282 220.147802 
L 199.655321 215.821866 
L 201.06836 215.263072 
L 202.481398 209.623504 
L 203.894437 213.344553 
L 205.307475 209.076085 
L 206.720514 205.253962 
L 210.95963 197.260446 
L 212.372668 194.875784 
L 213.785707 203.974244 
L 215.198745 198.541647 
L 216.611784 199.087798 
L 218.024822 197.709058 
L 219.437861 195.206893 
L 220.8509 196.246047 
L 222.263938 197.799987 
L 223.676977 202.301565 
L 225.090015 203.802213 
L 226.503054 202.786676 
L 227.916093 199.378739 
L 229.329131 197.897599 
L 230.74217 197.992791 
L 232.155208 200.995837 
L 233.568247 204.294029 
L 234.981285 202.034601 
L 236.394324 204.089502 
L 237.807363 200.558689 
L 239.220401 195.985726 
L 240.63344 193.555002 
L 242.046478 195.450181 
L 243.459517 202.739093 
L 244.872555 206.839774 
L 246.285594 205.083537 
L 247.698633 202.934247 
L 249.111671 199.068759 
L 250.52471 195.820276 
L 251.937748 199.921495 
L 253.350787 203.389273 
L 254.763825 208.42022 
L 256.176864 206.209096 
L 257.589903 205.253962 
L 259.002941 200.914571 
L 260.41598 201.769036 
L 261.829018 204.830351 
L 263.242057 210.669322 
L 264.655095 214.78202 
L 266.068134 207.979012 
L 267.481173 209.515373 
L 268.894211 202.494847 
L 270.30725 203.282274 
L 271.720288 206.270083 
L 273.133327 212.584094 
L 274.546365 208.598342 
L 275.959404 209.74581 
L 277.372443 206.998366 
L 278.785481 203.842599 
L 280.19852 206.099644 
L 281.611558 208.020496 
L 283.024597 211.078865 
L 284.437635 212.453728 
L 287.263713 212.997247 
L 288.676751 207.705678 
L 290.08979 205.204494 
L 291.502828 206.591774 
L 292.915867 210.22207 
L 294.328906 208.505845 
L 295.741944 210.003098 
L 297.154983 211.142391 
L 298.568021 208.87896 
L 299.98106 200.68119 
L 301.394098 207.700546 
L 302.807137 213.195196 
L 304.220176 213.836953 
L 305.633214 212.903387 
L 307.046253 207.272642 
L 308.459291 206.833548 
L 309.87233 204.113289 
L 311.285368 204.294029 
L 312.698407 212.40839 
L 314.111446 210.955104 
L 315.524484 204.81061 
L 316.937523 203.930295 
L 319.7636 198.616496 
L 321.176638 197.523544 
L 322.589677 203.126347 
L 325.415754 194.907901 
L 326.828793 193.360664 
L 329.65487 187.360408 
L 332.480947 191.457442 
L 333.893986 191.466217 
L 335.307024 185.599824 
L 336.720063 184.668173 
L 338.133101 181.608271 
L 339.54614 180.790627 
L 340.959178 184.650259 
L 342.372217 187.847353 
L 343.785256 186.247611 
L 345.198294 182.385567 
L 346.611333 179.650405 
L 348.024371 179.440298 
L 349.43741 175.674808 
L 350.850448 179.041736 
L 352.263487 180.463444 
L 355.089564 176.808209 
L 356.502603 175.626157 
L 357.915641 172.677206 
L 359.32868 174.555268 
L 360.741719 178.230194 
L 362.154757 178.311721 
L 363.567796 179.44078 
L 364.980834 176.951679 
L 366.393873 175.041601 
L 367.806911 174.931212 
L 369.21995 173.51441 
L 370.632989 176.295805 
L 372.046027 182.314614 
L 373.459066 179.783844 
L 374.872104 177.924209 
L 376.285143 176.293209 
L 377.698181 175.37113 
L 379.11122 175.312532 
L 380.524259 180.955873 
L 381.937297 184.198587 
L 383.350336 186.145223 
L 384.763374 182.672751 
L 386.176413 182.579035 
L 387.589451 180.609238 
L 389.00249 178.83505 
L 390.415529 181.774615 
L 391.828567 185.545549 
L 393.241606 186.33505 
L 394.654644 182.776515 
L 396.067683 182.28213 
L 397.480721 182.397854 
L 398.89376 179.639717 
L 400.306799 184.227607 
L 401.719837 189.596384 
L 403.132876 192.946596 
L 404.545914 188.854599 
L 405.958953 189.001977 
L 408.78503 185.220251 
L 410.198069 187.680703 
L 411.611107 197.247041 
L 413.024146 190.809609 
L 414.437184 191.696063 
L 415.850223 187.493327 
L 417.263261 187.308425 
L 418.6763 186.710421 
L 420.089339 187.948843 
L 421.502377 196.283181 
L 422.915416 193.75699 
L 424.328454 188.314434 
L 425.741493 197.148037 
L 427.154531 186.816081 
L 428.56757 183.462996 
L 429.980609 189.516283 
L 431.393647 199.411461 
L 432.806686 204.486235 
L 437.045802 192.536103 
L 438.45884 186.094165 
L 439.871879 191.754365 
L 441.284917 196.358459 
L 442.697956 193.440435 
L 444.110994 191.671007 
L 445.524033 191.633464 
L 446.937072 187.499064 
L 448.35011 185.304039 
L 449.763149 189.82075 
L 451.176187 193.85931 
L 452.589226 181.926671 
L 454.002264 193.048399 
L 455.415303 190.000951 
L 456.828342 187.568004 
L 458.24138 182.121315 
L 459.654419 189.21499 
L 461.067457 193.12034 
L 462.480496 193.07236 
L 463.893534 188.546208 
L 465.306573 189.650595 
L 466.719612 186.801141 
L 468.13265 182.656032 
L 469.545689 185.966307 
L 470.958727 194.905429 
L 472.371766 178.24824 
L 473.784804 189.103569 
L 475.197843 182.961184 
L 476.610882 181.182976 
L 478.02392 179.890943 
L 480.849997 187.837031 
L 482.263036 185.823367 
L 483.676074 182.220458 
L 486.502152 176.918065 
L 487.91519 174.743243 
L 489.328229 183.101012 
L 490.741267 185.904099 
L 492.154306 176.879634 
L 493.567344 179.10222 
L 494.980383 177.415633 
L 496.393422 172.891356 
L 497.80646 169.224131 
L 499.219499 171.593224 
L 500.632537 179.524351 
L 502.045576 173.083097 
L 503.458615 173.177699 
L 507.69773 164.668191 
L 509.110769 169.594638 
L 510.523807 173.252358 
L 511.936846 166.4135 
L 513.349885 166.908438 
L 514.762923 162.385386 
L 516.175962 159.043984 
L 517.589 156.430231 
L 519.002039 157.969253 
L 520.415077 163.659697 
L 521.828116 156.953001 
L 523.241155 154.961628 
L 524.654193 154.320746 
L 526.067232 150.40269 
L 527.48027 147.410745 
L 528.893309 151.227652 
L 530.306347 155.920599 
L 531.719386 149.891755 
L 533.132425 150.758113 
L 534.545463 148.915833 
L 535.958502 146.468424 
L 537.37154 144.768423 
L 538.784579 148.972564 
L 540.197617 154.737595 
L 541.610656 147.692886 
L 543.023695 147.988526 
L 544.436733 147.542356 
L 545.849772 163.806162 
L 547.26281 143.768435 
L 548.675849 152.697058 
L 550.088887 155.66848 
L 551.501926 149.670773 
L 554.328003 144.431951 
L 555.741042 142.148255 
L 557.15408 140.395202 
L 558.567119 143.798336 
L 559.980157 148.945191 
L 561.393196 143.992961 
L 562.806235 141.868642 
L 564.219273 141.887699 
L 565.632312 141.175454 
L 567.04535 134.827864 
L 568.458389 143.552742 
L 569.871428 146.979929 
L 571.284466 144.444444 
L 572.697505 144.180364 
L 574.110543 138.738817 
L 575.523582 139.529381 
L 576.93662 138.019176 
L 578.349659 145.498313 
L 579.762698 147.658672 
L 581.175736 144.374293 
L 582.588775 144.367559 
L 584.001813 140.848059 
L 585.414852 145.553634 
L 586.82789 164.350311 
L 588.240929 142.268828 
L 589.653968 152.516625 
L 591.067006 146.230463 
L 592.480045 144.449041 
L 593.893083 140.691859 
L 595.306122 140.439182 
L 596.71916 153.449492 
L 598.132199 133.735243 
L 599.545238 144.323614 
L 600.958276 137.934323 
L 602.371315 139.944294 
L 606.61043 132.833687 
L 608.023469 137.915182 
L 609.436508 143.426702 
L 610.849546 141.469001 
L 612.262585 140.60722 
L 613.675623 140.654673 
L 615.088662 139.508549 
L 616.5017 139.227096 
L 620.740816 154.368904 
L 622.153855 146.847572 
L 623.566893 146.560852 
L 624.979932 146.067739 
L 626.39297 145.824454 
L 627.806009 149.652879 
L 629.219048 157.157248 
L 630.632086 151.838593 
L 632.045125 152.607177 
L 633.458163 151.85084 
L 634.871202 150.119859 
L 636.28424 150.047576 
L 637.697279 156.195857 
L 639.110318 160.969059 
L 640.523356 154.940757 
L 641.936395 159.872395 
L 643.349433 159.353726 
L 644.762472 157.991054 
L 646.175511 157.145652 
L 647.588549 163.213702 
L 649.001588 168.54401 
L 650.414626 166.79488 
L 651.827665 165.665222 
L 653.240703 166.137048 
L 654.653742 163.056248 
L 656.066781 164.758001 
L 657.479819 169.417824 
L 658.892858 177.590197 
L 660.305896 181.705667 
L 661.718935 177.353191 
L 663.131973 174.861146 
L 664.545012 174.170484 
L 665.958051 171.794646 
L 667.371089 175.048229 
L 668.784128 181.798157 
L 670.197166 179.647004 
L 671.610205 174.199437 
L 673.023243 173.277677 
L 674.436282 171.880287 
L 675.849321 171.710734 
L 678.675398 184.124179 
L 678.675398 184.124179 
" style="fill:none;stroke:#008fd5;stroke-width:4;"/>
   </g>
   <g id="line2d_92">
    <path clip-path="url(#p9dc194da50)" d="M 164.328025 539.890812 
L 164.329357 477.192674 
L 164.330688 539.890812 
M 167.154527 539.890812 
L 167.155434 497.216366 
L 167.15634 539.890812 
M 169.980604 539.890812 
L 169.981511 497.216366 
L 171.39455 465.479564 
L 172.807588 450.722792 
L 174.220627 497.216366 
L 175.633665 497.216366 
L 177.046704 433.742763 
L 178.459742 465.479564 
L 179.872781 410.675407 
L 181.28582 405.408487 
L 181.288672 539.890812 
M 184.108747 539.890812 
L 184.111897 391.383097 
L 185.524935 397.097904 
L 186.937974 374.901151 
L 188.351012 359.894264 
L 189.764051 361.958576 
L 191.17709 356.602633 
L 192.590128 344.15814 
L 194.003167 339.376746 
L 195.416205 341.14338 
L 196.829244 338.295569 
L 198.242282 317.458074 
L 199.655321 317.286631 
L 201.06836 307.154419 
L 202.481398 302.701301 
L 203.894437 300.548184 
L 205.307475 305.898217 
L 206.720514 296.337768 
L 208.133552 296.894932 
L 209.546591 291.660847 
L 210.95963 290.988192 
L 212.372668 290.601038 
L 213.785707 303.930767 
L 215.198745 290.55583 
L 216.611784 294.44235 
L 218.024822 299.115939 
L 219.437861 294.159509 
L 220.8509 293.854082 
L 222.263938 297.149205 
L 223.676977 301.456078 
L 225.090015 293.476783 
L 226.503054 311.991235 
L 227.916093 300.516281 
L 229.329131 303.894903 
L 230.74217 287.67752 
L 232.155208 306.401979 
L 233.568247 303.32706 
L 234.981285 306.207184 
L 236.394324 303.71625 
L 237.807363 321.38112 
L 239.220401 289.231469 
L 240.63344 301.193755 
L 242.046478 331.872971 
L 243.459517 308.425781 
L 244.872555 311.943839 
L 246.285594 307.639944 
L 247.698633 328.240593 
L 249.111671 317.804043 
L 250.52471 296.615007 
L 251.937748 306.558767 
L 253.350787 311.708017 
L 254.763825 303.432684 
L 256.176864 315.358207 
L 257.589903 314.260066 
L 259.002941 303.186827 
L 260.41598 326.308637 
L 261.829018 304.038625 
L 263.242057 312.663081 
L 264.655095 325.163649 
L 266.068134 299.421312 
L 267.481173 318.927774 
L 268.894211 303.82331 
L 270.30725 299.823186 
L 271.720288 309.104534 
L 273.133327 304.953461 
L 274.546365 302.223801 
L 275.959404 317.572937 
L 277.372443 316.168964 
L 278.785481 292.301513 
L 280.19852 304.990664 
L 281.611558 308.976047 
L 283.024597 306.362915 
L 284.437635 301.390273 
L 285.850674 317.172898 
L 287.263713 325.692334 
L 288.676751 310.064649 
L 290.08979 292.1102 
L 291.502828 299.854332 
L 292.915867 306.401979 
L 294.328906 309.363235 
L 295.741944 311.614224 
L 297.154983 289.710047 
L 298.568021 287.555113 
L 299.98106 289.974471 
L 301.394098 290.759827 
L 302.807137 292.883172 
L 304.220176 298.663847 
L 305.633214 295.016477 
L 308.459291 282.36974 
L 309.87233 279.092246 
L 311.285368 270.273554 
L 312.698407 277.410689 
L 314.111446 281.366581 
L 315.524484 268.096763 
L 316.937523 269.950779 
L 318.350561 264.000247 
L 319.7636 258.932182 
L 321.176638 257.265452 
L 322.589677 261.524212 
L 324.002716 266.649273 
L 325.415754 263.297253 
L 326.828793 248.359945 
L 328.241831 251.147891 
L 329.65487 234.377733 
L 331.067908 232.371742 
L 332.480947 235.740381 
L 333.893986 249.673632 
L 335.307024 245.459742 
L 336.720063 243.313148 
L 338.133101 230.834123 
L 339.54614 232.665578 
L 340.959178 227.215543 
L 342.372217 230.977361 
L 343.785256 244.330013 
L 345.198294 240.053294 
L 346.611333 231.179094 
L 348.024371 234.400356 
L 349.43741 227.278642 
L 350.850448 230.125611 
L 352.263487 218.862131 
L 353.676526 224.415953 
L 355.089564 233.574881 
L 356.502603 230.629101 
L 357.915641 221.499573 
L 359.32868 227.19538 
L 360.741719 230.214978 
L 362.154757 224.751998 
L 363.567796 230.161883 
L 364.980834 232.812094 
L 366.393873 231.775168 
L 367.806911 230.436796 
L 369.21995 224.83082 
L 370.632989 225.405248 
L 372.046027 233.107375 
L 373.459066 234.539717 
L 374.872104 233.461987 
L 376.285143 232.793739 
L 377.698181 231.274688 
L 379.11122 234.168503 
L 380.524259 232.200459 
L 381.937297 241.024917 
L 383.350336 252.640596 
L 384.763374 248.702694 
L 386.176413 248.899629 
L 387.589451 238.885823 
L 389.00249 238.750198 
L 390.415529 235.835363 
L 391.828567 244.82203 
L 393.241606 256.518912 
L 396.067683 237.202546 
L 397.480721 244.789585 
L 398.89376 245.200146 
L 400.306799 244.257155 
L 401.719837 259.259034 
L 403.132876 269.207776 
L 404.545914 258.8115 
L 405.958953 256.798364 
L 407.371991 253.863719 
L 408.78503 253.056964 
L 410.198069 255.454171 
L 411.611107 266.179219 
L 413.024146 274.135817 
L 414.437184 269.261763 
L 415.850223 263.883382 
L 417.263261 263.447092 
L 418.6763 258.985139 
L 420.089339 264.090466 
L 421.502377 270.251177 
L 422.915416 279.351608 
L 424.328454 239.193328 
L 425.741493 272.34989 
L 427.154531 260.894496 
L 428.56757 264.081431 
L 429.980609 260.214934 
L 432.806686 280.081026 
L 434.219724 280.31775 
L 435.632763 276.843125 
L 437.045802 270.251177 
L 438.45884 260.262382 
L 439.871879 264.153787 
L 441.284917 272.098428 
L 442.697956 281.730374 
L 444.110994 264.831813 
L 445.524033 272.920748 
L 446.937072 263.571075 
L 448.35011 264.027283 
L 449.763149 260.878322 
L 451.176187 270.953038 
L 452.589226 282.59176 
L 454.002264 271.543438 
L 455.415303 270.172996 
L 456.828342 270.724763 
L 458.24138 267.439954 
L 459.654419 267.972468 
L 461.067457 279.39762 
L 462.480496 306.441096 
L 463.893534 263.473615 
L 465.306573 278.401901 
L 466.719612 269.752234 
L 468.13265 269.402601 
L 469.545689 268.055272 
L 470.958727 279.613319 
L 472.371766 287.63666 
L 473.784804 274.225512 
L 475.197843 270.262363 
L 476.610882 263.12196 
L 478.02392 266.827534 
L 478.029701 539.890812 
M 480.843821 539.890812 
L 480.849997 248.052317 
L 482.263036 285.322809 
L 483.676074 268.705176 
L 485.089113 267.076958 
L 486.502152 262.688327 
L 487.91519 261.898685 
L 489.328229 257.301147 
L 490.741267 270.74751 
L 492.154306 282.217027 
L 493.567344 260.167563 
L 494.980383 275.632399 
L 496.393422 248.114621 
L 497.80646 259.955352 
L 499.219499 254.401426 
L 500.632537 272.555071 
L 502.045576 262.508125 
L 503.458615 255.541416 
L 504.871653 256.798364 
L 506.284692 256.221487 
L 507.69773 247.938442 
L 509.110769 273.216659 
L 510.523807 251.961694 
L 511.936846 253.261208 
L 513.349885 253.348296 
L 514.762923 254.713241 
L 516.175962 244.692466 
L 519.002039 254.52445 
L 520.415077 242.203509 
L 521.828116 258.171336 
L 523.241155 255.17409 
L 524.654193 246.694774 
L 526.067232 247.861056 
L 527.48027 241.728787 
L 528.893309 253.933566 
L 530.306347 230.845556 
L 531.719386 253.186771 
L 533.132425 239.616238 
L 534.545463 237.865592 
L 535.958502 233.919411 
L 537.37154 233.919411 
L 538.784579 236.1531 
L 540.197617 243.207701 
L 541.610656 244.352819 
L 543.023695 235.655839 
L 544.436733 236.26669 
L 544.443158 539.890812 
M 547.255943 539.890812 
L 547.26281 215.239744 
L 548.675849 244.600275 
L 550.088887 239.990451 
L 551.501926 242.893649 
L 552.914965 234.686283 
L 554.328003 231.164638 
L 555.741042 228.737409 
L 557.15408 230.640453 
L 558.567119 229.928308 
L 559.980157 236.060493 
L 561.393196 238.656387 
L 562.806235 237.647705 
L 564.219273 232.350652 
L 565.632312 227.527329 
L 567.04535 226.614232 
L 568.458389 229.526773 
L 569.871428 234.32609 
L 571.284466 236.005755 
L 572.697505 232.900976 
L 574.110543 227.007036 
L 575.523582 223.241078 
L 576.93662 223.568099 
L 578.349659 226.65624 
L 579.762698 236.180596 
L 581.175736 228.354605 
L 582.588775 229.920001 
L 584.001813 227.402718 
L 585.414852 223.243275 
L 585.421551 539.890812 
M 588.234072 539.890812 
L 588.240929 215.747185 
L 589.653968 239.880804 
L 591.067006 236.887213 
L 592.480045 225.700391 
L 593.893083 221.694679 
L 595.306122 215.494031 
L 595.312984 539.890812 
M 598.124968 539.890812 
L 598.132199 197.984541 
L 599.545238 229.455848 
L 600.958276 227.729371 
L 602.371315 218.615841 
L 603.784353 214.517649 
L 605.197392 211.390608 
L 606.61043 211.810581 
L 609.436508 225.136541 
L 610.849546 226.919561 
L 612.262585 219.635179 
L 613.675623 221.447904 
L 615.088662 222.01088 
L 616.5017 216.031665 
L 617.914739 225.595317 
L 619.327778 228.150763 
L 620.740816 237.586268 
L 623.566893 226.088156 
L 624.979932 223.851701 
L 626.39297 222.012985 
L 627.806009 225.141234 
L 629.219048 232.52283 
L 630.632086 235.103981 
L 632.045125 232.34463 
L 633.458163 236.156535 
L 634.871202 227.30392 
L 636.28424 228.457069 
L 637.697279 219.397622 
L 639.110318 238.369349 
L 640.523356 247.234193 
L 641.936395 229.647197 
L 643.349433 241.537749 
L 644.762472 238.656387 
L 646.175511 227.00203 
L 647.588549 239.511858 
L 649.001588 243.045887 
L 650.414626 247.198924 
L 651.827665 241.356192 
L 653.240703 239.315719 
L 654.653742 235.75732 
L 656.066781 239.010708 
L 657.479819 239.400165 
L 658.892858 248.755787 
L 660.305896 260.540728 
L 661.718935 244.508377 
L 663.131973 240.07296 
L 664.545012 250.502799 
L 665.958051 242.78972 
L 667.371089 240.317944 
L 668.784128 250.797867 
L 670.197166 256.546736 
L 671.610205 247.845604 
L 673.023243 240.927487 
L 674.436282 242.976193 
L 675.849321 246.28208 
L 677.262359 248.633818 
L 678.675398 248.213544 
L 678.675398 248.213544 
" style="fill:none;stroke:#fc4f30;stroke-width:4;"/>
   </g>
   <g id="patch_3">
    <path d="M 80.748125 515.4355 
L 80.748125 31.5955 
" style="fill:none;stroke:#f0f0f0;stroke-linecap:square;stroke-linejoin:miter;stroke-width:3;"/>
   </g>
   <g id="patch_4">
    <path d="M 80.748125 515.4355 
L 707.148125 515.4355 
" style="fill:none;stroke:#f0f0f0;stroke-linecap:square;stroke-linejoin:miter;stroke-width:3;"/>
   </g>
   <g id="text_16">
    <!-- New Cases of COVID-19 -->
    <g style="fill:#555555;" transform="translate(282.321575 21.5955)scale(0.2016 -0.2016)">
     <defs>
      <path d="M 7.703125 71.40625 
L 7.703125 0 
L 16.703125 0 
L 16.703125 57.296875 
L 16.90625 57.296875 
L 54.203125 0 
L 64.59375 0 
L 64.59375 71.40625 
L 55.59375 71.40625 
L 55.59375 13.5 
L 55.40625 13.5 
L 17.796875 71.40625 
z
" id="HelveticaNeue-78"/>
      <path d="M 42.296875 30.796875 
L 12.59375 30.796875 
Q 12.796875 33.796875 13.890625 36.4375 
Q 15 39.09375 16.890625 41.09375 
Q 18.796875 43.09375 21.4375 44.25 
Q 24.09375 45.40625 27.40625 45.40625 
Q 30.59375 45.40625 33.25 44.25 
Q 35.90625 43.09375 37.84375 41.140625 
Q 39.796875 39.203125 40.9375 36.5 
Q 42.09375 33.796875 42.296875 30.796875 
z
M 50.5 16.40625 
L 42.09375 16.40625 
Q 41 11.296875 37.546875 8.796875 
Q 34.09375 6.296875 28.703125 6.296875 
Q 24.5 6.296875 21.390625 7.6875 
Q 18.296875 9.09375 16.296875 11.4375 
Q 14.296875 13.796875 13.390625 16.84375 
Q 12.5 19.90625 12.59375 23.296875 
L 51.296875 23.296875 
Q 51.5 28 50.453125 33.203125 
Q 49.40625 38.40625 46.65625 42.796875 
Q 43.90625 47.203125 39.34375 50.046875 
Q 34.796875 52.90625 27.90625 52.90625 
Q 22.59375 52.90625 18.140625 50.90625 
Q 13.703125 48.90625 10.453125 45.296875 
Q 7.203125 41.703125 5.390625 36.796875 
Q 3.59375 31.90625 3.59375 26 
Q 3.796875 20.09375 5.34375 15.09375 
Q 6.90625 10.09375 10 6.5 
Q 13.09375 2.90625 17.640625 0.90625 
Q 22.203125 -1.09375 28.40625 -1.09375 
Q 37.203125 -1.09375 43 3.296875 
Q 48.796875 7.703125 50.5 16.40625 
z
" id="HelveticaNeue-101"/>
      <path d="M 57.59375 0 
L 74.09375 51.703125 
L 65.296875 51.703125 
L 53.703125 9.40625 
L 53.5 9.40625 
L 42.703125 51.703125 
L 33.40625 51.703125 
L 23 9.40625 
L 22.796875 9.40625 
L 11.09375 51.703125 
L 1.703125 51.703125 
L 18.296875 0 
L 27.5 0 
L 37.90625 41.09375 
L 38.09375 41.09375 
L 48.59375 0 
z
" id="HelveticaNeue-119"/>
      <path id="HelveticaNeue-32"/>
      <path d="M 58 49.90625 
L 67.5 49.90625 
Q 66.703125 55.59375 64.09375 59.9375 
Q 61.5 64.296875 57.59375 67.1875 
Q 53.703125 70.09375 48.703125 71.59375 
Q 43.703125 73.09375 38.09375 73.09375 
Q 29.90625 73.09375 23.546875 70.140625 
Q 17.203125 67.203125 12.953125 62.09375 
Q 8.703125 57 6.5 50.140625 
Q 4.296875 43.296875 4.296875 35.5 
Q 4.296875 27.703125 6.34375 20.890625 
Q 8.40625 14.09375 12.5 9.09375 
Q 16.59375 4.09375 22.796875 1.25 
Q 29 -1.59375 37.296875 -1.59375 
Q 51 -1.59375 58.890625 5.90625 
Q 66.796875 13.40625 68.203125 26.90625 
L 58.703125 26.90625 
Q 58.40625 22.5 56.90625 18.703125 
Q 55.40625 14.90625 52.75 12.15625 
Q 50.09375 9.40625 46.4375 7.84375 
Q 42.796875 6.296875 38.09375 6.296875 
Q 31.703125 6.296875 27.09375 8.6875 
Q 22.5 11.09375 19.546875 15.140625 
Q 16.59375 19.203125 15.1875 24.640625 
Q 13.796875 30.09375 13.796875 36.203125 
Q 13.796875 41.796875 15.1875 47 
Q 16.59375 52.203125 19.546875 56.25 
Q 22.5 60.296875 27.046875 62.6875 
Q 31.59375 65.09375 38 65.09375 
Q 45.5 65.09375 50.953125 61.296875 
Q 56.40625 57.5 58 49.90625 
z
" id="HelveticaNeue-67"/>
      <path d="M 52.203125 0.203125 
Q 50 -1.09375 46.09375 -1.09375 
Q 42.796875 -1.09375 40.84375 0.75 
Q 38.90625 2.59375 38.90625 6.796875 
Q 35.40625 2.59375 30.75 0.75 
Q 26.09375 -1.09375 20.703125 -1.09375 
Q 17.203125 -1.09375 14.046875 -0.296875 
Q 10.90625 0.5 8.59375 2.203125 
Q 6.296875 3.90625 4.9375 6.65625 
Q 3.59375 9.40625 3.59375 13.296875 
Q 3.59375 17.703125 5.09375 20.5 
Q 6.59375 23.296875 9.046875 25.046875 
Q 11.5 26.796875 14.640625 27.6875 
Q 17.796875 28.59375 21.09375 29.203125 
Q 24.59375 29.90625 27.75 30.25 
Q 30.90625 30.59375 33.296875 31.25 
Q 35.703125 31.90625 37.09375 33.15625 
Q 38.5 34.40625 38.5 36.796875 
Q 38.5 39.59375 37.453125 41.296875 
Q 36.40625 43 34.75 43.890625 
Q 33.09375 44.796875 31.046875 45.09375 
Q 29 45.40625 27 45.40625 
Q 21.59375 45.40625 18 43.34375 
Q 14.40625 41.296875 14.09375 35.59375 
L 5.59375 35.59375 
Q 5.796875 40.40625 7.59375 43.703125 
Q 9.40625 47 12.40625 49.046875 
Q 15.40625 51.09375 19.25 52 
Q 23.09375 52.90625 27.5 52.90625 
Q 31 52.90625 34.453125 52.40625 
Q 37.90625 51.90625 40.703125 50.34375 
Q 43.5 48.796875 45.203125 46 
Q 46.90625 43.203125 46.90625 38.703125 
L 46.90625 12.09375 
Q 46.90625 9.09375 47.25 7.6875 
Q 47.59375 6.296875 49.59375 6.296875 
Q 50.703125 6.296875 52.203125 6.796875 
z
M 38.40625 26.703125 
Q 36.796875 25.5 34.1875 24.953125 
Q 31.59375 24.40625 28.75 24.046875 
Q 25.90625 23.703125 23 23.25 
Q 20.09375 22.796875 17.796875 21.796875 
Q 15.5 20.796875 14.046875 18.9375 
Q 12.59375 17.09375 12.59375 13.90625 
Q 12.59375 11.796875 13.4375 10.34375 
Q 14.296875 8.90625 15.640625 8 
Q 17 7.09375 18.796875 6.6875 
Q 20.59375 6.296875 22.59375 6.296875 
Q 26.796875 6.296875 29.796875 7.4375 
Q 32.796875 8.59375 34.6875 10.34375 
Q 36.59375 12.09375 37.5 14.140625 
Q 38.40625 16.203125 38.40625 18 
z
" id="HelveticaNeue-97"/>
      <path d="M 11.59375 16.296875 
L 3.09375 16.296875 
Q 3.296875 11.5 5.09375 8.140625 
Q 6.90625 4.796875 9.90625 2.75 
Q 12.90625 0.703125 16.796875 -0.1875 
Q 20.703125 -1.09375 25 -1.09375 
Q 28.90625 -1.09375 32.84375 -0.34375 
Q 36.796875 0.40625 39.9375 2.296875 
Q 43.09375 4.203125 45.046875 7.296875 
Q 47 10.40625 47 15.09375 
Q 47 18.796875 45.546875 21.296875 
Q 44.09375 23.796875 41.75 25.4375 
Q 39.40625 27.09375 36.34375 28.09375 
Q 33.296875 29.09375 30.09375 29.796875 
Q 27.09375 30.5 24.09375 31.140625 
Q 21.09375 31.796875 18.6875 32.75 
Q 16.296875 33.703125 14.75 35.140625 
Q 13.203125 36.59375 13.203125 38.796875 
Q 13.203125 40.796875 14.203125 42.046875 
Q 15.203125 43.296875 16.796875 44.046875 
Q 18.40625 44.796875 20.34375 45.09375 
Q 22.296875 45.40625 24.203125 45.40625 
Q 26.296875 45.40625 28.34375 44.953125 
Q 30.40625 44.5 32.09375 43.5 
Q 33.796875 42.5 34.890625 40.84375 
Q 36 39.203125 36.203125 36.703125 
L 44.703125 36.703125 
Q 44.40625 41.40625 42.703125 44.546875 
Q 41 47.703125 38.140625 49.546875 
Q 35.296875 51.40625 31.59375 52.15625 
Q 27.90625 52.90625 23.5 52.90625 
Q 20.09375 52.90625 16.640625 52.046875 
Q 13.203125 51.203125 10.453125 49.453125 
Q 7.703125 47.703125 5.953125 44.890625 
Q 4.203125 42.09375 4.203125 38.203125 
Q 4.203125 33.203125 6.703125 30.390625 
Q 9.203125 27.59375 12.953125 26.046875 
Q 16.703125 24.5 21.09375 23.640625 
Q 25.5 22.796875 29.25 21.75 
Q 33 20.703125 35.5 19 
Q 38 17.296875 38 14 
Q 38 11.59375 36.796875 10.046875 
Q 35.59375 8.5 33.75 7.703125 
Q 31.90625 6.90625 29.703125 6.59375 
Q 27.5 6.296875 25.5 6.296875 
Q 22.90625 6.296875 20.453125 6.796875 
Q 18 7.296875 16.046875 8.4375 
Q 14.09375 9.59375 12.890625 11.546875 
Q 11.703125 13.5 11.59375 16.296875 
z
" id="HelveticaNeue-115"/>
      <path d="M 12.59375 25.796875 
Q 12.59375 30.5 13.84375 34.140625 
Q 15.09375 37.796875 17.296875 40.296875 
Q 19.5 42.796875 22.453125 44.09375 
Q 25.40625 45.40625 28.703125 45.40625 
Q 32 45.40625 34.953125 44.09375 
Q 37.90625 42.796875 40.09375 40.296875 
Q 42.296875 37.796875 43.546875 34.140625 
Q 44.796875 30.5 44.796875 25.796875 
Q 44.796875 21.09375 43.546875 17.4375 
Q 42.296875 13.796875 40.09375 11.34375 
Q 37.90625 8.90625 34.953125 7.59375 
Q 32 6.296875 28.703125 6.296875 
Q 25.40625 6.296875 22.453125 7.59375 
Q 19.5 8.90625 17.296875 11.34375 
Q 15.09375 13.796875 13.84375 17.4375 
Q 12.59375 21.09375 12.59375 25.796875 
z
M 3.59375 25.796875 
Q 3.59375 20.09375 5.1875 15.1875 
Q 6.796875 10.296875 10 6.640625 
Q 13.203125 3 17.890625 0.953125 
Q 22.59375 -1.09375 28.703125 -1.09375 
Q 34.90625 -1.09375 39.546875 0.953125 
Q 44.203125 3 47.390625 6.640625 
Q 50.59375 10.296875 52.1875 15.1875 
Q 53.796875 20.09375 53.796875 25.796875 
Q 53.796875 31.5 52.1875 36.453125 
Q 50.59375 41.40625 47.390625 45.046875 
Q 44.203125 48.703125 39.546875 50.796875 
Q 34.90625 52.90625 28.703125 52.90625 
Q 22.59375 52.90625 17.890625 50.796875 
Q 13.203125 48.703125 10 45.046875 
Q 6.796875 41.40625 5.1875 36.453125 
Q 3.59375 31.5 3.59375 25.796875 
z
" id="HelveticaNeue-111"/>
      <path d="M 9.90625 44.203125 
L 9.90625 0 
L 18.40625 0 
L 18.40625 44.203125 
L 28.40625 44.203125 
L 28.40625 51.703125 
L 18.40625 51.703125 
L 18.40625 58.90625 
Q 18.40625 62.296875 20.09375 63.5 
Q 21.796875 64.703125 24.90625 64.703125 
Q 26 64.703125 27.296875 64.546875 
Q 28.59375 64.40625 29.703125 64 
L 29.703125 71.40625 
Q 28.5 71.796875 26.953125 72 
Q 25.40625 72.203125 24.203125 72.203125 
Q 17.203125 72.203125 13.546875 68.953125 
Q 9.90625 65.703125 9.90625 59.40625 
L 9.90625 51.703125 
L 1.203125 51.703125 
L 1.203125 44.203125 
z
" id="HelveticaNeue-102"/>
      <path d="M 13.296875 35.703125 
Q 13.296875 41.09375 14.6875 46.34375 
Q 16.09375 51.59375 19.09375 55.796875 
Q 22.09375 60 26.796875 62.546875 
Q 31.5 65.09375 38 65.09375 
Q 44.5 65.09375 49.203125 62.546875 
Q 53.90625 60 56.90625 55.796875 
Q 59.90625 51.59375 61.296875 46.34375 
Q 62.703125 41.09375 62.703125 35.703125 
Q 62.703125 30.296875 61.296875 25.046875 
Q 59.90625 19.796875 56.90625 15.59375 
Q 53.90625 11.40625 49.203125 8.84375 
Q 44.5 6.296875 38 6.296875 
Q 31.5 6.296875 26.796875 8.84375 
Q 22.09375 11.40625 19.09375 15.59375 
Q 16.09375 19.796875 14.6875 25.046875 
Q 13.296875 30.296875 13.296875 35.703125 
z
M 3.796875 35.703125 
Q 3.796875 28.40625 5.9375 21.65625 
Q 8.09375 14.90625 12.390625 9.703125 
Q 16.703125 4.5 23.09375 1.453125 
Q 29.5 -1.59375 38 -1.59375 
Q 46.5 -1.59375 52.890625 1.453125 
Q 59.296875 4.5 63.59375 9.703125 
Q 67.90625 14.90625 70.046875 21.65625 
Q 72.203125 28.40625 72.203125 35.703125 
Q 72.203125 43 70.046875 49.75 
Q 67.90625 56.5 63.59375 61.703125 
Q 59.296875 66.90625 52.890625 70 
Q 46.5 73.09375 38 73.09375 
Q 29.5 73.09375 23.09375 70 
Q 16.703125 66.90625 12.390625 61.703125 
Q 8.09375 56.5 5.9375 49.75 
Q 3.796875 43 3.796875 35.703125 
z
" id="HelveticaNeue-79"/>
      <path d="M 35.90625 0 
L 61.296875 71.40625 
L 51.40625 71.40625 
L 30.796875 9.5 
L 30.59375 9.5 
L 10.203125 71.40625 
L 0 71.40625 
L 25.09375 0 
z
" id="HelveticaNeue-86"/>
      <path d="M 8.203125 71.40625 
L 8.203125 0 
L 17.703125 0 
L 17.703125 71.40625 
z
" id="HelveticaNeue-73"/>
      <path d="M 17.296875 8 
L 17.296875 63.40625 
L 33.296875 63.40625 
Q 39.90625 63.40625 44.40625 61.546875 
Q 48.90625 59.703125 51.75 56.140625 
Q 54.59375 52.59375 55.84375 47.546875 
Q 57.09375 42.5 57.09375 36.09375 
Q 57.09375 29.5 55.75 24.84375 
Q 54.40625 20.203125 52.296875 17.09375 
Q 50.203125 14 47.546875 12.203125 
Q 44.90625 10.40625 42.203125 9.453125 
Q 39.5 8.5 37.09375 8.25 
Q 34.703125 8 33.09375 8 
z
M 7.796875 71.40625 
L 7.796875 0 
L 32.296875 0 
Q 41.203125 0 47.703125 2.5 
Q 54.203125 5 58.390625 9.75 
Q 62.59375 14.5 64.59375 21.453125 
Q 66.59375 28.40625 66.59375 37.40625 
Q 66.59375 54.59375 57.6875 63 
Q 48.796875 71.40625 32.296875 71.40625 
z
" id="HelveticaNeue-68"/>
     </defs>
     <use xlink:href="#HelveticaNeue-78"/>
     <use x="72.199982" xlink:href="#HelveticaNeue-101"/>
     <use x="125.899979" xlink:href="#HelveticaNeue-119"/>
     <use x="201.699966" xlink:href="#HelveticaNeue-32"/>
     <use x="229.499954" xlink:href="#HelveticaNeue-67"/>
     <use x="301.699936" xlink:href="#HelveticaNeue-97"/>
     <use x="355.399933" xlink:href="#HelveticaNeue-115"/>
     <use x="405.399918" xlink:href="#HelveticaNeue-101"/>
     <use x="459.099915" xlink:href="#HelveticaNeue-115"/>
     <use x="509.099899" xlink:href="#HelveticaNeue-32"/>
     <use x="536.899887" xlink:href="#HelveticaNeue-111"/>
     <use x="594.299881" xlink:href="#HelveticaNeue-102"/>
     <use x="623.899872" xlink:href="#HelveticaNeue-32"/>
     <use x="651.69986" xlink:href="#HelveticaNeue-67"/>
     <use x="723.899841" xlink:href="#HelveticaNeue-79"/>
     <use x="799.899826" xlink:href="#HelveticaNeue-86"/>
     <use x="860.999817" xlink:href="#HelveticaNeue-73"/>
     <use x="886.899811" xlink:href="#HelveticaNeue-68"/>
     <use x="957.299805" xlink:href="#HelveticaNeue-45"/>
     <use x="996.199799" xlink:href="#HelveticaNeue-49"/>
     <use x="1051.799789" xlink:href="#HelveticaNeue-57"/>
    </g>
   </g>
   <g id="legend_1">
    <g id="line2d_93">
     <path d="M 570.298125 49.292375 
L 598.298125 49.292375 
" style="fill:none;stroke:#008fd5;stroke-width:4;"/>
    </g>
    <g id="line2d_94"/>
    <g id="text_17">
     <!-- United States -->
     <g style="fill:#555555;" transform="translate(609.498125 54.192375)scale(0.14 -0.14)">
      <defs>
       <path d="M 64.796875 25.796875 
L 64.796875 71.40625 
L 55.296875 71.40625 
L 55.296875 25.796875 
Q 55.296875 16.203125 50.546875 11.25 
Q 45.796875 6.296875 36.703125 6.296875 
Q 27.09375 6.296875 22 11.25 
Q 16.90625 16.203125 16.90625 25.796875 
L 16.90625 71.40625 
L 7.40625 71.40625 
L 7.40625 25.796875 
Q 7.40625 11.5 15.15625 4.953125 
Q 22.90625 -1.59375 36.703125 -1.59375 
Q 50.203125 -1.59375 57.5 5.25 
Q 64.796875 12.09375 64.796875 25.796875 
z
" id="HelveticaNeue-85"/>
       <path d="M 6.40625 51.703125 
L 6.40625 0 
L 14.90625 0 
L 14.90625 29.203125 
Q 14.90625 32.703125 15.84375 35.640625 
Q 16.796875 38.59375 18.6875 40.796875 
Q 20.59375 43 23.4375 44.203125 
Q 26.296875 45.40625 30.203125 45.40625 
Q 35.09375 45.40625 37.890625 42.59375 
Q 40.703125 39.796875 40.703125 35 
L 40.703125 0 
L 49.203125 0 
L 49.203125 34 
Q 49.203125 38.203125 48.34375 41.640625 
Q 47.5 45.09375 45.390625 47.59375 
Q 43.296875 50.09375 39.890625 51.5 
Q 36.5 52.90625 31.40625 52.90625 
Q 19.90625 52.90625 14.59375 43.5 
L 14.40625 43.5 
L 14.40625 51.703125 
z
" id="HelveticaNeue-110"/>
       <path d="M 15.40625 61 
L 15.40625 71.40625 
L 6.90625 71.40625 
L 6.90625 61 
z
M 6.90625 51.703125 
L 6.90625 0 
L 15.40625 0 
L 15.40625 51.703125 
z
" id="HelveticaNeue-105"/>
       <path d="M 18.203125 51.703125 
L 18.203125 67.203125 
L 9.703125 67.203125 
L 9.703125 51.703125 
L 0.90625 51.703125 
L 0.90625 44.203125 
L 9.703125 44.203125 
L 9.703125 11.296875 
Q 9.703125 7.703125 10.390625 5.5 
Q 11.09375 3.296875 12.546875 2.09375 
Q 14 0.90625 16.34375 0.453125 
Q 18.703125 0 22 0 
L 28.5 0 
L 28.5 7.5 
L 24.59375 7.5 
Q 22.59375 7.5 21.34375 7.640625 
Q 20.09375 7.796875 19.390625 8.296875 
Q 18.703125 8.796875 18.453125 9.6875 
Q 18.203125 10.59375 18.203125 12.09375 
L 18.203125 44.203125 
L 28.5 44.203125 
L 28.5 51.703125 
z
" id="HelveticaNeue-116"/>
       <path d="M 12.59375 25.40625 
Q 12.59375 29.203125 13.390625 32.796875 
Q 14.203125 36.40625 16 39.203125 
Q 17.796875 42 20.796875 43.703125 
Q 23.796875 45.40625 28.09375 45.40625 
Q 32.5 45.40625 35.59375 43.75 
Q 38.703125 42.09375 40.640625 39.390625 
Q 42.59375 36.703125 43.5 33.140625 
Q 44.40625 29.59375 44.40625 25.796875 
Q 44.40625 22.203125 43.546875 18.703125 
Q 42.703125 15.203125 40.796875 12.453125 
Q 38.90625 9.703125 35.90625 8 
Q 32.90625 6.296875 28.59375 6.296875 
Q 24.5 6.296875 21.453125 7.890625 
Q 18.40625 9.5 16.453125 12.203125 
Q 14.5 14.90625 13.546875 18.34375 
Q 12.59375 21.796875 12.59375 25.40625 
z
M 52.59375 0 
L 52.59375 71.40625 
L 44.09375 71.40625 
L 44.09375 44.796875 
L 43.90625 44.796875 
Q 42.5 47.09375 40.453125 48.640625 
Q 38.40625 50.203125 36.09375 51.140625 
Q 33.796875 52.09375 31.5 52.5 
Q 29.203125 52.90625 27.203125 52.90625 
Q 21.296875 52.90625 16.84375 50.75 
Q 12.40625 48.59375 9.453125 44.9375 
Q 6.5 41.296875 5.046875 36.390625 
Q 3.59375 31.5 3.59375 26 
Q 3.59375 20.5 5.09375 15.59375 
Q 6.59375 10.703125 9.546875 7 
Q 12.5 3.296875 16.953125 1.09375 
Q 21.40625 -1.09375 27.40625 -1.09375 
Q 32.796875 -1.09375 37.296875 0.796875 
Q 41.796875 2.703125 43.90625 7 
L 44.09375 7 
L 44.09375 0 
z
" id="HelveticaNeue-100"/>
       <path d="M 49.09375 50.5 
L 58.09375 50.5 
Q 57.90625 56.40625 55.84375 60.65625 
Q 53.796875 64.90625 50.25 67.703125 
Q 46.703125 70.5 42 71.796875 
Q 37.296875 73.09375 31.796875 73.09375 
Q 26.90625 73.09375 22.25 71.84375 
Q 17.59375 70.59375 13.9375 68.046875 
Q 10.296875 65.5 8.09375 61.546875 
Q 5.90625 57.59375 5.90625 52.203125 
Q 5.90625 47.296875 7.84375 44.046875 
Q 9.796875 40.796875 13.046875 38.75 
Q 16.296875 36.703125 20.390625 35.453125 
Q 24.5 34.203125 28.75 33.25 
Q 33 32.296875 37.09375 31.390625 
Q 41.203125 30.5 44.453125 29.046875 
Q 47.703125 27.59375 49.640625 25.296875 
Q 51.59375 23 51.59375 19.296875 
Q 51.59375 15.40625 50 12.90625 
Q 48.40625 10.40625 45.796875 8.953125 
Q 43.203125 7.5 39.953125 6.890625 
Q 36.703125 6.296875 33.5 6.296875 
Q 29.5 6.296875 25.703125 7.296875 
Q 21.90625 8.296875 19.046875 10.390625 
Q 16.203125 12.5 14.453125 15.75 
Q 12.703125 19 12.703125 23.5 
L 3.703125 23.5 
Q 3.703125 17 6.046875 12.25 
Q 8.40625 7.5 12.453125 4.453125 
Q 16.5 1.40625 21.84375 -0.09375 
Q 27.203125 -1.59375 33.203125 -1.59375 
Q 38.09375 -1.59375 43.046875 -0.4375 
Q 48 0.703125 52 3.25 
Q 56 5.796875 58.546875 9.84375 
Q 61.09375 13.90625 61.09375 19.59375 
Q 61.09375 24.90625 59.140625 28.40625 
Q 57.203125 31.90625 53.953125 34.203125 
Q 50.703125 36.5 46.59375 37.84375 
Q 42.5 39.203125 38.25 40.203125 
Q 34 41.203125 29.890625 42.046875 
Q 25.796875 42.90625 22.546875 44.203125 
Q 19.296875 45.5 17.34375 47.546875 
Q 15.40625 49.59375 15.40625 52.90625 
Q 15.40625 56.40625 16.75 58.75 
Q 18.09375 61.09375 20.34375 62.5 
Q 22.59375 63.90625 25.5 64.5 
Q 28.40625 65.09375 31.40625 65.09375 
Q 38.796875 65.09375 43.546875 61.640625 
Q 48.296875 58.203125 49.09375 50.5 
z
" id="HelveticaNeue-83"/>
      </defs>
      <use xlink:href="#HelveticaNeue-85"/>
      <use x="72.199982" xlink:href="#HelveticaNeue-110"/>
      <use x="127.799973" xlink:href="#HelveticaNeue-105"/>
      <use x="149.999969" xlink:href="#HelveticaNeue-116"/>
      <use x="181.499954" xlink:href="#HelveticaNeue-101"/>
      <use x="235.199951" xlink:href="#HelveticaNeue-100"/>
      <use x="294.499939" xlink:href="#HelveticaNeue-32"/>
      <use x="322.299927" xlink:href="#HelveticaNeue-83"/>
      <use x="387.099915" xlink:href="#HelveticaNeue-116"/>
      <use x="418.599899" xlink:href="#HelveticaNeue-97"/>
      <use x="472.299896" xlink:href="#HelveticaNeue-116"/>
      <use x="503.799881" xlink:href="#HelveticaNeue-101"/>
      <use x="557.499878" xlink:href="#HelveticaNeue-115"/>
     </g>
    </g>
    <g id="line2d_95">
     <path d="M 570.298125 69.047687 
L 598.298125 69.047687 
" style="fill:none;stroke:#fc4f30;stroke-width:4;"/>
    </g>
    <g id="line2d_96"/>
    <g id="text_18">
     <!-- Florida -->
     <g style="fill:#555555;" transform="translate(609.498125 73.947687)scale(0.14 -0.14)">
      <defs>
       <path d="M 7.796875 71.40625 
L 7.796875 0 
L 17.296875 0 
L 17.296875 32.703125 
L 50.09375 32.703125 
L 50.09375 40.703125 
L 17.296875 40.703125 
L 17.296875 63.40625 
L 54.703125 63.40625 
L 54.703125 71.40625 
z
" id="HelveticaNeue-70"/>
       <path d="M 6.90625 71.40625 
L 6.90625 0 
L 15.40625 0 
L 15.40625 71.40625 
z
" id="HelveticaNeue-108"/>
       <path d="M 6.09375 51.703125 
L 6.09375 0 
L 14.59375 0 
L 14.59375 23 
Q 14.59375 28 15.59375 31.84375 
Q 16.59375 35.703125 18.796875 38.390625 
Q 21 41.09375 24.59375 42.5 
Q 28.203125 43.90625 33.296875 43.90625 
L 33.296875 52.90625 
Q 26.40625 53.09375 21.90625 50.09375 
Q 17.40625 47.09375 14.296875 40.796875 
L 14.09375 40.796875 
L 14.09375 51.703125 
z
" id="HelveticaNeue-114"/>
      </defs>
      <use xlink:href="#HelveticaNeue-70"/>
      <use x="57.399994" xlink:href="#HelveticaNeue-108"/>
      <use x="79.599991" xlink:href="#HelveticaNeue-111"/>
      <use x="136.999985" xlink:href="#HelveticaNeue-114"/>
      <use x="170.299973" xlink:href="#HelveticaNeue-105"/>
      <use x="192.499969" xlink:href="#HelveticaNeue-100"/>
      <use x="251.799957" xlink:href="#HelveticaNeue-97"/>
     </g>
    </g>
   </g>
  </g>
 </g>
 <defs>
  <clipPath id="p9dc194da50">
   <rect height="483.84" width="626.4" x="80.748125" y="31.5955"/>
  </clipPath>
 </defs>
</svg>
