<?xml version="1.0" encoding="utf-8" standalone="no"?>
<!DOCTYPE svg PUBLIC "-//W3C//DTD SVG 1.1//EN"
  "http://www.w3.org/Graphics/SVG/1.1/DTD/svg11.dtd">
<!-- Created with matplotlib (https://matplotlib.org/) -->
<svg height="518.92375pt" version="1.1" viewBox="0 0 733.773174 518.92375" width="733.773174pt" xmlns="http://www.w3.org/2000/svg" xmlns:xlink="http://www.w3.org/1999/xlink">
 <metadata>
  <rdf:RDF xmlns:cc="http://creativecommons.org/ns#" xmlns:dc="http://purl.org/dc/elements/1.1/" xmlns:rdf="http://www.w3.org/1999/02/22-rdf-syntax-ns#">
   <cc:Work>
    <dc:type rdf:resource="http://purl.org/dc/dcmitype/StillImage"/>
    <dc:date>2021-02-15T11:45:52.186428</dc:date>
    <dc:format>image/svg+xml</dc:format>
    <dc:creator>
     <cc:Agent>
      <dc:title>Matplotlib v3.3.2, https://matplotlib.org/</dc:title>
     </cc:Agent>
    </dc:creator>
   </cc:Work>
  </rdf:RDF>
 </metadata>
 <defs>
  <style type="text/css">*{stroke-linecap:butt;stroke-linejoin:round;}</style>
 </defs>
 <g id="figure_1">
  <g id="patch_1">
   <path d="M 0 518.92375 
L 733.773174 518.92375 
L 733.773174 0 
L 0 0 
z
" style="fill:#f0f0f0;"/>
  </g>
  <g id="axes_1">
   <g id="patch_2">
    <path d="M 80.51625 494.88 
L 706.91625 494.88 
L 706.91625 28.32 
L 80.51625 28.32 
z
" style="fill:#f0f0f0;"/>
   </g>
   <g id="matplotlib.axis_1">
    <g id="xtick_1">
     <g id="line2d_1">
      <path clip-path="url(#p7241f8e8a5)" d="M 166.080821 494.88 
L 166.080821 28.32 
" style="fill:none;stroke:#cbcbcb;"/>
     </g>
     <g id="line2d_2"/>
     <g id="text_1">
      <!-- 2020-03 -->
      <g transform="translate(139.909571 508.88)scale(0.14 -0.14)">
       <defs>
        <path d="M 53.125 0 
L 5.328125 0 
L 5.328125 8.15625 
L 29 33.984375 
Q 34.125 39.703125 36.296875 43.53125 
Q 38.484375 47.359375 38.484375 51.21875 
Q 38.484375 56.296875 35.625 59.421875 
Q 32.765625 62.546875 27.9375 62.546875 
Q 22.171875 62.546875 19 59.03125 
Q 15.828125 55.515625 15.828125 49.421875 
L 3.953125 49.421875 
Q 3.953125 55.90625 6.90625 61.109375 
Q 9.859375 66.3125 15.34375 69.1875 
Q 20.84375 72.078125 28.03125 72.078125 
Q 38.375 72.078125 44.359375 66.875 
Q 50.34375 61.671875 50.34375 52.484375 
Q 50.34375 47.171875 47.34375 41.328125 
Q 44.34375 35.5 37.5 28.078125 
L 20.125 9.46875 
L 53.125 9.46875 
z
" id="Roboto-Medium-50"/>
        <path d="M 51.65625 29.9375 
Q 51.65625 14.59375 45.921875 6.796875 
Q 40.1875 -0.984375 28.46875 -0.984375 
Q 16.9375 -0.984375 11.109375 6.609375 
Q 5.28125 14.203125 5.125 29.109375 
L 5.125 41.40625 
Q 5.125 56.734375 10.859375 64.40625 
Q 16.609375 72.078125 28.375 72.078125 
Q 40.046875 72.078125 45.78125 64.59375 
Q 51.515625 57.125 51.65625 42.234375 
z
M 39.796875 43.21875 
Q 39.796875 53.21875 37.0625 57.875 
Q 34.328125 62.546875 28.375 62.546875 
Q 22.5625 62.546875 19.828125 58.125 
Q 17.09375 53.71875 16.9375 44.34375 
L 16.9375 28.21875 
Q 16.9375 18.265625 19.71875 13.375 
Q 22.515625 8.5 28.46875 8.5 
Q 34.1875 8.5 36.921875 13.015625 
Q 39.65625 17.53125 39.796875 27.15625 
z
" id="Roboto-Medium-48"/>
        <path d="M 29.109375 25.4375 
L 3.46875 25.4375 
L 3.46875 35.015625 
L 29.109375 35.015625 
z
" id="Roboto-Medium-45"/>
        <path d="M 19.046875 40.96875 
L 26.265625 40.96875 
Q 31.734375 41.015625 34.9375 43.796875 
Q 38.140625 46.578125 38.140625 51.859375 
Q 38.140625 56.9375 35.46875 59.734375 
Q 32.8125 62.546875 27.34375 62.546875 
Q 22.5625 62.546875 19.484375 59.78125 
Q 16.40625 57.03125 16.40625 52.59375 
L 4.546875 52.59375 
Q 4.546875 58.0625 7.453125 62.546875 
Q 10.359375 67.046875 15.546875 69.5625 
Q 20.75 72.078125 27.203125 72.078125 
Q 37.84375 72.078125 43.921875 66.71875 
Q 50 61.375 50 51.859375 
Q 50 47.078125 46.9375 42.84375 
Q 43.890625 38.625 39.0625 36.46875 
Q 44.921875 34.46875 47.96875 30.171875 
Q 51.03125 25.875 51.03125 19.921875 
Q 51.03125 10.359375 44.453125 4.6875 
Q 37.890625 -0.984375 27.203125 -0.984375 
Q 16.9375 -0.984375 10.390625 4.484375 
Q 3.859375 9.96875 3.859375 19.046875 
L 15.71875 19.046875 
Q 15.71875 14.359375 18.859375 11.421875 
Q 22.015625 8.5 27.34375 8.5 
Q 32.859375 8.5 36.03125 11.421875 
Q 39.203125 14.359375 39.203125 19.921875 
Q 39.203125 25.53125 35.875 28.5625 
Q 32.5625 31.59375 26.03125 31.59375 
L 19.046875 31.59375 
z
" id="Roboto-Medium-51"/>
       </defs>
       <use xlink:href="#Roboto-Medium-50"/>
       <use x="56.835938" xlink:href="#Roboto-Medium-48"/>
       <use x="113.671875" xlink:href="#Roboto-Medium-50"/>
       <use x="170.507812" xlink:href="#Roboto-Medium-48"/>
       <use x="227.34375" xlink:href="#Roboto-Medium-45"/>
       <use x="260.15625" xlink:href="#Roboto-Medium-48"/>
       <use x="316.992188" xlink:href="#Roboto-Medium-51"/>
      </g>
     </g>
    </g>
    <g id="xtick_2">
     <g id="line2d_3">
      <path clip-path="url(#p7241f8e8a5)" d="M 255.378321 494.88 
L 255.378321 28.32 
" style="fill:none;stroke:#cbcbcb;"/>
     </g>
     <g id="line2d_4"/>
     <g id="text_2">
      <!-- 2020-05 -->
      <g transform="translate(229.207071 508.88)scale(0.14 -0.14)">
       <defs>
        <path d="M 8.5 35.25 
L 12.359375 71.09375 
L 50.53125 71.09375 
L 50.53125 60.84375 
L 22.21875 60.84375 
L 20.265625 43.84375 
Q 25.203125 46.6875 31.390625 46.6875 
Q 41.546875 46.6875 47.1875 40.1875 
Q 52.828125 33.6875 52.828125 22.703125 
Q 52.828125 11.859375 46.578125 5.4375 
Q 40.328125 -0.984375 29.4375 -0.984375 
Q 19.671875 -0.984375 13.25 4.5625 
Q 6.84375 10.109375 6.296875 19.1875 
L 17.78125 19.1875 
Q 18.453125 14.015625 21.484375 11.25 
Q 24.515625 8.5 29.390625 8.5 
Q 34.859375 8.5 37.90625 12.40625 
Q 40.96875 16.3125 40.96875 23.046875 
Q 40.96875 29.546875 37.59375 33.328125 
Q 34.234375 37.109375 28.328125 37.109375 
Q 25.09375 37.109375 22.84375 36.25 
Q 20.609375 35.40625 17.96875 32.90625 
z
" id="Roboto-Medium-53"/>
       </defs>
       <use xlink:href="#Roboto-Medium-50"/>
       <use x="56.835938" xlink:href="#Roboto-Medium-48"/>
       <use x="113.671875" xlink:href="#Roboto-Medium-50"/>
       <use x="170.507812" xlink:href="#Roboto-Medium-48"/>
       <use x="227.34375" xlink:href="#Roboto-Medium-45"/>
       <use x="260.15625" xlink:href="#Roboto-Medium-48"/>
       <use x="316.992188" xlink:href="#Roboto-Medium-53"/>
      </g>
     </g>
    </g>
    <g id="xtick_3">
     <g id="line2d_5">
      <path clip-path="url(#p7241f8e8a5)" d="M 344.67582 494.88 
L 344.67582 28.32 
" style="fill:none;stroke:#cbcbcb;"/>
     </g>
     <g id="line2d_6"/>
     <g id="text_3">
      <!-- 2020-07 -->
      <g transform="translate(318.50457 508.88)scale(0.14 -0.14)">
       <defs>
        <path d="M 52.640625 64.5 
L 24.21875 0 
L 11.765625 0 
L 40.140625 61.578125 
L 3.375 61.578125 
L 3.375 71.09375 
L 52.640625 71.09375 
z
" id="Roboto-Medium-55"/>
       </defs>
       <use xlink:href="#Roboto-Medium-50"/>
       <use x="56.835938" xlink:href="#Roboto-Medium-48"/>
       <use x="113.671875" xlink:href="#Roboto-Medium-50"/>
       <use x="170.507812" xlink:href="#Roboto-Medium-48"/>
       <use x="227.34375" xlink:href="#Roboto-Medium-45"/>
       <use x="260.15625" xlink:href="#Roboto-Medium-48"/>
       <use x="316.992188" xlink:href="#Roboto-Medium-55"/>
      </g>
     </g>
    </g>
    <g id="xtick_4">
     <g id="line2d_7">
      <path clip-path="url(#p7241f8e8a5)" d="M 435.437213 494.88 
L 435.437213 28.32 
" style="fill:none;stroke:#cbcbcb;"/>
     </g>
     <g id="line2d_8"/>
     <g id="text_4">
      <!-- 2020-09 -->
      <g transform="translate(409.265963 508.88)scale(0.14 -0.14)">
       <defs>
        <path d="M 38.96875 29.734375 
Q 33.015625 23.4375 25.046875 23.4375 
Q 15.671875 23.4375 10.109375 30 
Q 4.546875 36.578125 4.546875 47.265625 
Q 4.546875 54.296875 7.375 60 
Q 10.203125 65.71875 15.421875 68.890625 
Q 20.65625 72.078125 27.546875 72.078125 
Q 38.28125 72.078125 44.578125 64.0625 
Q 50.875 56.0625 50.875 42.625 
L 50.875 39.3125 
Q 50.875 20.0625 42.1875 9.953125 
Q 33.5 -0.140625 16.265625 -0.296875 
L 14.84375 -0.296875 
L 14.84375 9.515625 
L 16.546875 9.515625 
Q 27.046875 9.671875 32.65625 14.578125 
Q 38.28125 19.484375 38.96875 29.734375 
z
M 27.546875 32.71875 
Q 31.109375 32.71875 34.234375 34.765625 
Q 37.359375 36.8125 39.0625 40.4375 
L 39.0625 45.0625 
Q 39.0625 52.9375 35.84375 57.71875 
Q 32.625 62.5 27.484375 62.5 
Q 22.359375 62.5 19.3125 58.265625 
Q 16.265625 54.046875 16.265625 47.609375 
Q 16.265625 40.921875 19.328125 36.8125 
Q 22.40625 32.71875 27.546875 32.71875 
z
" id="Roboto-Medium-57"/>
       </defs>
       <use xlink:href="#Roboto-Medium-50"/>
       <use x="56.835938" xlink:href="#Roboto-Medium-48"/>
       <use x="113.671875" xlink:href="#Roboto-Medium-50"/>
       <use x="170.507812" xlink:href="#Roboto-Medium-48"/>
       <use x="227.34375" xlink:href="#Roboto-Medium-45"/>
       <use x="260.15625" xlink:href="#Roboto-Medium-48"/>
       <use x="316.992188" xlink:href="#Roboto-Medium-57"/>
      </g>
     </g>
    </g>
    <g id="xtick_5">
     <g id="line2d_9">
      <path clip-path="url(#p7241f8e8a5)" d="M 524.734712 494.88 
L 524.734712 28.32 
" style="fill:none;stroke:#cbcbcb;"/>
     </g>
     <g id="line2d_10"/>
     <g id="text_5">
      <!-- 2020-11 -->
      <g transform="translate(498.563462 508.88)scale(0.14 -0.14)">
       <defs>
        <path d="M 37.453125 0 
L 25.640625 0 
L 25.640625 57.078125 
L 8.203125 51.125 
L 8.203125 61.140625 
L 35.9375 71.34375 
L 37.453125 71.34375 
z
" id="Roboto-Medium-49"/>
       </defs>
       <use xlink:href="#Roboto-Medium-50"/>
       <use x="56.835938" xlink:href="#Roboto-Medium-48"/>
       <use x="113.671875" xlink:href="#Roboto-Medium-50"/>
       <use x="170.507812" xlink:href="#Roboto-Medium-48"/>
       <use x="227.34375" xlink:href="#Roboto-Medium-45"/>
       <use x="260.15625" xlink:href="#Roboto-Medium-49"/>
       <use x="316.992188" xlink:href="#Roboto-Medium-49"/>
      </g>
     </g>
    </g>
    <g id="xtick_6">
     <g id="line2d_11">
      <path clip-path="url(#p7241f8e8a5)" d="M 614.032212 494.88 
L 614.032212 28.32 
" style="fill:none;stroke:#cbcbcb;"/>
     </g>
     <g id="line2d_12"/>
     <g id="text_6">
      <!-- 2021-01 -->
      <g transform="translate(587.860962 508.88)scale(0.14 -0.14)">
       <use xlink:href="#Roboto-Medium-50"/>
       <use x="56.835938" xlink:href="#Roboto-Medium-48"/>
       <use x="113.671875" xlink:href="#Roboto-Medium-50"/>
       <use x="170.507812" xlink:href="#Roboto-Medium-49"/>
       <use x="227.34375" xlink:href="#Roboto-Medium-45"/>
       <use x="260.15625" xlink:href="#Roboto-Medium-48"/>
       <use x="316.992188" xlink:href="#Roboto-Medium-49"/>
      </g>
     </g>
    </g>
    <g id="xtick_7">
     <g id="line2d_13">
      <path clip-path="url(#p7241f8e8a5)" d="M 700.401924 494.88 
L 700.401924 28.32 
" style="fill:none;stroke:#cbcbcb;"/>
     </g>
     <g id="line2d_14"/>
     <g id="text_7">
      <!-- 2021-03 -->
      <g transform="translate(674.230674 508.88)scale(0.14 -0.14)">
       <use xlink:href="#Roboto-Medium-50"/>
       <use x="56.835938" xlink:href="#Roboto-Medium-48"/>
       <use x="113.671875" xlink:href="#Roboto-Medium-50"/>
       <use x="170.507812" xlink:href="#Roboto-Medium-49"/>
       <use x="227.34375" xlink:href="#Roboto-Medium-45"/>
       <use x="260.15625" xlink:href="#Roboto-Medium-48"/>
       <use x="316.992188" xlink:href="#Roboto-Medium-51"/>
      </g>
     </g>
    </g>
   </g>
   <g id="matplotlib.axis_2">
    <g id="ytick_1">
     <g id="line2d_15">
      <path clip-path="url(#p7241f8e8a5)" d="M 80.51625 477.311549 
L 706.91625 477.311549 
" style="fill:none;stroke:#cbcbcb;"/>
     </g>
     <g id="line2d_16"/>
     <g id="text_8">
      <!-- 1 -->
      <g transform="translate(69.058125 482.561549)scale(0.14 -0.14)">
       <use xlink:href="#Roboto-Medium-49"/>
      </g>
     </g>
    </g>
    <g id="ytick_2">
     <g id="line2d_17">
      <path clip-path="url(#p7241f8e8a5)" d="M 80.51625 413.169899 
L 706.91625 413.169899 
" style="fill:none;stroke:#cbcbcb;"/>
     </g>
     <g id="line2d_18"/>
     <g id="text_9">
      <!-- 10 -->
      <g transform="translate(61.1 418.419899)scale(0.14 -0.14)">
       <use xlink:href="#Roboto-Medium-49"/>
       <use x="56.835938" xlink:href="#Roboto-Medium-48"/>
      </g>
     </g>
    </g>
    <g id="ytick_3">
     <g id="line2d_19">
      <path clip-path="url(#p7241f8e8a5)" d="M 80.51625 349.02825 
L 706.91625 349.02825 
" style="fill:none;stroke:#cbcbcb;"/>
     </g>
     <g id="line2d_20"/>
     <g id="text_10">
      <!-- 100 -->
      <g transform="translate(53.141875 354.27825)scale(0.14 -0.14)">
       <use xlink:href="#Roboto-Medium-49"/>
       <use x="56.835938" xlink:href="#Roboto-Medium-48"/>
       <use x="113.671875" xlink:href="#Roboto-Medium-48"/>
      </g>
     </g>
    </g>
    <g id="ytick_4">
     <g id="line2d_21">
      <path clip-path="url(#p7241f8e8a5)" d="M 80.51625 284.8866 
L 706.91625 284.8866 
" style="fill:none;stroke:#cbcbcb;"/>
     </g>
     <g id="line2d_22"/>
     <g id="text_11">
      <!-- 1,000 -->
      <g transform="translate(42.108125 290.1366)scale(0.14 -0.14)">
       <defs>
        <path d="M 7.765625 -16.015625 
L 1.375 -12.203125 
Q 4.203125 -7.765625 5.25 -4.46875 
Q 6.296875 -1.171875 6.34375 2.25 
L 6.34375 11.46875 
L 17.046875 11.46875 
L 17 2.9375 
Q 16.9375 -2.25 14.375 -7.4375 
Q 11.8125 -12.640625 7.765625 -16.015625 
z
" id="Roboto-Medium-44"/>
       </defs>
       <use xlink:href="#Roboto-Medium-49"/>
       <use x="56.835938" xlink:href="#Roboto-Medium-44"/>
       <use x="78.808594" xlink:href="#Roboto-Medium-48"/>
       <use x="135.644531" xlink:href="#Roboto-Medium-48"/>
       <use x="192.480469" xlink:href="#Roboto-Medium-48"/>
      </g>
     </g>
    </g>
    <g id="ytick_5">
     <g id="line2d_23">
      <path clip-path="url(#p7241f8e8a5)" d="M 80.51625 220.74495 
L 706.91625 220.74495 
" style="fill:none;stroke:#cbcbcb;"/>
     </g>
     <g id="line2d_24"/>
     <g id="text_12">
      <!-- 10,000 -->
      <g transform="translate(34.15 225.99495)scale(0.14 -0.14)">
       <use xlink:href="#Roboto-Medium-49"/>
       <use x="56.835938" xlink:href="#Roboto-Medium-48"/>
       <use x="113.671875" xlink:href="#Roboto-Medium-44"/>
       <use x="135.644531" xlink:href="#Roboto-Medium-48"/>
       <use x="192.480469" xlink:href="#Roboto-Medium-48"/>
       <use x="249.316406" xlink:href="#Roboto-Medium-48"/>
      </g>
     </g>
    </g>
    <g id="ytick_6">
     <g id="line2d_25">
      <path clip-path="url(#p7241f8e8a5)" d="M 80.51625 156.6033 
L 706.91625 156.6033 
" style="fill:none;stroke:#cbcbcb;"/>
     </g>
     <g id="line2d_26"/>
     <g id="text_13">
      <!-- 100,000 -->
      <g transform="translate(26.191875 161.8533)scale(0.14 -0.14)">
       <use xlink:href="#Roboto-Medium-49"/>
       <use x="56.835938" xlink:href="#Roboto-Medium-48"/>
       <use x="113.671875" xlink:href="#Roboto-Medium-48"/>
       <use x="170.507812" xlink:href="#Roboto-Medium-44"/>
       <use x="192.480469" xlink:href="#Roboto-Medium-48"/>
       <use x="249.316406" xlink:href="#Roboto-Medium-48"/>
       <use x="306.152344" xlink:href="#Roboto-Medium-48"/>
      </g>
     </g>
    </g>
    <g id="ytick_7">
     <g id="line2d_27">
      <path clip-path="url(#p7241f8e8a5)" d="M 80.51625 92.46165 
L 706.91625 92.46165 
" style="fill:none;stroke:#cbcbcb;"/>
     </g>
     <g id="line2d_28"/>
     <g id="text_14">
      <!-- 1,000,000 -->
      <g transform="translate(15.158125 97.71165)scale(0.14 -0.14)">
       <use xlink:href="#Roboto-Medium-49"/>
       <use x="56.835938" xlink:href="#Roboto-Medium-44"/>
       <use x="78.808594" xlink:href="#Roboto-Medium-48"/>
       <use x="135.644531" xlink:href="#Roboto-Medium-48"/>
       <use x="192.480469" xlink:href="#Roboto-Medium-48"/>
       <use x="249.316406" xlink:href="#Roboto-Medium-44"/>
       <use x="271.289062" xlink:href="#Roboto-Medium-48"/>
       <use x="328.125" xlink:href="#Roboto-Medium-48"/>
       <use x="384.960938" xlink:href="#Roboto-Medium-48"/>
      </g>
     </g>
    </g>
    <g id="ytick_8">
     <g id="line2d_29">
      <path clip-path="url(#p7241f8e8a5)" d="M 80.51625 28.32 
L 706.91625 28.32 
" style="fill:none;stroke:#cbcbcb;"/>
     </g>
     <g id="line2d_30"/>
     <g id="text_15">
      <!-- 10,000,000 -->
      <g transform="translate(7.2 33.57)scale(0.14 -0.14)">
       <use xlink:href="#Roboto-Medium-49"/>
       <use x="56.835938" xlink:href="#Roboto-Medium-48"/>
       <use x="113.671875" xlink:href="#Roboto-Medium-44"/>
       <use x="135.644531" xlink:href="#Roboto-Medium-48"/>
       <use x="192.480469" xlink:href="#Roboto-Medium-48"/>
       <use x="249.316406" xlink:href="#Roboto-Medium-48"/>
       <use x="306.152344" xlink:href="#Roboto-Medium-44"/>
       <use x="328.125" xlink:href="#Roboto-Medium-48"/>
       <use x="384.960938" xlink:href="#Roboto-Medium-48"/>
       <use x="441.796875" xlink:href="#Roboto-Medium-48"/>
      </g>
     </g>
    </g>
    <g id="ytick_9">
     <g id="line2d_31"/>
    </g>
    <g id="ytick_10">
     <g id="line2d_32"/>
    </g>
    <g id="ytick_11">
     <g id="line2d_33"/>
    </g>
    <g id="ytick_12">
     <g id="line2d_34"/>
    </g>
    <g id="ytick_13">
     <g id="line2d_35"/>
    </g>
    <g id="ytick_14">
     <g id="line2d_36"/>
    </g>
    <g id="ytick_15">
     <g id="line2d_37"/>
    </g>
    <g id="ytick_16">
     <g id="line2d_38"/>
    </g>
    <g id="ytick_17">
     <g id="line2d_39"/>
    </g>
    <g id="ytick_18">
     <g id="line2d_40"/>
    </g>
    <g id="ytick_19">
     <g id="line2d_41"/>
    </g>
    <g id="ytick_20">
     <g id="line2d_42"/>
    </g>
    <g id="ytick_21">
     <g id="line2d_43"/>
    </g>
    <g id="ytick_22">
     <g id="line2d_44"/>
    </g>
    <g id="ytick_23">
     <g id="line2d_45"/>
    </g>
    <g id="ytick_24">
     <g id="line2d_46"/>
    </g>
    <g id="ytick_25">
     <g id="line2d_47"/>
    </g>
    <g id="ytick_26">
     <g id="line2d_48"/>
    </g>
    <g id="ytick_27">
     <g id="line2d_49"/>
    </g>
    <g id="ytick_28">
     <g id="line2d_50"/>
    </g>
    <g id="ytick_29">
     <g id="line2d_51"/>
    </g>
    <g id="ytick_30">
     <g id="line2d_52"/>
    </g>
    <g id="ytick_31">
     <g id="line2d_53"/>
    </g>
    <g id="ytick_32">
     <g id="line2d_54"/>
    </g>
    <g id="ytick_33">
     <g id="line2d_55"/>
    </g>
    <g id="ytick_34">
     <g id="line2d_56"/>
    </g>
    <g id="ytick_35">
     <g id="line2d_57"/>
    </g>
    <g id="ytick_36">
     <g id="line2d_58"/>
    </g>
    <g id="ytick_37">
     <g id="line2d_59"/>
    </g>
    <g id="ytick_38">
     <g id="line2d_60"/>
    </g>
    <g id="ytick_39">
     <g id="line2d_61"/>
    </g>
    <g id="ytick_40">
     <g id="line2d_62"/>
    </g>
    <g id="ytick_41">
     <g id="line2d_63"/>
    </g>
    <g id="ytick_42">
     <g id="line2d_64"/>
    </g>
    <g id="ytick_43">
     <g id="line2d_65"/>
    </g>
    <g id="ytick_44">
     <g id="line2d_66"/>
    </g>
    <g id="ytick_45">
     <g id="line2d_67"/>
    </g>
    <g id="ytick_46">
     <g id="line2d_68"/>
    </g>
    <g id="ytick_47">
     <g id="line2d_69"/>
    </g>
    <g id="ytick_48">
     <g id="line2d_70"/>
    </g>
    <g id="ytick_49">
     <g id="line2d_71"/>
    </g>
    <g id="ytick_50">
     <g id="line2d_72"/>
    </g>
    <g id="ytick_51">
     <g id="line2d_73"/>
    </g>
    <g id="ytick_52">
     <g id="line2d_74"/>
    </g>
    <g id="ytick_53">
     <g id="line2d_75"/>
    </g>
    <g id="ytick_54">
     <g id="line2d_76"/>
    </g>
    <g id="ytick_55">
     <g id="line2d_77"/>
    </g>
    <g id="ytick_56">
     <g id="line2d_78"/>
    </g>
    <g id="ytick_57">
     <g id="line2d_79"/>
    </g>
    <g id="ytick_58">
     <g id="line2d_80"/>
    </g>
    <g id="ytick_59">
     <g id="line2d_81"/>
    </g>
    <g id="ytick_60">
     <g id="line2d_82"/>
    </g>
    <g id="ytick_61">
     <g id="line2d_83"/>
    </g>
    <g id="ytick_62">
     <g id="line2d_84"/>
    </g>
    <g id="ytick_63">
     <g id="line2d_85"/>
    </g>
    <g id="ytick_64">
     <g id="line2d_86"/>
    </g>
    <g id="ytick_65">
     <g id="line2d_87"/>
    </g>
    <g id="ytick_66">
     <g id="line2d_88"/>
    </g>
    <g id="ytick_67">
     <g id="line2d_89"/>
    </g>
    <g id="ytick_68">
     <g id="line2d_90"/>
    </g>
   </g>
   <g id="line2d_91">
    <path clip-path="url(#p7241f8e8a5)" d="M 111.915792 519.92375 
L 111.916764 477.311549 
L 113.380658 477.311549 
L 114.844551 458.002989 
L 114.845964 519.92375 
M 120.699152 519.92375 
L 120.700125 477.311549 
L 123.627912 477.311549 
L 125.091805 446.708205 
L 125.093475 519.92375 
M 129.482513 519.92375 
L 129.483485 477.311549 
L 129.484458 519.92375 
M 136.80198 519.92375 
L 136.802953 477.311549 
L 136.803925 519.92375 
M 139.729767 519.92375 
L 139.730739 477.311549 
L 141.194633 477.311549 
L 141.195605 519.92375 
M 147.047773 519.92375 
L 147.050207 413.169899 
L 147.052641 519.92375 
M 151.440474 519.92375 
L 151.441887 458.002989 
L 152.90578 446.708205 
L 152.90745 519.92375 
M 157.29486 519.92375 
L 157.297461 405.861385 
L 158.761354 458.002989 
L 160.225247 401.875116 
L 160.227938 519.92375 
M 163.15104 519.92375 
L 163.153034 432.47846 
L 164.616928 432.47846 
L 166.080821 396.7963 
L 167.544715 400.077307 
L 169.008608 392.502222 
L 170.472501 377.487739 
L 171.936395 360.184099 
L 173.400288 354.218714 
L 174.864182 344.654696 
L 176.328075 344.182543 
L 177.791969 329.580754 
L 179.255862 321.359866 
L 180.719755 324.066495 
L 182.183649 310.065082 
L 183.647542 301.237923 
L 185.111436 295.876637 
L 186.575329 294.742791 
L 188.039223 287.605738 
L 189.503116 275.533611 
L 190.96701 259.993148 
L 192.430903 245.971621 
L 193.894796 236.802232 
L 195.35869 232.67651 
L 196.822583 225.12505 
L 198.286477 219.566823 
L 199.75037 219.564153 
L 201.214264 210.138291 
L 202.678157 205.966853 
L 204.14205 205.428016 
L 205.605944 199.989861 
L 207.069837 203.578016 
L 208.533731 199.461992 
L 209.997624 195.776374 
L 214.389304 188.06834 
L 215.853198 185.768845 
L 217.317091 194.54236 
L 218.780985 189.303784 
L 220.244878 189.83043 
L 221.708772 188.500931 
L 223.172665 186.088129 
L 224.636558 187.09017 
L 226.100452 188.588613 
L 227.564345 192.92942 
L 229.028239 194.376474 
L 230.492132 193.397205 
L 231.956026 190.11098 
L 233.419919 188.682738 
L 234.883813 188.774531 
L 236.347706 191.670325 
L 237.811599 194.850724 
L 239.275493 192.67199 
L 240.739386 194.653502 
L 242.20328 191.248789 
L 243.667173 186.839147 
L 245.131067 184.495234 
L 246.59496 186.322728 
L 248.058853 193.351322 
L 249.522747 197.30555 
L 250.98664 195.612036 
L 252.450534 193.539506 
L 253.914427 189.812071 
L 255.378321 186.679605 
L 256.842214 190.634353 
L 258.306107 193.978281 
L 259.770001 198.829551 
L 261.233894 196.697396 
L 262.697788 195.776374 
L 264.161681 191.591961 
L 265.625575 192.41591 
L 267.089468 195.367892 
L 268.553361 200.998328 
L 270.017255 204.964144 
L 271.481148 198.404101 
L 272.945042 199.885592 
L 274.408935 193.115799 
L 275.872829 193.875103 
L 277.336722 196.756205 
L 278.800616 202.844716 
L 280.264509 199.001312 
L 281.728402 200.107799 
L 283.192296 197.458478 
L 284.656189 194.415417 
L 286.120083 196.591853 
L 287.583976 198.444103 
L 289.04787 201.393245 
L 290.511763 202.719006 
L 293.43955 203.243113 
L 294.903443 198.140529 
L 296.367337 195.728673 
L 297.83123 197.066407 
L 299.295124 200.56705 
L 300.759017 198.912119 
L 302.22291 200.355899 
L 303.686804 201.454502 
L 305.150697 199.271908 
L 306.614591 191.366915 
L 308.078484 198.13558 
L 309.542378 203.433993 
L 311.006271 204.05283 
L 312.470164 203.152605 
L 313.934058 197.722958 
L 315.397951 197.299546 
L 316.861845 194.67644 
L 318.325738 194.850724 
L 319.789632 202.675287 
L 321.253525 201.273904 
L 322.717418 195.348856 
L 324.181312 194.499981 
L 327.109099 189.37596 
L 328.572992 188.322042 
L 330.036886 193.724746 
L 332.964673 185.799815 
L 334.428566 184.307837 
L 337.356353 178.521876 
L 340.28414 182.472586 
L 341.748033 182.481049 
L 343.211927 176.82417 
L 344.67582 175.925792 
L 346.139713 172.975172 
L 347.603607 172.18673 
L 349.0675 175.908518 
L 350.531394 178.99143 
L 351.995287 177.448821 
L 353.459181 173.724707 
L 354.923074 171.087229 
L 356.386967 170.884627 
L 357.850861 167.253618 
L 359.314754 170.500299 
L 360.778648 171.871231 
L 363.706435 168.34654 
L 365.170328 167.206705 
L 366.634221 164.363074 
L 368.098115 166.174062 
L 369.562008 169.71774 
L 371.025902 169.796356 
L 372.489795 170.885092 
L 373.953689 168.484887 
L 375.417582 166.643026 
L 376.881476 166.53658 
L 378.345369 165.170377 
L 379.809262 167.852437 
L 381.273156 173.656289 
L 382.737049 171.215903 
L 384.200943 169.422684 
L 385.664836 167.849934 
L 387.12873 166.960786 
L 388.592623 166.904281 
L 390.056516 172.346074 
L 391.52041 175.472977 
L 392.984303 177.35009 
L 394.448197 174.001635 
L 395.91209 173.911266 
L 397.375984 172.011819 
L 398.839877 170.300995 
L 400.30377 173.135575 
L 401.767664 176.771833 
L 403.231557 177.533137 
L 404.695451 174.101693 
L 406.159344 173.624965 
L 407.623238 173.736556 
L 409.087131 171.076924 
L 410.551024 175.50096 
L 412.014918 180.677995 
L 413.478811 183.908557 
L 414.942705 179.962703 
L 416.406598 180.104817 
L 419.334385 176.458153 
L 420.798279 178.830731 
L 422.262172 188.055414 
L 423.726065 181.847891 
L 425.189959 182.702686 
L 426.653852 178.650047 
L 428.117746 178.471749 
L 429.581639 177.895103 
L 431.045533 179.089295 
L 432.509426 187.125978 
L 433.973319 184.690008 
L 435.437213 179.441829 
L 436.901106 187.959946 
L 438.365 177.996989 
L 439.828893 174.763657 
L 441.292787 180.600755 
L 442.75668 190.142534 
L 444.220573 195.036066 
L 448.612254 183.512724 
L 450.076147 177.300855 
L 451.540041 182.758906 
L 453.003934 187.198567 
L 454.467827 184.384759 
L 455.931721 182.678525 
L 457.395614 182.642322 
L 458.859508 178.65558 
L 460.323401 176.538949 
L 461.787295 180.894348 
L 463.251188 184.788674 
L 464.715082 173.282201 
L 466.178975 184.006724 
L 467.642868 181.068113 
L 469.106762 178.722057 
L 470.570655 173.469893 
L 472.034549 180.310223 
L 473.498442 184.076096 
L 474.962336 184.029829 
L 476.426229 179.665326 
L 477.890122 180.73027 
L 479.354016 177.982583 
L 480.817909 173.985513 
L 482.281803 177.177564 
L 483.745696 185.797431 
L 485.20959 169.735142 
L 486.673483 180.202781 
L 488.137376 174.279767 
L 489.60127 172.565066 
L 491.065163 171.319177 
L 493.99295 178.981476 
L 495.456844 177.039729 
L 496.920737 173.565495 
L 499.848524 168.452474 
L 501.312417 166.355324 
L 502.776311 174.414601 
L 504.240204 177.117577 
L 505.704098 168.415415 
L 507.167991 170.558623 
L 508.631884 168.932271 
L 510.095778 164.569576 
L 511.559671 161.033323 
L 513.023565 163.317805 
L 514.487458 170.965678 
L 515.951352 164.754468 
L 517.415245 164.845691 
L 521.806925 156.640095 
L 523.270819 161.390597 
L 524.734712 164.917684 
L 526.198606 158.323071 
L 527.662499 158.800333 
L 529.126393 154.438818 
L 530.590286 151.216752 
L 532.054179 148.696348 
L 533.518073 150.180405 
L 534.981966 155.667618 
L 536.44586 149.200448 
L 537.909753 147.280194 
L 539.373647 146.662201 
L 540.83754 142.884076 
L 542.301433 139.998986 
L 543.765327 143.679575 
L 545.22922 148.204917 
L 546.693114 142.391389 
L 548.157007 143.226805 
L 549.620901 141.450321 
L 551.084794 139.090319 
L 552.548687 137.451033 
L 554.012581 141.505026 
L 555.476474 147.064163 
L 556.940368 140.289811 
L 558.404261 140.537192 
L 559.868155 140.125897 
L 561.332048 155.808852 
L 562.795942 136.486758 
L 564.259835 145.096502 
L 565.723728 147.961803 
L 567.187622 142.178299 
L 570.115409 137.126578 
L 571.579302 134.924443 
L 573.043196 133.233998 
L 574.507089 136.515592 
L 575.970982 141.478631 
L 577.434876 136.703266 
L 578.898769 134.654816 
L 580.362663 134.673192 
L 581.826556 133.986384 
L 583.29045 127.865494 
L 584.754343 136.278769 
L 586.218236 139.583556 
L 587.68213 137.138625 
L 589.146023 136.883976 
L 590.609917 131.63677 
L 592.07381 132.3991 
L 593.537704 130.94283 
L 595.001597 138.154855 
L 596.46549 140.238058 
L 597.929384 137.070979 
L 599.393277 137.064486 
L 600.857171 133.670682 
L 602.321064 138.2082 
L 603.784958 156.333568 
L 605.248851 135.040709 
L 606.712745 144.922514 
L 608.176638 138.860858 
L 609.640531 137.143057 
L 611.104425 133.520061 
L 612.568318 133.276407 
L 614.032212 145.822064 
L 615.496105 126.811895 
L 616.959999 137.02211 
L 618.423892 130.861008 
L 619.887785 132.799195 
L 624.279466 125.942538 
L 625.743359 130.842551 
L 627.207253 136.15723 
L 628.671146 134.269447 
L 630.135039 133.438444 
L 631.598933 133.484202 
L 633.062826 132.379011 
L 634.52672 132.107611 
L 638.9184 146.708639 
L 640.382293 139.455926 
L 641.846187 139.179447 
L 643.31008 138.703945 
L 644.773974 138.469349 
L 646.237867 142.161044 
L 647.701761 149.3974 
L 649.165654 144.268696 
L 650.629547 145.009831 
L 652.093441 144.280507 
L 653.557334 142.611346 
L 655.021228 142.541645 
L 656.485121 148.470344 
L 657.949015 153.073075 
L 659.412908 147.260069 
L 660.876802 152.015578 
L 662.340695 151.515432 
L 663.804588 150.201427 
L 665.268482 149.386218 
L 666.732375 155.237552 
L 668.196269 160.377492 
L 669.660162 158.69083 
L 671.124056 157.601517 
L 672.587949 158.056493 
L 674.051842 155.085721 
L 675.515736 156.726698 
L 676.979629 161.220098 
L 678.443523 169.100601 
L 678.443523 169.100601 
" style="fill:none;stroke:#008fd5;stroke-width:4;"/>
   </g>
   <g id="line2d_92">
    <path clip-path="url(#p7241f8e8a5)" d="M 166.079408 519.92375 
L 166.080821 458.002989 
L 166.082234 519.92375 
M 169.007635 519.92375 
L 169.008608 477.311549 
L 169.009581 519.92375 
M 171.935422 519.92375 
L 171.936395 477.311549 
L 173.400288 446.708205 
L 174.864182 432.47846 
L 176.328075 477.311549 
L 177.791969 477.311549 
L 179.255862 416.10486 
L 180.719755 446.708205 
L 182.183649 393.861339 
L 183.647542 388.782523 
L 183.650531 519.92375 
M 186.572033 519.92375 
L 186.575329 375.25804 
L 188.039223 380.768746 
L 189.503116 359.364735 
L 190.96701 344.893808 
L 192.430903 346.884395 
L 193.894796 341.719735 
L 195.35869 329.719689 
L 196.822583 325.109058 
L 198.286477 326.812598 
L 199.75037 324.066495 
L 201.214264 303.973196 
L 202.678157 303.807876 
L 204.14205 294.037529 
L 205.605944 289.743451 
L 207.069837 287.667231 
L 208.533731 292.826192 
L 209.997624 283.607187 
L 211.461518 284.144452 
L 212.925411 279.097299 
L 214.389304 278.448667 
L 215.853198 278.07534 
L 217.317091 290.929007 
L 218.780985 278.031747 
L 220.244878 281.779462 
L 221.708772 286.286137 
L 223.172665 281.506723 
L 224.636558 281.212204 
L 226.100452 284.389644 
L 227.564345 288.5427 
L 229.028239 280.84838 
L 230.492132 298.701602 
L 231.956026 287.636468 
L 233.419919 290.894425 
L 234.883813 275.256234 
L 236.347706 293.311962 
L 237.811599 290.346862 
L 239.275493 293.124123 
L 240.739386 290.722152 
L 242.20328 307.756133 
L 243.667173 276.754684 
L 245.131067 288.289746 
L 246.59496 317.873276 
L 248.058853 295.263486 
L 249.522747 298.655898 
L 250.98664 294.505714 
L 252.450534 314.370626 
L 253.914427 304.306809 
L 255.378321 283.874524 
L 256.842214 293.46315 
L 258.306107 298.428498 
L 259.770001 290.448713 
L 261.233894 301.948324 
L 262.697788 300.889403 
L 264.161681 290.211636 
L 265.625575 312.507668 
L 267.089468 291.033014 
L 268.553361 299.349454 
L 270.017255 311.403572 
L 271.481148 286.580605 
L 272.945042 305.390407 
L 274.408935 290.825388 
L 275.872829 286.968126 
L 277.336722 295.917997 
L 278.800616 291.915176 
L 280.264509 289.283005 
L 281.728402 304.083957 
L 283.192296 302.730126 
L 284.656189 279.715084 
L 286.120083 291.951051 
L 287.583976 295.794099 
L 289.04787 293.274293 
L 290.511763 288.479246 
L 291.975656 303.698205 
L 293.43955 311.913376 
L 294.903443 296.843823 
L 296.367337 279.530604 
L 297.83123 286.99816 
L 299.295124 293.311962 
L 300.759017 296.167459 
L 302.22291 298.338055 
L 303.686804 277.216171 
L 305.150697 275.138198 
L 306.614591 277.471151 
L 308.078484 278.228458 
L 309.542378 280.275969 
L 311.006271 285.850192 
L 312.470164 282.333085 
L 315.397951 270.138017 
L 316.861845 266.977577 
L 318.325738 258.473838 
L 319.789632 265.356075 
L 321.253525 269.170685 
L 322.717418 256.374789 
L 324.181312 258.16259 
L 325.645205 252.424577 
L 327.109099 247.537515 
L 328.572992 245.930311 
L 330.036886 250.036972 
L 331.500779 254.978995 
L 332.964673 251.74669 
L 334.428566 237.342858 
L 335.892459 240.031234 
L 337.356353 223.86001 
L 338.820246 221.925662 
L 340.28414 225.173993 
L 341.748033 238.609627 
L 343.211927 234.546233 
L 344.67582 232.476303 
L 346.139713 220.442958 
L 347.603607 222.209004 
L 349.0675 216.953613 
L 350.531394 220.58108 
L 351.995287 233.456852 
L 353.459181 229.332873 
L 354.923074 220.775609 
L 356.386967 223.881826 
L 357.850861 217.014458 
L 359.314754 219.75975 
L 360.778648 208.898537 
L 362.242541 214.254008 
L 363.706435 223.085831 
L 365.170328 220.245258 
L 366.634221 211.441785 
L 368.098115 216.93417 
L 369.562008 219.845926 
L 371.025902 214.578052 
L 372.489795 219.794727 
L 373.953689 222.350287 
L 375.417582 221.350394 
L 376.881476 220.059821 
L 378.345369 214.654059 
L 379.809262 215.207971 
L 381.273156 222.635023 
L 382.737049 224.016209 
L 384.200943 222.97697 
L 385.664836 222.332588 
L 387.12873 220.867788 
L 388.592623 223.658253 
L 390.056516 221.760496 
L 391.52041 230.269795 
L 392.984303 241.470629 
L 394.448197 237.673366 
L 395.91209 237.863267 
L 397.375984 228.207097 
L 398.839877 228.076316 
L 400.30377 225.265583 
L 401.767664 233.931297 
L 403.231557 245.210433 
L 406.159344 226.583937 
L 407.623238 233.90001 
L 409.087131 234.295909 
L 410.551024 233.386596 
L 412.014918 247.852693 
L 413.478811 257.446124 
L 414.942705 247.421143 
L 416.406598 245.479904 
L 417.870492 242.650068 
L 419.334385 241.872126 
L 420.798279 244.183718 
L 422.262172 254.525729 
L 423.726065 262.198163 
L 425.189959 257.498182 
L 426.653852 252.311886 
L 428.117746 251.891178 
L 429.581639 247.58858 
L 431.045533 252.511574 
L 432.509426 258.45226 
L 433.973319 267.227675 
L 435.437213 228.50362 
L 436.901106 260.476019 
L 438.365 249.429747 
L 439.828893 252.502862 
L 441.292787 248.774454 
L 444.220573 267.931043 
L 445.684467 268.159312 
L 447.14836 264.808781 
L 448.612254 258.45226 
L 450.076147 248.820208 
L 451.540041 252.572634 
L 453.003934 260.233538 
L 454.467827 269.521485 
L 455.931721 253.226445 
L 457.395614 261.026489 
L 458.859508 252.010733 
L 460.323401 252.450648 
L 461.787295 249.41415 
L 463.251188 259.129055 
L 464.715082 270.352108 
L 466.178975 259.698369 
L 467.642868 258.376871 
L 469.106762 258.908932 
L 470.570655 255.741438 
L 472.034549 256.254934 
L 473.498442 267.272044 
L 474.962336 293.349682 
L 476.426229 251.916754 
L 477.890122 266.311886 
L 479.354016 257.971137 
L 480.817909 257.63399 
L 482.281803 256.33478 
L 483.745696 267.480039 
L 485.20959 275.216833 
L 486.673483 262.284654 
L 488.137376 258.463047 
L 489.60127 251.577658 
L 491.065163 255.15089 
L 491.071185 519.92375 
M 493.986518 519.92375 
L 493.99295 237.046217 
L 495.456844 272.98562 
L 496.920737 256.961474 
L 498.38463 255.391406 
L 499.848524 251.159512 
L 501.312417 250.398071 
L 502.776311 245.964732 
L 504.240204 258.930866 
L 505.704098 269.990758 
L 507.167991 248.728775 
L 508.631884 263.641296 
L 510.095778 237.106295 
L 511.559671 248.524143 
L 513.023565 243.168571 
L 514.487458 260.673872 
L 515.951352 250.985745 
L 517.415245 244.267847 
L 518.879139 245.479904 
L 520.343032 244.92363 
L 521.806925 236.936408 
L 523.270819 261.311832 
L 524.734712 240.815972 
L 526.198606 242.069076 
L 527.662499 242.153053 
L 529.126393 243.46925 
L 530.590286 233.806361 
L 533.518073 243.287202 
L 534.981966 231.406294 
L 536.44586 246.803842 
L 537.909753 243.913641 
L 539.373647 235.737157 
L 540.83754 236.861786 
L 542.301433 230.948526 
L 543.765327 242.717421 
L 545.22922 220.453983 
L 546.693114 241.997297 
L 548.157007 228.911426 
L 549.620901 227.223303 
L 551.084794 223.418057 
L 552.548687 223.418057 
L 554.012581 225.571971 
L 555.476474 232.374622 
L 556.940368 233.478843 
L 558.404261 225.09247 
L 559.868155 225.681505 
L 559.874844 519.92375 
M 562.788794 519.92375 
L 562.795942 205.405521 
L 564.259835 233.717462 
L 565.723728 229.272274 
L 567.187622 232.071787 
L 568.651515 224.15754 
L 570.115409 220.761669 
L 571.579302 218.421127 
L 573.043196 220.256205 
L 574.507089 219.569493 
L 575.970982 225.482672 
L 577.434876 227.985856 
L 578.898769 227.013198 
L 580.362663 221.905325 
L 581.826556 217.254263 
L 583.29045 216.373777 
L 584.754343 219.182299 
L 586.218236 223.810211 
L 587.68213 225.429889 
L 589.146023 222.435995 
L 590.609917 216.752553 
L 592.07381 213.121093 
L 593.537704 213.436435 
L 595.001597 216.414285 
L 596.46549 225.598485 
L 597.929384 218.051995 
L 599.393277 219.561483 
L 600.857171 217.134103 
L 602.321064 213.123212 
L 602.328038 519.92375 
M 605.241714 519.92375 
L 605.248851 205.894839 
L 606.712745 229.166543 
L 608.176638 226.279867 
L 609.640531 215.492574 
L 611.104425 211.629923 
L 612.568318 205.650726 
L 612.575461 519.92375 
M 615.488581 519.92375 
L 615.496105 188.766575 
L 616.959999 219.113907 
L 618.423892 217.44909 
L 619.887785 208.661043 
L 621.351679 204.709215 
L 622.815572 201.693854 
L 624.279466 202.098828 
L 627.207253 214.948861 
L 628.671146 216.668202 
L 630.135039 209.643976 
L 631.598933 211.391961 
L 633.062826 211.93483 
L 634.52672 206.169159 
L 635.990613 215.391252 
L 637.454507 217.855432 
L 638.9184 226.953955 
L 641.846187 215.86649 
L 643.31008 213.709908 
L 644.773974 211.936861 
L 646.237867 214.953387 
L 647.701761 222.071354 
L 649.165654 224.560321 
L 650.629547 221.899518 
L 652.093441 225.575284 
L 653.557334 217.038834 
L 655.021228 218.150799 
L 656.485121 209.414903 
L 657.949015 227.709069 
L 659.412908 236.257311 
L 660.876802 219.298422 
L 662.340695 230.764312 
L 663.804588 227.985856 
L 665.268482 216.747726 
L 666.732375 228.810774 
L 668.196269 232.218587 
L 669.660162 236.223302 
L 671.124056 230.589239 
L 672.587949 228.62164 
L 674.051842 225.190326 
L 675.515736 228.327522 
L 676.979629 228.703069 
L 678.443523 237.724563 
L 678.443523 237.724563 
" style="fill:none;stroke:#fc4f30;stroke-width:4;"/>
   </g>
   <g id="patch_3">
    <path d="M 80.51625 494.88 
L 80.51625 28.32 
" style="fill:none;stroke:#f0f0f0;stroke-linecap:square;stroke-linejoin:miter;stroke-width:3;"/>
   </g>
   <g id="patch_4">
    <path d="M 706.91625 494.88 
L 706.91625 28.32 
" style="fill:none;stroke:#f0f0f0;stroke-linecap:square;stroke-linejoin:miter;stroke-width:3;"/>
   </g>
   <g id="patch_5">
    <path d="M 80.51625 494.88 
L 706.91625 494.88 
" style="fill:none;stroke:#f0f0f0;stroke-linecap:square;stroke-linejoin:miter;stroke-width:3;"/>
   </g>
   <g id="patch_6">
    <path d="M 80.51625 28.32 
L 706.91625 28.32 
" style="fill:none;stroke:#f0f0f0;stroke-linecap:square;stroke-linejoin:miter;stroke-width:3;"/>
   </g>
   <g id="text_16">
    <!-- New Cases of COVID-19 -->
    <g transform="translate(285.742125 22.32)scale(0.2016 -0.2016)">
     <defs>
      <path d="M 62.890625 0 
L 53.46875 0 
L 17.671875 54.78125 
L 17.671875 0 
L 8.25 0 
L 8.25 71.09375 
L 17.671875 71.09375 
L 53.5625 16.0625 
L 53.5625 71.09375 
L 62.890625 71.09375 
z
" id="Roboto-Regular-78"/>
      <path d="M 28.765625 -0.984375 
Q 18.015625 -0.984375 11.28125 6.078125 
Q 4.546875 13.140625 4.546875 24.953125 
L 4.546875 26.609375 
Q 4.546875 34.46875 7.546875 40.640625 
Q 10.546875 46.828125 15.9375 50.3125 
Q 21.34375 53.8125 27.640625 53.8125 
Q 37.9375 53.8125 43.640625 47.015625 
Q 49.359375 40.234375 49.359375 27.59375 
L 49.359375 23.828125 
L 13.578125 23.828125 
Q 13.765625 16.015625 18.140625 11.203125 
Q 22.515625 6.390625 29.25 6.390625 
Q 34.03125 6.390625 37.34375 8.34375 
Q 40.671875 10.296875 43.171875 13.53125 
L 48.6875 9.234375 
Q 42.046875 -0.984375 28.765625 -0.984375 
z
M 27.640625 46.390625 
Q 22.171875 46.390625 18.453125 42.40625 
Q 14.75 38.421875 13.875 31.25 
L 40.328125 31.25 
L 40.328125 31.9375 
Q 39.9375 38.8125 36.609375 42.59375 
Q 33.296875 46.390625 27.640625 46.390625 
z
" id="Roboto-Regular-101"/>
      <path d="M 53.609375 12.453125 
L 63.765625 52.828125 
L 72.796875 52.828125 
L 57.421875 0 
L 50.09375 0 
L 37.25 40.046875 
L 24.75 0 
L 17.4375 0 
L 2.09375 52.828125 
L 11.078125 52.828125 
L 21.484375 13.28125 
L 33.796875 52.828125 
L 41.0625 52.828125 
z
" id="Roboto-Regular-119"/>
      <path id="Roboto-Regular-32"/>
      <path d="M 60.546875 22.5625 
Q 59.234375 11.28125 52.21875 5.140625 
Q 45.21875 -0.984375 33.59375 -0.984375 
Q 21 -0.984375 13.40625 8.046875 
Q 5.8125 17.09375 5.8125 32.234375 
L 5.8125 39.0625 
Q 5.8125 48.96875 9.34375 56.484375 
Q 12.890625 64.015625 19.375 68.046875 
Q 25.875 72.078125 34.421875 72.078125 
Q 45.75 72.078125 52.578125 65.75 
Q 59.421875 59.421875 60.546875 48.25 
L 51.125 48.25 
Q 49.90625 56.734375 45.828125 60.546875 
Q 41.75 64.359375 34.421875 64.359375 
Q 25.4375 64.359375 20.328125 57.71875 
Q 15.234375 51.078125 15.234375 38.8125 
L 15.234375 31.9375 
Q 15.234375 20.359375 20.0625 13.515625 
Q 24.90625 6.6875 33.59375 6.6875 
Q 41.40625 6.6875 45.578125 10.21875 
Q 49.75 13.765625 51.125 22.5625 
z
" id="Roboto-Regular-67"/>
      <path d="M 39.453125 0 
Q 38.671875 1.5625 38.1875 5.5625 
Q 31.890625 -0.984375 23.140625 -0.984375 
Q 15.328125 -0.984375 10.328125 3.4375 
Q 5.328125 7.859375 5.328125 14.65625 
Q 5.328125 22.90625 11.59375 27.46875 
Q 17.875 32.03125 29.25 32.03125 
L 38.03125 32.03125 
L 38.03125 36.1875 
Q 38.03125 40.921875 35.203125 43.71875 
Q 32.375 46.53125 26.859375 46.53125 
Q 22.015625 46.53125 18.75 44.09375 
Q 15.484375 41.65625 15.484375 38.1875 
L 6.390625 38.1875 
Q 6.390625 42.140625 9.203125 45.828125 
Q 12.015625 49.515625 16.8125 51.65625 
Q 21.625 53.8125 27.390625 53.8125 
Q 36.53125 53.8125 41.703125 49.234375 
Q 46.875 44.671875 47.078125 36.671875 
L 47.078125 12.359375 
Q 47.078125 5.078125 48.921875 0.78125 
L 48.921875 0 
z
M 24.46875 6.890625 
Q 28.71875 6.890625 32.515625 9.078125 
Q 36.328125 11.28125 38.03125 14.796875 
L 38.03125 25.640625 
L 30.953125 25.640625 
Q 14.359375 25.640625 14.359375 15.921875 
Q 14.359375 11.671875 17.1875 9.28125 
Q 20.015625 6.890625 24.46875 6.890625 
z
" id="Roboto-Regular-97"/>
      <path d="M 37.59375 14.015625 
Q 37.59375 17.671875 34.828125 19.703125 
Q 32.078125 21.734375 25.21875 23.1875 
Q 18.359375 24.65625 14.328125 26.703125 
Q 10.296875 28.765625 8.375 31.59375 
Q 6.453125 34.421875 6.453125 38.328125 
Q 6.453125 44.828125 11.9375 49.3125 
Q 17.4375 53.8125 25.984375 53.8125 
Q 34.96875 53.8125 40.546875 49.171875 
Q 46.140625 44.53125 46.140625 37.3125 
L 37.0625 37.3125 
Q 37.0625 41.015625 33.90625 43.703125 
Q 30.765625 46.390625 25.984375 46.390625 
Q 21.046875 46.390625 18.265625 44.234375 
Q 15.484375 42.09375 15.484375 38.625 
Q 15.484375 35.359375 18.0625 33.6875 
Q 20.65625 32.03125 27.421875 30.515625 
Q 34.1875 29 38.375 26.90625 
Q 42.578125 24.8125 44.59375 21.84375 
Q 46.625 18.890625 46.625 14.65625 
Q 46.625 7.5625 40.953125 3.28125 
Q 35.296875 -0.984375 26.265625 -0.984375 
Q 19.921875 -0.984375 15.03125 1.265625 
Q 10.15625 3.515625 7.390625 7.546875 
Q 4.640625 11.578125 4.640625 16.265625 
L 13.671875 16.265625 
Q 13.921875 11.71875 17.3125 9.046875 
Q 20.703125 6.390625 26.265625 6.390625 
Q 31.390625 6.390625 34.484375 8.46875 
Q 37.59375 10.546875 37.59375 14.015625 
z
" id="Roboto-Regular-115"/>
      <path d="M 4.4375 26.90625 
Q 4.4375 34.671875 7.484375 40.875 
Q 10.546875 47.078125 15.984375 50.4375 
Q 21.4375 53.8125 28.421875 53.8125 
Q 39.203125 53.8125 45.875 46.34375 
Q 52.546875 38.875 52.546875 26.46875 
L 52.546875 25.828125 
Q 52.546875 18.109375 49.578125 11.984375 
Q 46.625 5.859375 41.125 2.4375 
Q 35.640625 -0.984375 28.515625 -0.984375 
Q 17.78125 -0.984375 11.109375 6.484375 
Q 4.4375 13.96875 4.4375 26.265625 
z
M 13.53125 25.828125 
Q 13.53125 17.046875 17.609375 11.71875 
Q 21.6875 6.390625 28.515625 6.390625 
Q 35.40625 6.390625 39.453125 11.78125 
Q 43.5 17.1875 43.5 26.90625 
Q 43.5 35.59375 39.375 40.984375 
Q 35.25 46.390625 28.421875 46.390625 
Q 21.734375 46.390625 17.625 41.0625 
Q 13.53125 35.75 13.53125 25.828125 
z
" id="Roboto-Regular-111"/>
      <path d="M 11.28125 0 
L 11.28125 45.84375 
L 2.9375 45.84375 
L 2.9375 52.828125 
L 11.28125 52.828125 
L 11.28125 58.25 
Q 11.28125 66.75 15.8125 71.390625 
Q 20.359375 76.03125 28.65625 76.03125 
Q 31.78125 76.03125 34.859375 75.203125 
L 34.375 67.875 
Q 32.078125 68.3125 29.5 68.3125 
Q 25.09375 68.3125 22.703125 65.75 
Q 20.3125 63.1875 20.3125 58.40625 
L 20.3125 52.828125 
L 31.59375 52.828125 
L 31.59375 45.84375 
L 20.3125 45.84375 
L 20.3125 0 
z
" id="Roboto-Regular-102"/>
      <path d="M 62.9375 33.25 
Q 62.9375 22.796875 59.421875 15.015625 
Q 55.90625 7.234375 49.453125 3.125 
Q 43.015625 -0.984375 34.421875 -0.984375 
Q 26.03125 -0.984375 19.53125 3.140625 
Q 13.03125 7.28125 9.4375 14.921875 
Q 5.859375 22.5625 5.765625 32.625 
L 5.765625 37.75 
Q 5.765625 48 9.328125 55.859375 
Q 12.890625 63.71875 19.40625 67.890625 
Q 25.921875 72.078125 34.328125 72.078125 
Q 42.875 72.078125 49.390625 67.9375 
Q 55.90625 63.8125 59.421875 55.96875 
Q 62.9375 48.140625 62.9375 37.75 
z
M 53.609375 37.84375 
Q 53.609375 50.484375 48.53125 57.25 
Q 43.453125 64.015625 34.328125 64.015625 
Q 25.4375 64.015625 20.328125 57.25 
Q 15.234375 50.484375 15.09375 38.484375 
L 15.09375 33.25 
Q 15.09375 21 20.234375 13.984375 
Q 25.390625 6.984375 34.421875 6.984375 
Q 43.5 6.984375 48.484375 13.59375 
Q 53.46875 20.21875 53.609375 32.5625 
z
" id="Roboto-Regular-79"/>
      <path d="M 31.78125 12.453125 
L 52.09375 71.09375 
L 62.359375 71.09375 
L 35.984375 0 
L 27.6875 0 
L 1.375 71.09375 
L 11.578125 71.09375 
z
" id="Roboto-Regular-86"/>
      <path d="M 18.3125 0 
L 8.9375 0 
L 8.9375 71.09375 
L 18.3125 71.09375 
z
" id="Roboto-Regular-73"/>
      <path d="M 8.25 0 
L 8.25 71.09375 
L 28.328125 71.09375 
Q 37.59375 71.09375 44.71875 66.984375 
Q 51.859375 62.890625 55.734375 55.3125 
Q 59.625 47.75 59.671875 37.9375 
L 59.671875 33.40625 
Q 59.671875 23.34375 55.78125 15.765625 
Q 51.90625 8.203125 44.703125 4.140625 
Q 37.5 0.09375 27.9375 0 
z
M 17.625 63.375 
L 17.625 7.671875 
L 27.484375 7.671875 
Q 38.328125 7.671875 44.359375 14.40625 
Q 50.390625 21.140625 50.390625 33.59375 
L 50.390625 37.75 
Q 50.390625 49.859375 44.703125 56.5625 
Q 39.015625 63.28125 28.5625 63.375 
z
" id="Roboto-Regular-68"/>
      <path d="M 25.640625 26.515625 
L 1.8125 26.515625 
L 1.8125 33.890625 
L 25.640625 33.890625 
z
" id="Roboto-Regular-45"/>
      <path d="M 35.59375 0 
L 26.515625 0 
L 26.515625 60.203125 
L 8.296875 53.515625 
L 8.296875 61.71875 
L 34.1875 71.4375 
L 35.59375 71.4375 
z
" id="Roboto-Regular-49"/>
      <path d="M 40.53125 31.25 
Q 37.703125 27.875 33.765625 25.828125 
Q 29.828125 23.78125 25.140625 23.78125 
Q 19 23.78125 14.421875 26.796875 
Q 9.859375 29.828125 7.375 35.328125 
Q 4.890625 40.828125 4.890625 47.46875 
Q 4.890625 54.59375 7.59375 60.296875 
Q 10.296875 66.015625 15.28125 69.046875 
Q 20.265625 72.078125 26.90625 72.078125 
Q 37.453125 72.078125 43.53125 64.1875 
Q 49.609375 56.296875 49.609375 42.671875 
L 49.609375 40.046875 
Q 49.609375 19.28125 41.40625 9.734375 
Q 33.203125 0.203125 16.65625 -0.046875 
L 14.890625 -0.046875 
L 14.890625 7.5625 
L 16.796875 7.5625 
Q 27.984375 7.765625 33.984375 13.40625 
Q 39.984375 19.046875 40.53125 31.25 
z
M 26.609375 31.25 
Q 31.15625 31.25 34.984375 34.03125 
Q 38.8125 36.8125 40.578125 40.921875 
L 40.578125 44.53125 
Q 40.578125 53.421875 36.71875 58.984375 
Q 32.859375 64.546875 26.953125 64.546875 
Q 21 64.546875 17.375 59.984375 
Q 13.765625 55.421875 13.765625 47.953125 
Q 13.765625 40.671875 17.25 35.953125 
Q 20.75 31.25 26.609375 31.25 
z
" id="Roboto-Regular-57"/>
     </defs>
     <use xlink:href="#Roboto-Regular-78"/>
     <use x="71.289062" xlink:href="#Roboto-Regular-101"/>
     <use x="124.267578" xlink:href="#Roboto-Regular-119"/>
     <use x="199.414062" xlink:href="#Roboto-Regular-32"/>
     <use x="224.169922" xlink:href="#Roboto-Regular-67"/>
     <use x="289.257812" xlink:href="#Roboto-Regular-97"/>
     <use x="343.652344" xlink:href="#Roboto-Regular-115"/>
     <use x="395.214844" xlink:href="#Roboto-Regular-101"/>
     <use x="448.193359" xlink:href="#Roboto-Regular-115"/>
     <use x="499.755859" xlink:href="#Roboto-Regular-32"/>
     <use x="524.511719" xlink:href="#Roboto-Regular-111"/>
     <use x="581.542969" xlink:href="#Roboto-Regular-102"/>
     <use x="616.259766" xlink:href="#Roboto-Regular-32"/>
     <use x="641.015625" xlink:href="#Roboto-Regular-67"/>
     <use x="706.103516" xlink:href="#Roboto-Regular-79"/>
     <use x="774.853516" xlink:href="#Roboto-Regular-86"/>
     <use x="838.476562" xlink:href="#Roboto-Regular-73"/>
     <use x="865.673828" xlink:href="#Roboto-Regular-68"/>
     <use x="931.25" xlink:href="#Roboto-Regular-45"/>
     <use x="958.837891" xlink:href="#Roboto-Regular-49"/>
     <use x="1014.990234" xlink:href="#Roboto-Regular-57"/>
    </g>
   </g>
   <g id="legend_1">
    <g id="patch_7">
     <path d="M 568.200312 80.2075 
L 697.11625 80.2075 
Q 699.91625 80.2075 699.91625 77.4075 
L 699.91625 38.12 
Q 699.91625 35.32 697.11625 35.32 
L 568.200312 35.32 
Q 565.400312 35.32 565.400312 38.12 
L 565.400312 77.4075 
Q 565.400312 80.2075 568.200312 80.2075 
z
" style="fill:#f0f0f0;opacity:0.8;stroke:#cccccc;stroke-linejoin:miter;stroke-width:0.5;"/>
    </g>
    <g id="line2d_93">
     <path d="M 571.000312 46.52 
L 599.000312 46.52 
" style="fill:none;stroke:#008fd5;stroke-width:4;"/>
    </g>
    <g id="line2d_94"/>
    <g id="text_17">
     <!-- United States -->
     <g transform="translate(610.200312 51.42)scale(0.14 -0.14)">
      <defs>
       <path d="M 59.234375 71.09375 
L 59.234375 23.578125 
Q 59.234375 12.25 51.984375 5.625 
Q 44.734375 -0.984375 32.671875 -0.984375 
Q 20.453125 -0.984375 13.28125 5.53125 
Q 6.109375 12.0625 6.109375 23.640625 
L 6.109375 71.09375 
L 18.40625 71.09375 
L 18.40625 23.53125 
Q 18.40625 16.40625 22.015625 12.640625 
Q 25.640625 8.890625 32.671875 8.890625 
Q 46.921875 8.890625 46.921875 23.921875 
L 46.921875 71.09375 
z
" id="Roboto-Medium-85"/>
       <path d="M 17.09375 52.828125 
L 17.4375 46.734375 
Q 23.296875 53.8125 32.8125 53.8125 
Q 49.3125 53.8125 49.609375 34.90625 
L 49.609375 0 
L 37.75 0 
L 37.75 34.234375 
Q 37.75 39.265625 35.578125 41.671875 
Q 33.40625 44.09375 28.46875 44.09375 
Q 21.296875 44.09375 17.78125 37.59375 
L 17.78125 0 
L 5.90625 0 
L 5.90625 52.828125 
z
" id="Roboto-Medium-110"/>
       <path d="M 18.703125 0 
L 6.84375 0 
L 6.84375 52.828125 
L 18.703125 52.828125 
z
M 6.109375 66.546875 
Q 6.109375 69.28125 7.84375 71.09375 
Q 9.578125 72.90625 12.796875 72.90625 
Q 16.015625 72.90625 17.765625 71.09375 
Q 19.53125 69.28125 19.53125 66.546875 
Q 19.53125 63.875 17.765625 62.078125 
Q 16.015625 60.296875 12.796875 60.296875 
Q 9.578125 60.296875 7.84375 62.078125 
Q 6.109375 63.875 6.109375 66.546875 
z
" id="Roboto-Medium-105"/>
       <path d="M 20.953125 65.671875 
L 20.953125 52.828125 
L 30.28125 52.828125 
L 30.28125 44.046875 
L 20.953125 44.046875 
L 20.953125 14.546875 
Q 20.953125 11.53125 22.140625 10.1875 
Q 23.34375 8.84375 26.421875 8.84375 
Q 28.46875 8.84375 30.5625 9.328125 
L 30.5625 0.140625 
Q 26.515625 -0.984375 22.75 -0.984375 
Q 9.078125 -0.984375 9.078125 14.109375 
L 9.078125 44.046875 
L 0.390625 44.046875 
L 0.390625 52.828125 
L 9.078125 52.828125 
L 9.078125 65.671875 
z
" id="Roboto-Medium-116"/>
       <path d="M 29.34375 -0.984375 
Q 18.0625 -0.984375 11.046875 6.125 
Q 4.046875 13.234375 4.046875 25.046875 
L 4.046875 26.515625 
Q 4.046875 34.421875 7.09375 40.640625 
Q 10.15625 46.875 15.671875 50.34375 
Q 21.1875 53.8125 27.984375 53.8125 
Q 38.765625 53.8125 44.640625 46.921875 
Q 50.53125 40.046875 50.53125 27.4375 
L 50.53125 22.65625 
L 16.015625 22.65625 
Q 16.546875 16.109375 20.375 12.296875 
Q 24.21875 8.5 30.03125 8.5 
Q 38.1875 8.5 43.3125 15.09375 
L 49.703125 8.984375 
Q 46.53125 4.25 41.234375 1.625 
Q 35.9375 -0.984375 29.34375 -0.984375 
z
M 27.9375 44.28125 
Q 23.046875 44.28125 20.046875 40.859375 
Q 17.046875 37.453125 16.21875 31.34375 
L 38.8125 31.34375 
L 38.8125 32.234375 
Q 38.421875 38.1875 35.640625 41.234375 
Q 32.859375 44.28125 27.9375 44.28125 
z
" id="Roboto-Medium-101"/>
       <path d="M 3.859375 26.8125 
Q 3.859375 39.015625 9.515625 46.40625 
Q 15.1875 53.8125 24.703125 53.8125 
Q 33.109375 53.8125 38.28125 47.953125 
L 38.28125 75 
L 50.140625 75 
L 50.140625 0 
L 39.40625 0 
L 38.8125 5.46875 
Q 33.5 -0.984375 24.609375 -0.984375 
Q 15.328125 -0.984375 9.59375 6.484375 
Q 3.859375 13.96875 3.859375 26.8125 
z
M 15.71875 25.78125 
Q 15.71875 17.71875 18.8125 13.203125 
Q 21.921875 8.6875 27.640625 8.6875 
Q 34.90625 8.6875 38.28125 15.1875 
L 38.28125 37.75 
Q 35.015625 44.09375 27.734375 44.09375 
Q 21.96875 44.09375 18.84375 39.53125 
Q 15.71875 34.96875 15.71875 25.78125 
z
" id="Roboto-Medium-100"/>
       <path id="Roboto-Medium-32"/>
       <path d="M 44.390625 18.3125 
Q 44.390625 23 41.09375 25.53125 
Q 37.796875 28.078125 29.203125 30.65625 
Q 20.609375 33.25 15.53125 36.421875 
Q 5.8125 42.53125 5.8125 52.34375 
Q 5.8125 60.9375 12.8125 66.5 
Q 19.828125 72.078125 31 72.078125 
Q 38.421875 72.078125 44.234375 69.34375 
Q 50.046875 66.609375 53.359375 61.546875 
Q 56.6875 56.5 56.6875 50.34375 
L 44.390625 50.34375 
Q 44.390625 55.90625 40.890625 59.046875 
Q 37.40625 62.203125 30.90625 62.203125 
Q 24.859375 62.203125 21.515625 59.609375 
Q 18.171875 57.03125 18.171875 52.390625 
Q 18.171875 48.484375 21.78125 45.875 
Q 25.390625 43.265625 33.6875 40.796875 
Q 42 38.328125 47.015625 35.171875 
Q 52.046875 32.03125 54.390625 27.953125 
Q 56.734375 23.875 56.734375 18.40625 
Q 56.734375 9.515625 49.921875 4.265625 
Q 43.109375 -0.984375 31.453125 -0.984375 
Q 23.734375 -0.984375 17.265625 1.875 
Q 10.796875 4.734375 7.203125 9.765625 
Q 3.609375 14.796875 3.609375 21.484375 
L 15.96875 21.484375 
Q 15.96875 15.4375 19.96875 12.109375 
Q 23.96875 8.796875 31.453125 8.796875 
Q 37.890625 8.796875 41.140625 11.40625 
Q 44.390625 14.015625 44.390625 18.3125 
z
" id="Roboto-Medium-83"/>
       <path d="M 37.640625 0 
Q 36.859375 1.515625 36.28125 4.9375 
Q 30.609375 -0.984375 22.40625 -0.984375 
Q 14.453125 -0.984375 9.421875 3.5625 
Q 4.390625 8.109375 4.390625 14.796875 
Q 4.390625 23.25 10.65625 27.765625 
Q 16.9375 32.28125 28.609375 32.28125 
L 35.890625 32.28125 
L 35.890625 35.75 
Q 35.890625 39.84375 33.59375 42.3125 
Q 31.296875 44.78125 26.609375 44.78125 
Q 22.5625 44.78125 19.96875 42.75 
Q 17.390625 40.71875 17.390625 37.59375 
L 5.515625 37.59375 
Q 5.515625 41.9375 8.390625 45.71875 
Q 11.28125 49.515625 16.234375 51.65625 
Q 21.1875 53.8125 27.296875 53.8125 
Q 36.578125 53.8125 42.09375 49.140625 
Q 47.609375 44.484375 47.75 36.03125 
L 47.75 12.203125 
Q 47.75 5.078125 49.75 0.828125 
L 49.75 0 
z
M 24.609375 8.546875 
Q 28.125 8.546875 31.21875 10.25 
Q 34.328125 11.96875 35.890625 14.84375 
L 35.890625 24.8125 
L 29.5 24.8125 
Q 22.90625 24.8125 19.578125 22.515625 
Q 16.265625 20.21875 16.265625 16.015625 
Q 16.265625 12.59375 18.53125 10.5625 
Q 20.796875 8.546875 24.609375 8.546875 
z
" id="Roboto-Medium-97"/>
       <path d="M 35.6875 14.359375 
Q 35.6875 17.53125 33.078125 19.1875 
Q 30.46875 20.84375 24.40625 22.109375 
Q 18.359375 23.390625 14.3125 25.34375 
Q 5.421875 29.640625 5.421875 37.796875 
Q 5.421875 44.625 11.171875 49.21875 
Q 16.9375 53.8125 25.828125 53.8125 
Q 35.296875 53.8125 41.125 49.125 
Q 46.96875 44.4375 46.96875 36.96875 
L 35.109375 36.96875 
Q 35.109375 40.375 32.5625 42.640625 
Q 30.03125 44.921875 25.828125 44.921875 
Q 21.921875 44.921875 19.453125 43.109375 
Q 17 41.3125 17 38.28125 
Q 17 35.546875 19.28125 34.03125 
Q 21.578125 32.515625 28.5625 30.96875 
Q 35.546875 29.4375 39.515625 27.3125 
Q 43.5 25.203125 45.421875 22.21875 
Q 47.359375 19.234375 47.359375 14.984375 
Q 47.359375 7.859375 41.453125 3.4375 
Q 35.546875 -0.984375 25.984375 -0.984375 
Q 19.484375 -0.984375 14.40625 1.359375 
Q 9.328125 3.71875 6.484375 7.8125 
Q 3.65625 11.921875 3.65625 16.65625 
L 15.1875 16.65625 
Q 15.4375 12.453125 18.359375 10.171875 
Q 21.296875 7.90625 26.125 7.90625 
Q 30.8125 7.90625 33.25 9.6875 
Q 35.6875 11.46875 35.6875 14.359375 
z
" id="Roboto-Medium-115"/>
      </defs>
      <use xlink:href="#Roboto-Medium-85"/>
      <use x="65.185547" xlink:href="#Roboto-Medium-110"/>
      <use x="120.800781" xlink:href="#Roboto-Medium-105"/>
      <use x="146.337891" xlink:href="#Roboto-Medium-116"/>
      <use x="179.589844" xlink:href="#Roboto-Medium-101"/>
      <use x="233.251953" xlink:href="#Roboto-Medium-100"/>
      <use x="289.697266" xlink:href="#Roboto-Medium-32"/>
      <use x="314.599609" xlink:href="#Roboto-Medium-83"/>
      <use x="374.951172" xlink:href="#Roboto-Medium-116"/>
      <use x="408.203125" xlink:href="#Roboto-Medium-97"/>
      <use x="462.304688" xlink:href="#Roboto-Medium-116"/>
      <use x="495.556641" xlink:href="#Roboto-Medium-101"/>
      <use x="549.21875" xlink:href="#Roboto-Medium-115"/>
     </g>
    </g>
    <g id="line2d_95">
     <path d="M 571.000312 66.86375 
L 599.000312 66.86375 
" style="fill:none;stroke:#fc4f30;stroke-width:4;"/>
    </g>
    <g id="line2d_96"/>
    <g id="text_18">
     <!-- Florida -->
     <g transform="translate(610.200312 71.76375)scale(0.14 -0.14)">
      <defs>
       <path d="M 48.1875 30.125 
L 19.578125 30.125 
L 19.578125 0 
L 7.234375 0 
L 7.234375 71.09375 
L 52.390625 71.09375 
L 52.390625 61.140625 
L 19.578125 61.140625 
L 19.578125 39.984375 
L 48.1875 39.984375 
z
" id="Roboto-Medium-70"/>
       <path d="M 18.703125 0 
L 6.84375 0 
L 6.84375 75 
L 18.703125 75 
z
" id="Roboto-Medium-108"/>
       <path d="M 3.859375 26.90625 
Q 3.859375 34.671875 6.9375 40.890625 
Q 10.015625 47.125 15.578125 50.46875 
Q 21.140625 53.8125 28.375 53.8125 
Q 39.0625 53.8125 45.71875 46.921875 
Q 52.390625 40.046875 52.9375 28.65625 
L 52.984375 25.875 
Q 52.984375 18.0625 49.96875 11.90625 
Q 46.96875 5.765625 41.375 2.390625 
Q 35.796875 -0.984375 28.46875 -0.984375 
Q 17.28125 -0.984375 10.5625 6.46875 
Q 3.859375 13.921875 3.859375 26.3125 
z
M 15.71875 25.875 
Q 15.71875 17.71875 19.09375 13.109375 
Q 22.46875 8.5 28.46875 8.5 
Q 34.46875 8.5 37.8125 13.1875 
Q 41.15625 17.875 41.15625 26.90625 
Q 41.15625 34.90625 37.71875 39.59375 
Q 34.28125 44.28125 28.375 44.28125 
Q 22.5625 44.28125 19.140625 39.671875 
Q 15.71875 35.0625 15.71875 25.875 
z
" id="Roboto-Medium-111"/>
       <path d="M 33.734375 42 
Q 31.390625 42.390625 28.90625 42.390625 
Q 20.75 42.390625 17.921875 36.140625 
L 17.921875 0 
L 6.0625 0 
L 6.0625 52.828125 
L 17.390625 52.828125 
L 17.671875 46.921875 
Q 21.96875 53.8125 29.59375 53.8125 
Q 32.125 53.8125 33.796875 53.125 
z
" id="Roboto-Medium-114"/>
      </defs>
      <use xlink:href="#Roboto-Medium-70"/>
      <use x="54.931641" xlink:href="#Roboto-Medium-108"/>
      <use x="80.46875" xlink:href="#Roboto-Medium-111"/>
      <use x="137.402344" xlink:href="#Roboto-Medium-114"/>
      <use x="172.558594" xlink:href="#Roboto-Medium-105"/>
      <use x="198.095703" xlink:href="#Roboto-Medium-100"/>
      <use x="254.541016" xlink:href="#Roboto-Medium-97"/>
     </g>
    </g>
   </g>
  </g>
 </g>
 <defs>
  <clipPath id="p7241f8e8a5">
   <rect height="466.56" width="626.4" x="80.51625" y="28.32"/>
  </clipPath>
 </defs>
</svg>
