<?xml version="1.0" encoding="utf-8" standalone="no"?>
<!DOCTYPE svg PUBLIC "-//W3C//DTD SVG 1.1//EN"
  "http://www.w3.org/Graphics/SVG/1.1/DTD/svg11.dtd">
<!-- Created with matplotlib (https://matplotlib.org/) -->
<svg height="495.132081pt" version="1.1" viewBox="0 0 660.88125 495.132081" width="660.88125pt" xmlns="http://www.w3.org/2000/svg" xmlns:xlink="http://www.w3.org/1999/xlink">
 <metadata>
  <rdf:RDF xmlns:cc="http://creativecommons.org/ns#" xmlns:dc="http://purl.org/dc/elements/1.1/" xmlns:rdf="http://www.w3.org/1999/02/22-rdf-syntax-ns#">
   <cc:Work>
    <dc:type rdf:resource="http://purl.org/dc/dcmitype/StillImage"/>
    <dc:date>2021-07-31T15:04:51.481264</dc:date>
    <dc:format>image/svg+xml</dc:format>
    <dc:creator>
     <cc:Agent>
      <dc:title>Matplotlib v3.3.4, https://matplotlib.org/</dc:title>
     </cc:Agent>
    </dc:creator>
   </cc:Work>
  </rdf:RDF>
 </metadata>
 <defs>
  <style type="text/css">*{stroke-linecap:butt;stroke-linejoin:round;}</style>
 </defs>
 <g id="figure_1">
  <g id="patch_1">
   <path d="M 0 495.132081 
L 660.88125 495.132081 
L 660.88125 0 
L 0 0 
z
" style="fill:#f0f0f0;"/>
  </g>
  <g id="axes_1">
   <g id="patch_2">
    <path d="M 95.68125 440.5555 
L 653.68125 440.5555 
L 653.68125 31.5955 
L 95.68125 31.5955 
z
" style="fill:#f0f0f0;"/>
   </g>
   <g id="matplotlib.axis_1">
    <g id="xtick_1">
     <g id="line2d_1">
      <path clip-path="url(#p35ed8629b9)" d="M 99.487291 440.5555 
L 99.487291 31.5955 
" style="fill:none;stroke:#cbcbcb;"/>
     </g>
     <g id="line2d_2"/>
     <g id="text_1">
      <!-- 12/28 -->
      <g style="fill:#555555;" transform="translate(67.109505 470.610079)rotate(-30)scale(0.14 -0.14)">
       <defs>
        <path d="M 35.59375 0 
L 35.59375 70.90625 
L 29.09375 70.90625 
Q 28.40625 66.90625 26.5 64.296875 
Q 24.59375 61.703125 21.84375 60.203125 
Q 19.09375 58.703125 15.6875 58.140625 
Q 12.296875 57.59375 8.703125 57.59375 
L 8.703125 50.796875 
L 27.09375 50.796875 
L 27.09375 0 
z
" id="HelveticaNeue-49"/>
        <path d="M 4.40625 45.796875 
L 12.90625 45.796875 
Q 12.796875 49 13.546875 52.140625 
Q 14.296875 55.296875 16 57.796875 
Q 17.703125 60.296875 20.34375 61.84375 
Q 23 63.40625 26.703125 63.40625 
Q 29.5 63.40625 32 62.5 
Q 34.5 61.59375 36.34375 59.890625 
Q 38.203125 58.203125 39.296875 55.84375 
Q 40.40625 53.5 40.40625 50.59375 
Q 40.40625 46.90625 39.25 44.09375 
Q 38.09375 41.296875 35.84375 38.890625 
Q 33.59375 36.5 30.1875 34.140625 
Q 26.796875 31.796875 22.296875 29 
Q 18.59375 26.796875 15.1875 24.296875 
Q 11.796875 21.796875 9.09375 18.5 
Q 6.40625 15.203125 4.65625 10.75 
Q 2.90625 6.296875 2.40625 0 
L 48.703125 0 
L 48.703125 7.5 
L 12.296875 7.5 
Q 12.90625 10.796875 14.84375 13.34375 
Q 16.796875 15.90625 19.546875 18.09375 
Q 22.296875 20.296875 25.59375 22.25 
Q 28.90625 24.203125 32.203125 26.203125 
Q 35.5 28.296875 38.59375 30.59375 
Q 41.703125 32.90625 44.09375 35.75 
Q 46.5 38.59375 47.953125 42.1875 
Q 49.40625 45.796875 49.40625 50.5 
Q 49.40625 55.5 47.65625 59.296875 
Q 45.90625 63.09375 42.90625 65.640625 
Q 39.90625 68.203125 35.84375 69.546875 
Q 31.796875 70.90625 27.203125 70.90625 
Q 21.59375 70.90625 17.1875 69 
Q 12.796875 67.09375 9.84375 63.75 
Q 6.90625 60.40625 5.5 55.796875 
Q 4.09375 51.203125 4.40625 45.796875 
z
" id="HelveticaNeue-50"/>
        <path d="M 27.796875 73.09375 
L -1.703125 -1.59375 
L 5.5 -1.59375 
L 35.09375 73.09375 
z
" id="HelveticaNeue-47"/>
        <path d="M 15.5 52.5 
Q 15.5 55.203125 16.5 57.203125 
Q 17.5 59.203125 19.140625 60.59375 
Q 20.796875 62 23.09375 62.703125 
Q 25.40625 63.40625 27.90625 63.40625 
Q 33.09375 63.40625 36.4375 60.65625 
Q 39.796875 57.90625 39.796875 52.5 
Q 39.796875 47.09375 36.5 44.09375 
Q 33.203125 41.09375 28.09375 41.09375 
Q 25.5 41.09375 23.203125 41.796875 
Q 20.90625 42.5 19.203125 43.890625 
Q 17.5 45.296875 16.5 47.4375 
Q 15.5 49.59375 15.5 52.5 
z
M 6.5 52.796875 
Q 6.5 48 9.203125 43.953125 
Q 11.90625 39.90625 16.40625 38.09375 
Q 10.40625 36 7.203125 31.34375 
Q 4 26.703125 4 20.40625 
Q 4 15 5.84375 10.953125 
Q 7.703125 6.90625 10.953125 4.203125 
Q 14.203125 1.5 18.59375 0.203125 
Q 23 -1.09375 28.09375 -1.09375 
Q 33 -1.09375 37.296875 0.296875 
Q 41.59375 1.703125 44.75 4.453125 
Q 47.90625 7.203125 49.75 11.203125 
Q 51.59375 15.203125 51.59375 20.40625 
Q 51.59375 27 48.5 31.546875 
Q 45.40625 36.09375 39 38.09375 
Q 43.5 40.09375 46.140625 44.046875 
Q 48.796875 48 48.796875 52.796875 
Q 48.796875 56.203125 47.59375 59.453125 
Q 46.40625 62.703125 43.84375 65.25 
Q 41.296875 67.796875 37.1875 69.34375 
Q 33.09375 70.90625 27.296875 70.90625 
Q 23.203125 70.90625 19.453125 69.703125 
Q 15.703125 68.5 12.796875 66.203125 
Q 9.90625 63.90625 8.203125 60.546875 
Q 6.5 57.203125 6.5 52.796875 
z
M 13 20 
Q 13 23.09375 14.140625 25.59375 
Q 15.296875 28.09375 17.34375 29.890625 
Q 19.40625 31.703125 22.15625 32.640625 
Q 24.90625 33.59375 28 33.59375 
Q 31 33.59375 33.640625 32.546875 
Q 36.296875 31.5 38.296875 29.703125 
Q 40.296875 27.90625 41.4375 25.453125 
Q 42.59375 23 42.59375 20.09375 
Q 42.59375 17.09375 41.546875 14.59375 
Q 40.5 12.09375 38.546875 10.25 
Q 36.59375 8.40625 33.9375 7.34375 
Q 31.296875 6.296875 28.09375 6.296875 
Q 21.5 6.296875 17.25 9.9375 
Q 13 13.59375 13 20 
z
" id="HelveticaNeue-56"/>
       </defs>
       <use xlink:href="#HelveticaNeue-49"/>
       <use x="55.599991" xlink:href="#HelveticaNeue-50"/>
       <use x="111.199982" xlink:href="#HelveticaNeue-47"/>
       <use x="144.499969" xlink:href="#HelveticaNeue-50"/>
       <use x="200.09996" xlink:href="#HelveticaNeue-56"/>
      </g>
     </g>
    </g>
    <g id="xtick_2">
     <g id="line2d_3">
      <path clip-path="url(#p35ed8629b9)" d="M 112.260345 440.5555 
L 112.260345 31.5955 
" style="fill:none;stroke:#cbcbcb;"/>
     </g>
     <g id="line2d_4"/>
     <g id="text_2">
      <!-- 01/11 -->
      <g style="fill:#555555;" transform="translate(79.882559 470.610079)rotate(-30)scale(0.14 -0.14)">
       <defs>
        <path d="M 13.203125 34.90625 
Q 13.203125 37.5 13.25 40.640625 
Q 13.296875 43.796875 13.75 46.9375 
Q 14.203125 50.09375 15.046875 53.09375 
Q 15.90625 56.09375 17.546875 58.34375 
Q 19.203125 60.59375 21.703125 62 
Q 24.203125 63.40625 27.796875 63.40625 
Q 31.40625 63.40625 33.90625 62 
Q 36.40625 60.59375 38.046875 58.34375 
Q 39.703125 56.09375 40.546875 53.09375 
Q 41.40625 50.09375 41.84375 46.9375 
Q 42.296875 43.796875 42.34375 40.640625 
Q 42.40625 37.5 42.40625 34.90625 
Q 42.40625 30.90625 42.15625 25.953125 
Q 41.90625 21 40.546875 16.640625 
Q 39.203125 12.296875 36.203125 9.296875 
Q 33.203125 6.296875 27.796875 6.296875 
Q 22.40625 6.296875 19.40625 9.296875 
Q 16.40625 12.296875 15.046875 16.640625 
Q 13.703125 21 13.453125 25.953125 
Q 13.203125 30.90625 13.203125 34.90625 
z
M 4.203125 34.796875 
Q 4.203125 30.90625 4.390625 26.703125 
Q 4.59375 22.5 5.390625 18.5 
Q 6.203125 14.5 7.703125 10.953125 
Q 9.203125 7.40625 11.796875 4.703125 
Q 14.40625 2 18.34375 0.453125 
Q 22.296875 -1.09375 27.796875 -1.09375 
Q 33.40625 -1.09375 37.296875 0.453125 
Q 41.203125 2 43.796875 4.703125 
Q 46.40625 7.40625 47.90625 10.953125 
Q 49.40625 14.5 50.203125 18.5 
Q 51 22.5 51.203125 26.703125 
Q 51.40625 30.90625 51.40625 34.796875 
Q 51.40625 38.703125 51.203125 42.890625 
Q 51 47.09375 50.203125 51.09375 
Q 49.40625 55.09375 47.90625 58.6875 
Q 46.40625 62.296875 43.796875 65 
Q 41.203125 67.703125 37.25 69.296875 
Q 33.296875 70.90625 27.796875 70.90625 
Q 22.296875 70.90625 18.34375 69.296875 
Q 14.40625 67.703125 11.796875 65 
Q 9.203125 62.296875 7.703125 58.6875 
Q 6.203125 55.09375 5.390625 51.09375 
Q 4.59375 47.09375 4.390625 42.890625 
Q 4.203125 38.703125 4.203125 34.796875 
z
" id="HelveticaNeue-48"/>
       </defs>
       <use xlink:href="#HelveticaNeue-48"/>
       <use x="55.599991" xlink:href="#HelveticaNeue-49"/>
       <use x="111.199982" xlink:href="#HelveticaNeue-47"/>
       <use x="144.499969" xlink:href="#HelveticaNeue-49"/>
       <use x="200.09996" xlink:href="#HelveticaNeue-49"/>
      </g>
     </g>
    </g>
    <g id="xtick_3">
     <g id="line2d_5">
      <path clip-path="url(#p35ed8629b9)" d="M 125.0334 440.5555 
L 125.0334 31.5955 
" style="fill:none;stroke:#cbcbcb;"/>
     </g>
     <g id="line2d_6"/>
     <g id="text_3">
      <!-- 01/25 -->
      <g style="fill:#555555;" transform="translate(92.655613 470.610079)rotate(-30)scale(0.14 -0.14)">
       <defs>
        <path d="M 47 62.203125 
L 47 69.703125 
L 12 69.703125 
L 5.40625 32.90625 
L 12.703125 32.5 
Q 15.203125 35.5 18.453125 37.34375 
Q 21.703125 39.203125 25.90625 39.203125 
Q 29.5 39.203125 32.453125 38 
Q 35.40625 36.796875 37.5 34.640625 
Q 39.59375 32.5 40.75 29.546875 
Q 41.90625 26.59375 41.90625 23.09375 
Q 41.90625 18.90625 40.703125 15.75 
Q 39.5 12.59375 37.453125 10.5 
Q 35.40625 8.40625 32.65625 7.34375 
Q 29.90625 6.296875 26.90625 6.296875 
Q 23.703125 6.296875 21.046875 7.25 
Q 18.40625 8.203125 16.453125 9.953125 
Q 14.5 11.703125 13.34375 14.046875 
Q 12.203125 16.40625 12 19.09375 
L 3.5 19.09375 
Q 3.59375 14.296875 5.390625 10.5 
Q 7.203125 6.703125 10.296875 4.140625 
Q 13.40625 1.59375 17.453125 0.25 
Q 21.5 -1.09375 26.09375 -1.09375 
Q 32.296875 -1.09375 36.9375 0.84375 
Q 41.59375 2.796875 44.6875 6.09375 
Q 47.796875 9.40625 49.34375 13.65625 
Q 50.90625 17.90625 50.90625 22.40625 
Q 50.90625 28.5 49.09375 33.046875 
Q 47.296875 37.59375 44.1875 40.640625 
Q 41.09375 43.703125 36.890625 45.203125 
Q 32.703125 46.703125 28 46.703125 
Q 24.40625 46.703125 20.75 45.453125 
Q 17.09375 44.203125 14.796875 41.59375 
L 14.59375 41.796875 
L 18.40625 62.203125 
z
" id="HelveticaNeue-53"/>
       </defs>
       <use xlink:href="#HelveticaNeue-48"/>
       <use x="55.599991" xlink:href="#HelveticaNeue-49"/>
       <use x="111.199982" xlink:href="#HelveticaNeue-47"/>
       <use x="144.499969" xlink:href="#HelveticaNeue-50"/>
       <use x="200.09996" xlink:href="#HelveticaNeue-53"/>
      </g>
     </g>
    </g>
    <g id="xtick_4">
     <g id="line2d_7">
      <path clip-path="url(#p35ed8629b9)" d="M 137.806454 440.5555 
L 137.806454 31.5955 
" style="fill:none;stroke:#cbcbcb;"/>
     </g>
     <g id="line2d_8"/>
     <g id="text_4">
      <!-- 02/08 -->
      <g style="fill:#555555;" transform="translate(105.428668 470.610079)rotate(-30)scale(0.14 -0.14)">
       <use xlink:href="#HelveticaNeue-48"/>
       <use x="55.599991" xlink:href="#HelveticaNeue-50"/>
       <use x="111.199982" xlink:href="#HelveticaNeue-47"/>
       <use x="144.499969" xlink:href="#HelveticaNeue-48"/>
       <use x="200.09996" xlink:href="#HelveticaNeue-56"/>
      </g>
     </g>
    </g>
    <g id="xtick_5">
     <g id="line2d_9">
      <path clip-path="url(#p35ed8629b9)" d="M 150.579508 440.5555 
L 150.579508 31.5955 
" style="fill:none;stroke:#cbcbcb;"/>
     </g>
     <g id="line2d_10"/>
     <g id="text_5">
      <!-- 02/22 -->
      <g style="fill:#555555;" transform="translate(118.201722 470.610079)rotate(-30)scale(0.14 -0.14)">
       <use xlink:href="#HelveticaNeue-48"/>
       <use x="55.599991" xlink:href="#HelveticaNeue-50"/>
       <use x="111.199982" xlink:href="#HelveticaNeue-47"/>
       <use x="144.499969" xlink:href="#HelveticaNeue-50"/>
       <use x="200.09996" xlink:href="#HelveticaNeue-50"/>
      </g>
     </g>
    </g>
    <g id="xtick_6">
     <g id="line2d_11">
      <path clip-path="url(#p35ed8629b9)" d="M 163.352562 440.5555 
L 163.352562 31.5955 
" style="fill:none;stroke:#cbcbcb;"/>
     </g>
     <g id="line2d_12"/>
     <g id="text_6">
      <!-- 03/07 -->
      <g style="fill:#555555;" transform="translate(130.974776 470.610079)rotate(-30)scale(0.14 -0.14)">
       <defs>
        <path d="M 21.796875 40.5 
L 21.796875 33.296875 
Q 24.203125 33.59375 26.90625 33.59375 
Q 30.09375 33.59375 32.84375 32.75 
Q 35.59375 31.90625 37.59375 30.15625 
Q 39.59375 28.40625 40.796875 25.84375 
Q 42 23.296875 42 20 
Q 42 16.796875 40.75 14.25 
Q 39.5 11.703125 37.390625 9.953125 
Q 35.296875 8.203125 32.5 7.25 
Q 29.703125 6.296875 26.59375 6.296875 
Q 19.296875 6.296875 15.5 10.640625 
Q 11.703125 15 11.5 21.90625 
L 3 21.90625 
Q 2.90625 16.40625 4.546875 12.09375 
Q 6.203125 7.796875 9.296875 4.84375 
Q 12.40625 1.90625 16.796875 0.40625 
Q 21.203125 -1.09375 26.59375 -1.09375 
Q 31.59375 -1.09375 36.046875 0.25 
Q 40.5 1.59375 43.796875 4.296875 
Q 47.09375 7 49.046875 11.046875 
Q 51 15.09375 51 20.40625 
Q 51 26.796875 47.84375 31.5 
Q 44.703125 36.203125 38.203125 37.59375 
L 38.203125 37.796875 
Q 42.40625 39.703125 45.203125 43.390625 
Q 48 47.09375 48 51.90625 
Q 48 56.796875 46.34375 60.390625 
Q 44.703125 64 41.796875 66.296875 
Q 38.90625 68.59375 34.953125 69.75 
Q 31 70.90625 26.40625 70.90625 
Q 21.09375 70.90625 17.046875 69.203125 
Q 13 67.5 10.296875 64.5 
Q 7.59375 61.5 6.140625 57.296875 
Q 4.703125 53.09375 4.5 48 
L 13 48 
Q 13 51.09375 13.796875 53.890625 
Q 14.59375 56.703125 16.25 58.796875 
Q 17.90625 60.90625 20.453125 62.15625 
Q 23 63.40625 26.40625 63.40625 
Q 31.796875 63.40625 35.390625 60.546875 
Q 39 57.703125 39 52 
Q 39 49.203125 37.890625 47 
Q 36.796875 44.796875 34.9375 43.34375 
Q 33.09375 41.90625 30.640625 41.15625 
Q 28.203125 40.40625 25.5 40.40625 
L 23.703125 40.40625 
Q 23.203125 40.40625 22.703125 40.40625 
Q 22.296875 40.40625 21.796875 40.5 
z
" id="HelveticaNeue-51"/>
        <path d="M 50.90625 62.40625 
L 50.90625 69.703125 
L 5 69.703125 
L 5 61.703125 
L 42.203125 61.703125 
Q 36.59375 55.796875 31.75 48.796875 
Q 26.90625 41.796875 23.203125 33.9375 
Q 19.5 26.09375 17.140625 17.546875 
Q 14.796875 9 14.203125 0 
L 23.703125 0 
Q 24.203125 8.296875 26.5 17.09375 
Q 28.796875 25.90625 32.4375 34.203125 
Q 36.09375 42.5 40.796875 49.796875 
Q 45.5 57.09375 50.90625 62.40625 
z
" id="HelveticaNeue-55"/>
       </defs>
       <use xlink:href="#HelveticaNeue-48"/>
       <use x="55.599991" xlink:href="#HelveticaNeue-51"/>
       <use x="111.199982" xlink:href="#HelveticaNeue-47"/>
       <use x="144.499969" xlink:href="#HelveticaNeue-48"/>
       <use x="200.09996" xlink:href="#HelveticaNeue-55"/>
      </g>
     </g>
    </g>
    <g id="xtick_7">
     <g id="line2d_13">
      <path clip-path="url(#p35ed8629b9)" d="M 176.125617 440.5555 
L 176.125617 31.5955 
" style="fill:none;stroke:#cbcbcb;"/>
     </g>
     <g id="line2d_14"/>
     <g id="text_7">
      <!-- 03/21 -->
      <g style="fill:#555555;" transform="translate(143.747831 470.610079)rotate(-30)scale(0.14 -0.14)">
       <use xlink:href="#HelveticaNeue-48"/>
       <use x="55.599991" xlink:href="#HelveticaNeue-51"/>
       <use x="111.199982" xlink:href="#HelveticaNeue-47"/>
       <use x="144.499969" xlink:href="#HelveticaNeue-50"/>
       <use x="200.09996" xlink:href="#HelveticaNeue-49"/>
      </g>
     </g>
    </g>
    <g id="xtick_8">
     <g id="line2d_15">
      <path clip-path="url(#p35ed8629b9)" d="M 188.898671 440.5555 
L 188.898671 31.5955 
" style="fill:none;stroke:#cbcbcb;"/>
     </g>
     <g id="line2d_16"/>
     <g id="text_8">
      <!-- 04/04 -->
      <g style="fill:#555555;" transform="translate(156.520885 470.610079)rotate(-30)scale(0.14 -0.14)">
       <defs>
        <path d="M 33.90625 24.09375 
L 10.09375 24.09375 
L 33.703125 58.796875 
L 33.90625 58.796875 
z
M 41.90625 24.09375 
L 41.90625 70.90625 
L 35.09375 70.90625 
L 2.796875 24.796875 
L 2.796875 16.59375 
L 33.90625 16.59375 
L 33.90625 0 
L 41.90625 0 
L 41.90625 16.59375 
L 51.5 16.59375 
L 51.5 24.09375 
z
" id="HelveticaNeue-52"/>
       </defs>
       <use xlink:href="#HelveticaNeue-48"/>
       <use x="55.599991" xlink:href="#HelveticaNeue-52"/>
       <use x="111.199982" xlink:href="#HelveticaNeue-47"/>
       <use x="144.499969" xlink:href="#HelveticaNeue-48"/>
       <use x="200.09996" xlink:href="#HelveticaNeue-52"/>
      </g>
     </g>
    </g>
    <g id="xtick_9">
     <g id="line2d_17">
      <path clip-path="url(#p35ed8629b9)" d="M 201.671725 440.5555 
L 201.671725 31.5955 
" style="fill:none;stroke:#cbcbcb;"/>
     </g>
     <g id="line2d_18"/>
     <g id="text_9">
      <!-- 04/18 -->
      <g style="fill:#555555;" transform="translate(169.293939 470.610079)rotate(-30)scale(0.14 -0.14)">
       <use xlink:href="#HelveticaNeue-48"/>
       <use x="55.599991" xlink:href="#HelveticaNeue-52"/>
       <use x="111.199982" xlink:href="#HelveticaNeue-47"/>
       <use x="144.499969" xlink:href="#HelveticaNeue-49"/>
       <use x="200.09996" xlink:href="#HelveticaNeue-56"/>
      </g>
     </g>
    </g>
    <g id="xtick_10">
     <g id="line2d_19">
      <path clip-path="url(#p35ed8629b9)" d="M 214.44478 440.5555 
L 214.44478 31.5955 
" style="fill:none;stroke:#cbcbcb;"/>
     </g>
     <g id="line2d_20"/>
     <g id="text_10">
      <!-- 05/02 -->
      <g style="fill:#555555;" transform="translate(182.066993 470.610079)rotate(-30)scale(0.14 -0.14)">
       <use xlink:href="#HelveticaNeue-48"/>
       <use x="55.599991" xlink:href="#HelveticaNeue-53"/>
       <use x="111.199982" xlink:href="#HelveticaNeue-47"/>
       <use x="144.499969" xlink:href="#HelveticaNeue-48"/>
       <use x="200.09996" xlink:href="#HelveticaNeue-50"/>
      </g>
     </g>
    </g>
    <g id="xtick_11">
     <g id="line2d_21">
      <path clip-path="url(#p35ed8629b9)" d="M 227.217834 440.5555 
L 227.217834 31.5955 
" style="fill:none;stroke:#cbcbcb;"/>
     </g>
     <g id="line2d_22"/>
     <g id="text_11">
      <!-- 05/16 -->
      <g style="fill:#555555;" transform="translate(194.840048 470.610079)rotate(-30)scale(0.14 -0.14)">
       <defs>
        <path d="M 41.40625 52.796875 
L 49.90625 52.796875 
Q 49.09375 61.59375 43.890625 66.25 
Q 38.703125 70.90625 29.90625 70.90625 
Q 22.296875 70.90625 17.296875 67.703125 
Q 12.296875 64.5 9.296875 59.203125 
Q 6.296875 53.90625 5.046875 47.046875 
Q 3.796875 40.203125 3.796875 32.90625 
Q 3.796875 27.296875 4.640625 21.296875 
Q 5.5 15.296875 8.09375 10.296875 
Q 10.703125 5.296875 15.5 2.09375 
Q 20.296875 -1.09375 28.203125 -1.09375 
Q 34.90625 -1.09375 39.453125 1.15625 
Q 44 3.40625 46.75 6.84375 
Q 49.5 10.296875 50.703125 14.5 
Q 51.90625 18.703125 51.90625 22.59375 
Q 51.90625 27.5 50.40625 31.703125 
Q 48.90625 35.90625 46.15625 39 
Q 43.40625 42.09375 39.34375 43.84375 
Q 35.296875 45.59375 30.203125 45.59375 
Q 24.40625 45.59375 19.953125 43.390625 
Q 15.5 41.203125 12.5 36.296875 
L 12.296875 36.5 
Q 12.40625 40.59375 13.09375 45.296875 
Q 13.796875 50 15.640625 54.046875 
Q 17.5 58.09375 20.796875 60.75 
Q 24.09375 63.40625 29.5 63.40625 
Q 34.59375 63.40625 37.6875 60.5 
Q 40.796875 57.59375 41.40625 52.796875 
z
M 28.59375 38.09375 
Q 32.203125 38.09375 34.890625 36.796875 
Q 37.59375 35.5 39.390625 33.34375 
Q 41.203125 31.203125 42.046875 28.25 
Q 42.90625 25.296875 42.90625 22 
Q 42.90625 18.90625 41.953125 16.046875 
Q 41 13.203125 39.203125 11 
Q 37.40625 8.796875 34.75 7.546875 
Q 32.09375 6.296875 28.59375 6.296875 
Q 25.09375 6.296875 22.34375 7.546875 
Q 19.59375 8.796875 17.75 10.890625 
Q 15.90625 13 14.90625 15.890625 
Q 13.90625 18.796875 13.90625 22.09375 
Q 13.90625 25.40625 14.84375 28.34375 
Q 15.796875 31.296875 17.6875 33.4375 
Q 19.59375 35.59375 22.296875 36.84375 
Q 25 38.09375 28.59375 38.09375 
z
" id="HelveticaNeue-54"/>
       </defs>
       <use xlink:href="#HelveticaNeue-48"/>
       <use x="55.599991" xlink:href="#HelveticaNeue-53"/>
       <use x="111.199982" xlink:href="#HelveticaNeue-47"/>
       <use x="144.499969" xlink:href="#HelveticaNeue-49"/>
       <use x="200.09996" xlink:href="#HelveticaNeue-54"/>
      </g>
     </g>
    </g>
    <g id="xtick_12">
     <g id="line2d_23">
      <path clip-path="url(#p35ed8629b9)" d="M 239.990888 440.5555 
L 239.990888 31.5955 
" style="fill:none;stroke:#cbcbcb;"/>
     </g>
     <g id="line2d_24"/>
     <g id="text_12">
      <!-- 05/30 -->
      <g style="fill:#555555;" transform="translate(207.613102 470.610079)rotate(-30)scale(0.14 -0.14)">
       <use xlink:href="#HelveticaNeue-48"/>
       <use x="55.599991" xlink:href="#HelveticaNeue-53"/>
       <use x="111.199982" xlink:href="#HelveticaNeue-47"/>
       <use x="144.499969" xlink:href="#HelveticaNeue-51"/>
       <use x="200.09996" xlink:href="#HelveticaNeue-48"/>
      </g>
     </g>
    </g>
    <g id="xtick_13">
     <g id="line2d_25">
      <path clip-path="url(#p35ed8629b9)" d="M 252.763942 440.5555 
L 252.763942 31.5955 
" style="fill:none;stroke:#cbcbcb;"/>
     </g>
     <g id="line2d_26"/>
     <g id="text_13">
      <!-- 06/13 -->
      <g style="fill:#555555;" transform="translate(220.386156 470.610079)rotate(-30)scale(0.14 -0.14)">
       <use xlink:href="#HelveticaNeue-48"/>
       <use x="55.599991" xlink:href="#HelveticaNeue-54"/>
       <use x="111.199982" xlink:href="#HelveticaNeue-47"/>
       <use x="144.499969" xlink:href="#HelveticaNeue-49"/>
       <use x="200.09996" xlink:href="#HelveticaNeue-51"/>
      </g>
     </g>
    </g>
    <g id="xtick_14">
     <g id="line2d_27">
      <path clip-path="url(#p35ed8629b9)" d="M 265.536997 440.5555 
L 265.536997 31.5955 
" style="fill:none;stroke:#cbcbcb;"/>
     </g>
     <g id="line2d_28"/>
     <g id="text_14">
      <!-- 06/27 -->
      <g style="fill:#555555;" transform="translate(233.159211 470.610079)rotate(-30)scale(0.14 -0.14)">
       <use xlink:href="#HelveticaNeue-48"/>
       <use x="55.599991" xlink:href="#HelveticaNeue-54"/>
       <use x="111.199982" xlink:href="#HelveticaNeue-47"/>
       <use x="144.499969" xlink:href="#HelveticaNeue-50"/>
       <use x="200.09996" xlink:href="#HelveticaNeue-55"/>
      </g>
     </g>
    </g>
    <g id="xtick_15">
     <g id="line2d_29">
      <path clip-path="url(#p35ed8629b9)" d="M 278.310051 440.5555 
L 278.310051 31.5955 
" style="fill:none;stroke:#cbcbcb;"/>
     </g>
     <g id="line2d_30"/>
     <g id="text_15">
      <!-- 07/11 -->
      <g style="fill:#555555;" transform="translate(245.932265 470.610079)rotate(-30)scale(0.14 -0.14)">
       <use xlink:href="#HelveticaNeue-48"/>
       <use x="55.599991" xlink:href="#HelveticaNeue-55"/>
       <use x="111.199982" xlink:href="#HelveticaNeue-47"/>
       <use x="144.499969" xlink:href="#HelveticaNeue-49"/>
       <use x="200.09996" xlink:href="#HelveticaNeue-49"/>
      </g>
     </g>
    </g>
    <g id="xtick_16">
     <g id="line2d_31">
      <path clip-path="url(#p35ed8629b9)" d="M 291.083105 440.5555 
L 291.083105 31.5955 
" style="fill:none;stroke:#cbcbcb;"/>
     </g>
     <g id="line2d_32"/>
     <g id="text_16">
      <!-- 07/25 -->
      <g style="fill:#555555;" transform="translate(258.705319 470.610079)rotate(-30)scale(0.14 -0.14)">
       <use xlink:href="#HelveticaNeue-48"/>
       <use x="55.599991" xlink:href="#HelveticaNeue-55"/>
       <use x="111.199982" xlink:href="#HelveticaNeue-47"/>
       <use x="144.499969" xlink:href="#HelveticaNeue-50"/>
       <use x="200.09996" xlink:href="#HelveticaNeue-53"/>
      </g>
     </g>
    </g>
    <g id="xtick_17">
     <g id="line2d_33">
      <path clip-path="url(#p35ed8629b9)" d="M 303.85616 440.5555 
L 303.85616 31.5955 
" style="fill:none;stroke:#cbcbcb;"/>
     </g>
     <g id="line2d_34"/>
     <g id="text_17">
      <!-- 08/08 -->
      <g style="fill:#555555;" transform="translate(271.478373 470.610079)rotate(-30)scale(0.14 -0.14)">
       <use xlink:href="#HelveticaNeue-48"/>
       <use x="55.599991" xlink:href="#HelveticaNeue-56"/>
       <use x="111.199982" xlink:href="#HelveticaNeue-47"/>
       <use x="144.499969" xlink:href="#HelveticaNeue-48"/>
       <use x="200.09996" xlink:href="#HelveticaNeue-56"/>
      </g>
     </g>
    </g>
    <g id="xtick_18">
     <g id="line2d_35">
      <path clip-path="url(#p35ed8629b9)" d="M 316.629214 440.5555 
L 316.629214 31.5955 
" style="fill:none;stroke:#cbcbcb;"/>
     </g>
     <g id="line2d_36"/>
     <g id="text_18">
      <!-- 08/22 -->
      <g style="fill:#555555;" transform="translate(284.251428 470.610079)rotate(-30)scale(0.14 -0.14)">
       <use xlink:href="#HelveticaNeue-48"/>
       <use x="55.599991" xlink:href="#HelveticaNeue-56"/>
       <use x="111.199982" xlink:href="#HelveticaNeue-47"/>
       <use x="144.499969" xlink:href="#HelveticaNeue-50"/>
       <use x="200.09996" xlink:href="#HelveticaNeue-50"/>
      </g>
     </g>
    </g>
    <g id="xtick_19">
     <g id="line2d_37">
      <path clip-path="url(#p35ed8629b9)" d="M 329.402268 440.5555 
L 329.402268 31.5955 
" style="fill:none;stroke:#cbcbcb;"/>
     </g>
     <g id="line2d_38"/>
     <g id="text_19">
      <!-- 09/05 -->
      <g style="fill:#555555;" transform="translate(297.024482 470.610079)rotate(-30)scale(0.14 -0.14)">
       <defs>
        <path d="M 13.40625 17.09375 
L 4.90625 17.09375 
Q 5.703125 7.90625 11.59375 3.40625 
Q 17.5 -1.09375 26.40625 -1.09375 
Q 39.296875 -1.09375 45.140625 8.75 
Q 51 18.59375 51 37 
Q 51 47.09375 49.046875 53.640625 
Q 47.09375 60.203125 43.796875 64 
Q 40.5 67.796875 36.09375 69.34375 
Q 31.703125 70.90625 26.703125 70.90625 
Q 21.59375 70.90625 17.296875 69.203125 
Q 13 67.5 9.890625 64.453125 
Q 6.796875 61.40625 5.09375 57.15625 
Q 3.40625 52.90625 3.40625 47.796875 
Q 3.40625 42.59375 4.84375 38.1875 
Q 6.296875 33.796875 9.140625 30.6875 
Q 12 27.59375 16.203125 25.84375 
Q 20.40625 24.09375 25.796875 24.09375 
Q 31 24.09375 35.390625 26.75 
Q 39.796875 29.40625 42.203125 33.90625 
L 42.40625 33.703125 
Q 42 19.796875 38.09375 13.046875 
Q 34.203125 6.296875 26.40625 6.296875 
Q 21.296875 6.296875 17.59375 9.09375 
Q 13.90625 11.90625 13.40625 17.09375 
z
M 40.90625 47.203125 
Q 40.90625 44.09375 39.90625 41.25 
Q 38.90625 38.40625 37 36.25 
Q 35.09375 34.09375 32.390625 32.84375 
Q 29.703125 31.59375 26.40625 31.59375 
Q 23.296875 31.59375 20.75 32.84375 
Q 18.203125 34.09375 16.34375 36.1875 
Q 14.5 38.296875 13.453125 41 
Q 12.40625 43.703125 12.40625 46.59375 
Q 12.40625 49.90625 13.15625 52.90625 
Q 13.90625 55.90625 15.546875 58.25 
Q 17.203125 60.59375 19.84375 62 
Q 22.5 63.40625 26.296875 63.40625 
Q 29.90625 63.40625 32.59375 62.09375 
Q 35.296875 60.796875 37.140625 58.546875 
Q 39 56.296875 39.953125 53.390625 
Q 40.90625 50.5 40.90625 47.203125 
z
" id="HelveticaNeue-57"/>
       </defs>
       <use xlink:href="#HelveticaNeue-48"/>
       <use x="55.599991" xlink:href="#HelveticaNeue-57"/>
       <use x="111.199982" xlink:href="#HelveticaNeue-47"/>
       <use x="144.499969" xlink:href="#HelveticaNeue-48"/>
       <use x="200.09996" xlink:href="#HelveticaNeue-53"/>
      </g>
     </g>
    </g>
    <g id="xtick_20">
     <g id="line2d_39">
      <path clip-path="url(#p35ed8629b9)" d="M 342.175322 440.5555 
L 342.175322 31.5955 
" style="fill:none;stroke:#cbcbcb;"/>
     </g>
     <g id="line2d_40"/>
     <g id="text_20">
      <!-- 09/19 -->
      <g style="fill:#555555;" transform="translate(309.797536 470.610079)rotate(-30)scale(0.14 -0.14)">
       <use xlink:href="#HelveticaNeue-48"/>
       <use x="55.599991" xlink:href="#HelveticaNeue-57"/>
       <use x="111.199982" xlink:href="#HelveticaNeue-47"/>
       <use x="144.499969" xlink:href="#HelveticaNeue-49"/>
       <use x="200.09996" xlink:href="#HelveticaNeue-57"/>
      </g>
     </g>
    </g>
    <g id="xtick_21">
     <g id="line2d_41">
      <path clip-path="url(#p35ed8629b9)" d="M 354.948377 440.5555 
L 354.948377 31.5955 
" style="fill:none;stroke:#cbcbcb;"/>
     </g>
     <g id="line2d_42"/>
     <g id="text_21">
      <!-- 10/03 -->
      <g style="fill:#555555;" transform="translate(322.570591 470.610079)rotate(-30)scale(0.14 -0.14)">
       <use xlink:href="#HelveticaNeue-49"/>
       <use x="55.599991" xlink:href="#HelveticaNeue-48"/>
       <use x="111.199982" xlink:href="#HelveticaNeue-47"/>
       <use x="144.499969" xlink:href="#HelveticaNeue-48"/>
       <use x="200.09996" xlink:href="#HelveticaNeue-51"/>
      </g>
     </g>
    </g>
    <g id="xtick_22">
     <g id="line2d_43">
      <path clip-path="url(#p35ed8629b9)" d="M 367.721431 440.5555 
L 367.721431 31.5955 
" style="fill:none;stroke:#cbcbcb;"/>
     </g>
     <g id="line2d_44"/>
     <g id="text_22">
      <!-- 10/17 -->
      <g style="fill:#555555;" transform="translate(335.343645 470.610079)rotate(-30)scale(0.14 -0.14)">
       <use xlink:href="#HelveticaNeue-49"/>
       <use x="55.599991" xlink:href="#HelveticaNeue-48"/>
       <use x="111.199982" xlink:href="#HelveticaNeue-47"/>
       <use x="144.499969" xlink:href="#HelveticaNeue-49"/>
       <use x="200.09996" xlink:href="#HelveticaNeue-55"/>
      </g>
     </g>
    </g>
    <g id="xtick_23">
     <g id="line2d_45">
      <path clip-path="url(#p35ed8629b9)" d="M 380.494485 440.5555 
L 380.494485 31.5955 
" style="fill:none;stroke:#cbcbcb;"/>
     </g>
     <g id="line2d_46"/>
     <g id="text_23">
      <!-- 10/31 -->
      <g style="fill:#555555;" transform="translate(348.116699 470.610079)rotate(-30)scale(0.14 -0.14)">
       <use xlink:href="#HelveticaNeue-49"/>
       <use x="55.599991" xlink:href="#HelveticaNeue-48"/>
       <use x="111.199982" xlink:href="#HelveticaNeue-47"/>
       <use x="144.499969" xlink:href="#HelveticaNeue-51"/>
       <use x="200.09996" xlink:href="#HelveticaNeue-49"/>
      </g>
     </g>
    </g>
    <g id="xtick_24">
     <g id="line2d_47">
      <path clip-path="url(#p35ed8629b9)" d="M 393.26754 440.5555 
L 393.26754 31.5955 
" style="fill:none;stroke:#cbcbcb;"/>
     </g>
     <g id="line2d_48"/>
     <g id="text_24">
      <!-- 11/14 -->
      <g style="fill:#555555;" transform="translate(360.889753 470.610079)rotate(-30)scale(0.14 -0.14)">
       <use xlink:href="#HelveticaNeue-49"/>
       <use x="55.599991" xlink:href="#HelveticaNeue-49"/>
       <use x="111.199982" xlink:href="#HelveticaNeue-47"/>
       <use x="144.499969" xlink:href="#HelveticaNeue-49"/>
       <use x="200.09996" xlink:href="#HelveticaNeue-52"/>
      </g>
     </g>
    </g>
    <g id="xtick_25">
     <g id="line2d_49">
      <path clip-path="url(#p35ed8629b9)" d="M 406.040594 440.5555 
L 406.040594 31.5955 
" style="fill:none;stroke:#cbcbcb;"/>
     </g>
     <g id="line2d_50"/>
     <g id="text_25">
      <!-- 11/28 -->
      <g style="fill:#555555;" transform="translate(373.662808 470.610079)rotate(-30)scale(0.14 -0.14)">
       <use xlink:href="#HelveticaNeue-49"/>
       <use x="55.599991" xlink:href="#HelveticaNeue-49"/>
       <use x="111.199982" xlink:href="#HelveticaNeue-47"/>
       <use x="144.499969" xlink:href="#HelveticaNeue-50"/>
       <use x="200.09996" xlink:href="#HelveticaNeue-56"/>
      </g>
     </g>
    </g>
    <g id="xtick_26">
     <g id="line2d_51">
      <path clip-path="url(#p35ed8629b9)" d="M 418.813648 440.5555 
L 418.813648 31.5955 
" style="fill:none;stroke:#cbcbcb;"/>
     </g>
     <g id="line2d_52"/>
     <g id="text_26">
      <!-- 12/12 -->
      <g style="fill:#555555;" transform="translate(386.435862 470.610079)rotate(-30)scale(0.14 -0.14)">
       <use xlink:href="#HelveticaNeue-49"/>
       <use x="55.599991" xlink:href="#HelveticaNeue-50"/>
       <use x="111.199982" xlink:href="#HelveticaNeue-47"/>
       <use x="144.499969" xlink:href="#HelveticaNeue-49"/>
       <use x="200.09996" xlink:href="#HelveticaNeue-50"/>
      </g>
     </g>
    </g>
    <g id="xtick_27">
     <g id="line2d_53">
      <path clip-path="url(#p35ed8629b9)" d="M 431.586702 440.5555 
L 431.586702 31.5955 
" style="fill:none;stroke:#cbcbcb;"/>
     </g>
     <g id="line2d_54"/>
     <g id="text_27">
      <!-- 12/26 -->
      <g style="fill:#555555;" transform="translate(399.208916 470.610079)rotate(-30)scale(0.14 -0.14)">
       <use xlink:href="#HelveticaNeue-49"/>
       <use x="55.599991" xlink:href="#HelveticaNeue-50"/>
       <use x="111.199982" xlink:href="#HelveticaNeue-47"/>
       <use x="144.499969" xlink:href="#HelveticaNeue-50"/>
       <use x="200.09996" xlink:href="#HelveticaNeue-54"/>
      </g>
     </g>
    </g>
    <g id="xtick_28">
     <g id="line2d_55">
      <path clip-path="url(#p35ed8629b9)" d="M 444.359757 440.5555 
L 444.359757 31.5955 
" style="fill:none;stroke:#cbcbcb;"/>
     </g>
     <g id="line2d_56"/>
     <g id="text_28">
      <!-- 01/09 -->
      <g style="fill:#555555;" transform="translate(411.98197 470.610079)rotate(-30)scale(0.14 -0.14)">
       <use xlink:href="#HelveticaNeue-48"/>
       <use x="55.599991" xlink:href="#HelveticaNeue-49"/>
       <use x="111.199982" xlink:href="#HelveticaNeue-47"/>
       <use x="144.499969" xlink:href="#HelveticaNeue-48"/>
       <use x="200.09996" xlink:href="#HelveticaNeue-57"/>
      </g>
     </g>
    </g>
    <g id="xtick_29">
     <g id="line2d_57">
      <path clip-path="url(#p35ed8629b9)" d="M 457.132811 440.5555 
L 457.132811 31.5955 
" style="fill:none;stroke:#cbcbcb;"/>
     </g>
     <g id="line2d_58"/>
     <g id="text_29">
      <!-- 01/23 -->
      <g style="fill:#555555;" transform="translate(424.755025 470.610079)rotate(-30)scale(0.14 -0.14)">
       <use xlink:href="#HelveticaNeue-48"/>
       <use x="55.599991" xlink:href="#HelveticaNeue-49"/>
       <use x="111.199982" xlink:href="#HelveticaNeue-47"/>
       <use x="144.499969" xlink:href="#HelveticaNeue-50"/>
       <use x="200.09996" xlink:href="#HelveticaNeue-51"/>
      </g>
     </g>
    </g>
    <g id="xtick_30">
     <g id="line2d_59">
      <path clip-path="url(#p35ed8629b9)" d="M 469.905865 440.5555 
L 469.905865 31.5955 
" style="fill:none;stroke:#cbcbcb;"/>
     </g>
     <g id="line2d_60"/>
     <g id="text_30">
      <!-- 02/06 -->
      <g style="fill:#555555;" transform="translate(437.528079 470.610079)rotate(-30)scale(0.14 -0.14)">
       <use xlink:href="#HelveticaNeue-48"/>
       <use x="55.599991" xlink:href="#HelveticaNeue-50"/>
       <use x="111.199982" xlink:href="#HelveticaNeue-47"/>
       <use x="144.499969" xlink:href="#HelveticaNeue-48"/>
       <use x="200.09996" xlink:href="#HelveticaNeue-54"/>
      </g>
     </g>
    </g>
    <g id="xtick_31">
     <g id="line2d_61">
      <path clip-path="url(#p35ed8629b9)" d="M 482.67892 440.5555 
L 482.67892 31.5955 
" style="fill:none;stroke:#cbcbcb;"/>
     </g>
     <g id="line2d_62"/>
     <g id="text_31">
      <!-- 02/20 -->
      <g style="fill:#555555;" transform="translate(450.301133 470.610079)rotate(-30)scale(0.14 -0.14)">
       <use xlink:href="#HelveticaNeue-48"/>
       <use x="55.599991" xlink:href="#HelveticaNeue-50"/>
       <use x="111.199982" xlink:href="#HelveticaNeue-47"/>
       <use x="144.499969" xlink:href="#HelveticaNeue-50"/>
       <use x="200.09996" xlink:href="#HelveticaNeue-48"/>
      </g>
     </g>
    </g>
    <g id="xtick_32">
     <g id="line2d_63">
      <path clip-path="url(#p35ed8629b9)" d="M 495.451974 440.5555 
L 495.451974 31.5955 
" style="fill:none;stroke:#cbcbcb;"/>
     </g>
     <g id="line2d_64"/>
     <g id="text_32">
      <!-- 03/06 -->
      <g style="fill:#555555;" transform="translate(463.074188 470.610079)rotate(-30)scale(0.14 -0.14)">
       <use xlink:href="#HelveticaNeue-48"/>
       <use x="55.599991" xlink:href="#HelveticaNeue-51"/>
       <use x="111.199982" xlink:href="#HelveticaNeue-47"/>
       <use x="144.499969" xlink:href="#HelveticaNeue-48"/>
       <use x="200.09996" xlink:href="#HelveticaNeue-54"/>
      </g>
     </g>
    </g>
    <g id="xtick_33">
     <g id="line2d_65">
      <path clip-path="url(#p35ed8629b9)" d="M 508.225028 440.5555 
L 508.225028 31.5955 
" style="fill:none;stroke:#cbcbcb;"/>
     </g>
     <g id="line2d_66"/>
     <g id="text_33">
      <!-- 03/20 -->
      <g style="fill:#555555;" transform="translate(475.847242 470.610079)rotate(-30)scale(0.14 -0.14)">
       <use xlink:href="#HelveticaNeue-48"/>
       <use x="55.599991" xlink:href="#HelveticaNeue-51"/>
       <use x="111.199982" xlink:href="#HelveticaNeue-47"/>
       <use x="144.499969" xlink:href="#HelveticaNeue-50"/>
       <use x="200.09996" xlink:href="#HelveticaNeue-48"/>
      </g>
     </g>
    </g>
    <g id="xtick_34">
     <g id="line2d_67">
      <path clip-path="url(#p35ed8629b9)" d="M 520.998082 440.5555 
L 520.998082 31.5955 
" style="fill:none;stroke:#cbcbcb;"/>
     </g>
     <g id="line2d_68"/>
     <g id="text_34">
      <!-- 04/03 -->
      <g style="fill:#555555;" transform="translate(488.620296 470.610079)rotate(-30)scale(0.14 -0.14)">
       <use xlink:href="#HelveticaNeue-48"/>
       <use x="55.599991" xlink:href="#HelveticaNeue-52"/>
       <use x="111.199982" xlink:href="#HelveticaNeue-47"/>
       <use x="144.499969" xlink:href="#HelveticaNeue-48"/>
       <use x="200.09996" xlink:href="#HelveticaNeue-51"/>
      </g>
     </g>
    </g>
    <g id="xtick_35">
     <g id="line2d_69">
      <path clip-path="url(#p35ed8629b9)" d="M 533.771137 440.5555 
L 533.771137 31.5955 
" style="fill:none;stroke:#cbcbcb;"/>
     </g>
     <g id="line2d_70"/>
     <g id="text_35">
      <!-- 04/17 -->
      <g style="fill:#555555;" transform="translate(501.39335 470.610079)rotate(-30)scale(0.14 -0.14)">
       <use xlink:href="#HelveticaNeue-48"/>
       <use x="55.599991" xlink:href="#HelveticaNeue-52"/>
       <use x="111.199982" xlink:href="#HelveticaNeue-47"/>
       <use x="144.499969" xlink:href="#HelveticaNeue-49"/>
       <use x="200.09996" xlink:href="#HelveticaNeue-55"/>
      </g>
     </g>
    </g>
    <g id="xtick_36">
     <g id="line2d_71">
      <path clip-path="url(#p35ed8629b9)" d="M 546.544191 440.5555 
L 546.544191 31.5955 
" style="fill:none;stroke:#cbcbcb;"/>
     </g>
     <g id="line2d_72"/>
     <g id="text_36">
      <!-- 05/01 -->
      <g style="fill:#555555;" transform="translate(514.166405 470.610079)rotate(-30)scale(0.14 -0.14)">
       <use xlink:href="#HelveticaNeue-48"/>
       <use x="55.599991" xlink:href="#HelveticaNeue-53"/>
       <use x="111.199982" xlink:href="#HelveticaNeue-47"/>
       <use x="144.499969" xlink:href="#HelveticaNeue-48"/>
       <use x="200.09996" xlink:href="#HelveticaNeue-49"/>
      </g>
     </g>
    </g>
    <g id="xtick_37">
     <g id="line2d_73">
      <path clip-path="url(#p35ed8629b9)" d="M 559.317245 440.5555 
L 559.317245 31.5955 
" style="fill:none;stroke:#cbcbcb;"/>
     </g>
     <g id="line2d_74"/>
     <g id="text_37">
      <!-- 05/15 -->
      <g style="fill:#555555;" transform="translate(526.939459 470.610079)rotate(-30)scale(0.14 -0.14)">
       <use xlink:href="#HelveticaNeue-48"/>
       <use x="55.599991" xlink:href="#HelveticaNeue-53"/>
       <use x="111.199982" xlink:href="#HelveticaNeue-47"/>
       <use x="144.499969" xlink:href="#HelveticaNeue-49"/>
       <use x="200.09996" xlink:href="#HelveticaNeue-53"/>
      </g>
     </g>
    </g>
    <g id="xtick_38">
     <g id="line2d_75">
      <path clip-path="url(#p35ed8629b9)" d="M 572.0903 440.5555 
L 572.0903 31.5955 
" style="fill:none;stroke:#cbcbcb;"/>
     </g>
     <g id="line2d_76"/>
     <g id="text_38">
      <!-- 05/29 -->
      <g style="fill:#555555;" transform="translate(539.712513 470.610079)rotate(-30)scale(0.14 -0.14)">
       <use xlink:href="#HelveticaNeue-48"/>
       <use x="55.599991" xlink:href="#HelveticaNeue-53"/>
       <use x="111.199982" xlink:href="#HelveticaNeue-47"/>
       <use x="144.499969" xlink:href="#HelveticaNeue-50"/>
       <use x="200.09996" xlink:href="#HelveticaNeue-57"/>
      </g>
     </g>
    </g>
    <g id="xtick_39">
     <g id="line2d_77">
      <path clip-path="url(#p35ed8629b9)" d="M 584.863354 440.5555 
L 584.863354 31.5955 
" style="fill:none;stroke:#cbcbcb;"/>
     </g>
     <g id="line2d_78"/>
     <g id="text_39">
      <!-- 06/12 -->
      <g style="fill:#555555;" transform="translate(552.485568 470.610079)rotate(-30)scale(0.14 -0.14)">
       <use xlink:href="#HelveticaNeue-48"/>
       <use x="55.599991" xlink:href="#HelveticaNeue-54"/>
       <use x="111.199982" xlink:href="#HelveticaNeue-47"/>
       <use x="144.499969" xlink:href="#HelveticaNeue-49"/>
       <use x="200.09996" xlink:href="#HelveticaNeue-50"/>
      </g>
     </g>
    </g>
    <g id="xtick_40">
     <g id="line2d_79">
      <path clip-path="url(#p35ed8629b9)" d="M 597.636408 440.5555 
L 597.636408 31.5955 
" style="fill:none;stroke:#cbcbcb;"/>
     </g>
     <g id="line2d_80"/>
     <g id="text_40">
      <!-- 06/26 -->
      <g style="fill:#555555;" transform="translate(565.258622 470.610079)rotate(-30)scale(0.14 -0.14)">
       <use xlink:href="#HelveticaNeue-48"/>
       <use x="55.599991" xlink:href="#HelveticaNeue-54"/>
       <use x="111.199982" xlink:href="#HelveticaNeue-47"/>
       <use x="144.499969" xlink:href="#HelveticaNeue-50"/>
       <use x="200.09996" xlink:href="#HelveticaNeue-54"/>
      </g>
     </g>
    </g>
    <g id="xtick_41">
     <g id="line2d_81">
      <path clip-path="url(#p35ed8629b9)" d="M 610.409462 440.5555 
L 610.409462 31.5955 
" style="fill:none;stroke:#cbcbcb;"/>
     </g>
     <g id="line2d_82"/>
     <g id="text_41">
      <!-- 07/10 -->
      <g style="fill:#555555;" transform="translate(578.031676 470.610079)rotate(-30)scale(0.14 -0.14)">
       <use xlink:href="#HelveticaNeue-48"/>
       <use x="55.599991" xlink:href="#HelveticaNeue-55"/>
       <use x="111.199982" xlink:href="#HelveticaNeue-47"/>
       <use x="144.499969" xlink:href="#HelveticaNeue-49"/>
       <use x="200.09996" xlink:href="#HelveticaNeue-48"/>
      </g>
     </g>
    </g>
    <g id="xtick_42">
     <g id="line2d_83">
      <path clip-path="url(#p35ed8629b9)" d="M 623.182517 440.5555 
L 623.182517 31.5955 
" style="fill:none;stroke:#cbcbcb;"/>
     </g>
     <g id="line2d_84"/>
     <g id="text_42">
      <!-- 07/24 -->
      <g style="fill:#555555;" transform="translate(590.80473 470.610079)rotate(-30)scale(0.14 -0.14)">
       <use xlink:href="#HelveticaNeue-48"/>
       <use x="55.599991" xlink:href="#HelveticaNeue-55"/>
       <use x="111.199982" xlink:href="#HelveticaNeue-47"/>
       <use x="144.499969" xlink:href="#HelveticaNeue-50"/>
       <use x="200.09996" xlink:href="#HelveticaNeue-52"/>
      </g>
     </g>
    </g>
    <g id="xtick_43">
     <g id="line2d_85">
      <path clip-path="url(#p35ed8629b9)" d="M 635.955571 440.5555 
L 635.955571 31.5955 
" style="fill:none;stroke:#cbcbcb;"/>
     </g>
     <g id="line2d_86"/>
     <g id="text_43">
      <!-- 08/07 -->
      <g style="fill:#555555;" transform="translate(603.577785 470.610079)rotate(-30)scale(0.14 -0.14)">
       <use xlink:href="#HelveticaNeue-48"/>
       <use x="55.599991" xlink:href="#HelveticaNeue-56"/>
       <use x="111.199982" xlink:href="#HelveticaNeue-47"/>
       <use x="144.499969" xlink:href="#HelveticaNeue-48"/>
       <use x="200.09996" xlink:href="#HelveticaNeue-55"/>
      </g>
     </g>
    </g>
    <g id="xtick_44">
     <g id="line2d_87">
      <path clip-path="url(#p35ed8629b9)" d="M 648.728625 440.5555 
L 648.728625 31.5955 
" style="fill:none;stroke:#cbcbcb;"/>
     </g>
     <g id="line2d_88"/>
     <g id="text_44">
      <!-- 08/21 -->
      <g style="fill:#555555;" transform="translate(616.350839 470.610079)rotate(-30)scale(0.14 -0.14)">
       <use xlink:href="#HelveticaNeue-48"/>
       <use x="55.599991" xlink:href="#HelveticaNeue-56"/>
       <use x="111.199982" xlink:href="#HelveticaNeue-47"/>
       <use x="144.499969" xlink:href="#HelveticaNeue-50"/>
       <use x="200.09996" xlink:href="#HelveticaNeue-49"/>
      </g>
     </g>
    </g>
    <g id="text_45">
     <!-- Dates -->
     <g style="fill:#555555;" transform="translate(359.1225 485.567706)scale(0.12 -0.12)">
      <defs>
       <path d="M 17.296875 8 
L 17.296875 63.40625 
L 33.296875 63.40625 
Q 39.90625 63.40625 44.40625 61.546875 
Q 48.90625 59.703125 51.75 56.140625 
Q 54.59375 52.59375 55.84375 47.546875 
Q 57.09375 42.5 57.09375 36.09375 
Q 57.09375 29.5 55.75 24.84375 
Q 54.40625 20.203125 52.296875 17.09375 
Q 50.203125 14 47.546875 12.203125 
Q 44.90625 10.40625 42.203125 9.453125 
Q 39.5 8.5 37.09375 8.25 
Q 34.703125 8 33.09375 8 
z
M 7.796875 71.40625 
L 7.796875 0 
L 32.296875 0 
Q 41.203125 0 47.703125 2.5 
Q 54.203125 5 58.390625 9.75 
Q 62.59375 14.5 64.59375 21.453125 
Q 66.59375 28.40625 66.59375 37.40625 
Q 66.59375 54.59375 57.6875 63 
Q 48.796875 71.40625 32.296875 71.40625 
z
" id="HelveticaNeue-68"/>
       <path d="M 52.203125 0.203125 
Q 50 -1.09375 46.09375 -1.09375 
Q 42.796875 -1.09375 40.84375 0.75 
Q 38.90625 2.59375 38.90625 6.796875 
Q 35.40625 2.59375 30.75 0.75 
Q 26.09375 -1.09375 20.703125 -1.09375 
Q 17.203125 -1.09375 14.046875 -0.296875 
Q 10.90625 0.5 8.59375 2.203125 
Q 6.296875 3.90625 4.9375 6.65625 
Q 3.59375 9.40625 3.59375 13.296875 
Q 3.59375 17.703125 5.09375 20.5 
Q 6.59375 23.296875 9.046875 25.046875 
Q 11.5 26.796875 14.640625 27.6875 
Q 17.796875 28.59375 21.09375 29.203125 
Q 24.59375 29.90625 27.75 30.25 
Q 30.90625 30.59375 33.296875 31.25 
Q 35.703125 31.90625 37.09375 33.15625 
Q 38.5 34.40625 38.5 36.796875 
Q 38.5 39.59375 37.453125 41.296875 
Q 36.40625 43 34.75 43.890625 
Q 33.09375 44.796875 31.046875 45.09375 
Q 29 45.40625 27 45.40625 
Q 21.59375 45.40625 18 43.34375 
Q 14.40625 41.296875 14.09375 35.59375 
L 5.59375 35.59375 
Q 5.796875 40.40625 7.59375 43.703125 
Q 9.40625 47 12.40625 49.046875 
Q 15.40625 51.09375 19.25 52 
Q 23.09375 52.90625 27.5 52.90625 
Q 31 52.90625 34.453125 52.40625 
Q 37.90625 51.90625 40.703125 50.34375 
Q 43.5 48.796875 45.203125 46 
Q 46.90625 43.203125 46.90625 38.703125 
L 46.90625 12.09375 
Q 46.90625 9.09375 47.25 7.6875 
Q 47.59375 6.296875 49.59375 6.296875 
Q 50.703125 6.296875 52.203125 6.796875 
z
M 38.40625 26.703125 
Q 36.796875 25.5 34.1875 24.953125 
Q 31.59375 24.40625 28.75 24.046875 
Q 25.90625 23.703125 23 23.25 
Q 20.09375 22.796875 17.796875 21.796875 
Q 15.5 20.796875 14.046875 18.9375 
Q 12.59375 17.09375 12.59375 13.90625 
Q 12.59375 11.796875 13.4375 10.34375 
Q 14.296875 8.90625 15.640625 8 
Q 17 7.09375 18.796875 6.6875 
Q 20.59375 6.296875 22.59375 6.296875 
Q 26.796875 6.296875 29.796875 7.4375 
Q 32.796875 8.59375 34.6875 10.34375 
Q 36.59375 12.09375 37.5 14.140625 
Q 38.40625 16.203125 38.40625 18 
z
" id="HelveticaNeue-97"/>
       <path d="M 18.203125 51.703125 
L 18.203125 67.203125 
L 9.703125 67.203125 
L 9.703125 51.703125 
L 0.90625 51.703125 
L 0.90625 44.203125 
L 9.703125 44.203125 
L 9.703125 11.296875 
Q 9.703125 7.703125 10.390625 5.5 
Q 11.09375 3.296875 12.546875 2.09375 
Q 14 0.90625 16.34375 0.453125 
Q 18.703125 0 22 0 
L 28.5 0 
L 28.5 7.5 
L 24.59375 7.5 
Q 22.59375 7.5 21.34375 7.640625 
Q 20.09375 7.796875 19.390625 8.296875 
Q 18.703125 8.796875 18.453125 9.6875 
Q 18.203125 10.59375 18.203125 12.09375 
L 18.203125 44.203125 
L 28.5 44.203125 
L 28.5 51.703125 
z
" id="HelveticaNeue-116"/>
       <path d="M 42.296875 30.796875 
L 12.59375 30.796875 
Q 12.796875 33.796875 13.890625 36.4375 
Q 15 39.09375 16.890625 41.09375 
Q 18.796875 43.09375 21.4375 44.25 
Q 24.09375 45.40625 27.40625 45.40625 
Q 30.59375 45.40625 33.25 44.25 
Q 35.90625 43.09375 37.84375 41.140625 
Q 39.796875 39.203125 40.9375 36.5 
Q 42.09375 33.796875 42.296875 30.796875 
z
M 50.5 16.40625 
L 42.09375 16.40625 
Q 41 11.296875 37.546875 8.796875 
Q 34.09375 6.296875 28.703125 6.296875 
Q 24.5 6.296875 21.390625 7.6875 
Q 18.296875 9.09375 16.296875 11.4375 
Q 14.296875 13.796875 13.390625 16.84375 
Q 12.5 19.90625 12.59375 23.296875 
L 51.296875 23.296875 
Q 51.5 28 50.453125 33.203125 
Q 49.40625 38.40625 46.65625 42.796875 
Q 43.90625 47.203125 39.34375 50.046875 
Q 34.796875 52.90625 27.90625 52.90625 
Q 22.59375 52.90625 18.140625 50.90625 
Q 13.703125 48.90625 10.453125 45.296875 
Q 7.203125 41.703125 5.390625 36.796875 
Q 3.59375 31.90625 3.59375 26 
Q 3.796875 20.09375 5.34375 15.09375 
Q 6.90625 10.09375 10 6.5 
Q 13.09375 2.90625 17.640625 0.90625 
Q 22.203125 -1.09375 28.40625 -1.09375 
Q 37.203125 -1.09375 43 3.296875 
Q 48.796875 7.703125 50.5 16.40625 
z
" id="HelveticaNeue-101"/>
       <path d="M 11.59375 16.296875 
L 3.09375 16.296875 
Q 3.296875 11.5 5.09375 8.140625 
Q 6.90625 4.796875 9.90625 2.75 
Q 12.90625 0.703125 16.796875 -0.1875 
Q 20.703125 -1.09375 25 -1.09375 
Q 28.90625 -1.09375 32.84375 -0.34375 
Q 36.796875 0.40625 39.9375 2.296875 
Q 43.09375 4.203125 45.046875 7.296875 
Q 47 10.40625 47 15.09375 
Q 47 18.796875 45.546875 21.296875 
Q 44.09375 23.796875 41.75 25.4375 
Q 39.40625 27.09375 36.34375 28.09375 
Q 33.296875 29.09375 30.09375 29.796875 
Q 27.09375 30.5 24.09375 31.140625 
Q 21.09375 31.796875 18.6875 32.75 
Q 16.296875 33.703125 14.75 35.140625 
Q 13.203125 36.59375 13.203125 38.796875 
Q 13.203125 40.796875 14.203125 42.046875 
Q 15.203125 43.296875 16.796875 44.046875 
Q 18.40625 44.796875 20.34375 45.09375 
Q 22.296875 45.40625 24.203125 45.40625 
Q 26.296875 45.40625 28.34375 44.953125 
Q 30.40625 44.5 32.09375 43.5 
Q 33.796875 42.5 34.890625 40.84375 
Q 36 39.203125 36.203125 36.703125 
L 44.703125 36.703125 
Q 44.40625 41.40625 42.703125 44.546875 
Q 41 47.703125 38.140625 49.546875 
Q 35.296875 51.40625 31.59375 52.15625 
Q 27.90625 52.90625 23.5 52.90625 
Q 20.09375 52.90625 16.640625 52.046875 
Q 13.203125 51.203125 10.453125 49.453125 
Q 7.703125 47.703125 5.953125 44.890625 
Q 4.203125 42.09375 4.203125 38.203125 
Q 4.203125 33.203125 6.703125 30.390625 
Q 9.203125 27.59375 12.953125 26.046875 
Q 16.703125 24.5 21.09375 23.640625 
Q 25.5 22.796875 29.25 21.75 
Q 33 20.703125 35.5 19 
Q 38 17.296875 38 14 
Q 38 11.59375 36.796875 10.046875 
Q 35.59375 8.5 33.75 7.703125 
Q 31.90625 6.90625 29.703125 6.59375 
Q 27.5 6.296875 25.5 6.296875 
Q 22.90625 6.296875 20.453125 6.796875 
Q 18 7.296875 16.046875 8.4375 
Q 14.09375 9.59375 12.890625 11.546875 
Q 11.703125 13.5 11.59375 16.296875 
z
" id="HelveticaNeue-115"/>
      </defs>
      <use xlink:href="#HelveticaNeue-68"/>
      <use x="70.399994" xlink:href="#HelveticaNeue-97"/>
      <use x="124.099991" xlink:href="#HelveticaNeue-116"/>
      <use x="155.599976" xlink:href="#HelveticaNeue-101"/>
      <use x="209.299973" xlink:href="#HelveticaNeue-115"/>
     </g>
    </g>
   </g>
   <g id="matplotlib.axis_2">
    <g id="ytick_1">
     <g id="line2d_89">
      <path clip-path="url(#p35ed8629b9)" d="M 95.68125 421.966409 
L 653.68125 421.966409 
" style="fill:none;stroke:#cbcbcb;"/>
     </g>
     <g id="line2d_90"/>
     <g id="text_46">
      <!-- 1 -->
      <g style="fill:#555555;" transform="translate(84.398125 426.964847)scale(0.14 -0.14)">
       <use xlink:href="#HelveticaNeue-49"/>
      </g>
     </g>
    </g>
    <g id="ytick_2">
     <g id="line2d_91">
      <path clip-path="url(#p35ed8629b9)" d="M 95.68125 372.683995 
L 653.68125 372.683995 
" style="fill:none;stroke:#cbcbcb;"/>
     </g>
     <g id="line2d_92"/>
     <g id="text_47">
      <!-- 10 -->
      <g style="fill:#555555;" transform="translate(76.615 377.682433)scale(0.14 -0.14)">
       <use xlink:href="#HelveticaNeue-49"/>
       <use x="55.599991" xlink:href="#HelveticaNeue-48"/>
      </g>
     </g>
    </g>
    <g id="ytick_3">
     <g id="line2d_93">
      <path clip-path="url(#p35ed8629b9)" d="M 95.68125 323.401581 
L 653.68125 323.401581 
" style="fill:none;stroke:#cbcbcb;"/>
     </g>
     <g id="line2d_94"/>
     <g id="text_48">
      <!-- 100 -->
      <g style="fill:#555555;" transform="translate(68.831875 328.400019)scale(0.14 -0.14)">
       <use xlink:href="#HelveticaNeue-49"/>
       <use x="55.599991" xlink:href="#HelveticaNeue-48"/>
       <use x="111.199982" xlink:href="#HelveticaNeue-48"/>
      </g>
     </g>
    </g>
    <g id="ytick_4">
     <g id="line2d_95">
      <path clip-path="url(#p35ed8629b9)" d="M 95.68125 274.119167 
L 653.68125 274.119167 
" style="fill:none;stroke:#cbcbcb;"/>
     </g>
     <g id="line2d_96"/>
     <g id="text_49">
      <!-- 1,000 -->
      <g style="fill:#555555;" transform="translate(57.157188 279.117605)scale(0.14 -0.14)">
       <defs>
        <path d="M 8.296875 11.09375 
L 8.296875 0 
L 14.203125 0 
Q 14.296875 -1.203125 14.046875 -2.59375 
Q 13.796875 -4 13.09375 -5.34375 
Q 12.40625 -6.703125 11.25 -7.84375 
Q 10.09375 -9 8.40625 -9.59375 
L 8.40625 -14.59375 
Q 14.203125 -12.90625 16.796875 -8.796875 
Q 19.40625 -4.703125 19.40625 1 
L 19.40625 11.09375 
z
" id="HelveticaNeue-44"/>
       </defs>
       <use xlink:href="#HelveticaNeue-49"/>
       <use x="55.599991" xlink:href="#HelveticaNeue-44"/>
       <use x="83.399979" xlink:href="#HelveticaNeue-48"/>
       <use x="138.999969" xlink:href="#HelveticaNeue-48"/>
       <use x="194.59996" xlink:href="#HelveticaNeue-48"/>
      </g>
     </g>
    </g>
    <g id="ytick_5">
     <g id="line2d_97">
      <path clip-path="url(#p35ed8629b9)" d="M 95.68125 224.836754 
L 653.68125 224.836754 
" style="fill:none;stroke:#cbcbcb;"/>
     </g>
     <g id="line2d_98"/>
     <g id="text_50">
      <!-- 10,000 -->
      <g style="fill:#555555;" transform="translate(49.374063 229.835191)scale(0.14 -0.14)">
       <use xlink:href="#HelveticaNeue-49"/>
       <use x="55.599991" xlink:href="#HelveticaNeue-48"/>
       <use x="111.199982" xlink:href="#HelveticaNeue-44"/>
       <use x="138.999969" xlink:href="#HelveticaNeue-48"/>
       <use x="194.59996" xlink:href="#HelveticaNeue-48"/>
       <use x="250.199951" xlink:href="#HelveticaNeue-48"/>
      </g>
     </g>
    </g>
    <g id="ytick_6">
     <g id="line2d_99">
      <path clip-path="url(#p35ed8629b9)" d="M 95.68125 175.55434 
L 653.68125 175.55434 
" style="fill:none;stroke:#cbcbcb;"/>
     </g>
     <g id="line2d_100"/>
     <g id="text_51">
      <!-- 100,000 -->
      <g style="fill:#555555;" transform="translate(41.590938 180.552777)scale(0.14 -0.14)">
       <use xlink:href="#HelveticaNeue-49"/>
       <use x="55.599991" xlink:href="#HelveticaNeue-48"/>
       <use x="111.199982" xlink:href="#HelveticaNeue-48"/>
       <use x="166.799973" xlink:href="#HelveticaNeue-44"/>
       <use x="194.59996" xlink:href="#HelveticaNeue-48"/>
       <use x="250.199951" xlink:href="#HelveticaNeue-48"/>
       <use x="305.799942" xlink:href="#HelveticaNeue-48"/>
      </g>
     </g>
    </g>
    <g id="ytick_7">
     <g id="line2d_101">
      <path clip-path="url(#p35ed8629b9)" d="M 95.68125 126.271926 
L 653.68125 126.271926 
" style="fill:none;stroke:#cbcbcb;"/>
     </g>
     <g id="line2d_102"/>
     <g id="text_52">
      <!-- 1,000,000 -->
      <g style="fill:#555555;" transform="translate(29.91625 131.270363)scale(0.14 -0.14)">
       <use xlink:href="#HelveticaNeue-49"/>
       <use x="55.599991" xlink:href="#HelveticaNeue-44"/>
       <use x="83.399979" xlink:href="#HelveticaNeue-48"/>
       <use x="138.999969" xlink:href="#HelveticaNeue-48"/>
       <use x="194.59996" xlink:href="#HelveticaNeue-48"/>
       <use x="250.199951" xlink:href="#HelveticaNeue-44"/>
       <use x="277.999939" xlink:href="#HelveticaNeue-48"/>
       <use x="333.59993" xlink:href="#HelveticaNeue-48"/>
       <use x="389.199921" xlink:href="#HelveticaNeue-48"/>
      </g>
     </g>
    </g>
    <g id="ytick_8">
     <g id="line2d_103">
      <path clip-path="url(#p35ed8629b9)" d="M 95.68125 76.989512 
L 653.68125 76.989512 
" style="fill:none;stroke:#cbcbcb;"/>
     </g>
     <g id="line2d_104"/>
     <g id="text_53">
      <!-- 10,000,000 -->
      <g style="fill:#555555;" transform="translate(22.133125 81.987949)scale(0.14 -0.14)">
       <use xlink:href="#HelveticaNeue-49"/>
       <use x="55.599991" xlink:href="#HelveticaNeue-48"/>
       <use x="111.199982" xlink:href="#HelveticaNeue-44"/>
       <use x="138.999969" xlink:href="#HelveticaNeue-48"/>
       <use x="194.59996" xlink:href="#HelveticaNeue-48"/>
       <use x="250.199951" xlink:href="#HelveticaNeue-48"/>
       <use x="305.799942" xlink:href="#HelveticaNeue-44"/>
       <use x="333.59993" xlink:href="#HelveticaNeue-48"/>
       <use x="389.199921" xlink:href="#HelveticaNeue-48"/>
       <use x="444.799911" xlink:href="#HelveticaNeue-48"/>
      </g>
     </g>
    </g>
    <g id="ytick_9">
     <g id="line2d_105"/>
    </g>
    <g id="ytick_10">
     <g id="line2d_106"/>
    </g>
    <g id="ytick_11">
     <g id="line2d_107"/>
    </g>
    <g id="ytick_12">
     <g id="line2d_108"/>
    </g>
    <g id="ytick_13">
     <g id="line2d_109"/>
    </g>
    <g id="ytick_14">
     <g id="line2d_110"/>
    </g>
    <g id="ytick_15">
     <g id="line2d_111"/>
    </g>
    <g id="ytick_16">
     <g id="line2d_112"/>
    </g>
    <g id="ytick_17">
     <g id="line2d_113"/>
    </g>
    <g id="ytick_18">
     <g id="line2d_114"/>
    </g>
    <g id="ytick_19">
     <g id="line2d_115"/>
    </g>
    <g id="ytick_20">
     <g id="line2d_116"/>
    </g>
    <g id="ytick_21">
     <g id="line2d_117"/>
    </g>
    <g id="ytick_22">
     <g id="line2d_118"/>
    </g>
    <g id="ytick_23">
     <g id="line2d_119"/>
    </g>
    <g id="ytick_24">
     <g id="line2d_120"/>
    </g>
    <g id="ytick_25">
     <g id="line2d_121"/>
    </g>
    <g id="ytick_26">
     <g id="line2d_122"/>
    </g>
    <g id="ytick_27">
     <g id="line2d_123"/>
    </g>
    <g id="ytick_28">
     <g id="line2d_124"/>
    </g>
    <g id="ytick_29">
     <g id="line2d_125"/>
    </g>
    <g id="ytick_30">
     <g id="line2d_126"/>
    </g>
    <g id="ytick_31">
     <g id="line2d_127"/>
    </g>
    <g id="ytick_32">
     <g id="line2d_128"/>
    </g>
    <g id="ytick_33">
     <g id="line2d_129"/>
    </g>
    <g id="ytick_34">
     <g id="line2d_130"/>
    </g>
    <g id="ytick_35">
     <g id="line2d_131"/>
    </g>
    <g id="ytick_36">
     <g id="line2d_132"/>
    </g>
    <g id="ytick_37">
     <g id="line2d_133"/>
    </g>
    <g id="ytick_38">
     <g id="line2d_134"/>
    </g>
    <g id="ytick_39">
     <g id="line2d_135"/>
    </g>
    <g id="ytick_40">
     <g id="line2d_136"/>
    </g>
    <g id="ytick_41">
     <g id="line2d_137"/>
    </g>
    <g id="ytick_42">
     <g id="line2d_138"/>
    </g>
    <g id="ytick_43">
     <g id="line2d_139"/>
    </g>
    <g id="ytick_44">
     <g id="line2d_140"/>
    </g>
    <g id="ytick_45">
     <g id="line2d_141"/>
    </g>
    <g id="ytick_46">
     <g id="line2d_142"/>
    </g>
    <g id="ytick_47">
     <g id="line2d_143"/>
    </g>
    <g id="ytick_48">
     <g id="line2d_144"/>
    </g>
    <g id="ytick_49">
     <g id="line2d_145"/>
    </g>
    <g id="ytick_50">
     <g id="line2d_146"/>
    </g>
    <g id="ytick_51">
     <g id="line2d_147"/>
    </g>
    <g id="ytick_52">
     <g id="line2d_148"/>
    </g>
    <g id="ytick_53">
     <g id="line2d_149"/>
    </g>
    <g id="ytick_54">
     <g id="line2d_150"/>
    </g>
    <g id="ytick_55">
     <g id="line2d_151"/>
    </g>
    <g id="ytick_56">
     <g id="line2d_152"/>
    </g>
    <g id="ytick_57">
     <g id="line2d_153"/>
    </g>
    <g id="ytick_58">
     <g id="line2d_154"/>
    </g>
    <g id="ytick_59">
     <g id="line2d_155"/>
    </g>
    <g id="ytick_60">
     <g id="line2d_156"/>
    </g>
    <g id="ytick_61">
     <g id="line2d_157"/>
    </g>
    <g id="ytick_62">
     <g id="line2d_158"/>
    </g>
    <g id="ytick_63">
     <g id="line2d_159"/>
    </g>
    <g id="ytick_64">
     <g id="line2d_160"/>
    </g>
    <g id="ytick_65">
     <g id="line2d_161"/>
    </g>
    <g id="ytick_66">
     <g id="line2d_162"/>
    </g>
    <g id="ytick_67">
     <g id="line2d_163"/>
    </g>
    <g id="ytick_68">
     <g id="line2d_164"/>
    </g>
    <g id="ytick_69">
     <g id="line2d_165"/>
    </g>
    <g id="ytick_70">
     <g id="line2d_166"/>
    </g>
    <g id="ytick_71">
     <g id="line2d_167"/>
    </g>
    <g id="ytick_72">
     <g id="line2d_168"/>
    </g>
    <g id="ytick_73">
     <g id="line2d_169"/>
    </g>
    <g id="ytick_74">
     <g id="line2d_170"/>
    </g>
    <g id="ytick_75">
     <g id="line2d_171"/>
    </g>
    <g id="ytick_76">
     <g id="line2d_172"/>
    </g>
    <g id="text_54">
     <!-- Confirmed Cases -->
     <g style="fill:#555555;" transform="translate(15.76875 282.6355)rotate(-90)scale(0.12 -0.12)">
      <defs>
       <path d="M 58 49.90625 
L 67.5 49.90625 
Q 66.703125 55.59375 64.09375 59.9375 
Q 61.5 64.296875 57.59375 67.1875 
Q 53.703125 70.09375 48.703125 71.59375 
Q 43.703125 73.09375 38.09375 73.09375 
Q 29.90625 73.09375 23.546875 70.140625 
Q 17.203125 67.203125 12.953125 62.09375 
Q 8.703125 57 6.5 50.140625 
Q 4.296875 43.296875 4.296875 35.5 
Q 4.296875 27.703125 6.34375 20.890625 
Q 8.40625 14.09375 12.5 9.09375 
Q 16.59375 4.09375 22.796875 1.25 
Q 29 -1.59375 37.296875 -1.59375 
Q 51 -1.59375 58.890625 5.90625 
Q 66.796875 13.40625 68.203125 26.90625 
L 58.703125 26.90625 
Q 58.40625 22.5 56.90625 18.703125 
Q 55.40625 14.90625 52.75 12.15625 
Q 50.09375 9.40625 46.4375 7.84375 
Q 42.796875 6.296875 38.09375 6.296875 
Q 31.703125 6.296875 27.09375 8.6875 
Q 22.5 11.09375 19.546875 15.140625 
Q 16.59375 19.203125 15.1875 24.640625 
Q 13.796875 30.09375 13.796875 36.203125 
Q 13.796875 41.796875 15.1875 47 
Q 16.59375 52.203125 19.546875 56.25 
Q 22.5 60.296875 27.046875 62.6875 
Q 31.59375 65.09375 38 65.09375 
Q 45.5 65.09375 50.953125 61.296875 
Q 56.40625 57.5 58 49.90625 
z
" id="HelveticaNeue-67"/>
       <path d="M 12.59375 25.796875 
Q 12.59375 30.5 13.84375 34.140625 
Q 15.09375 37.796875 17.296875 40.296875 
Q 19.5 42.796875 22.453125 44.09375 
Q 25.40625 45.40625 28.703125 45.40625 
Q 32 45.40625 34.953125 44.09375 
Q 37.90625 42.796875 40.09375 40.296875 
Q 42.296875 37.796875 43.546875 34.140625 
Q 44.796875 30.5 44.796875 25.796875 
Q 44.796875 21.09375 43.546875 17.4375 
Q 42.296875 13.796875 40.09375 11.34375 
Q 37.90625 8.90625 34.953125 7.59375 
Q 32 6.296875 28.703125 6.296875 
Q 25.40625 6.296875 22.453125 7.59375 
Q 19.5 8.90625 17.296875 11.34375 
Q 15.09375 13.796875 13.84375 17.4375 
Q 12.59375 21.09375 12.59375 25.796875 
z
M 3.59375 25.796875 
Q 3.59375 20.09375 5.1875 15.1875 
Q 6.796875 10.296875 10 6.640625 
Q 13.203125 3 17.890625 0.953125 
Q 22.59375 -1.09375 28.703125 -1.09375 
Q 34.90625 -1.09375 39.546875 0.953125 
Q 44.203125 3 47.390625 6.640625 
Q 50.59375 10.296875 52.1875 15.1875 
Q 53.796875 20.09375 53.796875 25.796875 
Q 53.796875 31.5 52.1875 36.453125 
Q 50.59375 41.40625 47.390625 45.046875 
Q 44.203125 48.703125 39.546875 50.796875 
Q 34.90625 52.90625 28.703125 52.90625 
Q 22.59375 52.90625 17.890625 50.796875 
Q 13.203125 48.703125 10 45.046875 
Q 6.796875 41.40625 5.1875 36.453125 
Q 3.59375 31.5 3.59375 25.796875 
z
" id="HelveticaNeue-111"/>
       <path d="M 6.40625 51.703125 
L 6.40625 0 
L 14.90625 0 
L 14.90625 29.203125 
Q 14.90625 32.703125 15.84375 35.640625 
Q 16.796875 38.59375 18.6875 40.796875 
Q 20.59375 43 23.4375 44.203125 
Q 26.296875 45.40625 30.203125 45.40625 
Q 35.09375 45.40625 37.890625 42.59375 
Q 40.703125 39.796875 40.703125 35 
L 40.703125 0 
L 49.203125 0 
L 49.203125 34 
Q 49.203125 38.203125 48.34375 41.640625 
Q 47.5 45.09375 45.390625 47.59375 
Q 43.296875 50.09375 39.890625 51.5 
Q 36.5 52.90625 31.40625 52.90625 
Q 19.90625 52.90625 14.59375 43.5 
L 14.40625 43.5 
L 14.40625 51.703125 
z
" id="HelveticaNeue-110"/>
       <path d="M 9.90625 44.203125 
L 9.90625 0 
L 18.40625 0 
L 18.40625 44.203125 
L 28.40625 44.203125 
L 28.40625 51.703125 
L 18.40625 51.703125 
L 18.40625 58.90625 
Q 18.40625 62.296875 20.09375 63.5 
Q 21.796875 64.703125 24.90625 64.703125 
Q 26 64.703125 27.296875 64.546875 
Q 28.59375 64.40625 29.703125 64 
L 29.703125 71.40625 
Q 28.5 71.796875 26.953125 72 
Q 25.40625 72.203125 24.203125 72.203125 
Q 17.203125 72.203125 13.546875 68.953125 
Q 9.90625 65.703125 9.90625 59.40625 
L 9.90625 51.703125 
L 1.203125 51.703125 
L 1.203125 44.203125 
z
" id="HelveticaNeue-102"/>
       <path d="M 15.40625 61 
L 15.40625 71.40625 
L 6.90625 71.40625 
L 6.90625 61 
z
M 6.90625 51.703125 
L 6.90625 0 
L 15.40625 0 
L 15.40625 51.703125 
z
" id="HelveticaNeue-105"/>
       <path d="M 6.09375 51.703125 
L 6.09375 0 
L 14.59375 0 
L 14.59375 23 
Q 14.59375 28 15.59375 31.84375 
Q 16.59375 35.703125 18.796875 38.390625 
Q 21 41.09375 24.59375 42.5 
Q 28.203125 43.90625 33.296875 43.90625 
L 33.296875 52.90625 
Q 26.40625 53.09375 21.90625 50.09375 
Q 17.40625 47.09375 14.296875 40.796875 
L 14.09375 40.796875 
L 14.09375 51.703125 
z
" id="HelveticaNeue-114"/>
       <path d="M 6.40625 51.703125 
L 6.40625 0 
L 14.90625 0 
L 14.90625 32.203125 
Q 14.90625 33.703125 15.65625 35.953125 
Q 16.40625 38.203125 18.046875 40.296875 
Q 19.703125 42.40625 22.34375 43.90625 
Q 25 45.40625 28.703125 45.40625 
Q 31.59375 45.40625 33.4375 44.546875 
Q 35.296875 43.703125 36.390625 42.140625 
Q 37.5 40.59375 37.953125 38.5 
Q 38.40625 36.40625 38.40625 33.90625 
L 38.40625 0 
L 46.90625 0 
L 46.90625 32.203125 
Q 46.90625 38.203125 50.5 41.796875 
Q 54.09375 45.40625 60.40625 45.40625 
Q 63.5 45.40625 65.453125 44.5 
Q 67.40625 43.59375 68.5 42.046875 
Q 69.59375 40.5 70 38.390625 
Q 70.40625 36.296875 70.40625 33.90625 
L 70.40625 0 
L 78.90625 0 
L 78.90625 37.90625 
Q 78.90625 41.90625 77.65625 44.75 
Q 76.40625 47.59375 74.15625 49.390625 
Q 71.90625 51.203125 68.75 52.046875 
Q 65.59375 52.90625 61.703125 52.90625 
Q 56.59375 52.90625 52.34375 50.59375 
Q 48.09375 48.296875 45.5 44.09375 
Q 43.90625 48.90625 40 50.90625 
Q 36.09375 52.90625 31.296875 52.90625 
Q 20.40625 52.90625 14.59375 44.09375 
L 14.40625 44.09375 
L 14.40625 51.703125 
z
" id="HelveticaNeue-109"/>
       <path d="M 12.59375 25.40625 
Q 12.59375 29.203125 13.390625 32.796875 
Q 14.203125 36.40625 16 39.203125 
Q 17.796875 42 20.796875 43.703125 
Q 23.796875 45.40625 28.09375 45.40625 
Q 32.5 45.40625 35.59375 43.75 
Q 38.703125 42.09375 40.640625 39.390625 
Q 42.59375 36.703125 43.5 33.140625 
Q 44.40625 29.59375 44.40625 25.796875 
Q 44.40625 22.203125 43.546875 18.703125 
Q 42.703125 15.203125 40.796875 12.453125 
Q 38.90625 9.703125 35.90625 8 
Q 32.90625 6.296875 28.59375 6.296875 
Q 24.5 6.296875 21.453125 7.890625 
Q 18.40625 9.5 16.453125 12.203125 
Q 14.5 14.90625 13.546875 18.34375 
Q 12.59375 21.796875 12.59375 25.40625 
z
M 52.59375 0 
L 52.59375 71.40625 
L 44.09375 71.40625 
L 44.09375 44.796875 
L 43.90625 44.796875 
Q 42.5 47.09375 40.453125 48.640625 
Q 38.40625 50.203125 36.09375 51.140625 
Q 33.796875 52.09375 31.5 52.5 
Q 29.203125 52.90625 27.203125 52.90625 
Q 21.296875 52.90625 16.84375 50.75 
Q 12.40625 48.59375 9.453125 44.9375 
Q 6.5 41.296875 5.046875 36.390625 
Q 3.59375 31.5 3.59375 26 
Q 3.59375 20.5 5.09375 15.59375 
Q 6.59375 10.703125 9.546875 7 
Q 12.5 3.296875 16.953125 1.09375 
Q 21.40625 -1.09375 27.40625 -1.09375 
Q 32.796875 -1.09375 37.296875 0.796875 
Q 41.796875 2.703125 43.90625 7 
L 44.09375 7 
L 44.09375 0 
z
" id="HelveticaNeue-100"/>
       <path id="HelveticaNeue-32"/>
      </defs>
      <use xlink:href="#HelveticaNeue-67"/>
      <use x="72.199982" xlink:href="#HelveticaNeue-111"/>
      <use x="129.599976" xlink:href="#HelveticaNeue-110"/>
      <use x="185.199966" xlink:href="#HelveticaNeue-102"/>
      <use x="214.799957" xlink:href="#HelveticaNeue-105"/>
      <use x="236.999954" xlink:href="#HelveticaNeue-114"/>
      <use x="270.299942" xlink:href="#HelveticaNeue-109"/>
      <use x="355.59993" xlink:href="#HelveticaNeue-101"/>
      <use x="409.299927" xlink:href="#HelveticaNeue-100"/>
      <use x="468.599915" xlink:href="#HelveticaNeue-32"/>
      <use x="496.399902" xlink:href="#HelveticaNeue-67"/>
      <use x="568.599884" xlink:href="#HelveticaNeue-97"/>
      <use x="622.299881" xlink:href="#HelveticaNeue-115"/>
      <use x="672.299866" xlink:href="#HelveticaNeue-101"/>
      <use x="725.999863" xlink:href="#HelveticaNeue-115"/>
     </g>
    </g>
   </g>
   <g id="line2d_173">
    <path clip-path="url(#p35ed8629b9)" d="M 121.044886 421.966409 
L 122.869608 421.966409 
L 123.781969 407.130924 
L 124.69433 398.452722 
L 125.606691 387.51948 
L 128.343775 387.51948 
L 129.256136 383.617237 
L 130.168497 380.317938 
L 131.080858 377.459955 
L 131.993219 370.644064 
L 133.817941 370.644064 
L 134.730302 368.781752 
L 138.379746 368.781752 
L 139.292107 367.068592 
L 140.204468 367.068592 
L 142.02919 364.005793 
L 144.766273 364.005793 
L 145.678634 353.072551 
L 147.503356 353.072551 
L 148.415717 351.425348 
L 149.328078 349.170308 
L 151.1528 349.170308 
L 152.065161 341.465141 
L 152.977522 340.492106 
L 153.889883 334.334823 
L 154.802244 334.334823 
L 156.626966 331.035524 
L 157.539327 326.137609 
L 159.364049 318.625622 
L 160.27641 313.208703 
L 162.101132 299.11716 
L 163.013493 292.282508 
L 163.925854 287.031784 
L 165.750576 273.737338 
L 166.662937 269.121766 
L 169.40002 251.345844 
L 171.224742 241.89401 
L 172.137103 236.107965 
L 173.049465 228.696233 
L 174.874187 212.242044 
L 176.698909 199.235841 
L 177.61127 193.368002 
L 179.435992 183.62942 
L 180.348353 178.889698 
L 182.173075 170.956163 
L 186.73488 156.365863 
L 188.559602 151.165224 
L 194.033768 141.13371 
L 194.946129 139.815659 
L 196.770851 137.783005 
L 199.507934 134.768281 
L 201.332656 132.941487 
L 205.894461 129.176141 
L 207.719183 127.49945 
L 209.543905 126.396576 
L 212.280988 124.708994 
L 214.10571 123.482542 
L 215.930432 122.59737 
L 221.404599 120.058619 
L 224.141682 119.102604 
L 226.878765 117.957046 
L 230.528209 116.759219 
L 233.265292 115.795909 
L 246.950707 111.940662 
L 250.600151 111.049356 
L 253.337234 110.326473 
L 256.074317 109.620326 
L 261.548483 107.894475 
L 264.285567 106.801098 
L 269.759733 104.551743 
L 271.584455 103.736139 
L 274.321538 102.671504 
L 284.357509 98.137795 
L 292.568758 95.034488 
L 298.042924 93.243835 
L 301.692368 92.29429 
L 304.429451 91.584761 
L 308.991257 90.47801 
L 311.72834 89.960168 
L 322.676672 88.010182 
L 327.238477 87.3305 
L 329.97556 86.903312 
L 333.625004 86.480652 
L 336.362087 86.084131 
L 342.748614 85.162354 
L 345.485697 84.746594 
L 368.294723 81.199514 
L 377.418333 79.401456 
L 385.629582 77.352413 
L 391.103748 75.665896 
L 392.92847 74.991503 
L 395.665553 74.106666 
L 402.964442 71.620338 
L 403.876803 71.449491 
L 405.701525 70.86724 
L 407.526247 70.384294 
L 410.26333 69.45657 
L 412.088052 68.808549 
L 414.825135 67.955156 
L 423.948745 65.003864 
L 429.422911 63.586886 
L 430.335272 63.471706 
L 433.072355 62.845925 
L 439.458882 61.194253 
L 443.108327 60.124447 
L 446.757771 59.250466 
L 451.319576 58.263509 
L 454.056659 57.8101 
L 458.618464 57.091788 
L 466.829713 56.051347 
L 472.303879 55.545023 
L 479.602767 55.048934 
L 495.112905 54.205353 
L 502.411793 53.866446 
L 530.694984 52.474372 
L 540.730956 52.032893 
L 560.802898 51.446252 
L 576.313035 51.218552 
L 580.874841 51.201713 
L 599.122061 51.045109 
L 614.632198 50.770143 
L 628.317614 50.184591 
L 628.317614 50.184591 
" style="fill:none;stroke:#008fd5;stroke-width:4;"/>
   </g>
   <g id="line2d_174">
    <path clip-path="url(#p35ed8629b9)" d="M 157.53768 496.132081 
L 157.539327 407.130924 
L 158.451688 407.130924 
L 159.364049 398.452722 
L 160.27641 398.452722 
L 161.188771 392.295439 
L 163.013493 368.781752 
L 164.838215 365.482453 
L 165.750576 354.857174 
L 166.662937 352.233107 
L 167.575298 340.021689 
L 168.487659 331.035524 
L 169.40002 331.035524 
L 170.312381 321.557113 
L 171.224742 316.047703 
L 173.049465 298.108979 
L 176.698909 274.119167 
L 178.523631 265.91709 
L 179.435992 259.596299 
L 181.260714 249.237538 
L 182.173075 244.245828 
L 183.085436 239.917635 
L 183.997797 236.886613 
L 184.910158 233.274457 
L 187.647241 224.287385 
L 188.559602 221.776666 
L 189.471963 220.333053 
L 190.384324 218.22261 
L 191.296685 216.534243 
L 193.121407 213.708776 
L 194.033768 212.303924 
L 194.946129 211.1239 
L 195.85849 210.157006 
L 196.770851 208.945801 
L 197.683212 208.334257 
L 199.507934 206.703192 
L 200.420295 205.444742 
L 204.069739 202.906242 
L 204.9821 202.570871 
L 205.894461 201.581457 
L 206.806822 200.951752 
L 207.719183 200.738264 
L 210.456266 199.388463 
L 212.280988 198.844678 
L 213.193349 198.19568 
L 215.930432 196.898707 
L 217.755155 196.266998 
L 218.667516 195.806675 
L 219.579877 195.603099 
L 221.404599 194.853449 
L 222.31696 194.650863 
L 223.229321 194.164884 
L 224.141682 193.921679 
L 228.703487 191.973461 
L 230.528209 191.504337 
L 231.44057 190.968175 
L 235.090014 189.658492 
L 237.827097 189.03112 
L 239.651819 188.188617 
L 242.388902 187.421206 
L 246.038346 185.528424 
L 250.600151 183.477332 
L 251.512512 182.895844 
L 252.424873 182.131213 
L 255.161956 180.303295 
L 256.986678 178.802831 
L 259.723761 176.143907 
L 261.548483 174.819077 
L 263.373206 172.748054 
L 265.197928 169.52527 
L 266.110289 168.190294 
L 267.935011 166.532748 
L 268.847372 165.630484 
L 271.584455 161.811733 
L 272.496816 160.707835 
L 274.321538 159.292165 
L 277.058621 156.450294 
L 277.970982 155.560814 
L 278.883343 154.311314 
L 279.795704 153.332593 
L 281.620426 151.912476 
L 282.532787 150.944341 
L 285.26987 148.738968 
L 287.094592 147.562055 
L 289.831675 145.760442 
L 290.744036 145.121085 
L 295.305841 142.828338 
L 298.042924 141.665804 
L 300.780007 140.990825 
L 304.429451 139.747582 
L 306.254173 139.350146 
L 308.078896 138.791839 
L 310.815979 138.175415 
L 313.553062 137.782235 
L 317.202506 137.185094 
L 320.85195 136.781925 
L 323.589033 136.448959 
L 324.501394 136.384151 
L 325.413755 136.125876 
L 334.537365 135.218063 
L 341.836253 134.487769 
L 355.521669 133.408685 
L 358.258752 133.222843 
L 362.820557 132.832043 
L 371.031806 132.074729 
L 373.768889 131.693105 
L 376.505972 131.417506 
L 386.541943 130.078437 
L 388.366665 129.805471 
L 391.103748 129.41032 
L 403.876803 127.108487 
L 404.789164 126.725915 
L 408.438608 126.098028 
L 413.912774 124.908462 
L 416.649857 124.335583 
L 419.38694 123.733453 
L 422.124023 123.181676 
L 424.861106 122.492083 
L 427.598189 121.963216 
L 429.422911 121.538163 
L 430.335272 121.538163 
L 431.247633 121.247766 
L 433.984716 120.784599 
L 435.809438 120.276197 
L 436.721799 120.276197 
L 437.63416 119.772403 
L 440.371243 119.191269 
L 444.933049 117.924417 
L 448.582493 117.15333 
L 450.407215 116.751837 
L 459.530825 115.324712 
L 462.267908 114.932959 
L 464.09263 114.647487 
L 467.742074 114.266044 
L 470.479157 113.954986 
L 481.427489 113.030924 
L 487.814017 112.554393 
L 501.499432 111.726255 
L 512.447764 111.144987 
L 545.292761 109.07296 
L 552.591649 108.758505 
L 570.838869 108.252324 
L 576.313035 108.169034 
L 577.225397 108.544609 
L 584.524285 108.437792 
L 611.895115 107.881592 
L 613.719837 107.685732 
L 621.018725 107.071393 
L 621.931086 106.832611 
L 624.66817 106.832611 
L 625.580531 106.504416 
L 627.405253 106.22051 
L 628.317614 105.89774 
L 628.317614 105.89774 
" style="fill:none;stroke:#fc4f30;stroke-width:4;"/>
   </g>
   <g id="patch_3">
    <path d="M 95.68125 440.5555 
L 95.68125 31.5955 
" style="fill:none;stroke:#f0f0f0;stroke-linecap:square;stroke-linejoin:miter;stroke-width:3;"/>
   </g>
   <g id="patch_4">
    <path d="M 95.68125 440.5555 
L 653.68125 440.5555 
" style="fill:none;stroke:#f0f0f0;stroke-linecap:square;stroke-linejoin:miter;stroke-width:3;"/>
   </g>
   <g id="text_55">
    <!-- Cases of COVID-19 in the United States -->
    <g style="fill:#555555;" transform="translate(194.512275 21.5955)scale(0.2016 -0.2016)">
     <defs>
      <path d="M 13.296875 35.703125 
Q 13.296875 41.09375 14.6875 46.34375 
Q 16.09375 51.59375 19.09375 55.796875 
Q 22.09375 60 26.796875 62.546875 
Q 31.5 65.09375 38 65.09375 
Q 44.5 65.09375 49.203125 62.546875 
Q 53.90625 60 56.90625 55.796875 
Q 59.90625 51.59375 61.296875 46.34375 
Q 62.703125 41.09375 62.703125 35.703125 
Q 62.703125 30.296875 61.296875 25.046875 
Q 59.90625 19.796875 56.90625 15.59375 
Q 53.90625 11.40625 49.203125 8.84375 
Q 44.5 6.296875 38 6.296875 
Q 31.5 6.296875 26.796875 8.84375 
Q 22.09375 11.40625 19.09375 15.59375 
Q 16.09375 19.796875 14.6875 25.046875 
Q 13.296875 30.296875 13.296875 35.703125 
z
M 3.796875 35.703125 
Q 3.796875 28.40625 5.9375 21.65625 
Q 8.09375 14.90625 12.390625 9.703125 
Q 16.703125 4.5 23.09375 1.453125 
Q 29.5 -1.59375 38 -1.59375 
Q 46.5 -1.59375 52.890625 1.453125 
Q 59.296875 4.5 63.59375 9.703125 
Q 67.90625 14.90625 70.046875 21.65625 
Q 72.203125 28.40625 72.203125 35.703125 
Q 72.203125 43 70.046875 49.75 
Q 67.90625 56.5 63.59375 61.703125 
Q 59.296875 66.90625 52.890625 70 
Q 46.5 73.09375 38 73.09375 
Q 29.5 73.09375 23.09375 70 
Q 16.703125 66.90625 12.390625 61.703125 
Q 8.09375 56.5 5.9375 49.75 
Q 3.796875 43 3.796875 35.703125 
z
" id="HelveticaNeue-79"/>
      <path d="M 35.90625 0 
L 61.296875 71.40625 
L 51.40625 71.40625 
L 30.796875 9.5 
L 30.59375 9.5 
L 10.203125 71.40625 
L 0 71.40625 
L 25.09375 0 
z
" id="HelveticaNeue-86"/>
      <path d="M 8.203125 71.40625 
L 8.203125 0 
L 17.703125 0 
L 17.703125 71.40625 
z
" id="HelveticaNeue-73"/>
      <path d="M 5 31.796875 
L 5 23.796875 
L 33.90625 23.796875 
L 33.90625 31.796875 
z
" id="HelveticaNeue-45"/>
      <path d="M 6.40625 71.40625 
L 6.40625 0 
L 14.90625 0 
L 14.90625 29.203125 
Q 14.90625 32.703125 15.84375 35.640625 
Q 16.796875 38.59375 18.6875 40.796875 
Q 20.59375 43 23.4375 44.203125 
Q 26.296875 45.40625 30.203125 45.40625 
Q 35.09375 45.40625 37.890625 42.59375 
Q 40.703125 39.796875 40.703125 35 
L 40.703125 0 
L 49.203125 0 
L 49.203125 34 
Q 49.203125 38.203125 48.34375 41.640625 
Q 47.5 45.09375 45.390625 47.59375 
Q 43.296875 50.09375 39.890625 51.5 
Q 36.5 52.90625 31.40625 52.90625 
Q 29.09375 52.90625 26.640625 52.40625 
Q 24.203125 51.90625 21.953125 50.84375 
Q 19.703125 49.796875 17.890625 48.140625 
Q 16.09375 46.5 15.09375 44.09375 
L 14.90625 44.09375 
L 14.90625 71.40625 
z
" id="HelveticaNeue-104"/>
      <path d="M 64.796875 25.796875 
L 64.796875 71.40625 
L 55.296875 71.40625 
L 55.296875 25.796875 
Q 55.296875 16.203125 50.546875 11.25 
Q 45.796875 6.296875 36.703125 6.296875 
Q 27.09375 6.296875 22 11.25 
Q 16.90625 16.203125 16.90625 25.796875 
L 16.90625 71.40625 
L 7.40625 71.40625 
L 7.40625 25.796875 
Q 7.40625 11.5 15.15625 4.953125 
Q 22.90625 -1.59375 36.703125 -1.59375 
Q 50.203125 -1.59375 57.5 5.25 
Q 64.796875 12.09375 64.796875 25.796875 
z
" id="HelveticaNeue-85"/>
      <path d="M 49.09375 50.5 
L 58.09375 50.5 
Q 57.90625 56.40625 55.84375 60.65625 
Q 53.796875 64.90625 50.25 67.703125 
Q 46.703125 70.5 42 71.796875 
Q 37.296875 73.09375 31.796875 73.09375 
Q 26.90625 73.09375 22.25 71.84375 
Q 17.59375 70.59375 13.9375 68.046875 
Q 10.296875 65.5 8.09375 61.546875 
Q 5.90625 57.59375 5.90625 52.203125 
Q 5.90625 47.296875 7.84375 44.046875 
Q 9.796875 40.796875 13.046875 38.75 
Q 16.296875 36.703125 20.390625 35.453125 
Q 24.5 34.203125 28.75 33.25 
Q 33 32.296875 37.09375 31.390625 
Q 41.203125 30.5 44.453125 29.046875 
Q 47.703125 27.59375 49.640625 25.296875 
Q 51.59375 23 51.59375 19.296875 
Q 51.59375 15.40625 50 12.90625 
Q 48.40625 10.40625 45.796875 8.953125 
Q 43.203125 7.5 39.953125 6.890625 
Q 36.703125 6.296875 33.5 6.296875 
Q 29.5 6.296875 25.703125 7.296875 
Q 21.90625 8.296875 19.046875 10.390625 
Q 16.203125 12.5 14.453125 15.75 
Q 12.703125 19 12.703125 23.5 
L 3.703125 23.5 
Q 3.703125 17 6.046875 12.25 
Q 8.40625 7.5 12.453125 4.453125 
Q 16.5 1.40625 21.84375 -0.09375 
Q 27.203125 -1.59375 33.203125 -1.59375 
Q 38.09375 -1.59375 43.046875 -0.4375 
Q 48 0.703125 52 3.25 
Q 56 5.796875 58.546875 9.84375 
Q 61.09375 13.90625 61.09375 19.59375 
Q 61.09375 24.90625 59.140625 28.40625 
Q 57.203125 31.90625 53.953125 34.203125 
Q 50.703125 36.5 46.59375 37.84375 
Q 42.5 39.203125 38.25 40.203125 
Q 34 41.203125 29.890625 42.046875 
Q 25.796875 42.90625 22.546875 44.203125 
Q 19.296875 45.5 17.34375 47.546875 
Q 15.40625 49.59375 15.40625 52.90625 
Q 15.40625 56.40625 16.75 58.75 
Q 18.09375 61.09375 20.34375 62.5 
Q 22.59375 63.90625 25.5 64.5 
Q 28.40625 65.09375 31.40625 65.09375 
Q 38.796875 65.09375 43.546875 61.640625 
Q 48.296875 58.203125 49.09375 50.5 
z
" id="HelveticaNeue-83"/>
     </defs>
     <use xlink:href="#HelveticaNeue-67"/>
     <use x="72.199982" xlink:href="#HelveticaNeue-97"/>
     <use x="125.899979" xlink:href="#HelveticaNeue-115"/>
     <use x="175.899963" xlink:href="#HelveticaNeue-101"/>
     <use x="229.59996" xlink:href="#HelveticaNeue-115"/>
     <use x="279.599945" xlink:href="#HelveticaNeue-32"/>
     <use x="307.399933" xlink:href="#HelveticaNeue-111"/>
     <use x="364.799927" xlink:href="#HelveticaNeue-102"/>
     <use x="394.399918" xlink:href="#HelveticaNeue-32"/>
     <use x="422.199905" xlink:href="#HelveticaNeue-67"/>
     <use x="494.399887" xlink:href="#HelveticaNeue-79"/>
     <use x="570.399872" xlink:href="#HelveticaNeue-86"/>
     <use x="631.499863" xlink:href="#HelveticaNeue-73"/>
     <use x="657.399857" xlink:href="#HelveticaNeue-68"/>
     <use x="727.79985" xlink:href="#HelveticaNeue-45"/>
     <use x="766.699844" xlink:href="#HelveticaNeue-49"/>
     <use x="822.299835" xlink:href="#HelveticaNeue-57"/>
     <use x="877.899826" xlink:href="#HelveticaNeue-32"/>
     <use x="905.699814" xlink:href="#HelveticaNeue-105"/>
     <use x="927.899811" xlink:href="#HelveticaNeue-110"/>
     <use x="983.499802" xlink:href="#HelveticaNeue-32"/>
     <use x="1011.299789" xlink:href="#HelveticaNeue-116"/>
     <use x="1042.799774" xlink:href="#HelveticaNeue-104"/>
     <use x="1098.399765" xlink:href="#HelveticaNeue-101"/>
     <use x="1152.099762" xlink:href="#HelveticaNeue-32"/>
     <use x="1179.89975" xlink:href="#HelveticaNeue-85"/>
     <use x="1252.099731" xlink:href="#HelveticaNeue-110"/>
     <use x="1307.699722" xlink:href="#HelveticaNeue-105"/>
     <use x="1329.899719" xlink:href="#HelveticaNeue-116"/>
     <use x="1361.399704" xlink:href="#HelveticaNeue-101"/>
     <use x="1415.099701" xlink:href="#HelveticaNeue-100"/>
     <use x="1474.399689" xlink:href="#HelveticaNeue-32"/>
     <use x="1502.199677" xlink:href="#HelveticaNeue-83"/>
     <use x="1566.999664" xlink:href="#HelveticaNeue-116"/>
     <use x="1598.499649" xlink:href="#HelveticaNeue-97"/>
     <use x="1652.199646" xlink:href="#HelveticaNeue-116"/>
     <use x="1683.699631" xlink:href="#HelveticaNeue-101"/>
     <use x="1737.399628" xlink:href="#HelveticaNeue-115"/>
    </g>
   </g>
   <g id="legend_1">
    <g id="line2d_175">
     <path d="M 108.28125 49.292375 
L 136.28125 49.292375 
" style="fill:none;stroke:#008fd5;stroke-width:4;"/>
    </g>
    <g id="line2d_176"/>
    <g id="text_56">
     <!-- Total US Cases -->
     <g style="fill:#555555;" transform="translate(147.48125 54.192375)scale(0.14 -0.14)">
      <defs>
       <path d="M 24 63.40625 
L 24 0 
L 33.5 0 
L 33.5 63.40625 
L 57.296875 63.40625 
L 57.296875 71.40625 
L 0.203125 71.40625 
L 0.203125 63.40625 
z
" id="HelveticaNeue-84"/>
       <path d="M 6.90625 71.40625 
L 6.90625 0 
L 15.40625 0 
L 15.40625 71.40625 
z
" id="HelveticaNeue-108"/>
      </defs>
      <use xlink:href="#HelveticaNeue-84"/>
      <use x="46.274994" xlink:href="#HelveticaNeue-111"/>
      <use x="103.674988" xlink:href="#HelveticaNeue-116"/>
      <use x="135.174973" xlink:href="#HelveticaNeue-97"/>
      <use x="188.874969" xlink:href="#HelveticaNeue-108"/>
      <use x="211.074966" xlink:href="#HelveticaNeue-32"/>
      <use x="238.874954" xlink:href="#HelveticaNeue-85"/>
      <use x="311.074936" xlink:href="#HelveticaNeue-83"/>
      <use x="375.874924" xlink:href="#HelveticaNeue-32"/>
      <use x="403.674911" xlink:href="#HelveticaNeue-67"/>
      <use x="475.874893" xlink:href="#HelveticaNeue-97"/>
      <use x="529.57489" xlink:href="#HelveticaNeue-115"/>
      <use x="579.574875" xlink:href="#HelveticaNeue-101"/>
      <use x="633.274872" xlink:href="#HelveticaNeue-115"/>
     </g>
    </g>
    <g id="line2d_177">
     <path d="M 108.28125 69.047687 
L 136.28125 69.047687 
" style="fill:none;stroke:#fc4f30;stroke-width:4;"/>
    </g>
    <g id="line2d_178"/>
    <g id="text_57">
     <!-- Total Cases in Florida -->
     <g style="fill:#555555;" transform="translate(147.48125 73.947687)scale(0.14 -0.14)">
      <defs>
       <path d="M 7.796875 71.40625 
L 7.796875 0 
L 17.296875 0 
L 17.296875 32.703125 
L 50.09375 32.703125 
L 50.09375 40.703125 
L 17.296875 40.703125 
L 17.296875 63.40625 
L 54.703125 63.40625 
L 54.703125 71.40625 
z
" id="HelveticaNeue-70"/>
      </defs>
      <use xlink:href="#HelveticaNeue-84"/>
      <use x="46.274994" xlink:href="#HelveticaNeue-111"/>
      <use x="103.674988" xlink:href="#HelveticaNeue-116"/>
      <use x="135.174973" xlink:href="#HelveticaNeue-97"/>
      <use x="188.874969" xlink:href="#HelveticaNeue-108"/>
      <use x="211.074966" xlink:href="#HelveticaNeue-32"/>
      <use x="238.874954" xlink:href="#HelveticaNeue-67"/>
      <use x="311.074936" xlink:href="#HelveticaNeue-97"/>
      <use x="364.774933" xlink:href="#HelveticaNeue-115"/>
      <use x="414.774918" xlink:href="#HelveticaNeue-101"/>
      <use x="468.474915" xlink:href="#HelveticaNeue-115"/>
      <use x="518.474899" xlink:href="#HelveticaNeue-32"/>
      <use x="546.274887" xlink:href="#HelveticaNeue-105"/>
      <use x="568.474884" xlink:href="#HelveticaNeue-110"/>
      <use x="624.074875" xlink:href="#HelveticaNeue-32"/>
      <use x="651.874863" xlink:href="#HelveticaNeue-70"/>
      <use x="709.274857" xlink:href="#HelveticaNeue-108"/>
      <use x="731.474854" xlink:href="#HelveticaNeue-111"/>
      <use x="788.874847" xlink:href="#HelveticaNeue-114"/>
      <use x="822.174835" xlink:href="#HelveticaNeue-105"/>
      <use x="844.374832" xlink:href="#HelveticaNeue-100"/>
      <use x="903.67482" xlink:href="#HelveticaNeue-97"/>
     </g>
    </g>
   </g>
  </g>
 </g>
 <defs>
  <clipPath id="p35ed8629b9">
   <rect height="408.96" width="558" x="95.68125" y="31.5955"/>
  </clipPath>
 </defs>
</svg>
