<?xml version="1.0" encoding="utf-8" standalone="no"?>
<!DOCTYPE svg PUBLIC "-//W3C//DTD SVG 1.1//EN"
  "http://www.w3.org/Graphics/SVG/1.1/DTD/svg11.dtd">
<!-- Created with matplotlib (https://matplotlib.org/) -->
<svg height="476.378058pt" version="1.1" viewBox="0 0 661.15375 476.378058" width="661.15375pt" xmlns="http://www.w3.org/2000/svg" xmlns:xlink="http://www.w3.org/1999/xlink">
 <metadata>
  <rdf:RDF xmlns:cc="http://creativecommons.org/ns#" xmlns:dc="http://purl.org/dc/elements/1.1/" xmlns:rdf="http://www.w3.org/1999/02/22-rdf-syntax-ns#">
   <cc:Work>
    <dc:type rdf:resource="http://purl.org/dc/dcmitype/StillImage"/>
    <dc:date>2021-02-20T13:18:22.295137</dc:date>
    <dc:format>image/svg+xml</dc:format>
    <dc:creator>
     <cc:Agent>
      <dc:title>Matplotlib v3.3.4, https://matplotlib.org/</dc:title>
     </cc:Agent>
    </dc:creator>
   </cc:Work>
  </rdf:RDF>
 </metadata>
 <defs>
  <style type="text/css">*{stroke-linecap:butt;stroke-linejoin:round;}</style>
 </defs>
 <g id="figure_1">
  <g id="patch_1">
   <path d="M 0 476.378058 
L 661.15375 476.378058 
L 661.15375 0 
L 0 0 
z
" style="fill:#f0f0f0;"/>
  </g>
  <g id="axes_1">
   <g id="patch_2">
    <path d="M 95.95375 420 
L 653.95375 420 
L 653.95375 28.32 
L 95.95375 28.32 
z
" style="fill:#f0f0f0;"/>
   </g>
   <g id="matplotlib.axis_1">
    <g id="xtick_1">
     <g id="line2d_1">
      <path clip-path="url(#p04bc831c96)" d="M 111.615747 420 
L 111.615747 28.32 
" style="fill:none;stroke:#cbcbcb;"/>
     </g>
     <g id="line2d_2"/>
     <g id="text_1">
      <!-- 01/13 -->
      <g transform="translate(77.831314 451.277798)rotate(-30)scale(0.14 -0.14)">
       <defs>
        <path d="M 51.65625 29.9375 
Q 51.65625 14.59375 45.921875 6.796875 
Q 40.1875 -0.984375 28.46875 -0.984375 
Q 16.9375 -0.984375 11.109375 6.609375 
Q 5.28125 14.203125 5.125 29.109375 
L 5.125 41.40625 
Q 5.125 56.734375 10.859375 64.40625 
Q 16.609375 72.078125 28.375 72.078125 
Q 40.046875 72.078125 45.78125 64.59375 
Q 51.515625 57.125 51.65625 42.234375 
z
M 39.796875 43.21875 
Q 39.796875 53.21875 37.0625 57.875 
Q 34.328125 62.546875 28.375 62.546875 
Q 22.5625 62.546875 19.828125 58.125 
Q 17.09375 53.71875 16.9375 44.34375 
L 16.9375 28.21875 
Q 16.9375 18.265625 19.71875 13.375 
Q 22.515625 8.5 28.46875 8.5 
Q 34.1875 8.5 36.921875 13.015625 
Q 39.65625 17.53125 39.796875 27.15625 
z
" id="Roboto-Medium-48"/>
        <path d="M 37.453125 0 
L 25.640625 0 
L 25.640625 57.078125 
L 8.203125 51.125 
L 8.203125 61.140625 
L 35.9375 71.34375 
L 37.453125 71.34375 
z
" id="Roboto-Medium-49"/>
        <path d="M 9.421875 -6.109375 
L 0.09375 -6.109375 
L 28.078125 71.09375 
L 37.40625 71.09375 
z
" id="Roboto-Medium-47"/>
        <path d="M 19.046875 40.96875 
L 26.265625 40.96875 
Q 31.734375 41.015625 34.9375 43.796875 
Q 38.140625 46.578125 38.140625 51.859375 
Q 38.140625 56.9375 35.46875 59.734375 
Q 32.8125 62.546875 27.34375 62.546875 
Q 22.5625 62.546875 19.484375 59.78125 
Q 16.40625 57.03125 16.40625 52.59375 
L 4.546875 52.59375 
Q 4.546875 58.0625 7.453125 62.546875 
Q 10.359375 67.046875 15.546875 69.5625 
Q 20.75 72.078125 27.203125 72.078125 
Q 37.84375 72.078125 43.921875 66.71875 
Q 50 61.375 50 51.859375 
Q 50 47.078125 46.9375 42.84375 
Q 43.890625 38.625 39.0625 36.46875 
Q 44.921875 34.46875 47.96875 30.171875 
Q 51.03125 25.875 51.03125 19.921875 
Q 51.03125 10.359375 44.453125 4.6875 
Q 37.890625 -0.984375 27.203125 -0.984375 
Q 16.9375 -0.984375 10.390625 4.484375 
Q 3.859375 9.96875 3.859375 19.046875 
L 15.71875 19.046875 
Q 15.71875 14.359375 18.859375 11.421875 
Q 22.015625 8.5 27.34375 8.5 
Q 32.859375 8.5 36.03125 11.421875 
Q 39.203125 14.359375 39.203125 19.921875 
Q 39.203125 25.53125 35.875 28.5625 
Q 32.5625 31.59375 26.03125 31.59375 
L 19.046875 31.59375 
z
" id="Roboto-Medium-51"/>
       </defs>
       <use xlink:href="#Roboto-Medium-48"/>
       <use x="56.835938" xlink:href="#Roboto-Medium-49"/>
       <use x="113.671875" xlink:href="#Roboto-Medium-47"/>
       <use x="153.222656" xlink:href="#Roboto-Medium-49"/>
       <use x="210.058594" xlink:href="#Roboto-Medium-51"/>
      </g>
     </g>
    </g>
    <g id="xtick_2">
     <g id="line2d_3">
      <path clip-path="url(#p04bc831c96)" d="M 129.595033 420 
L 129.595033 28.32 
" style="fill:none;stroke:#cbcbcb;"/>
     </g>
     <g id="line2d_4"/>
     <g id="text_2">
      <!-- 01/27 -->
      <g transform="translate(95.810601 451.277798)rotate(-30)scale(0.14 -0.14)">
       <defs>
        <path d="M 53.125 0 
L 5.328125 0 
L 5.328125 8.15625 
L 29 33.984375 
Q 34.125 39.703125 36.296875 43.53125 
Q 38.484375 47.359375 38.484375 51.21875 
Q 38.484375 56.296875 35.625 59.421875 
Q 32.765625 62.546875 27.9375 62.546875 
Q 22.171875 62.546875 19 59.03125 
Q 15.828125 55.515625 15.828125 49.421875 
L 3.953125 49.421875 
Q 3.953125 55.90625 6.90625 61.109375 
Q 9.859375 66.3125 15.34375 69.1875 
Q 20.84375 72.078125 28.03125 72.078125 
Q 38.375 72.078125 44.359375 66.875 
Q 50.34375 61.671875 50.34375 52.484375 
Q 50.34375 47.171875 47.34375 41.328125 
Q 44.34375 35.5 37.5 28.078125 
L 20.125 9.46875 
L 53.125 9.46875 
z
" id="Roboto-Medium-50"/>
        <path d="M 52.640625 64.5 
L 24.21875 0 
L 11.765625 0 
L 40.140625 61.578125 
L 3.375 61.578125 
L 3.375 71.09375 
L 52.640625 71.09375 
z
" id="Roboto-Medium-55"/>
       </defs>
       <use xlink:href="#Roboto-Medium-48"/>
       <use x="56.835938" xlink:href="#Roboto-Medium-49"/>
       <use x="113.671875" xlink:href="#Roboto-Medium-47"/>
       <use x="153.222656" xlink:href="#Roboto-Medium-50"/>
       <use x="210.058594" xlink:href="#Roboto-Medium-55"/>
      </g>
     </g>
    </g>
    <g id="xtick_3">
     <g id="line2d_5">
      <path clip-path="url(#p04bc831c96)" d="M 147.57432 420 
L 147.57432 28.32 
" style="fill:none;stroke:#cbcbcb;"/>
     </g>
     <g id="line2d_6"/>
     <g id="text_3">
      <!-- 02/10 -->
      <g transform="translate(113.789887 451.277798)rotate(-30)scale(0.14 -0.14)">
       <use xlink:href="#Roboto-Medium-48"/>
       <use x="56.835938" xlink:href="#Roboto-Medium-50"/>
       <use x="113.671875" xlink:href="#Roboto-Medium-47"/>
       <use x="153.222656" xlink:href="#Roboto-Medium-49"/>
       <use x="210.058594" xlink:href="#Roboto-Medium-48"/>
      </g>
     </g>
    </g>
    <g id="xtick_4">
     <g id="line2d_7">
      <path clip-path="url(#p04bc831c96)" d="M 165.553606 420 
L 165.553606 28.32 
" style="fill:none;stroke:#cbcbcb;"/>
     </g>
     <g id="line2d_8"/>
     <g id="text_4">
      <!-- 02/24 -->
      <g transform="translate(131.769174 451.277798)rotate(-30)scale(0.14 -0.14)">
       <defs>
        <path d="M 45.453125 25.34375 
L 54.296875 25.34375 
L 54.296875 15.828125 
L 45.453125 15.828125 
L 45.453125 0 
L 33.59375 0 
L 33.59375 15.828125 
L 2.875 15.828125 
L 2.546875 23.046875 
L 33.203125 71.09375 
L 45.453125 71.09375 
z
M 14.984375 25.34375 
L 33.59375 25.34375 
L 33.59375 55.03125 
L 32.71875 53.46875 
z
" id="Roboto-Medium-52"/>
       </defs>
       <use xlink:href="#Roboto-Medium-48"/>
       <use x="56.835938" xlink:href="#Roboto-Medium-50"/>
       <use x="113.671875" xlink:href="#Roboto-Medium-47"/>
       <use x="153.222656" xlink:href="#Roboto-Medium-50"/>
       <use x="210.058594" xlink:href="#Roboto-Medium-52"/>
      </g>
     </g>
    </g>
    <g id="xtick_5">
     <g id="line2d_9">
      <path clip-path="url(#p04bc831c96)" d="M 183.532893 420 
L 183.532893 28.32 
" style="fill:none;stroke:#cbcbcb;"/>
     </g>
     <g id="line2d_10"/>
     <g id="text_5">
      <!-- 03/09 -->
      <g transform="translate(149.74846 451.277798)rotate(-30)scale(0.14 -0.14)">
       <defs>
        <path d="M 38.96875 29.734375 
Q 33.015625 23.4375 25.046875 23.4375 
Q 15.671875 23.4375 10.109375 30 
Q 4.546875 36.578125 4.546875 47.265625 
Q 4.546875 54.296875 7.375 60 
Q 10.203125 65.71875 15.421875 68.890625 
Q 20.65625 72.078125 27.546875 72.078125 
Q 38.28125 72.078125 44.578125 64.0625 
Q 50.875 56.0625 50.875 42.625 
L 50.875 39.3125 
Q 50.875 20.0625 42.1875 9.953125 
Q 33.5 -0.140625 16.265625 -0.296875 
L 14.84375 -0.296875 
L 14.84375 9.515625 
L 16.546875 9.515625 
Q 27.046875 9.671875 32.65625 14.578125 
Q 38.28125 19.484375 38.96875 29.734375 
z
M 27.546875 32.71875 
Q 31.109375 32.71875 34.234375 34.765625 
Q 37.359375 36.8125 39.0625 40.4375 
L 39.0625 45.0625 
Q 39.0625 52.9375 35.84375 57.71875 
Q 32.625 62.5 27.484375 62.5 
Q 22.359375 62.5 19.3125 58.265625 
Q 16.265625 54.046875 16.265625 47.609375 
Q 16.265625 40.921875 19.328125 36.8125 
Q 22.40625 32.71875 27.546875 32.71875 
z
" id="Roboto-Medium-57"/>
       </defs>
       <use xlink:href="#Roboto-Medium-48"/>
       <use x="56.835938" xlink:href="#Roboto-Medium-51"/>
       <use x="113.671875" xlink:href="#Roboto-Medium-47"/>
       <use x="153.222656" xlink:href="#Roboto-Medium-48"/>
       <use x="210.058594" xlink:href="#Roboto-Medium-57"/>
      </g>
     </g>
    </g>
    <g id="xtick_6">
     <g id="line2d_11">
      <path clip-path="url(#p04bc831c96)" d="M 201.512179 420 
L 201.512179 28.32 
" style="fill:none;stroke:#cbcbcb;"/>
     </g>
     <g id="line2d_12"/>
     <g id="text_6">
      <!-- 03/23 -->
      <g transform="translate(167.727747 451.277798)rotate(-30)scale(0.14 -0.14)">
       <use xlink:href="#Roboto-Medium-48"/>
       <use x="56.835938" xlink:href="#Roboto-Medium-51"/>
       <use x="113.671875" xlink:href="#Roboto-Medium-47"/>
       <use x="153.222656" xlink:href="#Roboto-Medium-50"/>
       <use x="210.058594" xlink:href="#Roboto-Medium-51"/>
      </g>
     </g>
    </g>
    <g id="xtick_7">
     <g id="line2d_13">
      <path clip-path="url(#p04bc831c96)" d="M 219.491466 420 
L 219.491466 28.32 
" style="fill:none;stroke:#cbcbcb;"/>
     </g>
     <g id="line2d_14"/>
     <g id="text_7">
      <!-- 04/06 -->
      <g transform="translate(185.707033 451.277798)rotate(-30)scale(0.14 -0.14)">
       <defs>
        <path d="M 42.234375 71.4375 
L 42.234375 61.625 
L 40.765625 61.625 
Q 30.8125 61.46875 24.84375 56.140625 
Q 18.890625 50.828125 17.78125 41.0625 
Q 23.484375 47.078125 32.375 47.078125 
Q 41.796875 47.078125 47.234375 40.4375 
Q 52.6875 33.796875 52.6875 23.296875 
Q 52.6875 12.453125 46.3125 5.734375 
Q 39.9375 -0.984375 29.59375 -0.984375 
Q 18.953125 -0.984375 12.328125 6.875 
Q 5.71875 14.75 5.71875 27.484375 
L 5.71875 31.546875 
Q 5.71875 50.25 14.8125 60.84375 
Q 23.921875 71.4375 41.015625 71.4375 
z
M 29.5 37.5 
Q 25.59375 37.5 22.34375 35.296875 
Q 19.09375 33.109375 17.578125 29.4375 
L 17.578125 25.828125 
Q 17.578125 17.921875 20.890625 13.25 
Q 24.21875 8.59375 29.484375 8.59375 
Q 34.765625 8.59375 37.84375 12.546875 
Q 40.921875 16.5 40.921875 22.9375 
Q 40.921875 29.390625 37.796875 33.4375 
Q 34.671875 37.5 29.5 37.5 
z
" id="Roboto-Medium-54"/>
       </defs>
       <use xlink:href="#Roboto-Medium-48"/>
       <use x="56.835938" xlink:href="#Roboto-Medium-52"/>
       <use x="113.671875" xlink:href="#Roboto-Medium-47"/>
       <use x="153.222656" xlink:href="#Roboto-Medium-48"/>
       <use x="210.058594" xlink:href="#Roboto-Medium-54"/>
      </g>
     </g>
    </g>
    <g id="xtick_8">
     <g id="line2d_15">
      <path clip-path="url(#p04bc831c96)" d="M 237.470752 420 
L 237.470752 28.32 
" style="fill:none;stroke:#cbcbcb;"/>
     </g>
     <g id="line2d_16"/>
     <g id="text_8">
      <!-- 04/20 -->
      <g transform="translate(203.68632 451.277798)rotate(-30)scale(0.14 -0.14)">
       <use xlink:href="#Roboto-Medium-48"/>
       <use x="56.835938" xlink:href="#Roboto-Medium-52"/>
       <use x="113.671875" xlink:href="#Roboto-Medium-47"/>
       <use x="153.222656" xlink:href="#Roboto-Medium-50"/>
       <use x="210.058594" xlink:href="#Roboto-Medium-48"/>
      </g>
     </g>
    </g>
    <g id="xtick_9">
     <g id="line2d_17">
      <path clip-path="url(#p04bc831c96)" d="M 255.450039 420 
L 255.450039 28.32 
" style="fill:none;stroke:#cbcbcb;"/>
     </g>
     <g id="line2d_18"/>
     <g id="text_9">
      <!-- 05/04 -->
      <g transform="translate(221.665607 451.277798)rotate(-30)scale(0.14 -0.14)">
       <defs>
        <path d="M 8.5 35.25 
L 12.359375 71.09375 
L 50.53125 71.09375 
L 50.53125 60.84375 
L 22.21875 60.84375 
L 20.265625 43.84375 
Q 25.203125 46.6875 31.390625 46.6875 
Q 41.546875 46.6875 47.1875 40.1875 
Q 52.828125 33.6875 52.828125 22.703125 
Q 52.828125 11.859375 46.578125 5.4375 
Q 40.328125 -0.984375 29.4375 -0.984375 
Q 19.671875 -0.984375 13.25 4.5625 
Q 6.84375 10.109375 6.296875 19.1875 
L 17.78125 19.1875 
Q 18.453125 14.015625 21.484375 11.25 
Q 24.515625 8.5 29.390625 8.5 
Q 34.859375 8.5 37.90625 12.40625 
Q 40.96875 16.3125 40.96875 23.046875 
Q 40.96875 29.546875 37.59375 33.328125 
Q 34.234375 37.109375 28.328125 37.109375 
Q 25.09375 37.109375 22.84375 36.25 
Q 20.609375 35.40625 17.96875 32.90625 
z
" id="Roboto-Medium-53"/>
       </defs>
       <use xlink:href="#Roboto-Medium-48"/>
       <use x="56.835938" xlink:href="#Roboto-Medium-53"/>
       <use x="113.671875" xlink:href="#Roboto-Medium-47"/>
       <use x="153.222656" xlink:href="#Roboto-Medium-48"/>
       <use x="210.058594" xlink:href="#Roboto-Medium-52"/>
      </g>
     </g>
    </g>
    <g id="xtick_10">
     <g id="line2d_19">
      <path clip-path="url(#p04bc831c96)" d="M 273.429326 420 
L 273.429326 28.32 
" style="fill:none;stroke:#cbcbcb;"/>
     </g>
     <g id="line2d_20"/>
     <g id="text_10">
      <!-- 05/18 -->
      <g transform="translate(239.644893 451.277798)rotate(-30)scale(0.14 -0.14)">
       <defs>
        <path d="M 50.09375 52.34375 
Q 50.09375 47.125 47.40625 43.046875 
Q 44.734375 38.96875 40.09375 36.625 
Q 45.65625 34.03125 48.65625 29.53125 
Q 51.65625 25.046875 51.65625 19.390625 
Q 51.65625 10.015625 45.3125 4.515625 
Q 38.96875 -0.984375 28.421875 -0.984375 
Q 17.828125 -0.984375 11.453125 4.53125 
Q 5.078125 10.0625 5.078125 19.390625 
Q 5.078125 25.09375 8.109375 29.640625 
Q 11.140625 34.1875 16.609375 36.625 
Q 12.015625 38.96875 9.34375 43.046875 
Q 6.6875 47.125 6.6875 52.34375 
Q 6.6875 61.421875 12.546875 66.75 
Q 18.40625 72.078125 28.375 72.078125 
Q 38.375 72.078125 44.234375 66.75 
Q 50.09375 61.421875 50.09375 52.34375 
z
M 39.796875 19.96875 
Q 39.796875 25.25 36.640625 28.484375 
Q 33.5 31.734375 28.3125 31.734375 
Q 23.140625 31.734375 20.03125 28.515625 
Q 16.9375 25.296875 16.9375 19.96875 
Q 16.9375 14.75 19.984375 11.625 
Q 23.046875 8.5 28.421875 8.5 
Q 33.796875 8.5 36.796875 11.515625 
Q 39.796875 14.546875 39.796875 19.96875 
z
M 38.28125 51.90625 
Q 38.28125 56.546875 35.59375 59.546875 
Q 32.90625 62.546875 28.359375 62.546875 
Q 23.828125 62.546875 21.1875 59.6875 
Q 18.5625 56.84375 18.5625 51.90625 
Q 18.5625 47.015625 21.21875 44.140625 
Q 23.875 41.265625 28.40625 41.265625 
Q 32.953125 41.265625 35.609375 44.140625 
Q 38.28125 47.015625 38.28125 51.90625 
z
" id="Roboto-Medium-56"/>
       </defs>
       <use xlink:href="#Roboto-Medium-48"/>
       <use x="56.835938" xlink:href="#Roboto-Medium-53"/>
       <use x="113.671875" xlink:href="#Roboto-Medium-47"/>
       <use x="153.222656" xlink:href="#Roboto-Medium-49"/>
       <use x="210.058594" xlink:href="#Roboto-Medium-56"/>
      </g>
     </g>
    </g>
    <g id="xtick_11">
     <g id="line2d_21">
      <path clip-path="url(#p04bc831c96)" d="M 291.408612 420 
L 291.408612 28.32 
" style="fill:none;stroke:#cbcbcb;"/>
     </g>
     <g id="line2d_22"/>
     <g id="text_11">
      <!-- 06/01 -->
      <g transform="translate(257.62418 451.277798)rotate(-30)scale(0.14 -0.14)">
       <use xlink:href="#Roboto-Medium-48"/>
       <use x="56.835938" xlink:href="#Roboto-Medium-54"/>
       <use x="113.671875" xlink:href="#Roboto-Medium-47"/>
       <use x="153.222656" xlink:href="#Roboto-Medium-48"/>
       <use x="210.058594" xlink:href="#Roboto-Medium-49"/>
      </g>
     </g>
    </g>
    <g id="xtick_12">
     <g id="line2d_23">
      <path clip-path="url(#p04bc831c96)" d="M 309.387899 420 
L 309.387899 28.32 
" style="fill:none;stroke:#cbcbcb;"/>
     </g>
     <g id="line2d_24"/>
     <g id="text_12">
      <!-- 06/15 -->
      <g transform="translate(275.603466 451.277798)rotate(-30)scale(0.14 -0.14)">
       <use xlink:href="#Roboto-Medium-48"/>
       <use x="56.835938" xlink:href="#Roboto-Medium-54"/>
       <use x="113.671875" xlink:href="#Roboto-Medium-47"/>
       <use x="153.222656" xlink:href="#Roboto-Medium-49"/>
       <use x="210.058594" xlink:href="#Roboto-Medium-53"/>
      </g>
     </g>
    </g>
    <g id="xtick_13">
     <g id="line2d_25">
      <path clip-path="url(#p04bc831c96)" d="M 327.367185 420 
L 327.367185 28.32 
" style="fill:none;stroke:#cbcbcb;"/>
     </g>
     <g id="line2d_26"/>
     <g id="text_13">
      <!-- 06/29 -->
      <g transform="translate(293.582753 451.277798)rotate(-30)scale(0.14 -0.14)">
       <use xlink:href="#Roboto-Medium-48"/>
       <use x="56.835938" xlink:href="#Roboto-Medium-54"/>
       <use x="113.671875" xlink:href="#Roboto-Medium-47"/>
       <use x="153.222656" xlink:href="#Roboto-Medium-50"/>
       <use x="210.058594" xlink:href="#Roboto-Medium-57"/>
      </g>
     </g>
    </g>
    <g id="xtick_14">
     <g id="line2d_27">
      <path clip-path="url(#p04bc831c96)" d="M 345.346472 420 
L 345.346472 28.32 
" style="fill:none;stroke:#cbcbcb;"/>
     </g>
     <g id="line2d_28"/>
     <g id="text_14">
      <!-- 07/13 -->
      <g transform="translate(311.562039 451.277798)rotate(-30)scale(0.14 -0.14)">
       <use xlink:href="#Roboto-Medium-48"/>
       <use x="56.835938" xlink:href="#Roboto-Medium-55"/>
       <use x="113.671875" xlink:href="#Roboto-Medium-47"/>
       <use x="153.222656" xlink:href="#Roboto-Medium-49"/>
       <use x="210.058594" xlink:href="#Roboto-Medium-51"/>
      </g>
     </g>
    </g>
    <g id="xtick_15">
     <g id="line2d_29">
      <path clip-path="url(#p04bc831c96)" d="M 363.325758 420 
L 363.325758 28.32 
" style="fill:none;stroke:#cbcbcb;"/>
     </g>
     <g id="line2d_30"/>
     <g id="text_15">
      <!-- 07/27 -->
      <g transform="translate(329.541326 451.277798)rotate(-30)scale(0.14 -0.14)">
       <use xlink:href="#Roboto-Medium-48"/>
       <use x="56.835938" xlink:href="#Roboto-Medium-55"/>
       <use x="113.671875" xlink:href="#Roboto-Medium-47"/>
       <use x="153.222656" xlink:href="#Roboto-Medium-50"/>
       <use x="210.058594" xlink:href="#Roboto-Medium-55"/>
      </g>
     </g>
    </g>
    <g id="xtick_16">
     <g id="line2d_31">
      <path clip-path="url(#p04bc831c96)" d="M 381.305045 420 
L 381.305045 28.32 
" style="fill:none;stroke:#cbcbcb;"/>
     </g>
     <g id="line2d_32"/>
     <g id="text_16">
      <!-- 08/10 -->
      <g transform="translate(347.520612 451.277798)rotate(-30)scale(0.14 -0.14)">
       <use xlink:href="#Roboto-Medium-48"/>
       <use x="56.835938" xlink:href="#Roboto-Medium-56"/>
       <use x="113.671875" xlink:href="#Roboto-Medium-47"/>
       <use x="153.222656" xlink:href="#Roboto-Medium-49"/>
       <use x="210.058594" xlink:href="#Roboto-Medium-48"/>
      </g>
     </g>
    </g>
    <g id="xtick_17">
     <g id="line2d_33">
      <path clip-path="url(#p04bc831c96)" d="M 399.284331 420 
L 399.284331 28.32 
" style="fill:none;stroke:#cbcbcb;"/>
     </g>
     <g id="line2d_34"/>
     <g id="text_17">
      <!-- 08/24 -->
      <g transform="translate(365.499899 451.277798)rotate(-30)scale(0.14 -0.14)">
       <use xlink:href="#Roboto-Medium-48"/>
       <use x="56.835938" xlink:href="#Roboto-Medium-56"/>
       <use x="113.671875" xlink:href="#Roboto-Medium-47"/>
       <use x="153.222656" xlink:href="#Roboto-Medium-50"/>
       <use x="210.058594" xlink:href="#Roboto-Medium-52"/>
      </g>
     </g>
    </g>
    <g id="xtick_18">
     <g id="line2d_35">
      <path clip-path="url(#p04bc831c96)" d="M 417.263618 420 
L 417.263618 28.32 
" style="fill:none;stroke:#cbcbcb;"/>
     </g>
     <g id="line2d_36"/>
     <g id="text_18">
      <!-- 09/07 -->
      <g transform="translate(383.479185 451.277798)rotate(-30)scale(0.14 -0.14)">
       <use xlink:href="#Roboto-Medium-48"/>
       <use x="56.835938" xlink:href="#Roboto-Medium-57"/>
       <use x="113.671875" xlink:href="#Roboto-Medium-47"/>
       <use x="153.222656" xlink:href="#Roboto-Medium-48"/>
       <use x="210.058594" xlink:href="#Roboto-Medium-55"/>
      </g>
     </g>
    </g>
    <g id="xtick_19">
     <g id="line2d_37">
      <path clip-path="url(#p04bc831c96)" d="M 435.242904 420 
L 435.242904 28.32 
" style="fill:none;stroke:#cbcbcb;"/>
     </g>
     <g id="line2d_38"/>
     <g id="text_19">
      <!-- 09/21 -->
      <g transform="translate(401.458472 451.277798)rotate(-30)scale(0.14 -0.14)">
       <use xlink:href="#Roboto-Medium-48"/>
       <use x="56.835938" xlink:href="#Roboto-Medium-57"/>
       <use x="113.671875" xlink:href="#Roboto-Medium-47"/>
       <use x="153.222656" xlink:href="#Roboto-Medium-50"/>
       <use x="210.058594" xlink:href="#Roboto-Medium-49"/>
      </g>
     </g>
    </g>
    <g id="xtick_20">
     <g id="line2d_39">
      <path clip-path="url(#p04bc831c96)" d="M 453.222191 420 
L 453.222191 28.32 
" style="fill:none;stroke:#cbcbcb;"/>
     </g>
     <g id="line2d_40"/>
     <g id="text_20">
      <!-- 10/05 -->
      <g transform="translate(419.437758 451.277798)rotate(-30)scale(0.14 -0.14)">
       <use xlink:href="#Roboto-Medium-49"/>
       <use x="56.835938" xlink:href="#Roboto-Medium-48"/>
       <use x="113.671875" xlink:href="#Roboto-Medium-47"/>
       <use x="153.222656" xlink:href="#Roboto-Medium-48"/>
       <use x="210.058594" xlink:href="#Roboto-Medium-53"/>
      </g>
     </g>
    </g>
    <g id="xtick_21">
     <g id="line2d_41">
      <path clip-path="url(#p04bc831c96)" d="M 471.201477 420 
L 471.201477 28.32 
" style="fill:none;stroke:#cbcbcb;"/>
     </g>
     <g id="line2d_42"/>
     <g id="text_21">
      <!-- 10/19 -->
      <g transform="translate(437.417045 451.277798)rotate(-30)scale(0.14 -0.14)">
       <use xlink:href="#Roboto-Medium-49"/>
       <use x="56.835938" xlink:href="#Roboto-Medium-48"/>
       <use x="113.671875" xlink:href="#Roboto-Medium-47"/>
       <use x="153.222656" xlink:href="#Roboto-Medium-49"/>
       <use x="210.058594" xlink:href="#Roboto-Medium-57"/>
      </g>
     </g>
    </g>
    <g id="xtick_22">
     <g id="line2d_43">
      <path clip-path="url(#p04bc831c96)" d="M 489.180764 420 
L 489.180764 28.32 
" style="fill:none;stroke:#cbcbcb;"/>
     </g>
     <g id="line2d_44"/>
     <g id="text_22">
      <!-- 11/02 -->
      <g transform="translate(455.396331 451.277798)rotate(-30)scale(0.14 -0.14)">
       <use xlink:href="#Roboto-Medium-49"/>
       <use x="56.835938" xlink:href="#Roboto-Medium-49"/>
       <use x="113.671875" xlink:href="#Roboto-Medium-47"/>
       <use x="153.222656" xlink:href="#Roboto-Medium-48"/>
       <use x="210.058594" xlink:href="#Roboto-Medium-50"/>
      </g>
     </g>
    </g>
    <g id="xtick_23">
     <g id="line2d_45">
      <path clip-path="url(#p04bc831c96)" d="M 507.16005 420 
L 507.16005 28.32 
" style="fill:none;stroke:#cbcbcb;"/>
     </g>
     <g id="line2d_46"/>
     <g id="text_23">
      <!-- 11/16 -->
      <g transform="translate(473.375618 451.277798)rotate(-30)scale(0.14 -0.14)">
       <use xlink:href="#Roboto-Medium-49"/>
       <use x="56.835938" xlink:href="#Roboto-Medium-49"/>
       <use x="113.671875" xlink:href="#Roboto-Medium-47"/>
       <use x="153.222656" xlink:href="#Roboto-Medium-49"/>
       <use x="210.058594" xlink:href="#Roboto-Medium-54"/>
      </g>
     </g>
    </g>
    <g id="xtick_24">
     <g id="line2d_47">
      <path clip-path="url(#p04bc831c96)" d="M 525.139337 420 
L 525.139337 28.32 
" style="fill:none;stroke:#cbcbcb;"/>
     </g>
     <g id="line2d_48"/>
     <g id="text_24">
      <!-- 11/30 -->
      <g transform="translate(491.354905 451.277798)rotate(-30)scale(0.14 -0.14)">
       <use xlink:href="#Roboto-Medium-49"/>
       <use x="56.835938" xlink:href="#Roboto-Medium-49"/>
       <use x="113.671875" xlink:href="#Roboto-Medium-47"/>
       <use x="153.222656" xlink:href="#Roboto-Medium-51"/>
       <use x="210.058594" xlink:href="#Roboto-Medium-48"/>
      </g>
     </g>
    </g>
    <g id="xtick_25">
     <g id="line2d_49">
      <path clip-path="url(#p04bc831c96)" d="M 543.118624 420 
L 543.118624 28.32 
" style="fill:none;stroke:#cbcbcb;"/>
     </g>
     <g id="line2d_50"/>
     <g id="text_25">
      <!-- 12/14 -->
      <g transform="translate(509.334191 451.277798)rotate(-30)scale(0.14 -0.14)">
       <use xlink:href="#Roboto-Medium-49"/>
       <use x="56.835938" xlink:href="#Roboto-Medium-50"/>
       <use x="113.671875" xlink:href="#Roboto-Medium-47"/>
       <use x="153.222656" xlink:href="#Roboto-Medium-49"/>
       <use x="210.058594" xlink:href="#Roboto-Medium-52"/>
      </g>
     </g>
    </g>
    <g id="xtick_26">
     <g id="line2d_51">
      <path clip-path="url(#p04bc831c96)" d="M 561.09791 420 
L 561.09791 28.32 
" style="fill:none;stroke:#cbcbcb;"/>
     </g>
     <g id="line2d_52"/>
     <g id="text_26">
      <!-- 12/28 -->
      <g transform="translate(527.313478 451.277798)rotate(-30)scale(0.14 -0.14)">
       <use xlink:href="#Roboto-Medium-49"/>
       <use x="56.835938" xlink:href="#Roboto-Medium-50"/>
       <use x="113.671875" xlink:href="#Roboto-Medium-47"/>
       <use x="153.222656" xlink:href="#Roboto-Medium-50"/>
       <use x="210.058594" xlink:href="#Roboto-Medium-56"/>
      </g>
     </g>
    </g>
    <g id="xtick_27">
     <g id="line2d_53">
      <path clip-path="url(#p04bc831c96)" d="M 579.077197 420 
L 579.077197 28.32 
" style="fill:none;stroke:#cbcbcb;"/>
     </g>
     <g id="line2d_54"/>
     <g id="text_27">
      <!-- 01/11 -->
      <g transform="translate(545.292764 451.277798)rotate(-30)scale(0.14 -0.14)">
       <use xlink:href="#Roboto-Medium-48"/>
       <use x="56.835938" xlink:href="#Roboto-Medium-49"/>
       <use x="113.671875" xlink:href="#Roboto-Medium-47"/>
       <use x="153.222656" xlink:href="#Roboto-Medium-49"/>
       <use x="210.058594" xlink:href="#Roboto-Medium-49"/>
      </g>
     </g>
    </g>
    <g id="xtick_28">
     <g id="line2d_55">
      <path clip-path="url(#p04bc831c96)" d="M 597.056483 420 
L 597.056483 28.32 
" style="fill:none;stroke:#cbcbcb;"/>
     </g>
     <g id="line2d_56"/>
     <g id="text_28">
      <!-- 01/25 -->
      <g transform="translate(563.272051 451.277798)rotate(-30)scale(0.14 -0.14)">
       <use xlink:href="#Roboto-Medium-48"/>
       <use x="56.835938" xlink:href="#Roboto-Medium-49"/>
       <use x="113.671875" xlink:href="#Roboto-Medium-47"/>
       <use x="153.222656" xlink:href="#Roboto-Medium-50"/>
       <use x="210.058594" xlink:href="#Roboto-Medium-53"/>
      </g>
     </g>
    </g>
    <g id="xtick_29">
     <g id="line2d_57">
      <path clip-path="url(#p04bc831c96)" d="M 615.03577 420 
L 615.03577 28.32 
" style="fill:none;stroke:#cbcbcb;"/>
     </g>
     <g id="line2d_58"/>
     <g id="text_29">
      <!-- 02/08 -->
      <g transform="translate(581.251337 451.277798)rotate(-30)scale(0.14 -0.14)">
       <use xlink:href="#Roboto-Medium-48"/>
       <use x="56.835938" xlink:href="#Roboto-Medium-50"/>
       <use x="113.671875" xlink:href="#Roboto-Medium-47"/>
       <use x="153.222656" xlink:href="#Roboto-Medium-48"/>
       <use x="210.058594" xlink:href="#Roboto-Medium-56"/>
      </g>
     </g>
    </g>
    <g id="xtick_30">
     <g id="line2d_59">
      <path clip-path="url(#p04bc831c96)" d="M 633.015056 420 
L 633.015056 28.32 
" style="fill:none;stroke:#cbcbcb;"/>
     </g>
     <g id="line2d_60"/>
     <g id="text_30">
      <!-- 02/22 -->
      <g transform="translate(599.230624 451.277798)rotate(-30)scale(0.14 -0.14)">
       <use xlink:href="#Roboto-Medium-48"/>
       <use x="56.835938" xlink:href="#Roboto-Medium-50"/>
       <use x="113.671875" xlink:href="#Roboto-Medium-47"/>
       <use x="153.222656" xlink:href="#Roboto-Medium-50"/>
       <use x="210.058594" xlink:href="#Roboto-Medium-50"/>
      </g>
     </g>
    </g>
    <g id="xtick_31">
     <g id="line2d_61">
      <path clip-path="url(#p04bc831c96)" d="M 650.994343 420 
L 650.994343 28.32 
" style="fill:none;stroke:#cbcbcb;"/>
     </g>
     <g id="line2d_62"/>
     <g id="text_31">
      <!-- 03/08 -->
      <g transform="translate(617.20991 451.277798)rotate(-30)scale(0.14 -0.14)">
       <use xlink:href="#Roboto-Medium-48"/>
       <use x="56.835938" xlink:href="#Roboto-Medium-51"/>
       <use x="113.671875" xlink:href="#Roboto-Medium-47"/>
       <use x="153.222656" xlink:href="#Roboto-Medium-48"/>
       <use x="210.058594" xlink:href="#Roboto-Medium-56"/>
      </g>
     </g>
    </g>
    <g id="text_32">
     <!-- Dates -->
     <g transform="translate(359.5225 466.740558)scale(0.12 -0.12)">
      <defs>
       <path d="M 8.25 0 
L 8.25 71.09375 
L 28.328125 71.09375 
Q 37.59375 71.09375 44.71875 66.984375 
Q 51.859375 62.890625 55.734375 55.3125 
Q 59.625 47.75 59.671875 37.9375 
L 59.671875 33.40625 
Q 59.671875 23.34375 55.78125 15.765625 
Q 51.90625 8.203125 44.703125 4.140625 
Q 37.5 0.09375 27.9375 0 
z
M 17.625 63.375 
L 17.625 7.671875 
L 27.484375 7.671875 
Q 38.328125 7.671875 44.359375 14.40625 
Q 50.390625 21.140625 50.390625 33.59375 
L 50.390625 37.75 
Q 50.390625 49.859375 44.703125 56.5625 
Q 39.015625 63.28125 28.5625 63.375 
z
" id="Roboto-Regular-68"/>
       <path d="M 39.453125 0 
Q 38.671875 1.5625 38.1875 5.5625 
Q 31.890625 -0.984375 23.140625 -0.984375 
Q 15.328125 -0.984375 10.328125 3.4375 
Q 5.328125 7.859375 5.328125 14.65625 
Q 5.328125 22.90625 11.59375 27.46875 
Q 17.875 32.03125 29.25 32.03125 
L 38.03125 32.03125 
L 38.03125 36.1875 
Q 38.03125 40.921875 35.203125 43.71875 
Q 32.375 46.53125 26.859375 46.53125 
Q 22.015625 46.53125 18.75 44.09375 
Q 15.484375 41.65625 15.484375 38.1875 
L 6.390625 38.1875 
Q 6.390625 42.140625 9.203125 45.828125 
Q 12.015625 49.515625 16.8125 51.65625 
Q 21.625 53.8125 27.390625 53.8125 
Q 36.53125 53.8125 41.703125 49.234375 
Q 46.875 44.671875 47.078125 36.671875 
L 47.078125 12.359375 
Q 47.078125 5.078125 48.921875 0.78125 
L 48.921875 0 
z
M 24.46875 6.890625 
Q 28.71875 6.890625 32.515625 9.078125 
Q 36.328125 11.28125 38.03125 14.796875 
L 38.03125 25.640625 
L 30.953125 25.640625 
Q 14.359375 25.640625 14.359375 15.921875 
Q 14.359375 11.671875 17.1875 9.28125 
Q 20.015625 6.890625 24.46875 6.890625 
z
" id="Roboto-Regular-97"/>
       <path d="M 19.09375 65.625 
L 19.09375 52.828125 
L 28.953125 52.828125 
L 28.953125 45.84375 
L 19.09375 45.84375 
L 19.09375 13.09375 
Q 19.09375 9.90625 20.40625 8.3125 
Q 21.734375 6.734375 24.90625 6.734375 
Q 26.46875 6.734375 29.203125 7.328125 
L 29.203125 0 
Q 25.640625 -0.984375 22.265625 -0.984375 
Q 16.21875 -0.984375 13.140625 2.671875 
Q 10.0625 6.34375 10.0625 13.09375 
L 10.0625 45.84375 
L 0.4375 45.84375 
L 0.4375 52.828125 
L 10.0625 52.828125 
L 10.0625 65.625 
z
" id="Roboto-Regular-116"/>
       <path d="M 28.765625 -0.984375 
Q 18.015625 -0.984375 11.28125 6.078125 
Q 4.546875 13.140625 4.546875 24.953125 
L 4.546875 26.609375 
Q 4.546875 34.46875 7.546875 40.640625 
Q 10.546875 46.828125 15.9375 50.3125 
Q 21.34375 53.8125 27.640625 53.8125 
Q 37.9375 53.8125 43.640625 47.015625 
Q 49.359375 40.234375 49.359375 27.59375 
L 49.359375 23.828125 
L 13.578125 23.828125 
Q 13.765625 16.015625 18.140625 11.203125 
Q 22.515625 6.390625 29.25 6.390625 
Q 34.03125 6.390625 37.34375 8.34375 
Q 40.671875 10.296875 43.171875 13.53125 
L 48.6875 9.234375 
Q 42.046875 -0.984375 28.765625 -0.984375 
z
M 27.640625 46.390625 
Q 22.171875 46.390625 18.453125 42.40625 
Q 14.75 38.421875 13.875 31.25 
L 40.328125 31.25 
L 40.328125 31.9375 
Q 39.9375 38.8125 36.609375 42.59375 
Q 33.296875 46.390625 27.640625 46.390625 
z
" id="Roboto-Regular-101"/>
       <path d="M 37.59375 14.015625 
Q 37.59375 17.671875 34.828125 19.703125 
Q 32.078125 21.734375 25.21875 23.1875 
Q 18.359375 24.65625 14.328125 26.703125 
Q 10.296875 28.765625 8.375 31.59375 
Q 6.453125 34.421875 6.453125 38.328125 
Q 6.453125 44.828125 11.9375 49.3125 
Q 17.4375 53.8125 25.984375 53.8125 
Q 34.96875 53.8125 40.546875 49.171875 
Q 46.140625 44.53125 46.140625 37.3125 
L 37.0625 37.3125 
Q 37.0625 41.015625 33.90625 43.703125 
Q 30.765625 46.390625 25.984375 46.390625 
Q 21.046875 46.390625 18.265625 44.234375 
Q 15.484375 42.09375 15.484375 38.625 
Q 15.484375 35.359375 18.0625 33.6875 
Q 20.65625 32.03125 27.421875 30.515625 
Q 34.1875 29 38.375 26.90625 
Q 42.578125 24.8125 44.59375 21.84375 
Q 46.625 18.890625 46.625 14.65625 
Q 46.625 7.5625 40.953125 3.28125 
Q 35.296875 -0.984375 26.265625 -0.984375 
Q 19.921875 -0.984375 15.03125 1.265625 
Q 10.15625 3.515625 7.390625 7.546875 
Q 4.640625 11.578125 4.640625 16.265625 
L 13.671875 16.265625 
Q 13.921875 11.71875 17.3125 9.046875 
Q 20.703125 6.390625 26.265625 6.390625 
Q 31.390625 6.390625 34.484375 8.46875 
Q 37.59375 10.546875 37.59375 14.015625 
z
" id="Roboto-Regular-115"/>
      </defs>
      <use xlink:href="#Roboto-Regular-68"/>
      <use x="65.576172" xlink:href="#Roboto-Regular-97"/>
      <use x="119.970703" xlink:href="#Roboto-Regular-116"/>
      <use x="152.636719" xlink:href="#Roboto-Regular-101"/>
      <use x="205.615234" xlink:href="#Roboto-Regular-115"/>
     </g>
    </g>
   </g>
   <g id="matplotlib.axis_2">
    <g id="ytick_1">
     <g id="line2d_63">
      <path clip-path="url(#p04bc831c96)" d="M 95.95375 402.196364 
L 653.95375 402.196364 
" style="fill:none;stroke:#cbcbcb;"/>
     </g>
     <g id="line2d_64"/>
     <g id="text_33">
      <!-- 1 -->
      <g transform="translate(84.495625 407.446364)scale(0.14 -0.14)">
       <use xlink:href="#Roboto-Medium-49"/>
      </g>
     </g>
    </g>
    <g id="ytick_2">
     <g id="line2d_65">
      <path clip-path="url(#p04bc831c96)" d="M 95.95375 354.38541 
L 653.95375 354.38541 
" style="fill:none;stroke:#cbcbcb;"/>
     </g>
     <g id="line2d_66"/>
     <g id="text_34">
      <!-- 10 -->
      <g transform="translate(76.5375 359.63541)scale(0.14 -0.14)">
       <use xlink:href="#Roboto-Medium-49"/>
       <use x="56.835938" xlink:href="#Roboto-Medium-48"/>
      </g>
     </g>
    </g>
    <g id="ytick_3">
     <g id="line2d_67">
      <path clip-path="url(#p04bc831c96)" d="M 95.95375 306.574456 
L 653.95375 306.574456 
" style="fill:none;stroke:#cbcbcb;"/>
     </g>
     <g id="line2d_68"/>
     <g id="text_35">
      <!-- 100 -->
      <g transform="translate(68.579375 311.824456)scale(0.14 -0.14)">
       <use xlink:href="#Roboto-Medium-49"/>
       <use x="56.835938" xlink:href="#Roboto-Medium-48"/>
       <use x="113.671875" xlink:href="#Roboto-Medium-48"/>
      </g>
     </g>
    </g>
    <g id="ytick_4">
     <g id="line2d_69">
      <path clip-path="url(#p04bc831c96)" d="M 95.95375 258.763502 
L 653.95375 258.763502 
" style="fill:none;stroke:#cbcbcb;"/>
     </g>
     <g id="line2d_70"/>
     <g id="text_36">
      <!-- 1,000 -->
      <g transform="translate(57.545625 264.013502)scale(0.14 -0.14)">
       <defs>
        <path d="M 7.765625 -16.015625 
L 1.375 -12.203125 
Q 4.203125 -7.765625 5.25 -4.46875 
Q 6.296875 -1.171875 6.34375 2.25 
L 6.34375 11.46875 
L 17.046875 11.46875 
L 17 2.9375 
Q 16.9375 -2.25 14.375 -7.4375 
Q 11.8125 -12.640625 7.765625 -16.015625 
z
" id="Roboto-Medium-44"/>
       </defs>
       <use xlink:href="#Roboto-Medium-49"/>
       <use x="56.835938" xlink:href="#Roboto-Medium-44"/>
       <use x="78.808594" xlink:href="#Roboto-Medium-48"/>
       <use x="135.644531" xlink:href="#Roboto-Medium-48"/>
       <use x="192.480469" xlink:href="#Roboto-Medium-48"/>
      </g>
     </g>
    </g>
    <g id="ytick_5">
     <g id="line2d_71">
      <path clip-path="url(#p04bc831c96)" d="M 95.95375 210.952548 
L 653.95375 210.952548 
" style="fill:none;stroke:#cbcbcb;"/>
     </g>
     <g id="line2d_72"/>
     <g id="text_37">
      <!-- 10,000 -->
      <g transform="translate(49.5875 216.202548)scale(0.14 -0.14)">
       <use xlink:href="#Roboto-Medium-49"/>
       <use x="56.835938" xlink:href="#Roboto-Medium-48"/>
       <use x="113.671875" xlink:href="#Roboto-Medium-44"/>
       <use x="135.644531" xlink:href="#Roboto-Medium-48"/>
       <use x="192.480469" xlink:href="#Roboto-Medium-48"/>
       <use x="249.316406" xlink:href="#Roboto-Medium-48"/>
      </g>
     </g>
    </g>
    <g id="ytick_6">
     <g id="line2d_73">
      <path clip-path="url(#p04bc831c96)" d="M 95.95375 163.141595 
L 653.95375 163.141595 
" style="fill:none;stroke:#cbcbcb;"/>
     </g>
     <g id="line2d_74"/>
     <g id="text_38">
      <!-- 100,000 -->
      <g transform="translate(41.629375 168.391595)scale(0.14 -0.14)">
       <use xlink:href="#Roboto-Medium-49"/>
       <use x="56.835938" xlink:href="#Roboto-Medium-48"/>
       <use x="113.671875" xlink:href="#Roboto-Medium-48"/>
       <use x="170.507812" xlink:href="#Roboto-Medium-44"/>
       <use x="192.480469" xlink:href="#Roboto-Medium-48"/>
       <use x="249.316406" xlink:href="#Roboto-Medium-48"/>
       <use x="306.152344" xlink:href="#Roboto-Medium-48"/>
      </g>
     </g>
    </g>
    <g id="ytick_7">
     <g id="line2d_75">
      <path clip-path="url(#p04bc831c96)" d="M 95.95375 115.330641 
L 653.95375 115.330641 
" style="fill:none;stroke:#cbcbcb;"/>
     </g>
     <g id="line2d_76"/>
     <g id="text_39">
      <!-- 1,000,000 -->
      <g transform="translate(30.595625 120.580641)scale(0.14 -0.14)">
       <use xlink:href="#Roboto-Medium-49"/>
       <use x="56.835938" xlink:href="#Roboto-Medium-44"/>
       <use x="78.808594" xlink:href="#Roboto-Medium-48"/>
       <use x="135.644531" xlink:href="#Roboto-Medium-48"/>
       <use x="192.480469" xlink:href="#Roboto-Medium-48"/>
       <use x="249.316406" xlink:href="#Roboto-Medium-44"/>
       <use x="271.289062" xlink:href="#Roboto-Medium-48"/>
       <use x="328.125" xlink:href="#Roboto-Medium-48"/>
       <use x="384.960938" xlink:href="#Roboto-Medium-48"/>
      </g>
     </g>
    </g>
    <g id="ytick_8">
     <g id="line2d_77">
      <path clip-path="url(#p04bc831c96)" d="M 95.95375 67.519687 
L 653.95375 67.519687 
" style="fill:none;stroke:#cbcbcb;"/>
     </g>
     <g id="line2d_78"/>
     <g id="text_40">
      <!-- 10,000,000 -->
      <g transform="translate(22.6375 72.769687)scale(0.14 -0.14)">
       <use xlink:href="#Roboto-Medium-49"/>
       <use x="56.835938" xlink:href="#Roboto-Medium-48"/>
       <use x="113.671875" xlink:href="#Roboto-Medium-44"/>
       <use x="135.644531" xlink:href="#Roboto-Medium-48"/>
       <use x="192.480469" xlink:href="#Roboto-Medium-48"/>
       <use x="249.316406" xlink:href="#Roboto-Medium-48"/>
       <use x="306.152344" xlink:href="#Roboto-Medium-44"/>
       <use x="328.125" xlink:href="#Roboto-Medium-48"/>
       <use x="384.960938" xlink:href="#Roboto-Medium-48"/>
       <use x="441.796875" xlink:href="#Roboto-Medium-48"/>
      </g>
     </g>
    </g>
    <g id="ytick_9">
     <g id="line2d_79"/>
    </g>
    <g id="ytick_10">
     <g id="line2d_80"/>
    </g>
    <g id="ytick_11">
     <g id="line2d_81"/>
    </g>
    <g id="ytick_12">
     <g id="line2d_82"/>
    </g>
    <g id="ytick_13">
     <g id="line2d_83"/>
    </g>
    <g id="ytick_14">
     <g id="line2d_84"/>
    </g>
    <g id="ytick_15">
     <g id="line2d_85"/>
    </g>
    <g id="ytick_16">
     <g id="line2d_86"/>
    </g>
    <g id="ytick_17">
     <g id="line2d_87"/>
    </g>
    <g id="ytick_18">
     <g id="line2d_88"/>
    </g>
    <g id="ytick_19">
     <g id="line2d_89"/>
    </g>
    <g id="ytick_20">
     <g id="line2d_90"/>
    </g>
    <g id="ytick_21">
     <g id="line2d_91"/>
    </g>
    <g id="ytick_22">
     <g id="line2d_92"/>
    </g>
    <g id="ytick_23">
     <g id="line2d_93"/>
    </g>
    <g id="ytick_24">
     <g id="line2d_94"/>
    </g>
    <g id="ytick_25">
     <g id="line2d_95"/>
    </g>
    <g id="ytick_26">
     <g id="line2d_96"/>
    </g>
    <g id="ytick_27">
     <g id="line2d_97"/>
    </g>
    <g id="ytick_28">
     <g id="line2d_98"/>
    </g>
    <g id="ytick_29">
     <g id="line2d_99"/>
    </g>
    <g id="ytick_30">
     <g id="line2d_100"/>
    </g>
    <g id="ytick_31">
     <g id="line2d_101"/>
    </g>
    <g id="ytick_32">
     <g id="line2d_102"/>
    </g>
    <g id="ytick_33">
     <g id="line2d_103"/>
    </g>
    <g id="ytick_34">
     <g id="line2d_104"/>
    </g>
    <g id="ytick_35">
     <g id="line2d_105"/>
    </g>
    <g id="ytick_36">
     <g id="line2d_106"/>
    </g>
    <g id="ytick_37">
     <g id="line2d_107"/>
    </g>
    <g id="ytick_38">
     <g id="line2d_108"/>
    </g>
    <g id="ytick_39">
     <g id="line2d_109"/>
    </g>
    <g id="ytick_40">
     <g id="line2d_110"/>
    </g>
    <g id="ytick_41">
     <g id="line2d_111"/>
    </g>
    <g id="ytick_42">
     <g id="line2d_112"/>
    </g>
    <g id="ytick_43">
     <g id="line2d_113"/>
    </g>
    <g id="ytick_44">
     <g id="line2d_114"/>
    </g>
    <g id="ytick_45">
     <g id="line2d_115"/>
    </g>
    <g id="ytick_46">
     <g id="line2d_116"/>
    </g>
    <g id="ytick_47">
     <g id="line2d_117"/>
    </g>
    <g id="ytick_48">
     <g id="line2d_118"/>
    </g>
    <g id="ytick_49">
     <g id="line2d_119"/>
    </g>
    <g id="ytick_50">
     <g id="line2d_120"/>
    </g>
    <g id="ytick_51">
     <g id="line2d_121"/>
    </g>
    <g id="ytick_52">
     <g id="line2d_122"/>
    </g>
    <g id="ytick_53">
     <g id="line2d_123"/>
    </g>
    <g id="ytick_54">
     <g id="line2d_124"/>
    </g>
    <g id="ytick_55">
     <g id="line2d_125"/>
    </g>
    <g id="ytick_56">
     <g id="line2d_126"/>
    </g>
    <g id="ytick_57">
     <g id="line2d_127"/>
    </g>
    <g id="ytick_58">
     <g id="line2d_128"/>
    </g>
    <g id="ytick_59">
     <g id="line2d_129"/>
    </g>
    <g id="ytick_60">
     <g id="line2d_130"/>
    </g>
    <g id="ytick_61">
     <g id="line2d_131"/>
    </g>
    <g id="ytick_62">
     <g id="line2d_132"/>
    </g>
    <g id="ytick_63">
     <g id="line2d_133"/>
    </g>
    <g id="ytick_64">
     <g id="line2d_134"/>
    </g>
    <g id="ytick_65">
     <g id="line2d_135"/>
    </g>
    <g id="ytick_66">
     <g id="line2d_136"/>
    </g>
    <g id="ytick_67">
     <g id="line2d_137"/>
    </g>
    <g id="ytick_68">
     <g id="line2d_138"/>
    </g>
    <g id="ytick_69">
     <g id="line2d_139"/>
    </g>
    <g id="ytick_70">
     <g id="line2d_140"/>
    </g>
    <g id="ytick_71">
     <g id="line2d_141"/>
    </g>
    <g id="ytick_72">
     <g id="line2d_142"/>
    </g>
    <g id="ytick_73">
     <g id="line2d_143"/>
    </g>
    <g id="ytick_74">
     <g id="line2d_144"/>
    </g>
    <g id="text_41">
     <!-- Confirmed Cases -->
     <g transform="translate(16.2 270.209062)rotate(-90)scale(0.12 -0.12)">
      <defs>
       <path d="M 60.546875 22.5625 
Q 59.234375 11.28125 52.21875 5.140625 
Q 45.21875 -0.984375 33.59375 -0.984375 
Q 21 -0.984375 13.40625 8.046875 
Q 5.8125 17.09375 5.8125 32.234375 
L 5.8125 39.0625 
Q 5.8125 48.96875 9.34375 56.484375 
Q 12.890625 64.015625 19.375 68.046875 
Q 25.875 72.078125 34.421875 72.078125 
Q 45.75 72.078125 52.578125 65.75 
Q 59.421875 59.421875 60.546875 48.25 
L 51.125 48.25 
Q 49.90625 56.734375 45.828125 60.546875 
Q 41.75 64.359375 34.421875 64.359375 
Q 25.4375 64.359375 20.328125 57.71875 
Q 15.234375 51.078125 15.234375 38.8125 
L 15.234375 31.9375 
Q 15.234375 20.359375 20.0625 13.515625 
Q 24.90625 6.6875 33.59375 6.6875 
Q 41.40625 6.6875 45.578125 10.21875 
Q 49.75 13.765625 51.125 22.5625 
z
" id="Roboto-Regular-67"/>
       <path d="M 4.4375 26.90625 
Q 4.4375 34.671875 7.484375 40.875 
Q 10.546875 47.078125 15.984375 50.4375 
Q 21.4375 53.8125 28.421875 53.8125 
Q 39.203125 53.8125 45.875 46.34375 
Q 52.546875 38.875 52.546875 26.46875 
L 52.546875 25.828125 
Q 52.546875 18.109375 49.578125 11.984375 
Q 46.625 5.859375 41.125 2.4375 
Q 35.640625 -0.984375 28.515625 -0.984375 
Q 17.78125 -0.984375 11.109375 6.484375 
Q 4.4375 13.96875 4.4375 26.265625 
z
M 13.53125 25.828125 
Q 13.53125 17.046875 17.609375 11.71875 
Q 21.6875 6.390625 28.515625 6.390625 
Q 35.40625 6.390625 39.453125 11.78125 
Q 43.5 17.1875 43.5 26.90625 
Q 43.5 35.59375 39.375 40.984375 
Q 35.25 46.390625 28.421875 46.390625 
Q 21.734375 46.390625 17.625 41.0625 
Q 13.53125 35.75 13.53125 25.828125 
z
" id="Roboto-Regular-111"/>
       <path d="M 15.375 52.828125 
L 15.671875 46.1875 
Q 21.734375 53.8125 31.5 53.8125 
Q 48.25 53.8125 48.390625 34.90625 
L 48.390625 0 
L 39.359375 0 
L 39.359375 34.96875 
Q 39.3125 40.671875 36.75 43.40625 
Q 34.1875 46.140625 28.765625 46.140625 
Q 24.359375 46.140625 21.03125 43.796875 
Q 17.71875 41.453125 15.875 37.640625 
L 15.875 0 
L 6.84375 0 
L 6.84375 52.828125 
z
" id="Roboto-Regular-110"/>
       <path d="M 11.28125 0 
L 11.28125 45.84375 
L 2.9375 45.84375 
L 2.9375 52.828125 
L 11.28125 52.828125 
L 11.28125 58.25 
Q 11.28125 66.75 15.8125 71.390625 
Q 20.359375 76.03125 28.65625 76.03125 
Q 31.78125 76.03125 34.859375 75.203125 
L 34.375 67.875 
Q 32.078125 68.3125 29.5 68.3125 
Q 25.09375 68.3125 22.703125 65.75 
Q 20.3125 63.1875 20.3125 58.40625 
L 20.3125 52.828125 
L 31.59375 52.828125 
L 31.59375 45.84375 
L 20.3125 45.84375 
L 20.3125 0 
z
" id="Roboto-Regular-102"/>
       <path d="M 16.65625 0 
L 7.625 0 
L 7.625 52.828125 
L 16.65625 52.828125 
z
M 6.890625 66.84375 
Q 6.890625 69.046875 8.234375 70.5625 
Q 9.578125 72.078125 12.203125 72.078125 
Q 14.84375 72.078125 16.203125 70.5625 
Q 17.578125 69.046875 17.578125 66.84375 
Q 17.578125 64.65625 16.203125 63.1875 
Q 14.84375 61.71875 12.203125 61.71875 
Q 9.578125 61.71875 8.234375 63.1875 
Q 6.890625 64.65625 6.890625 66.84375 
z
" id="Roboto-Regular-105"/>
       <path d="M 32.375 44.734375 
Q 30.328125 45.0625 27.9375 45.0625 
Q 19.046875 45.0625 15.875 37.5 
L 15.875 0 
L 6.84375 0 
L 6.84375 52.828125 
L 15.625 52.828125 
L 15.765625 46.734375 
Q 20.21875 53.8125 28.375 53.8125 
Q 31 53.8125 32.375 53.125 
z
" id="Roboto-Regular-114"/>
       <path d="M 15.328125 52.828125 
L 15.578125 46.96875 
Q 21.390625 53.8125 31.25 53.8125 
Q 42.328125 53.8125 46.34375 45.3125 
Q 48.96875 49.125 53.1875 51.46875 
Q 57.421875 53.8125 63.1875 53.8125 
Q 80.5625 53.8125 80.859375 35.40625 
L 80.859375 0 
L 71.828125 0 
L 71.828125 34.859375 
Q 71.828125 40.53125 69.234375 43.328125 
Q 66.65625 46.140625 60.546875 46.140625 
Q 55.515625 46.140625 52.1875 43.140625 
Q 48.875 40.140625 48.34375 35.0625 
L 48.34375 0 
L 39.265625 0 
L 39.265625 34.625 
Q 39.265625 46.140625 27.984375 46.140625 
Q 19.09375 46.140625 15.828125 38.578125 
L 15.828125 0 
L 6.78125 0 
L 6.78125 52.828125 
z
" id="Roboto-Regular-109"/>
       <path d="M 4.640625 26.859375 
Q 4.640625 39.015625 10.390625 46.40625 
Q 16.15625 53.8125 25.484375 53.8125 
Q 34.765625 53.8125 40.1875 47.46875 
L 40.1875 75 
L 49.21875 75 
L 49.21875 0 
L 40.921875 0 
L 40.484375 5.671875 
Q 35.0625 -0.984375 25.390625 -0.984375 
Q 16.21875 -0.984375 10.421875 6.53125 
Q 4.640625 14.0625 4.640625 26.171875 
z
M 13.671875 25.828125 
Q 13.671875 16.84375 17.375 11.765625 
Q 21.09375 6.6875 27.640625 6.6875 
Q 36.234375 6.6875 40.1875 14.40625 
L 40.1875 38.671875 
Q 36.140625 46.140625 27.734375 46.140625 
Q 21.09375 46.140625 17.375 41.015625 
Q 13.671875 35.890625 13.671875 25.828125 
z
" id="Roboto-Regular-100"/>
       <path id="Roboto-Regular-32"/>
      </defs>
      <use xlink:href="#Roboto-Regular-67"/>
      <use x="65.087891" xlink:href="#Roboto-Regular-111"/>
      <use x="122.119141" xlink:href="#Roboto-Regular-110"/>
      <use x="177.294922" xlink:href="#Roboto-Regular-102"/>
      <use x="212.011719" xlink:href="#Roboto-Regular-105"/>
      <use x="236.279297" xlink:href="#Roboto-Regular-114"/>
      <use x="270.117188" xlink:href="#Roboto-Regular-109"/>
      <use x="357.763672" xlink:href="#Roboto-Regular-101"/>
      <use x="410.742188" xlink:href="#Roboto-Regular-100"/>
      <use x="467.138672" xlink:href="#Roboto-Regular-32"/>
      <use x="491.894531" xlink:href="#Roboto-Regular-67"/>
      <use x="556.982422" xlink:href="#Roboto-Regular-97"/>
      <use x="611.376953" xlink:href="#Roboto-Regular-115"/>
      <use x="662.939453" xlink:href="#Roboto-Regular-101"/>
      <use x="715.917969" xlink:href="#Roboto-Regular-115"/>
     </g>
    </g>
   </g>
   <g id="line2d_145">
    <path clip-path="url(#p04bc831c96)" d="M 121.317386 402.196364 
L 123.885856 402.196364 
L 125.170091 387.803832 
L 126.454325 379.384741 
L 127.73856 368.777941 
L 131.591264 368.777941 
L 132.875499 364.99221 
L 134.159734 361.79142 
L 135.443969 359.01877 
L 136.728203 352.406386 
L 139.296673 352.406386 
L 140.580908 350.599679 
L 145.717847 350.599679 
L 147.002081 348.937669 
L 148.286316 348.937669 
L 150.854786 345.966319 
L 154.70749 345.966319 
L 155.991725 335.359518 
L 158.560194 335.359518 
L 159.844429 333.761497 
L 161.128664 331.573788 
L 163.697133 331.573788 
L 164.981368 324.098679 
L 166.265603 323.154697 
L 167.549837 317.181256 
L 168.834072 317.181256 
L 171.402542 313.980467 
L 172.686776 309.228792 
L 173.971011 305.760076 
L 175.255246 301.941096 
L 176.539481 296.685914 
L 177.823715 289.46125 
L 180.392185 276.384527 
L 181.67642 271.290578 
L 184.244889 258.393074 
L 185.529124 253.915311 
L 189.381828 236.670138 
L 191.950298 227.500514 
L 193.234533 221.887227 
L 194.518767 214.696793 
L 197.087237 198.733888 
L 199.655706 186.116021 
L 200.939941 180.423382 
L 202.224176 175.959958 
L 204.792645 166.377367 
L 207.361115 158.680709 
L 212.498054 147.209668 
L 215.066523 141.954306 
L 216.350758 139.480682 
L 217.634993 137.844923 
L 220.203462 134.388014 
L 224.056167 129.748686 
L 225.340401 128.469989 
L 227.908871 126.498026 
L 230.47734 124.573302 
L 233.04581 122.622349 
L 235.614279 121.094841 
L 242.035453 117.292265 
L 243.319688 116.521514 
L 245.888157 115.451569 
L 249.740862 113.814375 
L 252.309331 112.624542 
L 254.877801 111.765799 
L 262.583209 109.302849 
L 266.435913 108.375379 
L 270.288618 107.264025 
L 275.425557 106.101962 
L 279.278261 105.167414 
L 298.541782 101.427276 
L 303.678721 100.562582 
L 307.531425 99.861283 
L 311.38413 99.17622 
L 319.089538 97.501899 
L 322.942243 96.441168 
L 330.647651 94.258973 
L 333.216121 93.467722 
L 337.068825 92.434874 
L 351.195407 88.036531 
L 362.75352 85.025882 
L 370.458928 83.288693 
L 375.595867 82.3675 
L 379.448572 81.679155 
L 385.869745 80.60545 
L 389.72245 80.103069 
L 405.133267 78.211308 
L 411.55444 77.551934 
L 415.407145 77.137484 
L 420.544084 76.72745 
L 425.681023 76.225949 
L 438.52337 74.910744 
L 442.376075 74.515623 
L 448.797248 73.87668 
L 465.4923 72.041076 
L 469.345004 71.603991 
L 482.187352 69.859627 
L 493.745465 67.871797 
L 501.450873 66.235648 
L 504.019343 65.581388 
L 507.872047 64.722956 
L 518.145925 62.310335 
L 519.43016 62.144755 
L 521.998629 61.580232 
L 524.567099 61.111049 
L 528.419803 60.210911 
L 530.988272 59.582283 
L 534.840977 58.754231 
L 547.683324 55.889987 
L 555.388733 54.515185 
L 556.672967 54.403409 
L 560.525672 53.796313 
L 569.515315 52.193862 
L 574.652254 51.156491 
L 579.789193 50.311757 
L 586.210367 49.354942 
L 591.347306 48.753595 
L 596.484245 48.218175 
L 608.042358 47.207689 
L 615.747766 46.71624 
L 626.021644 46.234999 
L 628.590114 46.123636 
L 628.590114 46.123636 
" style="fill:none;stroke:#008fd5;stroke-width:4;"/>
   </g>
   <g id="line2d_146">
    <path clip-path="url(#p04bc831c96)" d="M 172.684371 477.378058 
L 172.686776 387.803832 
L 173.971011 387.803832 
L 175.255246 379.384741 
L 176.539481 379.384741 
L 177.823715 373.411301 
L 180.392185 350.599679 
L 182.960654 347.398889 
L 184.244889 337.090857 
L 185.529124 334.545138 
L 186.813359 322.698326 
L 188.097593 313.980467 
L 189.381828 313.980467 
L 190.666063 304.785059 
L 191.950298 299.440148 
L 193.234533 291.168844 
L 194.518767 282.037033 
L 199.655706 258.763502 
L 202.224176 250.80632 
L 203.508411 244.674254 
L 204.792645 239.921143 
L 207.361115 229.782113 
L 208.64535 225.583149 
L 209.929584 222.642627 
L 211.213819 219.138322 
L 215.066523 210.419583 
L 216.350758 207.983828 
L 217.634993 206.583319 
L 218.919228 204.535889 
L 220.203462 202.897932 
L 222.771932 200.156827 
L 224.056167 198.79392 
L 225.340401 197.649129 
L 226.624636 196.711105 
L 227.908871 195.536063 
L 229.193106 194.942779 
L 231.761575 193.360414 
L 233.04581 192.139538 
L 238.182749 189.676832 
L 239.466984 189.351474 
L 240.751218 188.391602 
L 242.035453 187.780699 
L 243.319688 187.573584 
L 247.172392 186.264086 
L 249.740862 185.736537 
L 251.025096 185.106917 
L 254.877801 183.848668 
L 257.44627 183.235821 
L 258.730505 182.789242 
L 260.01474 182.591744 
L 262.583209 181.864476 
L 263.867444 181.667939 
L 265.151679 181.19647 
L 266.435913 180.960527 
L 272.857087 179.070479 
L 275.425557 178.615362 
L 276.709791 178.095208 
L 281.84673 176.824629 
L 285.699435 176.215989 
L 288.267904 175.398642 
L 292.120608 174.654144 
L 297.257547 172.817875 
L 303.678721 170.828025 
L 304.962956 170.263898 
L 306.247191 169.522098 
L 310.099895 167.748757 
L 312.668364 166.293094 
L 316.521069 163.713559 
L 319.089538 162.428285 
L 320.373773 161.351055 
L 321.658008 160.419098 
L 324.226477 157.29254 
L 325.510712 155.997422 
L 328.079182 154.389367 
L 329.363416 153.514043 
L 333.216121 149.809311 
L 334.500355 148.738373 
L 337.068825 147.364971 
L 340.921529 144.607952 
L 342.205764 143.74503 
L 343.489999 142.532837 
L 344.774233 141.583339 
L 347.342703 140.205623 
L 348.626938 139.266395 
L 352.479642 137.126869 
L 355.048111 135.985095 
L 357.616581 134.889687 
L 360.18505 133.617007 
L 366.606224 131.392717 
L 370.458928 130.264893 
L 374.311633 129.610068 
L 379.448572 128.403944 
L 382.017041 128.018375 
L 384.585511 127.476738 
L 388.438215 126.87872 
L 392.290919 126.497279 
L 397.427858 125.917967 
L 402.564797 125.526836 
L 406.417501 125.203812 
L 407.701736 125.140938 
L 408.985971 124.890375 
L 421.828318 124.009667 
L 432.102196 123.301177 
L 451.365718 122.254313 
L 455.218422 122.07402 
L 461.639596 121.694888 
L 473.197709 120.960185 
L 477.050413 120.589956 
L 480.903117 120.322586 
L 495.029699 119.023499 
L 497.598169 118.758683 
L 501.450873 118.37533 
L 519.43016 116.142224 
L 520.714394 115.771075 
L 525.851333 115.161935 
L 533.556742 114.007887 
L 537.409446 113.452112 
L 541.26215 112.867961 
L 545.114855 112.332659 
L 548.967559 111.663656 
L 552.820263 111.15058 
L 555.388733 110.738218 
L 556.672967 110.738218 
L 557.957202 110.456491 
L 561.809907 110.007153 
L 564.378376 109.513931 
L 565.662611 109.513931 
L 566.946846 109.025179 
L 570.79955 108.461397 
L 577.220724 107.23237 
L 582.357663 106.484305 
L 584.926132 106.094801 
L 597.76848 104.710286 
L 601.621184 104.33023 
L 604.189653 104.053281 
L 609.326592 103.683227 
L 613.179297 103.381457 
L 628.590114 102.484985 
L 628.590114 102.484985 
" style="fill:none;stroke:#fc4f30;stroke-width:4;"/>
   </g>
   <g id="patch_3">
    <path d="M 95.95375 420 
L 95.95375 28.32 
" style="fill:none;stroke:#f0f0f0;stroke-linecap:square;stroke-linejoin:miter;stroke-width:3;"/>
   </g>
   <g id="patch_4">
    <path d="M 653.95375 420 
L 653.95375 28.32 
" style="fill:none;stroke:#f0f0f0;stroke-linecap:square;stroke-linejoin:miter;stroke-width:3;"/>
   </g>
   <g id="patch_5">
    <path d="M 95.95375 420 
L 653.95375 420 
" style="fill:none;stroke:#f0f0f0;stroke-linecap:square;stroke-linejoin:miter;stroke-width:3;"/>
   </g>
   <g id="patch_6">
    <path d="M 95.95375 28.32 
L 653.95375 28.32 
" style="fill:none;stroke:#f0f0f0;stroke-linecap:square;stroke-linejoin:miter;stroke-width:3;"/>
   </g>
   <g id="text_42">
    <!-- Cases of COVID-19 in the United States -->
    <g transform="translate(199.953925 22.32)scale(0.2016 -0.2016)">
     <defs>
      <path d="M 62.9375 33.25 
Q 62.9375 22.796875 59.421875 15.015625 
Q 55.90625 7.234375 49.453125 3.125 
Q 43.015625 -0.984375 34.421875 -0.984375 
Q 26.03125 -0.984375 19.53125 3.140625 
Q 13.03125 7.28125 9.4375 14.921875 
Q 5.859375 22.5625 5.765625 32.625 
L 5.765625 37.75 
Q 5.765625 48 9.328125 55.859375 
Q 12.890625 63.71875 19.40625 67.890625 
Q 25.921875 72.078125 34.328125 72.078125 
Q 42.875 72.078125 49.390625 67.9375 
Q 55.90625 63.8125 59.421875 55.96875 
Q 62.9375 48.140625 62.9375 37.75 
z
M 53.609375 37.84375 
Q 53.609375 50.484375 48.53125 57.25 
Q 43.453125 64.015625 34.328125 64.015625 
Q 25.4375 64.015625 20.328125 57.25 
Q 15.234375 50.484375 15.09375 38.484375 
L 15.09375 33.25 
Q 15.09375 21 20.234375 13.984375 
Q 25.390625 6.984375 34.421875 6.984375 
Q 43.5 6.984375 48.484375 13.59375 
Q 53.46875 20.21875 53.609375 32.5625 
z
" id="Roboto-Regular-79"/>
      <path d="M 31.78125 12.453125 
L 52.09375 71.09375 
L 62.359375 71.09375 
L 35.984375 0 
L 27.6875 0 
L 1.375 71.09375 
L 11.578125 71.09375 
z
" id="Roboto-Regular-86"/>
      <path d="M 18.3125 0 
L 8.9375 0 
L 8.9375 71.09375 
L 18.3125 71.09375 
z
" id="Roboto-Regular-73"/>
      <path d="M 25.640625 26.515625 
L 1.8125 26.515625 
L 1.8125 33.890625 
L 25.640625 33.890625 
z
" id="Roboto-Regular-45"/>
      <path d="M 35.59375 0 
L 26.515625 0 
L 26.515625 60.203125 
L 8.296875 53.515625 
L 8.296875 61.71875 
L 34.1875 71.4375 
L 35.59375 71.4375 
z
" id="Roboto-Regular-49"/>
      <path d="M 40.53125 31.25 
Q 37.703125 27.875 33.765625 25.828125 
Q 29.828125 23.78125 25.140625 23.78125 
Q 19 23.78125 14.421875 26.796875 
Q 9.859375 29.828125 7.375 35.328125 
Q 4.890625 40.828125 4.890625 47.46875 
Q 4.890625 54.59375 7.59375 60.296875 
Q 10.296875 66.015625 15.28125 69.046875 
Q 20.265625 72.078125 26.90625 72.078125 
Q 37.453125 72.078125 43.53125 64.1875 
Q 49.609375 56.296875 49.609375 42.671875 
L 49.609375 40.046875 
Q 49.609375 19.28125 41.40625 9.734375 
Q 33.203125 0.203125 16.65625 -0.046875 
L 14.890625 -0.046875 
L 14.890625 7.5625 
L 16.796875 7.5625 
Q 27.984375 7.765625 33.984375 13.40625 
Q 39.984375 19.046875 40.53125 31.25 
z
M 26.609375 31.25 
Q 31.15625 31.25 34.984375 34.03125 
Q 38.8125 36.8125 40.578125 40.921875 
L 40.578125 44.53125 
Q 40.578125 53.421875 36.71875 58.984375 
Q 32.859375 64.546875 26.953125 64.546875 
Q 21 64.546875 17.375 59.984375 
Q 13.765625 55.421875 13.765625 47.953125 
Q 13.765625 40.671875 17.25 35.953125 
Q 20.75 31.25 26.609375 31.25 
z
" id="Roboto-Regular-57"/>
      <path d="M 15.875 46.4375 
Q 21.875 53.8125 31.5 53.8125 
Q 48.25 53.8125 48.390625 34.90625 
L 48.390625 0 
L 39.359375 0 
L 39.359375 34.96875 
Q 39.3125 40.671875 36.75 43.40625 
Q 34.1875 46.140625 28.765625 46.140625 
Q 24.359375 46.140625 21.03125 43.796875 
Q 17.71875 41.453125 15.875 37.640625 
L 15.875 0 
L 6.84375 0 
L 6.84375 75 
L 15.875 75 
z
" id="Roboto-Regular-104"/>
      <path d="M 58.296875 71.09375 
L 58.296875 22.75 
Q 58.25 12.703125 51.96875 6.296875 
Q 45.703125 -0.09375 34.96875 -0.875 
L 32.46875 -0.984375 
Q 20.796875 -0.984375 13.859375 5.3125 
Q 6.9375 11.625 6.84375 22.65625 
L 6.84375 71.09375 
L 16.109375 71.09375 
L 16.109375 22.953125 
Q 16.109375 15.234375 20.359375 10.953125 
Q 24.609375 6.6875 32.46875 6.6875 
Q 40.4375 6.6875 44.65625 10.9375 
Q 48.875 15.1875 48.875 22.90625 
L 48.875 71.09375 
z
" id="Roboto-Regular-85"/>
      <path d="M 29.203125 31.6875 
Q 17.140625 35.15625 11.640625 40.203125 
Q 6.15625 45.265625 6.15625 52.6875 
Q 6.15625 61.078125 12.859375 66.578125 
Q 19.578125 72.078125 30.328125 72.078125 
Q 37.640625 72.078125 43.375 69.234375 
Q 49.125 66.40625 52.265625 61.421875 
Q 55.421875 56.453125 55.421875 50.53125 
L 46 50.53125 
Q 46 56.984375 41.890625 60.671875 
Q 37.796875 64.359375 30.328125 64.359375 
Q 23.390625 64.359375 19.5 61.296875 
Q 15.625 58.25 15.625 52.828125 
Q 15.625 48.484375 19.3125 45.484375 
Q 23 42.484375 31.859375 39.984375 
Q 40.71875 37.5 45.71875 34.5 
Q 50.734375 31.5 53.140625 27.484375 
Q 55.5625 23.484375 55.5625 18.0625 
Q 55.5625 9.421875 48.828125 4.21875 
Q 42.09375 -0.984375 30.8125 -0.984375 
Q 23.484375 -0.984375 17.140625 1.828125 
Q 10.796875 4.640625 7.34375 9.515625 
Q 3.90625 14.40625 3.90625 20.609375 
L 13.328125 20.609375 
Q 13.328125 14.15625 18.09375 10.421875 
Q 22.859375 6.6875 30.8125 6.6875 
Q 38.234375 6.6875 42.1875 9.71875 
Q 46.140625 12.75 46.140625 17.96875 
Q 46.140625 23.1875 42.46875 26.046875 
Q 38.8125 28.90625 29.203125 31.6875 
z
" id="Roboto-Regular-83"/>
     </defs>
     <use xlink:href="#Roboto-Regular-67"/>
     <use x="65.087891" xlink:href="#Roboto-Regular-97"/>
     <use x="119.482422" xlink:href="#Roboto-Regular-115"/>
     <use x="171.044922" xlink:href="#Roboto-Regular-101"/>
     <use x="224.023438" xlink:href="#Roboto-Regular-115"/>
     <use x="275.585938" xlink:href="#Roboto-Regular-32"/>
     <use x="300.341797" xlink:href="#Roboto-Regular-111"/>
     <use x="357.373047" xlink:href="#Roboto-Regular-102"/>
     <use x="392.089844" xlink:href="#Roboto-Regular-32"/>
     <use x="416.845703" xlink:href="#Roboto-Regular-67"/>
     <use x="481.933594" xlink:href="#Roboto-Regular-79"/>
     <use x="550.683594" xlink:href="#Roboto-Regular-86"/>
     <use x="614.306641" xlink:href="#Roboto-Regular-73"/>
     <use x="641.503906" xlink:href="#Roboto-Regular-68"/>
     <use x="707.080078" xlink:href="#Roboto-Regular-45"/>
     <use x="734.667969" xlink:href="#Roboto-Regular-49"/>
     <use x="790.820312" xlink:href="#Roboto-Regular-57"/>
     <use x="846.972656" xlink:href="#Roboto-Regular-32"/>
     <use x="871.728516" xlink:href="#Roboto-Regular-105"/>
     <use x="895.996094" xlink:href="#Roboto-Regular-110"/>
     <use x="951.171875" xlink:href="#Roboto-Regular-32"/>
     <use x="975.927734" xlink:href="#Roboto-Regular-116"/>
     <use x="1008.59375" xlink:href="#Roboto-Regular-104"/>
     <use x="1063.671875" xlink:href="#Roboto-Regular-101"/>
     <use x="1116.650391" xlink:href="#Roboto-Regular-32"/>
     <use x="1141.40625" xlink:href="#Roboto-Regular-85"/>
     <use x="1206.25" xlink:href="#Roboto-Regular-110"/>
     <use x="1261.425781" xlink:href="#Roboto-Regular-105"/>
     <use x="1285.693359" xlink:href="#Roboto-Regular-116"/>
     <use x="1318.359375" xlink:href="#Roboto-Regular-101"/>
     <use x="1371.337891" xlink:href="#Roboto-Regular-100"/>
     <use x="1427.734375" xlink:href="#Roboto-Regular-32"/>
     <use x="1452.490234" xlink:href="#Roboto-Regular-83"/>
     <use x="1511.816406" xlink:href="#Roboto-Regular-116"/>
     <use x="1544.482422" xlink:href="#Roboto-Regular-97"/>
     <use x="1598.876953" xlink:href="#Roboto-Regular-116"/>
     <use x="1631.542969" xlink:href="#Roboto-Regular-101"/>
     <use x="1684.521484" xlink:href="#Roboto-Regular-115"/>
    </g>
   </g>
   <g id="legend_1">
    <g id="patch_7">
     <path d="M 105.75375 80.2075 
L 286.535313 80.2075 
Q 289.335313 80.2075 289.335313 77.4075 
L 289.335313 38.12 
Q 289.335313 35.32 286.535313 35.32 
L 105.75375 35.32 
Q 102.95375 35.32 102.95375 38.12 
L 102.95375 77.4075 
Q 102.95375 80.2075 105.75375 80.2075 
z
" style="fill:#f0f0f0;opacity:0.8;stroke:#cccccc;stroke-linejoin:miter;stroke-width:0.5;"/>
    </g>
    <g id="line2d_147">
     <path d="M 108.55375 46.52 
L 136.55375 46.52 
" style="fill:none;stroke:#008fd5;stroke-width:4;"/>
    </g>
    <g id="line2d_148"/>
    <g id="text_43">
     <!-- Total US Cases -->
     <g transform="translate(147.75375 51.42)scale(0.14 -0.14)">
      <defs>
       <path d="M 58.59375 61.140625 
L 36.421875 61.140625 
L 36.421875 0 
L 24.171875 0 
L 24.171875 61.140625 
L 2.203125 61.140625 
L 2.203125 71.09375 
L 58.59375 71.09375 
z
" id="Roboto-Medium-84"/>
       <path d="M 3.859375 26.90625 
Q 3.859375 34.671875 6.9375 40.890625 
Q 10.015625 47.125 15.578125 50.46875 
Q 21.140625 53.8125 28.375 53.8125 
Q 39.0625 53.8125 45.71875 46.921875 
Q 52.390625 40.046875 52.9375 28.65625 
L 52.984375 25.875 
Q 52.984375 18.0625 49.96875 11.90625 
Q 46.96875 5.765625 41.375 2.390625 
Q 35.796875 -0.984375 28.46875 -0.984375 
Q 17.28125 -0.984375 10.5625 6.46875 
Q 3.859375 13.921875 3.859375 26.3125 
z
M 15.71875 25.875 
Q 15.71875 17.71875 19.09375 13.109375 
Q 22.46875 8.5 28.46875 8.5 
Q 34.46875 8.5 37.8125 13.1875 
Q 41.15625 17.875 41.15625 26.90625 
Q 41.15625 34.90625 37.71875 39.59375 
Q 34.28125 44.28125 28.375 44.28125 
Q 22.5625 44.28125 19.140625 39.671875 
Q 15.71875 35.0625 15.71875 25.875 
z
" id="Roboto-Medium-111"/>
       <path d="M 20.953125 65.671875 
L 20.953125 52.828125 
L 30.28125 52.828125 
L 30.28125 44.046875 
L 20.953125 44.046875 
L 20.953125 14.546875 
Q 20.953125 11.53125 22.140625 10.1875 
Q 23.34375 8.84375 26.421875 8.84375 
Q 28.46875 8.84375 30.5625 9.328125 
L 30.5625 0.140625 
Q 26.515625 -0.984375 22.75 -0.984375 
Q 9.078125 -0.984375 9.078125 14.109375 
L 9.078125 44.046875 
L 0.390625 44.046875 
L 0.390625 52.828125 
L 9.078125 52.828125 
L 9.078125 65.671875 
z
" id="Roboto-Medium-116"/>
       <path d="M 37.640625 0 
Q 36.859375 1.515625 36.28125 4.9375 
Q 30.609375 -0.984375 22.40625 -0.984375 
Q 14.453125 -0.984375 9.421875 3.5625 
Q 4.390625 8.109375 4.390625 14.796875 
Q 4.390625 23.25 10.65625 27.765625 
Q 16.9375 32.28125 28.609375 32.28125 
L 35.890625 32.28125 
L 35.890625 35.75 
Q 35.890625 39.84375 33.59375 42.3125 
Q 31.296875 44.78125 26.609375 44.78125 
Q 22.5625 44.78125 19.96875 42.75 
Q 17.390625 40.71875 17.390625 37.59375 
L 5.515625 37.59375 
Q 5.515625 41.9375 8.390625 45.71875 
Q 11.28125 49.515625 16.234375 51.65625 
Q 21.1875 53.8125 27.296875 53.8125 
Q 36.578125 53.8125 42.09375 49.140625 
Q 47.609375 44.484375 47.75 36.03125 
L 47.75 12.203125 
Q 47.75 5.078125 49.75 0.828125 
L 49.75 0 
z
M 24.609375 8.546875 
Q 28.125 8.546875 31.21875 10.25 
Q 34.328125 11.96875 35.890625 14.84375 
L 35.890625 24.8125 
L 29.5 24.8125 
Q 22.90625 24.8125 19.578125 22.515625 
Q 16.265625 20.21875 16.265625 16.015625 
Q 16.265625 12.59375 18.53125 10.5625 
Q 20.796875 8.546875 24.609375 8.546875 
z
" id="Roboto-Medium-97"/>
       <path d="M 18.703125 0 
L 6.84375 0 
L 6.84375 75 
L 18.703125 75 
z
" id="Roboto-Medium-108"/>
       <path id="Roboto-Medium-32"/>
       <path d="M 59.234375 71.09375 
L 59.234375 23.578125 
Q 59.234375 12.25 51.984375 5.625 
Q 44.734375 -0.984375 32.671875 -0.984375 
Q 20.453125 -0.984375 13.28125 5.53125 
Q 6.109375 12.0625 6.109375 23.640625 
L 6.109375 71.09375 
L 18.40625 71.09375 
L 18.40625 23.53125 
Q 18.40625 16.40625 22.015625 12.640625 
Q 25.640625 8.890625 32.671875 8.890625 
Q 46.921875 8.890625 46.921875 23.921875 
L 46.921875 71.09375 
z
" id="Roboto-Medium-85"/>
       <path d="M 44.390625 18.3125 
Q 44.390625 23 41.09375 25.53125 
Q 37.796875 28.078125 29.203125 30.65625 
Q 20.609375 33.25 15.53125 36.421875 
Q 5.8125 42.53125 5.8125 52.34375 
Q 5.8125 60.9375 12.8125 66.5 
Q 19.828125 72.078125 31 72.078125 
Q 38.421875 72.078125 44.234375 69.34375 
Q 50.046875 66.609375 53.359375 61.546875 
Q 56.6875 56.5 56.6875 50.34375 
L 44.390625 50.34375 
Q 44.390625 55.90625 40.890625 59.046875 
Q 37.40625 62.203125 30.90625 62.203125 
Q 24.859375 62.203125 21.515625 59.609375 
Q 18.171875 57.03125 18.171875 52.390625 
Q 18.171875 48.484375 21.78125 45.875 
Q 25.390625 43.265625 33.6875 40.796875 
Q 42 38.328125 47.015625 35.171875 
Q 52.046875 32.03125 54.390625 27.953125 
Q 56.734375 23.875 56.734375 18.40625 
Q 56.734375 9.515625 49.921875 4.265625 
Q 43.109375 -0.984375 31.453125 -0.984375 
Q 23.734375 -0.984375 17.265625 1.875 
Q 10.796875 4.734375 7.203125 9.765625 
Q 3.609375 14.796875 3.609375 21.484375 
L 15.96875 21.484375 
Q 15.96875 15.4375 19.96875 12.109375 
Q 23.96875 8.796875 31.453125 8.796875 
Q 37.890625 8.796875 41.140625 11.40625 
Q 44.390625 14.015625 44.390625 18.3125 
z
" id="Roboto-Medium-83"/>
       <path d="M 61.46875 23.140625 
Q 60.40625 11.765625 53.078125 5.390625 
Q 45.75 -0.984375 33.59375 -0.984375 
Q 25.09375 -0.984375 18.625 3.046875 
Q 12.15625 7.078125 8.640625 14.5 
Q 5.125 21.921875 4.984375 31.734375 
L 4.984375 38.375 
Q 4.984375 48.4375 8.546875 56.09375 
Q 12.109375 63.765625 18.765625 67.921875 
Q 25.4375 72.078125 34.1875 72.078125 
Q 45.953125 72.078125 53.125 65.671875 
Q 60.296875 59.28125 61.46875 47.609375 
L 49.171875 47.609375 
Q 48.296875 55.28125 44.703125 58.671875 
Q 41.109375 62.0625 34.1875 62.0625 
Q 26.125 62.0625 21.796875 56.171875 
Q 17.484375 50.296875 17.390625 38.921875 
L 17.390625 32.625 
Q 17.390625 21.09375 21.515625 15.03125 
Q 25.640625 8.984375 33.59375 8.984375 
Q 40.875 8.984375 44.53125 12.25 
Q 48.1875 15.53125 49.171875 23.140625 
z
" id="Roboto-Medium-67"/>
       <path d="M 35.6875 14.359375 
Q 35.6875 17.53125 33.078125 19.1875 
Q 30.46875 20.84375 24.40625 22.109375 
Q 18.359375 23.390625 14.3125 25.34375 
Q 5.421875 29.640625 5.421875 37.796875 
Q 5.421875 44.625 11.171875 49.21875 
Q 16.9375 53.8125 25.828125 53.8125 
Q 35.296875 53.8125 41.125 49.125 
Q 46.96875 44.4375 46.96875 36.96875 
L 35.109375 36.96875 
Q 35.109375 40.375 32.5625 42.640625 
Q 30.03125 44.921875 25.828125 44.921875 
Q 21.921875 44.921875 19.453125 43.109375 
Q 17 41.3125 17 38.28125 
Q 17 35.546875 19.28125 34.03125 
Q 21.578125 32.515625 28.5625 30.96875 
Q 35.546875 29.4375 39.515625 27.3125 
Q 43.5 25.203125 45.421875 22.21875 
Q 47.359375 19.234375 47.359375 14.984375 
Q 47.359375 7.859375 41.453125 3.4375 
Q 35.546875 -0.984375 25.984375 -0.984375 
Q 19.484375 -0.984375 14.40625 1.359375 
Q 9.328125 3.71875 6.484375 7.8125 
Q 3.65625 11.921875 3.65625 16.65625 
L 15.1875 16.65625 
Q 15.4375 12.453125 18.359375 10.171875 
Q 21.296875 7.90625 26.125 7.90625 
Q 30.8125 7.90625 33.25 9.6875 
Q 35.6875 11.46875 35.6875 14.359375 
z
" id="Roboto-Medium-115"/>
       <path d="M 29.34375 -0.984375 
Q 18.0625 -0.984375 11.046875 6.125 
Q 4.046875 13.234375 4.046875 25.046875 
L 4.046875 26.515625 
Q 4.046875 34.421875 7.09375 40.640625 
Q 10.15625 46.875 15.671875 50.34375 
Q 21.1875 53.8125 27.984375 53.8125 
Q 38.765625 53.8125 44.640625 46.921875 
Q 50.53125 40.046875 50.53125 27.4375 
L 50.53125 22.65625 
L 16.015625 22.65625 
Q 16.546875 16.109375 20.375 12.296875 
Q 24.21875 8.5 30.03125 8.5 
Q 38.1875 8.5 43.3125 15.09375 
L 49.703125 8.984375 
Q 46.53125 4.25 41.234375 1.625 
Q 35.9375 -0.984375 29.34375 -0.984375 
z
M 27.9375 44.28125 
Q 23.046875 44.28125 20.046875 40.859375 
Q 17.046875 37.453125 16.21875 31.34375 
L 38.8125 31.34375 
L 38.8125 32.234375 
Q 38.421875 38.1875 35.640625 41.234375 
Q 32.859375 44.28125 27.9375 44.28125 
z
" id="Roboto-Medium-101"/>
      </defs>
      <use xlink:href="#Roboto-Medium-84"/>
      <use x="60.693359" xlink:href="#Roboto-Medium-111"/>
      <use x="117.626953" xlink:href="#Roboto-Medium-116"/>
      <use x="150.878906" xlink:href="#Roboto-Medium-97"/>
      <use x="204.980469" xlink:href="#Roboto-Medium-108"/>
      <use x="230.517578" xlink:href="#Roboto-Medium-32"/>
      <use x="255.419922" xlink:href="#Roboto-Medium-85"/>
      <use x="320.605469" xlink:href="#Roboto-Medium-83"/>
      <use x="380.957031" xlink:href="#Roboto-Medium-32"/>
      <use x="405.859375" xlink:href="#Roboto-Medium-67"/>
      <use x="471.142578" xlink:href="#Roboto-Medium-97"/>
      <use x="525.244141" xlink:href="#Roboto-Medium-115"/>
      <use x="576.855469" xlink:href="#Roboto-Medium-101"/>
      <use x="630.517578" xlink:href="#Roboto-Medium-115"/>
     </g>
    </g>
    <g id="line2d_149">
     <path d="M 108.55375 66.86375 
L 136.55375 66.86375 
" style="fill:none;stroke:#fc4f30;stroke-width:4;"/>
    </g>
    <g id="line2d_150"/>
    <g id="text_44">
     <!-- Total Cases in Florida -->
     <g transform="translate(147.75375 71.76375)scale(0.14 -0.14)">
      <defs>
       <path d="M 18.703125 0 
L 6.84375 0 
L 6.84375 52.828125 
L 18.703125 52.828125 
z
M 6.109375 66.546875 
Q 6.109375 69.28125 7.84375 71.09375 
Q 9.578125 72.90625 12.796875 72.90625 
Q 16.015625 72.90625 17.765625 71.09375 
Q 19.53125 69.28125 19.53125 66.546875 
Q 19.53125 63.875 17.765625 62.078125 
Q 16.015625 60.296875 12.796875 60.296875 
Q 9.578125 60.296875 7.84375 62.078125 
Q 6.109375 63.875 6.109375 66.546875 
z
" id="Roboto-Medium-105"/>
       <path d="M 17.09375 52.828125 
L 17.4375 46.734375 
Q 23.296875 53.8125 32.8125 53.8125 
Q 49.3125 53.8125 49.609375 34.90625 
L 49.609375 0 
L 37.75 0 
L 37.75 34.234375 
Q 37.75 39.265625 35.578125 41.671875 
Q 33.40625 44.09375 28.46875 44.09375 
Q 21.296875 44.09375 17.78125 37.59375 
L 17.78125 0 
L 5.90625 0 
L 5.90625 52.828125 
z
" id="Roboto-Medium-110"/>
       <path d="M 48.1875 30.125 
L 19.578125 30.125 
L 19.578125 0 
L 7.234375 0 
L 7.234375 71.09375 
L 52.390625 71.09375 
L 52.390625 61.140625 
L 19.578125 61.140625 
L 19.578125 39.984375 
L 48.1875 39.984375 
z
" id="Roboto-Medium-70"/>
       <path d="M 33.734375 42 
Q 31.390625 42.390625 28.90625 42.390625 
Q 20.75 42.390625 17.921875 36.140625 
L 17.921875 0 
L 6.0625 0 
L 6.0625 52.828125 
L 17.390625 52.828125 
L 17.671875 46.921875 
Q 21.96875 53.8125 29.59375 53.8125 
Q 32.125 53.8125 33.796875 53.125 
z
" id="Roboto-Medium-114"/>
       <path d="M 3.859375 26.8125 
Q 3.859375 39.015625 9.515625 46.40625 
Q 15.1875 53.8125 24.703125 53.8125 
Q 33.109375 53.8125 38.28125 47.953125 
L 38.28125 75 
L 50.140625 75 
L 50.140625 0 
L 39.40625 0 
L 38.8125 5.46875 
Q 33.5 -0.984375 24.609375 -0.984375 
Q 15.328125 -0.984375 9.59375 6.484375 
Q 3.859375 13.96875 3.859375 26.8125 
z
M 15.71875 25.78125 
Q 15.71875 17.71875 18.8125 13.203125 
Q 21.921875 8.6875 27.640625 8.6875 
Q 34.90625 8.6875 38.28125 15.1875 
L 38.28125 37.75 
Q 35.015625 44.09375 27.734375 44.09375 
Q 21.96875 44.09375 18.84375 39.53125 
Q 15.71875 34.96875 15.71875 25.78125 
z
" id="Roboto-Medium-100"/>
      </defs>
      <use xlink:href="#Roboto-Medium-84"/>
      <use x="60.693359" xlink:href="#Roboto-Medium-111"/>
      <use x="117.626953" xlink:href="#Roboto-Medium-116"/>
      <use x="150.878906" xlink:href="#Roboto-Medium-97"/>
      <use x="204.980469" xlink:href="#Roboto-Medium-108"/>
      <use x="230.517578" xlink:href="#Roboto-Medium-32"/>
      <use x="255.419922" xlink:href="#Roboto-Medium-67"/>
      <use x="320.703125" xlink:href="#Roboto-Medium-97"/>
      <use x="374.804688" xlink:href="#Roboto-Medium-115"/>
      <use x="426.416016" xlink:href="#Roboto-Medium-101"/>
      <use x="480.078125" xlink:href="#Roboto-Medium-115"/>
      <use x="531.689453" xlink:href="#Roboto-Medium-32"/>
      <use x="556.591797" xlink:href="#Roboto-Medium-105"/>
      <use x="582.128906" xlink:href="#Roboto-Medium-110"/>
      <use x="637.744141" xlink:href="#Roboto-Medium-32"/>
      <use x="662.646484" xlink:href="#Roboto-Medium-70"/>
      <use x="717.578125" xlink:href="#Roboto-Medium-108"/>
      <use x="743.115234" xlink:href="#Roboto-Medium-111"/>
      <use x="800.048828" xlink:href="#Roboto-Medium-114"/>
      <use x="835.205078" xlink:href="#Roboto-Medium-105"/>
      <use x="860.742188" xlink:href="#Roboto-Medium-100"/>
      <use x="917.1875" xlink:href="#Roboto-Medium-97"/>
     </g>
    </g>
   </g>
  </g>
 </g>
 <defs>
  <clipPath id="p04bc831c96">
   <rect height="391.68" width="558" x="95.95375" y="28.32"/>
  </clipPath>
 </defs>
</svg>
