<?xml version="1.0" encoding="utf-8" standalone="no"?>
<!DOCTYPE svg PUBLIC "-//W3C//DTD SVG 1.1//EN"
  "http://www.w3.org/Graphics/SVG/1.1/DTD/svg11.dtd">
<!-- Created with matplotlib (https://matplotlib.org/) -->
<svg height="495.132081pt" version="1.1" viewBox="0 0 660.88125 495.132081" width="660.88125pt" xmlns="http://www.w3.org/2000/svg" xmlns:xlink="http://www.w3.org/1999/xlink">
 <metadata>
  <rdf:RDF xmlns:cc="http://creativecommons.org/ns#" xmlns:dc="http://purl.org/dc/elements/1.1/" xmlns:rdf="http://www.w3.org/1999/02/22-rdf-syntax-ns#">
   <cc:Work>
    <dc:type rdf:resource="http://purl.org/dc/dcmitype/StillImage"/>
    <dc:date>2021-03-03T14:11:36.785787</dc:date>
    <dc:format>image/svg+xml</dc:format>
    <dc:creator>
     <cc:Agent>
      <dc:title>Matplotlib v3.3.4, https://matplotlib.org/</dc:title>
     </cc:Agent>
    </dc:creator>
   </cc:Work>
  </rdf:RDF>
 </metadata>
 <defs>
  <style type="text/css">*{stroke-linecap:butt;stroke-linejoin:round;}</style>
 </defs>
 <g id="figure_1">
  <g id="patch_1">
   <path d="M 0 495.132081 
L 660.88125 495.132081 
L 660.88125 0 
L 0 0 
z
" style="fill:#f0f0f0;"/>
  </g>
  <g id="axes_1">
   <g id="patch_2">
    <path d="M 95.68125 440.5555 
L 653.68125 440.5555 
L 653.68125 31.5955 
L 95.68125 31.5955 
z
" style="fill:#f0f0f0;"/>
   </g>
   <g id="matplotlib.axis_1">
    <g id="xtick_1">
     <g id="line2d_1">
      <path clip-path="url(#p638156c529)" d="M 112.809339 440.5555 
L 112.809339 31.5955 
" style="fill:none;stroke:#cbcbcb;"/>
     </g>
     <g id="line2d_2"/>
     <g id="text_1">
      <!-- 01/14 -->
      <g style="fill:#555555;" transform="translate(80.431553 470.610079)rotate(-30)scale(0.14 -0.14)">
       <defs>
        <path d="M 13.203125 34.90625 
Q 13.203125 37.5 13.25 40.640625 
Q 13.296875 43.796875 13.75 46.9375 
Q 14.203125 50.09375 15.046875 53.09375 
Q 15.90625 56.09375 17.546875 58.34375 
Q 19.203125 60.59375 21.703125 62 
Q 24.203125 63.40625 27.796875 63.40625 
Q 31.40625 63.40625 33.90625 62 
Q 36.40625 60.59375 38.046875 58.34375 
Q 39.703125 56.09375 40.546875 53.09375 
Q 41.40625 50.09375 41.84375 46.9375 
Q 42.296875 43.796875 42.34375 40.640625 
Q 42.40625 37.5 42.40625 34.90625 
Q 42.40625 30.90625 42.15625 25.953125 
Q 41.90625 21 40.546875 16.640625 
Q 39.203125 12.296875 36.203125 9.296875 
Q 33.203125 6.296875 27.796875 6.296875 
Q 22.40625 6.296875 19.40625 9.296875 
Q 16.40625 12.296875 15.046875 16.640625 
Q 13.703125 21 13.453125 25.953125 
Q 13.203125 30.90625 13.203125 34.90625 
z
M 4.203125 34.796875 
Q 4.203125 30.90625 4.390625 26.703125 
Q 4.59375 22.5 5.390625 18.5 
Q 6.203125 14.5 7.703125 10.953125 
Q 9.203125 7.40625 11.796875 4.703125 
Q 14.40625 2 18.34375 0.453125 
Q 22.296875 -1.09375 27.796875 -1.09375 
Q 33.40625 -1.09375 37.296875 0.453125 
Q 41.203125 2 43.796875 4.703125 
Q 46.40625 7.40625 47.90625 10.953125 
Q 49.40625 14.5 50.203125 18.5 
Q 51 22.5 51.203125 26.703125 
Q 51.40625 30.90625 51.40625 34.796875 
Q 51.40625 38.703125 51.203125 42.890625 
Q 51 47.09375 50.203125 51.09375 
Q 49.40625 55.09375 47.90625 58.6875 
Q 46.40625 62.296875 43.796875 65 
Q 41.203125 67.703125 37.25 69.296875 
Q 33.296875 70.90625 27.796875 70.90625 
Q 22.296875 70.90625 18.34375 69.296875 
Q 14.40625 67.703125 11.796875 65 
Q 9.203125 62.296875 7.703125 58.6875 
Q 6.203125 55.09375 5.390625 51.09375 
Q 4.59375 47.09375 4.390625 42.890625 
Q 4.203125 38.703125 4.203125 34.796875 
z
" id="HelveticaNeue-48"/>
        <path d="M 35.59375 0 
L 35.59375 70.90625 
L 29.09375 70.90625 
Q 28.40625 66.90625 26.5 64.296875 
Q 24.59375 61.703125 21.84375 60.203125 
Q 19.09375 58.703125 15.6875 58.140625 
Q 12.296875 57.59375 8.703125 57.59375 
L 8.703125 50.796875 
L 27.09375 50.796875 
L 27.09375 0 
z
" id="HelveticaNeue-49"/>
        <path d="M 27.796875 73.09375 
L -1.703125 -1.59375 
L 5.5 -1.59375 
L 35.09375 73.09375 
z
" id="HelveticaNeue-47"/>
        <path d="M 33.90625 24.09375 
L 10.09375 24.09375 
L 33.703125 58.796875 
L 33.90625 58.796875 
z
M 41.90625 24.09375 
L 41.90625 70.90625 
L 35.09375 70.90625 
L 2.796875 24.796875 
L 2.796875 16.59375 
L 33.90625 16.59375 
L 33.90625 0 
L 41.90625 0 
L 41.90625 16.59375 
L 51.5 16.59375 
L 51.5 24.09375 
z
" id="HelveticaNeue-52"/>
       </defs>
       <use xlink:href="#HelveticaNeue-48"/>
       <use x="55.599991" xlink:href="#HelveticaNeue-49"/>
       <use x="111.199982" xlink:href="#HelveticaNeue-47"/>
       <use x="144.499969" xlink:href="#HelveticaNeue-49"/>
       <use x="200.09996" xlink:href="#HelveticaNeue-52"/>
      </g>
     </g>
    </g>
    <g id="xtick_2">
     <g id="line2d_3">
      <path clip-path="url(#p638156c529)" d="M 130.301502 440.5555 
L 130.301502 31.5955 
" style="fill:none;stroke:#cbcbcb;"/>
     </g>
     <g id="line2d_4"/>
     <g id="text_2">
      <!-- 01/28 -->
      <g style="fill:#555555;" transform="translate(97.923716 470.610079)rotate(-30)scale(0.14 -0.14)">
       <defs>
        <path d="M 4.40625 45.796875 
L 12.90625 45.796875 
Q 12.796875 49 13.546875 52.140625 
Q 14.296875 55.296875 16 57.796875 
Q 17.703125 60.296875 20.34375 61.84375 
Q 23 63.40625 26.703125 63.40625 
Q 29.5 63.40625 32 62.5 
Q 34.5 61.59375 36.34375 59.890625 
Q 38.203125 58.203125 39.296875 55.84375 
Q 40.40625 53.5 40.40625 50.59375 
Q 40.40625 46.90625 39.25 44.09375 
Q 38.09375 41.296875 35.84375 38.890625 
Q 33.59375 36.5 30.1875 34.140625 
Q 26.796875 31.796875 22.296875 29 
Q 18.59375 26.796875 15.1875 24.296875 
Q 11.796875 21.796875 9.09375 18.5 
Q 6.40625 15.203125 4.65625 10.75 
Q 2.90625 6.296875 2.40625 0 
L 48.703125 0 
L 48.703125 7.5 
L 12.296875 7.5 
Q 12.90625 10.796875 14.84375 13.34375 
Q 16.796875 15.90625 19.546875 18.09375 
Q 22.296875 20.296875 25.59375 22.25 
Q 28.90625 24.203125 32.203125 26.203125 
Q 35.5 28.296875 38.59375 30.59375 
Q 41.703125 32.90625 44.09375 35.75 
Q 46.5 38.59375 47.953125 42.1875 
Q 49.40625 45.796875 49.40625 50.5 
Q 49.40625 55.5 47.65625 59.296875 
Q 45.90625 63.09375 42.90625 65.640625 
Q 39.90625 68.203125 35.84375 69.546875 
Q 31.796875 70.90625 27.203125 70.90625 
Q 21.59375 70.90625 17.1875 69 
Q 12.796875 67.09375 9.84375 63.75 
Q 6.90625 60.40625 5.5 55.796875 
Q 4.09375 51.203125 4.40625 45.796875 
z
" id="HelveticaNeue-50"/>
        <path d="M 15.5 52.5 
Q 15.5 55.203125 16.5 57.203125 
Q 17.5 59.203125 19.140625 60.59375 
Q 20.796875 62 23.09375 62.703125 
Q 25.40625 63.40625 27.90625 63.40625 
Q 33.09375 63.40625 36.4375 60.65625 
Q 39.796875 57.90625 39.796875 52.5 
Q 39.796875 47.09375 36.5 44.09375 
Q 33.203125 41.09375 28.09375 41.09375 
Q 25.5 41.09375 23.203125 41.796875 
Q 20.90625 42.5 19.203125 43.890625 
Q 17.5 45.296875 16.5 47.4375 
Q 15.5 49.59375 15.5 52.5 
z
M 6.5 52.796875 
Q 6.5 48 9.203125 43.953125 
Q 11.90625 39.90625 16.40625 38.09375 
Q 10.40625 36 7.203125 31.34375 
Q 4 26.703125 4 20.40625 
Q 4 15 5.84375 10.953125 
Q 7.703125 6.90625 10.953125 4.203125 
Q 14.203125 1.5 18.59375 0.203125 
Q 23 -1.09375 28.09375 -1.09375 
Q 33 -1.09375 37.296875 0.296875 
Q 41.59375 1.703125 44.75 4.453125 
Q 47.90625 7.203125 49.75 11.203125 
Q 51.59375 15.203125 51.59375 20.40625 
Q 51.59375 27 48.5 31.546875 
Q 45.40625 36.09375 39 38.09375 
Q 43.5 40.09375 46.140625 44.046875 
Q 48.796875 48 48.796875 52.796875 
Q 48.796875 56.203125 47.59375 59.453125 
Q 46.40625 62.703125 43.84375 65.25 
Q 41.296875 67.796875 37.1875 69.34375 
Q 33.09375 70.90625 27.296875 70.90625 
Q 23.203125 70.90625 19.453125 69.703125 
Q 15.703125 68.5 12.796875 66.203125 
Q 9.90625 63.90625 8.203125 60.546875 
Q 6.5 57.203125 6.5 52.796875 
z
M 13 20 
Q 13 23.09375 14.140625 25.59375 
Q 15.296875 28.09375 17.34375 29.890625 
Q 19.40625 31.703125 22.15625 32.640625 
Q 24.90625 33.59375 28 33.59375 
Q 31 33.59375 33.640625 32.546875 
Q 36.296875 31.5 38.296875 29.703125 
Q 40.296875 27.90625 41.4375 25.453125 
Q 42.59375 23 42.59375 20.09375 
Q 42.59375 17.09375 41.546875 14.59375 
Q 40.5 12.09375 38.546875 10.25 
Q 36.59375 8.40625 33.9375 7.34375 
Q 31.296875 6.296875 28.09375 6.296875 
Q 21.5 6.296875 17.25 9.9375 
Q 13 13.59375 13 20 
z
" id="HelveticaNeue-56"/>
       </defs>
       <use xlink:href="#HelveticaNeue-48"/>
       <use x="55.599991" xlink:href="#HelveticaNeue-49"/>
       <use x="111.199982" xlink:href="#HelveticaNeue-47"/>
       <use x="144.499969" xlink:href="#HelveticaNeue-50"/>
       <use x="200.09996" xlink:href="#HelveticaNeue-56"/>
      </g>
     </g>
    </g>
    <g id="xtick_3">
     <g id="line2d_5">
      <path clip-path="url(#p638156c529)" d="M 147.793665 440.5555 
L 147.793665 31.5955 
" style="fill:none;stroke:#cbcbcb;"/>
     </g>
     <g id="line2d_6"/>
     <g id="text_3">
      <!-- 02/11 -->
      <g style="fill:#555555;" transform="translate(115.415879 470.610079)rotate(-30)scale(0.14 -0.14)">
       <use xlink:href="#HelveticaNeue-48"/>
       <use x="55.599991" xlink:href="#HelveticaNeue-50"/>
       <use x="111.199982" xlink:href="#HelveticaNeue-47"/>
       <use x="144.499969" xlink:href="#HelveticaNeue-49"/>
       <use x="200.09996" xlink:href="#HelveticaNeue-49"/>
      </g>
     </g>
    </g>
    <g id="xtick_4">
     <g id="line2d_7">
      <path clip-path="url(#p638156c529)" d="M 165.285828 440.5555 
L 165.285828 31.5955 
" style="fill:none;stroke:#cbcbcb;"/>
     </g>
     <g id="line2d_8"/>
     <g id="text_4">
      <!-- 02/25 -->
      <g style="fill:#555555;" transform="translate(132.908042 470.610079)rotate(-30)scale(0.14 -0.14)">
       <defs>
        <path d="M 47 62.203125 
L 47 69.703125 
L 12 69.703125 
L 5.40625 32.90625 
L 12.703125 32.5 
Q 15.203125 35.5 18.453125 37.34375 
Q 21.703125 39.203125 25.90625 39.203125 
Q 29.5 39.203125 32.453125 38 
Q 35.40625 36.796875 37.5 34.640625 
Q 39.59375 32.5 40.75 29.546875 
Q 41.90625 26.59375 41.90625 23.09375 
Q 41.90625 18.90625 40.703125 15.75 
Q 39.5 12.59375 37.453125 10.5 
Q 35.40625 8.40625 32.65625 7.34375 
Q 29.90625 6.296875 26.90625 6.296875 
Q 23.703125 6.296875 21.046875 7.25 
Q 18.40625 8.203125 16.453125 9.953125 
Q 14.5 11.703125 13.34375 14.046875 
Q 12.203125 16.40625 12 19.09375 
L 3.5 19.09375 
Q 3.59375 14.296875 5.390625 10.5 
Q 7.203125 6.703125 10.296875 4.140625 
Q 13.40625 1.59375 17.453125 0.25 
Q 21.5 -1.09375 26.09375 -1.09375 
Q 32.296875 -1.09375 36.9375 0.84375 
Q 41.59375 2.796875 44.6875 6.09375 
Q 47.796875 9.40625 49.34375 13.65625 
Q 50.90625 17.90625 50.90625 22.40625 
Q 50.90625 28.5 49.09375 33.046875 
Q 47.296875 37.59375 44.1875 40.640625 
Q 41.09375 43.703125 36.890625 45.203125 
Q 32.703125 46.703125 28 46.703125 
Q 24.40625 46.703125 20.75 45.453125 
Q 17.09375 44.203125 14.796875 41.59375 
L 14.59375 41.796875 
L 18.40625 62.203125 
z
" id="HelveticaNeue-53"/>
       </defs>
       <use xlink:href="#HelveticaNeue-48"/>
       <use x="55.599991" xlink:href="#HelveticaNeue-50"/>
       <use x="111.199982" xlink:href="#HelveticaNeue-47"/>
       <use x="144.499969" xlink:href="#HelveticaNeue-50"/>
       <use x="200.09996" xlink:href="#HelveticaNeue-53"/>
      </g>
     </g>
    </g>
    <g id="xtick_5">
     <g id="line2d_9">
      <path clip-path="url(#p638156c529)" d="M 182.777991 440.5555 
L 182.777991 31.5955 
" style="fill:none;stroke:#cbcbcb;"/>
     </g>
     <g id="line2d_10"/>
     <g id="text_5">
      <!-- 03/10 -->
      <g style="fill:#555555;" transform="translate(150.400205 470.610079)rotate(-30)scale(0.14 -0.14)">
       <defs>
        <path d="M 21.796875 40.5 
L 21.796875 33.296875 
Q 24.203125 33.59375 26.90625 33.59375 
Q 30.09375 33.59375 32.84375 32.75 
Q 35.59375 31.90625 37.59375 30.15625 
Q 39.59375 28.40625 40.796875 25.84375 
Q 42 23.296875 42 20 
Q 42 16.796875 40.75 14.25 
Q 39.5 11.703125 37.390625 9.953125 
Q 35.296875 8.203125 32.5 7.25 
Q 29.703125 6.296875 26.59375 6.296875 
Q 19.296875 6.296875 15.5 10.640625 
Q 11.703125 15 11.5 21.90625 
L 3 21.90625 
Q 2.90625 16.40625 4.546875 12.09375 
Q 6.203125 7.796875 9.296875 4.84375 
Q 12.40625 1.90625 16.796875 0.40625 
Q 21.203125 -1.09375 26.59375 -1.09375 
Q 31.59375 -1.09375 36.046875 0.25 
Q 40.5 1.59375 43.796875 4.296875 
Q 47.09375 7 49.046875 11.046875 
Q 51 15.09375 51 20.40625 
Q 51 26.796875 47.84375 31.5 
Q 44.703125 36.203125 38.203125 37.59375 
L 38.203125 37.796875 
Q 42.40625 39.703125 45.203125 43.390625 
Q 48 47.09375 48 51.90625 
Q 48 56.796875 46.34375 60.390625 
Q 44.703125 64 41.796875 66.296875 
Q 38.90625 68.59375 34.953125 69.75 
Q 31 70.90625 26.40625 70.90625 
Q 21.09375 70.90625 17.046875 69.203125 
Q 13 67.5 10.296875 64.5 
Q 7.59375 61.5 6.140625 57.296875 
Q 4.703125 53.09375 4.5 48 
L 13 48 
Q 13 51.09375 13.796875 53.890625 
Q 14.59375 56.703125 16.25 58.796875 
Q 17.90625 60.90625 20.453125 62.15625 
Q 23 63.40625 26.40625 63.40625 
Q 31.796875 63.40625 35.390625 60.546875 
Q 39 57.703125 39 52 
Q 39 49.203125 37.890625 47 
Q 36.796875 44.796875 34.9375 43.34375 
Q 33.09375 41.90625 30.640625 41.15625 
Q 28.203125 40.40625 25.5 40.40625 
L 23.703125 40.40625 
Q 23.203125 40.40625 22.703125 40.40625 
Q 22.296875 40.40625 21.796875 40.5 
z
" id="HelveticaNeue-51"/>
       </defs>
       <use xlink:href="#HelveticaNeue-48"/>
       <use x="55.599991" xlink:href="#HelveticaNeue-51"/>
       <use x="111.199982" xlink:href="#HelveticaNeue-47"/>
       <use x="144.499969" xlink:href="#HelveticaNeue-49"/>
       <use x="200.09996" xlink:href="#HelveticaNeue-48"/>
      </g>
     </g>
    </g>
    <g id="xtick_6">
     <g id="line2d_11">
      <path clip-path="url(#p638156c529)" d="M 200.270154 440.5555 
L 200.270154 31.5955 
" style="fill:none;stroke:#cbcbcb;"/>
     </g>
     <g id="line2d_12"/>
     <g id="text_6">
      <!-- 03/24 -->
      <g style="fill:#555555;" transform="translate(167.892368 470.610079)rotate(-30)scale(0.14 -0.14)">
       <use xlink:href="#HelveticaNeue-48"/>
       <use x="55.599991" xlink:href="#HelveticaNeue-51"/>
       <use x="111.199982" xlink:href="#HelveticaNeue-47"/>
       <use x="144.499969" xlink:href="#HelveticaNeue-50"/>
       <use x="200.09996" xlink:href="#HelveticaNeue-52"/>
      </g>
     </g>
    </g>
    <g id="xtick_7">
     <g id="line2d_13">
      <path clip-path="url(#p638156c529)" d="M 217.762317 440.5555 
L 217.762317 31.5955 
" style="fill:none;stroke:#cbcbcb;"/>
     </g>
     <g id="line2d_14"/>
     <g id="text_7">
      <!-- 04/07 -->
      <g style="fill:#555555;" transform="translate(185.384531 470.610079)rotate(-30)scale(0.14 -0.14)">
       <defs>
        <path d="M 50.90625 62.40625 
L 50.90625 69.703125 
L 5 69.703125 
L 5 61.703125 
L 42.203125 61.703125 
Q 36.59375 55.796875 31.75 48.796875 
Q 26.90625 41.796875 23.203125 33.9375 
Q 19.5 26.09375 17.140625 17.546875 
Q 14.796875 9 14.203125 0 
L 23.703125 0 
Q 24.203125 8.296875 26.5 17.09375 
Q 28.796875 25.90625 32.4375 34.203125 
Q 36.09375 42.5 40.796875 49.796875 
Q 45.5 57.09375 50.90625 62.40625 
z
" id="HelveticaNeue-55"/>
       </defs>
       <use xlink:href="#HelveticaNeue-48"/>
       <use x="55.599991" xlink:href="#HelveticaNeue-52"/>
       <use x="111.199982" xlink:href="#HelveticaNeue-47"/>
       <use x="144.499969" xlink:href="#HelveticaNeue-48"/>
       <use x="200.09996" xlink:href="#HelveticaNeue-55"/>
      </g>
     </g>
    </g>
    <g id="xtick_8">
     <g id="line2d_15">
      <path clip-path="url(#p638156c529)" d="M 235.25448 440.5555 
L 235.25448 31.5955 
" style="fill:none;stroke:#cbcbcb;"/>
     </g>
     <g id="line2d_16"/>
     <g id="text_8">
      <!-- 04/21 -->
      <g style="fill:#555555;" transform="translate(202.876694 470.610079)rotate(-30)scale(0.14 -0.14)">
       <use xlink:href="#HelveticaNeue-48"/>
       <use x="55.599991" xlink:href="#HelveticaNeue-52"/>
       <use x="111.199982" xlink:href="#HelveticaNeue-47"/>
       <use x="144.499969" xlink:href="#HelveticaNeue-50"/>
       <use x="200.09996" xlink:href="#HelveticaNeue-49"/>
      </g>
     </g>
    </g>
    <g id="xtick_9">
     <g id="line2d_17">
      <path clip-path="url(#p638156c529)" d="M 252.746643 440.5555 
L 252.746643 31.5955 
" style="fill:none;stroke:#cbcbcb;"/>
     </g>
     <g id="line2d_18"/>
     <g id="text_9">
      <!-- 05/05 -->
      <g style="fill:#555555;" transform="translate(220.368857 470.610079)rotate(-30)scale(0.14 -0.14)">
       <use xlink:href="#HelveticaNeue-48"/>
       <use x="55.599991" xlink:href="#HelveticaNeue-53"/>
       <use x="111.199982" xlink:href="#HelveticaNeue-47"/>
       <use x="144.499969" xlink:href="#HelveticaNeue-48"/>
       <use x="200.09996" xlink:href="#HelveticaNeue-53"/>
      </g>
     </g>
    </g>
    <g id="xtick_10">
     <g id="line2d_19">
      <path clip-path="url(#p638156c529)" d="M 270.238806 440.5555 
L 270.238806 31.5955 
" style="fill:none;stroke:#cbcbcb;"/>
     </g>
     <g id="line2d_20"/>
     <g id="text_10">
      <!-- 05/19 -->
      <g style="fill:#555555;" transform="translate(237.86102 470.610079)rotate(-30)scale(0.14 -0.14)">
       <defs>
        <path d="M 13.40625 17.09375 
L 4.90625 17.09375 
Q 5.703125 7.90625 11.59375 3.40625 
Q 17.5 -1.09375 26.40625 -1.09375 
Q 39.296875 -1.09375 45.140625 8.75 
Q 51 18.59375 51 37 
Q 51 47.09375 49.046875 53.640625 
Q 47.09375 60.203125 43.796875 64 
Q 40.5 67.796875 36.09375 69.34375 
Q 31.703125 70.90625 26.703125 70.90625 
Q 21.59375 70.90625 17.296875 69.203125 
Q 13 67.5 9.890625 64.453125 
Q 6.796875 61.40625 5.09375 57.15625 
Q 3.40625 52.90625 3.40625 47.796875 
Q 3.40625 42.59375 4.84375 38.1875 
Q 6.296875 33.796875 9.140625 30.6875 
Q 12 27.59375 16.203125 25.84375 
Q 20.40625 24.09375 25.796875 24.09375 
Q 31 24.09375 35.390625 26.75 
Q 39.796875 29.40625 42.203125 33.90625 
L 42.40625 33.703125 
Q 42 19.796875 38.09375 13.046875 
Q 34.203125 6.296875 26.40625 6.296875 
Q 21.296875 6.296875 17.59375 9.09375 
Q 13.90625 11.90625 13.40625 17.09375 
z
M 40.90625 47.203125 
Q 40.90625 44.09375 39.90625 41.25 
Q 38.90625 38.40625 37 36.25 
Q 35.09375 34.09375 32.390625 32.84375 
Q 29.703125 31.59375 26.40625 31.59375 
Q 23.296875 31.59375 20.75 32.84375 
Q 18.203125 34.09375 16.34375 36.1875 
Q 14.5 38.296875 13.453125 41 
Q 12.40625 43.703125 12.40625 46.59375 
Q 12.40625 49.90625 13.15625 52.90625 
Q 13.90625 55.90625 15.546875 58.25 
Q 17.203125 60.59375 19.84375 62 
Q 22.5 63.40625 26.296875 63.40625 
Q 29.90625 63.40625 32.59375 62.09375 
Q 35.296875 60.796875 37.140625 58.546875 
Q 39 56.296875 39.953125 53.390625 
Q 40.90625 50.5 40.90625 47.203125 
z
" id="HelveticaNeue-57"/>
       </defs>
       <use xlink:href="#HelveticaNeue-48"/>
       <use x="55.599991" xlink:href="#HelveticaNeue-53"/>
       <use x="111.199982" xlink:href="#HelveticaNeue-47"/>
       <use x="144.499969" xlink:href="#HelveticaNeue-49"/>
       <use x="200.09996" xlink:href="#HelveticaNeue-57"/>
      </g>
     </g>
    </g>
    <g id="xtick_11">
     <g id="line2d_21">
      <path clip-path="url(#p638156c529)" d="M 287.73097 440.5555 
L 287.73097 31.5955 
" style="fill:none;stroke:#cbcbcb;"/>
     </g>
     <g id="line2d_22"/>
     <g id="text_11">
      <!-- 06/02 -->
      <g style="fill:#555555;" transform="translate(255.353183 470.610079)rotate(-30)scale(0.14 -0.14)">
       <defs>
        <path d="M 41.40625 52.796875 
L 49.90625 52.796875 
Q 49.09375 61.59375 43.890625 66.25 
Q 38.703125 70.90625 29.90625 70.90625 
Q 22.296875 70.90625 17.296875 67.703125 
Q 12.296875 64.5 9.296875 59.203125 
Q 6.296875 53.90625 5.046875 47.046875 
Q 3.796875 40.203125 3.796875 32.90625 
Q 3.796875 27.296875 4.640625 21.296875 
Q 5.5 15.296875 8.09375 10.296875 
Q 10.703125 5.296875 15.5 2.09375 
Q 20.296875 -1.09375 28.203125 -1.09375 
Q 34.90625 -1.09375 39.453125 1.15625 
Q 44 3.40625 46.75 6.84375 
Q 49.5 10.296875 50.703125 14.5 
Q 51.90625 18.703125 51.90625 22.59375 
Q 51.90625 27.5 50.40625 31.703125 
Q 48.90625 35.90625 46.15625 39 
Q 43.40625 42.09375 39.34375 43.84375 
Q 35.296875 45.59375 30.203125 45.59375 
Q 24.40625 45.59375 19.953125 43.390625 
Q 15.5 41.203125 12.5 36.296875 
L 12.296875 36.5 
Q 12.40625 40.59375 13.09375 45.296875 
Q 13.796875 50 15.640625 54.046875 
Q 17.5 58.09375 20.796875 60.75 
Q 24.09375 63.40625 29.5 63.40625 
Q 34.59375 63.40625 37.6875 60.5 
Q 40.796875 57.59375 41.40625 52.796875 
z
M 28.59375 38.09375 
Q 32.203125 38.09375 34.890625 36.796875 
Q 37.59375 35.5 39.390625 33.34375 
Q 41.203125 31.203125 42.046875 28.25 
Q 42.90625 25.296875 42.90625 22 
Q 42.90625 18.90625 41.953125 16.046875 
Q 41 13.203125 39.203125 11 
Q 37.40625 8.796875 34.75 7.546875 
Q 32.09375 6.296875 28.59375 6.296875 
Q 25.09375 6.296875 22.34375 7.546875 
Q 19.59375 8.796875 17.75 10.890625 
Q 15.90625 13 14.90625 15.890625 
Q 13.90625 18.796875 13.90625 22.09375 
Q 13.90625 25.40625 14.84375 28.34375 
Q 15.796875 31.296875 17.6875 33.4375 
Q 19.59375 35.59375 22.296875 36.84375 
Q 25 38.09375 28.59375 38.09375 
z
" id="HelveticaNeue-54"/>
       </defs>
       <use xlink:href="#HelveticaNeue-48"/>
       <use x="55.599991" xlink:href="#HelveticaNeue-54"/>
       <use x="111.199982" xlink:href="#HelveticaNeue-47"/>
       <use x="144.499969" xlink:href="#HelveticaNeue-48"/>
       <use x="200.09996" xlink:href="#HelveticaNeue-50"/>
      </g>
     </g>
    </g>
    <g id="xtick_12">
     <g id="line2d_23">
      <path clip-path="url(#p638156c529)" d="M 305.223133 440.5555 
L 305.223133 31.5955 
" style="fill:none;stroke:#cbcbcb;"/>
     </g>
     <g id="line2d_24"/>
     <g id="text_12">
      <!-- 06/16 -->
      <g style="fill:#555555;" transform="translate(272.845346 470.610079)rotate(-30)scale(0.14 -0.14)">
       <use xlink:href="#HelveticaNeue-48"/>
       <use x="55.599991" xlink:href="#HelveticaNeue-54"/>
       <use x="111.199982" xlink:href="#HelveticaNeue-47"/>
       <use x="144.499969" xlink:href="#HelveticaNeue-49"/>
       <use x="200.09996" xlink:href="#HelveticaNeue-54"/>
      </g>
     </g>
    </g>
    <g id="xtick_13">
     <g id="line2d_25">
      <path clip-path="url(#p638156c529)" d="M 322.715296 440.5555 
L 322.715296 31.5955 
" style="fill:none;stroke:#cbcbcb;"/>
     </g>
     <g id="line2d_26"/>
     <g id="text_13">
      <!-- 06/30 -->
      <g style="fill:#555555;" transform="translate(290.337509 470.610079)rotate(-30)scale(0.14 -0.14)">
       <use xlink:href="#HelveticaNeue-48"/>
       <use x="55.599991" xlink:href="#HelveticaNeue-54"/>
       <use x="111.199982" xlink:href="#HelveticaNeue-47"/>
       <use x="144.499969" xlink:href="#HelveticaNeue-51"/>
       <use x="200.09996" xlink:href="#HelveticaNeue-48"/>
      </g>
     </g>
    </g>
    <g id="xtick_14">
     <g id="line2d_27">
      <path clip-path="url(#p638156c529)" d="M 340.207459 440.5555 
L 340.207459 31.5955 
" style="fill:none;stroke:#cbcbcb;"/>
     </g>
     <g id="line2d_28"/>
     <g id="text_14">
      <!-- 07/14 -->
      <g style="fill:#555555;" transform="translate(307.829672 470.610079)rotate(-30)scale(0.14 -0.14)">
       <use xlink:href="#HelveticaNeue-48"/>
       <use x="55.599991" xlink:href="#HelveticaNeue-55"/>
       <use x="111.199982" xlink:href="#HelveticaNeue-47"/>
       <use x="144.499969" xlink:href="#HelveticaNeue-49"/>
       <use x="200.09996" xlink:href="#HelveticaNeue-52"/>
      </g>
     </g>
    </g>
    <g id="xtick_15">
     <g id="line2d_29">
      <path clip-path="url(#p638156c529)" d="M 357.699622 440.5555 
L 357.699622 31.5955 
" style="fill:none;stroke:#cbcbcb;"/>
     </g>
     <g id="line2d_30"/>
     <g id="text_15">
      <!-- 07/28 -->
      <g style="fill:#555555;" transform="translate(325.321835 470.610079)rotate(-30)scale(0.14 -0.14)">
       <use xlink:href="#HelveticaNeue-48"/>
       <use x="55.599991" xlink:href="#HelveticaNeue-55"/>
       <use x="111.199982" xlink:href="#HelveticaNeue-47"/>
       <use x="144.499969" xlink:href="#HelveticaNeue-50"/>
       <use x="200.09996" xlink:href="#HelveticaNeue-56"/>
      </g>
     </g>
    </g>
    <g id="xtick_16">
     <g id="line2d_31">
      <path clip-path="url(#p638156c529)" d="M 375.191785 440.5555 
L 375.191785 31.5955 
" style="fill:none;stroke:#cbcbcb;"/>
     </g>
     <g id="line2d_32"/>
     <g id="text_16">
      <!-- 08/11 -->
      <g style="fill:#555555;" transform="translate(342.813998 470.610079)rotate(-30)scale(0.14 -0.14)">
       <use xlink:href="#HelveticaNeue-48"/>
       <use x="55.599991" xlink:href="#HelveticaNeue-56"/>
       <use x="111.199982" xlink:href="#HelveticaNeue-47"/>
       <use x="144.499969" xlink:href="#HelveticaNeue-49"/>
       <use x="200.09996" xlink:href="#HelveticaNeue-49"/>
      </g>
     </g>
    </g>
    <g id="xtick_17">
     <g id="line2d_33">
      <path clip-path="url(#p638156c529)" d="M 392.683948 440.5555 
L 392.683948 31.5955 
" style="fill:none;stroke:#cbcbcb;"/>
     </g>
     <g id="line2d_34"/>
     <g id="text_17">
      <!-- 08/25 -->
      <g style="fill:#555555;" transform="translate(360.306161 470.610079)rotate(-30)scale(0.14 -0.14)">
       <use xlink:href="#HelveticaNeue-48"/>
       <use x="55.599991" xlink:href="#HelveticaNeue-56"/>
       <use x="111.199982" xlink:href="#HelveticaNeue-47"/>
       <use x="144.499969" xlink:href="#HelveticaNeue-50"/>
       <use x="200.09996" xlink:href="#HelveticaNeue-53"/>
      </g>
     </g>
    </g>
    <g id="xtick_18">
     <g id="line2d_35">
      <path clip-path="url(#p638156c529)" d="M 410.176111 440.5555 
L 410.176111 31.5955 
" style="fill:none;stroke:#cbcbcb;"/>
     </g>
     <g id="line2d_36"/>
     <g id="text_18">
      <!-- 09/08 -->
      <g style="fill:#555555;" transform="translate(377.798324 470.610079)rotate(-30)scale(0.14 -0.14)">
       <use xlink:href="#HelveticaNeue-48"/>
       <use x="55.599991" xlink:href="#HelveticaNeue-57"/>
       <use x="111.199982" xlink:href="#HelveticaNeue-47"/>
       <use x="144.499969" xlink:href="#HelveticaNeue-48"/>
       <use x="200.09996" xlink:href="#HelveticaNeue-56"/>
      </g>
     </g>
    </g>
    <g id="xtick_19">
     <g id="line2d_37">
      <path clip-path="url(#p638156c529)" d="M 427.668274 440.5555 
L 427.668274 31.5955 
" style="fill:none;stroke:#cbcbcb;"/>
     </g>
     <g id="line2d_38"/>
     <g id="text_19">
      <!-- 09/22 -->
      <g style="fill:#555555;" transform="translate(395.290487 470.610079)rotate(-30)scale(0.14 -0.14)">
       <use xlink:href="#HelveticaNeue-48"/>
       <use x="55.599991" xlink:href="#HelveticaNeue-57"/>
       <use x="111.199982" xlink:href="#HelveticaNeue-47"/>
       <use x="144.499969" xlink:href="#HelveticaNeue-50"/>
       <use x="200.09996" xlink:href="#HelveticaNeue-50"/>
      </g>
     </g>
    </g>
    <g id="xtick_20">
     <g id="line2d_39">
      <path clip-path="url(#p638156c529)" d="M 445.160437 440.5555 
L 445.160437 31.5955 
" style="fill:none;stroke:#cbcbcb;"/>
     </g>
     <g id="line2d_40"/>
     <g id="text_20">
      <!-- 10/06 -->
      <g style="fill:#555555;" transform="translate(412.78265 470.610079)rotate(-30)scale(0.14 -0.14)">
       <use xlink:href="#HelveticaNeue-49"/>
       <use x="55.599991" xlink:href="#HelveticaNeue-48"/>
       <use x="111.199982" xlink:href="#HelveticaNeue-47"/>
       <use x="144.499969" xlink:href="#HelveticaNeue-48"/>
       <use x="200.09996" xlink:href="#HelveticaNeue-54"/>
      </g>
     </g>
    </g>
    <g id="xtick_21">
     <g id="line2d_41">
      <path clip-path="url(#p638156c529)" d="M 462.6526 440.5555 
L 462.6526 31.5955 
" style="fill:none;stroke:#cbcbcb;"/>
     </g>
     <g id="line2d_42"/>
     <g id="text_21">
      <!-- 10/20 -->
      <g style="fill:#555555;" transform="translate(430.274813 470.610079)rotate(-30)scale(0.14 -0.14)">
       <use xlink:href="#HelveticaNeue-49"/>
       <use x="55.599991" xlink:href="#HelveticaNeue-48"/>
       <use x="111.199982" xlink:href="#HelveticaNeue-47"/>
       <use x="144.499969" xlink:href="#HelveticaNeue-50"/>
       <use x="200.09996" xlink:href="#HelveticaNeue-48"/>
      </g>
     </g>
    </g>
    <g id="xtick_22">
     <g id="line2d_43">
      <path clip-path="url(#p638156c529)" d="M 480.144763 440.5555 
L 480.144763 31.5955 
" style="fill:none;stroke:#cbcbcb;"/>
     </g>
     <g id="line2d_44"/>
     <g id="text_22">
      <!-- 11/03 -->
      <g style="fill:#555555;" transform="translate(447.766976 470.610079)rotate(-30)scale(0.14 -0.14)">
       <use xlink:href="#HelveticaNeue-49"/>
       <use x="55.599991" xlink:href="#HelveticaNeue-49"/>
       <use x="111.199982" xlink:href="#HelveticaNeue-47"/>
       <use x="144.499969" xlink:href="#HelveticaNeue-48"/>
       <use x="200.09996" xlink:href="#HelveticaNeue-51"/>
      </g>
     </g>
    </g>
    <g id="xtick_23">
     <g id="line2d_45">
      <path clip-path="url(#p638156c529)" d="M 497.636926 440.5555 
L 497.636926 31.5955 
" style="fill:none;stroke:#cbcbcb;"/>
     </g>
     <g id="line2d_46"/>
     <g id="text_23">
      <!-- 11/17 -->
      <g style="fill:#555555;" transform="translate(465.259139 470.610079)rotate(-30)scale(0.14 -0.14)">
       <use xlink:href="#HelveticaNeue-49"/>
       <use x="55.599991" xlink:href="#HelveticaNeue-49"/>
       <use x="111.199982" xlink:href="#HelveticaNeue-47"/>
       <use x="144.499969" xlink:href="#HelveticaNeue-49"/>
       <use x="200.09996" xlink:href="#HelveticaNeue-55"/>
      </g>
     </g>
    </g>
    <g id="xtick_24">
     <g id="line2d_47">
      <path clip-path="url(#p638156c529)" d="M 515.129089 440.5555 
L 515.129089 31.5955 
" style="fill:none;stroke:#cbcbcb;"/>
     </g>
     <g id="line2d_48"/>
     <g id="text_24">
      <!-- 12/01 -->
      <g style="fill:#555555;" transform="translate(482.751302 470.610079)rotate(-30)scale(0.14 -0.14)">
       <use xlink:href="#HelveticaNeue-49"/>
       <use x="55.599991" xlink:href="#HelveticaNeue-50"/>
       <use x="111.199982" xlink:href="#HelveticaNeue-47"/>
       <use x="144.499969" xlink:href="#HelveticaNeue-48"/>
       <use x="200.09996" xlink:href="#HelveticaNeue-49"/>
      </g>
     </g>
    </g>
    <g id="xtick_25">
     <g id="line2d_49">
      <path clip-path="url(#p638156c529)" d="M 532.621252 440.5555 
L 532.621252 31.5955 
" style="fill:none;stroke:#cbcbcb;"/>
     </g>
     <g id="line2d_50"/>
     <g id="text_25">
      <!-- 12/15 -->
      <g style="fill:#555555;" transform="translate(500.243465 470.610079)rotate(-30)scale(0.14 -0.14)">
       <use xlink:href="#HelveticaNeue-49"/>
       <use x="55.599991" xlink:href="#HelveticaNeue-50"/>
       <use x="111.199982" xlink:href="#HelveticaNeue-47"/>
       <use x="144.499969" xlink:href="#HelveticaNeue-49"/>
       <use x="200.09996" xlink:href="#HelveticaNeue-53"/>
      </g>
     </g>
    </g>
    <g id="xtick_26">
     <g id="line2d_51">
      <path clip-path="url(#p638156c529)" d="M 550.113415 440.5555 
L 550.113415 31.5955 
" style="fill:none;stroke:#cbcbcb;"/>
     </g>
     <g id="line2d_52"/>
     <g id="text_26">
      <!-- 12/29 -->
      <g style="fill:#555555;" transform="translate(517.735628 470.610079)rotate(-30)scale(0.14 -0.14)">
       <use xlink:href="#HelveticaNeue-49"/>
       <use x="55.599991" xlink:href="#HelveticaNeue-50"/>
       <use x="111.199982" xlink:href="#HelveticaNeue-47"/>
       <use x="144.499969" xlink:href="#HelveticaNeue-50"/>
       <use x="200.09996" xlink:href="#HelveticaNeue-57"/>
      </g>
     </g>
    </g>
    <g id="xtick_27">
     <g id="line2d_53">
      <path clip-path="url(#p638156c529)" d="M 567.605578 440.5555 
L 567.605578 31.5955 
" style="fill:none;stroke:#cbcbcb;"/>
     </g>
     <g id="line2d_54"/>
     <g id="text_27">
      <!-- 01/12 -->
      <g style="fill:#555555;" transform="translate(535.227791 470.610079)rotate(-30)scale(0.14 -0.14)">
       <use xlink:href="#HelveticaNeue-48"/>
       <use x="55.599991" xlink:href="#HelveticaNeue-49"/>
       <use x="111.199982" xlink:href="#HelveticaNeue-47"/>
       <use x="144.499969" xlink:href="#HelveticaNeue-49"/>
       <use x="200.09996" xlink:href="#HelveticaNeue-50"/>
      </g>
     </g>
    </g>
    <g id="xtick_28">
     <g id="line2d_55">
      <path clip-path="url(#p638156c529)" d="M 585.097741 440.5555 
L 585.097741 31.5955 
" style="fill:none;stroke:#cbcbcb;"/>
     </g>
     <g id="line2d_56"/>
     <g id="text_28">
      <!-- 01/26 -->
      <g style="fill:#555555;" transform="translate(552.719954 470.610079)rotate(-30)scale(0.14 -0.14)">
       <use xlink:href="#HelveticaNeue-48"/>
       <use x="55.599991" xlink:href="#HelveticaNeue-49"/>
       <use x="111.199982" xlink:href="#HelveticaNeue-47"/>
       <use x="144.499969" xlink:href="#HelveticaNeue-50"/>
       <use x="200.09996" xlink:href="#HelveticaNeue-54"/>
      </g>
     </g>
    </g>
    <g id="xtick_29">
     <g id="line2d_57">
      <path clip-path="url(#p638156c529)" d="M 602.589904 440.5555 
L 602.589904 31.5955 
" style="fill:none;stroke:#cbcbcb;"/>
     </g>
     <g id="line2d_58"/>
     <g id="text_29">
      <!-- 02/09 -->
      <g style="fill:#555555;" transform="translate(570.212117 470.610079)rotate(-30)scale(0.14 -0.14)">
       <use xlink:href="#HelveticaNeue-48"/>
       <use x="55.599991" xlink:href="#HelveticaNeue-50"/>
       <use x="111.199982" xlink:href="#HelveticaNeue-47"/>
       <use x="144.499969" xlink:href="#HelveticaNeue-48"/>
       <use x="200.09996" xlink:href="#HelveticaNeue-57"/>
      </g>
     </g>
    </g>
    <g id="xtick_30">
     <g id="line2d_59">
      <path clip-path="url(#p638156c529)" d="M 620.082067 440.5555 
L 620.082067 31.5955 
" style="fill:none;stroke:#cbcbcb;"/>
     </g>
     <g id="line2d_60"/>
     <g id="text_30">
      <!-- 02/23 -->
      <g style="fill:#555555;" transform="translate(587.704281 470.610079)rotate(-30)scale(0.14 -0.14)">
       <use xlink:href="#HelveticaNeue-48"/>
       <use x="55.599991" xlink:href="#HelveticaNeue-50"/>
       <use x="111.199982" xlink:href="#HelveticaNeue-47"/>
       <use x="144.499969" xlink:href="#HelveticaNeue-50"/>
       <use x="200.09996" xlink:href="#HelveticaNeue-51"/>
      </g>
     </g>
    </g>
    <g id="xtick_31">
     <g id="line2d_61">
      <path clip-path="url(#p638156c529)" d="M 637.57423 440.5555 
L 637.57423 31.5955 
" style="fill:none;stroke:#cbcbcb;"/>
     </g>
     <g id="line2d_62"/>
     <g id="text_31">
      <!-- 03/09 -->
      <g style="fill:#555555;" transform="translate(605.196444 470.610079)rotate(-30)scale(0.14 -0.14)">
       <use xlink:href="#HelveticaNeue-48"/>
       <use x="55.599991" xlink:href="#HelveticaNeue-51"/>
       <use x="111.199982" xlink:href="#HelveticaNeue-47"/>
       <use x="144.499969" xlink:href="#HelveticaNeue-48"/>
       <use x="200.09996" xlink:href="#HelveticaNeue-57"/>
      </g>
     </g>
    </g>
    <g id="text_32">
     <!-- Dates -->
     <g style="fill:#555555;" transform="translate(359.1225 485.567706)scale(0.12 -0.12)">
      <defs>
       <path d="M 17.296875 8 
L 17.296875 63.40625 
L 33.296875 63.40625 
Q 39.90625 63.40625 44.40625 61.546875 
Q 48.90625 59.703125 51.75 56.140625 
Q 54.59375 52.59375 55.84375 47.546875 
Q 57.09375 42.5 57.09375 36.09375 
Q 57.09375 29.5 55.75 24.84375 
Q 54.40625 20.203125 52.296875 17.09375 
Q 50.203125 14 47.546875 12.203125 
Q 44.90625 10.40625 42.203125 9.453125 
Q 39.5 8.5 37.09375 8.25 
Q 34.703125 8 33.09375 8 
z
M 7.796875 71.40625 
L 7.796875 0 
L 32.296875 0 
Q 41.203125 0 47.703125 2.5 
Q 54.203125 5 58.390625 9.75 
Q 62.59375 14.5 64.59375 21.453125 
Q 66.59375 28.40625 66.59375 37.40625 
Q 66.59375 54.59375 57.6875 63 
Q 48.796875 71.40625 32.296875 71.40625 
z
" id="HelveticaNeue-68"/>
       <path d="M 52.203125 0.203125 
Q 50 -1.09375 46.09375 -1.09375 
Q 42.796875 -1.09375 40.84375 0.75 
Q 38.90625 2.59375 38.90625 6.796875 
Q 35.40625 2.59375 30.75 0.75 
Q 26.09375 -1.09375 20.703125 -1.09375 
Q 17.203125 -1.09375 14.046875 -0.296875 
Q 10.90625 0.5 8.59375 2.203125 
Q 6.296875 3.90625 4.9375 6.65625 
Q 3.59375 9.40625 3.59375 13.296875 
Q 3.59375 17.703125 5.09375 20.5 
Q 6.59375 23.296875 9.046875 25.046875 
Q 11.5 26.796875 14.640625 27.6875 
Q 17.796875 28.59375 21.09375 29.203125 
Q 24.59375 29.90625 27.75 30.25 
Q 30.90625 30.59375 33.296875 31.25 
Q 35.703125 31.90625 37.09375 33.15625 
Q 38.5 34.40625 38.5 36.796875 
Q 38.5 39.59375 37.453125 41.296875 
Q 36.40625 43 34.75 43.890625 
Q 33.09375 44.796875 31.046875 45.09375 
Q 29 45.40625 27 45.40625 
Q 21.59375 45.40625 18 43.34375 
Q 14.40625 41.296875 14.09375 35.59375 
L 5.59375 35.59375 
Q 5.796875 40.40625 7.59375 43.703125 
Q 9.40625 47 12.40625 49.046875 
Q 15.40625 51.09375 19.25 52 
Q 23.09375 52.90625 27.5 52.90625 
Q 31 52.90625 34.453125 52.40625 
Q 37.90625 51.90625 40.703125 50.34375 
Q 43.5 48.796875 45.203125 46 
Q 46.90625 43.203125 46.90625 38.703125 
L 46.90625 12.09375 
Q 46.90625 9.09375 47.25 7.6875 
Q 47.59375 6.296875 49.59375 6.296875 
Q 50.703125 6.296875 52.203125 6.796875 
z
M 38.40625 26.703125 
Q 36.796875 25.5 34.1875 24.953125 
Q 31.59375 24.40625 28.75 24.046875 
Q 25.90625 23.703125 23 23.25 
Q 20.09375 22.796875 17.796875 21.796875 
Q 15.5 20.796875 14.046875 18.9375 
Q 12.59375 17.09375 12.59375 13.90625 
Q 12.59375 11.796875 13.4375 10.34375 
Q 14.296875 8.90625 15.640625 8 
Q 17 7.09375 18.796875 6.6875 
Q 20.59375 6.296875 22.59375 6.296875 
Q 26.796875 6.296875 29.796875 7.4375 
Q 32.796875 8.59375 34.6875 10.34375 
Q 36.59375 12.09375 37.5 14.140625 
Q 38.40625 16.203125 38.40625 18 
z
" id="HelveticaNeue-97"/>
       <path d="M 18.203125 51.703125 
L 18.203125 67.203125 
L 9.703125 67.203125 
L 9.703125 51.703125 
L 0.90625 51.703125 
L 0.90625 44.203125 
L 9.703125 44.203125 
L 9.703125 11.296875 
Q 9.703125 7.703125 10.390625 5.5 
Q 11.09375 3.296875 12.546875 2.09375 
Q 14 0.90625 16.34375 0.453125 
Q 18.703125 0 22 0 
L 28.5 0 
L 28.5 7.5 
L 24.59375 7.5 
Q 22.59375 7.5 21.34375 7.640625 
Q 20.09375 7.796875 19.390625 8.296875 
Q 18.703125 8.796875 18.453125 9.6875 
Q 18.203125 10.59375 18.203125 12.09375 
L 18.203125 44.203125 
L 28.5 44.203125 
L 28.5 51.703125 
z
" id="HelveticaNeue-116"/>
       <path d="M 42.296875 30.796875 
L 12.59375 30.796875 
Q 12.796875 33.796875 13.890625 36.4375 
Q 15 39.09375 16.890625 41.09375 
Q 18.796875 43.09375 21.4375 44.25 
Q 24.09375 45.40625 27.40625 45.40625 
Q 30.59375 45.40625 33.25 44.25 
Q 35.90625 43.09375 37.84375 41.140625 
Q 39.796875 39.203125 40.9375 36.5 
Q 42.09375 33.796875 42.296875 30.796875 
z
M 50.5 16.40625 
L 42.09375 16.40625 
Q 41 11.296875 37.546875 8.796875 
Q 34.09375 6.296875 28.703125 6.296875 
Q 24.5 6.296875 21.390625 7.6875 
Q 18.296875 9.09375 16.296875 11.4375 
Q 14.296875 13.796875 13.390625 16.84375 
Q 12.5 19.90625 12.59375 23.296875 
L 51.296875 23.296875 
Q 51.5 28 50.453125 33.203125 
Q 49.40625 38.40625 46.65625 42.796875 
Q 43.90625 47.203125 39.34375 50.046875 
Q 34.796875 52.90625 27.90625 52.90625 
Q 22.59375 52.90625 18.140625 50.90625 
Q 13.703125 48.90625 10.453125 45.296875 
Q 7.203125 41.703125 5.390625 36.796875 
Q 3.59375 31.90625 3.59375 26 
Q 3.796875 20.09375 5.34375 15.09375 
Q 6.90625 10.09375 10 6.5 
Q 13.09375 2.90625 17.640625 0.90625 
Q 22.203125 -1.09375 28.40625 -1.09375 
Q 37.203125 -1.09375 43 3.296875 
Q 48.796875 7.703125 50.5 16.40625 
z
" id="HelveticaNeue-101"/>
       <path d="M 11.59375 16.296875 
L 3.09375 16.296875 
Q 3.296875 11.5 5.09375 8.140625 
Q 6.90625 4.796875 9.90625 2.75 
Q 12.90625 0.703125 16.796875 -0.1875 
Q 20.703125 -1.09375 25 -1.09375 
Q 28.90625 -1.09375 32.84375 -0.34375 
Q 36.796875 0.40625 39.9375 2.296875 
Q 43.09375 4.203125 45.046875 7.296875 
Q 47 10.40625 47 15.09375 
Q 47 18.796875 45.546875 21.296875 
Q 44.09375 23.796875 41.75 25.4375 
Q 39.40625 27.09375 36.34375 28.09375 
Q 33.296875 29.09375 30.09375 29.796875 
Q 27.09375 30.5 24.09375 31.140625 
Q 21.09375 31.796875 18.6875 32.75 
Q 16.296875 33.703125 14.75 35.140625 
Q 13.203125 36.59375 13.203125 38.796875 
Q 13.203125 40.796875 14.203125 42.046875 
Q 15.203125 43.296875 16.796875 44.046875 
Q 18.40625 44.796875 20.34375 45.09375 
Q 22.296875 45.40625 24.203125 45.40625 
Q 26.296875 45.40625 28.34375 44.953125 
Q 30.40625 44.5 32.09375 43.5 
Q 33.796875 42.5 34.890625 40.84375 
Q 36 39.203125 36.203125 36.703125 
L 44.703125 36.703125 
Q 44.40625 41.40625 42.703125 44.546875 
Q 41 47.703125 38.140625 49.546875 
Q 35.296875 51.40625 31.59375 52.15625 
Q 27.90625 52.90625 23.5 52.90625 
Q 20.09375 52.90625 16.640625 52.046875 
Q 13.203125 51.203125 10.453125 49.453125 
Q 7.703125 47.703125 5.953125 44.890625 
Q 4.203125 42.09375 4.203125 38.203125 
Q 4.203125 33.203125 6.703125 30.390625 
Q 9.203125 27.59375 12.953125 26.046875 
Q 16.703125 24.5 21.09375 23.640625 
Q 25.5 22.796875 29.25 21.75 
Q 33 20.703125 35.5 19 
Q 38 17.296875 38 14 
Q 38 11.59375 36.796875 10.046875 
Q 35.59375 8.5 33.75 7.703125 
Q 31.90625 6.90625 29.703125 6.59375 
Q 27.5 6.296875 25.5 6.296875 
Q 22.90625 6.296875 20.453125 6.796875 
Q 18 7.296875 16.046875 8.4375 
Q 14.09375 9.59375 12.890625 11.546875 
Q 11.703125 13.5 11.59375 16.296875 
z
" id="HelveticaNeue-115"/>
      </defs>
      <use xlink:href="#HelveticaNeue-68"/>
      <use x="70.399994" xlink:href="#HelveticaNeue-97"/>
      <use x="124.099991" xlink:href="#HelveticaNeue-116"/>
      <use x="155.599976" xlink:href="#HelveticaNeue-101"/>
      <use x="209.299973" xlink:href="#HelveticaNeue-115"/>
     </g>
    </g>
   </g>
   <g id="matplotlib.axis_2">
    <g id="ytick_1">
     <g id="line2d_63">
      <path clip-path="url(#p638156c529)" d="M 95.68125 421.966409 
L 653.68125 421.966409 
" style="fill:none;stroke:#cbcbcb;"/>
     </g>
     <g id="line2d_64"/>
     <g id="text_33">
      <!-- 1 -->
      <g style="fill:#555555;" transform="translate(84.398125 426.964847)scale(0.14 -0.14)">
       <use xlink:href="#HelveticaNeue-49"/>
      </g>
     </g>
    </g>
    <g id="ytick_2">
     <g id="line2d_65">
      <path clip-path="url(#p638156c529)" d="M 95.68125 372.119331 
L 653.68125 372.119331 
" style="fill:none;stroke:#cbcbcb;"/>
     </g>
     <g id="line2d_66"/>
     <g id="text_34">
      <!-- 10 -->
      <g style="fill:#555555;" transform="translate(76.615 377.117769)scale(0.14 -0.14)">
       <use xlink:href="#HelveticaNeue-49"/>
       <use x="55.599991" xlink:href="#HelveticaNeue-48"/>
      </g>
     </g>
    </g>
    <g id="ytick_3">
     <g id="line2d_67">
      <path clip-path="url(#p638156c529)" d="M 95.68125 322.272253 
L 653.68125 322.272253 
" style="fill:none;stroke:#cbcbcb;"/>
     </g>
     <g id="line2d_68"/>
     <g id="text_35">
      <!-- 100 -->
      <g style="fill:#555555;" transform="translate(68.831875 327.270691)scale(0.14 -0.14)">
       <use xlink:href="#HelveticaNeue-49"/>
       <use x="55.599991" xlink:href="#HelveticaNeue-48"/>
       <use x="111.199982" xlink:href="#HelveticaNeue-48"/>
      </g>
     </g>
    </g>
    <g id="ytick_4">
     <g id="line2d_69">
      <path clip-path="url(#p638156c529)" d="M 95.68125 272.425175 
L 653.68125 272.425175 
" style="fill:none;stroke:#cbcbcb;"/>
     </g>
     <g id="line2d_70"/>
     <g id="text_36">
      <!-- 1,000 -->
      <g style="fill:#555555;" transform="translate(57.157188 277.423613)scale(0.14 -0.14)">
       <defs>
        <path d="M 8.296875 11.09375 
L 8.296875 0 
L 14.203125 0 
Q 14.296875 -1.203125 14.046875 -2.59375 
Q 13.796875 -4 13.09375 -5.34375 
Q 12.40625 -6.703125 11.25 -7.84375 
Q 10.09375 -9 8.40625 -9.59375 
L 8.40625 -14.59375 
Q 14.203125 -12.90625 16.796875 -8.796875 
Q 19.40625 -4.703125 19.40625 1 
L 19.40625 11.09375 
z
" id="HelveticaNeue-44"/>
       </defs>
       <use xlink:href="#HelveticaNeue-49"/>
       <use x="55.599991" xlink:href="#HelveticaNeue-44"/>
       <use x="83.399979" xlink:href="#HelveticaNeue-48"/>
       <use x="138.999969" xlink:href="#HelveticaNeue-48"/>
       <use x="194.59996" xlink:href="#HelveticaNeue-48"/>
      </g>
     </g>
    </g>
    <g id="ytick_5">
     <g id="line2d_71">
      <path clip-path="url(#p638156c529)" d="M 95.68125 222.578097 
L 653.68125 222.578097 
" style="fill:none;stroke:#cbcbcb;"/>
     </g>
     <g id="line2d_72"/>
     <g id="text_37">
      <!-- 10,000 -->
      <g style="fill:#555555;" transform="translate(49.374063 227.576535)scale(0.14 -0.14)">
       <use xlink:href="#HelveticaNeue-49"/>
       <use x="55.599991" xlink:href="#HelveticaNeue-48"/>
       <use x="111.199982" xlink:href="#HelveticaNeue-44"/>
       <use x="138.999969" xlink:href="#HelveticaNeue-48"/>
       <use x="194.59996" xlink:href="#HelveticaNeue-48"/>
       <use x="250.199951" xlink:href="#HelveticaNeue-48"/>
      </g>
     </g>
    </g>
    <g id="ytick_6">
     <g id="line2d_73">
      <path clip-path="url(#p638156c529)" d="M 95.68125 172.731019 
L 653.68125 172.731019 
" style="fill:none;stroke:#cbcbcb;"/>
     </g>
     <g id="line2d_74"/>
     <g id="text_38">
      <!-- 100,000 -->
      <g style="fill:#555555;" transform="translate(41.590938 177.729457)scale(0.14 -0.14)">
       <use xlink:href="#HelveticaNeue-49"/>
       <use x="55.599991" xlink:href="#HelveticaNeue-48"/>
       <use x="111.199982" xlink:href="#HelveticaNeue-48"/>
       <use x="166.799973" xlink:href="#HelveticaNeue-44"/>
       <use x="194.59996" xlink:href="#HelveticaNeue-48"/>
       <use x="250.199951" xlink:href="#HelveticaNeue-48"/>
       <use x="305.799942" xlink:href="#HelveticaNeue-48"/>
      </g>
     </g>
    </g>
    <g id="ytick_7">
     <g id="line2d_75">
      <path clip-path="url(#p638156c529)" d="M 95.68125 122.883941 
L 653.68125 122.883941 
" style="fill:none;stroke:#cbcbcb;"/>
     </g>
     <g id="line2d_76"/>
     <g id="text_39">
      <!-- 1,000,000 -->
      <g style="fill:#555555;" transform="translate(29.91625 127.882379)scale(0.14 -0.14)">
       <use xlink:href="#HelveticaNeue-49"/>
       <use x="55.599991" xlink:href="#HelveticaNeue-44"/>
       <use x="83.399979" xlink:href="#HelveticaNeue-48"/>
       <use x="138.999969" xlink:href="#HelveticaNeue-48"/>
       <use x="194.59996" xlink:href="#HelveticaNeue-48"/>
       <use x="250.199951" xlink:href="#HelveticaNeue-44"/>
       <use x="277.999939" xlink:href="#HelveticaNeue-48"/>
       <use x="333.59993" xlink:href="#HelveticaNeue-48"/>
       <use x="389.199921" xlink:href="#HelveticaNeue-48"/>
      </g>
     </g>
    </g>
    <g id="ytick_8">
     <g id="line2d_77">
      <path clip-path="url(#p638156c529)" d="M 95.68125 73.036863 
L 653.68125 73.036863 
" style="fill:none;stroke:#cbcbcb;"/>
     </g>
     <g id="line2d_78"/>
     <g id="text_40">
      <!-- 10,000,000 -->
      <g style="fill:#555555;" transform="translate(22.133125 78.035301)scale(0.14 -0.14)">
       <use xlink:href="#HelveticaNeue-49"/>
       <use x="55.599991" xlink:href="#HelveticaNeue-48"/>
       <use x="111.199982" xlink:href="#HelveticaNeue-44"/>
       <use x="138.999969" xlink:href="#HelveticaNeue-48"/>
       <use x="194.59996" xlink:href="#HelveticaNeue-48"/>
       <use x="250.199951" xlink:href="#HelveticaNeue-48"/>
       <use x="305.799942" xlink:href="#HelveticaNeue-44"/>
       <use x="333.59993" xlink:href="#HelveticaNeue-48"/>
       <use x="389.199921" xlink:href="#HelveticaNeue-48"/>
       <use x="444.799911" xlink:href="#HelveticaNeue-48"/>
      </g>
     </g>
    </g>
    <g id="ytick_9">
     <g id="line2d_79"/>
    </g>
    <g id="ytick_10">
     <g id="line2d_80"/>
    </g>
    <g id="ytick_11">
     <g id="line2d_81"/>
    </g>
    <g id="ytick_12">
     <g id="line2d_82"/>
    </g>
    <g id="ytick_13">
     <g id="line2d_83"/>
    </g>
    <g id="ytick_14">
     <g id="line2d_84"/>
    </g>
    <g id="ytick_15">
     <g id="line2d_85"/>
    </g>
    <g id="ytick_16">
     <g id="line2d_86"/>
    </g>
    <g id="ytick_17">
     <g id="line2d_87"/>
    </g>
    <g id="ytick_18">
     <g id="line2d_88"/>
    </g>
    <g id="ytick_19">
     <g id="line2d_89"/>
    </g>
    <g id="ytick_20">
     <g id="line2d_90"/>
    </g>
    <g id="ytick_21">
     <g id="line2d_91"/>
    </g>
    <g id="ytick_22">
     <g id="line2d_92"/>
    </g>
    <g id="ytick_23">
     <g id="line2d_93"/>
    </g>
    <g id="ytick_24">
     <g id="line2d_94"/>
    </g>
    <g id="ytick_25">
     <g id="line2d_95"/>
    </g>
    <g id="ytick_26">
     <g id="line2d_96"/>
    </g>
    <g id="ytick_27">
     <g id="line2d_97"/>
    </g>
    <g id="ytick_28">
     <g id="line2d_98"/>
    </g>
    <g id="ytick_29">
     <g id="line2d_99"/>
    </g>
    <g id="ytick_30">
     <g id="line2d_100"/>
    </g>
    <g id="ytick_31">
     <g id="line2d_101"/>
    </g>
    <g id="ytick_32">
     <g id="line2d_102"/>
    </g>
    <g id="ytick_33">
     <g id="line2d_103"/>
    </g>
    <g id="ytick_34">
     <g id="line2d_104"/>
    </g>
    <g id="ytick_35">
     <g id="line2d_105"/>
    </g>
    <g id="ytick_36">
     <g id="line2d_106"/>
    </g>
    <g id="ytick_37">
     <g id="line2d_107"/>
    </g>
    <g id="ytick_38">
     <g id="line2d_108"/>
    </g>
    <g id="ytick_39">
     <g id="line2d_109"/>
    </g>
    <g id="ytick_40">
     <g id="line2d_110"/>
    </g>
    <g id="ytick_41">
     <g id="line2d_111"/>
    </g>
    <g id="ytick_42">
     <g id="line2d_112"/>
    </g>
    <g id="ytick_43">
     <g id="line2d_113"/>
    </g>
    <g id="ytick_44">
     <g id="line2d_114"/>
    </g>
    <g id="ytick_45">
     <g id="line2d_115"/>
    </g>
    <g id="ytick_46">
     <g id="line2d_116"/>
    </g>
    <g id="ytick_47">
     <g id="line2d_117"/>
    </g>
    <g id="ytick_48">
     <g id="line2d_118"/>
    </g>
    <g id="ytick_49">
     <g id="line2d_119"/>
    </g>
    <g id="ytick_50">
     <g id="line2d_120"/>
    </g>
    <g id="ytick_51">
     <g id="line2d_121"/>
    </g>
    <g id="ytick_52">
     <g id="line2d_122"/>
    </g>
    <g id="ytick_53">
     <g id="line2d_123"/>
    </g>
    <g id="ytick_54">
     <g id="line2d_124"/>
    </g>
    <g id="ytick_55">
     <g id="line2d_125"/>
    </g>
    <g id="ytick_56">
     <g id="line2d_126"/>
    </g>
    <g id="ytick_57">
     <g id="line2d_127"/>
    </g>
    <g id="ytick_58">
     <g id="line2d_128"/>
    </g>
    <g id="ytick_59">
     <g id="line2d_129"/>
    </g>
    <g id="ytick_60">
     <g id="line2d_130"/>
    </g>
    <g id="ytick_61">
     <g id="line2d_131"/>
    </g>
    <g id="ytick_62">
     <g id="line2d_132"/>
    </g>
    <g id="ytick_63">
     <g id="line2d_133"/>
    </g>
    <g id="ytick_64">
     <g id="line2d_134"/>
    </g>
    <g id="ytick_65">
     <g id="line2d_135"/>
    </g>
    <g id="ytick_66">
     <g id="line2d_136"/>
    </g>
    <g id="ytick_67">
     <g id="line2d_137"/>
    </g>
    <g id="ytick_68">
     <g id="line2d_138"/>
    </g>
    <g id="ytick_69">
     <g id="line2d_139"/>
    </g>
    <g id="ytick_70">
     <g id="line2d_140"/>
    </g>
    <g id="ytick_71">
     <g id="line2d_141"/>
    </g>
    <g id="ytick_72">
     <g id="line2d_142"/>
    </g>
    <g id="ytick_73">
     <g id="line2d_143"/>
    </g>
    <g id="ytick_74">
     <g id="line2d_144"/>
    </g>
    <g id="text_41">
     <!-- Confirmed Cases -->
     <g style="fill:#555555;" transform="translate(15.76875 282.6355)rotate(-90)scale(0.12 -0.12)">
      <defs>
       <path d="M 58 49.90625 
L 67.5 49.90625 
Q 66.703125 55.59375 64.09375 59.9375 
Q 61.5 64.296875 57.59375 67.1875 
Q 53.703125 70.09375 48.703125 71.59375 
Q 43.703125 73.09375 38.09375 73.09375 
Q 29.90625 73.09375 23.546875 70.140625 
Q 17.203125 67.203125 12.953125 62.09375 
Q 8.703125 57 6.5 50.140625 
Q 4.296875 43.296875 4.296875 35.5 
Q 4.296875 27.703125 6.34375 20.890625 
Q 8.40625 14.09375 12.5 9.09375 
Q 16.59375 4.09375 22.796875 1.25 
Q 29 -1.59375 37.296875 -1.59375 
Q 51 -1.59375 58.890625 5.90625 
Q 66.796875 13.40625 68.203125 26.90625 
L 58.703125 26.90625 
Q 58.40625 22.5 56.90625 18.703125 
Q 55.40625 14.90625 52.75 12.15625 
Q 50.09375 9.40625 46.4375 7.84375 
Q 42.796875 6.296875 38.09375 6.296875 
Q 31.703125 6.296875 27.09375 8.6875 
Q 22.5 11.09375 19.546875 15.140625 
Q 16.59375 19.203125 15.1875 24.640625 
Q 13.796875 30.09375 13.796875 36.203125 
Q 13.796875 41.796875 15.1875 47 
Q 16.59375 52.203125 19.546875 56.25 
Q 22.5 60.296875 27.046875 62.6875 
Q 31.59375 65.09375 38 65.09375 
Q 45.5 65.09375 50.953125 61.296875 
Q 56.40625 57.5 58 49.90625 
z
" id="HelveticaNeue-67"/>
       <path d="M 12.59375 25.796875 
Q 12.59375 30.5 13.84375 34.140625 
Q 15.09375 37.796875 17.296875 40.296875 
Q 19.5 42.796875 22.453125 44.09375 
Q 25.40625 45.40625 28.703125 45.40625 
Q 32 45.40625 34.953125 44.09375 
Q 37.90625 42.796875 40.09375 40.296875 
Q 42.296875 37.796875 43.546875 34.140625 
Q 44.796875 30.5 44.796875 25.796875 
Q 44.796875 21.09375 43.546875 17.4375 
Q 42.296875 13.796875 40.09375 11.34375 
Q 37.90625 8.90625 34.953125 7.59375 
Q 32 6.296875 28.703125 6.296875 
Q 25.40625 6.296875 22.453125 7.59375 
Q 19.5 8.90625 17.296875 11.34375 
Q 15.09375 13.796875 13.84375 17.4375 
Q 12.59375 21.09375 12.59375 25.796875 
z
M 3.59375 25.796875 
Q 3.59375 20.09375 5.1875 15.1875 
Q 6.796875 10.296875 10 6.640625 
Q 13.203125 3 17.890625 0.953125 
Q 22.59375 -1.09375 28.703125 -1.09375 
Q 34.90625 -1.09375 39.546875 0.953125 
Q 44.203125 3 47.390625 6.640625 
Q 50.59375 10.296875 52.1875 15.1875 
Q 53.796875 20.09375 53.796875 25.796875 
Q 53.796875 31.5 52.1875 36.453125 
Q 50.59375 41.40625 47.390625 45.046875 
Q 44.203125 48.703125 39.546875 50.796875 
Q 34.90625 52.90625 28.703125 52.90625 
Q 22.59375 52.90625 17.890625 50.796875 
Q 13.203125 48.703125 10 45.046875 
Q 6.796875 41.40625 5.1875 36.453125 
Q 3.59375 31.5 3.59375 25.796875 
z
" id="HelveticaNeue-111"/>
       <path d="M 6.40625 51.703125 
L 6.40625 0 
L 14.90625 0 
L 14.90625 29.203125 
Q 14.90625 32.703125 15.84375 35.640625 
Q 16.796875 38.59375 18.6875 40.796875 
Q 20.59375 43 23.4375 44.203125 
Q 26.296875 45.40625 30.203125 45.40625 
Q 35.09375 45.40625 37.890625 42.59375 
Q 40.703125 39.796875 40.703125 35 
L 40.703125 0 
L 49.203125 0 
L 49.203125 34 
Q 49.203125 38.203125 48.34375 41.640625 
Q 47.5 45.09375 45.390625 47.59375 
Q 43.296875 50.09375 39.890625 51.5 
Q 36.5 52.90625 31.40625 52.90625 
Q 19.90625 52.90625 14.59375 43.5 
L 14.40625 43.5 
L 14.40625 51.703125 
z
" id="HelveticaNeue-110"/>
       <path d="M 9.90625 44.203125 
L 9.90625 0 
L 18.40625 0 
L 18.40625 44.203125 
L 28.40625 44.203125 
L 28.40625 51.703125 
L 18.40625 51.703125 
L 18.40625 58.90625 
Q 18.40625 62.296875 20.09375 63.5 
Q 21.796875 64.703125 24.90625 64.703125 
Q 26 64.703125 27.296875 64.546875 
Q 28.59375 64.40625 29.703125 64 
L 29.703125 71.40625 
Q 28.5 71.796875 26.953125 72 
Q 25.40625 72.203125 24.203125 72.203125 
Q 17.203125 72.203125 13.546875 68.953125 
Q 9.90625 65.703125 9.90625 59.40625 
L 9.90625 51.703125 
L 1.203125 51.703125 
L 1.203125 44.203125 
z
" id="HelveticaNeue-102"/>
       <path d="M 15.40625 61 
L 15.40625 71.40625 
L 6.90625 71.40625 
L 6.90625 61 
z
M 6.90625 51.703125 
L 6.90625 0 
L 15.40625 0 
L 15.40625 51.703125 
z
" id="HelveticaNeue-105"/>
       <path d="M 6.09375 51.703125 
L 6.09375 0 
L 14.59375 0 
L 14.59375 23 
Q 14.59375 28 15.59375 31.84375 
Q 16.59375 35.703125 18.796875 38.390625 
Q 21 41.09375 24.59375 42.5 
Q 28.203125 43.90625 33.296875 43.90625 
L 33.296875 52.90625 
Q 26.40625 53.09375 21.90625 50.09375 
Q 17.40625 47.09375 14.296875 40.796875 
L 14.09375 40.796875 
L 14.09375 51.703125 
z
" id="HelveticaNeue-114"/>
       <path d="M 6.40625 51.703125 
L 6.40625 0 
L 14.90625 0 
L 14.90625 32.203125 
Q 14.90625 33.703125 15.65625 35.953125 
Q 16.40625 38.203125 18.046875 40.296875 
Q 19.703125 42.40625 22.34375 43.90625 
Q 25 45.40625 28.703125 45.40625 
Q 31.59375 45.40625 33.4375 44.546875 
Q 35.296875 43.703125 36.390625 42.140625 
Q 37.5 40.59375 37.953125 38.5 
Q 38.40625 36.40625 38.40625 33.90625 
L 38.40625 0 
L 46.90625 0 
L 46.90625 32.203125 
Q 46.90625 38.203125 50.5 41.796875 
Q 54.09375 45.40625 60.40625 45.40625 
Q 63.5 45.40625 65.453125 44.5 
Q 67.40625 43.59375 68.5 42.046875 
Q 69.59375 40.5 70 38.390625 
Q 70.40625 36.296875 70.40625 33.90625 
L 70.40625 0 
L 78.90625 0 
L 78.90625 37.90625 
Q 78.90625 41.90625 77.65625 44.75 
Q 76.40625 47.59375 74.15625 49.390625 
Q 71.90625 51.203125 68.75 52.046875 
Q 65.59375 52.90625 61.703125 52.90625 
Q 56.59375 52.90625 52.34375 50.59375 
Q 48.09375 48.296875 45.5 44.09375 
Q 43.90625 48.90625 40 50.90625 
Q 36.09375 52.90625 31.296875 52.90625 
Q 20.40625 52.90625 14.59375 44.09375 
L 14.40625 44.09375 
L 14.40625 51.703125 
z
" id="HelveticaNeue-109"/>
       <path d="M 12.59375 25.40625 
Q 12.59375 29.203125 13.390625 32.796875 
Q 14.203125 36.40625 16 39.203125 
Q 17.796875 42 20.796875 43.703125 
Q 23.796875 45.40625 28.09375 45.40625 
Q 32.5 45.40625 35.59375 43.75 
Q 38.703125 42.09375 40.640625 39.390625 
Q 42.59375 36.703125 43.5 33.140625 
Q 44.40625 29.59375 44.40625 25.796875 
Q 44.40625 22.203125 43.546875 18.703125 
Q 42.703125 15.203125 40.796875 12.453125 
Q 38.90625 9.703125 35.90625 8 
Q 32.90625 6.296875 28.59375 6.296875 
Q 24.5 6.296875 21.453125 7.890625 
Q 18.40625 9.5 16.453125 12.203125 
Q 14.5 14.90625 13.546875 18.34375 
Q 12.59375 21.796875 12.59375 25.40625 
z
M 52.59375 0 
L 52.59375 71.40625 
L 44.09375 71.40625 
L 44.09375 44.796875 
L 43.90625 44.796875 
Q 42.5 47.09375 40.453125 48.640625 
Q 38.40625 50.203125 36.09375 51.140625 
Q 33.796875 52.09375 31.5 52.5 
Q 29.203125 52.90625 27.203125 52.90625 
Q 21.296875 52.90625 16.84375 50.75 
Q 12.40625 48.59375 9.453125 44.9375 
Q 6.5 41.296875 5.046875 36.390625 
Q 3.59375 31.5 3.59375 26 
Q 3.59375 20.5 5.09375 15.59375 
Q 6.59375 10.703125 9.546875 7 
Q 12.5 3.296875 16.953125 1.09375 
Q 21.40625 -1.09375 27.40625 -1.09375 
Q 32.796875 -1.09375 37.296875 0.796875 
Q 41.796875 2.703125 43.90625 7 
L 44.09375 7 
L 44.09375 0 
z
" id="HelveticaNeue-100"/>
       <path id="HelveticaNeue-32"/>
      </defs>
      <use xlink:href="#HelveticaNeue-67"/>
      <use x="72.199982" xlink:href="#HelveticaNeue-111"/>
      <use x="129.599976" xlink:href="#HelveticaNeue-110"/>
      <use x="185.199966" xlink:href="#HelveticaNeue-102"/>
      <use x="214.799957" xlink:href="#HelveticaNeue-105"/>
      <use x="236.999954" xlink:href="#HelveticaNeue-114"/>
      <use x="270.299942" xlink:href="#HelveticaNeue-109"/>
      <use x="355.59993" xlink:href="#HelveticaNeue-101"/>
      <use x="409.299927" xlink:href="#HelveticaNeue-100"/>
      <use x="468.599915" xlink:href="#HelveticaNeue-32"/>
      <use x="496.399902" xlink:href="#HelveticaNeue-67"/>
      <use x="568.599884" xlink:href="#HelveticaNeue-97"/>
      <use x="622.299881" xlink:href="#HelveticaNeue-115"/>
      <use x="672.299866" xlink:href="#HelveticaNeue-101"/>
      <use x="725.999863" xlink:href="#HelveticaNeue-115"/>
     </g>
    </g>
   </g>
   <g id="line2d_145">
    <path clip-path="url(#p638156c529)" d="M 121.044886 421.966409 
L 123.543767 421.966409 
L 124.793207 406.960943 
L 126.042647 398.183309 
L 127.292087 387.124797 
L 131.040408 387.124797 
L 132.289848 383.177843 
L 133.539289 379.840741 
L 134.788729 376.950012 
L 136.038169 370.056027 
L 138.537049 370.056027 
L 139.78649 368.172377 
L 144.78425 368.172377 
L 146.033691 366.439588 
L 147.283131 366.439588 
L 149.782011 363.341696 
L 153.530332 363.341696 
L 154.779772 352.283184 
L 157.278653 352.283184 
L 158.528093 350.617108 
L 159.777533 348.336231 
L 162.276413 348.336231 
L 163.525854 340.54278 
L 164.775294 339.558596 
L 166.024734 333.330765 
L 167.274174 333.330765 
L 169.773055 329.993663 
L 171.022495 325.03963 
L 172.271935 321.423191 
L 173.521375 317.441572 
L 174.770816 311.962588 
L 176.020256 304.430247 
L 178.519136 290.796626 
L 179.768576 285.485741 
L 182.267457 272.038971 
L 183.516897 267.370514 
L 187.265218 249.390921 
L 189.764098 239.830791 
L 191.013538 233.978451 
L 192.262979 226.481797 
L 194.761859 209.839081 
L 197.260739 196.683857 
L 198.51018 190.748785 
L 199.75962 186.095278 
L 202.2585 176.104593 
L 204.757381 168.080158 
L 209.755142 156.120599 
L 212.254022 150.641428 
L 213.503462 148.06246 
L 214.752902 146.357038 
L 217.251783 142.75291 
L 221.000104 137.916007 
L 222.249544 136.582855 
L 224.748424 134.526911 
L 227.247305 132.520219 
L 229.746185 130.486181 
L 232.245065 128.893621 
L 238.492267 124.929105 
L 239.741707 124.12553 
L 242.240587 123.010019 
L 245.988908 121.303102 
L 248.487788 120.062598 
L 250.986669 119.167283 
L 258.48331 116.599444 
L 260.98219 115.962437 
L 263.481071 115.218907 
L 265.979951 114.473792 
L 270.977712 113.262241 
L 274.726033 112.287893 
L 293.467636 108.388474 
L 298.465397 107.486956 
L 302.213718 106.75579 
L 305.962038 106.041552 
L 313.458679 104.295927 
L 317.207 103.190022 
L 324.703641 100.914894 
L 327.202522 100.089946 
L 330.950842 99.013112 
L 344.694685 94.427458 
L 355.939647 91.288594 
L 363.436288 89.477424 
L 368.434049 88.516999 
L 372.18237 87.79934 
L 377.18013 86.923078 
L 380.928451 86.305554 
L 387.175652 85.448346 
L 395.921734 84.346029 
L 400.919495 83.774825 
L 403.418375 83.496353 
L 405.917255 83.167703 
L 415.912777 82.23569 
L 424.658859 81.303351 
L 428.407179 80.882827 
L 459.643185 77.295105 
L 472.137587 75.476454 
L 483.382549 73.403968 
L 490.87919 71.69814 
L 493.37807 71.016017 
L 497.126391 70.121028 
L 507.121913 67.60566 
L 508.371353 67.433029 
L 510.870233 66.844465 
L 513.369114 66.3553 
L 517.117435 65.416829 
L 519.616315 64.761429 
L 523.364636 63.898112 
L 535.859038 60.911889 
L 543.355679 59.478538 
L 544.605119 59.362002 
L 548.35344 58.729052 
L 557.099521 57.058358 
L 560.847842 56.274782 
L 563.346722 55.730022 
L 575.841125 53.804741 
L 583.337766 52.913358 
L 594.582728 51.859839 
L 602.079369 51.34746 
L 612.074891 50.845725 
L 628.317614 50.184591 
L 628.317614 50.184591 
" style="fill:none;stroke:#008fd5;stroke-width:4;"/>
   </g>
   <g id="line2d_146">
    <path clip-path="url(#p638156c529)" d="M 171.020261 496.132081 
L 171.022495 406.960943 
L 172.271935 406.960943 
L 173.521375 398.183309 
L 174.770816 398.183309 
L 176.020256 391.955478 
L 178.519136 368.172377 
L 181.018017 364.835276 
L 182.267457 354.088255 
L 183.516897 351.434122 
L 184.766337 339.08279 
L 186.015778 329.993663 
L 187.265218 329.993663 
L 188.514658 320.406652 
L 189.764098 314.834116 
L 191.013538 306.210563 
L 192.262979 296.689855 
L 197.260739 272.425175 
L 199.75962 264.12912 
L 201.00906 257.735908 
L 202.2585 252.780377 
L 204.757381 242.209556 
L 206.006821 237.831771 
L 207.256261 234.76602 
L 208.505701 231.112478 
L 212.254022 222.022434 
L 213.503462 219.482948 
L 214.752902 218.022795 
L 216.002343 215.888171 
L 217.251783 214.180459 
L 219.750663 211.322618 
L 221.000104 209.90167 
L 222.249544 208.708126 
L 223.498984 207.730153 
L 224.748424 206.50507 
L 225.997864 205.886519 
L 228.496745 204.236767 
L 229.746185 202.963897 
L 234.743946 200.396312 
L 235.993386 200.057098 
L 237.242826 199.056348 
L 238.492267 198.419428 
L 239.741707 198.203494 
L 243.490027 196.838228 
L 245.988908 196.288212 
L 247.238348 195.631778 
L 250.986669 194.319944 
L 253.485549 193.680997 
L 254.734989 193.2154 
L 255.98443 193.009491 
L 257.23387 192.570955 
L 258.48331 192.251252 
L 259.73275 192.046345 
L 260.98219 191.554798 
L 262.231631 191.308806 
L 268.478832 189.338266 
L 270.977712 188.863767 
L 272.227152 188.321462 
L 277.224913 186.996772 
L 280.973234 186.362213 
L 282.222674 185.875253 
L 284.721555 185.223274 
L 287.220435 184.733853 
L 292.218196 182.819383 
L 294.717076 182.091407 
L 297.215957 181.28371 
L 299.714837 180.15664 
L 300.964277 179.383249 
L 304.712598 177.534386 
L 305.962038 176.840249 
L 308.460919 175.074526 
L 309.710359 174.119165 
L 310.959799 173.327342 
L 313.458679 171.987332 
L 314.70812 170.864226 
L 315.95756 169.89258 
L 318.45644 166.63287 
L 319.705881 165.282598 
L 322.204761 163.60606 
L 323.454201 162.693459 
L 327.202522 158.830954 
L 328.451962 157.714407 
L 330.950842 156.282517 
L 334.699163 153.408085 
L 335.948603 152.508413 
L 337.198044 151.244597 
L 338.447484 150.254662 
L 340.946364 148.818274 
L 342.195804 147.839046 
L 345.944125 145.608405 
L 348.443005 144.418006 
L 350.941886 143.275948 
L 353.440766 141.949069 
L 359.687967 139.630052 
L 363.436288 138.454198 
L 367.184609 137.771485 
L 372.18237 136.513997 
L 374.68125 136.112008 
L 377.18013 135.547304 
L 380.928451 134.923818 
L 384.676772 134.526133 
L 389.674533 133.922149 
L 394.672293 133.514361 
L 398.420614 133.17758 
L 399.670054 133.112029 
L 400.919495 132.850795 
L 413.413897 131.932581 
L 423.409418 131.193919 
L 442.151022 130.102471 
L 445.899342 129.9145 
L 452.146543 129.519222 
L 463.391505 128.753231 
L 467.139826 128.367235 
L 470.888147 128.088478 
L 484.631989 126.734067 
L 487.130869 126.457973 
L 490.87919 126.058294 
L 508.371353 123.730087 
L 509.620793 123.343132 
L 514.618554 122.708051 
L 522.115195 121.504855 
L 525.863516 120.925412 
L 529.611837 120.316383 
L 533.360157 119.758284 
L 537.108478 119.06079 
L 540.856799 118.525864 
L 543.355679 118.095941 
L 544.605119 118.095941 
L 545.854559 117.802216 
L 549.60288 117.333742 
L 552.101761 116.819515 
L 553.351201 116.819515 
L 554.600641 116.309949 
L 558.348962 115.722157 
L 564.596163 114.440789 
L 569.593924 113.660867 
L 572.092804 113.254774 
L 584.587206 111.811297 
L 588.335527 111.415055 
L 590.834407 111.126313 
L 595.832168 110.740499 
L 599.580489 110.425878 
L 614.573771 109.491227 
L 623.319853 109.009236 
L 628.317614 108.783726 
L 628.317614 108.783726 
" style="fill:none;stroke:#fc4f30;stroke-width:4;"/>
   </g>
   <g id="patch_3">
    <path d="M 95.68125 440.5555 
L 95.68125 31.5955 
" style="fill:none;stroke:#f0f0f0;stroke-linecap:square;stroke-linejoin:miter;stroke-width:3;"/>
   </g>
   <g id="patch_4">
    <path d="M 95.68125 440.5555 
L 653.68125 440.5555 
" style="fill:none;stroke:#f0f0f0;stroke-linecap:square;stroke-linejoin:miter;stroke-width:3;"/>
   </g>
   <g id="text_42">
    <!-- Cases of COVID-19 in the United States -->
    <g style="fill:#555555;" transform="translate(194.512275 21.5955)scale(0.2016 -0.2016)">
     <defs>
      <path d="M 13.296875 35.703125 
Q 13.296875 41.09375 14.6875 46.34375 
Q 16.09375 51.59375 19.09375 55.796875 
Q 22.09375 60 26.796875 62.546875 
Q 31.5 65.09375 38 65.09375 
Q 44.5 65.09375 49.203125 62.546875 
Q 53.90625 60 56.90625 55.796875 
Q 59.90625 51.59375 61.296875 46.34375 
Q 62.703125 41.09375 62.703125 35.703125 
Q 62.703125 30.296875 61.296875 25.046875 
Q 59.90625 19.796875 56.90625 15.59375 
Q 53.90625 11.40625 49.203125 8.84375 
Q 44.5 6.296875 38 6.296875 
Q 31.5 6.296875 26.796875 8.84375 
Q 22.09375 11.40625 19.09375 15.59375 
Q 16.09375 19.796875 14.6875 25.046875 
Q 13.296875 30.296875 13.296875 35.703125 
z
M 3.796875 35.703125 
Q 3.796875 28.40625 5.9375 21.65625 
Q 8.09375 14.90625 12.390625 9.703125 
Q 16.703125 4.5 23.09375 1.453125 
Q 29.5 -1.59375 38 -1.59375 
Q 46.5 -1.59375 52.890625 1.453125 
Q 59.296875 4.5 63.59375 9.703125 
Q 67.90625 14.90625 70.046875 21.65625 
Q 72.203125 28.40625 72.203125 35.703125 
Q 72.203125 43 70.046875 49.75 
Q 67.90625 56.5 63.59375 61.703125 
Q 59.296875 66.90625 52.890625 70 
Q 46.5 73.09375 38 73.09375 
Q 29.5 73.09375 23.09375 70 
Q 16.703125 66.90625 12.390625 61.703125 
Q 8.09375 56.5 5.9375 49.75 
Q 3.796875 43 3.796875 35.703125 
z
" id="HelveticaNeue-79"/>
      <path d="M 35.90625 0 
L 61.296875 71.40625 
L 51.40625 71.40625 
L 30.796875 9.5 
L 30.59375 9.5 
L 10.203125 71.40625 
L 0 71.40625 
L 25.09375 0 
z
" id="HelveticaNeue-86"/>
      <path d="M 8.203125 71.40625 
L 8.203125 0 
L 17.703125 0 
L 17.703125 71.40625 
z
" id="HelveticaNeue-73"/>
      <path d="M 5 31.796875 
L 5 23.796875 
L 33.90625 23.796875 
L 33.90625 31.796875 
z
" id="HelveticaNeue-45"/>
      <path d="M 6.40625 71.40625 
L 6.40625 0 
L 14.90625 0 
L 14.90625 29.203125 
Q 14.90625 32.703125 15.84375 35.640625 
Q 16.796875 38.59375 18.6875 40.796875 
Q 20.59375 43 23.4375 44.203125 
Q 26.296875 45.40625 30.203125 45.40625 
Q 35.09375 45.40625 37.890625 42.59375 
Q 40.703125 39.796875 40.703125 35 
L 40.703125 0 
L 49.203125 0 
L 49.203125 34 
Q 49.203125 38.203125 48.34375 41.640625 
Q 47.5 45.09375 45.390625 47.59375 
Q 43.296875 50.09375 39.890625 51.5 
Q 36.5 52.90625 31.40625 52.90625 
Q 29.09375 52.90625 26.640625 52.40625 
Q 24.203125 51.90625 21.953125 50.84375 
Q 19.703125 49.796875 17.890625 48.140625 
Q 16.09375 46.5 15.09375 44.09375 
L 14.90625 44.09375 
L 14.90625 71.40625 
z
" id="HelveticaNeue-104"/>
      <path d="M 64.796875 25.796875 
L 64.796875 71.40625 
L 55.296875 71.40625 
L 55.296875 25.796875 
Q 55.296875 16.203125 50.546875 11.25 
Q 45.796875 6.296875 36.703125 6.296875 
Q 27.09375 6.296875 22 11.25 
Q 16.90625 16.203125 16.90625 25.796875 
L 16.90625 71.40625 
L 7.40625 71.40625 
L 7.40625 25.796875 
Q 7.40625 11.5 15.15625 4.953125 
Q 22.90625 -1.59375 36.703125 -1.59375 
Q 50.203125 -1.59375 57.5 5.25 
Q 64.796875 12.09375 64.796875 25.796875 
z
" id="HelveticaNeue-85"/>
      <path d="M 49.09375 50.5 
L 58.09375 50.5 
Q 57.90625 56.40625 55.84375 60.65625 
Q 53.796875 64.90625 50.25 67.703125 
Q 46.703125 70.5 42 71.796875 
Q 37.296875 73.09375 31.796875 73.09375 
Q 26.90625 73.09375 22.25 71.84375 
Q 17.59375 70.59375 13.9375 68.046875 
Q 10.296875 65.5 8.09375 61.546875 
Q 5.90625 57.59375 5.90625 52.203125 
Q 5.90625 47.296875 7.84375 44.046875 
Q 9.796875 40.796875 13.046875 38.75 
Q 16.296875 36.703125 20.390625 35.453125 
Q 24.5 34.203125 28.75 33.25 
Q 33 32.296875 37.09375 31.390625 
Q 41.203125 30.5 44.453125 29.046875 
Q 47.703125 27.59375 49.640625 25.296875 
Q 51.59375 23 51.59375 19.296875 
Q 51.59375 15.40625 50 12.90625 
Q 48.40625 10.40625 45.796875 8.953125 
Q 43.203125 7.5 39.953125 6.890625 
Q 36.703125 6.296875 33.5 6.296875 
Q 29.5 6.296875 25.703125 7.296875 
Q 21.90625 8.296875 19.046875 10.390625 
Q 16.203125 12.5 14.453125 15.75 
Q 12.703125 19 12.703125 23.5 
L 3.703125 23.5 
Q 3.703125 17 6.046875 12.25 
Q 8.40625 7.5 12.453125 4.453125 
Q 16.5 1.40625 21.84375 -0.09375 
Q 27.203125 -1.59375 33.203125 -1.59375 
Q 38.09375 -1.59375 43.046875 -0.4375 
Q 48 0.703125 52 3.25 
Q 56 5.796875 58.546875 9.84375 
Q 61.09375 13.90625 61.09375 19.59375 
Q 61.09375 24.90625 59.140625 28.40625 
Q 57.203125 31.90625 53.953125 34.203125 
Q 50.703125 36.5 46.59375 37.84375 
Q 42.5 39.203125 38.25 40.203125 
Q 34 41.203125 29.890625 42.046875 
Q 25.796875 42.90625 22.546875 44.203125 
Q 19.296875 45.5 17.34375 47.546875 
Q 15.40625 49.59375 15.40625 52.90625 
Q 15.40625 56.40625 16.75 58.75 
Q 18.09375 61.09375 20.34375 62.5 
Q 22.59375 63.90625 25.5 64.5 
Q 28.40625 65.09375 31.40625 65.09375 
Q 38.796875 65.09375 43.546875 61.640625 
Q 48.296875 58.203125 49.09375 50.5 
z
" id="HelveticaNeue-83"/>
     </defs>
     <use xlink:href="#HelveticaNeue-67"/>
     <use x="72.199982" xlink:href="#HelveticaNeue-97"/>
     <use x="125.899979" xlink:href="#HelveticaNeue-115"/>
     <use x="175.899963" xlink:href="#HelveticaNeue-101"/>
     <use x="229.59996" xlink:href="#HelveticaNeue-115"/>
     <use x="279.599945" xlink:href="#HelveticaNeue-32"/>
     <use x="307.399933" xlink:href="#HelveticaNeue-111"/>
     <use x="364.799927" xlink:href="#HelveticaNeue-102"/>
     <use x="394.399918" xlink:href="#HelveticaNeue-32"/>
     <use x="422.199905" xlink:href="#HelveticaNeue-67"/>
     <use x="494.399887" xlink:href="#HelveticaNeue-79"/>
     <use x="570.399872" xlink:href="#HelveticaNeue-86"/>
     <use x="631.499863" xlink:href="#HelveticaNeue-73"/>
     <use x="657.399857" xlink:href="#HelveticaNeue-68"/>
     <use x="727.79985" xlink:href="#HelveticaNeue-45"/>
     <use x="766.699844" xlink:href="#HelveticaNeue-49"/>
     <use x="822.299835" xlink:href="#HelveticaNeue-57"/>
     <use x="877.899826" xlink:href="#HelveticaNeue-32"/>
     <use x="905.699814" xlink:href="#HelveticaNeue-105"/>
     <use x="927.899811" xlink:href="#HelveticaNeue-110"/>
     <use x="983.499802" xlink:href="#HelveticaNeue-32"/>
     <use x="1011.299789" xlink:href="#HelveticaNeue-116"/>
     <use x="1042.799774" xlink:href="#HelveticaNeue-104"/>
     <use x="1098.399765" xlink:href="#HelveticaNeue-101"/>
     <use x="1152.099762" xlink:href="#HelveticaNeue-32"/>
     <use x="1179.89975" xlink:href="#HelveticaNeue-85"/>
     <use x="1252.099731" xlink:href="#HelveticaNeue-110"/>
     <use x="1307.699722" xlink:href="#HelveticaNeue-105"/>
     <use x="1329.899719" xlink:href="#HelveticaNeue-116"/>
     <use x="1361.399704" xlink:href="#HelveticaNeue-101"/>
     <use x="1415.099701" xlink:href="#HelveticaNeue-100"/>
     <use x="1474.399689" xlink:href="#HelveticaNeue-32"/>
     <use x="1502.199677" xlink:href="#HelveticaNeue-83"/>
     <use x="1566.999664" xlink:href="#HelveticaNeue-116"/>
     <use x="1598.499649" xlink:href="#HelveticaNeue-97"/>
     <use x="1652.199646" xlink:href="#HelveticaNeue-116"/>
     <use x="1683.699631" xlink:href="#HelveticaNeue-101"/>
     <use x="1737.399628" xlink:href="#HelveticaNeue-115"/>
    </g>
   </g>
   <g id="legend_1">
    <g id="line2d_147">
     <path d="M 108.28125 49.292375 
L 136.28125 49.292375 
" style="fill:none;stroke:#008fd5;stroke-width:4;"/>
    </g>
    <g id="line2d_148"/>
    <g id="text_43">
     <!-- Total US Cases -->
     <g style="fill:#555555;" transform="translate(147.48125 54.192375)scale(0.14 -0.14)">
      <defs>
       <path d="M 24 63.40625 
L 24 0 
L 33.5 0 
L 33.5 63.40625 
L 57.296875 63.40625 
L 57.296875 71.40625 
L 0.203125 71.40625 
L 0.203125 63.40625 
z
" id="HelveticaNeue-84"/>
       <path d="M 6.90625 71.40625 
L 6.90625 0 
L 15.40625 0 
L 15.40625 71.40625 
z
" id="HelveticaNeue-108"/>
      </defs>
      <use xlink:href="#HelveticaNeue-84"/>
      <use x="46.274994" xlink:href="#HelveticaNeue-111"/>
      <use x="103.674988" xlink:href="#HelveticaNeue-116"/>
      <use x="135.174973" xlink:href="#HelveticaNeue-97"/>
      <use x="188.874969" xlink:href="#HelveticaNeue-108"/>
      <use x="211.074966" xlink:href="#HelveticaNeue-32"/>
      <use x="238.874954" xlink:href="#HelveticaNeue-85"/>
      <use x="311.074936" xlink:href="#HelveticaNeue-83"/>
      <use x="375.874924" xlink:href="#HelveticaNeue-32"/>
      <use x="403.674911" xlink:href="#HelveticaNeue-67"/>
      <use x="475.874893" xlink:href="#HelveticaNeue-97"/>
      <use x="529.57489" xlink:href="#HelveticaNeue-115"/>
      <use x="579.574875" xlink:href="#HelveticaNeue-101"/>
      <use x="633.274872" xlink:href="#HelveticaNeue-115"/>
     </g>
    </g>
    <g id="line2d_149">
     <path d="M 108.28125 69.047687 
L 136.28125 69.047687 
" style="fill:none;stroke:#fc4f30;stroke-width:4;"/>
    </g>
    <g id="line2d_150"/>
    <g id="text_44">
     <!-- Total Cases in Florida -->
     <g style="fill:#555555;" transform="translate(147.48125 73.947687)scale(0.14 -0.14)">
      <defs>
       <path d="M 7.796875 71.40625 
L 7.796875 0 
L 17.296875 0 
L 17.296875 32.703125 
L 50.09375 32.703125 
L 50.09375 40.703125 
L 17.296875 40.703125 
L 17.296875 63.40625 
L 54.703125 63.40625 
L 54.703125 71.40625 
z
" id="HelveticaNeue-70"/>
      </defs>
      <use xlink:href="#HelveticaNeue-84"/>
      <use x="46.274994" xlink:href="#HelveticaNeue-111"/>
      <use x="103.674988" xlink:href="#HelveticaNeue-116"/>
      <use x="135.174973" xlink:href="#HelveticaNeue-97"/>
      <use x="188.874969" xlink:href="#HelveticaNeue-108"/>
      <use x="211.074966" xlink:href="#HelveticaNeue-32"/>
      <use x="238.874954" xlink:href="#HelveticaNeue-67"/>
      <use x="311.074936" xlink:href="#HelveticaNeue-97"/>
      <use x="364.774933" xlink:href="#HelveticaNeue-115"/>
      <use x="414.774918" xlink:href="#HelveticaNeue-101"/>
      <use x="468.474915" xlink:href="#HelveticaNeue-115"/>
      <use x="518.474899" xlink:href="#HelveticaNeue-32"/>
      <use x="546.274887" xlink:href="#HelveticaNeue-105"/>
      <use x="568.474884" xlink:href="#HelveticaNeue-110"/>
      <use x="624.074875" xlink:href="#HelveticaNeue-32"/>
      <use x="651.874863" xlink:href="#HelveticaNeue-70"/>
      <use x="709.274857" xlink:href="#HelveticaNeue-108"/>
      <use x="731.474854" xlink:href="#HelveticaNeue-111"/>
      <use x="788.874847" xlink:href="#HelveticaNeue-114"/>
      <use x="822.174835" xlink:href="#HelveticaNeue-105"/>
      <use x="844.374832" xlink:href="#HelveticaNeue-100"/>
      <use x="903.67482" xlink:href="#HelveticaNeue-97"/>
     </g>
    </g>
   </g>
  </g>
 </g>
 <defs>
  <clipPath id="p638156c529">
   <rect height="408.96" width="558" x="95.68125" y="31.5955"/>
  </clipPath>
 </defs>
</svg>
